<svg width="36" height="36" viewBox="0 0 36 36" fill="none" xmlns="http://www.w3.org/2000/svg">
<g clip-path="url(#clip0_3695_4732)">
<path d="M26.6199 20.4569C24.1977 17.5325 21.1362 15.9219 17.999 15.9219C14.8618 15.9219 11.8002 17.5325 9.37818 20.4569C7.20102 23.0855 5.90137 26.3984 5.90137 29.3187C5.90137 30.7373 6.33505 31.8179 7.19034 32.5305C8.03451 33.2339 9.14903 33.4719 10.3924 33.4718C11.7155 33.4718 13.1846 33.2024 14.6281 32.9376C15.8894 32.7062 17.0808 32.4876 17.9991 32.4876C18.7916 32.4876 19.9091 32.6951 21.092 32.9146C23.8564 33.4279 26.9898 34.0096 28.7999 32.5046C29.6604 31.7892 30.0967 30.7172 30.0967 29.3187C30.0967 26.3984 28.797 23.0855 26.6199 20.4569ZM27.4513 30.8826C26.402 31.7551 23.6712 31.2481 21.4769 30.8408C20.1957 30.6029 18.9856 30.3783 17.9989 30.3783C16.8887 30.3783 15.6058 30.6137 14.2473 30.8629C12.1428 31.2489 9.52366 31.7294 8.54041 30.91C8.40934 30.8008 8.01053 30.4685 8.01053 29.3187C8.01053 26.9107 9.15705 24.0306 11.0025 21.8023C13.0166 19.3705 15.5013 18.0312 17.9988 18.0312C20.4963 18.0312 22.981 19.3705 24.9951 21.8023C26.8407 24.0306 27.9872 26.9107 27.9872 29.3187C27.9874 30.437 27.5839 30.7724 27.4513 30.8826Z" fill="white" stroke="white" stroke-opacity="0.16" stroke-width="0.25"/>
<path d="M26.8674 4.5793C25.9812 3.27269 24.7122 2.52344 23.3857 2.52344C22.0592 2.52344 20.7903 3.27283 19.9041 4.5793C19.09 5.77961 18.6416 7.35588 18.6416 9.01778C18.6416 10.6797 19.0899 12.256 19.9041 13.4563C20.7903 14.7628 22.0593 15.5122 23.3857 15.5122C24.7122 15.5122 25.9812 14.7628 26.8674 13.4563C27.6815 12.256 28.1299 10.6797 28.1299 9.01778C28.1299 7.35588 27.6815 5.77954 26.8674 4.5793ZM25.1217 12.2723C24.8354 12.6945 24.229 13.4029 23.3857 13.4029C22.5425 13.4029 21.9362 12.6946 21.6497 12.2723C21.0785 11.4301 20.7509 10.2438 20.7509 9.01778C20.7509 7.79167 21.0786 6.6055 21.6497 5.7633C21.9361 5.34107 22.5425 4.63267 23.3857 4.63267C24.229 4.63267 24.8354 5.341 25.1217 5.7633C25.693 6.6055 26.0205 7.79174 26.0205 9.01778C26.0205 10.2438 25.693 11.4301 25.1217 12.2723Z" fill="white" stroke="white" stroke-opacity="0.16" stroke-width="0.25"/>
<path d="M16.0969 4.57937C15.2107 3.27276 13.9417 2.52344 12.6152 2.52344C11.2887 2.52344 10.0197 3.27283 9.13355 4.57937C8.31948 5.77968 7.87109 7.35595 7.87109 9.01785C7.87109 10.6798 8.31941 12.256 9.13355 13.4563C10.0198 14.7629 11.2887 15.5123 12.6152 15.5123C13.9417 15.5123 15.2107 14.7629 16.0969 13.4563C16.911 12.256 17.3593 10.6798 17.3593 9.01785C17.3593 7.35595 16.911 5.77961 16.0969 4.57937ZM14.3511 12.2724C14.0647 12.6946 13.4583 13.403 12.6151 13.403C11.7719 13.403 11.1655 12.6946 10.8791 12.2724C10.3079 11.4302 9.98033 10.244 9.98033 9.01792C9.98033 7.79181 10.308 6.60564 10.8791 5.76344C11.1655 5.34121 11.7719 4.63281 12.6151 4.63281C13.4584 4.63281 14.0647 5.34114 14.3511 5.76344C14.9223 6.60564 15.2499 7.79188 15.2499 9.01792C15.2499 10.244 14.9223 11.4302 14.3511 12.2724Z" fill="white" stroke="white" stroke-opacity="0.16" stroke-width="0.25"/>
<path d="M35.7873 14.7733C35.43 13.5581 34.6643 12.675 33.6312 12.2869C32.7998 11.9747 31.8613 12.0276 30.9886 12.4361C29.7859 12.9989 28.8029 14.161 28.2917 15.6244C27.874 16.8203 27.8219 18.0843 28.1451 19.1838C28.5024 20.399 29.2681 21.2821 30.3013 21.6701C30.6588 21.8044 31.0361 21.8712 31.4194 21.8712C31.9276 21.8712 32.4465 21.7538 32.9439 21.521C34.1466 20.9582 35.1297 19.7961 35.6408 18.3328V18.3327C36.0585 17.1369 36.1106 15.8728 35.7873 14.7733ZM33.6494 17.6371C33.3291 18.554 32.7311 19.2918 32.0498 19.6106C31.7993 19.7277 31.4214 19.8376 31.043 19.6955C30.1297 19.3524 29.7745 17.775 30.2829 16.32C30.6032 15.4031 31.2012 14.6653 31.8826 14.3465C32.0486 14.2688 32.2707 14.1943 32.5117 14.1943C32.6343 14.1943 32.7619 14.2136 32.8894 14.2615C33.8026 14.6046 34.1578 16.182 33.6494 17.6371Z" fill="white" stroke="white" stroke-opacity="0.16" stroke-width="0.25"/>
<path d="M7.70529 15.6243C7.19404 14.1609 6.211 12.9988 5.00838 12.436C4.13559 12.0276 3.19706 11.9747 2.36575 12.2869C1.33258 12.675 0.566807 13.5581 0.209549 14.7733C-0.113677 15.8728 -0.0615757 17.1369 0.356151 18.3327V18.3327C0.867464 19.7961 1.85043 20.9582 3.05306 21.521C3.55059 21.7538 4.06943 21.8711 4.57757 21.8711C4.96092 21.8711 5.33821 21.8043 5.69568 21.6701C6.729 21.282 7.4947 20.3989 7.85196 19.1837C8.17504 18.0843 8.12294 16.8202 7.70529 15.6243ZM4.95389 19.6955C4.57553 19.8376 4.19753 19.7277 3.94708 19.6106C3.26582 19.2918 2.66775 18.5541 2.34747 17.6371V17.6372C1.83918 16.1821 2.19433 14.6048 3.10755 14.2616C3.48583 14.1195 3.8639 14.2294 4.11443 14.3466C4.79575 14.6654 5.39376 15.4032 5.71404 16.32C6.22232 17.7752 5.86711 19.3525 4.95389 19.6955Z" fill="white" stroke="white" stroke-opacity="0.16" stroke-width="0.25"/>
<path d="M20.596 25.8C21.124 25.8 21.556 25.368 21.556 24.84C21.556 24.312 21.124 23.88 20.596 23.88H18.676V21.96C18.676 21.432 18.244 21 17.716 21C17.188 21 16.756 21.432 16.756 21.96V23.88H14.836C14.308 23.88 13.876 24.312 13.876 24.84C13.876 25.368 14.308 25.8 14.836 25.8H16.756V27.72C16.756 28.248 17.188 28.68 17.716 28.68C18.244 28.68 18.676 28.248 18.676 27.72V25.8H20.596Z" fill="white" stroke="white" stroke-opacity="0.16" stroke-width="0.25"/>
</g>
<defs>
<clipPath id="clip0_3695_4732">
<rect width="36" height="36" fill="white"/>
</clipPath>
</defs>
</svg>
