<svg width="32" height="32" viewBox="0 0 32 32" fill="none" xmlns="http://www.w3.org/2000/svg">
<path d="M6.23891 17.8512C5.21517 17.8286 4.22441 18.2137 3.48458 18.9216C2.74475 19.6296 2.31645 20.6024 2.29391 21.6262C2.27136 22.6499 2.65642 23.6407 3.36437 24.3805C4.07232 25.1203 5.04517 25.5486 6.06891 25.5712C6.16209 25.5781 6.24968 25.6182 6.31575 25.6843C6.38182 25.7504 6.42198 25.838 6.42891 25.9312C6.45378 26.5166 6.6116 27.0886 6.89041 27.604C7.16922 28.1194 7.5617 28.5645 8.0381 28.9056C8.51449 29.2468 9.06231 29.475 9.64 29.573C10.2177 29.6709 10.8101 29.6361 11.3724 29.4711C11.9346 29.3061 12.4519 29.0153 12.885 28.6207C13.3182 28.2261 13.6558 27.738 13.8723 27.1935C14.0888 26.649 14.1785 26.0624 14.1346 25.4781C14.0907 24.8938 13.9143 24.3272 13.6189 23.8212C13.5783 23.7482 13.5623 23.6641 13.5731 23.5813C13.5839 23.4985 13.621 23.4213 13.6789 23.3612L23.3589 13.6812C23.4191 13.6232 23.4962 13.5861 23.579 13.5753C23.6618 13.5645 23.7459 13.5806 23.8189 13.6212C24.3249 13.9166 24.8916 14.0929 25.4759 14.1368C26.0602 14.1807 26.6468 14.091 27.1913 13.8745C27.7358 13.658 28.2238 13.3204 28.6184 12.8873C29.013 12.4541 29.3039 11.9368 29.4689 11.3746C29.6339 10.8124 29.6687 10.2199 29.5707 9.64225C29.4727 9.06455 29.2445 8.51674 28.9034 8.04035C28.5622 7.56395 28.1171 7.17147 27.6018 6.89266C27.0864 6.61385 26.5143 6.45603 25.9289 6.43115C25.8357 6.42422 25.7481 6.38407 25.6821 6.318C25.616 6.25193 25.5758 6.16434 25.5689 6.07116C25.544 5.48574 25.3862 4.91366 25.1074 4.3983C24.8286 3.88294 24.4361 3.43781 23.9597 3.09667C23.4833 2.75553 22.9355 2.52732 22.3578 2.42934C21.7801 2.33137 21.1877 2.3662 20.6255 2.53119C20.0632 2.69619 19.5459 2.98702 19.1128 3.38164C18.6796 3.77626 18.342 4.26431 18.1255 4.80879C17.909 5.35327 17.8193 5.9399 17.8632 6.5242C17.9071 7.1085 18.0835 7.67513 18.3789 8.18116C18.4195 8.25415 18.4355 8.33824 18.4247 8.42105C18.4139 8.50385 18.3768 8.58101 18.3189 8.64116L8.63891 18.3212C8.57876 18.3791 8.5016 18.4162 8.4188 18.427C8.33599 18.4378 8.2519 18.4217 8.17891 18.3812C7.59256 18.0311 6.92177 17.8479 6.23891 17.8512Z" fill="white"/>
</svg>
