<svg width="32" height="32" viewBox="0 0 32 32" fill="none" xmlns="http://www.w3.org/2000/svg">
<g clip-path="url(#clip0_2_139010)">
<path d="M28.0107 10.1891C27.863 10.1891 27.7645 10.1399 27.666 10.0414L21.9553 4.37989C21.7584 4.18297 21.7584 3.88758 21.9553 3.69066C22.1522 3.49374 22.4476 3.49374 22.6445 3.69066L28.3553 9.3522C28.5522 9.54912 28.5522 9.84451 28.3553 10.0414C28.2568 10.1399 28.1091 10.1891 28.0107 10.1891ZM25.4999 10.6322C25.3522 10.6322 25.2537 10.583 25.1553 10.4845L21.5122 6.84143C21.3153 6.64451 21.3153 6.34912 21.5122 6.1522C21.7091 5.95528 22.0045 5.95528 22.2014 6.1522L25.8445 9.79528C26.0414 9.9922 26.0414 10.2876 25.8445 10.4845C25.746 10.583 25.6476 10.6322 25.4999 10.6322ZM10.1399 25.9922C9.9922 25.9922 9.89374 25.943 9.79528 25.8445L6.1522 22.2014C5.95528 22.0045 5.95528 21.7091 6.1522 21.5122C6.34912 21.3153 6.64451 21.3153 6.84143 21.5122L10.4845 25.1553C10.6814 25.3522 10.6814 25.6476 10.4845 25.8445C10.386 25.943 10.2876 25.9922 10.1399 25.9922ZM9.69682 28.503C9.54912 28.503 9.45066 28.4537 9.3522 28.3553L3.69066 22.6445C3.49374 22.4476 3.49374 22.1522 3.69066 21.9553C3.88758 21.7584 4.18297 21.7584 4.37989 21.9553L10.0907 27.666C10.2876 27.863 10.2876 28.1584 10.0907 28.3553C9.94297 28.4537 9.84451 28.503 9.69682 28.503ZM20.2814 16.7368C20.1337 16.7368 20.0353 16.6876 19.9368 16.5891L15.4076 12.0599C15.2107 11.863 15.2107 11.5676 15.4076 11.3707C15.6045 11.1737 15.8999 11.1737 16.0968 11.3707L20.626 15.8999C20.823 16.0968 20.823 16.3922 20.626 16.5891C20.5276 16.6876 20.4291 16.7368 20.2814 16.7368ZM19.0999 19.5922C18.9522 19.5922 18.8537 19.543 18.7553 19.4445L12.5522 13.2414C12.3553 13.0445 12.3553 12.7491 12.5522 12.5522C12.7491 12.3553 13.0445 12.3553 13.2414 12.5522L19.4445 18.7553C19.6414 18.9522 19.6414 19.2476 19.4445 19.4445C19.346 19.543 19.1984 19.5922 19.0999 19.5922ZM16.2445 20.7737C16.0968 20.7737 15.9984 20.7245 15.8999 20.626L11.3707 16.0968C11.1737 15.8999 11.1737 15.6045 11.3707 15.4076C11.5676 15.2107 11.863 15.2107 12.0599 15.4076L16.5891 19.9368C16.786 20.1337 16.786 20.4291 16.5891 20.626C16.4907 20.7245 16.343 20.7737 16.2445 20.7737Z" fill="white"/>
<path d="M30.8669 10.4379L30.9162 10.3887C31.3592 9.89638 31.3592 9.15792 30.8669 8.66561C30.3746 8.22254 29.6362 8.22254 29.1438 8.71484C28.7992 9.05946 28.3562 9.35484 27.8146 9.55177C27.0762 9.84715 26.2392 9.99484 25.4023 10.0441C24.1715 10.1425 22.99 9.99484 22.1531 9.84715C22.0054 8.961 21.9069 7.77946 21.9562 6.54869C22.0054 5.71177 22.1531 4.87484 22.4485 4.13638C22.6454 3.64407 22.9408 3.201 23.2854 2.85638L23.3346 2.80715C23.8269 2.31484 23.8269 1.52715 23.3346 1.08407C22.8423 0.591767 22.1038 0.591767 21.6115 1.08407L21.5623 1.13331C19.2977 3.39792 19.3469 7.18869 19.5931 9.40407C17.3777 9.15792 13.5869 9.10869 11.3223 11.3733C9.05769 13.6379 9.10692 17.4287 9.35308 19.6441C7.13769 19.3979 3.34692 19.3487 1.08231 21.6133V21.6625C0.639231 22.1548 0.639231 22.8933 1.08231 23.3856C1.57462 23.8779 2.31308 23.8779 2.80538 23.3856L2.85462 23.3364C3.19923 22.9918 3.64231 22.6964 4.18385 22.4995C4.92231 22.2041 5.75923 22.0564 6.59615 22.0072C7.77769 21.9087 9.00846 22.0564 9.84538 22.2041C9.99308 23.0902 10.1408 24.2718 10.0423 25.5025C9.99308 26.3395 9.84538 27.1764 9.55 27.9148C9.35308 28.4072 9.10692 28.8502 8.71308 29.1948L8.66385 29.2441C8.17154 29.6872 8.17154 30.4748 8.61462 30.9672C9.05769 31.4102 9.84538 31.4595 10.2885 31.0164L10.3869 30.9179C12.6515 28.6533 12.6023 24.8625 12.3562 22.6472C14.5715 22.8933 18.3623 22.9425 20.6269 20.6779C22.8915 18.4133 22.8423 14.6225 22.5962 12.4072C24.8115 12.6533 28.6023 12.7025 30.8669 10.4379ZM20.1838 16.0995C20.0362 17.1825 19.6423 18.2164 18.9531 18.9056C18.2638 19.5948 17.23 19.9887 16.1469 20.1364C14.67 20.3825 13.0454 20.2348 11.9623 20.0379C11.7654 18.9548 11.6177 17.3302 11.8638 15.8533C12.0115 14.7702 12.4054 13.7364 13.0946 13.0472C13.7838 12.3579 14.8177 11.9641 15.9008 11.8164C17.3777 11.5702 19.0023 11.7179 20.0854 11.9148C20.2823 12.9979 20.43 14.6225 20.1838 16.0995Z" fill="white"/>
</g>
<defs>
<clipPath id="clip0_2_139010">
<rect width="32" height="32" fill="white"/>
</clipPath>
</defs>
</svg>
