<svg width="40" height="40" viewBox="0 0 40 40" fill="none" xmlns="http://www.w3.org/2000/svg">
<mask id="mask0_3695_4754" style="mask-type:alpha" maskUnits="userSpaceOnUse" x="0" y="0" width="40" height="40">
<rect width="40" height="40" fill="#D9D9D9"/>
</mask>
<g mask="url(#mask0_3695_4754)">
<path d="M19.999 3.83594C20.9352 3.83594 21.873 3.93657 22.8115 4.1377C23.5083 4.28702 24.1825 4.4908 24.834 4.75098L22.9834 6.60156C22.5518 6.47259 22.1112 6.37187 21.6611 6.30078C21.1079 6.21343 20.5532 6.16895 19.999 6.16895C17.0583 6.16902 14.5595 7.23104 12.5342 9.34375C10.5119 11.4533 9.49902 14.0165 9.49902 17.0029C9.49911 19.1099 10.3726 21.4555 12.0381 24.0244C13.7086 26.601 16.2557 29.4528 19.6611 32.5791L19.999 32.8896L20.3369 32.5791C22.0129 31.0428 23.4835 29.5738 24.7461 28.1709C25.8429 26.9522 26.7745 25.7695 27.54 24.625L29.2246 26.3105C28.1739 27.8158 26.8964 29.3628 25.3867 30.9492C23.8435 32.5709 22.0479 34.2572 20 36.0098C15.7108 32.3271 12.5133 28.9195 10.3926 25.7852C8.21781 22.5709 7.1661 19.647 7.16602 17.0029C7.16602 13.3525 8.40916 10.2552 10.9004 7.68359C13.3891 5.11467 16.412 3.83601 19.999 3.83594ZM37.625 13.3359L29.999 20.9619L28.373 19.3359L32.2744 15.4346L31.3408 15.2607C30.0499 15.0206 28.0621 15.1625 25.4316 15.6357C23.0762 16.0595 20.5278 17.5081 17.7871 19.9102C18.7531 17.6147 20.2662 15.7123 22.3359 14.1973C24.9433 12.2888 27.8816 11.3359 31.166 11.3359H32.373L28.373 7.33594L29.999 5.70898L37.625 13.3359Z" fill="white"/>
</g>
</svg>
