<svg width="32" height="32" viewBox="0 0 32 32" fill="none" xmlns="http://www.w3.org/2000/svg">
<g clip-path="url(#clip0_2_139017)">
<path d="M17.087 15.57C17.327 16.162 17.039 16.818 16.463 17.074C12.911 18.37 9.83897 20.498 7.40697 23.218C7.58297 23.426 7.75897 23.634 7.95097 23.826C9.63097 25.506 13.135 27.026 16.927 27.026C18.703 27.026 20.559 26.69 22.319 25.89C26.895 23.81 32.127 17.954 31.055 1.89001C31.023 1.39401 30.671 0.978008 30.175 0.850008C29.695 0.722008 29.167 0.930008 28.895 1.34601C28.831 1.44201 27.215 3.77801 21.855 3.82601C21.007 3.68201 19.231 3.69801 15.887 3.90601L15.519 3.92201C12.655 4.08201 9.96697 5.29801 7.95097 7.31401C5.75897 9.50601 4.54297 12.45 4.54297 15.57C4.54297 17.602 5.07097 19.538 6.03097 21.266C8.65497 18.466 11.887 16.258 15.599 14.898C16.191 14.69 16.847 14.978 17.087 15.57Z" fill="white"/>
<path d="M1.57002 31.122C1.69802 31.17 1.84202 31.186 1.97002 31.186C2.45002 31.186 2.89802 30.898 3.07402 30.418C4.05002 27.714 5.55402 25.298 7.41002 23.202C6.88202 22.594 6.41802 21.938 6.01802 21.25C3.79402 23.634 2.00202 26.466 0.866017 29.618C0.658017 30.242 0.962017 30.914 1.57002 31.122Z" fill="white"/>
</g>
<defs>
<clipPath id="clip0_2_139017">
<rect width="32" height="32" fill="white"/>
</clipPath>
</defs>
</svg>
