<svg width="32" height="32" viewBox="0 0 32 32" fill="none" xmlns="http://www.w3.org/2000/svg">
<g clip-path="url(#clip0_2_139021)">
<path d="M29.933 8.06615C28.9997 7.06615 27.733 6.39948 26.3997 6.13281C26.4663 6.13281 26.533 6.06615 26.5997 6.06615C27.2663 5.79948 27.5997 5.06615 27.333 4.39948C27.0663 3.73281 26.333 3.39948 25.6663 3.66615C23.333 4.53281 21.1997 5.73281 19.1997 7.33281L18.6663 5.79948C17.9997 3.73281 16.533 2.13281 14.5997 1.19948C12.6663 0.266146 10.533 0.132812 8.46634 0.799479L6.66634 1.39948C5.99967 1.59948 5.66634 2.33281 5.86634 2.99948L6.46634 4.79948C7.13301 6.86615 8.59967 8.46615 10.533 9.39948C11.6663 9.93281 12.8663 10.2661 14.0663 10.2661C14.733 10.2661 15.3997 10.1995 16.0663 9.99948C14.4663 11.6661 13.2663 13.6661 12.4663 15.8661C11.6663 14.5995 10.533 13.5328 9.19967 12.8661C7.26634 11.9328 5.13301 11.7995 3.06634 12.4661L1.26634 13.0661C0.599674 13.2661 0.199674 14.0661 0.466341 14.7328L1.06634 16.5328C1.73301 18.5995 3.19967 20.1995 5.13301 21.1328C6.26634 21.6661 7.46634 21.9995 8.66634 21.9995C9.53301 21.9995 10.3997 21.8661 11.2663 21.5995L11.4663 21.5328C11.4663 21.7328 11.4663 21.8661 11.4663 22.0661V30.3328C11.4663 31.0661 12.0663 31.6661 12.7997 31.6661C13.533 31.6661 14.133 31.0661 14.133 30.3328V25.9995L15.4663 26.4661C16.333 26.7328 17.1997 26.8661 18.0663 26.8661C19.2663 26.8661 20.4663 26.5995 21.5997 25.9995C23.533 25.0661 24.933 23.3995 25.6663 21.3995L26.2663 19.5995C26.4663 18.9328 26.133 18.1995 25.4663 17.9328L23.6663 17.3328C21.6663 16.6661 19.4663 16.7995 17.533 17.7328C16.133 18.3995 14.9997 19.4661 14.1997 20.7995C14.4663 17.1328 16.0663 13.7328 18.6663 11.2661C19.933 10.0661 21.333 8.93281 22.7997 8.06615V8.66615C22.733 10.3995 23.333 12.0661 24.533 13.3328C25.733 14.5995 27.333 15.3328 28.9997 15.3995L30.4663 15.4661C30.4663 15.4661 30.4663 15.4661 30.533 15.4661C31.1997 15.4661 31.7997 14.9328 31.8663 14.1995L31.933 12.7328C31.733 10.9995 31.133 9.33281 29.933 8.06615Z" fill="white"/>
</g>
<defs>
<clipPath id="clip0_2_139021">
<rect width="32" height="32" fill="white"/>
</clipPath>
</defs>
</svg>
