<svg width="32" height="32" viewBox="0 0 32 32" fill="none" xmlns="http://www.w3.org/2000/svg">
<path d="M14.6681 13.6689C14.4226 13.8709 14.22 14.2807 13.6657 14.2807C13.4163 14.2807 13.1763 14.1866 12.9975 14.0077L11.7457 12.7466C11.374 12.3795 11.374 11.7819 11.741 11.4148L12.0657 11.0854C12.0799 11.1042 12.094 11.1184 12.1128 11.1372L14.4798 13.4995C14.541 13.5607 14.6022 13.6172 14.6681 13.6689ZM14.0469 16.0548V17.6266C14.0469 18.0454 13.7081 18.3795 13.2939 18.3795H5.39749C4.98337 18.3795 4.64453 18.0454 4.64453 17.6266V16.0548C4.64453 15.6407 4.98337 15.3019 5.39749 15.3019H13.2939C13.7081 15.3019 14.0469 15.6407 14.0469 16.0548ZM23.1661 6.50424C22.5171 7.15202 25.5157 4.15628 16.8226 12.8431C16.6014 13.0689 16.3049 13.1913 15.9896 13.1913C15.6696 13.1913 15.3732 13.0689 15.152 12.8431L12.7802 10.4713C12.3191 10.0101 12.3191 9.26188 12.7802 8.80071L19.1237 2.45717C19.5049 2.07599 20.1779 2.07599 20.5591 2.46188L23.1661 5.06893C23.5614 5.46423 23.5614 6.10894 23.1661 6.50424Z" fill="white"/>
<path d="M26.0571 15.0727C26.0571 20.3244 21.7889 24.5926 16.5418 24.5926C12.8947 24.5926 9.62885 22.5221 8.04297 19.3174H11.8783C13.0547 20.6162 14.7441 21.3926 16.5418 21.3926C20.0241 21.3926 22.8618 18.5597 22.8618 15.0727C22.8618 13.228 22.0524 11.4962 20.6877 10.3103C20.7347 10.2633 22.9135 8.08443 22.9135 8.08443L22.9512 8.04677C24.9183 9.835 26.0571 12.3715 26.0571 15.0727ZM24.9371 3.34089L23.8594 4.42795L21.2665 1.835L22.3442 0.74794C22.7112 0.380895 23.3465 0.380895 23.7088 0.74794L24.9371 1.97617C25.314 2.35317 25.3143 2.96358 24.9371 3.34089Z" fill="white"/>
<path d="M25.2853 27.1738H7.65234C7.90177 25.5973 8.57471 24.1149 9.59587 22.8867C11.4641 24.5573 13.9112 25.5361 16.5418 25.5361C19.1677 25.5361 21.5629 24.5667 23.3982 22.962C24.3818 24.1761 25.0359 25.6302 25.2853 27.1738Z" fill="white"/>
<path d="M27.3561 29.0592V30.5792C27.3561 31.1015 26.9279 31.525 26.4102 31.525H6.52789C6.00554 31.525 5.58203 31.1015 5.58203 30.5792V29.0592C5.58203 28.5368 6.00554 28.1133 6.52789 28.1133H26.4102C26.9279 28.1133 27.3561 28.5368 27.3561 29.0592Z" fill="white"/>
</svg>
