<svg width="38" height="38" viewBox="0 0 38 38" fill="none" xmlns="http://www.w3.org/2000/svg">
<g clip-path="url(#clip0_3695_4764)">
<path d="M37.7735 0.755516L37.7355 0.261516L37.2415 0.223516C36.7095 0.185516 23.9795 -0.536484 21.8135 4.28952C20.9015 6.30352 21.9655 8.96352 25.0055 12.1555L23.0675 14.0935L18.8875 9.95152C18.6595 9.72352 18.3175 9.72352 18.0895 9.95152C17.8615 10.1795 17.8615 10.5215 18.0895 10.7495L22.2315 14.8915L20.7495 16.3735L15.0875 10.7115C14.8595 10.4835 14.5175 10.4835 14.2895 10.7115C14.0615 10.9395 14.0615 11.2815 14.2895 11.5095L19.9515 17.1715L18.4695 18.6535L13.5675 13.7515C13.3395 13.5235 12.9975 13.5235 12.7695 13.7515C12.5415 13.9795 12.5415 14.3215 12.7695 14.5495L17.6715 19.4515L16.1895 20.9335L12.4275 17.1715C12.1995 16.9435 11.8575 16.9435 11.6295 17.1715C11.4015 17.3995 11.4015 17.7415 11.6295 17.9695L15.3915 21.7315L13.9095 23.2135L11.6675 20.9715C11.4395 20.7435 11.0975 20.7435 10.8695 20.9715C10.6415 21.1995 10.6415 21.5415 10.8695 21.7695L13.1115 24.0115L11.6295 25.4935L9.38753 23.2515C9.15953 23.0235 8.81753 23.0235 8.58953 23.2515C8.36153 23.4795 8.36153 23.8215 8.58953 24.0495L10.8315 26.2915L9.04552 28.1155C8.51353 27.9255 7.52553 27.6595 6.27153 27.5835C3.87753 27.4315 1.82553 28.1535 0.343526 29.6735C0.229526 29.7875 0.153526 29.9775 0.191526 30.1295C0.229526 30.2815 0.305526 30.4715 0.457526 30.5475L4.67553 33.3595L7.48753 37.5775C7.56353 37.7295 7.75352 37.8055 7.90552 37.8435H7.94353C8.09553 37.8435 8.24753 37.7675 8.36153 37.6915C9.88153 36.1715 10.5655 34.1195 10.4515 31.7635C10.3755 30.5095 10.0715 29.4835 9.91953 28.9515L11.7055 27.1655L14.0235 29.4835C14.1375 29.5975 14.2895 29.6355 14.4415 29.6355C14.5935 29.6355 14.7455 29.5975 14.8595 29.4835C15.0875 29.2555 15.0875 28.9135 14.8595 28.6855L12.5415 26.3675L14.0235 24.8855L16.3415 27.2035C16.4555 27.3175 16.6075 27.3555 16.7595 27.3555C16.9115 27.3555 17.0635 27.3175 17.1775 27.2035C17.4055 26.9755 17.4055 26.6335 17.1775 26.4055L14.8595 24.0875L16.3415 22.6055L20.1795 26.4435C20.2935 26.5575 20.4455 26.5955 20.5975 26.5955C20.7495 26.5955 20.9015 26.5575 21.0155 26.4435C21.2435 26.2155 21.2435 25.8735 21.0155 25.6455L17.0255 21.7315L18.5075 20.2495L23.4855 25.2275C23.5995 25.3415 23.7515 25.3795 23.9035 25.3795C24.0555 25.3795 24.2075 25.3415 24.3215 25.2275C24.5495 24.9995 24.5495 24.6575 24.3215 24.4295L19.3055 19.4515L20.7875 17.9695L26.5255 23.7075C26.6395 23.8215 26.7915 23.8595 26.9435 23.8595C27.0955 23.8595 27.2475 23.8215 27.3615 23.7075C27.5895 23.4795 27.5895 23.1375 27.3615 22.9095L21.5855 17.1715L23.0675 15.6895L27.2855 19.9075C27.3995 20.0215 27.5515 20.0595 27.7035 20.0595C27.8555 20.0595 28.0075 20.0215 28.1215 19.9075C28.3495 19.6795 28.3495 19.3375 28.1215 19.1095L23.8655 14.8915L25.8035 12.9535C28.9955 15.9935 31.6175 17.0955 33.6695 16.1835C38.5335 14.0175 37.8115 1.28752 37.7735 0.755516ZM8.01953 36.3235L5.54953 32.6375C5.51153 32.5995 5.51153 32.5615 5.47353 32.5615C5.43553 32.5235 5.43553 32.5235 5.39753 32.5235L1.67353 30.0155C4.33353 27.9255 7.86753 28.9515 8.77953 29.2555C9.08353 30.1675 10.0715 33.6635 8.01953 36.3235ZM33.2135 15.1195C31.5415 15.8795 29.1855 14.7395 26.2215 11.7375C23.2195 8.73552 22.1175 6.37952 22.8395 4.74552C24.3215 1.47752 32.8715 1.17352 36.6715 1.32552C36.7095 2.54152 36.7095 4.21352 36.5955 5.99952C36.5575 5.99952 36.5575 6.03752 36.5195 6.03752L32.6055 9.95152C32.3775 10.1795 32.3775 10.5215 32.6055 10.7495C32.7195 10.8635 32.8715 10.9015 33.0235 10.9015C33.1755 10.9015 33.3275 10.8635 33.4415 10.7495L36.4435 7.74752C36.0255 11.0535 35.1135 14.2835 33.2135 15.1195Z" fill="white" stroke="white" stroke-width="0.42"/>
<path d="M27.6634 4.14062C26.2954 4.14062 25.1934 5.24262 25.1934 6.61062C25.1934 7.97862 26.2954 9.08062 27.6634 9.08062C29.0314 9.08062 30.1334 7.97862 30.1334 6.61062C30.1334 5.24262 29.0314 4.14062 27.6634 4.14062ZM27.6634 7.94062C26.9414 7.94062 26.3334 7.33262 26.3334 6.61062C26.3334 5.88862 26.9414 5.28062 27.6634 5.28062C28.3854 5.28062 28.9934 5.88862 28.9934 6.61062C28.9934 7.33262 28.3854 7.94062 27.6634 7.94062Z" fill="white"/>
</g>
<defs>
<clipPath id="clip0_3695_4764">
<rect width="38" height="38" fill="white"/>
</clipPath>
</defs>
</svg>
