<svg width="40" height="40" viewBox="0 0 40 40" fill="none" xmlns="http://www.w3.org/2000/svg">
<path d="M22.1656 14.7242C21.6268 15.2786 21.2792 15.9906 21.1736 16.7565C21.0681 17.5223 21.2099 18.3018 21.5786 18.9813L21.6461 19.1063C21.9534 19.6837 22.4119 20.1667 22.9725 20.5037C23.533 20.8407 24.1746 21.0191 24.8287 21.0197C25.3259 21.0191 25.8177 20.9168 26.274 20.7192L27.3209 20.2683C27.6771 20.1147 28.0623 20.0401 28.4501 20.0496C28.8379 20.0592 29.219 20.1526 29.5672 20.3236L30.4773 20.7698C31.2381 21.1411 32.1047 21.2351 32.9274 21.0356C33.7502 20.8361 34.4774 20.3557 34.9837 19.6771C35.49 18.9986 35.7435 18.1646 35.7004 17.3192C35.6574 16.4737 35.3205 15.6697 34.7479 15.0462L31.4161 11.4915C31.0276 11.0766 30.5588 10.745 30.0381 10.5168C29.5175 10.2886 28.9559 10.1687 28.3875 10.1642C27.8191 10.1597 27.2557 10.2708 26.7316 10.4907C26.2074 10.7107 25.7334 11.0348 25.3384 11.4436L22.1656 14.7242ZM28.355 11.1015C28.8007 11.1023 29.2415 11.1942 29.6504 11.3715C30.0592 11.5489 30.4275 11.8079 30.7327 12.1327L34.0603 15.6833C34.4842 16.1463 34.7334 16.7426 34.7648 17.3696C34.7963 17.9965 34.608 18.6148 34.2324 19.1178C33.8568 19.6208 33.3175 19.977 32.7075 20.125C32.0974 20.273 31.4549 20.2036 30.8906 19.9286L29.98 19.4826C29.5104 19.2519 28.9963 19.1258 28.4733 19.113C27.9502 19.1001 27.4306 19.2007 26.9502 19.408L25.9033 19.8589C25.2857 20.1281 24.5892 20.1544 23.953 19.9326C23.3169 19.7108 22.7878 19.2571 22.4714 18.6622L22.4038 18.5373C22.1301 18.0328 22.0248 17.454 22.1032 16.8855C22.1815 16.3169 22.4395 15.7882 22.8395 15.3766L26.0126 12.096C26.3169 11.7823 26.681 11.5327 27.0833 11.3619C27.4856 11.1911 27.918 11.1026 28.355 11.1015Z" fill="white" stroke="white" stroke-width="0.6"/>
<path d="M25.1486 9.2082C26.6085 9.2082 27.7962 7.665 27.7962 5.7682C27.7962 3.87141 26.6087 2.32812 25.1486 2.32812C23.6884 2.32812 22.501 3.87133 22.501 5.7682C22.501 7.66508 23.6886 9.2082 25.1486 9.2082ZM25.1486 3.26563C26.0756 3.26563 26.8587 4.41164 26.8587 5.7682C26.8587 7.12477 26.0756 8.2707 25.1486 8.2707C24.2215 8.2707 23.4385 7.12469 23.4385 5.7682C23.4385 4.41172 24.2216 3.26563 25.1486 3.26563Z" fill="white" stroke="white" stroke-width="0.6"/>
<path d="M31.6096 8.93477C33.0696 8.93477 34.2572 7.39156 34.2572 5.49477C34.2572 3.59797 33.0696 2.05469 31.6096 2.05469C30.1497 2.05469 28.9619 3.59789 28.9619 5.49477C28.9619 7.39164 30.1497 8.93477 31.6096 8.93477ZM31.6096 2.99219C32.5366 2.99219 33.3197 4.1382 33.3197 5.49477C33.3197 6.85133 32.5366 7.99727 31.6096 7.99727C30.6827 7.99727 29.8994 6.85125 29.8994 5.49477C29.8994 4.13828 30.6826 2.99219 31.6096 2.99219Z" fill="white" stroke="white" stroke-width="0.6"/>
<path d="M35.7084 12.7094C35.9003 12.7717 36.1008 12.8033 36.3026 12.8032C36.656 12.7991 37.0033 12.7107 37.3156 12.5454C38.0843 12.1522 38.7048 11.3697 39.0181 10.3985C39.5627 8.71038 38.9646 7.00007 37.6849 6.586C37.1693 6.41897 36.6136 6.47577 36.0777 6.75007C35.3091 7.14327 34.6885 7.92577 34.3752 8.89694C33.8306 10.5846 34.4287 12.2951 35.7084 12.7094ZM35.2674 9.18429C35.5018 8.45897 35.9639 7.86085 36.5046 7.58429C36.6861 7.48763 36.8878 7.43494 37.0934 7.43046C37.1962 7.43008 37.2983 7.4459 37.3962 7.47733C38.1712 7.72827 38.5055 8.93413 38.1259 10.1105C37.8919 10.8358 37.4294 11.434 36.8887 11.7105C36.6729 11.821 36.343 11.9293 35.9972 11.8172C35.2223 11.5666 34.888 10.3607 35.2674 9.18429Z" fill="white" stroke="white" stroke-width="0.6"/>
<path d="M19.4819 12.6849C19.7723 12.8196 20.088 12.8909 20.408 12.894C20.6429 12.8943 20.8759 12.8516 21.0955 12.7681C22.3529 12.2902 22.8649 10.5519 22.2368 8.89311C21.8755 7.93881 21.2167 7.18835 20.4295 6.83413C19.8807 6.5871 19.3226 6.55835 18.816 6.75092C17.5586 7.22874 17.0466 8.96702 17.6746 10.6259C18.0359 11.5802 18.6949 12.3307 19.4819 12.6849ZM19.1489 7.62733C19.2616 7.58481 19.3811 7.56325 19.5016 7.56374C19.6894 7.56716 19.8744 7.6099 20.0447 7.68921C20.5984 7.93842 21.0901 8.51257 21.3599 9.22522C21.7974 10.3815 21.524 11.6023 20.7623 11.8918C20.4226 12.0209 20.0876 11.9294 19.8666 11.8299C19.3128 11.5808 18.8211 11.0065 18.5513 10.294C18.1135 9.13796 18.3872 7.91686 19.1489 7.62733Z" fill="white" stroke="white" stroke-width="0.6"/>
<path d="M5.55136 31.5285C5.01257 32.0829 4.66502 32.7949 4.5594 33.5607C4.45379 34.3265 4.59563 35.106 4.96425 35.7855L5.03191 35.911C5.45863 36.7131 6.17221 37.3247 7.03014 37.6237C7.88808 37.9227 8.82723 37.8871 9.66004 37.5239L10.7069 37.073C11.0631 36.9194 11.4483 36.8448 11.8361 36.8543C12.2239 36.8639 12.605 36.9573 12.9532 37.1283L13.8633 37.5744C14.6241 37.9458 15.4907 38.0399 16.3135 37.8404C17.1363 37.6409 17.8636 37.1604 18.3699 36.4819C18.8762 35.8033 19.1297 34.9693 19.0866 34.1238C19.0435 33.2783 18.7066 32.4743 18.1339 31.8508L14.8021 28.2961C14.4136 27.8812 13.9448 27.5496 13.4241 27.3215C12.9035 27.0933 12.342 26.9734 11.7735 26.9689C11.2051 26.9644 10.6418 27.0755 10.1176 27.2954C9.59345 27.5153 9.11945 27.8395 8.72441 28.2482L5.55136 31.5285ZM11.7405 27.9059C12.1862 27.9067 12.6269 27.9986 13.0358 28.1759C13.4446 28.3533 13.8129 28.6123 14.1181 28.9371L17.4457 32.4876C17.8697 32.9506 18.119 33.547 18.1504 34.1739C18.1818 34.8009 17.9935 35.4192 17.6179 35.9222C17.2424 36.4253 16.703 36.7815 16.093 36.9295C15.4829 37.0775 14.8403 37.008 14.276 36.733L13.3659 36.2868C12.8962 36.0562 12.3822 35.9301 11.8591 35.9172C11.3361 35.9044 10.8165 36.005 10.3361 36.2123L9.28918 36.6632C8.67154 36.9324 7.9751 36.9587 7.33891 36.7369C6.70273 36.5151 6.17361 36.0615 5.85722 35.4666L5.78957 35.3412C5.51586 34.8367 5.41051 34.258 5.48889 33.6894C5.56727 33.1208 5.82527 32.5922 6.22527 32.1806L9.39824 28.8995C9.70266 28.5861 10.0667 28.3367 10.469 28.166C10.8712 27.9954 11.3036 27.9069 11.7405 27.9059Z" fill="white" stroke="white" stroke-width="0.6"/>
<path d="M8.53047 26.0129C9.99039 26.0129 11.1781 24.4697 11.1781 22.5728C11.1781 20.6759 9.99062 19.1328 8.53047 19.1328C7.07031 19.1328 5.88281 20.676 5.88281 22.5728C5.88281 24.4696 7.07055 26.0129 8.53047 26.0129ZM8.53047 20.0703C9.45742 20.0703 10.2406 21.2163 10.2406 22.5728C10.2406 23.9293 9.45742 25.0754 8.53047 25.0754C7.60352 25.0754 6.82031 23.9293 6.82031 22.5728C6.82031 21.2163 7.60352 20.0703 8.53047 20.0703Z" fill="white" stroke="white" stroke-width="0.6"/>
<path d="M14.9855 25.7395C16.4455 25.7395 17.6331 24.1963 17.6331 22.2995C17.6331 20.4027 16.4456 18.8594 14.9855 18.8594C13.5255 18.8594 12.3379 20.4026 12.3379 22.2995C12.3379 24.1963 13.5256 25.7395 14.9855 25.7395ZM14.9855 19.7969C15.9125 19.7969 16.6956 20.943 16.6956 22.2995C16.6956 23.6559 15.9125 24.802 14.9855 24.802C14.0586 24.802 13.2754 23.6559 13.2754 22.2995C13.2754 20.943 14.0586 19.7969 14.9855 19.7969Z" fill="white" stroke="white" stroke-width="0.6"/>
<path d="M22.3902 27.2036C22.9347 25.5156 22.3366 23.8052 21.057 23.3907C20.5413 23.2237 19.9856 23.2804 19.4498 23.5548C18.6811 23.9479 18.0605 24.7304 17.7473 25.7016C17.2027 27.3897 17.8008 29.1001 19.0805 29.5146C19.2722 29.5768 19.4726 29.6085 19.6742 29.6084C20.0276 29.6043 20.3749 29.5159 20.6873 29.3506C21.4563 28.9574 22.0769 28.1748 22.3902 27.2036ZM19.3692 28.6225C18.5942 28.3715 18.2598 27.1656 18.6395 25.9892C18.8734 25.2639 19.3359 24.6658 19.8766 24.3892C20.0582 24.2926 20.2599 24.2399 20.4655 24.2354C20.5682 24.235 20.6703 24.2509 20.7681 24.2823C21.5432 24.5333 21.8775 25.7391 21.4979 26.9155C21.2635 27.6409 20.8014 28.239 20.2608 28.5156C20.0448 28.6263 19.715 28.7344 19.3692 28.6225Z" fill="white" stroke="white" stroke-width="0.6"/>
<path d="M2.85795 29.4819C3.14829 29.6166 3.46399 29.6879 3.78404 29.691C4.01897 29.6913 4.25198 29.6487 4.47154 29.5651C5.72889 29.0873 6.24092 27.349 5.61279 25.6901C5.25146 24.7358 4.59279 23.9853 3.80553 23.631C3.25654 23.384 2.69857 23.3552 2.19201 23.5478C0.934823 24.0258 0.422479 25.7641 1.0506 27.4229C1.41193 28.3772 2.07068 29.1276 2.85795 29.4819ZM2.52498 24.4244C2.63768 24.3818 2.75724 24.3602 2.87771 24.3608C3.06549 24.3641 3.25046 24.4069 3.42068 24.4862C3.97451 24.7354 4.46615 25.3096 4.73599 26.0223C5.17349 27.1785 4.90006 28.3993 4.13834 28.6887C3.79865 28.8179 3.46373 28.7263 3.24264 28.6269C2.68889 28.3778 2.19717 27.8036 1.9274 27.0909C1.48951 25.935 1.76295 24.7138 2.52498 24.4244Z" fill="white" stroke="white" stroke-width="0.6"/>
</svg>
