<svg width="36" height="36" viewBox="0 0 36 36" fill="currentColor" xmlns="http://www.w3.org/2000/svg">
<g id="fi_16363348">
<g id="Group">
<path id="Vector" d="M33.1507 0.749284C30.3007 -0.975716 25.3507 2.99928 20.5507 10.9493C19.9507 11.9243 19.3507 12.9743 18.8257 14.0243C18.3007 13.9493 17.7757 13.9493 17.1757 14.0243C16.5757 12.8993 15.9757 11.9243 15.4507 10.9493C10.6507 3.07428 5.70065 -0.975716 2.85065 0.749284C1.80065 1.42428 0.82565 2.99928 1.72565 6.82428C2.40065 9.59928 3.90065 12.9743 6.15065 16.6493C6.97565 17.9993 7.87565 19.3493 8.77565 20.6243C7.42565 22.8743 6.60065 25.4243 6.60065 27.2993C6.60065 31.9493 11.7007 35.6993 18.0007 35.6993C24.3007 35.6993 29.4757 31.9493 29.4757 27.2993C29.4757 25.4243 28.6507 22.9493 27.3007 20.6243C28.2007 19.3493 29.1007 17.9993 29.9257 16.7243C32.1757 13.0493 33.6757 9.67428 34.3507 6.89928C35.1757 2.99928 34.2007 1.42428 33.1507 0.749284ZM3.90065 6.29928C3.30065 3.89928 3.67565 2.92428 4.05065 2.69928C4.12565 2.62428 4.27565 2.62428 4.42565 2.62428C5.77565 2.62428 9.30065 5.09929 13.5757 12.1493C14.0257 12.8993 14.5507 13.7993 15.0007 14.6243C14.9257 14.6243 14.9257 14.6993 14.8507 14.6993C14.7007 14.7743 14.4757 14.8493 14.3257 14.9243C14.2507 14.9243 14.1757 14.9993 14.1007 15.0743C13.9507 15.1493 13.8007 15.2243 13.6507 15.3743C13.5757 15.3743 13.5007 15.4493 13.5007 15.4493C13.2757 15.5993 13.0507 15.7493 12.9007 15.8993C12.7507 16.0493 12.5257 16.1993 12.3757 16.3493C12.3007 16.4243 12.3007 16.4243 12.2257 16.4993C12.0757 16.6493 11.9257 16.7243 11.8507 16.8743C11.7757 16.9493 11.7757 16.9493 11.7007 17.0243C11.5507 17.1743 11.4007 17.3243 11.2507 17.4743L11.1757 17.5493C11.0257 17.6993 10.8757 17.8493 10.7257 18.0743C10.6507 18.1493 10.6507 18.1493 10.6507 18.2243C10.5757 18.3743 10.4257 18.4493 10.3507 18.5993L10.2757 18.6743C9.52565 17.6243 8.85065 16.5743 8.25065 15.5243C6.00065 12.0743 4.50065 8.77428 3.90065 6.29928ZM18.0007 33.3743C12.9757 33.3743 8.85065 30.5993 8.85065 27.2243C8.85065 25.5743 9.75065 23.2493 11.1007 21.1493C12.7507 18.5993 14.8507 16.8743 16.8757 16.4243C17.2507 16.3493 17.6257 16.2743 18.0007 16.2743C18.3757 16.2743 18.7507 16.3493 19.2007 16.4243C19.4257 16.4993 19.7257 16.5743 19.9507 16.6493C21.7507 17.3243 23.5507 18.8993 24.9757 21.1493C26.3257 23.2493 27.2257 25.6493 27.2257 27.2243C27.2257 30.5993 23.1007 33.3743 18.0007 33.3743ZM32.1007 6.29928C31.5007 8.77428 30.0007 12.0743 27.9757 15.4493C27.3757 16.4993 26.6257 17.5493 25.9507 18.5993C25.9507 18.5993 25.9507 18.5243 25.8757 18.5243C25.8007 18.3743 25.6507 18.2243 25.5757 18.1493L25.5007 18.0743C25.3507 17.9243 25.2007 17.6993 25.0507 17.5493C24.9007 17.3993 24.7507 17.2493 24.6007 17.0993C24.5257 17.0243 24.5257 17.0243 24.4507 16.9493C24.3007 16.7993 24.1507 16.7243 24.0007 16.5743C23.9257 16.4993 23.9257 16.4993 23.8507 16.4243C23.4757 16.1243 23.0257 15.8243 22.6507 15.5243C22.5757 15.5243 22.5757 15.4493 22.5007 15.4493C22.3507 15.3743 22.1257 15.2243 21.9757 15.1493C21.8257 14.9993 21.7507 14.9993 21.7507 14.9993C21.5257 14.9243 21.3757 14.7743 21.1507 14.6993H21.0757C21.5257 13.8743 22.0507 12.9743 22.5007 12.1493C27.2257 4.34928 31.0507 2.09928 31.9507 2.69928C32.3257 2.92428 32.7007 3.89928 32.1007 6.29928Z"/>
<path id="Vector_2" d="M14.2516 21.6016C13.5766 21.6016 12.9766 22.2016 12.9766 22.8766C12.9766 23.5516 13.5766 24.1516 14.2516 24.1516C14.9266 24.1516 15.5266 23.5516 15.5266 22.8766C15.5266 22.2016 14.9266 21.6016 14.2516 21.6016Z"/>
<path id="Vector_3" d="M21.7516 21.6016C21.0766 21.6016 20.4766 22.2016 20.4766 22.8766C20.4766 23.5516 21.0766 24.1516 21.7516 24.1516C22.4266 24.1516 23.0266 23.5516 23.0266 22.8766C23.1016 22.2016 22.5016 21.6016 21.7516 21.6016Z"/>
<path id="Vector_4" d="M18.0016 25.875C16.6516 25.875 15.6016 26.55 15.6016 27.375C15.6016 28.2 16.7266 29.4 18.0016 29.4C19.2766 29.4 20.4016 28.2 20.4016 27.375C20.4016 26.55 19.3516 25.875 18.0016 25.875Z"/>
</g>
</g>
</svg>
