<svg width="28" height="28" viewBox="0 0 28 28" fill="none" xmlns="http://www.w3.org/2000/svg">
<path d="M3.94594 15.4762C2.9222 15.4536 1.93144 15.8387 1.19161 16.5466C0.451778 17.2546 0.0234803 18.2274 0.000936915 19.2512C-0.0216065 20.2749 0.363451 21.2657 1.0714 22.0055C1.77935 22.7453 2.7522 23.1736 3.77594 23.1962C3.86912 23.2031 3.95671 23.2432 4.02278 23.3093C4.08885 23.3754 4.12901 23.463 4.13594 23.5562C4.16081 24.1416 4.31863 24.7136 4.59744 25.229C4.87625 25.7444 5.26873 26.1895 5.74513 26.5306C6.22153 26.8718 6.76934 27.1 7.34703 27.198C7.92473 27.2959 8.51715 27.2611 9.07939 27.0961C9.64163 26.9311 10.1589 26.6403 10.5921 26.2457C11.0252 25.8511 11.3628 25.363 11.5793 24.8185C11.7958 24.274 11.8855 23.6874 11.8416 23.1031C11.7977 22.5188 11.6214 21.9522 11.3259 21.4462C11.2854 21.3732 11.2693 21.2891 11.2801 21.2063C11.2909 21.1235 11.328 21.0463 11.3859 20.9862L21.0659 11.3062C21.1261 11.2482 21.2032 11.2111 21.286 11.2003C21.3689 11.1895 21.4529 11.2056 21.5259 11.2462C22.032 11.5416 22.5986 11.7179 23.1829 11.7618C23.7672 11.8057 24.3538 11.716 24.8983 11.4995C25.4428 11.283 25.9308 10.9454 26.3255 10.5123C26.7201 10.0791 27.0109 9.56184 27.1759 8.99961C27.3409 8.43737 27.3757 7.84495 27.2777 7.26725C27.1798 6.68955 26.9516 6.14174 26.6104 5.66535C26.2693 5.18895 25.8242 4.79647 25.3088 4.51766C24.7934 4.23885 24.2214 4.08103 23.6359 4.05615C23.5428 4.04922 23.4552 4.00907 23.3891 3.943C23.323 3.87693 23.2829 3.78934 23.2759 3.69616C23.2511 3.11074 23.0932 2.53866 22.8144 2.0233C22.5356 1.50794 22.1431 1.06281 21.6667 0.721671C21.1903 0.380527 20.6425 0.152318 20.0648 0.0543429C19.4871 -0.0436322 18.8947 -0.00880176 18.3325 0.156194C17.7702 0.32119 17.253 0.61202 16.8198 1.00664C16.3867 1.40126 16.0491 1.88931 15.8326 2.43379C15.6161 2.97827 15.5264 3.5649 15.5703 4.1492C15.6142 4.7335 15.7905 5.30013 16.0859 5.80616C16.1265 5.87915 16.1426 5.96324 16.1318 6.04605C16.121 6.12885 16.0839 6.20601 16.0259 6.26616L6.34594 15.9462C6.28579 16.0041 6.20864 16.0412 6.12583 16.052C6.04302 16.0628 5.95893 16.0467 5.88594 16.0062C5.29959 15.6561 4.6288 15.4729 3.94594 15.4762Z" fill="white"/>
</svg>
