<svg width="20" height="20" viewBox="0 0 20 20" fill="none" xmlns="http://www.w3.org/2000/svg">
<g clip-path="url(#clip0_38583_34524)">
<path d="M19.879 0.400036L19.859 0.140036L19.599 0.120036C19.319 0.100036 12.619 -0.279963 11.479 2.26004C10.999 3.32004 11.559 4.72004 13.159 6.40004L12.139 7.42004L9.93895 5.24004C9.81895 5.12004 9.63895 5.12004 9.51895 5.24004C9.39895 5.36004 9.39895 5.54004 9.51895 5.66004L11.699 7.84004L10.919 8.62004L7.93895 5.64004C7.81895 5.52004 7.63895 5.52004 7.51895 5.64004C7.39895 5.76004 7.39895 5.94004 7.51895 6.06004L10.499 9.04004L9.71895 9.82004L7.13895 7.24004C7.01895 7.12004 6.83895 7.12004 6.71895 7.24004C6.59895 7.36004 6.59895 7.54004 6.71895 7.66004L9.29895 10.24L8.51895 11.02L6.53895 9.04004C6.41895 8.92004 6.23895 8.92004 6.11895 9.04004C5.99895 9.16004 5.99895 9.34004 6.11895 9.46004L8.09895 11.44L7.31895 12.22L6.13895 11.04C6.01895 10.92 5.83895 10.92 5.71895 11.04C5.59895 11.16 5.59895 11.34 5.71895 11.46L6.89895 12.64L6.11895 13.42L4.93895 12.24C4.81895 12.12 4.63895 12.12 4.51895 12.24C4.39895 12.36 4.39895 12.54 4.51895 12.66L5.69895 13.84L4.75895 14.8C4.47895 14.7 3.95895 14.56 3.29895 14.52C2.03895 14.44 0.958953 14.82 0.178953 15.62C0.118953 15.68 0.0789526 15.78 0.0989526 15.86C0.118953 15.94 0.158953 16.04 0.238953 16.08L2.45895 17.56L3.93895 19.78C3.97895 19.86 4.07895 19.9 4.15895 19.92H4.17895C4.25895 19.92 4.33895 19.88 4.39895 19.84C5.19895 19.04 5.55895 17.96 5.49895 16.72C5.45895 16.06 5.29895 15.52 5.21895 15.24L6.15895 14.3L7.37895 15.52C7.43895 15.58 7.51895 15.6 7.59895 15.6C7.67895 15.6 7.75895 15.58 7.81895 15.52C7.93895 15.4 7.93895 15.22 7.81895 15.1L6.59895 13.88L7.37895 13.1L8.59895 14.32C8.65895 14.38 8.73895 14.4 8.81895 14.4C8.89895 14.4 8.97895 14.38 9.03895 14.32C9.15895 14.2 9.15895 14.02 9.03895 13.9L7.81895 12.68L8.59895 11.9L10.619 13.92C10.679 13.98 10.759 14 10.839 14C10.919 14 10.999 13.98 11.059 13.92C11.179 13.8 11.179 13.62 11.059 13.5L8.95895 11.44L9.73895 10.66L12.359 13.28C12.419 13.34 12.499 13.36 12.579 13.36C12.659 13.36 12.739 13.34 12.799 13.28C12.919 13.16 12.919 12.98 12.799 12.86L10.159 10.24L10.939 9.46004L13.959 12.48C14.019 12.54 14.099 12.56 14.179 12.56C14.259 12.56 14.339 12.54 14.399 12.48C14.519 12.36 14.519 12.18 14.399 12.06L11.359 9.04004L12.139 8.26004L14.359 10.48C14.419 10.54 14.499 10.56 14.579 10.56C14.659 10.56 14.739 10.54 14.799 10.48C14.919 10.36 14.919 10.18 14.799 10.06L12.559 7.84004L13.579 6.82004C15.259 8.42004 16.639 9.00004 17.719 8.52004C20.279 7.38004 19.899 0.680036 19.879 0.400036ZM4.21895 19.12L2.91895 17.18C2.89895 17.16 2.89895 17.14 2.87895 17.14C2.85895 17.12 2.85895 17.12 2.83895 17.12L0.878953 15.8C2.27895 14.7 4.13895 15.24 4.61895 15.4C4.77895 15.88 5.29895 17.72 4.21895 19.12ZM17.479 7.96004C16.599 8.36004 15.359 7.76004 13.799 6.18004C12.219 4.60004 11.639 3.36004 12.019 2.50004C12.799 0.780036 17.299 0.620036 19.299 0.700036C19.319 1.34004 19.319 2.22004 19.259 3.16004C19.239 3.16004 19.239 3.18004 19.219 3.18004L17.159 5.24004C17.039 5.36004 17.039 5.54004 17.159 5.66004C17.219 5.72004 17.299 5.74004 17.379 5.74004C17.459 5.74004 17.539 5.72004 17.599 5.66004L19.179 4.08004C18.959 5.82004 18.479 7.52004 17.479 7.96004Z" fill="#FA6140" stroke="#FA6140" stroke-width="0.3"/>
<path d="M14.5617 2.18005C13.8417 2.18005 13.2617 2.76005 13.2617 3.48005C13.2617 4.20005 13.8417 4.78005 14.5617 4.78005C15.2817 4.78005 15.8617 4.20005 15.8617 3.48005C15.8617 2.76005 15.2817 2.18005 14.5617 2.18005ZM14.5617 4.18005C14.1817 4.18005 13.8617 3.86005 13.8617 3.48005C13.8617 3.10005 14.1817 2.78005 14.5617 2.78005C14.9417 2.78005 15.2617 3.10005 15.2617 3.48005C15.2617 3.86005 14.9417 4.18005 14.5617 4.18005Z" fill="#FA6140"/>
</g>
<defs>
<clipPath id="clip0_38583_34524">
<rect width="20" height="20" fill="white"/>
</clipPath>
</defs>
</svg>
