<svg width="20" height="20" viewBox="0 0 20 20" fill="none" xmlns="http://www.w3.org/2000/svg">
<g clip-path="url(#clip0_38583_35825)">
<path d="M9.16672 7.49999H10.4167C10.647 7.49999 10.8334 7.31363 10.8334 7.08331V5.41663C10.8334 5.18632 10.647 4.99995 10.4167 4.99995H9.16672V3.74999C9.16672 3.51968 8.98035 3.33331 8.75004 3.33331H7.08336C6.85305 3.33331 6.66668 3.51968 6.66668 3.74999V4.99999H5.41668C5.18637 4.99999 5 5.18636 5 5.41667V7.08335C5 7.31366 5.18637 7.50003 5.41668 7.50003H6.66668V8.75003C6.66668 8.98034 6.85305 9.16671 7.08336 9.16671H8.75004C8.98035 9.16671 9.16672 8.98034 9.16672 8.75003V7.49999ZM8.75004 6.66667C8.51973 6.66667 8.33336 6.85304 8.33336 7.08335V8.33335H7.50004V7.08335C7.50004 6.85304 7.31367 6.66667 7.08336 6.66667H5.83336V5.83335H7.08336C7.31367 5.83335 7.50004 5.64699 7.50004 5.41667V4.16667H8.33336V5.41667C8.33336 5.64699 8.51973 5.83335 8.75004 5.83335H10V6.66667H8.75004Z" fill="#44544A" stroke="#44544A" stroke-width="0.3"/>
<path d="M17.3779 4.28875L13.2113 0.12207C13.1331 0.0439453 13.0273 0 12.9166 0H4.16664C3.24789 0 2.5 0.747461 2.5 1.66668V18.3334C2.5 19.2525 3.24789 20 4.16668 20H15.8334C16.7521 20 17.5 19.2525 17.5 18.3333V4.58332C17.5 4.47266 17.4561 4.36688 17.3779 4.28875ZM13.3333 1.42254L16.0775 4.16668H14.1666C13.7068 4.16668 13.3333 3.79273 13.3333 3.33336V1.42254ZM16.6667 18.3333C16.6667 18.7927 16.2931 19.1666 15.8334 19.1666H4.16668C3.70687 19.1666 3.33336 18.7927 3.33336 18.3333V1.66668C3.33336 1.2073 3.70691 0.833359 4.16668 0.833359H12.5V3.33336C12.5 4.25254 13.2479 5 14.1667 5H16.6667V18.3333Z" fill="#44544A" stroke="#44544A" stroke-width="0.3"/>
<path d="M6.25 10.8333C5.5607 10.8333 5 11.394 5 12.0833C5 12.7726 5.5607 13.3333 6.25 13.3333C6.9393 13.3333 7.5 12.7726 7.5 12.0833C7.5 11.3941 6.9393 10.8333 6.25 10.8333ZM6.25 12.5C6.02051 12.5 5.83332 12.3132 5.83332 12.0833C5.83332 11.8534 6.02051 11.6666 6.25 11.6666C6.47949 11.6666 6.66668 11.8534 6.66668 12.0833C6.66668 12.3132 6.47949 12.5 6.25 12.5Z" fill="#44544A" stroke="#44544A" stroke-width="0.3"/>
<path d="M6.25 15C5.5607 15 5 15.5607 5 16.25C5 16.9393 5.5607 17.5 6.25 17.5C6.9393 17.5 7.5 16.9393 7.5 16.25C7.5 15.5607 6.9393 15 6.25 15ZM6.25 16.6667C6.02051 16.6667 5.83332 16.4799 5.83332 16.25C5.83332 16.0201 6.02051 15.8333 6.25 15.8333C6.47949 15.8333 6.66668 16.0201 6.66668 16.25C6.66668 16.4799 6.47949 16.6667 6.25 16.6667Z" fill="#44544A" stroke="#44544A" stroke-width="0.3"/>
<path d="M9.16797 12.0834C9.16797 12.3137 9.35434 12.5 9.58465 12.5H14.5846C14.815 12.5 15.0013 12.3137 15.0013 12.0834C15.0013 11.8531 14.815 11.6667 14.5846 11.6667H9.58465C9.35434 11.6667 9.16797 11.8531 9.16797 12.0834Z" fill="#44544A" stroke="#44544A" stroke-width="0.3"/>
<path d="M14.5846 15.8333H9.58465C9.35434 15.8333 9.16797 16.0197 9.16797 16.25C9.16797 16.4803 9.35434 16.6667 9.58465 16.6667H14.5846C14.815 16.6667 15.0013 16.4803 15.0013 16.25C15.0013 16.0197 14.815 15.8333 14.5846 15.8333Z" fill="#44544A" stroke="#44544A" stroke-width="0.3"/>
</g>
<defs>
<clipPath id="clip0_38583_35825">
<rect width="20" height="20" fill="white"/>
</clipPath>
</defs>
</svg>
