<svg width="20" height="20" viewBox="0 0 20 20" fill="none" xmlns="http://www.w3.org/2000/svg">
<path d="M3.9285 9.13676L9.29846 5.10928C9.65204 4.8441 10.1382 4.8441 10.4918 5.10928L15.8618 9.13676M3.9285 9.13676L2.93406 9.88258C1.19384 11.1256 -0.297851 8.88815 1.19379 7.89371L9.06267 2.10776C9.41061 1.85193 9.88389 1.84991 10.234 2.10276L18.5319 8.09567C18.5749 8.12672 18.6167 8.16203 18.6531 8.20058C20.0429 9.67236 18.3285 11.1094 16.8562 9.88258L15.8618 9.13676M3.9285 9.13676V16.8437C3.9285 17.3929 4.37372 17.8381 4.92293 17.8381H14.8673C15.4165 17.8381 15.8618 17.3929 15.8618 16.8437V9.13676" stroke="#E4B819" stroke-width="0.9"/>
<path d="M8.74244 8.76929C8.53128 8.76929 8.34511 8.88715 8.21788 9.06166C8.09065 9.23598 8.01587 9.46933 8.01587 9.72533C8.01587 9.98152 8.09065 10.2149 8.21788 10.3892C8.34511 10.5635 8.53128 10.6816 8.74244 10.6816C8.9536 10.6816 9.13977 10.5635 9.267 10.3892C9.39423 10.2149 9.46881 9.98152 9.46881 9.72533C9.46881 9.46951 9.39442 9.23598 9.267 9.06166C9.13977 8.88715 8.9536 8.76929 8.74244 8.76929ZM10.7587 8.76929C10.5475 8.76929 10.3613 8.88715 10.2341 9.06166C10.1069 9.23598 10.0323 9.46933 10.0323 9.72533C10.0323 9.98152 10.1067 10.2149 10.2341 10.3892C10.3613 10.5635 10.5475 10.6816 10.7587 10.6816C10.9698 10.6816 11.156 10.5635 11.2832 10.3892C11.4104 10.2149 11.4852 9.98152 11.4852 9.72533C11.4852 9.46951 11.4104 9.23598 11.2832 9.06166C11.156 8.88715 10.9698 8.76929 10.7587 8.76929ZM8.74244 8.95202C8.87978 8.95202 9.00949 9.02749 9.11058 9.16618C9.21168 9.30469 9.27806 9.50386 9.27806 9.72533C9.27806 9.94698 9.21168 10.1456 9.11058 10.2843C9.00949 10.4228 8.87978 10.4988 8.74244 10.4988C8.6051 10.4988 8.47539 10.4228 8.37429 10.2843C8.27319 10.1456 8.20662 9.94698 8.20662 9.72533C8.20662 9.50386 8.27319 9.30469 8.37448 9.16618C8.47558 9.02749 8.60491 8.95202 8.74244 8.95202ZM10.7587 8.95202C10.896 8.95202 11.0257 9.02749 11.1268 9.16618C11.2279 9.30469 11.2945 9.50386 11.2945 9.72533C11.2945 9.94698 11.2279 10.1456 11.1266 10.2843C11.0255 10.4228 10.8962 10.4988 10.7587 10.4988C10.6213 10.4988 10.4916 10.4228 10.3905 10.2843C10.2894 10.1456 10.223 9.94698 10.223 9.72533C10.223 9.50386 10.2894 9.30469 10.3905 9.16618C10.4916 9.02749 10.6213 8.95202 10.7587 8.95202ZM7.23457 10.2132C7.02341 10.2132 6.83724 10.3313 6.71001 10.5056C6.5822 10.6799 6.50781 10.9133 6.50781 11.1695C6.50781 11.4253 6.5824 11.6588 6.70982 11.8331C6.83705 12.0076 7.02322 12.1255 7.23438 12.1255C7.44553 12.1255 7.63152 12.0076 7.75894 11.8331C7.88617 11.6588 7.96075 11.4255 7.96075 11.1695C7.96075 10.9133 7.88617 10.6799 7.75894 10.5056C7.63152 10.3313 7.44573 10.2132 7.23457 10.2132ZM12.2669 10.2132C12.0557 10.2132 11.8698 10.3313 11.7423 10.5056C11.6151 10.6799 11.5405 10.9133 11.5405 11.1695C11.5405 11.4253 11.6151 11.6588 11.7423 11.8331C11.8698 12.0076 12.0557 12.1255 12.2669 12.1255C12.4781 12.1255 12.6642 12.0076 12.7915 11.8331C12.9189 11.6588 12.9933 11.4255 12.9933 11.1696C12.9933 10.9134 12.9187 10.6801 12.7913 10.5058C12.664 10.3314 12.4779 10.2134 12.2667 10.2134L12.2669 10.2132ZM7.23457 10.396C7.37191 10.396 7.50142 10.472 7.60271 10.6105C7.70381 10.749 7.77019 10.9478 7.77019 11.1695C7.77019 11.3909 7.70381 11.5901 7.60252 11.7286C7.50142 11.8673 7.37191 11.9428 7.23438 11.9428C7.09704 11.9428 6.96752 11.8673 6.86623 11.7286C6.76513 11.5901 6.69875 11.3909 6.69875 11.1695C6.69875 10.9478 6.76532 10.7492 6.86642 10.6105C6.96752 10.472 7.09723 10.396 7.23457 10.396ZM12.2669 10.396C12.4042 10.396 12.534 10.472 12.6351 10.6105C12.7362 10.749 12.8025 10.9478 12.8025 11.1696C12.8025 11.3911 12.736 11.5903 12.6349 11.7288C12.5338 11.8675 12.4041 11.9429 12.2667 11.9429C12.1294 11.9429 11.9999 11.8675 11.8986 11.7288C11.7975 11.5903 11.7311 11.3911 11.7311 11.1696C11.7311 10.948 11.7975 10.7494 11.8988 10.6107C11.9999 10.4722 12.1294 10.396 12.2669 10.396ZM9.75055 10.9803C9.13328 10.9803 8.59423 11.288 8.32432 11.7472C8.23428 11.8982 8.16466 12.1447 8.04906 12.2903C7.92317 12.4487 7.76599 12.5732 7.59413 12.6686C7.59316 12.6692 7.59221 12.6698 7.59127 12.6704C7.16552 12.9277 6.89084 13.3587 6.89046 13.8393C6.89046 14.6243 7.61378 15.2544 8.49389 15.2544C8.72232 15.2542 8.94845 15.2107 9.15922 15.1263C9.34658 15.0515 9.54759 15.0132 9.75055 15.0136C9.95904 15.0136 10.1563 15.0532 10.3392 15.1256H10.3396C10.5494 15.2096 10.7751 15.2546 11.0072 15.2548C11.8873 15.2548 12.6106 14.6247 12.6106 13.8397C12.6101 13.3582 12.3342 12.927 11.9085 12.6706C11.9075 12.67 11.9065 12.6693 11.9054 12.6688C11.7298 12.5726 11.5757 12.4441 11.452 12.2907C11.3948 12.2189 11.3376 12.1052 11.291 12.0007C11.2451 11.8969 11.2147 11.8105 11.1781 11.7504H11.1777C10.9097 11.2899 10.3697 10.9803 9.75055 10.9803ZM9.75055 11.1631C10.3033 11.1631 10.7791 11.4399 11.0116 11.839C11.012 11.8397 11.0123 11.8403 11.0127 11.841C11.0236 11.8587 11.0669 11.9625 11.1157 12.072C11.1642 12.1814 11.2231 12.3042 11.3 12.4009H11.3004C11.4434 12.581 11.6208 12.7207 11.8097 12.8261C12.1839 13.0527 12.4193 13.4251 12.4201 13.839C12.4201 14.5162 11.7929 15.0713 11.0072 15.0713C10.8031 15.0712 10.6011 15.0321 10.413 14.9564H10.4123C10.2025 14.873 9.97763 14.8301 9.75055 14.8303C9.51592 14.8303 9.29237 14.8754 9.08598 14.9575C8.89842 15.0326 8.69717 15.0713 8.49389 15.0713C7.7082 15.0713 7.0812 14.5162 7.0812 13.839C7.08139 13.426 7.31563 13.054 7.68988 12.8265L7.69294 12.8246C7.88967 12.7167 8.06223 12.5726 8.20071 12.4007H8.20109C8.35331 12.209 8.42923 11.9397 8.49027 11.8375C8.72432 11.4382 9.19928 11.1631 9.75055 11.1631Z" fill="#E4B819" stroke="#E4B819" stroke-width="0.4"/>
</svg>
