<svg width="20" height="20" viewBox="0 0 20 20" fill="none" xmlns="http://www.w3.org/2000/svg">
<path d="M8.09375 8.8438C8.65625 9.2813 9.28125 9.68755 9.90625 10.0626C10.1562 10.2188 10.4062 10.3751 10.6562 10.5313C10.75 10.5938 10.875 10.6563 10.9687 10.7188C11.1875 10.8438 11.4062 11.0001 11.5937 11.1251C11.75 11.2501 11.9062 11.2813 12 11.2813C12.0625 11.2813 12.125 11.2813 12.1875 11.2501C12.2812 11.2188 12.3438 11.1563 12.4062 11.1251C12.625 10.9688 12.8125 10.8438 13.0312 10.6876C13.125 10.6251 13.25 10.5626 13.3438 10.5001C13.5938 10.3438 13.8437 10.1876 14.0937 10.0313C14.6875 9.6563 15.3125 9.25005 15.9062 8.81255C17.1562 7.8438 17.8125 6.6563 17.8438 5.2813C17.9062 4.81255 17.8125 4.43755 17.7812 4.3438C17.75 4.2188 17.75 4.0938 17.7188 3.9688C17.4688 2.93755 16.9375 2.1563 16.1562 1.7188C15.3438 1.25005 14.3438 1.18755 13.3438 1.50005C13 1.5938 12.6875 1.7813 12.375 1.93755C12.2812 2.00005 12.1875 2.0313 12.125 2.0938C12.0625 2.12505 12 2.12505 11.9688 2.12505C11.9375 2.12505 11.9062 2.12505 11.8438 2.0938C11.75 2.0313 11.6562 2.00005 11.5937 1.93755C11.2812 1.7813 10.9688 1.5938 10.625 1.50005C9.625 1.18755 8.625 1.2813 7.8125 1.7188C7.03125 2.1563 6.5 2.93755 6.25 3.9688C6.21875 4.0938 6.1875 4.2188 6.1875 4.3438C6.15625 4.4688 6.0625 4.8438 6.125 5.2813C6.1875 6.68755 6.84375 7.87505 8.09375 8.8438ZM16.0312 4.7188H13.5938L12.0938 7.3438L10.5 3.4688L9.03125 5.93755L8.46875 4.7188H7.03125C7 4.7188 6.96875 4.7188 6.9375 4.75005C6.96875 4.62505 6.96875 4.56255 6.96875 4.56255V4.50005C6.96875 4.4063 7 4.2813 7.03125 4.18755C7.21875 3.37505 7.625 2.7813 8.21875 2.43755C8.59375 2.2188 9 2.12505 9.4375 2.12505C9.75 2.12505 10.0625 2.18755 10.4062 2.2813C10.6875 2.37505 10.9375 2.50005 11.2188 2.6563C11.3125 2.7188 11.4062 2.75005 11.5 2.81255C11.8125 2.9688 12.125 3.00005 12.4688 2.81255C12.5625 2.75005 12.6562 2.7188 12.75 2.6563C13.0312 2.50005 13.2812 2.3438 13.5625 2.2813C14.375 2.0313 15.125 2.0938 15.75 2.43755C16.3438 2.7813 16.75 3.37505 16.9375 4.18755C16.9688 4.2813 16.9688 4.4063 17 4.50005V4.56255C17 4.56255 17.0938 4.87505 17.0312 5.2188V5.25005C17 6.4063 16.4375 7.4063 15.375 8.2188C14.8438 8.6563 14.2188 9.0313 13.6562 9.37505C13.4062 9.5313 13.1562 9.68755 12.9062 9.8438C12.8125 9.9063 12.7188 9.9688 12.5938 10.0313C12.375 10.1563 12.1875 10.3126 11.9688 10.4376C11.75 10.2813 11.5625 10.1563 11.3438 10.0313C11.25 9.9688 11.125 9.9063 11.0312 9.8438C10.7812 9.68755 10.5312 9.5313 10.2812 9.37505C9.6875 9.00005 9.09375 8.62505 8.5625 8.2188C7.59375 7.43755 7.03125 6.5313 6.9375 5.50005C6.96875 5.50005 6.96875 5.50005 7 5.50005H7.9375L8.90625 7.5938L10.3437 5.2188L11.9688 9.1563L14.0312 5.5313H16C16.2188 5.5313 16.4062 5.3438 16.4062 5.12505C16.4062 4.9063 16.25 4.7188 16.0312 4.7188ZM4.3125 11.2501C4.21875 10.9376 3.9375 10.7501 3.5625 10.7813L1.40625 10.8438C1.375 10.8438 1.34375 10.8438 1.28125 10.8438L0.84375 10.8751L0.875 11.2501C0.875 11.3751 0.90625 11.5001 0.90625 11.5938C0.9375 11.8751 0.96875 12.1251 1 12.3751C1.1875 13.8126 1.71875 15.1563 2.5 16.3751C2.59375 16.5313 2.8125 16.6563 3 16.6563C3.21875 16.6563 3.46875 16.6563 3.6875 16.6563H3.78125C4.09375 16.6563 4.34375 16.5001 4.4375 16.2188C4.75 16.3438 8.1875 17.8751 8.59375 18.0626C8.625 18.0626 8.65625 18.0938 8.6875 18.0938C9.03125 18.2188 9.40625 18.3126 9.78125 18.3126C9.8125 18.3126 9.8125 18.3126 9.84375 18.3126C10.5312 18.2813 11.2812 18.0626 12.1875 17.6251C14.1562 16.6251 16.375 15.5001 18.6562 14.4688C18.9375 14.3438 19.0938 14.1876 19.1562 13.9688C19.1875 13.8126 19.1562 13.6251 19.0312 13.4688C18.7812 13.1563 18.2812 13.0313 17.5625 13.1876L14.8438 13.6876C13.5938 13.9063 13.125 13.9063 13.9375 14.2188C12.9688 14.5313 13.746 14.6563 15 14.4063L17.6875 13.9063C17.9375 13.8751 18.0938 13.8438 18.2188 13.8751C15.9375 14.9063 13.75 16.0313 11.8125 17.0001C11 17.4063 10.375 17.5938 9.78125 17.6251C9.28125 17.6563 8.8125 17.4376 8.40625 17.2501C8.375 17.2188 8.34375 17.2188 8.28125 17.2188C7.0625 16.6876 4.46875 15.5313 4.1875 15.4063L3.65625 15.1876L3.6875 15.9376C3.6875 15.9376 3.6875 15.9376 3.6875 15.9688C3.6875 15.9688 3.6875 15.9688 3.65625 15.9688H3.5625C3.375 15.9688 3.1875 15.9688 3 15.9688C2.28125 14.8438 1.84375 13.6251 1.65625 12.3438C1.625 12.0938 1.59375 11.8438 1.5625 11.6251L3.5 11.5938H3.53125V11.6251L3.5625 12.3751L4.0625 12.1876C4.5 12.0001 4.96875 11.9063 5.46875 11.9063C6.0625 11.8751 6.6875 12.0626 7.28125 12.3751C7.53125 12.5001 7.75 12.6876 8 12.8751C8.21875 13.0626 8.46875 13.2501 8.75 13.4063C9.65625 13.9376 10.6562 14.0938 12 13.9063C12.6562 13.8126 13.0937 13.8751 13.2188 14.0001C13.2188 14.0001 13.25 14.0313 13.2188 14.0938C13.1875 14.3751 12.4062 14.5001 12.0938 14.5313L11.9688 14.5626C11.375 14.6563 10.5 14.8126 9.6875 14.7501L8.46875 14.6563C8.28125 14.6251 8.09375 14.7813 8.0625 15.0001C8.0625 15.1876 8.1875 15.3751 8.40625 15.4063C9.5 15.5001 9.625 15.5001 9.625 15.5001C10.5312 15.5626 11.4688 15.4376 12.0938 15.3126L12.2187 15.2813C12.7812 15.1876 13.8125 15.0313 13.9375 14.2188C14 13.8438 13.8438 13.6251 13.7188 13.5001C13.2812 13.0626 12.375 13.1251 11.875 13.1876C10.7188 13.3438 9.875 13.2188 9.125 12.7813C8.90625 12.6563 8.6875 12.4688 8.46875 12.3126C8.1875 12.0938 7.9375 11.9063 7.65625 11.7501C6.9375 11.3751 6.1875 11.1876 5.46875 11.1876C5.09375 11.0938 4.6875 11.1563 4.3125 11.2501Z" fill="#1F415B"/>
<path d="M13.9375 14.2188C13.125 13.9063 13.5938 13.9063 14.8437 13.6876L17.5625 13.1876C18.2812 13.0313 18.7813 13.1563 19.0313 13.4688C19.1563 13.6251 19.1875 13.8126 19.1562 13.9688C19.0937 14.1876 18.9375 14.3438 18.6562 14.4688C16.375 15.5001 14.1562 16.6251 12.1875 17.6251C11.2812 18.0626 10.5312 18.2813 9.84375 18.3126C9.8125 18.3126 9.8125 18.3126 9.78125 18.3126C9.40625 18.3126 9.03125 18.2188 8.6875 18.0938C8.65625 18.0938 8.625 18.0626 8.59375 18.0626C8.1875 17.8751 4.75 16.3438 4.4375 16.2188C4.34375 16.5001 4.09375 16.6563 3.78125 16.6563H3.6875C3.46875 16.6563 3.21875 16.6563 3 16.6563C2.8125 16.6563 2.59375 16.5313 2.5 16.3751C1.71875 15.1563 1.1875 13.8126 1 12.3751C0.96875 12.1251 0.9375 11.8751 0.90625 11.5938C0.90625 11.5001 0.875 11.3751 0.875 11.2501L0.84375 10.8751L1.28125 10.8438C1.34375 10.8438 1.375 10.8438 1.40625 10.8438L3.5625 10.7813C3.9375 10.7501 4.21875 10.9376 4.3125 11.2501C4.6875 11.1563 5.09375 11.0938 5.46875 11.1876C6.1875 11.1876 6.9375 11.3751 7.65625 11.7501C7.9375 11.9063 8.1875 12.0938 8.46875 12.3126C8.6875 12.4688 8.90625 12.6563 9.125 12.7813C9.875 13.2188 10.7187 13.3438 11.875 13.1876C12.375 13.1251 13.2813 13.0626 13.7188 13.5001C13.8438 13.6251 14 13.8438 13.9375 14.2188ZM13.9375 14.2188C12.9688 14.5313 13.746 14.6563 15 14.4063L17.6875 13.9063C17.9375 13.8751 18.0937 13.8438 18.2187 13.8751C15.9375 14.9063 13.75 16.0313 11.8125 17.0001C11 17.4063 10.375 17.5938 9.78125 17.6251C9.28125 17.6563 8.8125 17.4376 8.40625 17.2501C8.375 17.2188 8.34375 17.2188 8.28125 17.2188C7.0625 16.6876 4.46875 15.5313 4.1875 15.4063L3.65625 15.1876L3.6875 15.9376C3.6875 15.9376 3.6875 15.9376 3.6875 15.9688C3.6875 15.9688 3.6875 15.9688 3.65625 15.9688H3.5625C3.375 15.9688 3.1875 15.9688 3 15.9688C2.28125 14.8438 1.84375 13.6251 1.65625 12.3438C1.625 12.0938 1.59375 11.8438 1.5625 11.6251L3.5 11.5938H3.53125V11.6251L3.5625 12.3751L4.0625 12.1876C4.5 12.0001 4.96875 11.9063 5.46875 11.9063C6.0625 11.8751 6.6875 12.0626 7.28125 12.3751C7.53125 12.5001 7.75 12.6876 8 12.8751C8.21875 13.0626 8.46875 13.2501 8.75 13.4063C9.65625 13.9376 10.6563 14.0938 12 13.9063C12.6563 13.8126 13.0937 13.8751 13.2187 14.0001C13.2187 14.0001 13.25 14.0313 13.2187 14.0938C13.1875 14.3751 12.4062 14.5001 12.0938 14.5313L11.9687 14.5626C11.375 14.6563 10.5 14.8126 9.6875 14.7501L8.46875 14.6563C8.28125 14.6251 8.09375 14.7813 8.0625 15.0001C8.0625 15.1876 8.1875 15.3751 8.40625 15.4063C9.5 15.5001 9.625 15.5001 9.625 15.5001C10.5312 15.5626 11.4688 15.4376 12.0938 15.3126L12.2187 15.2813C12.7812 15.1876 13.8125 15.0313 13.9375 14.2188ZM8.09375 8.8438C8.65625 9.2813 9.28125 9.68755 9.90625 10.0626C10.1563 10.2188 10.4062 10.3751 10.6562 10.5313C10.75 10.5938 10.875 10.6563 10.9687 10.7188C11.1875 10.8438 11.4062 11.0001 11.5937 11.1251C11.75 11.2501 11.9063 11.2813 12 11.2813C12.0625 11.2813 12.125 11.2813 12.1875 11.2501C12.2812 11.2188 12.3437 11.1563 12.4062 11.1251C12.625 10.9688 12.8125 10.8438 13.0312 10.6876C13.125 10.6251 13.25 10.5626 13.3438 10.5001C13.5938 10.3438 13.8437 10.1876 14.0937 10.0313C14.6875 9.6563 15.3125 9.25005 15.9063 8.81255C17.1563 7.8438 17.8125 6.6563 17.8437 5.2813C17.9062 4.81255 17.8125 4.43755 17.7813 4.3438C17.75 4.2188 17.75 4.0938 17.7188 3.9688C17.4687 2.93755 16.9375 2.1563 16.1562 1.7188C15.3438 1.25005 14.3438 1.18755 13.3438 1.50005C13 1.5938 12.6875 1.7813 12.375 1.93755C12.2812 2.00005 12.1875 2.0313 12.125 2.0938C12.0625 2.12505 12 2.12505 11.9687 2.12505C11.9375 2.12505 11.9063 2.12505 11.8438 2.0938C11.75 2.0313 11.6562 2.00005 11.5937 1.93755C11.2812 1.7813 10.9687 1.5938 10.625 1.50005C9.625 1.18755 8.625 1.2813 7.8125 1.7188C7.03125 2.1563 6.5 2.93755 6.25 3.9688C6.21875 4.0938 6.1875 4.2188 6.1875 4.3438C6.15625 4.4688 6.0625 4.8438 6.125 5.2813C6.1875 6.68755 6.84375 7.87505 8.09375 8.8438ZM16.0312 4.7188H13.5937L12.0938 7.3438L10.5 3.4688L9.03125 5.93755L8.46875 4.7188H7.03125C7 4.7188 6.96875 4.7188 6.9375 4.75005C6.96875 4.62505 6.96875 4.56255 6.96875 4.56255V4.50005C6.96875 4.4063 7 4.2813 7.03125 4.18755C7.21875 3.37505 7.625 2.7813 8.21875 2.43755C8.59375 2.2188 9 2.12505 9.4375 2.12505C9.75 2.12505 10.0625 2.18755 10.4062 2.2813C10.6875 2.37505 10.9375 2.50005 11.2188 2.6563C11.3125 2.7188 11.4062 2.75005 11.5 2.81255C11.8125 2.9688 12.125 3.00005 12.4688 2.81255C12.5625 2.75005 12.6562 2.7188 12.75 2.6563C13.0312 2.50005 13.2813 2.3438 13.5625 2.2813C14.375 2.0313 15.125 2.0938 15.75 2.43755C16.3438 2.7813 16.75 3.37505 16.9375 4.18755C16.9688 4.2813 16.9688 4.4063 17 4.50005V4.56255C17 4.56255 17.0937 4.87505 17.0312 5.2188V5.25005C17 6.4063 16.4375 7.4063 15.375 8.2188C14.8437 8.6563 14.2187 9.0313 13.6562 9.37505C13.4062 9.5313 13.1562 9.68755 12.9062 9.8438C12.8125 9.9063 12.7187 9.9688 12.5937 10.0313C12.375 10.1563 12.1875 10.3126 11.9687 10.4376C11.75 10.2813 11.5625 10.1563 11.3437 10.0313C11.25 9.9688 11.125 9.9063 11.0312 9.8438C10.7812 9.68755 10.5313 9.5313 10.2813 9.37505C9.6875 9.00005 9.09375 8.62505 8.5625 8.2188C7.59375 7.43755 7.03125 6.5313 6.9375 5.50005C6.96875 5.50005 6.96875 5.50005 7 5.50005H7.9375L8.90625 7.5938L10.3437 5.2188L11.9687 9.1563L14.0313 5.5313H16C16.2187 5.5313 16.4062 5.3438 16.4062 5.12505C16.4062 4.9063 16.25 4.7188 16.0312 4.7188Z" stroke="#1F415B" stroke-width="0.5"/>
</svg>
