<svg width="24" height="24" viewBox="0 0 24 24" fill="none" xmlns="http://www.w3.org/2000/svg">
<g clip-path="url(#clip0_38680_23752)">
<path d="M13.2991 8.83557C12.9759 9.1682 12.7673 9.59543 12.704 10.0549C12.6406 10.5144 12.7258 10.9821 12.947 11.3898L12.9875 11.4648C13.1719 11.8113 13.4469 12.1011 13.7833 12.3033C14.1196 12.5055 14.5046 12.6125 14.897 12.6129C15.1953 12.6125 15.4904 12.5511 15.7642 12.4326L16.3923 12.1621C16.606 12.0699 16.8372 12.0251 17.0699 12.0308C17.3025 12.0366 17.5312 12.0926 17.7401 12.1952L18.2862 12.4629C18.7427 12.6857 19.2626 12.7421 19.7563 12.6224C20.2499 12.5027 20.6863 12.2144 20.99 11.8073C21.2938 11.4002 21.4459 10.8998 21.4201 10.3925C21.3942 9.88525 21.1921 9.4029 20.8486 9.02874L18.8495 6.89593C18.6163 6.64699 18.3351 6.44803 18.0227 6.31113C17.7103 6.17423 17.3734 6.10225 17.0323 6.09957C16.6913 6.09688 16.3532 6.16354 16.0387 6.2955C15.7242 6.42745 15.4399 6.62196 15.2028 6.8672L13.2991 8.83557ZM17.0128 6.66193C17.2802 6.66243 17.5447 6.71757 17.79 6.82398C18.0353 6.93038 18.2563 7.08579 18.4394 7.28068L20.436 9.41106C20.6903 9.68881 20.8399 10.0466 20.8587 10.4228C20.8776 10.799 20.7646 11.1699 20.5392 11.4717C20.3139 11.7735 19.9903 11.9873 19.6243 12.0761C19.2583 12.1649 18.8727 12.1232 18.5341 11.9582L17.9878 11.6906C17.706 11.5522 17.3976 11.4766 17.0838 11.4688C16.7699 11.4611 16.4582 11.5215 16.1699 11.6458L15.5418 11.9164C15.1712 12.0779 14.7533 12.0937 14.3716 11.9606C13.9899 11.8275 13.6725 11.5553 13.4827 11.1984L13.4421 11.1234C13.2779 10.8207 13.2147 10.4735 13.2617 10.1323C13.3087 9.79119 13.4635 9.474 13.7035 9.22702L15.6074 7.25865C15.79 7.07045 16.0084 6.92069 16.2498 6.81821C16.4911 6.71573 16.7506 6.66259 17.0128 6.66193Z" fill="#37BD69" stroke="#37BD69" stroke-width="0.5"/>
<path d="M15.0885 5.52612C15.9645 5.52612 16.6771 4.6002 16.6771 3.46212C16.6771 2.32404 15.9646 1.39807 15.0885 1.39807C14.2125 1.39807 13.5 2.32399 13.5 3.46212C13.5 4.60024 14.2126 5.52612 15.0885 5.52612ZM15.0885 1.96057C15.6448 1.96057 16.1146 2.64818 16.1146 3.46212C16.1146 4.27606 15.6448 4.96362 15.0885 4.96362C14.5323 4.96362 14.0625 4.27601 14.0625 3.46212C14.0625 2.64823 14.5324 1.96057 15.0885 1.96057Z" fill="#37BD69" stroke="#37BD69" stroke-width="0.5"/>
<path d="M18.9636 5.36169C19.8396 5.36169 20.5522 4.43577 20.5522 3.29769C20.5522 2.15961 19.8396 1.23364 18.9636 1.23364C18.0877 1.23364 17.375 2.15956 17.375 3.29769C17.375 4.43581 18.0877 5.36169 18.9636 5.36169ZM18.9636 1.79614C19.5198 1.79614 19.9897 2.48375 19.9897 3.29769C19.9897 4.11163 19.5198 4.79919 18.9636 4.79919C18.4075 4.79919 17.9375 4.11158 17.9375 3.29769C17.9375 2.4838 18.4074 1.79614 18.9636 1.79614Z" fill="#37BD69" stroke="#37BD69" stroke-width="0.5"/>
<path d="M21.4246 7.62598C21.5398 7.66333 21.6601 7.68231 21.7812 7.68223C21.9932 7.67976 22.2016 7.62673 22.389 7.52754C22.8502 7.29162 23.2225 6.82212 23.4105 6.23942C23.7372 5.22654 23.3784 4.20036 22.6106 3.95192C22.3012 3.8517 21.9678 3.88578 21.6462 4.05036C21.185 4.28628 20.8127 4.75578 20.6247 5.33848C20.298 6.35108 20.6569 7.37736 21.4246 7.62598ZM21.1601 5.51089C21.3007 5.0757 21.578 4.71683 21.9024 4.55089C22.0113 4.4929 22.1323 4.46128 22.2557 4.45859C22.3173 4.45836 22.3786 4.46786 22.4373 4.48672C22.9023 4.63728 23.1029 5.36079 22.8751 6.06664C22.7347 6.50183 22.4572 6.8607 22.1328 7.02664C22.0033 7.09292 21.8054 7.15789 21.5979 7.09062C21.133 6.94025 20.9324 6.21673 21.1601 5.51089Z" fill="#37BD69" stroke="#37BD69" stroke-width="0.5"/>
<path d="M11.6907 7.60884C11.8649 7.68964 12.0543 7.73242 12.2464 7.73433C12.3873 7.73449 12.5271 7.70889 12.6589 7.65877C13.4133 7.37203 13.7205 6.32906 13.3437 5.33377C13.1269 4.76119 12.7316 4.31091 12.2593 4.09838C11.93 3.95016 11.5951 3.93291 11.2911 4.04845C10.5367 4.33514 10.2295 5.37811 10.6063 6.37345C10.8231 6.94603 11.2185 7.39631 11.6907 7.60884ZM11.4909 4.5743C11.5585 4.54878 11.6302 4.53585 11.7025 4.53614C11.8152 4.53819 11.9262 4.56384 12.0284 4.61142C12.3606 4.76095 12.6556 5.10544 12.8175 5.53303C13.08 6.22678 12.916 6.9593 12.4589 7.13297C12.2551 7.21045 12.0541 7.15552 11.9215 7.09584C11.5892 6.94636 11.2942 6.60183 11.1323 6.17428C10.8697 5.48067 11.0339 4.74802 11.4909 4.5743Z" fill="#37BD69" stroke="#37BD69" stroke-width="0.5"/>
<path d="M3.33043 18.9165C3.00715 19.2491 2.79862 19.6764 2.73525 20.1358C2.67188 20.5953 2.75699 21.063 2.97816 21.4707L3.01876 21.546C3.27479 22.0273 3.70293 22.3942 4.2177 22.5736C4.73246 22.753 5.29595 22.7316 5.79563 22.5138L6.42376 22.2432C6.63747 22.1511 6.86862 22.1063 7.10129 22.112C7.33396 22.1177 7.56263 22.1738 7.77155 22.2764L8.3176 22.5441C8.77409 22.7669 9.29405 22.8233 9.78772 22.7036C10.2814 22.584 10.7178 22.2957 11.0215 21.8885C11.3253 21.4814 11.4774 20.981 11.4516 20.4737C11.4257 19.9664 11.2235 19.484 10.88 19.1099L8.8809 16.9771C8.64776 16.7281 8.36647 16.5292 8.05409 16.3923C7.74172 16.2554 7.40478 16.1834 7.06374 16.1807C6.72269 16.1781 6.38466 16.2447 6.07017 16.3767C5.75568 16.5086 5.47128 16.7031 5.23426 16.9483L3.33043 18.9165ZM7.04391 16.7429C7.3113 16.7434 7.57577 16.7986 7.82108 16.905C8.0664 17.0114 8.28737 17.1668 8.47046 17.3617L10.4671 19.492C10.7215 19.7698 10.871 20.1276 10.8898 20.5038C10.9087 20.88 10.7957 21.2509 10.5704 21.5528C10.345 21.8546 10.0214 22.0683 9.65539 22.1571C9.28935 22.2459 8.90379 22.2042 8.56519 22.0392L8.01915 21.7715C7.73736 21.6331 7.42893 21.5575 7.1151 21.5498C6.80127 21.542 6.48949 21.6024 6.20124 21.7268L5.57311 21.9973C5.20253 22.1588 4.78467 22.1746 4.40296 22.0415C4.02125 21.9085 3.70378 21.6363 3.51394 21.2794L3.47335 21.2041C3.30912 20.9014 3.24591 20.5542 3.29294 20.2131C3.33997 19.8719 3.49477 19.5547 3.73477 19.3078L5.63855 17.3391C5.82121 17.1511 6.03964 17.0014 6.28099 16.899C6.52234 16.7966 6.78174 16.7436 7.04391 16.7429Z" fill="#37BD69" stroke="#37BD69" stroke-width="0.5"/>
<path d="M5.11984 15.6071C5.9958 15.6071 6.70844 14.6811 6.70844 13.543C6.70844 12.4049 5.99594 11.479 5.11984 11.479C4.24375 11.479 3.53125 12.4049 3.53125 13.543C3.53125 14.6811 4.24389 15.6071 5.11984 15.6071ZM5.11984 12.0415C5.67602 12.0415 6.14594 12.7291 6.14594 13.543C6.14594 14.3569 5.67602 15.0446 5.11984 15.0446C4.56367 15.0446 4.09375 14.3569 4.09375 13.543C4.09375 12.7291 4.56367 12.0415 5.11984 12.0415Z" fill="#37BD69" stroke="#37BD69" stroke-width="0.5"/>
<path d="M8.99094 15.4426C9.86689 15.4426 10.5795 14.5167 10.5795 13.3786C10.5795 12.2405 9.86698 11.3146 8.99094 11.3146C8.11489 11.3146 7.40234 12.2405 7.40234 13.3786C7.40234 14.5167 8.11498 15.4426 8.99094 15.4426ZM8.99094 11.8771C9.54711 11.8771 10.017 12.5647 10.017 13.3786C10.017 14.1925 9.54711 14.8801 8.99094 14.8801C8.43477 14.8801 7.96484 14.1925 7.96484 13.3786C7.96484 12.5647 8.43477 11.8771 8.99094 11.8771Z" fill="#37BD69" stroke="#37BD69" stroke-width="0.5"/>
<path d="M13.4339 16.3204C13.7606 15.3075 13.4018 14.2813 12.634 14.0326C12.3246 13.9324 11.9912 13.9664 11.6697 14.1311C11.2085 14.3669 10.8361 14.8364 10.6482 15.4192C10.3214 16.432 10.6803 17.4582 11.4481 17.707C11.5632 17.7443 11.6834 17.7633 11.8043 17.7632C12.0164 17.7608 12.2248 17.7077 12.4122 17.6085C12.8736 17.3726 13.2459 16.9031 13.4339 16.3204ZM11.6213 17.1717C11.1563 17.0211 10.9557 16.2976 11.1835 15.5917C11.3239 15.1565 11.6014 14.7977 11.9258 14.6317C12.0347 14.5737 12.1557 14.5421 12.2791 14.5394C12.3407 14.5392 12.402 14.5487 12.4607 14.5676C12.9257 14.7182 13.1263 15.4417 12.8985 16.1475C12.7579 16.5827 12.4807 16.9416 12.1563 17.1075C12.0267 17.1739 11.8288 17.2388 11.6213 17.1717Z" fill="#37BD69" stroke="#37BD69" stroke-width="0.5"/>
<path d="M1.71418 17.6897C1.88839 17.7705 2.07781 17.8133 2.26984 17.8152C2.4108 17.8154 2.5506 17.7898 2.68234 17.7396C3.43674 17.4529 3.74396 16.41 3.36709 15.4146C3.15029 14.842 2.75509 14.3918 2.28273 14.1792C1.95334 14.031 1.61856 14.0137 1.31462 14.1293C0.560308 14.4161 0.252901 15.4591 0.629776 16.4543C0.846573 17.0269 1.24182 17.4772 1.71418 17.6897ZM1.5144 14.6552C1.58202 14.6297 1.65376 14.6167 1.72604 14.617C1.83871 14.6191 1.94969 14.6447 2.05182 14.6923C2.38412 14.8418 2.6791 15.1863 2.84101 15.6139C3.10351 16.3077 2.93945 17.0402 2.48242 17.2138C2.2786 17.2913 2.07765 17.2364 1.945 17.1767C1.61275 17.0273 1.31771 16.6827 1.15585 16.2551C0.89312 15.5616 1.05718 14.8289 1.5144 14.6552Z" fill="#37BD69" stroke="#37BD69" stroke-width="0.5"/>
</g>
<defs>
<clipPath id="clip0_38680_23752">
<rect width="24" height="24" fill="white"/>
</clipPath>
</defs>
</svg>
