<svg width="54" height="36" viewBox="0 0 54 36" fill="none" xmlns="http://www.w3.org/2000/svg">
<path d="M0 0H52L44.5 18L52 36H0V0Z" fill="#FA6140"/>
<path d="M17.3608 9.54545L17.0795 21.8693H14.3352L14.0625 9.54545H17.3608ZM15.7074 27.1875C15.1903 27.1875 14.7472 27.0057 14.3778 26.642C14.0142 26.2784 13.8324 25.8352 13.8324 25.3125C13.8324 24.8011 14.0142 24.3636 14.3778 24C14.7472 23.6364 15.1903 23.4545 15.7074 23.4545C16.2131 23.4545 16.6506 23.6364 17.0199 24C17.3949 24.3636 17.5824 24.8011 17.5824 25.3125C17.5824 25.6591 17.4943 25.9744 17.3182 26.2585C17.1477 26.5426 16.9205 26.7699 16.6364 26.9403C16.358 27.1051 16.0483 27.1875 15.7074 27.1875ZM24.767 9.54545L24.4858 21.8693H21.7415L21.4688 9.54545H24.767ZM23.1136 27.1875C22.5966 27.1875 22.1534 27.0057 21.7841 26.642C21.4205 26.2784 21.2386 25.8352 21.2386 25.3125C21.2386 24.8011 21.4205 24.3636 21.7841 24C22.1534 23.6364 22.5966 23.4545 23.1136 23.4545C23.6193 23.4545 24.0568 23.6364 24.4261 24C24.8011 24.3636 24.9886 24.8011 24.9886 25.3125C24.9886 25.6591 24.9006 25.9744 24.7244 26.2585C24.554 26.5426 24.3267 26.7699 24.0426 26.9403C23.7642 27.1051 23.4545 27.1875 23.1136 27.1875ZM32.1733 9.54545L31.892 21.8693H29.1477L28.875 9.54545H32.1733ZM30.5199 27.1875C30.0028 27.1875 29.5597 27.0057 29.1903 26.642C28.8267 26.2784 28.6449 25.8352 28.6449 25.3125C28.6449 24.8011 28.8267 24.3636 29.1903 24C29.5597 23.6364 30.0028 23.4545 30.5199 23.4545C31.0256 23.4545 31.4631 23.6364 31.8324 24C32.2074 24.3636 32.3949 24.8011 32.3949 25.3125C32.3949 25.6591 32.3068 25.9744 32.1307 26.2585C31.9602 26.5426 31.733 26.7699 31.4489 26.9403C31.1705 27.1051 30.8608 27.1875 30.5199 27.1875Z" fill="white"/>
</svg>
