<svg width="54" height="36" viewBox="0 0 54 36" fill="none" xmlns="http://www.w3.org/2000/svg">
<path d="M0 0H52L44.5 18L52 36H0V0Z" fill="#E93353"/>
<path d="M14 20.2222C14 18.2778 14.463 16.5463 15.3889 15.0278C16.3148 13.5093 17.3333 12.2315 18.4444 11.1944C19.5556 10.1574 20.5741 9.36574 21.5 8.81944L22.8889 8V11.6667C22.8889 12.3519 23.1204 12.8935 23.5833 13.2917C24.0463 13.6898 24.5648 13.8889 25.1389 13.8889C25.4537 13.8889 25.7546 13.8241 26.0417 13.6944C26.3287 13.5648 26.5926 13.3519 26.8333 13.0556L27.3333 12.4444C28.6667 13.2222 29.7407 14.3009 30.5556 15.6806C31.3704 17.0602 31.7778 18.5741 31.7778 20.2222C31.7778 21.8519 31.3796 23.338 30.5833 24.6806C29.787 26.0231 28.7407 27.0833 27.4444 27.8611C27.7593 27.4167 28.0046 26.9306 28.1806 26.4028C28.3565 25.875 28.4444 25.3148 28.4444 24.7222C28.4444 23.9815 28.3056 23.2824 28.0278 22.625C27.75 21.9676 27.3519 21.3796 26.8333 20.8611L22.8889 17L18.9722 20.8611C18.4352 21.3981 18.0278 21.9907 17.75 22.6389C17.4722 23.287 17.3333 23.9815 17.3333 24.7222C17.3333 25.3148 17.4213 25.875 17.5972 26.4028C17.7731 26.9306 18.0185 27.4167 18.3333 27.8611C17.037 27.0833 15.9907 26.0231 15.1944 24.6806C14.3981 23.338 14 21.8519 14 20.2222ZM22.8889 20.1111L25.25 22.4167C25.5648 22.7315 25.8056 23.0833 25.9722 23.4722C26.1389 23.8611 26.2222 24.2778 26.2222 24.7222C26.2222 25.6296 25.8981 26.4028 25.25 27.0417C24.6019 27.6806 23.8148 28 22.8889 28C21.963 28 21.1759 27.6806 20.5278 27.0417C19.8796 26.4028 19.5556 25.6296 19.5556 24.7222C19.5556 24.2963 19.6389 23.8843 19.8056 23.4861C19.9722 23.088 20.213 22.7315 20.5278 22.4167L22.8889 20.1111Z" fill="white"/>
</svg>
