<svg width="54" height="36" viewBox="0 0 54 36" fill="none" xmlns="http://www.w3.org/2000/svg">
<path d="M0 0H52L44.5 18L52 36H0V0Z" fill="#00D6C9"/>
<path d="M24.6577 9.54545L24.3764 21.8693H21.6321L21.3594 9.54545H24.6577ZM23.0043 27.1875C22.4872 27.1875 22.044 27.0057 21.6747 26.642C21.3111 26.2784 21.1293 25.8352 21.1293 25.3125C21.1293 24.8011 21.3111 24.3636 21.6747 24C22.044 23.6364 22.4872 23.4545 23.0043 23.4545C23.5099 23.4545 23.9474 23.6364 24.3168 24C24.6918 24.3636 24.8793 24.8011 24.8793 25.3125C24.8793 25.6591 24.7912 25.9744 24.6151 26.2585C24.4446 26.5426 24.2173 26.7699 23.9332 26.9403C23.6548 27.1051 23.3452 27.1875 23.0043 27.1875Z" fill="white"/>
</svg>
