<svg width="54" height="36" viewBox="0 0 54 36" fill="none" xmlns="http://www.w3.org/2000/svg">
<path d="M0 0H52L44.5 18L52 36H0V0Z" fill="#EFD756"/>
<path d="M21.4545 9.54545L21.1733 21.8693H18.429L18.1562 9.54545H21.4545ZM19.8011 27.1875C19.2841 27.1875 18.8409 27.0057 18.4716 26.642C18.108 26.2784 17.9261 25.8352 17.9261 25.3125C17.9261 24.8011 18.108 24.3636 18.4716 24C18.8409 23.6364 19.2841 23.4545 19.8011 23.4545C20.3068 23.4545 20.7443 23.6364 21.1136 24C21.4886 24.3636 21.6761 24.8011 21.6761 25.3125C21.6761 25.6591 21.5881 25.9744 21.4119 26.2585C21.2415 26.5426 21.0142 26.7699 20.7301 26.9403C20.4517 27.1051 20.142 27.1875 19.8011 27.1875ZM28.8608 9.54545L28.5795 21.8693H25.8352L25.5625 9.54545H28.8608ZM27.2074 27.1875C26.6903 27.1875 26.2472 27.0057 25.8778 26.642C25.5142 26.2784 25.3324 25.8352 25.3324 25.3125C25.3324 24.8011 25.5142 24.3636 25.8778 24C26.2472 23.6364 26.6903 23.4545 27.2074 23.4545C27.7131 23.4545 28.1506 23.6364 28.5199 24C28.8949 24.3636 29.0824 24.8011 29.0824 25.3125C29.0824 25.6591 28.9943 25.9744 28.8182 26.2585C28.6477 26.5426 28.4205 26.7699 28.1364 26.9403C27.858 27.1051 27.5483 27.1875 27.2074 27.1875Z" fill="white"/>
</svg>
