<svg width="17" height="21" viewBox="0 0 17 21" fill="none" xmlns="http://www.w3.org/2000/svg">
<path d="M11.7006 9.50637V4.30126H13.3246V9.50637H11.7006ZM5.99551 16.1961C5.51678 16.0088 5.12646 15.7004 4.82457 15.2707C4.52267 14.8412 4.37172 14.353 4.37172 13.8061V4.30126H5.99551V16.1961ZM7.02571 20.6666C5.26739 20.6666 3.7747 20.0495 2.54763 18.8152C1.32056 17.5811 0.707031 16.0849 0.707031 14.3266V4.59251C0.707031 3.34325 1.14084 2.28138 2.00844 1.40691C2.87587 0.532448 3.93422 0.0952148 5.18348 0.0952148C6.43275 0.0952148 7.49118 0.532448 8.35879 1.40691C9.2264 2.28138 9.6602 3.34325 9.6602 4.59251V12.5463H8.03614V4.58222C8.02496 3.78264 7.74724 3.10559 7.203 2.55106C6.65876 1.99654 5.98559 1.71927 5.18348 1.71927C4.38481 1.71927 3.70974 1.99825 3.15828 2.55621C2.60682 3.11434 2.33109 3.79311 2.33109 4.59251V14.3266C2.3199 15.6356 2.77238 16.7488 3.68854 17.6662C4.60469 18.5838 5.71726 19.0426 7.02625 19.0426C7.45229 19.0426 7.85705 18.9909 8.24051 18.8875C8.62396 18.7841 8.98613 18.629 9.327 18.4222V20.2273C8.96881 20.3717 8.59717 20.481 8.21208 20.5551C7.82682 20.6295 7.43136 20.6666 7.02571 20.6666ZM11.7006 19.5839V16.544H8.66087V14.9199H11.7006V11.8802H13.3246V14.9199H16.3646V16.544H13.3246V19.5839H11.7006Z" fill="#006D35"/>
</svg>
