<svg width="42" height="42" viewBox="0 0 42 42" fill="none" xmlns="http://www.w3.org/2000/svg">
<path d="M37.6405 20.7769C38.4464 19.4453 38.2023 17.2174 36.75 16.443V8.20312C36.75 6.03159 34.984 4.26562 32.8125 4.26562H5.25C3.07847 4.26562 1.3125 6.03159 1.3125 8.20312V29.2031C1.3125 31.3747 3.07847 33.1406 5.25 33.1406H21C20.7441 35.5373 22.4608 37.7409 24.9375 37.7344H36.75C38.9215 37.7344 40.6875 35.9684 40.6875 33.7969V24.6094C40.6875 22.745 39.3835 21.1824 37.6405 20.7769ZM36.75 18.7031V19.3594C36.75 20.0832 36.1613 20.6719 35.4375 20.6719H26.25C25.5262 20.6719 24.9375 20.0832 24.9375 19.3594V18.7031C24.9375 17.9793 25.5262 17.3906 26.25 17.3906H35.4375C36.1613 17.3906 36.75 17.9793 36.75 18.7031ZM29.0332 10.8859C30.0398 12.6013 29.4597 15.0248 27.7535 16.0781C26.819 16.0853 25.4238 15.937 24.6842 16.609C24.0505 16.4637 23.4632 16.1621 22.976 15.7316L29.0332 10.8859ZM22.155 14.7079C20.0524 10.8216 24.9021 6.96084 28.2115 9.86278L22.155 14.7079ZM21 24.6094V31.8281H5.25C3.80231 31.8281 2.625 30.6508 2.625 29.2031V8.20312C2.625 6.75544 3.80231 5.57812 5.25 5.57812H32.8125C34.2602 5.57812 35.4375 6.75544 35.4375 8.20312V16.0781H29.6769C32.4503 12.7444 29.9388 7.49175 25.5938 7.54688C19.7111 7.64334 18.3422 15.7021 23.8153 17.7358C23.4977 18.669 23.5029 19.9356 24.047 20.7769C22.304 21.1824 21 22.7456 21 24.6094ZM39.375 33.7969C39.375 35.2446 38.1977 36.4219 36.75 36.4219H24.9375C23.4898 36.4219 22.3125 35.2446 22.3125 33.7969V24.6094C22.3125 23.1617 23.4898 21.9844 24.9375 21.9844H36.75C38.1977 21.9844 39.375 23.1617 39.375 24.6094V33.7969Z" fill="#7A8684"/>
<path d="M11.8125 7.54688C8.91778 7.54688 6.5625 9.90216 6.5625 12.7969C6.85125 19.7617 16.7751 19.7597 17.0625 12.7969C17.0625 9.90216 14.7072 7.54688 11.8125 7.54688ZM11.8125 8.85938C12.8172 8.85938 13.7327 9.24131 14.4296 9.86344L8.37244 14.7079C6.89063 12.2049 8.88038 8.78062 11.8125 8.85938ZM11.8125 16.7344C10.8461 16.734 9.91403 16.3764 9.19537 15.7303L15.2526 10.8859C16.7344 13.3888 14.7446 16.8131 11.8125 16.7344ZM35.1094 26.5781H33.4688V24.9375C33.4688 24.0325 32.7331 23.2969 31.8281 23.2969H29.8594C29.4244 23.2972 29.0073 23.4702 28.6997 23.7778C28.3921 24.0854 28.2191 24.5025 28.2188 24.9375V26.5781H26.5781C26.1431 26.5785 25.726 26.7514 25.4184 27.059C25.1108 27.3666 24.9378 27.7837 24.9375 28.2188V30.1875C24.9375 31.0925 25.6732 31.8281 26.5781 31.8281H28.2188V33.4688C28.2188 34.3737 28.9544 35.1094 29.8594 35.1094H31.8281C32.7331 35.1094 33.4688 34.3737 33.4688 33.4688V31.8281H35.1094C36.0143 31.8281 36.75 31.0925 36.75 30.1875V28.2188C36.75 27.3138 36.0143 26.5781 35.1094 26.5781ZM35.4375 30.1875C35.4375 30.368 35.2898 30.5156 35.1094 30.5156H32.8125C32.6385 30.5156 32.4715 30.5848 32.3485 30.7078C32.2254 30.8309 32.1562 30.9978 32.1562 31.1719V33.4688C32.1562 33.6492 32.0086 33.7969 31.8281 33.7969H29.8594C29.7724 33.7967 29.689 33.7621 29.6275 33.7006C29.566 33.6391 29.5314 33.5557 29.5312 33.4688V31.1719C29.5312 30.9978 29.4621 30.8309 29.339 30.7078C29.216 30.5848 29.049 30.5156 28.875 30.5156H26.5781C26.4912 30.5155 26.4078 30.4808 26.3463 30.4193C26.2848 30.3578 26.2502 30.2745 26.25 30.1875V28.2188C26.25 28.0383 26.3977 27.8906 26.5781 27.8906H28.875C29.049 27.8906 29.216 27.8215 29.339 27.6984C29.4621 27.5753 29.5312 27.4084 29.5312 27.2344V24.9375C29.5312 24.757 29.6789 24.6094 29.8594 24.6094H31.8281C32.0086 24.6094 32.1562 24.757 32.1562 24.9375V27.2344C32.1562 27.4084 32.2254 27.5753 32.3485 27.6984C32.4715 27.8215 32.6385 27.8906 32.8125 27.8906H35.1094C35.2898 27.8906 35.4375 28.0383 35.4375 28.2188V30.1875Z" fill="#7A8684"/>
<path d="M11.8125 19.3594C8.91778 19.3594 6.5625 21.7147 6.5625 24.6094C6.85125 31.5742 16.7751 31.5722 17.0625 24.6094C17.0625 21.7147 14.7072 19.3594 11.8125 19.3594ZM11.8125 20.6719C12.8172 20.6719 13.7327 21.0532 14.429 21.6753L8.37244 26.5204C6.89063 24.0174 8.87972 20.5931 11.8125 20.6719ZM11.8125 28.5469C10.8465 28.5465 9.91462 28.1891 9.19603 27.5435L15.2526 22.6984C16.7344 25.2013 14.7453 28.6256 11.8125 28.5469Z" fill="#7A8684"/>
</svg>
