<svg width="42" height="42" viewBox="0 0 42 42" fill="none" xmlns="http://www.w3.org/2000/svg">
<path d="M35.1902 4.99013H33.4823V4.46438C33.2677 1.69272 29.4112 2.23176 29.8037 4.99018L24.0218 4.99013V4.46438C24.0213 3.97671 23.8273 3.50916 23.4825 3.16432C23.1376 2.81948 22.6701 2.62552 22.1824 2.625C20.8692 2.65174 20.2055 3.76691 20.3431 4.99013H14.5619V4.46438C14.5562 3.98022 14.3598 3.51783 14.0154 3.17748C13.671 2.83713 13.2064 2.64627 12.7222 2.64627C12.238 2.64628 11.7733 2.83715 11.4289 3.17751C11.0845 3.51786 10.8882 3.98026 10.8825 4.46442V4.99013H6.80981C6.16537 4.99084 5.54752 5.24713 5.0918 5.70279C4.63608 6.15845 4.3797 6.77626 4.37891 7.4207V32.2542C4.3797 32.8986 4.63608 33.5165 5.0918 33.9721C5.54753 34.4278 6.16538 34.6841 6.80983 34.6848H11.5728C11.7451 34.6818 11.9093 34.6113 12.0301 34.4884C12.1508 34.3655 12.2185 34.2001 12.2185 34.0278C12.2185 33.8555 12.1508 33.6901 12.03 33.5672C11.9093 33.4443 11.745 33.3738 11.5728 33.3709H6.80983C6.51375 33.3705 6.22988 33.2528 6.02049 33.0435C5.8111 32.8341 5.69329 32.5503 5.69289 32.2542V12.2168H36.3072V32.2542C36.3068 32.5503 36.189 32.8341 35.9796 33.0434C35.7702 33.2528 35.4863 33.3705 35.1902 33.3708H30.4272C30.2548 33.3735 30.0903 33.4439 29.9692 33.5668C29.8482 33.6897 29.7804 33.8553 29.7804 34.0278C29.7804 34.2003 29.8482 34.3659 29.9693 34.4888C30.0903 34.6117 30.2548 34.6821 30.4273 34.6848H35.1902C35.8347 34.6841 36.4525 34.4278 36.9082 33.9721C37.364 33.5164 37.6203 32.8986 37.6211 32.2542V7.42072C37.6203 6.77627 37.364 6.15845 36.9082 5.70279C36.4525 5.24712 35.8346 4.99083 35.1902 4.99013ZM31.1175 4.46436C31.1202 4.3268 31.1768 4.19578 31.275 4.09946C31.3733 4.00313 31.5054 3.94917 31.643 3.94918C31.7806 3.94918 31.9127 4.00315 32.0109 4.09948C32.1092 4.19582 32.1657 4.32684 32.1684 4.4644V4.99013H31.1175L31.1175 4.46436ZM21.657 4.46436C21.6597 4.3268 21.7162 4.19578 21.8145 4.09946C21.9127 4.00313 22.0448 3.94917 22.1824 3.94918C22.32 3.94918 22.4521 4.00315 22.5504 4.09948C22.6486 4.19582 22.7051 4.32684 22.7078 4.4644V4.99013H21.657L21.657 4.46436ZM12.1964 4.46436C12.1992 4.32677 12.2558 4.19576 12.3541 4.09944C12.4524 4.00312 12.5846 3.94918 12.7222 3.94918C12.8598 3.94919 12.9919 4.00314 13.0902 4.09947C13.1885 4.19579 13.2451 4.32681 13.2479 4.4644V4.99013H12.1964L12.1964 4.46436ZM36.3071 10.9028H5.69286V7.42072C5.69326 7.12463 5.81108 6.84079 6.02047 6.63146C6.22987 6.42212 6.51374 6.30438 6.80983 6.30407H10.8825V8.01224C10.8857 8.18438 10.9563 8.3484 11.0792 8.46901C11.202 8.58963 11.3673 8.6572 11.5395 8.65719C11.7117 8.65719 11.877 8.58961 11.9998 8.46899C12.1227 8.34837 12.1933 8.18434 12.1964 8.0122V6.30407H20.3431V8.01224C20.3464 8.18426 20.4171 8.34811 20.54 8.46857C20.6628 8.58904 20.828 8.65652 21.0001 8.65651C21.1721 8.65651 21.3373 8.58902 21.4601 8.46854C21.583 8.34807 21.6537 8.18422 21.657 8.0122V6.30407H29.8036V8.01224C29.8063 8.18472 29.8767 8.34922 29.9996 8.47025C30.1225 8.59127 30.2881 8.6591 30.4606 8.65909C30.6331 8.65909 30.7987 8.59125 30.9216 8.47022C31.0445 8.34919 31.1149 8.18468 31.1175 8.0122V6.30407H35.1902C35.4863 6.30438 35.7702 6.42212 35.9796 6.63146C36.189 6.84079 36.3068 7.12463 36.3072 7.42072L36.3071 10.9028Z" fill="#FA6140"/>
<path d="M13.9058 16.353C14.0778 16.3496 14.2416 16.2789 14.3621 16.156C14.4825 16.0332 14.5499 15.868 14.5499 15.696C14.5499 15.524 14.4825 15.3588 14.362 15.236C14.2416 15.1132 14.0778 15.0425 13.9058 15.0391H9.17555C9.00355 15.0425 8.83975 15.1132 8.71932 15.236C8.59888 15.3588 8.53142 15.524 8.53142 15.696C8.53142 15.868 8.59888 16.0332 8.71932 16.156C8.83975 16.2789 9.00355 16.3496 9.17555 16.353H13.9058ZM23.3657 16.353C23.5378 16.3497 23.7017 16.279 23.8222 16.1562C23.9427 16.0333 24.0102 15.8681 24.0102 15.696C24.0102 15.5239 23.9427 15.3587 23.8222 15.2359C23.7016 15.113 23.5378 15.0424 23.3657 15.0391H18.6361C18.4641 15.0425 18.3003 15.1132 18.1799 15.236C18.0595 15.3588 17.992 15.524 17.992 15.696C17.992 15.868 18.0595 16.0332 18.1799 16.156C18.3003 16.2789 18.4641 16.3496 18.6361 16.353H23.3657ZM28.096 16.353H32.8263C32.9983 16.3496 33.1621 16.2789 33.2825 16.156C33.4029 16.0332 33.4704 15.868 33.4704 15.696C33.4704 15.524 33.4029 15.3588 33.2825 15.236C33.162 15.1132 32.9982 15.0425 32.8262 15.0391H28.096C27.924 15.0425 27.7602 15.1132 27.6398 15.236C27.5193 15.3589 27.4519 15.524 27.4519 15.696C27.4519 15.8681 27.5194 16.0332 27.6398 16.1561C27.7602 16.2789 27.924 16.3496 28.096 16.353ZM9.17556 21.6745H13.9058C14.0778 21.6711 14.2417 21.6004 14.3621 21.4776C14.4826 21.3547 14.5501 21.1895 14.5501 21.0175C14.5501 20.8454 14.4826 20.6802 14.3621 20.5574C14.2416 20.4346 14.0778 20.3639 13.9058 20.3605H9.17552C9.0035 20.3639 8.83966 20.4346 8.71919 20.5574C8.59872 20.6803 8.53124 20.8455 8.53125 21.0175C8.53126 21.1896 8.59874 21.3548 8.71922 21.4776C8.83969 21.6004 9.00354 21.6711 9.17556 21.6745ZM18.6361 21.6745H23.3657C23.5378 21.6711 23.7016 21.6004 23.8221 21.4776C23.9425 21.3547 24.01 21.1895 24.01 21.0175C24.01 20.8454 23.9425 20.6802 23.822 20.5574C23.7016 20.4346 23.5377 20.3639 23.3657 20.3605H18.6361C18.4641 20.3639 18.3002 20.4346 18.1798 20.5574C18.0593 20.6803 17.9918 20.8455 17.9918 21.0175C17.9918 21.1896 18.0593 21.3548 18.1798 21.4776C18.3002 21.6004 18.4641 21.6711 18.6361 21.6745ZM21.0009 23.9081C18.9456 23.9104 16.9751 24.7279 15.5218 26.1813C14.0685 27.6346 13.2511 29.6051 13.2489 31.6605C13.6745 41.9447 28.3289 41.9417 28.753 31.6604C28.7507 29.6051 27.9333 27.6346 26.48 26.1812C25.0267 24.7279 23.0562 23.9104 21.0009 23.9081ZM21.0009 38.0986C19.294 38.0967 17.6576 37.4177 16.4506 36.2108C15.2437 35.0038 14.5647 33.3674 14.5628 31.6605C14.9166 23.119 27.0865 23.1215 27.4391 31.6605C27.4371 33.3674 26.7582 35.0038 25.5512 36.2108C24.3443 37.4177 22.7078 38.0967 21.0009 38.0986Z" fill="#FA6140"/>
<path d="M21.6577 31.3884V26.9644C21.6542 26.7925 21.5835 26.6287 21.4607 26.5083C21.3378 26.3879 21.1727 26.3205 21.0007 26.3205C20.8287 26.3205 20.6636 26.388 20.5407 26.5084C20.4179 26.6288 20.3472 26.7925 20.3438 26.9645V31.6607C20.3437 31.747 20.3607 31.8325 20.3937 31.9123C20.4268 31.992 20.4752 32.0645 20.5362 32.1255L22.9042 34.4904C23.0283 34.6096 23.1942 34.6754 23.3663 34.6736C23.5384 34.6719 23.7029 34.6027 23.8245 34.481C23.9461 34.3592 24.0152 34.1947 24.0168 34.0226C24.0184 33.8505 23.9525 33.6847 23.8332 33.5607L21.6577 31.3884ZM33.1456 19.5412C33.2728 19.4254 33.3495 19.2644 33.3593 19.0927C33.3691 18.921 33.3111 18.7523 33.1979 18.6228C33.0846 18.4934 32.9251 18.4135 32.7537 18.4004C32.5822 18.3872 32.4124 18.4419 32.2807 18.5525L29.7401 20.7756L28.6732 19.7086C28.5498 19.5865 28.3831 19.5181 28.2094 19.5186C28.0358 19.519 27.8693 19.5882 27.7466 19.711C27.6238 19.8338 27.5546 20.0002 27.5542 20.1738C27.5537 20.3475 27.6221 20.5142 27.7442 20.6376L29.2455 22.1392C29.3633 22.2571 29.5215 22.3258 29.6881 22.3313C29.8546 22.3369 30.017 22.2788 30.1424 22.1691L33.1456 19.5412Z" fill="#FA6140"/>
</svg>
