<svg width="338" height="145" viewBox="0 0 338 145" fill="none" xmlns="http://www.w3.org/2000/svg">
<path d="M0 8C0 3.58173 3.58172 0 8 0H330C334.418 0 338 3.58172 338 8V145H0V8Z" fill="#00ABAB"/>
<path d="M209.669 81.3653C207.504 79.3965 204.707 78.2649 201.781 78.1791C202.278 75.6 202.735 69.4391 199.242 68.9883C195.737 68.8288 191.971 70.172 189.843 73.0301C188.481 72.0733 186.856 71.5612 185.191 71.5581C182.182 71.5704 182.182 76.1459 185.191 76.1581C187.074 76.1673 188.622 77.6485 188.714 79.5315C165.794 71.5305 162.228 99.5691 175.249 112.431C179.211 116.66 185.688 117.972 190.999 115.669C196.399 118.012 202.686 116.715 206.722 112.431C214.303 104.457 217.78 90.1207 209.669 81.3653ZM193.79 75.3485C197.117 72.4812 198.681 73.6312 197.034 77.6884C193.695 80.5404 192.161 79.4057 193.79 75.3485ZM209.445 96.1651C208.721 104.23 201.889 115.589 192.511 111.336C191.594 110.851 190.496 110.934 189.552 111.299C185.783 113.111 181.269 112.241 178.447 109.152C171.575 102.737 167.962 83.1839 181.265 82.7699C185.215 82.4233 189.227 85.5697 192.401 84.7172C204.302 79.4119 210.969 85.5115 209.445 96.1651Z" fill="white"/>
<path d="M168.06 112.208H135.663C131.609 112.198 128.328 108.917 128.319 104.863V52.5825C128.319 48.5161 131.612 45.2225 135.679 45.2225H141.751C141.352 48.2891 143.137 51.3435 146.464 51.3466H172.384C175.696 51.3497 177.505 48.2953 177.1 45.2347H183.188C187.245 45.2439 190.529 48.5375 190.529 52.5947V62.4357C190.538 65.4379 195.117 65.4471 195.129 62.4357V52.5825C195.129 45.983 189.787 40.6317 183.188 40.6225H177.1C177.41 37.9729 176.248 35.3631 173.276 35.3079H169.486C167.318 24.4427 151.635 24.5041 149.399 35.3049H145.572C142.606 35.3539 141.435 37.9913 141.751 40.6378H135.663C129.064 40.647 123.719 45.9983 123.719 52.5978V104.863C123.728 111.456 129.07 116.798 135.663 116.808H168.06C171.056 116.783 171.08 112.229 168.06 112.208ZM146.351 39.9049H151.475C152.766 39.8527 153.784 38.7886 153.775 37.4975C153.873 29.8186 165.22 29.8247 165.085 37.5957C165.085 38.8653 166.115 39.8957 167.385 39.8957H172.488L172.384 46.7374L146.351 46.6301V39.9049Z" fill="white"/>
<path d="M177.097 71.2756C177.097 70.006 176.067 68.9756 174.797 68.9756H140.515C139.245 68.9756 138.215 70.006 138.215 71.2756C138.215 72.5452 139.245 73.5756 140.515 73.5756H174.797C176.07 73.5756 177.097 72.5452 177.097 71.2756Z" fill="white"/>
<path d="M145.38 84.4287C142.378 84.441 142.369 89.0164 145.38 89.0287H162.072C165.074 89.0164 165.083 84.441 162.072 84.4287H145.38Z" fill="white"/>
</svg>
