<svg width="24" height="24" viewBox="0 0 24 24" fill="none" xmlns="http://www.w3.org/2000/svg">
<path fill-rule="evenodd" clip-rule="evenodd" d="M4.05153 19.9797C4.72378 20.652 5.63523 21.0301 6.58594 21.0312H17.4141C18.3648 21.0301 19.2762 20.652 19.9485 19.9797C20.6207 19.3075 20.9989 18.396 21 17.4453V6.61719C20.9989 5.66648 20.6207 4.75503 19.9485 4.08278C19.2762 3.41053 18.3648 3.03237 17.4141 3.03125H6.58594C5.63523 3.03237 4.72378 3.41053 4.05153 4.08278C3.37928 4.75503 3.00112 5.66648 3 6.61719V17.4453C3.00112 18.396 3.37928 19.3075 4.05153 19.9797ZM5.04539 5.07664C5.45401 4.66801 6.00805 4.43815 6.58594 4.4375H17.4141C17.992 4.43815 18.546 4.66801 18.9546 5.07664C19.3632 5.48526 19.5931 6.0393 19.5938 6.61719V17.4453C19.5931 18.0232 19.3632 18.5772 18.9546 18.9859C18.546 19.3945 17.992 19.6243 17.4141 19.625H6.58594C6.00805 19.6243 5.45401 19.3945 5.04539 18.9859C4.63676 18.5772 4.4069 18.0232 4.40625 17.4453V6.61719C4.4069 6.0393 4.63676 5.48526 5.04539 5.07664ZM12.7031 7.19531V12.7351L14.5719 10.8661C14.6372 10.8008 14.7147 10.749 14.8 10.7137C14.8854 10.6783 14.9768 10.6602 15.0692 10.6602C15.1615 10.6602 15.253 10.6783 15.3383 10.7137C15.4236 10.749 15.5011 10.8008 15.5665 10.8661C15.6318 10.9314 15.6836 11.009 15.7189 11.0943C15.7542 11.1796 15.7724 11.2711 15.7724 11.3634C15.7724 11.4558 15.7542 11.5472 15.7189 11.6326C15.6836 11.7179 15.6318 11.7954 15.5665 11.8607L12.8397 14.5871C12.7296 14.6977 12.5987 14.7854 12.4544 14.8451C12.3102 14.9048 12.1556 14.9352 11.9995 14.9348C11.8434 14.9352 11.6888 14.9048 11.5446 14.8451C11.4003 14.7854 11.2694 14.6977 11.1593 14.5871L8.43254 11.8607C8.30066 11.7288 8.22656 11.5499 8.22656 11.3634C8.22656 11.1769 8.30066 10.998 8.43254 10.8661C8.56443 10.7343 8.74331 10.6602 8.92983 10.6602C9.11635 10.6602 9.29523 10.7343 9.42711 10.8661L11.2969 12.7362V7.19531C11.2969 7.00883 11.371 6.82999 11.5028 6.69813C11.6347 6.56627 11.8135 6.49219 12 6.49219C12.1865 6.49219 12.3653 6.56627 12.4972 6.69813C12.629 6.82999 12.7031 7.00883 12.7031 7.19531ZM8.92969 17.5H15.0694C15.2559 17.5 15.4347 17.4259 15.5666 17.2941C15.6984 17.1622 15.7725 16.9834 15.7725 16.7969C15.7725 16.6104 15.6984 16.4316 15.5666 16.2997C15.4347 16.1678 15.2559 16.0938 15.0694 16.0938H8.92969C8.74321 16.0938 8.56436 16.1678 8.4325 16.2997C8.30064 16.4316 8.22656 16.6104 8.22656 16.7969C8.22656 16.9834 8.30064 17.1622 8.4325 17.2941C8.56436 17.4259 8.74321 17.5 8.92969 17.5Z" fill="#006D35"/>
</svg>
