<svg width="24" height="24" viewBox="0 0 24 24" fill="none" xmlns="http://www.w3.org/2000/svg">
<path d="M4 8.00313C4 7.5613 4.35817 7.20312 4.8 7.20312H19.2C19.6418 7.20312 20 7.5613 20 8.00313C20 8.44495 19.6418 8.80313 19.2 8.80313H4.8C4.35817 8.80313 4 8.44495 4 8.00313Z" fill="#44544A"/>
<path d="M6.39844 12.0031C6.39844 11.5613 6.75661 11.2031 7.19844 11.2031H16.7984C17.2403 11.2031 17.5984 11.5613 17.5984 12.0031C17.5984 12.445 17.2403 12.8031 16.7984 12.8031H7.19844C6.75661 12.8031 6.39844 12.445 6.39844 12.0031Z" fill="#44544A"/>
<path d="M10.4016 15.2031C9.95974 15.2031 9.60156 15.5613 9.60156 16.0031C9.60156 16.445 9.95974 16.8031 10.4016 16.8031H13.6016C14.0434 16.8031 14.4016 16.445 14.4016 16.0031C14.4016 15.5613 14.0434 15.2031 13.6016 15.2031H10.4016Z" fill="#44544A"/>
</svg>
