<svg width="38" height="38" viewBox="0 0 38 38" fill="none" xmlns="http://www.w3.org/2000/svg">
<g clip-path="url(#clip0_28112_64706)">
<path d="M37.5104 30.1649L21.9234 4.31506C21.3093 3.2967 20.1892 2.66406 19 2.66406C17.8108 2.66406 16.6906 3.2967 16.0764 4.31513L0.489505 30.1649C-0.145139 31.2174 -0.163916 32.5361 0.440447 33.6064C1.04496 34.6766 2.18392 35.3415 3.41298 35.3415H34.5869C35.816 35.3415 36.955 34.6766 37.5595 33.6063C38.1639 32.536 38.1451 31.2173 37.5104 30.1649ZM35.4053 32.3898C35.3233 32.5346 35.2043 32.6552 35.0606 32.7391C34.9168 32.823 34.7534 32.8673 34.5869 32.8675H3.41298C3.24654 32.8673 3.08311 32.823 2.93937 32.7391C2.79562 32.6552 2.67669 32.5347 2.59472 32.3899C2.513 32.2449 2.47119 32.0808 2.47355 31.9143C2.47591 31.7479 2.52235 31.5851 2.60815 31.4425L18.1952 5.59266C18.2792 5.45432 18.3973 5.33987 18.5383 5.26028C18.6792 5.1807 18.8382 5.13864 19 5.13814C19.3273 5.13814 19.6357 5.31234 19.8048 5.59266L35.3917 31.4425C35.4775 31.585 35.524 31.7479 35.5264 31.9143C35.5288 32.0807 35.487 32.2448 35.4053 32.3898Z" fill="#E93353"/>
<path d="M19.0119 12.8438C18.0708 12.8438 17.3364 13.3487 17.3364 14.244C17.3364 16.9754 17.6577 20.9003 17.6577 23.6318C17.6577 24.3433 18.2775 24.6417 19.012 24.6417C19.5629 24.6417 20.3433 24.3433 20.3433 23.6318C20.3433 20.9004 20.6646 16.9754 20.6646 14.244C20.6646 13.3488 19.9072 12.8438 19.0119 12.8438ZM19.035 26.2255C18.0251 26.2255 17.2676 27.0288 17.2676 27.9929C17.2676 28.934 18.0251 29.7604 19.035 29.7604C19.9761 29.7604 20.7795 28.934 20.7795 27.9929C20.7795 27.0288 19.976 26.2255 19.035 26.2255Z" fill="#E93353"/>
</g>
<defs>
<clipPath id="clip0_28112_64706">
<rect width="38" height="38" fill="white"/>
</clipPath>
</defs>
</svg>
