<svg width="38" height="38" viewBox="0 0 38 38" fill="none" xmlns="http://www.w3.org/2000/svg">
<path d="M33.7178 7.23914H28.3145V3.70046C28.3145 2.11664 27.0259 0.828125 25.4422 0.828125H12.5578C10.9741 0.828125 9.68555 2.11664 9.68555 3.70046V7.23914H4.2822C1.921 7.23914 0 9.16014 0 11.5213V32.8957C0 35.2569 1.921 37.1779 4.2822 37.1779H33.7178C36.079 37.1779 38 35.2569 38 32.8957V11.5213C38 9.16014 36.079 7.23914 33.7178 7.23914ZM12.0605 3.70046C12.0605 3.4309 12.2882 3.20312 12.5578 3.20312H25.4422C25.7118 3.20312 25.9395 3.43083 25.9395 3.70046V7.23914H12.0605V3.70046ZM35.625 32.8957C35.625 33.9474 34.7695 34.8029 33.7178 34.8029H4.2822C3.23052 34.8029 2.375 33.9474 2.375 32.8957V11.5213C2.375 10.4697 3.23052 9.61414 4.2822 9.61414H33.7178C34.7694 9.61414 35.625 10.4697 35.625 11.5213V32.8957ZM26.4219 18.21H22.9985V14.7867C22.9985 14.1309 22.4668 13.5992 21.811 13.5992H16.189C15.5332 13.5992 15.0015 14.1309 15.0015 14.7867V18.21H11.5781C10.9223 18.21 10.3906 18.7417 10.3906 19.3975V25.0195C10.3906 25.6753 10.9223 26.207 11.5781 26.207H15.0015V29.6303C15.0015 30.2861 15.5332 30.8178 16.189 30.8178H21.811C22.4668 30.8178 22.9985 30.2861 22.9985 29.6303V26.207H26.4219C27.0777 26.207 27.6094 25.6753 27.6094 25.0195V19.3975C27.6094 18.7417 27.0777 18.21 26.4219 18.21ZM25.2344 23.832H21.811C21.1552 23.832 20.6235 24.3637 20.6235 25.0195V28.4428H17.3765V25.0195C17.3765 24.3637 16.8448 23.832 16.189 23.832H12.7656V20.585H16.189C16.8448 20.585 17.3765 20.0533 17.3765 19.3975V15.9742H20.6235V19.3975C20.6235 20.0533 21.1552 20.585 21.811 20.585H25.2344V23.832Z" fill="#00AFD6"/>
</svg>
