<svg width="16" height="20" viewBox="0 0 16 20" fill="none" xmlns="http://www.w3.org/2000/svg">
<path fill-rule="evenodd" clip-rule="evenodd" d="M15.6875 4.90052C15.6875 4.53801 15.4784 4.20799 15.1509 4.05302L8.30705 0.816548C8.05333 0.696567 7.75917 0.696567 7.50545 0.816548L0.6617 4.05302C0.333988 4.20799 0.125 4.53801 0.125 4.90052V9.84361C0.125 13.4569 2.20149 16.7485 5.46251 18.3047L7.50251 19.278C7.75788 19.3999 8.05462 19.3999 8.30999 19.278L10.35 18.3047C13.611 16.7485 15.6875 13.4569 15.6875 9.84361V4.90052ZM7.20883 13.752C6.75414 13.752 6.38675 13.3811 6.39104 12.9265L6.40651 11.2862H4.88032C4.42865 11.2862 4.0625 10.9201 4.0625 10.4684V9.20308C4.0625 8.75142 4.42865 8.38527 4.88032 8.38527H6.43389L6.44814 6.87462C6.45237 6.42599 6.81727 6.06452 7.26592 6.06452H8.53115C8.98584 6.06452 9.35322 6.43538 9.34893 6.89005L9.33483 8.38527H10.9322C11.3839 8.38527 11.75 8.75142 11.75 9.20308V10.4684C11.75 10.9201 11.3839 11.2862 10.9322 11.2862H9.30746L9.29184 12.9419C9.2876 13.3906 8.92272 13.752 8.47406 13.752H7.20883Z" fill="url(#paint0_linear_28112_64811)"/>
<defs>
<linearGradient id="paint0_linear_28112_64811" x1="1.37407" y1="2.63822" x2="19.9051" y2="10.3515" gradientUnits="userSpaceOnUse">
<stop stop-color="#00D6C9"/>
<stop offset="1" stop-color="#37BD69"/>
</linearGradient>
</defs>
</svg>
