<svg width="24" height="24" viewBox="0 0 24 24" fill="none" xmlns="http://www.w3.org/2000/svg">
<g clip-path="url(#clip0_28112_64781)">
<path d="M5.85938 11.7188C9.09542 11.7188 11.7188 9.09542 11.7188 5.85938C11.7188 2.62333 9.09542 0 5.85938 0C2.62333 0 0 2.62333 0 5.85938C0 9.09542 2.62333 11.7188 5.85938 11.7188Z" fill="#FF7D47"/>
<path d="M5.85938 0V11.7188C9.09023 11.7188 11.7188 9.09023 11.7188 5.85938C11.7188 2.62852 9.09023 0 5.85938 0Z" fill="#FF405C"/>
<path d="M5.85938 10.3125C8.31877 10.3125 10.3125 8.31877 10.3125 5.85938C10.3125 3.39998 8.31877 1.40625 5.85938 1.40625C3.39998 1.40625 1.40625 3.39998 1.40625 5.85938C1.40625 8.31877 3.39998 10.3125 5.85938 10.3125Z" fill="#FFF5F5"/>
<path d="M5.85938 1.40625V10.3125C8.31483 10.3125 10.3125 8.31483 10.3125 5.85938C10.3125 3.40392 8.31483 1.40625 5.85938 1.40625Z" fill="#E2DFF4"/>
<path d="M5.85938 7.5C5.47106 7.5 5.15625 7.18519 5.15625 6.79688V5.85938C5.15625 5.47106 5.47106 5.15625 5.85938 5.15625C6.24708 5.15625 6.5625 4.84083 6.5625 4.45312C6.5625 4.06542 6.24708 3.75 5.85938 3.75C5.47167 3.75 5.15625 4.06542 5.15625 4.45312C5.15625 4.84144 4.84144 5.15625 4.45312 5.15625C4.06481 5.15625 3.75 4.84144 3.75 4.45312C3.75 3.29002 4.69627 2.34375 5.85938 2.34375C7.02248 2.34375 7.96875 3.29002 7.96875 4.45312C7.96875 5.36986 7.38098 6.15183 6.5625 6.44203V6.79688C6.5625 7.18519 6.24769 7.5 5.85938 7.5Z" fill="#145481"/>
<path d="M6.5625 4.45312C6.5625 4.84083 6.24708 5.15625 5.85938 5.15625V7.5C6.24769 7.5 6.5625 7.18519 6.5625 6.79688V6.44203C7.38098 6.15187 7.96875 5.36986 7.96875 4.45312C7.96875 3.29002 7.02248 2.34375 5.85938 2.34375V3.75C6.24708 3.75 6.5625 4.06542 6.5625 4.45312Z" fill="#002659"/>
<path d="M5.85938 9.375C6.2477 9.375 6.5625 9.0602 6.5625 8.67188C6.5625 8.28355 6.2477 7.96875 5.85938 7.96875C5.47105 7.96875 5.15625 8.28355 5.15625 8.67188C5.15625 9.0602 5.47105 9.375 5.85938 9.375Z" fill="#145481"/>
<path d="M6.5625 8.67188C6.5625 8.28356 6.24769 7.96875 5.85938 7.96875V9.375C6.24769 9.375 6.5625 9.06019 6.5625 8.67188Z" fill="#002659"/>
<path d="M18.5332 2.57812L20.9688 3.98437L18.3907 8.44969L15.9551 7.04344L18.5332 2.57812Z" fill="#E2DFF4"/>
<path d="M17.1738 7.74656L19.752 3.28125L20.9698 3.98438L18.3916 8.44969L17.1738 7.74656Z" fill="#D5D3EA"/>
<path d="M14.5352 6.22656L13.4805 8.05333L13.5348 8.89666L12.7773 9.27119L12.0742 10.489L12.1286 11.3323L13.8692 13.4739L17 14.1448L19.8125 9.27344L14.5352 6.22656Z" fill="#E2DFF4"/>
<path d="M19.8125 9.27344L17.1738 7.75L13.8691 13.4739L17 14.1448L19.8125 9.27344Z" fill="#D5D3EA"/>
<path d="M7.84387 23.9018C7.50759 23.7076 7.39232 23.2776 7.58652 22.9413L9.88462 18.9609L11.1025 19.6641L8.80438 23.6445C8.61023 23.9807 8.1802 24.096 7.84387 23.9018Z" fill="#FFF5F5"/>
<path d="M10.4934 19.3125L7.84375 23.9018C8.18003 24.096 8.61006 23.9808 8.80422 23.6445L11.1023 19.6641L10.4934 19.3125Z" fill="#E2DFF4"/>
<path d="M12.128 11.3281L11.3705 11.7027L10.6673 12.9205L10.7217 13.7638L9.96421 14.1383L9.26109 15.3562L9.31546 16.1995L8.55796 16.574L7.97203 17.5889C7.51898 18.3736 7.78785 19.377 8.57254 19.83L11.0082 21.2363C11.7929 21.6893 12.7963 21.4205 13.2494 20.6358L16.9994 14.1406L12.128 11.3281Z" fill="#FFEF4A"/>
<path d="M14.3613 12.6172L9.79102 20.5332L11.0088 21.2363C11.7935 21.6894 12.7969 21.4205 13.25 20.6358L17 14.1406L14.3613 12.6172Z" fill="#FFC178"/>
<path d="M8.55859 16.5718L9.57348 17.1578C9.90977 17.3519 10.3398 17.2367 10.534 16.9004C10.7281 16.5642 10.6129 16.1341 10.2766 15.94L9.26172 15.354L8.55859 16.5718ZM13.0891 11.0685L12.0742 10.4826L11.3711 11.7005L12.386 12.2864C12.7223 12.4805 13.1523 12.3653 13.3465 12.029C13.5406 11.6927 13.4254 11.2627 13.0891 11.0685ZM9.96484 14.1361L11.7916 15.1908C12.1279 15.385 12.5579 15.2698 12.7521 14.9335C12.9462 14.5972 12.831 14.1672 12.4947 13.973L10.668 12.9183L9.96484 14.1361ZM13.4805 8.04688L12.7773 9.26473L14.6041 10.3194C14.9404 10.5136 15.3704 10.3984 15.5646 10.0621C15.7587 9.7258 15.6435 9.29577 15.3072 9.10161L13.4805 8.04688Z" fill="#145481"/>
<path d="M20.0695 10.234L13.5743 6.48402C13.2381 6.28987 13.1228 5.85984 13.317 5.52356C13.5111 5.18727 13.9412 5.07201 14.2775 5.26621L20.7727 9.01621C21.1089 9.21037 21.2242 9.6404 21.03 9.97668C20.8358 10.313 20.4058 10.4282 20.0695 10.234Z" fill="#FFF5F5"/>
<path d="M20.773 9.01562L17.5254 7.14062L16.8223 8.35848L20.0699 10.2335C20.4061 10.4276 20.8362 10.3124 21.0303 9.97614C21.2245 9.63981 21.1093 9.20978 20.773 9.01562Z" fill="#E2DFF4"/>
<path d="M21.8908 5.67122L16.6135 2.62435C15.9409 2.23604 15.7105 1.37597 16.0988 0.703365C16.4871 0.0307554 17.3472 -0.199682 18.0198 0.18863L23.2971 3.23551C23.9697 3.62382 24.2001 4.48388 23.8118 5.15649C23.4235 5.8291 22.5635 6.05954 21.8908 5.67122Z" fill="#FFF5F5"/>
<path d="M23.2969 3.23438L20.6582 1.71094L19.252 4.14666L21.8906 5.67009C22.5632 6.05841 23.4233 5.82797 23.8116 5.15536C24.1999 4.48275 23.9695 3.62273 23.2969 3.23438Z" fill="#E2DFF4"/>
</g>
<defs>
<clipPath id="clip0_28112_64781">
<rect width="24" height="24" fill="white"/>
</clipPath>
</defs>
</svg>
