<svg width="22" height="24" viewBox="0 0 22 24" fill="none" xmlns="http://www.w3.org/2000/svg">
<path d="M16.8455 0H1.54347C0.851734 0 0.291016 0.560719 0.291016 1.25245V21.145C0.291016 21.8367 0.851734 22.3975 1.54347 22.3975H16.8456C17.5373 22.3975 18.098 21.8368 18.098 21.145V1.25245C18.098 0.560719 17.5373 0 16.8455 0Z" fill="#F5F8F9"/>
<path d="M16.8455 0H16.1664V19.2135C16.1664 19.9051 15.6057 20.4659 14.914 20.4659H0.291016V21.145C0.291016 21.8367 0.851781 22.3975 1.54347 22.3975H16.8456C17.5373 22.3975 18.098 21.8368 18.098 21.145V1.25245C18.098 0.560719 17.5373 0 16.8455 0Z" fill="#E8EDF2"/>
<path d="M16.2534 23.9989C19.2669 23.9989 21.7098 21.556 21.7098 18.5424C21.7098 15.5289 19.2669 13.0859 16.2534 13.0859C13.2398 13.0859 10.7969 15.5289 10.7969 18.5424C10.7969 21.556 13.2398 23.9989 16.2534 23.9989Z" fill="#37BD69"/>
<path d="M18.4787 13.5625C19.2894 14.5148 19.7789 15.7488 19.7789 17.0974C19.7789 20.1109 17.3359 22.5539 14.3224 22.5539C13.53 22.5539 12.7771 22.3848 12.0977 22.081C13.0985 23.2566 14.589 24.0025 16.254 24.0025C19.2675 24.0025 21.7105 21.5596 21.7105 18.5461C21.7105 16.325 20.3832 14.414 18.4787 13.5625Z" fill="#37BD69"/>
<path d="M15.748 20.9455C15.6359 20.9457 15.5249 20.9237 15.4214 20.8808C15.3178 20.8379 15.2238 20.775 15.1446 20.6956L12.9072 18.4582C12.8541 18.405 12.8242 18.3329 12.8242 18.2577C12.8242 18.1826 12.8541 18.1105 12.9072 18.0573L13.7131 17.2514C13.7394 17.2251 13.7707 17.2042 13.8051 17.19C13.8395 17.1757 13.8763 17.1684 13.9135 17.1684C13.9508 17.1684 13.9876 17.1757 14.022 17.19C14.0564 17.2042 14.0877 17.2251 14.114 17.2514L15.748 18.8854L18.3941 16.2393C18.4205 16.213 18.4517 16.1921 18.4861 16.1778C18.5205 16.1636 18.5573 16.1562 18.5946 16.1562C18.6318 16.1562 18.6687 16.1636 18.7031 16.1778C18.7374 16.1921 18.7687 16.213 18.795 16.2393L19.6009 17.0452C19.6272 17.0715 19.6481 17.1027 19.6623 17.1371C19.6766 17.1715 19.6839 17.2084 19.6839 17.2456C19.6839 17.2828 19.6766 17.3197 19.6623 17.3541C19.6481 17.3885 19.6272 17.4197 19.6009 17.446L16.3514 20.6956C16.2722 20.7749 16.1782 20.8379 16.0746 20.8808C15.9711 20.9237 15.8601 20.9457 15.748 20.9455Z" fill="white"/>
<path d="M19.2164 16.6641L15.1641 20.7165C15.3218 20.8651 15.5303 20.9479 15.747 20.9479C15.9654 20.9479 16.1838 20.8646 16.3504 20.698L19.5999 17.4485C19.653 17.3953 19.6829 17.3232 19.6829 17.248C19.6829 17.1729 19.653 17.1008 19.5999 17.0476L19.2164 16.6641Z" fill="#F5F8F9"/>
<path d="M15.9253 1.92969H4.85742V4.91192H15.9253C15.957 4.91193 15.9884 4.90569 16.0177 4.89355C16.047 4.88142 16.0736 4.86364 16.096 4.84122C16.1184 4.81879 16.1362 4.79217 16.1484 4.76288C16.1605 4.73358 16.1667 4.70218 16.1667 4.67047V2.17114C16.1667 2.13943 16.1605 2.10803 16.1484 2.07873C16.1362 2.04944 16.1184 2.02282 16.096 2.00039C16.0736 1.97797 16.047 1.96019 16.0177 1.94805C15.9884 1.93592 15.957 1.92968 15.9253 1.92969Z" fill="#5DE1C4"/>
<path d="M15.9253 1.92969H14.8507V3.35441C14.8507 3.38612 14.8444 3.41752 14.8323 3.44681C14.8202 3.47611 14.8024 3.50273 14.78 3.52515C14.7575 3.54758 14.7309 3.56536 14.7016 3.57749C14.6723 3.58962 14.6409 3.59587 14.6092 3.59586H4.85742V4.91192H15.9253C15.957 4.91193 15.9884 4.90569 16.0177 4.89355C16.047 4.88142 16.0736 4.86364 16.096 4.84122C16.1184 4.81879 16.1362 4.79217 16.1484 4.76288C16.1605 4.73358 16.1667 4.70218 16.1667 4.67047V2.17114C16.1667 2.13943 16.1605 2.10803 16.1484 2.07873C16.1362 2.04944 16.1184 2.02282 16.096 2.00039C16.0736 1.97797 16.047 1.96019 16.0177 1.94805C15.9884 1.93592 15.957 1.92968 15.9253 1.92969Z" fill="#0ED2B3"/>
<path d="M2.22266 4.67047V2.17114C2.22265 2.13943 2.22889 2.10803 2.24102 2.07873C2.25316 2.04944 2.27094 2.02282 2.29336 2.00039C2.31578 1.97797 2.3424 1.96019 2.3717 1.94805C2.401 1.93592 2.4324 1.92968 2.46411 1.92969H4.90405V4.91192H2.46411C2.40007 4.91192 2.33866 4.88648 2.29338 4.8412C2.2481 4.79592 2.22266 4.73451 2.22266 4.67047Z" fill="#0ED2B3"/>
<path d="M2.22266 3.60156V4.67617C2.22265 4.70788 2.22889 4.73928 2.24102 4.76858C2.25316 4.79788 2.27094 4.8245 2.29336 4.84692C2.31578 4.86934 2.3424 4.88713 2.3717 4.89926C2.401 4.91139 2.4324 4.91763 2.46411 4.91763H4.90405V3.60156H2.22266Z" fill="#0AB69F"/>
<path d="M8.86781 16.6797H2.96484C2.77064 16.6797 2.61328 16.5223 2.61328 16.3281C2.61328 16.1339 2.77064 15.9766 2.96484 15.9766H8.86781C9.06202 15.9766 9.21938 16.1339 9.21938 16.3281C9.21938 16.5223 9.06197 16.6797 8.86781 16.6797ZM8.86781 19.3377H2.96484C2.77064 19.3377 2.61328 19.1803 2.61328 18.9861C2.61328 18.7919 2.77064 18.6346 2.96484 18.6346H8.86781C9.06202 18.6346 9.21938 18.7919 9.21938 18.9861C9.21938 19.1803 9.06197 19.3377 8.86781 19.3377Z" fill="#B6C4CF"/>
<path d="M3.72458 8.47572C3.67841 8.47578 3.63267 8.46672 3.59 8.44905C3.54734 8.43139 3.50858 8.40547 3.47596 8.37279L2.71626 7.61308C2.65032 7.54715 2.61328 7.45773 2.61328 7.36448C2.61328 7.27124 2.65032 7.18181 2.71626 7.11588C2.78219 7.04995 2.87161 7.01291 2.96486 7.01291C3.0581 7.01291 3.14753 7.04995 3.21346 7.11588L3.72454 7.62701L4.65477 6.69672C4.7207 6.63079 4.81013 6.59375 4.90337 6.59375C4.99662 6.59375 5.08604 6.63079 5.15197 6.69672C5.21791 6.76266 5.25495 6.85208 5.25495 6.94533C5.25495 7.03857 5.21791 7.12799 5.15197 7.19393L3.97316 8.37274C3.94056 8.40544 3.90181 8.43137 3.85915 8.44905C3.81649 8.46672 3.77076 8.47579 3.72458 8.47572Z" fill="#5DE1C4"/>
<path d="M15.4229 7.97656H6.26562C6.07142 7.97656 5.91406 7.8192 5.91406 7.625C5.91406 7.4308 6.07142 7.27344 6.26562 7.27344H15.4229C15.6171 7.27344 15.7745 7.4308 15.7745 7.625C15.7745 7.8192 15.6171 7.97656 15.4229 7.97656Z" fill="#B6C4CF"/>
<path d="M3.72458 11.2257C3.67841 11.2257 3.63268 11.2167 3.59002 11.199C3.54736 11.1813 3.50861 11.1554 3.476 11.1227L2.7163 10.3631C2.68364 10.3304 2.65774 10.2917 2.64006 10.249C2.62239 10.2064 2.61329 10.1607 2.61328 10.1145C2.61328 10.0683 2.62237 10.0226 2.64004 9.97995C2.6577 9.9373 2.6836 9.89854 2.71625 9.8659C2.78218 9.79997 2.87159 9.76293 2.96482 9.76292C3.05805 9.76291 3.14747 9.79994 3.21341 9.86586L3.72453 10.3769L4.65482 9.4467C4.79211 9.3094 5.01472 9.30945 5.15197 9.44675C5.28922 9.58404 5.28927 9.80665 5.15192 9.9439L3.97311 11.1227C3.94052 11.1554 3.90178 11.1813 3.85913 11.199C3.81647 11.2166 3.77075 11.2257 3.72458 11.2257Z" fill="#5DE1C4"/>
<path d="M15.4229 10.7266H6.26562C6.07142 10.7266 5.91406 10.5692 5.91406 10.375C5.91406 10.1808 6.07142 10.0234 6.26562 10.0234H15.4229C15.6171 10.0234 15.7745 10.1808 15.7745 10.375C15.7745 10.5692 15.6171 10.7266 15.4229 10.7266Z" fill="#B6C4CF"/>
<path d="M3.72458 13.9835C3.67841 13.9836 3.63267 13.9745 3.59 13.9569C3.54734 13.9392 3.50858 13.9133 3.47596 13.8806L2.71626 13.1209C2.68361 13.0882 2.65771 13.0495 2.64004 13.0068C2.62237 12.9642 2.61328 12.9185 2.61328 12.8723C2.61328 12.8261 2.62237 12.7804 2.64004 12.7378C2.65771 12.6951 2.68361 12.6563 2.71626 12.6237C2.7489 12.591 2.78766 12.5651 2.83031 12.5475C2.87297 12.5298 2.91869 12.5207 2.96486 12.5207C3.01103 12.5207 3.05674 12.5298 3.0994 12.5475C3.14205 12.5651 3.18081 12.591 3.21346 12.6237L3.72454 13.1348L4.65477 12.2045C4.7207 12.1386 4.81013 12.1016 4.90337 12.1016C4.99662 12.1016 5.08604 12.1386 5.15197 12.2045C5.21791 12.2705 5.25495 12.3599 5.25495 12.4531C5.25495 12.5464 5.21791 12.6358 5.15197 12.7017L3.97316 13.8806C3.94056 13.9133 3.90181 13.9392 3.85915 13.9569C3.81649 13.9745 3.77076 13.9836 3.72458 13.9835Z" fill="#5DE1C4"/>
<path d="M11.2132 13.4844H6.26562C6.07142 13.4844 5.91406 13.327 5.91406 13.1328C5.91406 12.9386 6.07142 12.7812 6.26562 12.7812H11.2132C11.4074 12.7812 11.5648 12.9386 11.5648 13.1328C11.5648 13.327 11.4074 13.4844 11.2132 13.4844Z" fill="#B6C4CF"/>
</svg>
