<svg width="20" height="20" viewBox="0 0 20 20" fill="none" xmlns="http://www.w3.org/2000/svg">
<mask id="mask0_53017_85987" style="mask-type:alpha" maskUnits="userSpaceOnUse" x="1" y="1" width="18" height="18">
<rect x="1.66602" y="1.66602" width="16.6667" height="16.6667" fill="#1F515B"/>
</mask>
<g mask="url(#mask0_53017_85987)">
<path d="M15.5289 12.7407L14.4525 11.6643C14.9617 11.1897 15.361 10.6284 15.6504 9.98025C15.9397 9.3321 16.0844 8.64345 16.0844 7.91428C16.0844 7.18511 15.9397 6.50224 15.6504 5.86567C15.361 5.22909 14.9617 4.67354 14.4525 4.199L15.5289 3.08789C16.177 3.70132 16.6921 4.4247 17.074 5.25803C17.4559 6.09136 17.6469 6.97678 17.6469 7.91428C17.6469 8.85178 17.4559 9.7372 17.074 10.5705C16.6921 11.4039 16.177 12.1272 15.5289 12.7407ZM13.3066 10.5184L12.1955 9.40734C12.4039 9.21058 12.5717 8.98777 12.699 8.73893C12.8263 8.49009 12.89 8.21521 12.89 7.91428C12.89 7.61335 12.8263 7.33847 12.699 7.08963C12.5717 6.84078 12.4039 6.61798 12.1955 6.42122L13.3066 5.31011C13.677 5.64576 13.9664 6.03639 14.1747 6.48199C14.383 6.92759 14.4872 7.40502 14.4872 7.91428C14.4872 8.42354 14.383 8.90097 14.1747 9.34657C13.9664 9.79217 13.677 10.1828 13.3066 10.5184ZM7.9247 10.6921C7.16081 10.6921 6.50687 10.4201 5.96289 9.87609C5.41891 9.3321 5.14692 8.67817 5.14692 7.91428C5.14692 7.15039 5.41891 6.49646 5.96289 5.95247C6.50687 5.40849 7.16081 5.1365 7.9247 5.1365C8.68858 5.1365 9.34252 5.40849 9.8865 5.95247C10.4305 6.49646 10.7025 7.15039 10.7025 7.91428C10.7025 8.67817 10.4305 9.3321 9.8865 9.87609C9.34252 10.4201 8.68858 10.6921 7.9247 10.6921ZM2.36914 16.2476V14.3032C2.36914 13.9212 2.46752 13.5624 2.66428 13.2268C2.86104 12.8911 3.13303 12.6365 3.48025 12.4629C4.07053 12.162 4.73604 11.9073 5.47678 11.699C6.21752 11.4907 7.03349 11.3865 7.9247 11.3865C8.8159 11.3865 9.63187 11.4907 10.3726 11.699C11.1134 11.9073 11.7789 12.162 12.3691 12.4629C12.7164 12.6365 12.9884 12.8911 13.1851 13.2268C13.3819 13.5624 13.4803 13.9212 13.4803 14.3032V16.2476H2.36914ZM3.75803 14.8587H12.0914V14.3032C12.0914 14.1759 12.0595 14.0601 11.9959 13.9559C11.9322 13.8518 11.8483 13.7708 11.7441 13.7129C11.3275 13.5046 10.7922 13.2962 10.1382 13.0879C9.4843 12.8796 8.74646 12.7754 7.9247 12.7754C7.10294 12.7754 6.36509 12.8796 5.71115 13.0879C5.05722 13.2962 4.52192 13.5046 4.10525 13.7129C4.00109 13.7708 3.91717 13.8518 3.85352 13.9559C3.78986 14.0601 3.75803 14.1759 3.75803 14.3032V14.8587ZM7.9247 9.30317C8.30664 9.30317 8.63361 9.16717 8.9056 8.89518C9.17759 8.62319 9.31358 8.29622 9.31358 7.91428C9.31358 7.53234 9.17759 7.20537 8.9056 6.93338C8.63361 6.66139 8.30664 6.52539 7.9247 6.52539C7.54275 6.52539 7.21578 6.66139 6.94379 6.93338C6.6718 7.20537 6.53581 7.53234 6.53581 7.91428C6.53581 8.29622 6.6718 8.62319 6.94379 8.89518C7.21578 9.16717 7.54275 9.30317 7.9247 9.30317Z" fill="#44544A"/>
</g>
</svg>
