<svg width="56" height="60" viewBox="0 0 56 60" fill="none" xmlns="http://www.w3.org/2000/svg">
<path d="M42.4446 32.3515C42.5375 32.0417 42.4725 31.2455 42.8597 31.1123C43.1695 31.0008 43.0704 31.5615 43.0518 31.7102C42.9934 32.1736 42.8897 32.6302 42.742 33.0733C42.4322 34.046 41.2891 35.9482 42.6119 36.701C42.9217 36.8714 43.4483 36.8837 43.6156 37.24C43.8758 37.7945 43.0704 37.8596 42.7451 37.7481C42.3609 37.6056 42.045 37.5374 41.9241 38.0579C41.8715 38.2809 41.9241 38.8107 41.5896 38.8385C41.1527 38.8726 41.3758 38.0269 41.0381 38.1942C40.7005 38.3615 40.7097 39.9941 40.1087 39.6223C39.8237 39.4457 40.0127 39.0678 40.084 38.8354C40.2042 38.4563 40.2923 38.0677 40.3473 37.6737C40.4108 37.0615 40.4295 36.4454 40.4031 35.8305C40.4031 35.2542 40.5053 34.7524 40.5363 34.1824C40.6137 32.8626 40.6323 31.5398 40.7221 30.2201C40.7996 29.0708 40.9607 27.9276 41.0319 26.7783C41.1764 24.994 40.942 23.1992 40.3442 21.5118C39.6688 19.6221 39.3869 17.6735 39.105 15.7094C38.8926 14.4052 38.6134 13.1127 38.2686 11.837C38.0587 11.0212 37.6572 10.2671 37.0976 9.63748C36.5957 9.07366 35.9451 8.83202 35.4247 8.33016C34.6037 7.53709 34.2351 6.05628 33.0641 5.69072C33.047 5.68635 33.0289 5.6873 33.0124 5.69345C32.9958 5.6996 32.9815 5.71065 32.9714 5.72513C32.9613 5.73961 32.9559 5.75683 32.9558 5.77448C32.9558 5.79214 32.9611 5.80939 32.9711 5.82393C33.346 6.3227 33.9563 6.73472 33.9005 7.44105C33.899 7.4608 33.8903 7.47929 33.876 7.49301C33.8617 7.50672 33.8428 7.5147 33.8231 7.5154C33.6387 7.51318 33.4577 7.46528 33.2964 7.37599C32.4197 6.98565 31.3292 6.82456 30.3905 6.63869C29.3527 6.43113 26.7536 6.45901 26.5863 4.92553C26.4624 3.80408 27.6241 3.56864 28.4729 3.90941C28.4892 3.91576 28.507 3.91687 28.5239 3.91258C28.5408 3.9083 28.5559 3.89884 28.5672 3.88553C28.5785 3.87222 28.5853 3.85572 28.5867 3.83834C28.5882 3.82096 28.5841 3.80356 28.5752 3.78859C28.4936 3.66851 28.4382 3.53264 28.4124 3.38979C28.3866 3.24693 28.3911 3.10026 28.4255 2.95924C28.46 2.81822 28.5236 2.686 28.6124 2.57112C28.7011 2.45624 28.813 2.36125 28.9407 2.2923C29.6408 1.88027 30.6074 2.40692 31.258 2.67334C31.2766 2.68104 31.2974 2.6815 31.3163 2.67462C31.3352 2.66774 31.3509 2.65402 31.3602 2.63617C32.3701 0.981873 33.8385 2.78796 34.7679 2.94596C35.403 3.05748 36.3788 2.41002 37.2153 2.59279C38.219 2.80965 38.8572 3.3332 39.074 4.33693C39.0782 4.35524 39.0884 4.37162 39.103 4.38342C39.1176 4.39522 39.1358 4.40176 39.1546 4.40198C40.4371 4.44536 41.6515 4.24399 41.9768 5.76197C41.9813 5.78251 41.9933 5.80061 42.0105 5.81267C42.0278 5.82472 42.0489 5.82985 42.0697 5.82703C43.5567 5.64115 44.7432 7.87786 43.3987 8.81653C42.5375 9.41753 41.9923 8.28369 41.1713 8.55011C40.97 8.61207 40.6478 8.8599 40.8615 9.07366C40.9111 9.13252 41.0381 9.07366 41.1032 9.10774C41.1977 9.15166 41.2816 9.21563 41.3489 9.2952C41.4163 9.37477 41.4655 9.46804 41.4932 9.56855C41.5209 9.66905 41.5264 9.77437 41.5094 9.87722C41.4923 9.98006 41.4531 10.078 41.3944 10.1641C41.0846 10.6598 39.421 10.6474 39.8454 11.4931C40.1335 11.5272 39.96 11.0873 40.3194 11.0749C41.1218 11.0501 40.843 12.4349 40.6695 12.8098C40.3969 13.4015 39.9693 13.8847 39.8764 14.5477C39.799 15.096 40.0902 15.6629 40.1862 16.1958C40.3101 16.899 39.8392 18.3458 40.5889 18.7578C41.0598 19.018 42.0357 18.1878 42.2308 17.7479C42.2375 17.7334 42.2482 17.7211 42.2617 17.7125C42.2751 17.7039 42.2908 17.6994 42.3067 17.6994C42.3227 17.6994 42.3383 17.7039 42.3518 17.7125C42.3652 17.7211 42.3759 17.7334 42.3826 17.7479C42.5406 18.1444 42.2525 18.6772 41.8684 18.9251C41.8519 18.9349 41.8393 18.95 41.8327 18.968C41.8261 18.986 41.8259 19.0057 41.832 19.0238C41.8382 19.042 41.8504 19.0574 41.8666 19.0676C41.8828 19.0779 41.902 19.0822 41.921 19.08C41.9963 19.0613 42.075 19.0613 42.1503 19.08C42.364 19.1636 42.0419 19.3898 41.9334 19.4331C41.8002 19.4882 41.6559 19.5116 41.5121 19.5013C41.4935 19.5022 41.4757 19.5091 41.4613 19.5209C41.4469 19.5327 41.4367 19.5488 41.4322 19.5669C41.4277 19.5849 41.4291 19.604 41.4362 19.6212C41.4434 19.6384 41.4559 19.6528 41.4718 19.6624C41.7816 19.808 42.1503 19.8513 42.3578 20.1859C42.4663 20.3625 42.4973 20.7157 42.646 20.8768C42.6535 20.8843 42.6596 20.8932 42.6637 20.903C42.6678 20.9129 42.6699 20.9234 42.6699 20.9341C42.6699 20.9447 42.6678 20.9553 42.6637 20.9651C42.6596 20.975 42.6535 20.9839 42.646 20.9914C42.395 21.1989 41.9737 20.8953 41.7847 20.7188C41.4749 20.409 41.1651 20.5174 41.128 20.9604C41.1181 21.3693 41.2409 21.7703 41.478 22.1035C41.6856 22.2894 41.8436 22.1593 41.9799 21.9951C41.9902 21.9821 42.0042 21.9725 42.02 21.9674C42.0359 21.9624 42.0529 21.9622 42.0688 21.9668C42.0848 21.9715 42.099 21.9808 42.1096 21.9935C42.1203 22.0063 42.1269 22.022 42.1286 22.0385C42.2308 23.1104 42.7823 24.0645 42.6831 25.1798C42.6088 26.0255 42.2556 26.8217 42.1069 27.6581C41.9954 28.2777 42.2215 28.8756 42.3145 29.489C42.4038 30.0669 42.3923 30.656 42.2804 31.23C42.237 31.4717 42.1937 31.7133 42.141 31.9549C42.1069 32.1253 41.9892 32.4475 42.1007 32.6055C42.237 32.8812 42.4105 32.4692 42.4446 32.3515Z" fill="#839D8D"/>
<path d="M49.0401 48.8911C49.1409 48.9593 49.2187 49.0565 49.2631 49.1699C49.3127 49.4023 49.037 49.5045 48.9533 49.678C48.903 49.8173 48.8943 49.9683 48.9285 50.1124C48.9626 50.2566 49.038 50.3877 49.1454 50.4897C49.3148 50.6674 49.5247 50.8014 49.7573 50.8802C49.9899 50.959 50.2381 50.9802 50.4806 50.942C50.6851 50.942 51.1002 50.8893 51.1683 51.1526C51.2365 51.4159 50.8338 51.4066 50.6603 51.3788C50.6758 51.4159 50.7687 51.4841 50.7656 51.5213C50.7625 51.5584 50.6417 51.6235 50.5983 51.6421C50.3939 51.7412 50.3164 51.6421 50.115 51.608C50.115 51.6415 50.1259 51.6741 50.146 51.7009C50.1661 51.7278 50.1944 51.7473 50.2266 51.7567C50.0376 51.9921 49.5729 51.8032 49.4118 51.6328C49.4118 51.704 49.48 51.735 49.4118 51.7846C49.3437 51.8342 49.2631 51.7846 49.229 51.7536C49.2268 51.7928 49.2268 51.8321 49.229 51.8713C49.2507 51.9178 49.2879 51.9271 49.3251 51.955C49.4122 52.0102 49.5033 52.0589 49.5977 52.1006C50.0686 52.3453 50.5828 52.1501 51.0072 51.8961C51.1683 51.8032 51.4843 51.5863 51.4626 51.9457C51.4626 52.147 51.1869 52.2926 51.0227 52.3453C51.1559 52.305 51.506 52.2462 51.6144 52.3701C51.8437 52.6303 50.8802 52.6582 50.7594 52.6582C50.489 52.677 50.2173 52.6614 49.9508 52.6117C49.5866 52.5657 49.2384 52.434 48.9347 52.2276C48.6244 51.9866 48.3908 51.6608 48.2621 51.2896C48.1334 50.9184 48.1152 50.5178 48.2098 50.1365C48.3058 49.6966 48.6187 49.3372 48.69 48.8973C48.7179 48.7269 48.69 48.445 48.8511 48.3335C48.8235 48.4856 48.8475 48.6426 48.9192 48.7796C48.954 48.8223 48.9947 48.8599 49.0401 48.8911Z" fill="#839D8D"/>
<path d="M26.3601 48.0456C26.4313 47.7358 25.7188 47.426 25.6723 47.1317C25.8881 47.0647 26.0958 46.9743 26.2919 46.8622C26.3078 46.8508 26.3204 46.8354 26.3285 46.8176C26.3366 46.7999 26.3399 46.7802 26.338 46.7608C26.3361 46.7413 26.3291 46.7227 26.3178 46.7068C26.3064 46.6909 26.2911 46.6782 26.2733 46.6701C25.9636 46.5245 25.344 46.7259 25.0342 46.7445C24.5083 46.8078 23.975 46.7353 23.4852 46.5338C22.9451 46.3069 22.4459 45.9929 22.0075 45.6044C21.834 45.434 21.6543 45.2946 21.7535 45.0437C21.8266 44.884 21.9509 44.7532 22.1066 44.6719C22.4152 44.4982 22.7575 44.3925 23.1104 44.3622C23.5286 44.3095 23.2157 44.0524 22.9462 43.9935C22.5651 43.9068 22.0788 44.071 21.6884 44.0771C21.0193 44.0771 20.8427 43.6465 20.4492 43.1849C20.1649 42.7844 19.8151 42.4346 19.4145 42.1502C19.2259 42.0603 19.0202 42.0118 18.8112 42.008C18.6023 42.0043 18.395 42.0454 18.2032 42.1286C17.4504 42.5809 17.9895 43.9315 18.3798 44.4303C18.6 44.6369 18.7843 44.8788 18.9251 45.1459C18.9746 45.3941 18.9683 45.6502 18.9065 45.8956C18.8666 46.1926 18.8845 46.4945 18.9591 46.7847C19.0056 46.952 19.1016 47.4725 19.3681 47.4043C19.4517 47.1627 19.2751 46.9087 19.3681 46.6422C19.7553 45.6571 20.6754 46.3324 21.2919 46.6422C21.7704 46.8814 22.2821 47.0475 22.8099 47.1348C23.2405 47.1968 23.7083 47.0976 24.1234 47.237C24.5881 47.3919 24.8638 47.8009 25.282 48.0115C25.5082 48.1261 26.0968 48.4235 26.3074 48.1509C26.3331 48.1205 26.3511 48.0844 26.3601 48.0456Z" fill="#839D8D"/>
<path d="M31.0996 43.507L31.0284 43.6031C31.0028 43.5777 30.9683 43.5635 30.9323 43.5635C30.8963 43.5635 30.8618 43.5777 30.8363 43.6031C30.8952 43.6031 30.9354 43.6031 30.9478 43.6681C30.9819 43.7951 30.8208 43.8478 30.7495 43.9129C30.6414 44.014 30.5567 44.1378 30.5017 44.2753C30.4336 44.4581 30.5451 44.6192 30.7495 44.5572C30.954 44.4953 31.0593 44.1855 31.0377 43.9686C31.016 43.7518 31.1027 43.4606 31.2917 43.3955C31.2523 43.3936 31.2133 43.4031 31.1792 43.4229C31.1451 43.4427 31.1175 43.4719 31.0996 43.507Z" fill="#839D8D"/>
<path d="M32.1719 22.1593C32.2348 22.3201 32.3215 22.4704 32.429 22.6054C32.6428 22.8037 32.6645 22.8873 32.429 23.0701C32.0797 23.3508 31.6367 23.4881 31.1899 23.4543H31.0071C31.0251 23.5009 31.0458 23.5464 31.069 23.5906C31.1983 23.7903 31.3798 23.9509 31.594 24.0546C31.8081 24.1584 32.0465 24.2015 32.2834 24.1792C32.408 24.189 32.5331 24.1716 32.6503 24.1284C32.7675 24.0852 32.874 24.017 32.9623 23.9287C33.0506 23.8404 33.1188 23.7339 33.162 23.6167C33.2053 23.4995 33.2226 23.3743 33.2128 23.2498C33.2128 23.2095 33.25 23.1352 33.2686 23.1352C33.2949 23.1338 33.3213 23.1381 33.3458 23.1477C33.3704 23.1573 33.3926 23.1721 33.4111 23.1909C33.4451 23.2433 33.4702 23.3008 33.4854 23.3613C33.5598 23.5782 33.7116 23.6309 33.8974 23.4852C33.993 23.4114 34.0716 23.3179 34.1277 23.211C34.1839 23.104 34.2163 22.9863 34.2227 22.8657C34.2227 22.7015 34.1422 22.6209 33.978 22.6364C33.9284 22.6364 33.8758 22.6674 33.8355 22.655C33.7687 22.6314 33.7043 22.6013 33.6434 22.5652C33.6806 22.5156 33.7085 22.4474 33.758 22.4258C33.8374 22.3897 33.9069 22.3352 33.9608 22.2667C34.0147 22.1983 34.0514 22.1179 34.0678 22.0323C34.1045 21.8429 34.0993 21.6477 34.0524 21.4605C34.0055 21.2733 33.9181 21.0987 33.7964 20.949C33.6747 20.7992 33.5217 20.678 33.348 20.5938C33.1744 20.5096 32.9844 20.4645 32.7915 20.4617C32.7353 20.4728 32.6803 20.4894 32.6273 20.5112C32.6862 20.5763 32.7264 20.6197 32.7605 20.6661C32.9086 20.8554 33.015 21.0739 33.0726 21.3072C33.1303 21.5406 33.138 21.7834 33.0951 22.0199C33.0765 22.1407 33.0083 22.2771 32.8565 22.1748C32.6428 22.0137 32.4445 22.0881 32.1719 22.1593Z" fill="#839D8D"/>
<path d="M48.4454 36.738C48.656 36.5676 48.9131 36.3724 48.9441 36.1555C48.9937 35.7993 48.6343 36.0285 48.529 36.137C48.3562 36.3177 48.1731 36.4884 47.9807 36.6481C47.8041 36.7751 47.6089 36.5893 47.3921 36.7101C47.2217 36.803 47.2557 36.9548 47.1535 37.0756C47.0525 37.1649 46.9412 37.2419 46.822 37.3049C46.6733 37.4195 46.3233 37.6952 46.63 37.8439C46.8437 37.9492 47.0265 37.6952 47.1814 37.5961C47.2193 37.5692 47.2627 37.5512 47.3084 37.5434C47.4633 37.5434 47.5036 37.7448 47.5624 37.9245C47.7277 38.5102 47.7875 39.1207 47.739 39.7275C47.7719 40.0896 47.8257 40.4496 47.9001 40.8055C47.9255 41.1532 47.9088 41.5027 47.8506 41.8464C47.7587 42.2489 47.645 42.646 47.5098 43.036L47.1752 42.7882C46.8406 42.5342 46.5556 42.2058 46.0692 42.212C45.907 42.2311 45.7504 42.2836 45.6093 42.3661C45.4682 42.4486 45.3457 42.5593 45.2495 42.6913C45.1532 42.8234 45.0852 42.9739 45.0498 43.1334C45.0145 43.293 45.0124 43.4581 45.0438 43.6185C45.0641 43.7291 45.0641 43.8424 45.0438 43.953C45.0036 44.458 45.0779 44.5509 45.5519 44.5726C45.5519 44.8421 45.4187 44.9103 45.1708 44.9753C44.6897 45.0969 44.2225 45.2682 43.7768 45.4865C43.6579 45.5557 43.5254 45.5982 43.3884 45.611C43.2515 45.6239 43.1134 45.6067 42.9837 45.5609C42.5097 45.4029 42.0357 45.2511 41.5711 45.0683C41.2613 44.9568 41.001 44.7585 40.7005 44.6872C40.1398 44.5323 39.291 44.8143 39.1299 45.44C39.0339 45.8149 39.4954 45.7034 39.703 45.6166C39.9393 45.485 40.1835 45.3681 40.4341 45.2665C40.6512 45.2488 40.8683 45.3009 41.0537 45.4153C41.7043 45.6848 42.3796 45.8985 43.0271 46.1804C43.4232 46.3656 43.8746 46.3944 44.291 46.261C44.5975 46.1934 44.9079 46.1448 45.2204 46.1154C45.4311 46.0813 45.5767 46.1928 45.5829 46.3663C45.6036 46.8085 45.5932 47.2515 45.5519 47.6922C45.524 47.9648 45.3257 48.0268 45.0438 48.002C44.2601 47.9215 43.4732 47.8843 42.6863 47.8254C42.577 47.8076 42.4649 47.8289 42.3697 47.8856C42.2745 47.9422 42.2023 48.0306 42.1659 48.1352C41.949 48.7734 41.8158 49.994 41.2365 50.437C40.7625 50.8025 39.923 50.4556 39.356 50.7716C39.1144 50.9079 38.6249 51.3447 38.9409 51.6173C39.2569 51.8899 39.6906 51.3973 39.9415 51.3075C40.5611 51.0721 41.1528 51.7009 41.6826 51.261C42.1194 50.8986 42.203 50.2046 42.4292 49.7121C42.4372 49.6929 42.4465 49.6743 42.4571 49.6563C42.7978 49.0522 42.8009 49.0367 43.4918 49.1514C43.7303 49.1854 43.9596 49.2505 44.1919 49.3062C44.2702 49.3335 44.3468 49.3656 44.4211 49.4023C44.2722 49.5929 44.0993 49.7637 43.9069 49.9103C42.8164 50.5299 43.0426 51.2239 43.5258 52.1904C43.8169 52.7727 44.0734 53.3717 44.2941 53.9841C44.3467 54.1389 44.3422 54.3073 44.2814 54.459C44.2206 54.6107 44.1075 54.7356 43.9627 54.8113C43.677 54.9975 43.4596 55.2715 43.3431 55.5919C43.2904 55.7685 43.2161 56.3695 43.4701 56.447C43.6312 56.4934 43.7117 56.2704 43.7613 56.1589C43.8541 55.832 44.0429 55.5406 44.3034 55.3224C44.5606 55.1551 44.8889 55.0498 45.0314 54.7555C45.0693 54.643 45.0816 54.5235 45.0677 54.4057C45.0538 54.2878 45.0139 54.1745 44.9509 54.074C44.715 53.4685 44.5214 52.8475 44.3716 52.2152C44.3061 52.0758 44.295 51.917 44.3402 51.7699C44.3854 51.6227 44.4839 51.4976 44.6163 51.419C44.9757 51.2208 45.3505 51.0597 45.7192 50.88C45.9577 50.7623 46.3759 50.3688 46.6238 50.66C46.8096 50.8769 46.7477 51.2796 46.7942 51.5399C46.8752 52.0411 47.0844 52.513 47.4014 52.9097C47.7183 53.3065 48.1323 53.6147 48.6033 53.8044C49.7372 54.2134 51.0228 53.8044 52.1195 53.473C52.6957 53.3026 53.7428 53.0516 54.2633 53.473C54.4046 53.5932 54.5123 53.748 54.5758 53.9223C54.6393 54.0966 54.6565 54.2844 54.6257 54.4674C54.5235 55.1768 53.9411 55.8336 53.1914 55.7933C52.5718 55.7623 51.8221 55.276 52.3549 54.6378C52.5563 54.393 53.0303 54.3559 52.9745 54.7245C52.9466 54.8918 52.7205 54.802 52.8227 55.0715C52.925 55.341 53.2347 55.2233 53.3742 55.0498C54.0247 54.2381 52.6833 53.7394 52.0668 54.043C51.3047 54.4209 51.4132 55.5145 51.9863 55.9854C53.3958 57.1471 55.2887 55.9172 55.2918 54.2412C55.2918 53.0826 54.3624 52.4475 53.2719 52.5033C51.9088 52.5777 50.775 53.5535 49.3747 53.4606C47.9745 53.3676 47.2496 52.1378 47.2062 50.8831C47.2182 50.1725 47.4181 49.4778 47.7855 48.8694C48.2632 47.933 48.5825 46.9238 48.7304 45.883C48.7978 45.4823 48.781 45.0718 48.6808 44.6779C48.5041 43.9052 48.5041 43.1025 48.6808 42.3297C48.7835 41.6193 48.7296 40.895 48.5228 40.2076C48.3676 39.5957 48.2497 38.975 48.1696 38.3489C48.117 37.9864 47.9683 37.2212 48.2409 36.9083C48.402 36.7287 48.5693 36.6698 48.7613 36.8619C48.4887 36.9238 48.8543 37.5558 48.8543 37.7014C48.9565 37.4908 49.2601 36.9269 48.9317 36.7503C48.7768 36.6667 48.4887 36.7503 48.3741 36.5645" fill="#839D8D"/>
<path d="M11.5333 35.2417L11.428 35.3223C10.0432 36.3632 10.8766 36.8713 11.4807 38.1445C11.8927 39.0057 12.2923 40.4122 11.3443 41.0473C11.1387 40.7352 10.9966 40.3857 10.9261 40.0187C10.4862 38.5844 8.82883 39.6439 8.60888 38.5565C8.24022 39.0584 7.98929 39.6284 7.59895 40.1055C10.288 39.7709 10.8208 45.0126 8.8722 45.1334C9.02248 44.8703 9.08954 44.5679 9.06453 44.266C9.03953 43.964 8.92364 43.6767 8.73212 43.4419C8.54061 43.2072 8.28247 43.0359 7.9917 42.9508C7.70094 42.8656 7.39119 42.8705 7.10328 42.9649C4.26248 43.8292 4.8294 48.284 5.78047 50.2016C7.14665 52.9557 11.3567 51.416 10.796 48.473C10.5792 47.3237 9.55684 46.1588 8.31767 46.0628C7.49362 46.0008 6.80898 46.5616 6.45891 47.2648C6.28959 47.5982 6.19166 47.9633 6.17139 48.3367C6.15112 48.71 6.20895 49.0836 6.34119 49.4333C6.36598 49.4953 6.82137 50.2326 6.72534 50.2357C6.53636 50.2357 6.35978 49.9848 6.25445 49.8516C6.02122 49.5318 5.85723 49.1669 5.77296 48.7802C5.68868 48.3934 5.68596 47.9934 5.76498 47.6056C6.09336 46.2735 7.19932 45.499 8.55311 45.437C9.20077 45.4019 9.84344 45.5679 10.3931 45.9123C10.9427 46.2567 11.3723 46.7627 11.6232 47.3608C12.5525 49.5294 12.1002 52.0914 10.006 53.3615C9.03652 53.9273 7.91463 54.1764 6.79678 54.0742C5.67892 53.9721 4.6208 53.5236 3.76991 52.7915C2.20236 51.4253 1.56109 49.5542 1.08401 47.618C0.922918 46.9643 0.727749 46.3044 0.504698 45.6694C0.333814 45.0711 0.249315 44.4514 0.253765 43.8292C0.253765 43.569 0.383878 43.0485 0.0276168 42.9959C-0.0157542 42.4692 0.548069 41.3911 0.244472 40.9698C-0.235707 41.2145 0.129848 40.3316 0.185611 40.1767C0.318821 39.8267 0.783512 38.8942 0.616223 38.5379C0.507796 38.6092 0.424152 38.7176 0.306431 38.7269C0.238276 38.225 0.66579 37.5683 0.823784 37.0974C0.935309 36.7721 1.29157 36.2919 1.21722 35.9419C0.972485 35.9016 0.922917 36.1587 0.727748 36.2517C0.309528 35.8985 2.02268 33.7578 2.27671 33.4635C4.06422 31.4716 6.0252 30.2975 8.78236 30.1952C9.02709 30.1952 9.37096 30.1518 9.49488 29.9939C10.1826 29.0924 11.8555 29.5385 12.8437 29.396C13.2991 29.3309 13.739 29.1078 14.1913 29.0862C15.1021 29.049 15.1207 29.7367 15.604 30.3253C15.9138 30.6909 16.3258 30.8923 16.6449 31.1958C16.7416 31.2888 16.8171 31.4015 16.8662 31.5264C16.9152 31.6512 16.9366 31.7852 16.929 31.9192C16.9213 32.0531 16.8848 32.1838 16.8218 32.3022C16.7589 32.4207 16.6711 32.5241 16.5644 32.6054C16.1833 32.9307 15.5142 33.0608 15.0464 33.1847C14.5256 33.3055 14.0387 33.5416 13.6213 33.8756C13.3042 34.1836 12.9599 34.4625 12.5928 34.7089C12.2264 34.8589 11.8722 35.0371 11.5333 35.2417Z" fill="#839D8D"/>
<path d="M30.0775 35.5546C30.2014 35.5546 30.0527 35.8489 30.0217 35.8922C29.9249 36.0104 29.8123 36.1146 29.6871 36.202C29.2868 36.5364 28.9866 36.9749 28.8197 37.4691C28.6732 37.7909 28.6 38.1413 28.6053 38.4949C28.6107 38.8485 28.6945 39.1965 28.8507 39.5137C28.9986 39.8428 29.1825 40.1545 29.399 40.4431C29.5497 40.6189 29.6563 40.828 29.7102 41.0532C29.7641 41.2783 29.7636 41.5131 29.7088 41.738C29.5715 42.2793 29.5952 42.8488 29.777 43.3768C29.8326 43.5073 29.9125 43.6261 30.0124 43.7269C30.089 43.8114 30.1422 43.9145 30.1667 44.0259C30.1911 44.1373 30.186 44.2532 30.1518 44.362C30.1084 44.5509 29.9659 44.5633 29.842 44.427C29.5975 44.1419 29.371 43.8418 29.1636 43.5286C29.0799 43.369 29.0363 43.1915 29.0365 43.0113C29.0118 42.5962 29.0613 42.1717 28.9963 41.7721C28.8507 40.9941 28.4129 40.3013 27.7726 39.8359C27.373 39.5261 26.9578 39.2163 26.583 38.8755C26.3889 38.7148 26.2484 38.4986 26.1803 38.256C26.0099 37.435 25.4337 37.0571 24.7242 36.8061C23.925 36.5211 23.1164 36.264 22.3264 35.9666C21.4144 35.6544 20.5509 35.2154 19.7614 34.6624C19.34 34.3526 18.8939 34.0645 18.4138 33.733C18.3878 33.8608 18.3702 33.9901 18.3611 34.1202C18.343 34.4372 18.3482 34.7551 18.3766 35.0713C18.4254 35.254 18.5073 35.4262 18.6182 35.5794C18.6802 35.6971 18.801 35.7931 18.832 35.9139C18.8402 35.9702 18.8349 36.0277 18.8166 36.0815C18.7983 36.1354 18.7675 36.1841 18.7266 36.2237C18.6823 36.2427 18.6336 36.2495 18.5857 36.2435C18.5378 36.2375 18.4924 36.2189 18.454 36.1896C18.1651 35.8927 17.9077 35.5667 17.6857 35.2169C17.6145 35.008 17.6145 34.7814 17.6857 34.5725C17.7427 34.3729 17.7536 34.163 17.7176 33.9585C17.6817 33.7541 17.5998 33.5604 17.4782 33.3922C17.4287 33.3091 17.3964 33.217 17.3831 33.1212C17.3698 33.0255 17.3758 32.928 17.4007 32.8346C17.4449 32.7294 17.5274 32.6449 17.6315 32.5983C17.7356 32.5517 17.8536 32.5465 17.9615 32.5837C18.4138 32.6983 18.8568 32.8625 19.2998 33.0112C19.3505 33.0392 19.3983 33.0724 19.4423 33.1103C19.9596 33.4542 19.9472 33.4418 20.1796 32.8718C20.3906 32.3754 20.6295 31.8913 20.8952 31.4219C21.2021 30.7751 21.3527 30.0652 21.3351 29.3494C21.3351 29.2286 21.2081 29.0799 21.1028 28.9839C20.9672 28.8906 20.8177 28.8195 20.6598 28.7732C20.5451 28.7267 20.4119 28.7174 20.3004 28.6648C20.123 28.5358 19.9933 28.3517 19.9317 28.1412C19.8824 28.0238 19.8612 27.8965 19.8698 27.7695C19.885 27.7123 19.9183 27.6616 19.9646 27.6248C20.0109 27.588 20.0678 27.567 20.1269 27.565C20.1858 27.565 20.2075 27.6208 20.257 27.6394C20.3373 27.6569 20.4199 27.6622 20.5018 27.6549C20.844 27.6617 21.1857 27.6232 21.5179 27.5402C21.8258 27.4973 22.1378 27.4911 22.4473 27.5216C22.5898 27.5216 22.757 27.5836 22.8655 27.5216C23.0766 27.3898 23.2572 27.2145 23.3952 27.0074C23.5563 26.741 23.3549 26.205 23.0545 25.982C22.8004 25.793 22.5278 25.6257 22.2831 25.4243C22.0494 25.2395 21.8346 25.0319 21.6418 24.8048C21.5303 24.6716 21.4745 24.3618 21.6418 24.2409C21.8091 24.1201 21.8958 24.337 21.9268 24.4609C21.9466 24.6044 21.9873 24.7443 22.0476 24.876C22.1189 24.9999 22.2583 25.0774 22.3574 24.9194C22.4155 24.7012 22.4272 24.4732 22.3915 24.2502C22.3635 24.058 22.3848 23.8619 22.4535 23.6802C22.5123 23.5718 22.6176 23.4912 22.7106 23.6059C22.8035 23.7205 22.757 23.9157 22.7416 24.0396C22.7106 24.2678 22.7106 24.4991 22.7416 24.7273C22.7449 24.8346 22.7702 24.94 22.8159 25.0371C22.8758 25.0875 22.9439 25.1273 23.0173 25.1548C23.104 25.1982 23.1443 24.7366 23.1412 24.6901C23.1412 24.5352 23.1412 24.3803 23.3178 24.3215C23.4944 24.2626 23.5687 24.4485 23.5501 24.5879C23.514 24.7213 23.4653 24.851 23.4045 24.9751C23.3054 25.2633 23.5129 25.5204 23.6616 25.7527C23.8103 25.9851 23.9714 26.0161 24.0892 25.7961C24.1728 25.6505 24.2007 25.446 24.3989 25.3965C24.6499 25.3314 24.6902 25.6567 24.6158 25.824C24.5012 26.0811 24.1945 26.1802 24.0644 26.4188C23.9683 26.6016 23.8816 26.7936 23.798 26.9826C23.7484 27.0972 23.5687 27.3575 23.6028 27.4814C23.6369 27.6053 23.7484 27.5 23.8258 27.4628C23.9033 27.4256 24.0241 27.3853 24.1356 27.3482C24.1821 27.3296 24.1945 27.3017 24.2348 27.3482C24.3401 27.4535 24.1356 27.658 24.083 27.754C23.9942 27.9151 23.8549 28.0425 23.6864 28.1164C23.5625 28.1722 23.3952 28.3054 23.3766 28.4262C23.2679 29.2668 23.2069 30.1129 23.1939 30.9603C23.1939 32.184 23.8444 33.0855 24.8605 33.7485C25.6676 34.2953 26.564 34.6969 27.5093 34.935C28.2156 35.0992 28.6586 36.1463 29.5136 35.9573C29.6317 35.9284 29.7445 35.8814 29.8482 35.8179C29.8997 35.7862 29.9475 35.7488 29.9907 35.7064C30.0248 35.6692 30.0372 35.6041 30.0898 35.5917L30.0775 35.5546Z" fill="#839D8D"/>
<path d="M30.3877 42.116C30.4295 42.1559 30.4689 42.1983 30.5054 42.243C30.7161 42.5032 30.6015 42.8285 30.5984 43.1321C30.5953 43.4357 30.8586 43.3645 30.9267 43.0949C30.9635 42.9388 30.9582 42.7757 30.9114 42.6222C30.8646 42.4687 30.778 42.3304 30.6603 42.2213C30.5471 42.1365 30.4433 42.04 30.3505 41.9332C30.3103 41.8744 30.1863 41.6606 30.2421 41.5894C30.2067 41.627 30.1802 41.6722 30.1646 41.7216C30.149 41.7709 30.1448 41.8232 30.1523 41.8744C30.0973 41.8728 30.0436 41.891 30.001 41.9257C29.9583 41.9604 29.9296 42.0092 29.9199 42.0633C30.0376 41.8589 30.2359 41.9859 30.3877 42.116Z" fill="#839D8D"/>
<path d="M31.1031 0.0214207C30.8243 0.092673 30.4526 0.300234 30.2915 0.331213C29.8826 0.421053 29.2877 0.142239 28.978 0.526382C28.6031 0.216589 27.7388 -0.0932025 27.3453 0.386976C27.2152 0.54497 27.2524 0.641006 27.4755 0.662692C27.6118 0.678181 27.7419 0.54497 27.8751 0.526382C28.0637 0.512761 28.2513 0.562954 28.4079 0.668888C28.7177 0.842371 28.9594 1.0964 29.263 1.28847C29.5619 1.42967 29.8898 1.49864 30.2202 1.48984C30.3225 1.48984 30.815 1.43717 30.7964 1.2544C30.7964 1.18005 30.3472 1.2544 30.2512 1.22032C30.0839 1.18005 29.7555 1.08401 29.7184 0.876448C29.6688 0.606928 30.0498 0.668887 30.1954 0.712258C30.6415 0.848567 31.1806 0.975582 31.3788 0.445836C31.5337 0.0121266 31.3603 -0.0405379 31.1031 0.0214207Z" fill="#839D8D"/>
<path d="M36.3539 46.5121C36.2486 46.6299 36.4717 46.9304 36.5181 47.0357C36.6065 47.2291 36.68 47.429 36.7381 47.6336C36.8513 48.0259 36.8788 48.4379 36.8186 48.8418C36.6854 49.7247 34.9816 51.8932 33.9221 51.1033C33.5813 51.5958 33.1445 52.1194 32.5373 51.4533C32.2864 52.1411 31.4902 51.9428 31.041 51.5679C30.4988 52.361 29.6748 51.8034 29.0707 51.4967C28.6029 52.1163 28.5595 51.887 27.8501 51.6516C27.2522 51.4502 27.2305 51.9397 26.7473 51.9614C26.4994 51.9614 26.202 51.6516 25.9108 51.7321C25.6196 51.8127 25.5329 52.0915 25.251 52.1813C24.969 52.2712 24.7119 52.1813 24.4455 52.2557C24.1791 52.33 23.9281 52.5655 23.6091 52.615C22.9616 52.7359 22.4071 52.9496 21.7503 53.1324C20.7125 53.4422 19.8606 53.5599 18.9622 52.8226C18.7931 52.7141 18.6037 52.6414 18.4055 52.6089C18.2073 52.5764 18.0046 52.5848 17.8097 52.6336C17.2464 52.812 16.6518 52.8698 16.0646 52.803C15.4775 52.7363 14.911 52.5466 14.402 52.2464C13.897 51.9812 13.3335 51.847 12.7632 51.8561C12.6539 51.854 12.5453 51.8736 12.4436 51.9136C12.3419 51.9536 12.2491 52.0133 12.1705 52.0893C12.0919 52.1653 12.0291 52.2561 11.9857 52.3564C11.9423 52.4567 11.9191 52.5646 11.9175 52.6739C11.9145 52.7852 11.9383 52.8957 11.9868 52.9959C12.0353 53.0962 12.1072 53.1833 12.1963 53.2501C12.2583 53.309 12.8964 53.5971 12.8778 53.532C12.8646 53.4292 12.8646 53.3251 12.8778 53.2222C13.1876 53.1727 13.1226 53.5909 13.358 53.6033C13.3348 53.5312 13.3323 53.454 13.3509 53.3806C13.3696 53.3071 13.4085 53.2404 13.4633 53.1882C13.5129 53.3895 13.6399 53.7241 13.8537 53.7365C13.8359 53.6706 13.8365 53.601 13.8557 53.5354C13.8748 53.4698 13.9116 53.4108 13.9621 53.3647C14.2316 53.6188 14.3122 53.8759 14.6839 54.0184C15.0557 54.1609 15.4522 54.1547 15.8209 54.2941C16.3227 54.4862 16.8618 54.6039 17.3698 54.7402C17.4597 54.765 17.5526 54.7836 17.5929 54.9075C16.9049 55.0589 16.2072 55.1624 15.5049 55.2173C15.0774 55.2452 14.3989 55.5085 13.9869 55.3257C13.8692 55.2731 13.4045 54.5977 13.4324 55.208C13.4324 55.0779 12.8469 54.7 12.6827 54.8022C12.3946 54.9788 12.4131 55.8059 12.5742 56.0414C12.8361 56.3349 13.2013 56.5158 13.5935 56.5463C14.7459 56.695 15.9107 56.7229 17.06 56.8716C17.7602 56.9614 18.4324 57.2279 19.1295 57.3549C20.2509 57.5624 21.3816 57.7173 22.5062 57.9001C22.6387 57.9334 22.7691 57.9748 22.8965 58.024C22.1159 58.6436 20.9324 58.117 20.3996 59.1486L20.9015 59.2446L20.6289 59.5544C21.1338 60.174 21.6914 60.0656 22.3234 59.7248C22.9037 59.4103 23.5088 59.1441 24.1326 58.9286C24.6747 58.7397 24.9752 58.4453 24.9969 57.8691C25.0073 57.7788 25.0388 57.6922 25.0889 57.6163C25.1389 57.5405 25.2061 57.4774 25.285 57.4323C26.3363 57.1432 27.3916 56.8809 28.4511 56.6455C28.5557 56.619 28.6646 56.6141 28.7711 56.6311C28.8777 56.6482 28.9796 56.6868 29.0707 56.7446C29.4734 57.0977 29.334 57.454 28.8291 57.674C28.5536 57.8029 28.3158 58.0002 28.1382 58.2471C27.9771 58.4577 28.0949 58.5879 28.3334 58.7923C28.8693 59.2601 29.2628 58.9999 29.7244 58.752C30.0527 58.5755 30.3873 58.4082 30.7064 58.2099C30.7933 58.1724 30.8715 58.1172 30.9358 58.0477C31.0001 57.9782 31.0491 57.896 31.0798 57.8064C31.1104 57.7169 31.122 57.6219 31.1137 57.5276C31.1054 57.4332 31.0775 57.3417 31.0317 57.2588C30.9802 57.173 30.9473 57.0773 30.935 56.9779C30.9228 56.8785 30.9316 56.7777 30.9608 56.6819C30.99 56.5862 31.039 56.4976 31.1045 56.4219C31.1701 56.3463 31.2508 56.2852 31.3415 56.2427C32.4196 55.5395 33.51 54.827 34.6191 54.2012C35.7932 53.5506 36.9394 52.9032 37.6551 51.7012C38.7517 49.8424 38.3583 47.711 36.7071 46.6299C36.6327 46.5803 36.4624 46.4471 36.3973 46.509L36.3539 46.5121Z" fill="#839D8D"/>
<path d="M19.0243 28.383C18.9407 27.8099 18.4047 27.7634 18.0051 27.748L18.0578 27.7108C18.4946 27.3793 18.8694 26.5212 18.287 26.1618C18.1742 26.083 18.0351 26.0512 17.8992 26.0732C17.7633 26.0952 17.6413 26.1692 17.559 26.2795C17.4672 26.3967 17.394 26.5273 17.3422 26.6668C17.2957 26.7783 17.274 26.9766 17.1966 27.054C17.1067 26.9053 17.1098 26.704 16.9859 26.5491C16.8779 26.4151 16.7305 26.3187 16.5646 26.2733C16.3804 26.2297 16.1869 26.2487 16.0147 26.3272C15.8425 26.4057 15.7013 26.5394 15.6135 26.7071C15.5382 26.852 15.5108 27.017 15.5353 27.1785C15.5598 27.3399 15.6349 27.4894 15.7498 27.6055C15.8746 27.7424 16.0294 27.8484 16.2021 27.9152C15.8149 27.9834 15.4029 28.1879 15.6197 28.6619C15.655 28.7434 15.7105 28.8147 15.781 28.8689C15.8514 28.9231 15.9345 28.9584 16.0224 28.9716C16.2114 28.9995 16.642 28.8632 16.6978 28.6619C16.6549 28.7839 16.6414 28.9143 16.6583 29.0425C16.6752 29.1708 16.722 29.2932 16.795 29.4C16.868 29.5068 16.9651 29.5949 17.0784 29.6571C17.1918 29.7194 17.3182 29.7542 17.4475 29.7585C18.0671 29.7306 17.7573 29.0708 17.7046 28.7393C18.1011 29.2164 19.1482 29.204 19.0243 28.383ZM17.559 28.1228C17.401 28.4481 16.7628 28.3985 17.0293 27.9524C17.0557 27.9116 17.0893 27.8759 17.1284 27.8471C17.3514 27.686 17.7232 27.7851 17.559 28.1228Z" fill="#839D8D"/>
<path d="M17.6519 1.99486C17.6551 2.0358 17.647 2.07684 17.6284 2.11347C17.6098 2.15009 17.5815 2.18087 17.5465 2.20242C17.2518 2.40548 17.0053 2.67096 16.8247 2.98C16.7256 3.14729 16.7504 3.28979 16.9301 3.35175C17.1015 3.40373 17.2781 3.43697 17.4567 3.45088C17.9059 3.51284 18.3613 3.66774 17.8501 4.13862C17.6859 4.29042 16.7783 4.50108 16.9641 4.81087C17.1872 5.17643 18.0081 4.83256 18.321 4.75511C18.857 4.625 19.2287 4.07047 19.7709 4.00231C20.2657 3.96203 20.763 3.96203 21.2579 4.00231C21.368 4.01116 21.4749 4.04337 21.5716 4.09678C21.6683 4.1502 21.7525 4.2236 21.8186 4.31211C21.9637 4.49101 22.1469 4.63528 22.3548 4.73442C22.5628 4.83357 22.7902 4.88509 23.0206 4.88522C23.383 4.90381 24.0739 4.48249 24.2226 5.08349C24.2505 5.19811 24.1327 5.47383 24.2412 5.56367C24.4549 5.73715 24.6377 5.25388 24.6594 5.10208C24.6737 4.93602 24.6447 4.76908 24.5752 4.61759C24.5057 4.46609 24.3981 4.33522 24.2628 4.23776C24.0243 4.06427 23.6433 3.98682 23.5596 3.67084C23.6822 3.70418 23.8103 3.71204 23.9361 3.69393C24.0618 3.67581 24.1825 3.6321 24.2907 3.56551C24.3434 3.52523 24.4023 3.43849 24.4611 3.4292C24.5166 3.4393 24.5714 3.45274 24.6253 3.46947C24.7296 3.47533 24.8329 3.44706 24.9196 3.38892C25.0187 3.34555 25.1303 3.38892 25.2294 3.38892C25.3463 3.38536 25.4612 3.35795 25.5671 3.30838C25.7791 3.21704 25.9508 3.05195 26.0504 2.84369C26.1171 2.91205 26.198 2.96495 26.2874 2.99867C26.3768 3.03239 26.4724 3.04611 26.5677 3.03886C26.7567 3.03886 26.9116 2.89016 27.082 2.87157C27.1222 3.07294 27.4506 3.11011 27.6117 3.06364C27.6913 3.02651 27.7581 2.96673 27.8038 2.89178C27.8496 2.81684 27.8722 2.73006 27.8688 2.64232C27.8739 2.54663 27.8603 2.45085 27.8286 2.36041C27.7389 2.12748 27.5866 1.92381 27.3887 1.77181C27.0284 1.50142 26.5986 1.33917 26.1495 1.30402C25.5793 1.23903 25.0045 1.37725 24.5262 1.69436C23.8291 2.17763 23.4109 2.74456 22.4908 2.43166C22.3373 2.3947 22.1807 2.37189 22.023 2.36351C21.2176 2.25198 20.4214 2.41927 19.6191 2.43786C19.3962 2.45247 19.1724 2.43894 18.953 2.39759C18.7177 2.34488 18.5026 2.22549 18.3334 2.05372C18.274 2.0014 18.2265 1.93697 18.194 1.86474C18.1382 1.68197 18.1599 1.20798 17.8842 1.52707C17.7536 1.65044 17.6713 1.81627 17.6519 1.99486Z" fill="#839D8D"/>
<path d="M33.3492 50.2945C33.2935 50.4525 33.8604 50.4773 33.9316 50.4494C34.0292 50.3978 34.1147 50.3262 34.1825 50.2391C34.2503 50.1521 34.2989 50.0517 34.3251 49.9445C34.8083 50.53 35.431 49.7617 35.2978 49.2041C35.6727 49.2041 35.9174 49.1483 36.0351 48.7611C36.1343 48.4513 36.1126 48.0454 35.8338 47.875C36.0816 47.6644 35.9205 47.1037 35.5456 47.1749C35.1708 47.2462 34.6163 48.4575 34.387 48.7796C34.1859 49.0839 33.9381 49.3547 33.6528 49.582C33.4638 49.7214 32.2216 50.1768 32.6584 50.5609C32.8659 50.753 33.2718 50.5114 33.3492 50.2945Z" fill="#839D8D"/>
<path d="M17.9122 28.9746C18.0175 29.3216 18.2994 29.6376 18.3831 30.0341C18.4487 30.3896 18.4381 30.7549 18.3521 31.106C18.3118 31.326 17.968 32.3049 18.5256 32.1841C18.6867 31.8743 18.4388 31.295 18.7331 31.0502C19.0274 30.8055 19.4735 30.8985 19.7617 30.6599C19.9807 30.4539 20.1383 30.1912 20.2171 29.9009C20.068 29.7555 19.8721 29.6678 19.6644 29.6536C19.4566 29.6394 19.2506 29.6996 19.0832 29.8235C18.7951 30.0527 18.7486 30.378 18.6278 30.6971C18.5937 30.2045 18.6278 29.7677 18.3676 29.3216C18.2863 29.1791 18.1815 29.0514 18.0578 28.9437C17.9432 28.8321 17.6086 28.7795 17.9122 28.9746Z" fill="#839D8D"/>
<path d="M39.1978 46.6886C38.3954 47.5467 38.699 50.1676 40.6011 49.548C41.9766 49.0988 41.4159 47.1378 40.3285 46.5926C39.8204 46.3385 39.4456 46.4222 39.1978 46.6886Z" fill="#839D8D"/>
<path d="M44.7742 36.9455C44.4861 37.0756 44.4644 37.4009 44.3777 37.8005C44.2568 38.4201 44.1546 38.5378 43.5815 38.4201C43.0951 38.321 42.5654 38.1506 42.4012 38.7733C42.1719 39.6531 42.8132 39.5632 43.3956 39.8173C44.4303 40.2727 43.0858 41.4065 44.0369 41.8371C44.39 41.9982 44.7618 42.1252 45.0654 41.8371C45.369 41.549 45.211 41.0038 45.4681 40.7312C45.9266 40.251 46.7538 41.1029 47.0543 40.3284C47.1503 40.0837 47.2339 39.5385 47.0543 39.3123C46.7631 38.9344 46.1559 39.2658 45.8368 38.8445C45.5177 38.4232 46.1466 37.8098 46.0784 37.3513C46.0103 36.8928 45.1552 36.772 44.7742 36.9455Z" fill="#839D8D"/>
<path d="M20.2852 5.14235C20.2804 5.14957 20.274 5.15557 20.2664 5.15987C20.2589 5.16417 20.2505 5.16666 20.2418 5.16714C20.1954 5.16714 20.1365 5.12067 20.0931 5.10518C19.5324 4.9255 19.1266 5.30035 19.0212 5.86107C18.9159 6.4218 19.0646 7.10024 19.6222 7.39145L19.678 7.41933C19.7286 7.44066 19.7839 7.44818 19.8383 7.4411C19.8928 7.43402 19.9444 7.41261 19.9878 7.37906C20.1396 7.29231 20.1737 7.34188 20.2976 7.42862C20.4277 7.49386 20.5753 7.51553 20.7187 7.49042C20.8621 7.46532 20.9936 7.39478 21.0938 7.28922C21.2685 7.15695 21.4139 6.98977 21.5205 6.79831C21.6272 6.60684 21.6929 6.39527 21.7133 6.17706C21.7408 5.95124 21.6964 5.7225 21.5863 5.5234C21.4857 5.36163 21.3273 5.24422 21.1433 5.19502C21.0644 5.17209 20.9835 5.15653 20.9017 5.14855C20.8521 5.14855 20.691 5.20741 20.7499 5.10518C20.7856 5.06165 20.8239 5.02027 20.8645 4.98126C20.9265 4.90381 20.9822 4.79848 20.8645 4.7644C20.8087 4.75772 20.7523 4.77207 20.7065 4.80468C20.66 4.83256 20.6229 4.89452 20.5826 4.9193C20.5423 4.94408 20.5609 4.94099 20.5361 4.89761C20.5242 4.87007 20.5169 4.84077 20.5144 4.81087C20.5031 4.7104 20.4737 4.61279 20.4277 4.52277C20.3564 4.40814 20.1179 4.23776 20.0343 4.43293C19.9506 4.6281 20.1055 4.79848 20.2139 4.94408C20.2294 4.99365 20.3193 5.09278 20.2852 5.14235Z" fill="#839D8D"/>
<path d="M9.43611 47.1347C9.24718 46.967 9.01634 46.8537 8.76813 46.8068C8.51992 46.7599 8.26364 46.7811 8.02655 46.8683C7.7414 46.9472 7.47966 47.0941 7.26382 47.2965C7.04797 47.4988 6.88448 47.7505 6.78738 48.03C6.68907 48.3433 6.67836 48.6776 6.7564 48.9966C6.82606 49.2589 6.95662 49.5011 7.13749 49.7035C7.31835 49.9059 7.54441 50.0628 7.7973 50.1614C8.06631 50.2465 8.35117 50.2692 8.63028 50.2279C8.90939 50.1866 9.17542 50.0823 9.40822 49.9228C9.60929 49.7627 9.77145 49.5591 9.88252 49.3273C9.99359 49.0955 10.0507 48.8416 10.0495 48.5845C10.0495 48.5597 10.0495 48.5381 10.0495 48.5133C10.0493 48.2534 9.99463 47.9964 9.88898 47.759C9.78332 47.5215 9.62905 47.3088 9.43611 47.1347ZM9.34627 48.0641C9.29174 48.1915 9.21037 48.3056 9.10772 48.3987C8.92185 48.6062 8.74217 48.8293 8.5439 49.0182C8.4812 49.1023 8.39662 49.1676 8.29939 49.2069C8.20216 49.2462 8.096 49.2581 7.99247 49.2413C7.91047 49.2146 7.83536 49.1702 7.77252 49.1112C7.62691 48.9749 7.40696 48.6217 7.63621 48.4575C7.7973 48.3429 7.92741 48.6527 8.04514 48.7146C8.57798 48.9904 8.70499 47.5715 9.17898 47.8224C9.26262 47.872 9.36485 47.9526 9.34627 48.0548V48.0641Z" fill="#839D8D"/>
<path d="M44.4366 32.1873C44.3943 32.41 44.33 32.6279 44.2445 32.8379C44.1399 33.0628 44.088 33.3086 44.0927 33.5566C44.0618 33.7265 44.0161 33.8934 43.9564 34.0554C43.9289 34.1471 43.9122 34.2417 43.9068 34.3373C43.8904 34.7581 43.7382 35.1624 43.4731 35.4897C43.4078 35.5751 43.3207 35.6415 43.221 35.6818C43.1213 35.7221 43.0125 35.735 42.9062 35.7189C42.8597 35.7189 42.7854 35.6663 42.7823 35.6353C42.7793 35.5655 42.8 35.4967 42.8411 35.4401C42.9067 35.3816 42.9772 35.3287 43.0518 35.2821C43.136 35.2202 43.2068 35.1419 43.26 35.0519C43.3132 34.962 43.3478 34.8622 43.3616 34.7586C43.4014 34.4673 43.4806 34.1828 43.597 33.9129C43.6336 33.7934 43.6513 33.6691 43.6497 33.5442C43.6497 33.3955 43.6497 33.2344 43.6745 33.0919C43.6962 32.875 43.7271 32.6582 43.7581 32.4444C43.7751 32.3392 43.801 32.2355 43.8356 32.1346C43.9025 31.7951 43.9233 31.4481 43.8975 31.103C43.8975 30.8459 43.9347 30.5888 43.9564 30.3317C44.0012 30.0489 43.9625 29.7593 43.8449 29.4983C43.7211 29.2655 43.5856 29.039 43.439 28.8199C43.3685 28.7127 43.331 28.5872 43.331 28.459C43.331 28.3307 43.3685 28.2052 43.439 28.098C43.6239 27.737 43.6744 27.3219 43.5815 26.927C43.527 26.1018 43.527 25.2739 43.5815 24.4487C43.5366 23.8594 43.5459 23.2673 43.6094 22.6798C43.7178 22.0974 44.0214 21.5521 43.9657 20.9418C43.9378 20.7099 43.8549 20.4879 43.724 20.2944C43.6342 20.1488 43.5598 19.9846 43.4669 19.8514C43.4248 19.7997 43.369 19.7611 43.3058 19.7398C43.1355 19.6922 42.9792 19.604 42.8504 19.4827C42.8213 19.4549 42.8003 19.4197 42.7898 19.3809C42.7793 19.342 42.7797 19.301 42.7909 19.2624C42.8021 19.2237 42.8236 19.1889 42.8533 19.1616C42.8829 19.1344 42.9194 19.1158 42.9588 19.1079C43.0372 19.0888 43.1188 19.0869 43.198 19.1024C43.2771 19.118 43.352 19.1505 43.4173 19.1977C43.6945 19.3752 44.0176 19.4678 44.3467 19.4641C44.472 19.4817 44.5894 19.5355 44.6844 19.619C44.7558 19.6798 44.8434 19.7183 44.9364 19.7299C45.0295 19.7415 45.1238 19.7255 45.2079 19.6841C45.3164 19.6438 45.2885 19.5911 45.3504 19.5075C45.3751 19.4722 45.4128 19.4481 45.4552 19.4405C45.4976 19.433 45.5413 19.4426 45.5766 19.4672C45.6119 19.4919 45.636 19.5295 45.6436 19.572C45.6511 19.6144 45.6415 19.658 45.6169 19.6934C45.5456 19.8049 45.3659 19.7584 45.3071 19.8638C45.2482 19.9691 45.4093 20.1395 45.4929 20.2045C45.5778 20.2628 45.6782 20.2941 45.7811 20.2944C45.8647 20.2944 45.97 20.2572 46.0289 20.347C46.0411 20.3685 46.0483 20.3925 46.05 20.4172C46.0516 20.4418 46.0477 20.4666 46.0385 20.4895C46.0292 20.5124 46.0149 20.533 45.9966 20.5496C45.9784 20.5662 45.9566 20.5785 45.9329 20.5856C45.7965 20.6289 45.6231 20.4926 45.462 20.4771C45.0964 20.44 44.9198 20.5763 44.8703 20.9325C44.8114 21.3415 44.7525 21.7473 44.7216 22.1562C44.6607 23.0027 44.6773 23.853 44.7711 24.6965C44.7648 25.0602 44.8312 25.4214 44.9663 25.7591C45.115 26.0162 45.3597 26.1278 45.4991 26.4376C45.656 26.8503 45.8846 27.2321 46.1745 27.5652C46.3951 27.7851 46.6588 27.957 46.949 28.0702C47.5247 28.2899 48.0451 28.6336 48.4732 29.077C48.6291 29.281 48.7352 29.5186 48.7829 29.7709C48.8754 30.1914 48.9262 30.6199 48.9347 31.0504C48.9612 31.2982 49.0015 31.5444 49.0556 31.7877C49.0556 31.7877 49.0556 31.8249 49.0773 31.831C49.1563 31.8974 49.2169 31.983 49.2532 32.0796C49.2896 32.1762 49.3005 32.2805 49.2848 32.3825C49.2848 32.6427 49.2848 32.906 49.2848 33.1663C49.288 33.2071 49.2794 33.2479 49.26 33.284C49.2352 33.3212 49.1919 33.3707 49.1547 33.3707C49.1175 33.3707 49.0649 33.3304 49.0401 33.2933C49.0101 33.2411 48.9921 33.1829 48.9874 33.1229C48.9533 32.8689 48.9316 32.6179 48.9007 32.3639C48.8728 32.1656 48.8449 31.9674 48.8139 31.7691C48.7829 31.5708 48.7365 31.3973 48.7117 31.2115C48.6497 30.7623 48.6002 30.3162 48.5413 29.867C48.5413 29.8267 48.5041 29.7926 48.4855 29.7523C48.4639 29.7926 48.4267 29.8267 48.4205 29.867C48.3771 30.2046 48.3307 30.5392 48.2997 30.8769C48.2577 31.2146 48.3227 31.557 48.4855 31.8558C48.5475 31.9674 48.6466 32.0572 48.7179 32.1656C48.7473 32.2165 48.7633 32.2741 48.7644 32.3329C48.7835 32.7961 48.7669 33.2601 48.7148 33.7208C48.673 34.1387 48.6544 34.5586 48.659 34.9785C48.654 35.0831 48.6264 35.1854 48.5781 35.2783C48.5299 35.3712 48.462 35.4525 48.3793 35.5167C48.2966 35.5809 48.2009 35.6264 48.0989 35.65C47.997 35.6737 47.8911 35.675 47.7885 35.6539C47.7543 35.6435 47.7219 35.6278 47.6925 35.6074C47.581 35.5269 47.581 35.4773 47.708 35.4308C47.8771 35.3679 48.0228 35.2545 48.1253 35.106C48.2279 34.9575 48.2822 34.7811 48.2811 34.6006C48.2997 34.3868 48.3028 34.1731 48.3028 33.9593C48.3028 33.6495 48.2842 33.3057 48.3028 32.9804C48.3102 32.7782 48.2515 32.5792 48.1355 32.4135L47.8536 31.9983H47.8195C47.8252 32.0722 47.8356 32.1457 47.8505 32.2183C47.8814 32.3329 47.9279 32.4475 47.9558 32.5622C48.0001 32.8907 47.9157 33.2237 47.7204 33.4915C47.5128 33.8664 47.3145 34.2474 47.1318 34.6378C47.0508 34.8402 46.9815 35.047 46.9242 35.2574C46.8991 35.3352 46.8587 35.4074 46.8056 35.4696C46.7524 35.5318 46.6874 35.5829 46.6144 35.6198C46.4206 35.7157 46.2197 35.7965 46.0134 35.8615C45.9951 35.871 45.9751 35.8769 45.9546 35.8786C45.9341 35.8804 45.9134 35.878 45.8937 35.8717C45.8741 35.8653 45.856 35.8551 45.8403 35.8417C45.8247 35.8282 45.8119 35.8118 45.8027 35.7933C45.7594 35.6942 45.8275 35.6322 45.8926 35.5795C46.0196 35.4742 46.1435 35.3658 46.2767 35.2697C46.4333 35.1431 46.5523 34.9759 46.6206 34.7865C46.7259 34.5603 46.8374 34.3404 46.9459 34.1173C47.2031 33.6583 47.3174 33.133 47.2743 32.6086C47.2559 32.4939 47.2215 32.3823 47.172 32.2772C47.045 31.9921 46.9087 31.7102 46.7724 31.4283C46.7166 31.3137 46.6392 31.2084 46.5865 31.0937C46.5255 30.9637 46.4747 30.829 46.4347 30.691C46.3944 30.5392 46.3232 30.468 46.1714 30.4958C45.783 30.545 45.389 30.5272 45.0066 30.4432C44.9353 30.4432 44.8827 30.4432 44.8796 30.5237C44.8625 30.6842 44.8563 30.8457 44.861 31.007C44.8759 31.225 44.9017 31.4421 44.9384 31.6576C45.0004 32.0247 45.0004 32.3995 44.9384 32.7666C44.9141 33.0885 44.9445 33.4122 45.0283 33.7239C45.1117 34.0768 45.1399 34.4404 45.1119 34.802C45.0744 34.915 45.0256 35.024 44.9663 35.1272C44.9346 35.1992 44.9239 35.2787 44.9353 35.3565C44.9601 35.499 44.9353 35.5981 44.7773 35.6229C44.6457 35.6399 44.5124 35.6399 44.3808 35.6229C44.35 35.6131 44.3219 35.5962 44.2988 35.5736C44.2756 35.551 44.2581 35.5234 44.2476 35.4928C44.2476 35.4556 44.3002 35.3782 44.3467 35.3534C44.4749 35.2883 44.5742 35.1779 44.6255 35.0436C44.6974 34.8944 44.7264 34.7281 44.7092 34.5634C44.6999 34.45 44.6999 34.336 44.7092 34.2226C44.7088 33.7715 44.6536 33.3222 44.545 32.8843C44.5202 32.7294 44.4954 32.5745 44.4675 32.4197C44.4737 32.3391 44.4551 32.2648 44.4366 32.1873Z" fill="#839D8D"/>
<path d="M41.4129 43.8758C41.1026 43.8214 40.8155 43.6762 40.5878 43.4585C40.3601 43.2409 40.2021 42.9606 40.1337 42.6531C40.0653 42.3456 40.0896 42.0247 40.2037 41.7311C40.3177 41.4375 40.5162 41.1842 40.7742 41.0035C41.0321 40.8227 41.3379 40.7224 41.6528 40.7155C41.9677 40.7085 42.2776 40.7951 42.5433 40.9643C42.809 41.1335 43.0186 41.3777 43.1455 41.666C43.2724 41.9543 43.3109 42.2738 43.2562 42.584C43.1829 42.9996 42.9476 43.3692 42.6019 43.6114C42.2563 43.8536 41.8286 43.9487 41.4129 43.8758ZM41.8249 41.5276C41.6717 41.5018 41.5142 41.5218 41.3723 41.585C41.2303 41.6483 41.1102 41.752 41.0269 41.8832C40.9436 42.0144 40.9008 42.1672 40.904 42.3226C40.9071 42.478 40.956 42.629 41.0446 42.7567C41.1331 42.8844 41.2574 42.9832 41.4018 43.0406C41.5462 43.0981 41.7043 43.1116 41.8564 43.0796C42.0085 43.0476 42.1478 42.9715 42.2568 42.8607C42.3658 42.75 42.4397 42.6095 42.4693 42.457C42.4889 42.3535 42.4878 42.2472 42.4659 42.1443C42.444 42.0413 42.4019 41.9437 42.3419 41.8572C42.2819 41.7707 42.2053 41.697 42.1165 41.6404C42.0278 41.5838 41.9287 41.5455 41.8249 41.5276Z" fill="#839D8D"/>
<path d="M42.9835 44.7741C42.8796 44.7553 42.7872 44.6963 42.7264 44.61L42.0634 43.6651C42.0123 43.5779 41.9958 43.4746 42.0172 43.3759C42.0387 43.2771 42.0965 43.19 42.1792 43.1318C42.2619 43.0737 42.3635 43.0488 42.4637 43.0621C42.5639 43.0754 42.6555 43.1258 42.7202 43.2035L43.38 44.1484C43.4104 44.1913 43.432 44.2397 43.4436 44.291C43.4552 44.3423 43.4566 44.3953 43.4477 44.4471C43.4388 44.4989 43.4197 44.5484 43.3916 44.5929C43.3635 44.6373 43.327 44.6757 43.284 44.706C43.1965 44.767 43.0887 44.7915 42.9835 44.7741Z" fill="#839D8D"/>
<path d="M42.0012 16.2732C41.9579 16.2062 41.9321 16.1294 41.9262 16.0498C41.9202 15.9703 41.9343 15.8905 41.9672 15.8178C41.9837 15.7915 41.9972 15.7634 42.0074 15.7341C42.0121 15.693 42.0121 15.6514 42.0074 15.6102H41.9021L41.9857 15.5049C42.0363 15.451 42.0746 15.3869 42.0981 15.3168C42.1217 15.2468 42.1298 15.1725 42.1221 15.0991C42.1174 15.0797 42.1174 15.0595 42.1221 15.0402C42.1569 14.7798 42.1081 14.5151 41.9826 14.2843C41.9499 14.1835 41.9271 14.0797 41.9145 13.9745C41.899 13.8599 41.8525 13.7793 41.7844 13.7731C41.7162 13.7669 41.6481 13.8351 41.6295 13.9528C41.5915 14.1772 41.5687 14.4038 41.5613 14.6313C41.5469 15.2297 41.4952 15.8267 41.4064 16.4188C41.3755 16.6604 41.36 16.9082 41.3135 17.1468C41.267 17.358 41.2038 17.5652 41.1245 17.7664C41.1036 17.8317 41.0674 17.8911 41.0189 17.9396C40.9704 17.9881 40.911 18.0243 40.8457 18.0452C40.697 18.0948 40.5948 18.0049 40.635 17.8531C40.6574 17.7617 40.6951 17.6748 40.7466 17.596C40.9991 17.2094 41.1435 16.7623 41.1648 16.301C41.2051 15.9572 41.2484 15.6102 41.2825 15.2632C41.3207 14.9052 41.328 14.5445 41.3042 14.1852C41.2675 13.8824 41.2931 13.5754 41.3794 13.2829C41.4657 12.9905 41.6109 12.7187 41.8061 12.4844C42.0131 12.2006 42.2782 11.9641 42.5836 11.7905C42.7974 11.6851 43.0266 11.6108 43.2497 11.5271C43.3364 11.4931 43.4294 11.4683 43.5161 11.4342C43.5637 11.4184 43.6087 11.3954 43.6493 11.3661C43.6821 11.3418 43.7062 11.3075 43.7179 11.2684C43.7297 11.2294 43.7284 11.1875 43.7144 11.1492C43.7039 11.1138 43.6815 11.0831 43.651 11.0623C43.6206 11.0414 43.5839 11.0316 43.5471 11.0346C43.4076 11.0249 43.2684 11.0573 43.1475 11.1275C42.8934 11.2762 42.8377 11.2638 42.6301 11.0377C42.5775 10.9757 42.5279 10.9138 42.4721 10.8549C42.4504 10.8367 42.4362 10.8112 42.4322 10.7832C42.4282 10.7551 42.4347 10.7266 42.4504 10.7031C42.4875 10.645 42.5216 10.585 42.5527 10.5234C42.5757 10.4865 42.5835 10.4421 42.5744 10.3995C42.5523 10.3567 42.5432 10.3085 42.5482 10.2606C42.5532 10.2127 42.5719 10.1673 42.6022 10.13C42.6771 10.0294 42.7124 9.90481 42.7014 9.77991C42.7042 9.75571 42.7094 9.73185 42.7169 9.70866L42.7788 9.76752C42.8133 9.7903 42.8537 9.80245 42.895 9.80245C42.9363 9.80245 42.9767 9.7903 43.0112 9.76752C43.0649 9.73684 43.1236 9.71586 43.1846 9.70556C43.2275 9.69401 43.2674 9.67337 43.3016 9.64504C43.3358 9.61671 43.3636 9.58135 43.3829 9.54137C43.4789 9.3524 43.5316 9.3462 43.64 9.52588C43.6872 9.59793 43.7497 9.65863 43.823 9.70363C43.8964 9.74863 43.9789 9.77679 44.0645 9.78611C44.334 9.84187 44.6004 9.91003 44.8637 9.98747C44.9489 10.0189 45.0261 10.0686 45.0899 10.1331C45.2169 10.2508 45.3284 10.384 45.4585 10.4986C45.5615 10.5885 45.6453 10.6981 45.7049 10.8211C45.7645 10.944 45.7987 11.0778 45.8055 11.2143C45.8365 11.5705 45.8644 11.9237 45.8736 12.2799C45.8782 12.4296 45.8657 12.5792 45.8365 12.726C45.8365 12.7725 45.79 12.9367 45.8613 12.9677C45.9325 12.9987 45.9728 12.9088 46.0131 12.884C46.0459 12.8633 46.0831 12.8503 46.1217 12.846C46.1604 12.8417 46.1995 12.8463 46.2361 12.8593C46.3879 12.9119 46.3662 12.9832 46.2671 13.0761C46.1679 13.169 45.9573 13.3859 45.7714 13.4107C45.6302 13.4035 45.4906 13.3775 45.3563 13.3332C45.3563 13.2031 45.4059 13.0049 45.3098 12.8964C45.3098 12.8809 45.2541 12.8964 45.2231 12.8964C45.2884 12.8397 45.3319 12.7619 45.3461 12.6765C45.3602 12.5911 45.3441 12.5034 45.3005 12.4286C45.2169 12.4782 45.2045 12.565 45.1766 12.6455C45.1367 12.8304 45.0436 12.9996 44.9087 13.1323C44.7739 13.2649 44.6032 13.3553 44.4176 13.3921L44.3123 13.4169V14.0984L44.2472 14.0427C44.2438 14.1025 44.2524 14.1624 44.2727 14.2188C44.2929 14.2753 44.3243 14.327 44.365 14.371C44.365 14.5104 44.4393 14.3896 44.365 14.5352C44.3338 14.6265 44.2819 14.7092 44.2132 14.7769C44.1233 14.8574 44.0149 14.9101 43.925 14.9875C43.8352 15.065 43.8445 15.1176 43.7825 15.1486C43.7456 15.1647 43.7041 15.1666 43.6658 15.1541C43.6275 15.1415 43.5952 15.1153 43.575 15.0805C43.5414 15.0263 43.5288 14.9617 43.5396 14.8989C43.5505 14.8361 43.584 14.7794 43.6338 14.7397C43.7825 14.6344 43.9127 14.5755 43.8228 14.3648C43.728 14.1608 43.6905 13.9349 43.7144 13.7112C43.6508 13.7148 43.5892 13.7342 43.535 13.7678C43.4809 13.8013 43.4361 13.8479 43.4046 13.9033C43.3289 14.032 43.2716 14.1707 43.2342 14.3153C43.2001 14.4915 43.1753 14.6693 43.1599 14.8481C43.0793 14.7676 43.0421 14.7769 42.9957 14.8946C42.9943 14.9101 42.9943 14.9256 42.9957 14.9411C42.9493 15.1628 42.8883 15.3811 42.8129 15.5947C42.7385 15.8519 42.9089 16.1214 43.1846 15.9975C43.3024 15.9448 43.2528 15.9076 43.3302 15.8549C43.575 15.6815 43.5719 16.0501 43.4108 16.1833C43.3179 16.2608 43.1939 16.3041 43.101 16.3847C43.0081 16.4652 42.9523 16.5799 42.8067 16.552C42.6349 16.5039 42.4599 16.4677 42.2831 16.4436C42.119 16.3971 42.0694 16.4002 42.0012 16.2732Z" fill="#839D8D"/>
<path d="M14.1665 50.9823C14.5344 50.9823 14.8326 50.6841 14.8326 50.3162C14.8326 49.9483 14.5344 49.6501 14.1665 49.6501C13.7987 49.6501 13.5005 49.9483 13.5005 50.3162C13.5005 50.6841 13.7987 50.9823 14.1665 50.9823Z" fill="#839D8D"/>
<path d="M13.6679 49.1887C13.8887 49.1887 14.0676 49.0098 14.0676 48.789C14.0676 48.5683 13.8887 48.3894 13.6679 48.3894C13.4472 48.3894 13.2683 48.5683 13.2683 48.789C13.2683 49.0098 13.4472 49.1887 13.6679 49.1887Z" fill="#839D8D"/>
<path d="M15.542 51.3261C15.7627 51.3261 15.9416 51.1472 15.9416 50.9265C15.9416 50.7058 15.7627 50.5269 15.542 50.5269C15.3213 50.5269 15.1423 50.7058 15.1423 50.9265C15.1423 51.1472 15.3213 51.3261 15.542 51.3261Z" fill="#839D8D"/>
<path d="M12.9892 51.2456C13.2099 51.2456 13.3889 51.0666 13.3889 50.8459C13.3889 50.6252 13.2099 50.4463 12.9892 50.4463C12.7685 50.4463 12.5896 50.6252 12.5896 50.8459C12.5896 51.0666 12.7685 51.2456 12.9892 51.2456Z" fill="#839D8D"/>
<path d="M14.1259 50.2298L13.0168 50.7319L13.0948 50.9041L14.2039 50.4019L14.1259 50.2298Z" fill="#839D8D"/>
<path d="M14.2022 50.234L14.1255 50.4067L15.5016 51.0177L15.5782 50.845L14.2022 50.234Z" fill="#839D8D"/>
<path d="M13.799 48.8825L13.6194 48.9412L14.077 50.343L14.2567 50.2843L13.799 48.8825Z" fill="#839D8D"/>
<path d="M48.8788 28.2496C48.8633 27.6301 48.9439 26.5892 48.3429 26.1802C47.903 25.8704 47.3267 25.9076 46.8744 25.6567C46.6731 25.5452 46.3354 25.13 46.7165 24.9751C47.0015 24.8574 47.2803 25.2849 47.5436 25.2137C47.8069 25.1424 47.5436 24.9039 47.4011 24.7955C46.9172 24.4113 46.5362 23.9132 46.292 23.3456C46.0895 22.9295 46.0552 22.4513 46.196 22.0104C46.3943 21.5148 46.8156 21.4838 47.1935 21.8369C47.3298 21.9671 47.46 22.1746 47.683 22.1127C48.1074 21.9949 47.8596 21.5953 47.683 21.4249C47.4507 21.2081 46.8682 21.0594 46.7846 20.731C46.6762 20.319 47.0015 20.3933 47.2307 20.5203C47.4599 20.6473 47.5963 20.6504 47.5095 20.3778C47.4228 20.1052 47.0851 19.972 46.9054 19.8295C46.5275 19.5197 46.134 19.2502 45.7685 18.9311C45.3483 18.5945 44.9871 18.1904 44.6997 17.7353C44.5913 17.537 44.3279 16.62 44.7771 16.62C45.0498 16.62 45.152 17.1591 45.3967 17.2396C46.0566 17.4627 45.341 16.05 45.3131 15.8796C45.2852 15.7092 45.3131 15.291 45.5423 15.4521C45.6322 15.5172 45.6198 16.0717 45.8521 15.9044C45.9203 15.8548 45.8738 15.6628 45.8521 15.5946C45.7964 15.2074 45.6446 14.8511 45.88 14.501C46.1253 14.2273 46.386 13.9677 46.6607 13.7235C46.8342 13.519 47.1068 13.2402 47.1223 12.9676C47.1378 12.695 46.893 12.4812 47.0975 12.2179C47.4414 11.778 48.0052 13.3517 48.0826 13.5469C48.3837 14.349 48.6037 15.1793 48.7394 16.0252C49.0337 17.7353 49.0802 19.4732 49.2227 21.1988C49.3094 22.577 49.3094 23.9594 49.2227 25.3376C49.1948 25.9572 49.6316 28.2682 48.789 28.5378C48.7952 28.42 48.7332 28.3116 48.8788 28.2496Z" fill="#839D8D"/>
<path d="M42.6738 54.3559C42.4931 54.8791 42.462 55.4424 42.584 55.9823C41.9586 56.0158 41.3394 55.8443 40.8205 55.4937C40.3016 55.1431 39.9113 54.6326 39.7091 54.0399C39.517 53.4544 39.4799 52.7109 40.0685 52.3422C40.6571 51.9736 41.159 52.5095 41.4502 52.9618C41.4114 52.7299 41.4513 52.4917 41.5636 52.2851C41.6758 52.0785 41.854 51.9154 42.0697 51.8218C42.7482 51.5832 43.0921 52.178 43.0797 52.7759C43.0278 53.3206 42.8909 53.8537 42.6738 54.3559Z" fill="#839D8D"/>
<path d="M43.8943 58.1263C43.8107 58.0364 43.5845 57.8753 43.5566 57.7607C43.5009 57.5779 43.696 57.5191 43.8447 57.5624C43.9656 57.6174 44.0825 57.6806 44.1948 57.7514C44.3184 57.7973 44.4509 57.8142 44.582 57.801C44.8299 57.801 45.0622 57.801 45.3008 57.8227C45.5393 57.8444 45.4526 57.7638 45.3534 57.5965C45.1325 57.0934 45.0963 56.5283 45.2512 56.0011C45.3946 55.4861 45.7263 55.0438 46.1806 54.7619C46.4468 54.5874 46.7507 54.4786 47.0672 54.4445C47.3837 54.4103 47.7038 54.4518 48.0011 54.5655C48.2984 54.6793 48.5645 54.862 48.7774 55.0986C48.9903 55.3353 49.144 55.6191 49.2258 55.9267C49.2824 56.1206 49.292 56.3251 49.2537 56.5234C49.2155 56.7216 49.1305 56.9079 49.0059 57.0668C48.8871 57.214 48.7254 57.3204 48.5433 57.3712C48.3611 57.422 48.1676 57.4146 47.9899 57.3501C47.8121 57.2856 47.6589 57.1672 47.5517 57.0115C47.4445 56.8557 47.3886 56.6703 47.3919 56.4813C47.3894 56.4168 47.4061 56.353 47.4397 56.2979C47.4733 56.2428 47.5224 56.1988 47.5808 56.1715C47.6341 56.147 47.6943 56.142 47.7508 56.1573C47.8074 56.1726 47.8569 56.2072 47.8906 56.2551C47.9464 56.3481 47.9185 56.379 47.8906 56.4627C47.8906 56.4627 47.7853 56.6083 47.8318 56.6145C48.0207 56.6424 48.1199 56.4224 48.0734 56.2706C48.0392 56.1792 47.9778 56.1005 47.8975 56.0452C47.8171 55.9898 47.7218 55.9603 47.6242 55.9608C47.5252 55.9572 47.4276 55.9852 47.3457 56.041C47.2637 56.0967 47.2018 56.1772 47.1688 56.2706C47.0963 56.4698 47.0872 56.6866 47.1426 56.8912C47.1981 57.0959 47.3154 57.2784 47.4786 57.4137C47.6118 57.5325 47.7675 57.6234 47.9365 57.6808C48.1055 57.7382 48.2843 57.7611 48.4623 57.7481C48.6403 57.7351 48.8139 57.6865 48.9727 57.6051C49.1315 57.5237 49.2724 57.4112 49.3869 57.2743C49.8175 56.8004 49.7959 56.2675 49.5573 55.7254C49.4868 55.6002 49.4093 55.4792 49.325 55.3629C49.3135 55.3464 49.3056 55.3277 49.3019 55.3079C49.2981 55.2882 49.2986 55.2678 49.3033 55.2483C49.3154 55.2283 49.3316 55.2111 49.3508 55.1977C49.37 55.1844 49.3918 55.1752 49.4148 55.1708C49.4427 55.1708 49.4923 55.2111 49.5077 55.2452C49.6397 55.5227 49.7941 55.7889 49.9693 56.0414C50.1676 56.2954 50.5363 56.4596 50.6726 56.0228C50.7004 55.9267 50.7345 55.8307 50.7531 55.7316C50.7717 55.6324 50.7345 55.5457 50.7531 55.459C50.7577 55.4102 50.7784 55.3645 50.812 55.3288C50.833 55.3213 50.8556 55.319 50.8778 55.3222C50.9 55.3255 50.921 55.3341 50.939 55.3474C51.0474 55.4497 50.939 55.778 50.9669 55.9174C51.0292 56.1223 51.1068 56.3222 51.1992 56.5153C51.2869 56.7658 51.3103 57.0342 51.2674 57.296C51.1936 57.72 51.0313 58.1237 50.7911 58.4808C50.5509 58.8379 50.2382 59.1404 49.8733 59.3685C48.7395 60.174 46.9829 60.0873 45.7809 59.4863C45.0963 59.1789 44.4801 58.7375 43.9686 58.1882L43.8943 58.1263Z" fill="#839D8D"/>
<path d="M13.3891 4.32765C13.4046 4.29357 13.4387 4.2502 13.4325 4.21922C13.4112 4.05437 13.3483 3.89765 13.2497 3.76383C13.1479 3.65013 13.0152 3.5685 12.8678 3.5289C12.7204 3.4893 12.5646 3.49342 12.4195 3.54078C12.276 3.57553 12.1466 3.65365 12.0491 3.76451C11.9515 3.87537 11.8905 4.01358 11.8743 4.16036C11.8299 4.46699 11.8946 4.77945 12.057 5.04327C12.1314 5.17029 12.2212 5.28801 12.2987 5.41502C12.3526 5.50077 12.4012 5.58975 12.4443 5.68145C12.4587 5.71251 12.4662 5.74634 12.4662 5.78058C12.4662 5.81482 12.4587 5.84865 12.4443 5.87971C12.3761 5.81156 12.3173 5.7465 12.2491 5.68454C12.1389 5.58745 12.0091 5.51509 11.8686 5.47234C11.728 5.42959 11.58 5.41744 11.4344 5.43671C11.0707 5.48357 10.724 5.61863 10.4244 5.83015C10.1425 6.01292 9.8668 6.20499 9.59109 6.39397C9.16844 6.67499 8.66674 6.8129 8.15984 6.78741C8.14241 6.78452 8.12461 6.78452 8.10718 6.78741C8.28711 6.8729 8.4763 6.93735 8.671 6.97948C8.86307 7.01355 9.05824 7.03214 9.24412 7.05692L8.90025 7.08481L8.94672 7.10959C9.55546 7.42237 10.2328 7.57786 10.917 7.56189C11.3353 7.56289 11.752 7.50873 12.1562 7.40079C12.4762 7.32219 12.7767 7.1788 13.0391 6.97948C13.2231 6.84762 13.3503 6.65097 13.3951 6.4291C13.4399 6.20724 13.3991 5.97662 13.2807 5.78368C13.1788 5.61783 13.0638 5.46037 12.9368 5.31279C12.8098 5.1517 12.6673 5.003 12.5434 4.83571C12.4205 4.68355 12.3567 4.49213 12.3637 4.29667C12.358 4.25207 12.366 4.20679 12.3865 4.16677C12.407 4.12675 12.4391 4.09387 12.4787 4.07243C12.5182 4.05099 12.5633 4.042 12.608 4.04663C12.6527 4.05127 12.695 4.06932 12.7293 4.0984C12.8185 4.15801 12.9006 4.22765 12.974 4.30596C13.0209 4.35055 13.0597 4.40297 13.0886 4.46086C13.1629 4.61245 13.2685 4.74655 13.3984 4.8543C13.4635 4.89767 13.5162 4.87289 13.5162 4.79544C13.5125 4.75339 13.5009 4.71241 13.4821 4.67462C13.4387 4.56 13.3922 4.44847 13.3458 4.33385L13.3891 4.32765Z" fill="#839D8D"/>
<path d="M11.3782 16.2236C11.403 16.2546 11.3782 16.3011 11.3193 16.3723C10.9233 16.7378 10.4022 16.9374 9.86331 16.9299C9.16655 16.9108 8.48452 16.7249 7.87445 16.3878C7.80629 16.3537 7.67928 16.3042 7.62971 16.3878C7.61895 16.4253 7.61895 16.465 7.62971 16.5024C7.67078 16.7564 7.80159 16.9872 7.99836 17.153C8.19043 17.3667 7.73504 17.3048 7.639 17.2831C7.27317 17.2243 6.92919 17.0705 6.64147 16.837C6.47653 16.681 6.35518 16.4845 6.28944 16.2672C6.22369 16.0499 6.21583 15.8191 6.26662 15.5978C6.38798 15.206 6.62971 14.8624 6.95746 14.6158C7.26725 14.3525 7.61732 14.1387 7.92091 13.8692C8.23612 13.61 8.45447 13.252 8.5405 12.8531C8.58309 12.6525 8.55818 12.4436 8.46965 12.2587C8.38112 12.0738 8.23394 11.9233 8.05103 11.8308C8.17946 12.0789 8.23346 12.3588 8.20653 12.6369C8.1796 12.915 8.07288 13.1794 7.89923 13.3983C7.40046 14.0179 6.4432 14.1604 6.09624 14.8605C6.04667 14.9628 6.0002 15.0805 5.89487 15.1176C5.81829 15.1365 5.73741 15.1254 5.66872 15.0867C5.48538 15.0022 5.32982 14.8673 5.22013 14.6979C5.11044 14.5284 5.05114 14.3313 5.04914 14.1294C5.16297 14.1756 5.28485 14.1988 5.40771 14.1977C5.53058 14.1965 5.65199 14.171 5.76492 14.1226C5.87785 14.0742 5.98007 14.0038 6.06565 13.9157C6.15124 13.8275 6.21849 13.7233 6.26352 13.609C6.29464 13.5602 6.31305 13.5044 6.31709 13.4466C6.32112 13.3889 6.31066 13.3311 6.28664 13.2784C6.26263 13.2258 6.22582 13.18 6.17958 13.1452C6.13334 13.1104 6.07913 13.0877 6.02188 13.0792C5.89571 13.0567 5.7663 13.0599 5.64138 13.0885C5.51645 13.1171 5.39857 13.1706 5.29478 13.2458C5.19098 13.321 5.10339 13.4163 5.03723 13.526C4.97108 13.6358 4.92771 13.7578 4.90973 13.8847C4.90973 13.9435 4.29014 13.6988 4.25607 13.6709C4.04861 13.5408 3.87374 13.3649 3.74491 13.1567C3.59001 12.915 3.70773 12.7663 3.87502 12.5619C4.05294 12.374 4.21656 12.1731 4.36449 11.9609C4.47292 11.7719 4.52868 11.5581 4.63092 11.3661C4.88495 10.8797 5.4085 10.5885 5.7059 10.1269C5.89487 9.8171 5.98471 9.47942 6.152 9.16963C6.33095 8.84585 6.59156 8.57457 6.90789 8.38276C7.12267 8.24164 7.3624 8.1428 7.61422 8.09155C7.71026 8.09155 7.87135 8.06987 7.92401 8.1628C7.97668 8.25574 7.86205 8.4726 7.76602 8.55624C7.66998 8.63988 7.4903 8.86603 7.61422 8.98376C7.79074 8.84024 7.97822 8.71076 8.17494 8.59651C8.6039 8.37135 9.08506 8.26443 9.56901 8.28672C9.70532 8.28672 10.1297 8.28672 10.1545 8.47879C10.1886 8.7638 9.49466 8.68635 9.51635 9.05191C10.0354 8.9261 10.5802 8.95827 11.0809 9.14429C11.5815 9.33031 12.0152 9.66169 12.3262 10.0959C12.3788 10.1703 12.4253 10.3128 12.3014 10.3468C12.1775 10.3809 11.9699 10.2353 11.8553 10.2136C11.767 10.1906 11.674 10.1939 11.5876 10.2231C11.5011 10.2522 11.4251 10.306 11.3689 10.3778C11.9409 10.6615 12.4836 11.0008 12.9891 11.3908C13.048 11.4373 13.113 11.5117 13.0728 11.5736C13.052 11.5985 13.0237 11.6159 12.9922 11.6232L12.6236 11.7502C12.9762 11.9595 13.2753 12.248 13.4972 12.5928C13.5591 12.6889 13.6118 12.8221 13.5375 12.9026C13.49 12.9439 13.4299 12.9679 13.3671 12.9708C12.9521 13.0109 12.5434 13.1003 12.1496 13.2372C12.0566 13.2775 11.8956 13.3456 11.9141 13.4727C11.9234 13.5149 11.9463 13.553 11.9792 13.5811C12.0942 13.6926 12.2387 13.7691 12.3956 13.8015C12.5525 13.8338 12.7154 13.8208 12.8652 13.7639C13.0573 13.6864 12.8435 14.244 12.8125 14.3091C12.6629 14.6476 12.4353 14.9459 12.1483 15.1796C11.8614 15.4132 11.5231 15.5757 11.1613 15.6536C10.9765 15.6872 10.7881 15.6976 10.6006 15.6846C10.5139 15.6846 10.1173 15.6195 10.1359 15.7775C10.1425 15.8113 10.1586 15.8425 10.1824 15.8673C10.3314 16.0377 10.5373 16.1478 10.7617 16.1771C10.9011 16.1895 11.2884 16.1028 11.3782 16.2236ZM5.52931 11.5395C5.54166 11.55 5.55598 11.5578 5.57141 11.5626C5.58684 11.5674 5.60308 11.569 5.61915 11.5674C5.77095 11.5674 5.75546 11.4032 5.87009 11.363C5.93514 11.3382 6.03738 11.363 6.09314 11.3196C6.21396 11.2267 6.06835 11.1802 5.97542 11.174C5.89668 11.1705 5.81817 11.1849 5.74576 11.216C5.67334 11.2471 5.60889 11.2942 5.5572 11.3537C5.50763 11.4125 5.48594 11.4962 5.52931 11.5395Z" fill="#839D8D"/>
<path d="M12.7293 8.33635C12.6639 8.52965 12.6479 8.73628 12.6829 8.93735C12.791 9.45468 13.0665 9.92198 13.4669 10.2669C13.8673 10.6119 14.3703 10.8153 14.8979 10.8457C15.4679 10.8983 16.1649 10.6536 16.3446 10.065C16.1927 10.0546 16.0402 10.0735 15.8954 10.1208C15.5936 10.1375 15.2926 10.0755 15.0218 9.94108C14.6571 9.76903 14.3306 9.52571 14.0615 9.22546C13.8787 9.04268 13.7114 8.84751 13.5255 8.66783C13.3985 8.54391 13.2374 8.28059 13.0763 8.20314C13.0463 8.18182 13.0115 8.16824 12.975 8.16363C12.9385 8.15901 12.9014 8.1635 12.8671 8.17668C12.8328 8.18987 12.8022 8.21135 12.7782 8.23921C12.7541 8.26707 12.7374 8.30044 12.7293 8.33635Z" fill="#839D8D"/>
<path d="M13.5285 8.21853C13.5285 8.31457 13.671 8.45397 13.7453 8.52833C13.9857 8.7667 14.2413 8.98919 14.5105 9.19438C14.8102 9.42079 15.1437 9.59853 15.4988 9.72103C15.6351 9.7582 15.9727 9.84185 16.0471 9.68075C16.0997 9.57233 15.9882 9.44531 15.9232 9.37096C15.5576 8.96823 14.938 8.7235 14.4486 8.50974C14.2596 8.42919 13.8011 8.05744 13.5873 8.14108C13.5698 8.14477 13.5543 8.15462 13.5435 8.16885C13.5327 8.18307 13.5273 8.20071 13.5285 8.21853Z" fill="#839D8D"/>
<path d="M15.1858 7.33554C15.6659 7.65128 16.2408 7.79035 16.8122 7.72898C17.1066 7.69012 17.38 7.55507 17.5898 7.34484C17.6246 7.31169 17.6481 7.26843 17.657 7.22117C17.6659 7.17392 17.6597 7.12506 17.6393 7.08151C17.6115 6.98548 17.5309 6.96999 17.4504 6.96379C16.9798 6.92735 16.5183 6.81433 16.0842 6.62922C15.7192 6.47888 15.4154 6.21018 15.2215 5.86631C15.0277 5.52245 14.9551 5.12339 15.0154 4.73328C15.0267 4.66289 15.0519 4.59547 15.0897 4.53502C15.1579 4.408 15.2384 4.28409 15.3097 4.15397C15.3312 4.11823 15.344 4.07788 15.3469 4.03625C15.354 3.9849 15.3422 3.9327 15.3137 3.88939C15.2852 3.84607 15.242 3.81459 15.192 3.80081C15.1453 3.80009 15.0995 3.81326 15.0603 3.83863C15.0212 3.864 14.9904 3.90044 14.972 3.94331C14.9132 4.07652 14.8512 4.20664 14.7954 4.33985C14.7282 4.49234 14.6212 4.62395 14.4857 4.72089C14.3145 4.85417 14.1881 5.03651 14.1233 5.24355C14.0585 5.45058 14.0585 5.67246 14.1232 5.87952C14.2233 6.29304 14.4381 6.66993 14.7428 6.96689C14.9163 7.12179 15.0928 7.255 15.1858 7.33554Z" fill="#839D8D"/>
<path d="M15.127 4.81079C15.1007 5.11426 15.153 5.41938 15.2788 5.6968C15.4365 6.04573 15.718 6.32385 16.0687 6.47748L16.14 6.50846C16.2617 6.57651 16.3965 6.6178 16.5354 6.62955C16.6743 6.6413 16.8141 6.62325 16.9455 6.57661C17.2382 6.5208 17.5011 6.36132 17.6859 6.12741C17.7457 6.04788 17.7918 5.95887 17.8222 5.86409C17.8281 5.83653 17.827 5.80791 17.8189 5.7809C17.8109 5.75388 17.7961 5.72935 17.776 5.70957C17.7559 5.68978 17.7312 5.6754 17.704 5.66775C17.6769 5.66011 17.6483 5.65944 17.6208 5.66582C17.4318 5.6999 17.246 5.75566 17.057 5.78354C16.7356 5.84206 16.4052 5.82723 16.0904 5.74017C15.8896 5.67651 15.7059 5.56818 15.5529 5.42331C15.4 5.27844 15.2819 5.10079 15.2075 4.90373L15.1703 4.81079H15.127Z" fill="#839D8D"/>
<path d="M30.2849 41.2301C30.2012 41.1219 30.1439 40.9957 30.1176 40.8614C30.096 40.6786 30.1393 40.4928 30.1176 40.31C30.1186 40.1788 30.0759 40.0509 29.9963 39.9466C29.9166 39.8423 29.8046 39.7674 29.6777 39.7338C29.8109 39.6935 29.9163 39.771 30.0371 39.8174C30.0413 39.7719 30.0579 39.7284 30.0853 39.6918C30.1126 39.6552 30.1495 39.6268 30.192 39.6099C30.0185 39.8918 30.2911 40.1551 30.4026 40.3936C30.4782 40.5397 30.5124 40.7036 30.5018 40.8676C30.4744 41.0231 30.421 41.1729 30.3438 41.3106C30.3213 41.286 30.3015 41.259 30.2849 41.2301Z" fill="#839D8D"/>
<path d="M30.5298 37.6923C30.513 37.7204 30.4943 37.7473 30.474 37.7729C30.4639 37.7626 30.4519 37.7544 30.4386 37.7488C30.4253 37.7432 30.411 37.7404 30.3966 37.7404C30.3821 37.7404 30.3678 37.7432 30.3545 37.7488C30.3412 37.7544 30.3292 37.7626 30.3191 37.7729C30.3285 37.7696 30.3384 37.7684 30.3483 37.7693C30.3582 37.7703 30.3677 37.7734 30.3763 37.7784C30.3848 37.7834 30.3922 37.7902 30.3978 37.7984C30.4035 37.8065 30.4073 37.8158 30.4089 37.8256C30.4337 37.9278 30.3036 37.9712 30.2447 38.0238C30.1555 38.1109 30.0868 38.2167 30.0434 38.3336C29.9876 38.4854 30.0775 38.6155 30.2447 38.5629C30.412 38.5102 30.4895 38.2531 30.4802 38.0827C30.4709 37.9123 30.536 37.6676 30.6878 37.6149C30.6569 37.6122 30.6258 37.618 30.598 37.6317C30.5701 37.6453 30.5466 37.6663 30.5298 37.6923Z" fill="#839D8D"/>
<path d="M30.1769 37.2677C30.1095 37.3328 30.0464 37.4021 29.9879 37.4753C29.6409 37.8997 29.8299 38.4294 29.833 38.9251C29.833 39.4672 29.4117 39.3062 29.3002 38.8631C29.2404 38.6087 29.2487 38.343 29.3243 38.0929C29.3999 37.8427 29.5401 37.6168 29.7308 37.4381C29.9204 37.3011 30.0939 37.1431 30.2481 36.9672C30.3163 36.8712 30.5177 36.5242 30.4278 36.4065C30.485 36.4691 30.5279 36.5433 30.5536 36.6241C30.5792 36.7048 30.5871 36.7902 30.5765 36.8743C30.6658 36.8711 30.7531 36.9009 30.8217 36.9581C30.8903 37.0152 30.9354 37.0957 30.9483 37.1841C30.7376 36.8464 30.4123 37.0292 30.1769 37.2677Z" fill="#839D8D"/>
<path d="M29.3679 45.815C29.3932 45.8021 29.4171 45.7865 29.4392 45.7686C29.4949 45.7097 29.56 45.5579 29.6498 45.5579C29.7397 45.5579 29.8047 45.6323 29.8698 45.6694C29.9348 45.7066 30.1083 45.7097 30.0371 45.7872C29.9658 45.8646 29.9193 45.8398 29.8791 45.8677L29.656 46.0102C29.6219 46.0319 29.5817 46.0505 29.5445 46.0691C29.4762 46.1088 29.3968 46.1251 29.3183 46.1155C29.2843 46.1155 29.2719 46.1155 29.2626 46.1558C29.1648 46.4538 28.975 46.713 28.7204 46.8962C28.6164 46.9619 28.5077 47.0199 28.3952 47.0697C28.4602 47.1286 28.5315 47.1162 28.6151 47.1317C28.7167 47.1579 28.8233 47.1579 28.9249 47.1317C28.99 47.1131 29.1665 47.0418 29.2068 47.1317C29.2471 47.2215 29.1635 47.2742 29.1294 47.3082C29.0406 47.3849 28.9341 47.4381 28.8196 47.4631C28.5996 47.5344 28.2341 47.6025 28.0668 47.3888C28.0135 47.314 27.9775 47.2283 27.9615 47.1379C27.9611 47.1322 27.9595 47.1266 27.957 47.1215C27.9544 47.1164 27.9509 47.1118 27.9466 47.1081C27.9423 47.1043 27.9373 47.1015 27.9318 47.0997C27.9264 47.0979 27.9207 47.0972 27.915 47.0976C27.8069 47.084 27.702 47.0515 27.6052 47.0015C27.592 46.998 27.5781 46.998 27.5649 47.0015C27.4889 47.009 27.4183 47.0443 27.3667 47.1007C27.314 47.1688 27.2861 47.2556 27.2272 47.3175C27.1646 47.3843 27.082 47.4289 26.9918 47.4445C26.9144 47.4631 26.682 47.5158 26.6572 47.4074C26.6572 47.364 26.6789 47.3051 26.6913 47.2649C26.7044 47.1946 26.7251 47.1261 26.7533 47.0604C26.8168 46.9593 26.9147 46.8844 27.029 46.8497C27.0878 46.8312 27.1343 46.8497 27.1777 46.7878C27.2162 46.7438 27.2447 46.692 27.2613 46.636C27.266 46.6198 27.266 46.6026 27.2613 46.5864C27.2235 46.477 27.2088 46.361 27.218 46.2456C27.218 46.2209 27.218 46.2116 27.1901 46.1992C27.1225 46.1598 27.0573 46.1163 26.9949 46.0691C26.9442 46.0284 26.9038 45.9763 26.8769 45.9171C26.85 45.8579 26.8373 45.7933 26.84 45.7283C26.8358 45.5863 26.8568 45.4447 26.902 45.3101C26.9206 45.2388 26.9422 45.1149 27.0104 45.0684C27.0205 45.0593 27.0326 45.0526 27.0458 45.0489C27.0589 45.0451 27.0727 45.0444 27.0861 45.0468C27.0996 45.0492 27.1123 45.0546 27.1233 45.0627C27.1344 45.0707 27.1434 45.0812 27.1498 45.0932C27.2025 45.2233 27.1002 45.3844 27.1498 45.5207C27.1755 45.5901 27.2169 45.6526 27.2706 45.7035C27.3033 45.7384 27.3305 45.7781 27.3512 45.8212C27.4011 45.7664 27.4448 45.7061 27.4813 45.6416C27.5314 45.5795 27.5874 45.5224 27.6486 45.4712C27.7735 45.3695 27.9136 45.288 28.0637 45.2295C28.1872 45.1844 28.3134 45.1472 28.4416 45.118C28.4695 45.118 28.4819 45.0994 28.485 45.0715C28.4891 44.9902 28.5208 44.9126 28.5748 44.8516C28.6306 44.7865 28.9187 44.3745 29.0209 44.4922C29.0488 44.5263 29.0364 44.5975 29.0426 44.6378C29.0723 44.7084 29.0777 44.7869 29.0581 44.8609C29.024 44.929 28.9094 44.9755 28.8475 45.0158C28.833 45.0222 28.8207 45.0326 28.8119 45.0458C28.8031 45.0589 28.7983 45.0743 28.7979 45.0901H28.8444C28.9378 45.1026 29.032 45.1088 29.1263 45.1087C29.1851 45.1087 29.2874 45.0901 29.3245 45.1521C29.3617 45.214 29.1975 45.2295 29.2161 45.2853C29.2347 45.3411 29.371 45.214 29.4144 45.2605C29.4578 45.307 29.4392 45.3844 29.4144 45.4371C29.3998 45.5158 29.3916 45.5956 29.3896 45.6756C29.3896 45.719 29.3896 45.7655 29.371 45.8088L29.3679 45.815Z" fill="#839D8D"/>
<path d="M37.5747 46.5212C37.5072 46.526 37.4396 46.5139 37.3779 46.4861C37.3162 46.4583 37.2624 46.4157 37.2212 46.3619C37.1801 46.3082 37.1529 46.2451 37.1422 46.1783C37.1314 46.1114 37.1374 46.043 37.1596 45.9791C37.2434 45.7752 37.3471 45.5801 37.4694 45.3967C37.5252 45.3037 37.6088 45.3223 37.6584 45.3967C37.7778 45.5774 37.8814 45.7682 37.9682 45.9667C37.9914 46.0295 37.9989 46.097 37.9901 46.1634C37.9812 46.2298 37.9564 46.2931 37.9176 46.3477C37.8789 46.4023 37.8274 46.4466 37.7677 46.4769C37.7079 46.5071 37.6417 46.5223 37.5747 46.5212Z" fill="#839D8D"/>
<path d="M39.5015 41.5304C39.4463 41.4573 39.3704 41.4026 39.2836 41.3733C39.1969 41.344 39.1033 41.3415 39.0151 41.3663C38.9267 41.3916 38.8488 41.4447 38.793 41.5178C38.7372 41.591 38.7064 41.6801 38.7053 41.7721C38.6681 42.1221 38.6124 42.1562 38.2747 42.054C38.2017 42.0296 38.1223 42.0332 38.0519 42.0641C37.9815 42.095 37.9251 42.1511 37.8936 42.2213C37.8637 42.2924 37.8613 42.3722 37.8871 42.445C37.9129 42.5178 37.965 42.5783 38.033 42.6147L38.1632 42.6798C38.1303 42.7215 38.1012 42.766 38.0764 42.813C37.8967 43.2095 37.7171 43.603 37.5405 43.9995C37.4478 44.1923 37.4052 44.4054 37.4166 44.6191C37.4274 44.7397 37.4274 44.861 37.4166 44.9815C37.4027 45.041 37.4085 45.1033 37.4331 45.1592C37.4576 45.215 37.4997 45.2614 37.5529 45.2913C37.6137 45.3169 37.6817 45.32 37.7447 45.3002C37.8077 45.2803 37.8615 45.2388 37.8967 45.1829C37.9499 45.1081 38.0136 45.0414 38.0857 44.9846C38.2928 44.8502 38.4539 44.6556 38.5473 44.427C38.7115 44.0584 38.8819 43.6928 39.043 43.3241C39.0729 43.2463 39.0977 43.1666 39.1173 43.0856L39.2567 43.1414C39.3309 43.1696 39.413 43.1683 39.4862 43.1377C39.5594 43.1072 39.6181 43.0497 39.6502 42.9772C39.6801 42.906 39.6825 42.8262 39.6567 42.7535C39.6309 42.6807 39.5788 42.6201 39.5108 42.5837L39.4271 42.5435C39.3902 42.5285 39.3577 42.5042 39.333 42.473C39.3084 42.4417 39.2922 42.4045 39.2863 42.3651C39.2804 42.3257 39.2848 42.2854 39.2992 42.2482C39.3135 42.2111 39.3374 42.1783 39.3683 42.1531C39.4193 42.1067 39.465 42.0548 39.5046 41.9982C39.5566 41.9312 39.5846 41.8487 39.5841 41.7638C39.5835 41.6789 39.5544 41.5967 39.5015 41.5304ZM38.7022 43.5689C38.5752 43.8477 38.4575 44.1327 38.3181 44.4053C38.2493 44.5414 38.1582 44.665 38.0485 44.7709C37.937 44.8762 37.7914 44.8235 37.7387 44.6377C37.7396 44.5413 37.7531 44.4455 37.779 44.3527C37.906 44.0429 38.0516 43.7331 38.1941 43.4047C38.219 43.3769 38.2532 43.3593 38.2902 43.3551C38.3676 43.3505 38.4451 43.3505 38.5225 43.3551C38.5904 43.3499 38.6585 43.3616 38.7208 43.3892C38.7765 43.4295 38.7301 43.5069 38.7022 43.5689Z" fill="#839D8D"/>
<path d="M13.5563 35.1427C13.4536 35.1272 13.3492 35.1272 13.2465 35.1427C12.8544 35.2431 12.5015 35.4589 12.2335 35.7623C11.9485 36.038 11.6139 36.3509 11.6542 36.7846C11.668 36.9641 11.7307 37.1364 11.8356 37.2828C11.9405 37.4292 12.0834 37.544 12.249 37.6148C12.6796 37.7759 13.1009 37.5343 13.4324 37.2741C13.6295 37.0918 13.842 36.927 14.0675 36.7815C14.1865 36.7156 14.3189 36.6774 14.4547 36.67C14.5384 36.67 14.7645 36.7381 14.8389 36.67C14.9132 36.6018 14.7645 36.5306 14.7118 36.5027C14.4021 36.3416 14.2781 35.9389 14.1759 35.626C14.126 35.4969 14.042 35.3838 13.9329 35.2987C13.8238 35.2136 13.6936 35.1597 13.5563 35.1427Z" fill="#839D8D"/>
<path d="M14.6405 35.3501L14.6095 35.3346C14.5351 35.2367 14.4832 35.1235 14.4577 35.0031C14.4183 34.8807 14.3954 34.7536 14.3896 34.6252C14.3812 34.4967 14.4052 34.3681 14.4593 34.2512C14.5134 34.1343 14.596 34.0329 14.6993 33.956C15.0091 33.7175 15.6287 33.6463 15.8394 34.0428L15.8611 34.0831C16.0222 34.3929 15.7557 34.5849 15.48 34.681C15.2539 34.7615 14.6653 34.8018 14.6777 35.1147C14.6777 35.1735 14.721 35.2355 14.7179 35.2882C14.7148 35.3408 14.6746 35.3594 14.6405 35.3501Z" fill="#839D8D"/>
<path d="M14.1699 58.0209C13.7859 57.9933 13.4136 57.8766 13.0825 57.6801C12.9679 57.6244 12.8564 57.5686 12.7479 57.5252C12.3064 57.3384 11.8227 57.2742 11.3477 57.3394C11.3103 57.3436 11.2725 57.3403 11.2364 57.3296C11.2004 57.3188 11.1669 57.3009 11.1379 57.2769C11.109 57.2529 11.0852 57.2233 11.068 57.1898C11.0508 57.1563 11.0406 57.1198 11.0379 57.0822C11.034 57.0452 11.0376 57.0077 11.0483 56.9721C11.059 56.9364 11.0767 56.9032 11.1003 56.8744C11.1239 56.8456 11.153 56.8217 11.1859 56.8042C11.2188 56.7867 11.2548 56.7759 11.2919 56.7724C11.8587 56.699 12.4349 56.777 12.9617 56.9986C13.0887 57.0513 13.2126 57.1101 13.3304 57.1721C13.6242 57.366 13.9735 57.4584 14.3248 57.4354C14.3991 57.4168 14.4828 57.3889 14.5695 57.3611C14.7348 57.2991 14.9079 57.2605 15.0838 57.2464C15.121 57.2443 15.1583 57.2498 15.1933 57.2625C15.2284 57.2752 15.2605 57.2949 15.2877 57.3204C15.3149 57.3459 15.3367 57.3767 15.3517 57.4108C15.3667 57.4449 15.3746 57.4818 15.375 57.519C15.3762 57.5561 15.3702 57.593 15.3571 57.6277C15.3441 57.6623 15.3243 57.6941 15.299 57.7212C15.2737 57.7482 15.2433 57.77 15.2096 57.7853C15.1758 57.8006 15.1394 57.8091 15.1024 57.8103C14.9802 57.8244 14.8604 57.8546 14.7461 57.9001C14.6446 57.9348 14.5411 57.9638 14.4363 57.9868C14.349 58.0076 14.2597 58.0191 14.1699 58.0209Z" fill="#839D8D"/>
<path d="M7.25805 56.3262C7.14579 56.3265 7.03376 56.3161 6.92347 56.2952C6.50729 56.207 6.13988 55.9646 5.89496 55.6168C5.8079 55.5074 5.71372 55.4039 5.61305 55.307C5.56492 55.2544 5.53826 55.1856 5.53833 55.1143C5.5384 55.043 5.5652 54.9743 5.61344 54.9218C5.66167 54.8693 5.72785 54.8368 5.79889 54.8306C5.86993 54.8245 5.94069 54.8453 5.99719 54.8888C6.11412 54.9982 6.22382 55.1151 6.32558 55.2388C6.48813 55.4865 6.74007 55.6619 7.0288 55.7283C7.24354 55.759 7.46154 55.759 7.67627 55.7283C7.7878 55.7283 7.89932 55.7035 8.01394 55.6973C8.05097 55.6955 8.08799 55.701 8.12289 55.7134C8.15779 55.7259 8.1899 55.7451 8.21737 55.77C8.24484 55.7949 8.26714 55.825 8.283 55.8585C8.29886 55.892 8.30797 55.9283 8.3098 55.9653C8.31163 56.0023 8.30615 56.0393 8.29367 56.0742C8.2812 56.1091 8.26197 56.1412 8.23708 56.1687C8.2122 56.1962 8.18215 56.2185 8.14865 56.2343C8.11515 56.2502 8.07885 56.2593 8.04183 56.2611L7.73203 56.289C7.5749 56.3106 7.41663 56.323 7.25805 56.3262Z" fill="#839D8D"/>
<path d="M17.8126 59.545C17.6935 59.5446 17.5745 59.5363 17.4564 59.5203C17.1791 59.4634 16.9138 59.3586 16.6726 59.2105C16.5049 59.1054 16.3189 59.0328 16.1243 58.9967C15.8608 59.0014 15.6021 59.0672 15.3684 59.1888C15.1565 59.2837 14.9354 59.3563 14.7085 59.4056C14.0146 59.5357 13.4693 59.3003 12.9241 59.0742C12.8064 59.0246 12.6887 58.975 12.5648 58.9285C12.054 58.7413 11.5052 58.6817 10.9662 58.7551C10.6912 58.7941 10.411 58.7745 10.144 58.6977C9.87708 58.6208 9.62941 58.4883 9.41726 58.309L9.22209 58.185C8.60251 57.7823 8.11923 57.6305 7.79395 57.7389C7.74607 57.7584 7.69471 57.7678 7.64305 57.7667C7.59138 57.7655 7.54051 57.7537 7.49356 57.7321C7.44662 57.7105 7.40461 57.6795 7.37013 57.641C7.33564 57.6025 7.30942 57.5574 7.29308 57.5083C7.27673 57.4593 7.27062 57.4074 7.27511 57.356C7.2796 57.3045 7.29461 57.2545 7.31919 57.209C7.34378 57.1636 7.37743 57.1236 7.41805 57.0917C7.45868 57.0597 7.50543 57.0365 7.55541 57.0233C8.11613 56.8374 8.79458 57.0233 9.63102 57.55L9.83238 57.6801C10.2785 57.9744 10.3962 58.0549 10.9105 58.0054C11.5662 57.9181 12.2333 57.9936 12.8529 58.2253L13.2339 58.3802C13.7048 58.5785 14.1137 58.752 14.5877 58.6621C14.7633 58.6211 14.9345 58.563 15.0989 58.4886C15.4451 58.3174 15.828 58.2334 16.2141 58.2439C16.5082 58.2893 16.7897 58.3948 17.0413 58.5537C17.2092 58.6552 17.3922 58.7294 17.5834 58.7737C18.0631 58.819 18.5454 58.7198 18.9682 58.4886C19.0577 58.4447 19.1611 58.4381 19.2555 58.4703C19.3499 58.5026 19.4276 58.571 19.4716 58.6606C19.5155 58.7501 19.5221 58.8535 19.4899 58.9479C19.4576 59.0423 19.3892 59.12 19.2996 59.164C18.8404 59.405 18.3312 59.5354 17.8126 59.545Z" fill="#839D8D"/>
<path d="M11.7163 54.359C11.5609 54.4333 11.4361 54.5592 11.3632 54.7153C11.3594 54.7231 11.3534 54.7298 11.346 54.7344C11.3386 54.739 11.3301 54.7415 11.3213 54.7415C11.3126 54.7415 11.3041 54.739 11.2967 54.7344C11.2893 54.7298 11.2833 54.7231 11.2795 54.7153C11.2075 54.5586 11.0824 54.4324 10.9264 54.359C10.9185 54.3552 10.9119 54.3493 10.9072 54.3419C10.9026 54.3345 10.9001 54.3259 10.9001 54.3172C10.9001 54.3085 10.9026 54.2999 10.9072 54.2925C10.9119 54.2851 10.9185 54.2792 10.9264 54.2754C11.0828 54.2041 11.2083 54.0787 11.2795 53.9222C11.2833 53.9144 11.2893 53.9077 11.2967 53.9031C11.3041 53.8985 11.3126 53.896 11.3213 53.896C11.3301 53.896 11.3386 53.8985 11.346 53.9031C11.3534 53.9077 11.3594 53.9144 11.3632 53.9222C11.4353 54.078 11.5605 54.2032 11.7163 54.2754C11.7242 54.2792 11.7308 54.2851 11.7355 54.2925C11.7401 54.2999 11.7425 54.3085 11.7425 54.3172C11.7425 54.3259 11.7401 54.3345 11.7355 54.3419C11.7308 54.3493 11.7242 54.3552 11.7163 54.359Z" fill="#839D8D"/>
<path d="M11.2547 55.5052C10.9993 55.403 10.7671 55.2505 10.5718 55.0568C10.3765 54.8631 10.2221 54.6321 10.1177 54.3776C10.1124 54.3633 10.1029 54.3511 10.0905 54.3424C10.078 54.3337 10.0632 54.3291 10.048 54.3291C10.0328 54.3291 10.018 54.3337 10.0056 54.3424C9.9931 54.3511 9.98359 54.3633 9.97831 54.3776C9.8747 54.6345 9.72033 54.8679 9.52445 55.0638C9.32856 55.2596 9.09519 55.414 8.83827 55.5176C8.82404 55.5229 8.81177 55.5324 8.80311 55.5449C8.79444 55.5573 8.78979 55.5721 8.78979 55.5873C8.78979 55.6025 8.79444 55.6173 8.80311 55.6298C8.81177 55.6422 8.82404 55.6517 8.83827 55.657C9.09508 55.76 9.32844 55.9138 9.52434 56.1091C9.72024 56.3045 9.87466 56.5374 9.97831 56.794C9.98359 56.8082 9.9931 56.8205 10.0056 56.8291C10.018 56.8378 10.0328 56.8424 10.048 56.8424C10.0632 56.8424 10.078 56.8378 10.0905 56.8291C10.1029 56.8205 10.1124 56.8082 10.1177 56.794C10.2207 56.5375 10.3745 56.3046 10.5699 56.1092C10.7653 55.9138 10.9982 55.76 11.2547 55.657C11.2748 55.657 11.2941 55.649 11.3083 55.6348C11.3226 55.6206 11.3306 55.6013 11.3306 55.5811C11.3306 55.561 11.3226 55.5417 11.3083 55.5275C11.2941 55.5132 11.2748 55.5052 11.2547 55.5052ZM10.4523 55.6167C10.292 55.6903 10.1634 55.8189 10.0898 55.9792C10.086 55.9871 10.0801 55.9937 10.0727 55.9983C10.0653 56.003 10.0567 56.0054 10.048 56.0054C10.0393 56.0054 10.0307 56.003 10.0233 55.9983C10.0159 55.9937 10.01 55.9871 10.0062 55.9792C9.92956 55.8168 9.79627 55.6879 9.63134 55.6167C9.62349 55.6129 9.61686 55.607 9.61222 55.5996C9.60759 55.5922 9.60513 55.5837 9.60513 55.5749C9.60513 55.5662 9.60759 55.5576 9.61222 55.5502C9.61686 55.5429 9.62349 55.5369 9.63134 55.5331C9.79162 55.4595 9.92022 55.3309 9.9938 55.1706C9.9976 55.1628 10.0035 55.1562 10.0109 55.1515C10.0183 55.1469 10.0269 55.1444 10.0356 55.1444C10.0444 55.1444 10.0529 55.1469 10.0603 55.1515C10.0677 55.1562 10.0736 55.1628 10.0774 55.1706C10.151 55.3309 10.2796 55.4595 10.4399 55.5331C10.4485 55.5356 10.4561 55.5405 10.462 55.5472C10.4679 55.5539 10.4717 55.5621 10.473 55.5709C10.4743 55.5798 10.473 55.5888 10.4694 55.5969C10.4657 55.605 10.4598 55.6119 10.4523 55.6167Z" fill="#839D8D"/>
</svg>
