<svg width="21" height="27" viewBox="0 0 21 27" fill="none" xmlns="http://www.w3.org/2000/svg">
<path d="M14.429 12.3521V5.52043H16.5606V12.3521H14.429ZM6.94113 21.1325C6.31279 20.8866 5.8005 20.4818 5.40426 19.9178C5.00803 19.3541 4.80991 18.7134 4.80991 17.9955V5.52043H6.94113V21.1325ZM8.29326 27C5.98547 27 4.02632 26.19 2.41579 24.57C0.805263 22.9502 0 20.9865 0 18.6787V5.9027C0 4.26304 0.569368 2.86934 1.70811 1.72161C2.84661 0.573869 4.23568 0 5.87534 0C7.515 0 8.9042 0.573869 10.0429 1.72161C11.1817 2.86934 11.751 4.26304 11.751 5.9027V16.3421H9.61946V5.8892C9.60478 4.83975 9.24028 3.95112 8.52596 3.2233C7.81165 2.49549 6.92811 2.13158 5.87534 2.13158C4.82708 2.13158 3.94105 2.49774 3.21726 3.23005C2.49347 3.9626 2.13158 4.85349 2.13158 5.9027V18.6787C2.11689 20.3967 2.71078 21.8578 3.91322 23.0619C5.11567 24.2662 6.57592 24.8684 8.29397 24.8684C8.85316 24.8684 9.3844 24.8006 9.88768 24.6649C10.391 24.5291 10.8663 24.3256 11.3137 24.0542V26.4234C10.8436 26.6129 10.3558 26.7563 9.85038 26.8536C9.34472 26.9512 8.82568 27 8.29326 27ZM14.429 25.5789V21.589H10.4394V19.4574H14.429V15.4678H16.5606V19.4574H20.5506V21.589H16.5606V25.5789H14.429Z" fill="#839D8D"/>
</svg>
