<svg width="17" height="21" viewBox="0 0 17 21" fill="none" xmlns="http://www.w3.org/2000/svg">
<path d="M11.8998 9.50686V4.30175H13.5238V9.50686H11.8998ZM6.19473 16.1966C5.71599 16.0093 5.32568 15.7008 5.02378 15.2712C4.72189 14.8417 4.57094 14.3535 4.57094 13.8066V4.30175H6.19473V16.1966ZM7.22493 20.6671C5.46661 20.6671 3.97392 20.05 2.74685 18.8157C1.51978 17.5816 0.90625 16.0854 0.90625 14.3271V4.593C0.90625 3.34373 1.34005 2.28187 2.20766 1.4074C3.07509 0.532937 4.13344 0.0957031 5.3827 0.0957031C6.63196 0.0957031 7.6904 0.532937 8.55801 1.4074C9.42562 2.28187 9.85942 3.34373 9.85942 4.593V12.5468H8.23536V4.58271C8.22418 3.78313 7.94646 3.10608 7.40222 2.55155C6.85798 1.99703 6.18481 1.71976 5.3827 1.71976C4.58402 1.71976 3.90896 1.99874 3.3575 2.5567C2.80604 3.11483 2.53031 3.7936 2.53031 4.593V14.3271C2.51912 15.6361 2.9716 16.7493 3.88775 17.6667C4.8039 18.5843 5.91648 19.0431 7.22547 19.0431C7.65151 19.0431 8.05627 18.9914 8.43972 18.888C8.82318 18.7846 9.18535 18.6295 9.52622 18.4227V20.2278C9.16802 20.3722 8.79638 20.4814 8.4113 20.5556C8.02604 20.63 7.63058 20.6671 7.22493 20.6671ZM11.8998 19.5844V16.5445H8.86008V14.9204H11.8998V11.8807H13.5238V14.9204H16.5638V16.5445H13.5238V19.5844H11.8998Z" fill="#006D35"/>
</svg>
