<svg width="20" height="20" viewBox="0 0 20 20" fill="none" xmlns="http://www.w3.org/2000/svg">
<path d="M16.8916 2.40625H16.0479V1H14.6416V2.40625H5.36035V1H3.9541V2.40625H3.11035C1.94724 2.40625 1.00098 3.35252 1.00098 4.51562V16.8906C1.00098 18.0537 1.94724 19 3.11035 19H13.1125L19.001 12.8851V4.51562C19.001 3.35252 18.0547 2.40625 16.8916 2.40625ZM13.5166 16.553V14.0078C13.5166 13.6201 13.832 13.3047 14.2197 13.3047H16.6446L13.5166 16.553ZM17.5947 11.8984H14.2197C13.0566 11.8984 12.1104 12.8447 12.1104 14.0078V17.5938H3.11035C2.72265 17.5938 2.40723 17.2783 2.40723 16.8906V7.60938H17.5947V11.8984ZM17.5947 6.20312H2.40723V4.51562C2.40723 4.12792 2.72265 3.8125 3.11035 3.8125H3.9541V5.21875H5.36035V3.8125H14.6416V5.21875H16.0479V3.8125H16.8916C17.2793 3.8125 17.5947 4.12792 17.5947 4.51562V6.20312Z" fill="#7A8684"/>
</svg>
