<svg width="20" height="20" viewBox="0 0 20 20" fill="none" xmlns="http://www.w3.org/2000/svg">
<mask id="mask0_53017_113651" style="mask-type:alpha" maskUnits="userSpaceOnUse" x="1" y="1" width="18" height="18">
<rect x="1.66602" y="1.66602" width="16.6667" height="16.6667" fill="white"/>
</mask>
<g mask="url(#mask0_53017_113651)">
<path d="M11.0428 16.9416C9.79275 16.9416 8.72794 16.5018 7.84831 15.6222C6.96868 14.7425 6.52886 13.6777 6.52886 12.4277V12.0284C5.53349 11.8664 4.70595 11.4005 4.04622 10.6309C3.3865 9.86118 3.05664 8.95551 3.05664 7.91385V3.74718H5.13997V3.05273H6.52886V5.83051H5.13997V5.13607H4.44553V7.91385C4.44553 8.67773 4.71752 9.33167 5.2615 9.87565C5.80548 10.4196 6.45942 10.6916 7.22331 10.6916C7.9872 10.6916 8.64113 10.4196 9.18511 9.87565C9.72909 9.33167 10.0011 8.67773 10.0011 7.91385V5.13607H9.30664V5.83051H7.91775V3.05273H9.30664V3.74718H11.39V7.91385C11.39 8.95551 11.0601 9.86118 10.4004 10.6309C9.74067 11.4005 8.91312 11.8664 7.91775 12.0284V12.4277C7.91775 13.2958 8.22157 14.0336 8.82921 14.6413C9.43685 15.2489 10.1747 15.5527 11.0428 15.5527C11.9108 15.5527 12.6487 15.2489 13.2563 14.6413C13.8639 14.0336 14.1678 13.2958 14.1678 12.4277V11.2645C13.7627 11.1256 13.4299 10.8768 13.1695 10.518C12.9091 10.1592 12.7789 9.75412 12.7789 9.30273C12.7789 8.72403 12.9814 8.23213 13.3865 7.82704C13.7916 7.42195 14.2835 7.2194 14.8622 7.2194C15.4409 7.2194 15.9328 7.42195 16.3379 7.82704C16.743 8.23213 16.9455 8.72403 16.9455 9.30273C16.9455 9.75412 16.8153 10.1592 16.5549 10.518C16.2945 10.8768 15.9617 11.1256 15.5566 11.2645V12.4277C15.5566 13.6777 15.1168 14.7425 14.2372 15.6222C13.3576 16.5018 12.2928 16.9416 11.0428 16.9416ZM14.8622 9.99718C15.059 9.99718 15.2239 9.93063 15.357 9.79753C15.4901 9.66442 15.5566 9.49949 15.5566 9.30273C15.5566 9.10597 15.4901 8.94104 15.357 8.80794C15.2239 8.67484 15.059 8.60829 14.8622 8.60829C14.6654 8.60829 14.5005 8.67484 14.3674 8.80794C14.2343 8.94104 14.1678 9.10597 14.1678 9.30273C14.1678 9.49949 14.2343 9.66442 14.3674 9.79753C14.5005 9.93063 14.6654 9.99718 14.8622 9.99718Z" fill="#44544A"/>
</g>
</svg>
