<svg width="18" height="18" viewBox="0 0 18 18" fill="none" xmlns="http://www.w3.org/2000/svg">
<path d="M11.8975 2.20033C13.498 3.8008 13.498 6.39567 11.8975 7.99611L8.99963 10.894L6.10172 7.99614C4.50125 6.39567 4.50125 3.80083 6.10172 2.20036C7.70219 0.599886 10.2971 0.599886 11.8975 2.20033Z" stroke="#44544A" stroke-width="0.995855" stroke-miterlimit="10"/>
<path d="M9.00028 6.88313C9.98473 6.88313 10.7828 6.08508 10.7828 5.10062C10.7828 4.11617 9.98473 3.31812 9.00028 3.31812C8.01583 3.31812 7.21777 4.11617 7.21777 5.10062C7.21777 6.08508 8.01583 6.88313 9.00028 6.88313Z" stroke="#44544A" stroke-width="0.995855" stroke-miterlimit="10"/>
<path d="M11.408 8.48535H17V16.9993H1V8.48535H6.59209" stroke="#44544A" stroke-width="0.995855" stroke-miterlimit="10"/>
<path d="M12.8711 8.48535V15.0074" stroke="#44544A" stroke-width="0.995855" stroke-miterlimit="10"/>
<path d="M5.12891 8.48535V15.0074" stroke="#44544A" stroke-width="0.995855" stroke-miterlimit="10"/>
<path d="M1 15.0083H17" stroke="#44544A" stroke-width="0.995855" stroke-miterlimit="10"/>
</svg>
