<svg width="18" height="18" viewBox="0 0 18 18" fill="none" xmlns="http://www.w3.org/2000/svg">
<path d="M11.898 2.20033C13.4985 3.8008 13.4985 6.39567 11.898 7.99611L9.00012 10.894L6.10221 7.99614C4.50174 6.39567 4.50174 3.80083 6.10221 2.20036C7.70268 0.599886 10.2976 0.599886 11.898 2.20033Z" stroke="white" stroke-width="0.995855" stroke-miterlimit="10"/>
<path d="M8.99979 6.88313C9.98425 6.88313 10.7823 6.08508 10.7823 5.10062C10.7823 4.11617 9.98425 3.31812 8.99979 3.31812C8.01534 3.31812 7.21729 4.11617 7.21729 5.10062C7.21729 6.08508 8.01534 6.88313 8.99979 6.88313Z" stroke="white" stroke-width="0.995855" stroke-miterlimit="10"/>
<path d="M11.408 8.48535H17V16.9993H1V8.48535H6.59209" stroke="white" stroke-width="0.995855" stroke-miterlimit="10"/>
<path d="M12.8716 8.48535V15.0074" stroke="white" stroke-width="0.995855" stroke-miterlimit="10"/>
<path d="M5.12842 8.48535V15.0074" stroke="white" stroke-width="0.995855" stroke-miterlimit="10"/>
<path d="M1 15.0083H17" stroke="white" stroke-width="0.995855" stroke-miterlimit="10"/>
</svg>
