<svg width="22" height="20" viewBox="0 0 22 20" fill="none" xmlns="http://www.w3.org/2000/svg">
<path d="M11.0059 16.9013C8.31716 16.9013 6.13348 14.7156 6.13348 12.0244C6.13348 10.7679 6.47498 8.71217 7.24456 6.94532C8.18248 4.78852 9.48115 3.65234 11.0059 3.65234C12.5787 3.65234 13.8966 4.79333 14.8153 6.95014C15.5512 8.67365 15.8783 10.739 15.8783 12.0244C15.8783 14.7108 13.6946 16.9013 11.0059 16.9013ZM11.0059 4.42263C9.50039 4.42263 8.51436 5.96321 7.95161 7.25344C7.22532 8.91437 6.90306 10.8449 6.90306 12.0244C6.90306 14.2871 8.74524 16.131 11.0059 16.131C13.2665 16.131 15.1087 14.2871 15.1087 12.0244C15.1087 10.8208 14.8008 8.87585 14.1082 7.25344C13.5599 5.96321 12.5739 4.42263 11.0059 4.42263Z" fill="#7A8684" stroke="#7A8684" stroke-width="0.519944"/>
<path d="M11.0058 14.9769C9.38002 14.9769 8.05731 13.653 8.05731 12.0258C8.05731 11.8139 8.23047 11.6406 8.4421 11.6406C8.65373 11.6406 8.82689 11.8139 8.82689 12.0258C8.82689 13.2293 9.80329 14.2066 11.0058 14.2066C11.2174 14.2066 11.3905 14.38 11.3905 14.5918C11.3905 14.8036 11.2174 14.9769 11.0058 14.9769Z" fill="#7A8684" stroke="#7A8684" stroke-width="0.519944"/>
<path d="M16.3767 15.0846C15.7899 15.0846 15.2127 14.9738 14.6692 14.7572C14.472 14.6802 14.3758 14.4539 14.4528 14.2565C14.5297 14.0591 14.7558 13.9628 14.953 14.0399C15.4051 14.218 15.8861 14.3095 16.3767 14.3095C18.5075 14.3095 20.239 12.5763 20.239 10.4436C20.239 9.30741 19.9456 7.47317 19.2915 5.93741C18.772 4.7242 17.8485 3.2751 16.3767 3.2751C15.1117 3.2751 14.2411 4.45942 13.7313 5.45598C13.6351 5.64373 13.4042 5.72076 13.2118 5.62448C13.0242 5.52819 12.9473 5.29711 13.0435 5.10453C13.9093 3.40027 15.0636 2.5 16.3719 2.5C17.8678 2.5 19.1231 3.58322 19.9937 5.63411C20.6912 7.26615 20.999 9.22557 20.999 10.4436C21.0086 13.0048 18.9308 15.0846 16.3767 15.0846Z" fill="#7A8684" stroke="#7A8684" stroke-width="0.519944"/>
<path d="M16.3767 15.0846C15.7899 15.0846 15.2127 14.9738 14.6692 14.7572C14.472 14.6802 14.3758 14.4539 14.4528 14.2565C14.5297 14.0591 14.7558 13.9628 14.953 14.0399C15.4051 14.218 15.8861 14.3095 16.3767 14.3095C18.5075 14.3095 20.239 12.5763 20.239 10.4436C20.239 9.30741 19.9456 7.47317 19.2915 5.93741C18.772 4.7242 17.8485 3.2751 16.3767 3.2751C15.1117 3.2751 14.2411 4.45942 13.7313 5.45598C13.6351 5.64373 13.4042 5.72076 13.2118 5.62448C13.0242 5.52819 12.9473 5.29711 13.0435 5.10453C13.9093 3.40027 15.0636 2.5 16.3719 2.5C17.8678 2.5 19.1231 3.58322 19.9937 5.63411C20.6912 7.26615 20.999 9.22557 20.999 10.4436C21.0086 13.0048 18.9308 15.0846 16.3767 15.0846Z" fill="#7A8684" stroke="#7A8684" stroke-width="0.519944"/>
<path d="M5.63189 15.0867C3.07786 15.0867 1 13.0069 1 10.4505C1 9.26136 1.32707 7.31157 2.05336 5.64101C2.94318 3.59494 4.17932 2.51172 5.63189 2.51172C6.98827 2.51172 8.15707 3.41199 9.01322 5.12107C9.10942 5.30882 9.03246 5.54472 8.84007 5.6362C8.64767 5.73248 8.4168 5.65545 8.32541 5.46288C7.59913 4.01378 6.69006 3.27719 5.63189 3.27719C4.2178 3.27719 3.28949 4.72629 2.76041 5.94431C2.07741 7.51377 1.76958 9.33839 1.76958 10.4505C1.76958 12.5832 3.50113 14.3164 5.63189 14.3164C6.1225 14.3164 6.60348 14.2249 7.05561 14.0468C7.25282 13.9697 7.47888 14.066 7.55584 14.2634C7.63279 14.4608 7.5366 14.6871 7.33939 14.7641C6.79588 14.9759 6.2187 15.0867 5.63189 15.0867Z" fill="#7A8684" stroke="#7A8684" stroke-width="0.519944"/>
</svg>
