<svg width="24" height="24" viewBox="0 0 24 24" fill="none" xmlns="http://www.w3.org/2000/svg">
<g clip-path="url(#clip0_418_33665)">
<path d="M12 0C12.4142 0 12.75 0.335786 12.75 0.75V8.13667L16.0166 5.38268C16.3333 5.11569 16.8065 5.15597 17.0734 5.47266C17.3404 5.78934 17.3001 6.2625 16.9835 6.52949L12.4835 10.3234C12.2042 10.5589 11.7959 10.5589 11.5166 10.3234L7.01658 6.52949C6.6999 6.2625 6.65962 5.78934 6.92661 5.47266C7.1936 5.15597 7.66674 5.11569 7.98347 5.38268L11.25 8.13667V0.75C11.25 0.335786 11.5858 0 12 0Z" fill="#1F515B"/>
<path d="M0 12C0 11.5858 0.335786 11.25 0.75 11.25H23.25C23.6642 11.25 24 11.5858 24 12C24 12.4142 23.6642 12.75 23.25 12.75H0.75C0.335786 12.75 0 12.4142 0 12Z" fill="#1F515B"/>
<path d="M11.25 23.25C11.25 23.6642 11.5858 24 12 24C12.4142 24 12.75 23.6642 12.75 23.25V15.8633L16.0166 18.6173C16.3333 18.8843 16.8065 18.844 17.0734 18.5273C17.3404 18.2107 17.3001 17.7375 16.9835 17.4705L12.4835 13.6766C12.2042 13.4411 11.7959 13.4411 11.5166 13.6766L7.01658 17.4705C6.6999 17.7375 6.65962 18.2107 6.92661 18.5273C7.1936 18.844 7.66674 18.8843 7.98347 18.6173L11.25 15.8633V23.25Z" fill="#1F515B"/>
</g>
<defs>
<clipPath id="clip0_418_33665">
<rect width="24" height="24" fill="white"/>
</clipPath>
</defs>
</svg>
