<svg width="16" height="22" viewBox="0 0 16 22" fill="none" xmlns="http://www.w3.org/2000/svg">
<g clip-path="url(#clip0_11079_91580)">
<path d="M10.0002 0H1.49951C0.700473 0 0 0.699593 0 1.50038V20.5003C0 21.3002 0.699593 22.0007 1.50039 22.0007H14.5005C15.3004 22.0007 16.0009 21.3011 16.0009 20.5003V5.99978L12.5012 3.49972L10.0002 0Z" fill="#4285F4"/>
<path d="M3.99951 16H11.9995V15.0003H4.00039L3.99951 16ZM3.99951 18.0002H9.99929V17.0005H3.99951V18.0002ZM3.99951 10.9999V11.9995H11.9995V10.9999H3.99951ZM3.99951 13.9998H11.9995V13.0001H4.00039L3.99951 13.9998Z" fill="#F1F1F1"/>
<path d="M10 0V4.50027C10 5.30019 10.6996 5.99978 11.4995 5.99978H15.9998L10 0Z" fill="#A1C2FA"/>
</g>
<defs>
<clipPath id="clip0_11079_91580">
<rect width="16" height="21.9998" fill="white"/>
</clipPath>
</defs>
</svg>
