<svg width="57" height="65" viewBox="0 0 57 65" fill="none" xmlns="http://www.w3.org/2000/svg">
<g filter="url(#filter0_d_11748_55251)">
<path d="M13 6L35.5 5.5L46 17V48H13V6Z" fill="white"/>
<path fill-rule="evenodd" clip-rule="evenodd" d="M51.2907 49.3372C51.2907 51.2359 50.5354 53.0592 49.194 54.4032C47.85 55.7446 46.0267 56.4999 44.128 56.4999H12.8721C10.9734 56.4999 9.15009 55.7446 7.80609 54.4032C6.4647 53.0592 5.70935 51.2359 5.70935 49.3372V7.66273C5.70935 5.76394 6.4647 3.94068 7.80609 2.59668C9.15009 1.25529 10.9734 0.499939 12.8721 0.499939H35.2357C36.4442 0.499939 37.6033 0.979195 38.4576 1.83613L49.9546 13.3331C50.8115 14.1874 51.2907 15.3465 51.2907 16.555V49.3372ZM18.0814 46.0813H29.8024C30.8807 46.0813 31.7559 45.2062 31.7559 44.1278C31.7559 43.0495 30.8807 42.1744 29.8024 42.1744H18.0814C17.0031 42.1744 16.128 43.0495 16.128 44.1278C16.128 45.2062 17.0031 46.0813 18.0814 46.0813ZM18.0814 36.9651H38.9187C39.997 36.9651 40.8721 36.0899 40.8721 35.0116C40.8721 33.9332 39.997 33.0581 38.9187 33.0581H18.0814C17.0031 33.0581 16.128 33.9332 16.128 35.0116C16.128 36.0899 17.0031 36.9651 18.0814 36.9651ZM35.0117 5.05808V14.1744C35.0117 15.6121 36.1786 16.779 37.6163 16.779H46.7326L35.0117 5.05808ZM18.0814 27.8488H38.9187C39.997 27.8488 40.8721 26.9736 40.8721 25.8953C40.8721 24.817 39.997 23.9418 38.9187 23.9418H18.0814C17.0031 23.9418 16.128 24.817 16.128 25.8953C16.128 26.9736 17.0031 27.8488 18.0814 27.8488Z" fill="#00D6C9"/>
</g>
<defs>
<filter id="filter0_d_11748_55251" x="-3.5" y="0.499939" width="64" height="64.0001" filterUnits="userSpaceOnUse" color-interpolation-filters="sRGB">
<feFlood flood-opacity="0" result="BackgroundImageFix"/>
<feColorMatrix in="SourceAlpha" type="matrix" values="0 0 0 0 0 0 0 0 0 0 0 0 0 0 0 0 0 0 127 0" result="hardAlpha"/>
<feOffset dy="4"/>
<feGaussianBlur stdDeviation="2"/>
<feComposite in2="hardAlpha" operator="out"/>
<feColorMatrix type="matrix" values="0 0 0 0 0 0 0 0 0 0 0 0 0 0 0 0 0 0 0.15 0"/>
<feBlend mode="normal" in2="BackgroundImageFix" result="effect1_dropShadow_11748_55251"/>
<feBlend mode="normal" in="SourceGraphic" in2="effect1_dropShadow_11748_55251" result="shape"/>
</filter>
</defs>
</svg>
