<svg width="24" height="25" viewBox="0 0 24 25" fill="none" xmlns="http://www.w3.org/2000/svg">
<path fill-rule="evenodd" clip-rule="evenodd" d="M4.05153 20.4836C4.72378 21.1559 5.63523 21.534 6.58594 21.5352H17.4141C18.3648 21.534 19.2762 21.1559 19.9485 20.4836C20.6207 19.8114 20.9989 18.8999 21 17.9492V7.12109C20.9989 6.17039 20.6207 5.25894 19.9485 4.58669C19.2762 3.91443 18.3648 3.53627 17.4141 3.53516H6.58594C5.63523 3.53627 4.72378 3.91443 4.05153 4.58669C3.37928 5.25894 3.00112 6.17039 3 7.12109V17.9492C3.00112 18.8999 3.37928 19.8114 4.05153 20.4836ZM5.04539 5.58054C5.45401 5.17191 6.00805 4.94206 6.58594 4.94141H17.4141C17.992 4.94206 18.546 5.17191 18.9546 5.58054C19.3632 5.98917 19.5931 6.5432 19.5938 7.12109V17.9492C19.5931 18.5271 19.3632 19.0811 18.9546 19.4898C18.546 19.8984 17.992 20.1283 17.4141 20.1289H6.58594C6.00805 20.1283 5.45401 19.8984 5.04539 19.4898C4.63676 19.0811 4.4069 18.5271 4.40625 17.9492V7.12109C4.4069 6.5432 4.63676 5.98917 5.04539 5.58054ZM12.7031 7.69922V13.2391L14.5719 11.37C14.6372 11.3047 14.7147 11.2529 14.8 11.2176C14.8854 11.1823 14.9768 11.1641 15.0692 11.1641C15.1615 11.1641 15.253 11.1823 15.3383 11.2176C15.4236 11.2529 15.5011 11.3047 15.5665 11.37C15.6318 11.4353 15.6836 11.5129 15.7189 11.5982C15.7542 11.6835 15.7724 11.775 15.7724 11.8673C15.7724 11.9597 15.7542 12.0511 15.7189 12.1365C15.6836 12.2218 15.6318 12.2993 15.5665 12.3646L12.8397 15.091C12.7296 15.2016 12.5987 15.2893 12.4544 15.349C12.3102 15.4087 12.1556 15.4391 11.9995 15.4387C11.8434 15.4391 11.6888 15.4087 11.5446 15.349C11.4003 15.2893 11.2694 15.2016 11.1593 15.091L8.43254 12.3646C8.30066 12.2327 8.22656 12.0538 8.22656 11.8673C8.22656 11.6808 8.30066 11.5019 8.43254 11.37C8.56443 11.2382 8.74331 11.1641 8.92983 11.1641C9.11635 11.1641 9.29523 11.2382 9.42711 11.37L11.2969 13.2401V7.69922C11.2969 7.51274 11.371 7.3339 11.5028 7.20203C11.6347 7.07017 11.8135 6.99609 12 6.99609C12.1865 6.99609 12.3653 7.07017 12.4972 7.20203C12.629 7.3339 12.7031 7.51274 12.7031 7.69922ZM8.92969 18.0039H15.0694C15.2559 18.0039 15.4347 17.9298 15.5666 17.798C15.6984 17.6661 15.7725 17.4873 15.7725 17.3008C15.7725 17.1143 15.6984 16.9355 15.5666 16.8036C15.4347 16.6717 15.2559 16.5977 15.0694 16.5977H8.92969C8.74321 16.5977 8.56436 16.6717 8.4325 16.8036C8.30064 16.9355 8.22656 17.1143 8.22656 17.3008C8.22656 17.4873 8.30064 17.6661 8.4325 17.798C8.56436 17.9298 8.74321 18.0039 8.92969 18.0039Z" fill="#44544A"/>
<path d="M6.58594 21.5352L6.58564 21.7852H6.58594V21.5352ZM4.05153 20.4836L4.22831 20.3068H4.22831L4.05153 20.4836ZM17.4141 21.5352V21.7852H17.4144L17.4141 21.5352ZM19.9485 20.4836L19.7717 20.3068L19.9485 20.4836ZM21 17.9492L21.25 17.9495V17.9492H21ZM21 7.12109H21.25V7.1208L21 7.12109ZM19.9485 4.58669L19.7717 4.76346V4.76346L19.9485 4.58669ZM17.4141 3.53516L17.4144 3.28516H17.4141V3.53516ZM6.58594 3.53516V3.28516L6.58564 3.28516L6.58594 3.53516ZM4.05153 4.58669L3.87475 4.40991L3.87475 4.40991L4.05153 4.58669ZM3 7.12109L2.75 7.1208V7.12109H3ZM3 17.9492H2.75L2.75 17.9495L3 17.9492ZM6.58594 4.94141V4.69141L6.58566 4.69141L6.58594 4.94141ZM5.04539 5.58054L4.86861 5.40376L4.86861 5.40376L5.04539 5.58054ZM17.4141 4.94141L17.4143 4.69141H17.4141V4.94141ZM18.9546 5.58054L18.7778 5.75732V5.75732L18.9546 5.58054ZM19.5938 7.12109H19.8438V7.12081L19.5938 7.12109ZM19.5938 17.9492L19.8438 17.9495V17.9492H19.5938ZM18.9546 19.4898L18.7778 19.313L18.9546 19.4898ZM17.4141 20.1289V20.3789H17.4143L17.4141 20.1289ZM6.58594 20.1289L6.58566 20.3789H6.58594V20.1289ZM5.04539 19.4898L5.22216 19.313H5.22216L5.04539 19.4898ZM4.40625 17.9492H4.15625L4.15625 17.9495L4.40625 17.9492ZM4.40625 7.12109L4.15625 7.12081V7.12109H4.40625ZM12.7031 13.2391H12.4531V13.8427L12.8799 13.4158L12.7031 13.2391ZM14.5719 11.37L14.3951 11.1933L14.3951 11.1933L14.5719 11.37ZM14.8 11.2176L14.7044 10.9866H14.7044L14.8 11.2176ZM15.3383 11.2176L15.434 10.9866H15.434L15.3383 11.2176ZM15.5665 11.37L15.3897 11.5468V11.5468L15.5665 11.37ZM15.7189 11.5982L15.9499 11.5025V11.5025L15.7189 11.5982ZM15.5665 12.3646L15.7432 12.5414L15.7432 12.5414L15.5665 12.3646ZM12.8397 15.091L12.663 14.9142L12.6625 14.9146L12.8397 15.091ZM12.4544 15.349L12.55 15.58H12.55L12.4544 15.349ZM11.9995 15.4387L12.0002 15.1887L11.9987 15.1887L11.9995 15.4387ZM11.5446 15.349L11.449 15.58H11.449L11.5446 15.349ZM11.1593 15.091L11.3364 14.9146L11.336 14.9142L11.1593 15.091ZM8.43254 12.3646L8.25577 12.5414L8.25578 12.5414L8.43254 12.3646ZM8.43254 11.37L8.25577 11.1933L8.25577 11.1933L8.43254 11.37ZM9.42711 11.37L9.6039 11.1933L9.60389 11.1933L9.42711 11.37ZM11.2969 13.2401L11.1201 13.4168L11.5469 13.8437V13.2401H11.2969ZM11.5028 7.20203L11.326 7.02526V7.02526L11.5028 7.20203ZM12.4972 7.20203L12.674 7.02526V7.02526L12.4972 7.20203ZM15.5666 17.798L15.7433 17.9747V17.9747L15.5666 17.798ZM15.5666 16.8036L15.7433 16.6268V16.6268L15.5666 16.8036ZM8.4325 16.8036L8.60928 16.9804V16.9804L8.4325 16.8036ZM8.4325 17.798L8.60928 17.6212V17.6212L8.4325 17.798ZM6.58623 21.2852C5.70173 21.2841 4.85375 20.9323 4.22831 20.3068L3.87475 20.6604C4.59382 21.3795 5.56873 21.784 6.58564 21.7852L6.58623 21.2852ZM17.4141 21.2852H6.58594V21.7852H17.4141V21.2852ZM19.7717 20.3068C19.1463 20.9323 18.2983 21.2841 17.4138 21.2852L17.4144 21.7852C18.4313 21.784 19.4062 21.3795 20.1252 20.6604L19.7717 20.3068ZM20.75 17.9489C20.749 18.8334 20.3971 19.6814 19.7717 20.3068L20.1252 20.6604C20.8443 19.9413 21.2488 18.9664 21.25 17.9495L20.75 17.9489ZM20.75 7.12109V17.9492H21.25V7.12109H20.75ZM19.7717 4.76346C20.3971 5.3889 20.749 6.23688 20.75 7.12139L21.25 7.1208C21.2488 6.10389 20.8443 5.12897 20.1252 4.40991L19.7717 4.76346ZM17.4138 3.78516C18.2983 3.78619 19.1463 4.13802 19.7717 4.76346L20.1252 4.40991C19.4062 3.69085 18.4313 3.28635 17.4144 3.28516L17.4138 3.78516ZM6.58594 3.78516H17.4141V3.28516H6.58594V3.78516ZM4.22831 4.76346C4.85375 4.13802 5.70173 3.78619 6.58623 3.78516L6.58564 3.28516C5.56873 3.28635 4.59382 3.69085 3.87475 4.40991L4.22831 4.76346ZM3.25 7.12139C3.25104 6.23688 3.60287 5.3889 4.22831 4.76346L3.87475 4.40991C3.15569 5.12897 2.75119 6.10389 2.75 7.1208L3.25 7.12139ZM3.25 17.9492V7.12109H2.75V17.9492H3.25ZM4.22831 20.3068C3.60287 19.6814 3.25104 18.8334 3.25 17.9489L2.75 17.9495C2.75119 18.9664 3.15569 19.9413 3.87475 20.6604L4.22831 20.3068ZM6.58566 4.69141C5.94156 4.69213 5.32405 4.94832 4.86861 5.40376L5.22216 5.75732C5.58398 5.3955 6.07454 5.19198 6.58622 5.19141L6.58566 4.69141ZM17.4141 4.69141H6.58594V5.19141H17.4141V4.69141ZM19.1314 5.40376C18.6759 4.94832 18.0584 4.69213 17.4143 4.69141L17.4138 5.19141C17.9255 5.19198 18.416 5.3955 18.7778 5.75732L19.1314 5.40376ZM19.8438 7.12081C19.843 6.47672 19.5868 5.85921 19.1314 5.40376L18.7778 5.75732C19.1397 6.11913 19.3432 6.60969 19.3438 7.12138L19.8438 7.12081ZM19.8438 17.9492V7.12109H19.3438V17.9492H19.8438ZM19.1314 19.6665C19.5868 19.2111 19.843 18.5936 19.8438 17.9495L19.3438 17.9489C19.3432 18.4606 19.1397 18.9512 18.7778 19.313L19.1314 19.6665ZM17.4143 20.3789C18.0584 20.3782 18.6759 20.122 19.1314 19.6665L18.7778 19.313C18.416 19.6748 17.9255 19.8783 17.4138 19.8789L17.4143 20.3789ZM6.58594 20.3789H17.4141V19.8789H6.58594V20.3789ZM4.86861 19.6665C5.32405 20.122 5.94156 20.3782 6.58566 20.3789L6.58622 19.8789C6.07454 19.8783 5.58398 19.6748 5.22216 19.313L4.86861 19.6665ZM4.15625 17.9495C4.15698 18.5936 4.41316 19.2111 4.86861 19.6665L5.22216 19.313C4.86035 18.9512 4.65683 18.4606 4.65625 17.9489L4.15625 17.9495ZM4.15625 7.12109V17.9492H4.65625V7.12109H4.15625ZM4.86861 5.40376C4.41316 5.85921 4.15698 6.47672 4.15625 7.12081L4.65625 7.12138C4.65683 6.60969 4.86035 6.11913 5.22216 5.75732L4.86861 5.40376ZM12.9531 13.2391V7.69922H12.4531V13.2391H12.9531ZM14.3951 11.1933L12.5263 13.0623L12.8799 13.4158L14.7487 11.5468L14.3951 11.1933ZM14.7044 10.9866C14.5887 11.0345 14.4836 11.1047 14.3951 11.1933L14.7487 11.5468C14.7907 11.5047 14.8407 11.4713 14.8957 11.4486L14.7044 10.9866ZM15.0692 10.9141C14.944 10.9141 14.82 10.9387 14.7044 10.9866L14.8957 11.4486C14.9507 11.4258 15.0096 11.4141 15.0692 11.4141V10.9141ZM15.434 10.9866C15.3183 10.9387 15.1944 10.9141 15.0692 10.9141V11.4141C15.1287 11.4141 15.1876 11.4258 15.2426 11.4486L15.434 10.9866ZM15.7432 11.1933C15.6547 11.1047 15.5496 11.0345 15.434 10.9866L15.2426 11.4486C15.2976 11.4713 15.3476 11.5047 15.3897 11.5468L15.7432 11.1933ZM15.9499 11.5025C15.902 11.3869 15.8317 11.2818 15.7432 11.1933L15.3897 11.5468C15.4318 11.5889 15.4652 11.6389 15.4879 11.6939L15.9499 11.5025ZM16.0224 11.8673C16.0224 11.7421 15.9978 11.6182 15.9499 11.5025L15.4879 11.6939C15.5107 11.7489 15.5224 11.8078 15.5224 11.8673H16.0224ZM15.9499 12.2321C15.9978 12.1165 16.0224 11.9925 16.0224 11.8673H15.5224C15.5224 11.9269 15.5107 11.9858 15.4879 12.0408L15.9499 12.2321ZM15.7432 12.5414C15.8317 12.4529 15.902 12.3478 15.9499 12.2321L15.4879 12.0408C15.4652 12.0958 15.4318 12.1457 15.3897 12.1878L15.7432 12.5414ZM13.0165 15.2678L15.7432 12.5414L15.3897 12.1878L12.663 14.9142L13.0165 15.2678ZM12.55 15.58C12.7248 15.5077 12.8835 15.4014 13.0169 15.2674L12.6625 14.9146C12.5758 15.0018 12.4725 15.0709 12.3588 15.118L12.55 15.58ZM11.9987 15.6887C12.1879 15.6892 12.3753 15.6523 12.55 15.58L12.3588 15.118C12.2452 15.165 12.1233 15.189 12.0002 15.1887L11.9987 15.6887ZM11.449 15.58C11.6237 15.6523 11.8111 15.6892 12.0002 15.6887L11.9987 15.1887C11.8757 15.189 11.7538 15.165 11.6402 15.118L11.449 15.58ZM10.9821 15.2674C11.1155 15.4014 11.2742 15.5077 11.449 15.58L11.6402 15.118C11.5265 15.0709 11.4232 15.0018 11.3364 14.9146L10.9821 15.2674ZM8.25578 12.5414L10.9825 15.2678L11.336 14.9142L8.60931 12.1878L8.25578 12.5414ZM7.97656 11.8673C7.97656 12.1202 8.077 12.3626 8.25577 12.5414L8.60932 12.1878C8.52432 12.1028 8.47656 11.9875 8.47656 11.8673H7.97656ZM8.25577 11.1933C8.077 11.372 7.97656 11.6145 7.97656 11.8673H8.47656C8.47656 11.7471 8.52432 11.6318 8.60932 11.5468L8.25577 11.1933ZM8.92983 10.9141C8.67701 10.9141 8.43454 11.0145 8.25577 11.1933L8.60932 11.5468C8.69432 11.4618 8.80962 11.4141 8.92983 11.4141V10.9141ZM9.60389 11.1933C9.42512 11.0145 9.18265 10.9141 8.92983 10.9141V11.4141C9.05004 11.4141 9.16533 11.4618 9.25034 11.5468L9.60389 11.1933ZM11.4737 13.0633L9.6039 11.1933L9.25033 11.5468L11.1201 13.4168L11.4737 13.0633ZM11.0469 7.69922V13.2401H11.5469V7.69922H11.0469ZM11.326 7.02526C11.1473 7.204 11.0469 7.44643 11.0469 7.69922H11.5469C11.5469 7.57904 11.5946 7.46379 11.6796 7.37881L11.326 7.02526ZM12 6.74609C11.7472 6.74609 11.5048 6.84651 11.326 7.02526L11.6796 7.37881C11.7646 7.29383 11.8798 7.24609 12 7.24609V6.74609ZM12.674 7.02526C12.4952 6.84651 12.2528 6.74609 12 6.74609V7.24609C12.1202 7.24609 12.2354 7.29383 12.3204 7.37881L12.674 7.02526ZM12.9531 7.69922C12.9531 7.44643 12.8527 7.204 12.674 7.02526L12.3204 7.37881C12.4054 7.46379 12.4531 7.57904 12.4531 7.69922H12.9531ZM15.0694 17.7539H8.92969V18.2539H15.0694V17.7539ZM15.3898 17.6212C15.3048 17.7062 15.1896 17.7539 15.0694 17.7539V18.2539C15.3222 18.2539 15.5646 18.1535 15.7433 17.9747L15.3898 17.6212ZM15.5225 17.3008C15.5225 17.421 15.4748 17.5362 15.3898 17.6212L15.7433 17.9747C15.9221 17.796 16.0225 17.5536 16.0225 17.3008H15.5225ZM15.3898 16.9804C15.4748 17.0654 15.5225 17.1806 15.5225 17.3008H16.0225C16.0225 17.048 15.9221 16.8056 15.7433 16.6268L15.3898 16.9804ZM15.0694 16.8477C15.1896 16.8477 15.3048 16.8954 15.3898 16.9804L15.7433 16.6268C15.5646 16.4481 15.3222 16.3477 15.0694 16.3477V16.8477ZM8.92969 16.8477H15.0694V16.3477H8.92969V16.8477ZM8.60928 16.9804C8.69426 16.8954 8.80951 16.8477 8.92969 16.8477V16.3477C8.6769 16.3477 8.43447 16.4481 8.25573 16.6268L8.60928 16.9804ZM8.47656 17.3008C8.47656 17.1806 8.5243 17.0654 8.60928 16.9804L8.25573 16.6268C8.07698 16.8056 7.97656 17.048 7.97656 17.3008H8.47656ZM8.60928 17.6212C8.5243 17.5362 8.47656 17.421 8.47656 17.3008H7.97656C7.97656 17.5536 8.07698 17.796 8.25573 17.9747L8.60928 17.6212ZM8.92969 17.7539C8.80951 17.7539 8.69426 17.7062 8.60928 17.6212L8.25573 17.9747C8.43447 18.1535 8.6769 18.2539 8.92969 18.2539V17.7539Z" fill="#44544A"/>
</svg>
