<svg width="24" height="24" viewBox="0 0 24 24" fill="none" xmlns="http://www.w3.org/2000/svg">
<g clip-path="url(#clip0_418_33656)">
<path d="M12 10.5C12.4142 10.5 12.75 10.1642 12.75 9.75V2.3633L16.0166 5.11732C16.3333 5.38431 16.8065 5.34403 17.0734 5.02734C17.3404 4.71066 17.3001 4.2375 16.9835 3.97051L12.4835 0.176595C12.2042 -0.058865 11.7959 -0.058865 11.5166 0.176595L7.01658 3.97051C6.6999 4.2375 6.65962 4.71066 6.92661 5.02734C7.1936 5.34403 7.66674 5.38431 7.98347 5.11732L11.25 2.3633V9.75C11.25 10.1642 11.5858 10.5 12 10.5Z" fill="#1F515B"/>
<path d="M0 12C0 11.5858 0.335786 11.25 0.75 11.25H23.25C23.6642 11.25 24 11.5858 24 12C24 12.4142 23.6642 12.75 23.25 12.75H0.75C0.335786 12.75 0 12.4142 0 12Z" fill="#1F515B"/>
<path d="M11.25 14.25C11.25 13.8358 11.5858 13.5 12 13.5C12.4142 13.5 12.75 13.8358 12.75 14.25V21.6367L16.0166 18.8827C16.3333 18.6157 16.8065 18.656 17.0734 18.9727C17.3404 19.2893 17.3001 19.7625 16.9835 20.0295L12.4835 23.8234C12.2042 24.0589 11.7959 24.0589 11.5166 23.8234L7.01658 20.0295C6.6999 19.7625 6.65962 19.2893 6.92661 18.9727C7.1936 18.656 7.66674 18.6157 7.98347 18.8827L11.25 21.6367V14.25Z" fill="#1F515B"/>
</g>
<defs>
<clipPath id="clip0_418_33656">
<rect width="24" height="24" fill="white"/>
</clipPath>
</defs>
</svg>
