<svg width="17" height="18" viewBox="0 0 17 18" fill="none" xmlns="http://www.w3.org/2000/svg">
<path d="M1.68947 15.75V15.85H1.78947H5.36842H5.46842V15.75V12.15V12.05H5.36842H1.78947H1.68947V12.15V15.75ZM6.22273 6.24759L6.12893 6.4H6.30789H9.79737H9.97633L9.88253 6.24759L8.1378 3.41259L8.05263 3.27421L7.96747 3.41259L6.22273 6.24759ZM3.30934 8L8.05263 0.192595L12.7959 8H3.30934ZM12.9737 17.9C11.8817 17.9 10.9566 17.5167 10.1926 16.7482C9.42863 15.9798 9.04737 15.049 9.04737 13.95C9.04737 12.851 9.42863 11.9202 10.1926 11.1518C10.9566 10.3833 11.8817 10 12.9737 10C14.0657 10 14.9908 10.3833 15.7547 11.1518C16.5187 11.9202 16.9 12.851 16.9 13.95C16.9 15.049 16.5187 15.9798 15.7547 16.7482C14.9908 17.5167 14.0657 17.9 12.9737 17.9ZM0.1 17.45V10.45H7.05789V17.45H0.1ZM12.9737 16.3C13.626 16.3 14.1811 16.0723 14.6328 15.618C15.0844 15.1637 15.3105 14.6056 15.3105 13.95C15.3105 13.2944 15.0844 12.7363 14.6328 12.282C14.1811 11.8277 13.626 11.6 12.9737 11.6C12.3214 11.6 11.7663 11.8277 11.3146 12.282C10.863 12.7363 10.6368 13.2944 10.6368 13.95C10.6368 14.6056 10.863 15.1637 11.3146 15.618C11.7663 16.0723 12.3214 16.3 12.9737 16.3Z" fill="#44544A" stroke="#EFF5F2" stroke-width="0.2"/>
</svg>
