<svg width="18" height="18" viewBox="0 0 18 18" fill="none" xmlns="http://www.w3.org/2000/svg">
<path fill-rule="evenodd" clip-rule="evenodd" d="M3.83203 0C2.67008 0 1.72266 0.947424 1.72266 2.10938V15.8906C1.72266 17.0526 2.67008 18 3.83203 18H14.168C15.3299 18 16.2773 17.0526 16.2773 15.8906V5.55455C16.2773 4.90076 16.0174 4.27332 15.5551 3.81102L12.4663 0.722214C12.004 0.259914 11.3767 -1.54687e-07 10.7229 0H3.83203ZM10.5951 4.6352C11.1357 4.63522 11.6763 4.84041 12.0865 5.25064C12.9069 6.07113 12.9071 7.41336 12.0867 8.23378L9.65033 10.6701C9.16629 11.1541 8.36975 11.1541 7.88572 10.6701C7.8856 10.6699 7.88583 10.6702 7.88572 10.6701C7.40169 10.186 7.40134 9.38914 7.88537 8.90511L9.71267 7.07781C9.74858 7.0419 9.79121 7.01341 9.83813 6.99398C9.88505 6.97454 9.93534 6.96454 9.98612 6.96454C10.0369 6.96454 10.0872 6.97454 10.1341 6.99398C10.181 7.01341 10.2237 7.0419 10.2596 7.07781C10.2955 7.11372 10.324 7.15635 10.3434 7.20327C10.3628 7.25019 10.3729 7.30048 10.3729 7.35127C10.3729 7.40205 10.3628 7.45234 10.3434 7.49926C10.324 7.54618 10.2955 7.58881 10.2596 7.62473L8.43228 9.45203C8.24383 9.64048 8.24382 9.93429 8.43228 10.1227C8.43216 10.1226 8.4324 10.1229 8.43228 10.1227C8.62075 10.3112 8.91494 10.3116 9.10341 10.1232L11.5398 7.68688C12.0647 7.16201 12.0647 6.32276 11.5398 5.79785C11.015 5.27296 10.1755 5.27257 9.65067 5.79742L6.60526 8.84283C5.74397 9.70412 5.74397 11.0888 6.60526 11.9501C7.46654 12.8114 8.85131 12.8115 9.7126 11.9503L12.1488 9.51403C12.1847 9.47812 12.2274 9.44964 12.2743 9.4302C12.3212 9.41077 12.3715 9.40076 12.4223 9.40076C12.4731 9.40076 12.5234 9.41077 12.5703 9.4302C12.6172 9.44964 12.6598 9.47812 12.6957 9.51403C12.7316 9.54994 12.7601 9.59258 12.7796 9.6395C12.799 9.68642 12.809 9.7367 12.809 9.78749C12.809 9.83828 12.799 9.88857 12.7796 9.93548C12.7601 9.9824 12.7316 10.025 12.6957 10.0609L10.2595 12.4972C9.10266 13.654 7.21527 13.654 6.05841 12.4972C4.90155 11.3403 4.90148 9.45278 6.05834 8.29592L9.10375 5.25051C9.51397 4.84029 10.0546 4.63518 10.5951 4.6352Z" fill="#52F990"/>
</svg>
