<svg width="36" height="36" viewBox="0 0 36 36" fill="none" xmlns="http://www.w3.org/2000/svg">
<path d="M30.4453 17.6016H16.8118C16.3424 15.7841 14.6887 14.4375 12.7266 14.4375C10.7645 14.4375 9.11076 15.7841 8.6413 17.6016H5.55469C4.97214 17.6016 4.5 18.0737 4.5 18.6562C4.5 19.2388 4.97214 19.7109 5.55469 19.7109H8.6413C9.11076 21.5284 10.7645 22.875 12.7266 22.875C14.6887 22.875 16.3424 21.5284 16.8118 19.7109H30.4453C31.0279 19.7109 31.5 19.2388 31.5 18.6562C31.5 18.0737 31.0279 17.6016 30.4453 17.6016ZM12.7266 20.7656C11.5635 20.7656 10.6172 19.8193 10.6172 18.6562C10.6172 17.4932 11.5635 16.5469 12.7266 16.5469C13.8896 16.5469 14.8359 17.4932 14.8359 18.6562C14.8359 19.8193 13.8896 20.7656 12.7266 20.7656ZM5.55469 11.2734H19.1882C19.6576 13.0909 21.3113 14.4375 23.2734 14.4375C25.2355 14.4375 26.8892 13.0909 27.3587 11.2734H30.4453C31.0279 11.2734 31.5 10.8013 31.5 10.2188C31.5 9.6362 31.0279 9.16406 30.4453 9.16406H27.3587C26.8892 7.34658 25.2357 6 23.2734 6C21.3111 6 19.6576 7.34658 19.1882 9.16406H5.55469C4.97214 9.16406 4.5 9.6362 4.5 10.2188C4.5 10.8013 4.97214 11.2734 5.55469 11.2734ZM23.2734 8.10938C24.4365 8.10938 25.3828 9.05571 25.3828 10.2188C25.3828 11.3818 24.4365 12.3281 23.2734 12.3281C22.1104 12.3281 21.1641 11.3818 21.1641 10.2188C21.1641 9.05571 22.1104 8.10938 23.2734 8.10938ZM30.4453 26.0391H27.3587C26.8892 24.2216 25.2357 22.875 23.2734 22.875C21.3111 22.875 19.6576 24.2216 19.1882 26.0391H5.55469C4.97214 26.0391 4.5 26.5112 4.5 27.0938C4.5 27.6763 4.97214 28.1484 5.55469 28.1484H19.1882C19.6576 29.9659 21.3113 31.3125 23.2734 31.3125C25.2355 31.3125 26.8892 29.9659 27.3587 28.1484H30.4453C31.0279 28.1484 31.5 27.6763 31.5 27.0938C31.5 26.5112 31.0279 26.0391 30.4453 26.0391ZM23.2734 29.2031C22.1104 29.2031 21.1641 28.2568 21.1641 27.0938C21.1641 25.9307 22.1104 24.9844 23.2734 24.9844C24.4365 24.9844 25.3828 25.9307 25.3828 27.0938C25.3828 28.2568 24.4365 29.2031 23.2734 29.2031Z" fill="#1F515B"/>
</svg>
