<svg width="24" height="24" viewBox="0 0 24 24" fill="none" xmlns="http://www.w3.org/2000/svg">
<path d="M20.2469 7.81031L20.2465 19.5C20.2465 19.6989 20.1675 19.8897 20.0268 20.0303C19.8861 20.171 19.6954 20.25 19.4965 20.25H4.49646C4.29755 20.25 4.10679 20.171 3.96614 20.0303C3.82549 19.8897 3.74648 19.6989 3.74649 19.5L3.74704 4.5C3.74705 4.30109 3.82607 4.11032 3.96673 3.96967C4.10739 3.82902 4.29816 3.75 4.49707 3.75H16.1868C16.3854 3.75009 16.5759 3.82899 16.7164 3.96938L20.0276 7.28063C20.1679 7.42117 20.2468 7.61166 20.2469 7.81031Z" stroke="#006D35" stroke-width="1.5" stroke-linecap="round" stroke-linejoin="round"/>
<path d="M7.49682 20.25L7.49704 14.25C7.49705 14.0511 7.57607 13.8603 7.71673 13.7197C7.85739 13.579 8.04816 13.5 8.24707 13.5H15.7471C15.946 13.5 16.1367 13.579 16.2774 13.7197C16.418 13.8603 16.497 14.0511 16.497 14.25L16.4968 20.25" stroke="#006D35" stroke-width="1.5" stroke-linecap="round" stroke-linejoin="round"/>
<path d="M14.2471 6.75H8.99707" stroke="#006D35" stroke-width="1.5" stroke-linecap="round" stroke-linejoin="round"/>
</svg>
