<svg width="46" height="46" viewBox="0 0 46 46" fill="none" xmlns="http://www.w3.org/2000/svg">
<path d="M20.3783 7.27601L24.0724 15.7835C23.3737 16.1527 22.7111 16.5399 22.0845 16.9454C21.4643 17.3467 20.8794 17.8011 20.3299 18.3085L15.6327 7.23657L15.6198 7.2061H15.5867H10.1867H10.1537L10.1407 7.23651L4.96572 19.3865L4.96172 19.3959V19.4061V36.5061V36.5561H5.01172H14.5348C14.722 37.3331 14.9728 38.101 15.2874 38.8596C15.5952 39.6019 15.9639 40.3007 16.3937 40.9561H5.01172C3.78758 40.9561 2.7409 40.5208 1.86895 39.6489C0.997001 38.7769 0.561719 37.7302 0.561719 36.5061V19.4061C0.561719 19.1092 0.589547 18.8123 0.645237 18.5153C0.700854 18.2187 0.784278 17.9219 0.89559 17.6248L5.39507 7.27604L5.42548 7.2061H5.34922H5.01172C4.38681 7.2061 3.86536 6.99528 3.44395 6.57387C3.02254 6.15246 2.81172 5.63101 2.81172 5.0061V2.7561C2.81172 2.13119 3.02254 1.60974 3.44395 1.18833C3.86536 0.766923 4.38681 0.556104 5.01172 0.556104H20.7617C21.3866 0.556104 21.9081 0.766923 22.3295 1.18833C22.7509 1.60974 22.9617 2.13119 22.9617 2.7561V5.0061C22.9617 5.63101 22.7509 6.15246 22.3295 6.57387C21.9081 6.99528 21.3866 7.2061 20.7617 7.2061H20.4242H20.348L20.3783 7.27601ZM31.9617 16.2059C30.4215 16.1945 29.1197 15.6558 28.0533 14.5895C26.9754 13.5116 26.4367 12.1932 26.4367 10.6311C26.4367 9.069 26.9754 7.75058 28.0533 6.67271C29.1197 5.60635 30.4215 5.06768 31.9617 5.05629V16.2059ZM43.2115 16.2061H32.0619C32.0733 14.6658 32.612 13.3641 33.6783 12.2977C34.7562 11.2198 36.0746 10.6811 37.6367 10.6811C39.1988 10.6811 40.5172 11.2198 41.5951 12.2977C42.6614 13.3641 43.2001 14.6658 43.2115 16.2061ZM32.0117 45.4561C28.2748 45.4561 25.1001 44.1487 22.4846 41.5332C19.869 38.9177 18.5617 35.743 18.5617 32.0061C18.5617 28.2692 19.869 25.0945 22.4846 22.4789C25.1001 19.8634 28.2748 18.5561 32.0117 18.5561C35.7486 18.5561 38.9233 19.8634 41.5388 22.4789C44.1544 25.0945 45.4617 28.2692 45.4617 32.0061C45.4617 35.743 44.1544 38.9177 41.5388 41.5332C38.9233 44.1487 35.7486 45.4561 32.0117 45.4561ZM32.0117 41.0561C34.5001 41.0561 36.6315 40.1695 38.4033 38.3977C40.1751 36.6259 41.0617 34.4945 41.0617 32.0061C41.0617 29.5177 40.1751 27.3863 38.4033 25.6145C36.6315 23.8427 34.5001 22.9561 32.0117 22.9561C29.5233 22.9561 27.3919 23.8427 25.6201 25.6145C23.8483 27.3863 22.9617 29.5177 22.9617 32.0061C22.9617 34.4945 23.8483 36.6259 25.6201 38.3977C27.3919 40.1695 29.5233 41.0561 32.0117 41.0561Z" fill="#FA6140" stroke="#E1F9ED" stroke-width="0.1"/>
</svg>
