<svg width="24" height="24" viewBox="0 0 24 24" fill="none" xmlns="http://www.w3.org/2000/svg">
<mask id="mask0_10700_10807" style="mask-type:alpha" maskUnits="userSpaceOnUse" x="0" y="0" width="24" height="24">
<rect width="24" height="24" fill="#D9D9D9"/>
</mask>
<g mask="url(#mask0_10700_10807)">
<path d="M4 19V7L12 1L20 7V9.3C19.6833 9.2 19.3583 9.125 19.025 9.075C18.6917 9.025 18.35 9 18 9V8L12 3.5L6 8V17H11.075C11.125 17.35 11.2 17.6917 11.3 18.025C11.4 18.3583 11.525 18.6833 11.675 19H4Z" fill="black"/>
</g>
<mask id="mask1_10700_10807" style="mask-type:alpha" maskUnits="userSpaceOnUse" x="0" y="0" width="24" height="24">
<rect width="24" height="24" fill="#D9D9D9"/>
</mask>
<g mask="url(#mask1_10700_10807)">
<path d="M4 19V7L12 1L20 7V9.3C19.6833 9.2 19.3583 9.125 19.025 9.075C18.6917 9.025 18.35 9 18 9V8L12 3.5L6 8V17H11.075C11.125 17.35 11.2 17.6917 11.3 18.025C11.4 18.3583 11.525 18.6833 11.675 19H4Z" fill="black"/>
</g>
<mask id="mask2_10700_10807" style="mask-type:alpha" maskUnits="userSpaceOnUse" x="10" y="9" width="12" height="12">
<rect x="10" y="9" width="12" height="11.4286" fill="#D9D9D9"/>
</mask>
<g mask="url(#mask2_10700_10807)">
<path d="M13.25 14.774C12.9 14.774 12.6042 14.6589 12.3625 14.4288C12.1208 14.1986 12 13.9169 12 13.5835C12 13.2502 12.1208 12.9684 12.3625 12.7383C12.6042 12.5081 12.9 12.393 13.25 12.393C13.6 12.393 13.8958 12.5081 14.1375 12.7383C14.3792 12.9684 14.5 13.2502 14.5 13.5835C14.5 13.9169 14.3792 14.1986 14.1375 14.4288C13.8958 14.6589 13.6 14.774 13.25 14.774ZM15.5 12.8692C15.15 12.8692 14.8542 12.7542 14.6125 12.524C14.3708 12.2938 14.25 12.0121 14.25 11.6788C14.25 11.3454 14.3708 11.0637 14.6125 10.8335C14.8542 10.6034 15.15 10.4883 15.5 10.4883C15.85 10.4883 16.1458 10.6034 16.3875 10.8335C16.6292 11.0637 16.75 11.3454 16.75 11.6788C16.75 12.0121 16.6292 12.2938 16.3875 12.524C16.1458 12.7542 15.85 12.8692 15.5 12.8692ZM18.5 12.8692C18.15 12.8692 17.8542 12.7542 17.6125 12.524C17.3708 12.2938 17.25 12.0121 17.25 11.6788C17.25 11.3454 17.3708 11.0637 17.6125 10.8335C17.8542 10.6034 18.15 10.4883 18.5 10.4883C18.85 10.4883 19.1458 10.6034 19.3875 10.8335C19.6292 11.0637 19.75 11.3454 19.75 11.6788C19.75 12.0121 19.6292 12.2938 19.3875 12.524C19.1458 12.7542 18.85 12.8692 18.5 12.8692ZM20.75 14.774C20.4 14.774 20.1042 14.6589 19.8625 14.4288C19.6208 14.1986 19.5 13.9169 19.5 13.5835C19.5 13.2502 19.6208 12.9684 19.8625 12.7383C20.1042 12.5081 20.4 12.393 20.75 12.393C21.1 12.393 21.3958 12.5081 21.6375 12.7383C21.8792 12.9684 22 13.2502 22 13.5835C22 13.9169 21.8792 14.1986 21.6375 14.4288C21.3958 14.6589 21.1 14.774 20.75 14.774ZM14.325 19.5359C13.95 19.5359 13.6354 19.399 13.3813 19.1252C13.1271 18.8514 13 18.528 13 18.1549C13 17.7422 13.1479 17.3811 13.4438 17.0716C13.7396 16.7621 14.0333 16.4565 14.325 16.1549C14.5667 15.9089 14.775 15.6411 14.95 15.3514C15.125 15.0617 15.3333 14.7899 15.575 14.5359C15.7583 14.3296 15.9708 14.1589 16.2125 14.024C16.4542 13.8891 16.7167 13.8216 17 13.8216C17.2833 13.8216 17.5458 13.8851 17.7875 14.0121C18.0292 14.1391 18.2417 14.3057 18.425 14.5121C18.6583 14.7661 18.8646 15.0399 19.0438 15.3335C19.2229 15.6272 19.4333 15.901 19.675 16.1549C19.9667 16.4565 20.2604 16.7621 20.5563 17.0716C20.8521 17.3811 21 17.7422 21 18.1549C21 18.528 20.8729 18.8514 20.6188 19.1252C20.3646 19.399 20.05 19.5359 19.675 19.5359C19.225 19.5359 18.7792 19.5002 18.3375 19.4288C17.8958 19.3573 17.45 19.3216 17 19.3216C16.55 19.3216 16.1042 19.3573 15.6625 19.4288C15.2208 19.5002 14.775 19.5359 14.325 19.5359Z" fill="black"/>
</g>
</svg>
