<svg width="24" height="25" viewBox="0 0 24 25" fill="none" xmlns="http://www.w3.org/2000/svg">
<path d="M14.1891 22.5H6.65545C4.91549 22.5 3.5 21.0982 3.5 19.375V8.78906C3.5 7.06589 4.91549 5.66406 6.65545 5.66406H14.1891C15.9291 5.66406 17.3445 7.06589 17.3445 8.78906V19.375C17.3445 21.0982 15.9291 22.5 14.1891 22.5ZM6.65545 7.22656C5.78555 7.22656 5.07773 7.92755 5.07773 8.78906V19.375C5.07773 20.2365 5.78555 20.9375 6.65545 20.9375H14.1891C15.059 20.9375 15.7668 20.2365 15.7668 19.375V8.78906C15.7668 7.92755 15.059 7.22656 14.1891 7.22656H6.65545ZM20.5 17.4219V5.625C20.5 3.90182 19.0845 2.5 17.3445 2.5H8.58817C8.15244 2.5 7.7993 2.84973 7.7993 3.28125C7.7993 3.71277 8.15244 4.0625 8.58817 4.0625H17.3445C18.2145 4.0625 18.9223 4.76349 18.9223 5.625V17.4219C18.9223 17.8534 19.2754 18.2031 19.7111 18.2031C20.1469 18.2031 20.5 17.8534 20.5 17.4219Z" fill="#44544A" stroke="#44544A" stroke-width="0.5"/>
</svg>
