<svg width="18" height="22" viewBox="0 0 18 22" fill="none" xmlns="http://www.w3.org/2000/svg">
<path fill-rule="evenodd" clip-rule="evenodd" d="M13.2578 14.5H6.25781C6.25781 14.5 5.50781 14.443 5.50781 13.738V12.75C5.50781 11.623 5.95581 10.542 6.75281 9.745C7.54981 8.948 8.63081 8.5 9.75781 8.5C10.8848 8.5 11.9658 8.948 12.7628 9.745C13.5598 10.542 14.0078 11.623 14.0078 12.75V13.738C14.0078 14.443 13.2578 14.5 13.2578 14.5ZM7.00781 13H12.5078V12.75C12.5078 12.021 12.2178 11.321 11.7028 10.805C11.1868 10.29 10.4868 10 9.75781 10C9.02881 10 8.32881 10.29 7.81281 10.805C7.29781 11.321 7.00781 12.021 7.00781 12.75V13Z" fill="#1F515B"/>
<path fill-rule="evenodd" clip-rule="evenodd" d="M14.2422 13C14.6562 13 14.9922 13.336 14.9922 13.75C14.9922 14.164 14.6562 14.5 14.2422 14.5H5.24219C4.82819 14.5 4.49219 14.164 4.49219 13.75C4.49219 13.336 4.82819 13 5.24219 13H14.2422Z" fill="#1F515B"/>
<path fill-rule="evenodd" clip-rule="evenodd" d="M10.4844 9.25C10.4844 9.664 10.1484 10 9.73437 10C9.32037 10 8.98438 9.664 8.98438 9.25V8.25C8.98438 7.836 9.32037 7.5 9.73437 7.5C10.1484 7.5 10.4844 7.836 10.4844 8.25V9.25Z" fill="#1F515B"/>
<path fill-rule="evenodd" clip-rule="evenodd" d="M17.9844 2V20C17.9844 20.464 17.8004 20.909 17.4714 21.237C17.1434 21.566 16.6984 21.75 16.2344 21.75H3.23437C2.77037 21.75 2.32537 21.566 1.99737 21.237C1.66837 20.909 1.48438 20.464 1.48438 20V2C1.48438 1.536 1.66837 1.091 1.99737 0.763C2.32537 0.434 2.77037 0.25 3.23437 0.25H16.2344C16.6984 0.25 17.1434 0.434 17.4714 0.763C17.8004 1.091 17.9844 1.536 17.9844 2ZM16.4844 2C16.4844 1.934 16.4584 1.87 16.4114 1.823C16.3644 1.776 16.3004 1.75 16.2344 1.75H3.23437C3.16837 1.75 3.10437 1.776 3.05737 1.823C3.01037 1.87 2.98437 1.934 2.98437 2V20C2.98437 20.066 3.01037 20.13 3.05737 20.177C3.10437 20.224 3.16837 20.25 3.23437 20.25H16.2344C16.3004 20.25 16.3644 20.224 16.4114 20.177C16.4584 20.13 16.4844 20.066 16.4844 20V2Z" fill="#1F515B"/>
<path fill-rule="evenodd" clip-rule="evenodd" d="M2.25 3.25C2.664 3.25 3 3.586 3 4C3 4.414 2.664 4.75 2.25 4.75H0.75C0.336 4.75 0 4.414 0 4C0 3.586 0.336 3.25 0.75 3.25H2.25Z" fill="#1F515B"/>
<path fill-rule="evenodd" clip-rule="evenodd" d="M2.25 10.25C2.664 10.25 3 10.586 3 11C3 11.414 2.664 11.75 2.25 11.75H0.75C0.336 11.75 0 11.414 0 11C0 10.586 0.336 10.25 0.75 10.25H2.25Z" fill="#1F515B"/>
<path fill-rule="evenodd" clip-rule="evenodd" d="M2.25 17.25C2.664 17.25 3 17.586 3 18C3 18.414 2.664 18.75 2.25 18.75H0.75C0.336 18.75 0 18.414 0 18C0 17.586 0.336 17.25 0.75 17.25H2.25Z" fill="#1F515B"/>
</svg>
