<svg width="20" height="20" viewBox="0 0 20 20" fill="none" xmlns="http://www.w3.org/2000/svg">
<mask id="mask0_53017_92200" style="mask-type:alpha" maskUnits="userSpaceOnUse" x="1" y="1" width="18" height="18">
<rect x="1.66602" y="1.66602" width="16.6667" height="16.6667" fill="#1F515B"/>
</mask>
<g mask="url(#mask0_53017_92200)">
<path d="M9.99588 16.9455C9.03523 16.9455 8.21636 16.607 7.53928 15.9299C6.8622 15.2528 6.52365 14.434 6.52365 13.4733V7.22331C6.14171 7.22331 5.81474 7.08731 5.54275 6.81532C5.27076 6.54333 5.13477 6.21636 5.13477 5.83442V4.44553C5.13477 4.06359 5.27076 3.73662 5.54275 3.46463C5.81474 3.19264 6.14171 3.05664 6.52365 3.05664H13.4681C13.85 3.05664 14.177 3.19264 14.449 3.46463C14.721 3.73662 14.857 4.06359 14.857 4.44553V5.83442C14.857 6.21636 14.721 6.54333 14.449 6.81532C14.177 7.08731 13.85 7.22331 13.4681 7.22331V13.4733C13.4681 14.434 13.1296 15.2528 12.4525 15.9299C11.7754 16.607 10.9565 16.9455 9.99588 16.9455ZM6.52365 5.83442H13.4681V4.44553H6.52365V5.83442ZM9.99588 15.5566C10.4473 15.5566 10.8524 15.4264 11.2112 15.166C11.57 14.9056 11.8188 14.5728 11.9577 14.1678H9.99588V12.7789H12.0792V12.0844H9.99588V10.6955H12.0792V10.0011H9.99588V8.6122H12.0792V7.22331H7.91254V13.4733C7.91254 14.052 8.11509 14.5439 8.52018 14.949C8.92528 15.3541 9.41717 15.5566 9.99588 15.5566Z" fill="#44544A"/>
</g>
</svg>
