<svg width="20" height="23" viewBox="0 0 20 23" fill="none" xmlns="http://www.w3.org/2000/svg">
<g filter="url(#filter0_d_35257_106575)">
<path d="M17.4811 6.01518L17.4811 17.4684C17.4811 17.8007 17.4138 18.1299 17.2829 18.437C17.1521 18.744 16.9603 19.0231 16.7185 19.2581C16.4768 19.4931 16.1898 19.6796 15.8739 19.8067C15.558 19.9339 15.2195 19.9994 14.8776 19.9994H5.12306C4.78116 19.9994 4.44261 19.9339 4.12673 19.8067C3.81086 19.6796 3.52385 19.4931 3.28209 19.2581C3.04033 19.0231 2.84855 18.744 2.71771 18.437C2.58687 18.1299 2.51953 17.8007 2.51953 17.4684V2.53104C2.51953 2.19866 2.58687 1.86953 2.71771 1.56245C2.84855 1.25537 3.04033 0.976349 3.28209 0.741321C3.52385 0.506292 3.81086 0.319858 4.12673 0.192662C4.44261 0.0654655 4.78116 -1.01328e-06 5.12306 0L11.3244 1.96313e-05L17.4811 6.01518Z" fill="#FA6140"/>
<path d="M11.1048 5.1771C9.93979 3.521 11.0952 1.55075 11.5944 0.265625L17.4812 6.01591V17.4694C17.4816 18.8678 16.3155 20.0016 14.877 20.0013C15.6765 20.0013 15.8598 17.5152 15.8516 16.2721L15.7547 8.62731C15.7547 7.84221 15.1471 7.01778 14.4085 6.75624C13.2513 6.3465 11.4075 5.63643 11.1048 5.1771Z" fill="black" fill-opacity="0.1"/>
<path d="M11.3238 0L10.5148 3.1618C10.461 3.37212 10.4523 3.59105 10.4893 3.8048C10.5264 4.01855 10.6083 4.22249 10.73 4.40379C10.8516 4.58509 11.0104 4.73981 11.1963 4.85822C11.3821 4.97662 11.5911 5.05615 11.8099 5.09179L17.4805 6.01516L11.3238 0Z" fill="#FF8080"/>
<path d="M10.0153 5.92188C9.58438 5.92803 9.28455 6.20212 9.13905 6.36579C8.80163 6.74532 8.78619 7.26554 8.89902 7.76982C9.01185 8.27409 9.25348 8.81086 9.54825 9.35459C9.58134 9.41562 9.61798 9.45684 9.65237 9.51798C9.0596 10.5968 8.24422 11.7712 7.53258 12.7078C6.60865 12.9274 5.72434 13.0352 5.19301 13.6332C4.74813 14.1346 4.71721 14.8963 5.19301 15.3394C5.39999 15.5212 5.68956 15.6132 5.94203 15.6171C6.17913 15.6143 6.38148 15.5468 6.54355 15.4479C7.16471 15.0687 7.5692 14.2634 8.01699 13.3324L11.6478 12.4866C12.1925 13.1618 12.7594 13.8236 13.435 14.0323C13.7483 14.129 14.079 14.1176 14.3749 14.0106C14.6707 13.9036 14.9472 13.692 15.0733 13.3657C15.2933 12.773 15.0507 12.1163 14.4833 11.8198C14.0429 11.5822 13.494 11.5417 12.8826 11.5682C12.5703 11.5818 12.2402 11.6152 11.9052 11.6637C11.5092 11.0602 10.9762 10.2626 10.5113 9.48604C10.784 8.94475 11.0208 8.41197 11.1229 7.92295C11.2369 7.37697 11.2141 6.8392 10.9046 6.42493C10.6825 6.07402 10.3437 5.92416 10.0153 5.92188ZM10.3132 6.85741C10.4479 7.03122 10.4936 7.3279 10.4014 7.76982C10.3501 8.01538 10.1766 8.34499 10.0515 8.64462C9.87192 8.27474 9.6838 7.89555 9.61911 7.60642C9.53229 7.21839 9.59194 7.00327 9.69141 6.85741C9.76128 6.74329 9.856 6.67334 9.99181 6.66551C10.1349 6.65752 10.2297 6.74979 10.3132 6.85741ZM10.089 10.2019C10.437 10.7563 10.8074 11.333 11.1099 11.8012L8.68068 12.3911C9.17066 11.6478 9.68476 10.8894 10.089 10.2019ZM14.1291 12.4692C14.3962 12.6133 14.4765 12.8416 14.3792 13.0982C14.2878 13.3346 13.8475 13.3982 13.6533 13.3281C13.3897 13.2467 12.9648 12.758 12.5761 12.355C12.6836 12.3283 12.8143 12.3102 12.9159 12.3058C13.3068 12.2886 13.7644 12.2978 14.1291 12.4692ZM6.87033 13.7315C6.61326 14.1494 6.32372 14.7171 6.15458 14.8203C5.98733 14.9354 5.79425 14.8925 5.6962 14.7929C5.56069 14.6622 5.53734 14.3672 5.75115 14.1263C5.96904 13.9167 6.28035 13.829 6.87033 13.7315Z" fill="white"/>
</g>
<defs>
<filter id="filter0_d_35257_106575" x="-1.42857" y="0" width="22.8571" height="22.8571" filterUnits="userSpaceOnUse" color-interpolation-filters="sRGB">
<feFlood flood-opacity="0" result="BackgroundImageFix"/>
<feColorMatrix in="SourceAlpha" type="matrix" values="0 0 0 0 0 0 0 0 0 0 0 0 0 0 0 0 0 0 127 0" result="hardAlpha"/>
<feOffset dy="1.42857"/>
<feGaussianBlur stdDeviation="0.714286"/>
<feComposite in2="hardAlpha" operator="out"/>
<feColorMatrix type="matrix" values="0 0 0 0 0 0 0 0 0 0 0 0 0 0 0 0 0 0 0.15 0"/>
<feBlend mode="normal" in2="BackgroundImageFix" result="effect1_dropShadow_35257_106575"/>
<feBlend mode="normal" in="SourceGraphic" in2="effect1_dropShadow_35257_106575" result="shape"/>
</filter>
</defs>
</svg>
