<svg width="20" height="20" viewBox="0 0 20 20" fill="none" xmlns="http://www.w3.org/2000/svg">
<g clip-path="url(#clip0_35257_106566)">
<path d="M12.7019 0.279833L12.7023 0.280195L17.6267 5.44599C17.677 5.50335 17.7008 5.56596 17.7008 5.61491V17.3299C17.7008 18.6309 16.625 19.7032 15.3228 19.7032H4.73349C3.43131 19.7032 2.35547 18.6309 2.35547 17.3299V2.57627C2.35547 1.27542 3.4313 0.203125 4.73349 0.203125H12.5355C12.5914 0.203125 12.6533 0.22859 12.7019 0.279833ZM13.2043 1.48602L12.7733 1.03355V1.65845V3.97245C12.7733 4.74957 13.4036 5.3722 14.1779 5.3722H16.3229H16.9063L16.5039 4.94977L13.2043 1.48602ZM12.3071 0.919313V0.669313H12.0571H4.73349C3.6877 0.669313 2.82166 1.5344 2.82166 2.57627V17.3299C2.82166 18.3777 3.69352 19.237 4.73349 19.237H15.3228C16.3681 19.237 17.2346 18.3772 17.2346 17.3299V6.08839V5.83839H16.9846H14.1779C13.1414 5.83839 12.3071 5.00749 12.3071 3.97245V0.919313Z" fill="#006D35" stroke="#006D35" stroke-width="0.5"/>
<path d="M6.05341 15.9062H14.0051C14.1392 15.9062 14.2431 16.0133 14.2431 16.1393C14.2431 16.2669 14.1375 16.3724 14.01 16.3724H6.05341C5.92582 16.3724 5.82031 16.2669 5.82031 16.1393C5.82031 16.0117 5.92577 15.9062 6.05341 15.9062Z" fill="#006D35" stroke="#006D35" stroke-width="0.5"/>
<path d="M12.6842 10.2881L10.695 8.14918L10.262 7.68351V8.31943V13.5949C10.262 13.7225 10.1565 13.828 10.0289 13.828C9.90128 13.828 9.79577 13.7224 9.79577 13.5949V8.31943V7.68351L9.3627 8.14918L7.37341 10.2882C7.28324 10.3823 7.1351 10.3903 7.03344 10.2993C6.94109 10.2128 6.93676 10.0642 7.02176 9.9748L7.02345 9.973L9.85348 6.93536C9.90108 6.88559 9.96214 6.85938 10.0241 6.85938C10.0859 6.85938 10.147 6.88552 10.1949 6.93545L13.0248 9.973L13.0248 9.97301L13.0265 9.9748C13.1105 10.0632 13.1092 10.2095 13.0113 10.3024C12.9687 10.3428 12.9105 10.3642 12.8549 10.3642C12.7952 10.3642 12.7347 10.3406 12.6842 10.2881Z" fill="#006D35" stroke="#006D35" stroke-width="0.5"/>
</g>
<defs>
<clipPath id="clip0_35257_106566">
<rect width="20" height="20" fill="white"/>
</clipPath>
</defs>
</svg>
