<svg width="16" height="17" viewBox="0 0 16 17" fill="none" xmlns="http://www.w3.org/2000/svg">
<rect width="16" height="16" rx="8" transform="matrix(1 0 -3.68913e-05 1 0 0.5)" fill="#006D35"/>
<path d="M7.99967 13C7.84967 13 7.70592 12.9729 7.56842 12.9187C7.43092 12.8646 7.30801 12.7833 7.19968 12.675L3.8498 9.3125C3.55815 9.02083 3.34358 8.6875 3.20609 8.3125C3.0686 7.9375 2.99987 7.54583 2.99988 7.1375C2.99992 6.27917 3.27911 5.54167 3.83747 4.925C4.39582 4.30833 5.09167 4 5.925 4C6.325 4 6.70208 4.07917 7.05624 4.2375C7.4104 4.39583 7.72498 4.61667 7.99997 4.9C8.26664 4.61667 8.57707 4.39583 8.93124 4.2375C9.28541 4.07917 9.6625 4 10.0625 4C10.8958 4 11.5937 4.30833 12.1562 4.925C12.7187 5.54167 12.9999 6.275 12.9999 7.125C12.9999 7.53333 12.929 7.925 12.7873 8.3C12.6457 8.675 12.4331 9.00833 12.1498 9.3L8.78718 12.675C8.67884 12.7833 8.55801 12.8646 8.42467 12.9187C8.29134 12.9729 8.14967 13 7.99967 13ZM8.49991 6.5C8.58324 6.5 8.66241 6.52083 8.73741 6.5625C8.8124 6.60417 8.87074 6.65833 8.9124 6.725L9.76235 8H11.8374C11.8957 7.85833 11.9394 7.71458 11.9686 7.56875C11.9978 7.42292 12.0124 7.275 12.0124 7.125C11.9957 6.55 11.8041 6.05625 11.4374 5.64375C11.0708 5.23125 10.6125 5.025 10.0625 5.025C9.80413 5.025 9.55621 5.075 9.31871 5.175C9.0812 5.275 8.87495 5.42083 8.69994 5.6125L8.36243 5.975C8.32076 6.025 8.26659 6.06458 8.19992 6.09375C8.13326 6.12292 8.06659 6.1375 7.99992 6.1375C7.93325 6.1375 7.86659 6.12292 7.79992 6.09375C7.73326 6.06458 7.67493 6.025 7.62493 5.975L7.28744 5.6125C7.11245 5.42083 6.90829 5.27083 6.67496 5.1625C6.44163 5.05417 6.19163 5 5.92496 5C5.37496 5 4.91662 5.21042 4.54994 5.63125C4.18326 6.05208 3.99991 6.55 3.99988 7.125C3.99988 7.275 4.01237 7.42292 4.03737 7.56875C4.06236 7.71458 4.10402 7.85833 4.16235 8H6.49985C6.58319 8 6.66235 8.02083 6.73735 8.0625C6.81235 8.10417 6.87068 8.15833 6.91234 8.225L7.34982 8.875L8.02489 6.85C8.05823 6.75 8.11865 6.66667 8.20615 6.6C8.29366 6.53333 8.39157 6.5 8.49991 6.5ZM8.64985 8.125L7.97477 10.15C7.94144 10.25 7.87893 10.3333 7.78726 10.4C7.69559 10.4667 7.59559 10.5 7.48726 10.5C7.40393 10.5 7.32476 10.4792 7.24976 10.4375C7.17476 10.3958 7.11643 10.3417 7.07477 10.275L6.22482 9H4.94982L7.91221 11.9625C7.92887 11.9792 7.94346 11.9896 7.95596 11.9937C7.96845 11.9979 7.98304 12 7.9997 12C8.01637 12 8.03096 11.9979 8.04346 11.9937C8.05596 11.9896 8.07054 11.9792 8.08721 11.9625L11.0373 9H9.49982C9.41648 9 9.33732 8.97917 9.26232 8.9375C9.18732 8.89583 9.12482 8.84167 9.07482 8.775L8.64985 8.125Z" fill="white"/>
</svg>
