<svg width="13" height="13" viewBox="0 0 13 13" fill="none" xmlns="http://www.w3.org/2000/svg">
<path d="M12.1001 7.94373V0.568726C12.1001 0.309835 11.8902 0.0999756 11.6313 0.0999756H0.568848C0.309957 0.0999756 0.100098 0.309835 0.100098 0.568726V11.6312C0.100098 11.8901 0.309957 12.1 0.568848 12.1H7.94386C8.06983 12.1 8.18969 12.0483 8.27538 11.9626L11.9628 8.27523C12.0483 8.18969 12.1001 8.07023 12.1001 7.94373ZM1.0376 1.03748H11.1626V7.47498H7.94386C7.68496 7.47498 7.47511 7.68484 7.47511 7.94373V11.1625H1.0376V1.03748ZM10.4997 8.41248L8.41261 10.4996V8.41248H10.4997ZM2.86572 4.25622C2.86572 3.99733 3.07558 3.78747 3.33447 3.78747H8.86572C9.12461 3.78747 9.33447 3.99733 9.33447 4.25622C9.33447 4.51511 9.12461 4.72497 8.86572 4.72497H3.33447C3.07558 4.72497 2.86572 4.51511 2.86572 4.25622ZM3.33447 6.56873C3.07558 6.56873 2.86572 6.35887 2.86572 6.09998C2.86572 5.84108 3.07558 5.63123 3.33447 5.63123H8.86572C9.12461 5.63123 9.33447 5.84108 9.33447 6.09998C9.33447 6.35887 9.12461 6.56873 8.86572 6.56873H3.33447Z" fill="#006D35" stroke="#006D35" stroke-width="0.2"/>
</svg>
