<svg width="24" height="25" viewBox="0 0 24 25" fill="none" xmlns="http://www.w3.org/2000/svg">
<path d="M21 15.2656V4.20312C21 3.81479 20.6852 3.5 20.2969 3.5H3.70312C3.31479 3.5 3 3.81479 3 4.20312V20.7969C3 21.1852 3.31479 21.5 3.70312 21.5H14.7656C14.9546 21.5 15.1344 21.4226 15.2629 21.294L20.794 15.7629C20.9224 15.6346 21 15.4554 21 15.2656ZM4.40625 4.90625H19.5938V14.5625H14.7656C14.3773 14.5625 14.0625 14.8773 14.0625 15.2656V20.0938H4.40625V4.90625ZM18.5994 15.9688L15.4688 19.0994V15.9688H18.5994ZM7.14844 9.73436C7.14844 9.34603 7.46323 9.03124 7.85156 9.03124H16.1484C16.5368 9.03124 16.8516 9.34603 16.8516 9.73436C16.8516 10.1227 16.5368 10.4375 16.1484 10.4375H7.85156C7.46323 10.4375 7.14844 10.1227 7.14844 9.73436ZM7.85156 13.2031C7.46323 13.2031 7.14844 12.8883 7.14844 12.5C7.14844 12.1117 7.46323 11.7969 7.85156 11.7969H16.1484C16.5368 11.7969 16.8516 12.1117 16.8516 12.5C16.8516 12.8883 16.5368 13.2031 16.1484 13.2031H7.85156Z" fill="#37BD69" stroke="#37BD69" stroke-width="0.3"/>
</svg>
