<svg width="22" height="24" viewBox="0 0 22 24" fill="none" xmlns="http://www.w3.org/2000/svg">
<path d="M21.9335 7.02441V22.4405C21.9335 23.2142 21.3062 23.8412 20.5328 23.8412H4.94757C4.17386 23.8412 3.54688 23.214 3.54688 22.4405V18.9805V1.53253C3.54688 0.759081 4.17386 0.131836 4.94757 0.131836H15.0412C17.2195 0.1674 21.9335 4.34973 21.9335 7.02441Z" fill="#E2E2E2"/>
<path d="M3.5657 5.89027H14.1735C15.0213 5.89027 15.7086 6.57758 15.7086 7.42533V12.257C15.7086 13.1048 15.0213 13.7921 14.1735 13.7921H1.57411C0.726371 13.7921 0.0390625 13.1048 0.0390625 12.257V4.35522" fill="#F15642"/>
<path d="M0.0390625 4.35526C0.0390625 5.203 0.726371 5.89031 1.57411 5.89031H3.5657V2.91162H1.57411C0.726371 2.91162 0.0390625 3.59893 0.0390625 4.44667" fill="#BE4030"/>
<path d="M15.0391 0.131836H16.7941C17.5386 0.131836 18.2525 0.427676 18.7788 0.954024L21.1095 3.28466C21.6358 3.811 21.9316 4.52492 21.9316 5.26939V7.02441C21.9316 6.12372 21.2014 5.39374 20.301 5.39374H18.2288C17.3679 5.39374 16.67 4.69589 16.67 3.83498V1.76278C16.6697 0.862085 15.9398 0.131836 15.0391 0.131836Z" fill="#B7B7B7"/>
<path d="M4.58726 7.42383H3.14125C2.92286 7.42383 2.74609 7.60059 2.74609 7.81898V10.2163V11.8577C2.74609 12.0761 2.92286 12.2529 3.14125 12.2529C3.35964 12.2529 3.53641 12.0761 3.53641 11.8577V10.6114H4.58726C5.18579 10.6114 5.67315 10.1243 5.67315 9.5258V8.50945C5.67288 7.91092 5.18579 7.42383 4.58726 7.42383ZM4.88257 9.5258C4.88257 9.6886 4.75006 9.82111 4.587 9.82111H3.53614V8.21414H4.587C4.75006 8.21414 4.88257 8.34665 4.88257 8.50945V9.5258Z" fill="white"/>
<path d="M8.23514 7.42383H6.86C6.64161 7.42383 6.46484 7.60059 6.46484 7.81898V11.858C6.46484 12.0764 6.64161 12.2532 6.86 12.2532H8.23514C8.87293 12.2532 9.3919 11.7342 9.3919 11.0964V8.58058C9.3919 7.9428 8.87319 7.42383 8.23514 7.42383ZM8.60159 11.0964C8.60159 11.2985 8.4372 11.4629 8.23514 11.4629H7.25516V8.21414H8.23514C8.4372 8.21414 8.60159 8.37853 8.60159 8.58058V11.0964Z" fill="white"/>
<path d="M12.7894 7.42383H10.653C10.4346 7.42383 10.2578 7.60059 10.2578 7.81898V11.858C10.2578 12.0764 10.4346 12.2532 10.653 12.2532C10.8714 12.2532 11.0481 12.0764 11.0481 11.858V10.2337H12.0523C12.2705 10.2337 12.4475 10.0569 12.4475 9.8385C12.4475 9.62011 12.2705 9.44334 12.0523 9.44334H11.0479V8.21414H12.7892C13.0073 8.21414 13.1843 8.03737 13.1843 7.81898C13.1843 7.60059 13.0076 7.42383 12.7894 7.42383Z" fill="white"/>
<path d="M17.7463 19.3831H7.37953C7.16114 19.3831 6.98438 19.2061 6.98438 18.9879C6.98438 18.7698 7.16114 18.5928 7.37953 18.5928H17.7466C17.9647 18.5928 18.1417 18.7698 18.1417 18.9879C18.1417 19.2061 17.9645 19.3831 17.7463 19.3831Z" fill="#B7B7B7"/>
<path d="M17.7463 17.0659H7.37953C7.16114 17.0659 6.98438 16.8889 6.98438 16.6708C6.98438 16.4527 7.16114 16.2756 7.37953 16.2756H17.7466C17.9647 16.2756 18.1417 16.4527 18.1417 16.6708C18.1417 16.8889 17.9645 17.0659 17.7463 17.0659Z" fill="#B7B7B7"/>
<path d="M17.7463 21.7H7.37953C7.16114 21.7 6.98438 21.523 6.98438 21.3048C6.98438 21.0867 7.16114 20.9097 7.37953 20.9097H17.7466C17.9647 20.9097 18.1417 21.0867 18.1417 21.3048C18.1417 21.523 17.9645 21.7 17.7463 21.7Z" fill="#B7B7B7"/>
</svg>
