<svg width="32" height="37" viewBox="0 0 32 37" fill="none" xmlns="http://www.w3.org/2000/svg">
<g filter="url(#filter0_d_1_156511)">
<path d="M27.9697 9.62429L27.9697 27.9494C27.9697 28.4812 27.862 29.0078 27.6527 29.4991C27.4433 29.9905 27.1365 30.4369 26.7497 30.8129C26.3628 31.189 25.9036 31.4873 25.3982 31.6908C24.8928 31.8943 24.3511 31.9991 23.8041 31.9991H8.19689C7.64985 31.9991 7.10817 31.8943 6.60277 31.6908C6.09737 31.4873 5.63815 31.189 5.25134 30.8129C4.86452 30.4369 4.55768 29.9905 4.34834 29.4991C4.139 29.0078 4.03125 28.4812 4.03125 27.9494V4.04966C4.03125 3.51785 4.139 2.99125 4.34834 2.49992C4.55769 2.00859 4.86452 1.56216 5.25134 1.18611C5.63816 0.810068 6.09737 0.511772 6.60277 0.308259C7.10817 0.104745 7.64986 -1.62124e-06 8.19689 0L18.1191 3.14101e-05L27.9697 9.62429Z" fill="#FA6140"/>
<path d="M17.7662 8.28023C15.9021 5.63048 17.7507 2.47808 18.5495 0.421875L27.9683 9.62233V27.9479C27.9691 30.1854 26.1032 31.9995 23.8016 31.9989C25.0808 31.9989 25.3742 28.0212 25.3609 26.0323L25.2059 13.8006C25.2059 12.5444 24.2338 11.2253 23.052 10.8069C21.2006 10.1513 18.2505 9.01517 17.7662 8.28023Z" fill="black" fill-opacity="0.1"/>
<path d="M18.1213 0L16.8268 5.05888C16.7407 5.39539 16.7268 5.74567 16.7861 6.08767C16.8453 6.42967 16.9764 6.75598 17.1711 7.04606C17.3657 7.33614 17.6198 7.58369 17.9171 7.77315C18.2145 7.9626 18.5488 8.08985 18.899 8.14687L27.9719 9.62426L18.1213 0Z" fill="#FF8080"/>
<path d="M16.026 9.46875C15.3366 9.4786 14.8568 9.91715 14.624 10.179C14.0842 10.7863 14.0595 11.6186 14.24 12.4255C14.4205 13.2323 14.8071 14.0911 15.2788 14.9611C15.3317 15.0587 15.3903 15.1247 15.4453 15.2225C14.4969 16.9486 13.1923 18.8276 12.0537 20.3262C10.5754 20.6776 9.16051 20.85 8.31038 21.8069C7.59857 22.6091 7.54909 23.8278 8.31038 24.5368C8.64155 24.8276 9.10486 24.9748 9.50881 24.9811C9.88817 24.9767 10.2119 24.8687 10.4712 24.7104C11.4651 24.1036 12.1123 22.8151 12.8287 21.3257L18.638 19.9722C19.5096 21.0526 20.4166 22.1116 21.4976 22.4454C21.9988 22.6002 22.528 22.5819 23.0014 22.4107C23.4747 22.2396 23.9171 21.9009 24.1188 21.3789C24.4708 20.4305 24.0827 19.3798 23.1749 18.9055C22.4702 18.5252 21.5919 18.4605 20.6138 18.5029C20.114 18.5246 19.5859 18.5781 19.0498 18.6556C18.4162 17.6901 17.5634 16.414 16.8196 15.1714C17.2559 14.3054 17.6349 13.4529 17.7982 12.6705C17.9805 11.7969 17.9441 10.9365 17.4489 10.2736C17.0936 9.71219 16.5515 9.47241 16.026 9.46875ZM16.5026 10.9656C16.7181 11.2437 16.7913 11.7184 16.6437 12.4255C16.5618 12.8184 16.2841 13.3457 16.0839 13.8251C15.7966 13.2333 15.4956 12.6266 15.3921 12.164C15.2532 11.5432 15.3487 11.199 15.5078 10.9656C15.6196 10.783 15.7712 10.6711 15.9885 10.6586C16.2173 10.6458 16.3691 10.7934 16.5026 10.9656ZM16.144 16.3168C16.7008 17.2038 17.2934 18.1266 17.7774 18.8756L13.8906 19.8195C14.6746 18.6303 15.4972 17.4168 16.144 16.3168ZM22.6081 19.9445C23.0354 20.175 23.1639 20.5404 23.0083 20.9509C22.862 21.3291 22.1576 21.4309 21.8469 21.3187C21.4251 21.1885 20.7452 20.4066 20.1233 19.7617C20.2953 19.7191 20.5045 19.6901 20.667 19.683C21.2924 19.6555 22.0245 19.6703 22.6081 19.9445ZM10.9941 21.9642C10.5828 22.6329 10.1195 23.5411 9.84888 23.7063C9.58129 23.8903 9.27236 23.8217 9.11549 23.6623C8.89866 23.4533 8.86131 22.9813 9.2034 22.5958C9.55203 22.2604 10.0501 22.1201 10.9941 21.9642Z" fill="white"/>
</g>
<defs>
<filter id="filter0_d_1_156511" x="-2.28571" y="0" width="36.5714" height="36.5714" filterUnits="userSpaceOnUse" color-interpolation-filters="sRGB">
<feFlood flood-opacity="0" result="BackgroundImageFix"/>
<feColorMatrix in="SourceAlpha" type="matrix" values="0 0 0 0 0 0 0 0 0 0 0 0 0 0 0 0 0 0 127 0" result="hardAlpha"/>
<feOffset dy="2.28571"/>
<feGaussianBlur stdDeviation="1.14286"/>
<feComposite in2="hardAlpha" operator="out"/>
<feColorMatrix type="matrix" values="0 0 0 0 0 0 0 0 0 0 0 0 0 0 0 0 0 0 0.15 0"/>
<feBlend mode="normal" in2="BackgroundImageFix" result="effect1_dropShadow_1_156511"/>
<feBlend mode="normal" in="SourceGraphic" in2="effect1_dropShadow_1_156511" result="shape"/>
</filter>
</defs>
</svg>
