<svg width="24" height="25" viewBox="0 0 24 25" fill="none" xmlns="http://www.w3.org/2000/svg">
<path d="M4.9375 19.9688H6.3625L16.1375 10.1937L14.7125 8.76875L4.9375 18.5437V19.9688ZM2.9375 21.9688V17.7188L16.1375 4.54375C16.3375 4.36042 16.5583 4.21875 16.8 4.11875C17.0417 4.01875 17.2958 3.96875 17.5625 3.96875C17.8292 3.96875 18.0875 4.01875 18.3375 4.11875C18.5875 4.21875 18.8042 4.36875 18.9875 4.56875L20.3625 5.96875C20.5625 6.15208 20.7083 6.36875 20.8 6.61875C20.8917 6.86875 20.9375 7.11875 20.9375 7.36875C20.9375 7.63542 20.8917 7.88958 20.8 8.13125C20.7083 8.37292 20.5625 8.59375 20.3625 8.79375L7.1875 21.9688H2.9375ZM15.4125 9.49375L14.7125 8.76875L16.1375 10.1937L15.4125 9.49375Z" fill="#44544A"/>
</svg>
