<svg width="20" height="20" viewBox="0 0 20 20" fill="none" xmlns="http://www.w3.org/2000/svg">
<mask id="mask0_53017_13275" style="mask-type:alpha" maskUnits="userSpaceOnUse" x="1" y="1" width="18" height="18">
<rect x="1.66602" y="1.66602" width="16.6667" height="16.6667" fill="white"/>
</mask>
<g mask="url(#mask0_53017_13275)">
<path d="M13.4395 16.0072L14.2381 15.2086L13.127 14.0974L12.3283 14.8961C12.1663 15.0581 12.0853 15.2433 12.0853 15.4516C12.0853 15.6599 12.1663 15.8451 12.3283 16.0072C12.4904 16.1692 12.6756 16.2502 12.8839 16.2502C13.0922 16.2502 13.2774 16.1692 13.4395 16.0072ZM15.2103 14.2363L16.0089 13.4377C16.1709 13.2757 16.252 13.0905 16.252 12.8822C16.252 12.6738 16.1709 12.4886 16.0089 12.3266C15.8469 12.1646 15.6617 12.0836 15.4533 12.0836C15.245 12.0836 15.0598 12.1646 14.8978 12.3266L14.0992 13.1252L15.2103 14.2363ZM14.429 16.9967C14.0008 17.425 13.4857 17.6391 12.8839 17.6391C12.282 17.6391 11.767 17.425 11.3388 16.9967C10.9105 16.5685 10.6964 16.0535 10.6964 15.4516C10.6964 14.8498 10.9105 14.3347 11.3388 13.9065L13.9082 11.337C14.3364 10.9088 14.8515 10.6947 15.4533 10.6947C16.0552 10.6947 16.5702 10.9088 16.9985 11.337C17.4267 11.7653 17.6408 12.2803 17.6408 12.8822C17.6408 13.484 17.4267 13.9991 16.9985 14.4273L14.429 16.9967ZM5.14084 16.2502C4.7589 16.2502 4.43193 16.1142 4.15994 15.8422C3.88795 15.5702 3.75195 15.2433 3.75195 14.8613V5.13911C3.75195 4.75716 3.88795 4.43019 4.15994 4.1582C4.43193 3.88621 4.7589 3.75022 5.14084 3.75022H8.05751C8.20797 3.33355 8.45971 2.9979 8.81272 2.74327C9.16573 2.48864 9.56214 2.36133 10.002 2.36133C10.4418 2.36133 10.8382 2.48864 11.1912 2.74327C11.5442 2.9979 11.7959 3.33355 11.9464 3.75022H14.8631C15.245 3.75022 15.572 3.88621 15.844 4.1582C16.116 4.43019 16.252 4.75716 16.252 5.13911V9.39258C16.0205 9.33471 15.789 9.30577 15.5575 9.30577C15.326 9.30577 15.0945 9.32313 14.8631 9.35786V5.13911H5.14084V14.8613H9.35959C9.32487 15.0928 9.30751 15.3243 9.30751 15.5558C9.30751 15.7873 9.33644 16.0187 9.39431 16.2502H5.14084ZM10.002 4.61827C10.1524 4.61827 10.2768 4.56908 10.3752 4.4707C10.4736 4.37232 10.5228 4.2479 10.5228 4.09744C10.5228 3.94698 10.4736 3.82256 10.3752 3.72418C10.2768 3.6258 10.1524 3.57661 10.002 3.57661C9.85149 3.57661 9.72707 3.6258 9.62869 3.72418C9.53031 3.82256 9.48112 3.94698 9.48112 4.09744C9.48112 4.2479 9.53031 4.37232 9.62869 4.4707C9.72707 4.56908 9.85149 4.61827 10.002 4.61827ZM6.52973 7.91688V6.528H13.4742V7.91688H6.52973ZM6.52973 10.6947V9.30577H13.4742V9.89605C13.3816 9.95392 13.2919 10.0205 13.2051 10.0957C13.1183 10.1709 13.0286 10.2548 12.936 10.3474L12.5888 10.6947H6.52973ZM6.52973 13.4724V12.0836H11.1999L10.3492 12.9342C10.2566 13.0268 10.1727 13.1165 10.0974 13.2033C10.0222 13.2901 9.95566 13.3798 9.89779 13.4724H6.52973Z" fill="#44544A"/>
</g>
</svg>
