<svg width="24" height="24" viewBox="0 0 24 24" fill="none" xmlns="http://www.w3.org/2000/svg">
<mask id="mask0_1754_58001" style="mask-type:luminance" maskUnits="userSpaceOnUse" x="0" y="0" width="24" height="24">
<path d="M0 1.90735e-06H24V24H0V1.90735e-06Z" fill="white"/>
</mask>
<g mask="url(#mask0_1754_58001)">
<path d="M16.1904 20.4375H7.81864C3.89319 20.4375 0.710938 17.2552 0.710938 13.3297V11.2969H23.2981V13.3297C23.2981 17.2552 20.1159 20.4375 16.1904 20.4375Z" stroke="#DAE7DF" stroke-miterlimit="10"/>
<path d="M1.48443 11.2969C1.40662 10.6373 1.62084 9.95016 2.12662 9.44391L2.12896 9.44156C1.90443 9.33516 1.69438 9.18844 1.50834 9.00281C0.728337 8.22281 0.641619 7.01109 1.24907 6.13547C0.517869 5.39391 0.52115 4.2 1.25896 3.46219C1.99631 2.72438 3.18974 2.72109 3.93224 3.45187C4.80834 2.8425 6.02099 2.92828 6.8024 3.70922C6.98802 3.89484 7.13427 4.10484 7.24115 4.32938C8.12052 3.47203 9.52818 3.47906 10.3986 4.34953C10.979 4.92984 11.1758 5.74875 10.9883 6.49031" stroke="#DAE7DF" stroke-miterlimit="10"/>
<path d="M13.2544 6.51367C13.1625 6.24367 13.1133 5.95445 13.1133 5.65352C13.1133 4.33211 14.0658 3.23289 15.3216 3.00555C15.3305 1.7582 16.3444 0.749923 17.5941 0.749923C18.8432 0.749923 19.8567 1.75774 19.8666 3.00508C21.1246 3.23102 22.0791 4.3307 22.0791 5.65352C22.0791 5.66617 22.0791 5.6793 22.0786 5.69195" stroke="#DAE7DF" stroke-miterlimit="10"/>
<path d="M11.539 11.3086C11.5343 11.3048 11.5296 11.3011 11.5254 11.2973" stroke="#DAE7DF" stroke-miterlimit="10"/>
<path d="M4.63281 6.83473L7.35081 9.55273" stroke="#DAE7DF" stroke-miterlimit="10"/>
<path d="M17.0737 11.3086C17.0701 11.3045 17.067 11.3004 17.0645 11.2963" stroke="#DAE7DF" stroke-miterlimit="10"/>
<path d="M16.707 9.36328C16.8304 8.75859 17.1439 8.14875 17.6366 7.63406L17.6507 7.62C17.6717 7.59797 17.6928 7.57688 17.7144 7.55578L17.7449 7.52484C19.0405 6.22969 20.9066 5.81953 22.079 5.69203C22.7347 5.62078 23.1734 5.63766 23.1734 5.63766C23.1734 5.63766 23.1922 6.12469 23.1065 6.83953C22.9658 8.01563 22.542 9.80906 21.2858 11.0658L21.2371 11.1145C21.222 11.1295 21.2061 11.145 21.1906 11.16L21.1766 11.1741C21.1325 11.2163 21.0875 11.2575 21.042 11.2969" stroke="#DAE7DF" stroke-miterlimit="10"/>
<path d="M6.98047 11.3086C7.06311 8.56983 9.30931 6.37533 12.068 6.37533C14.8268 6.37533 17.073 8.56983 17.1556 11.3086" stroke="#DAE7DF" stroke-miterlimit="10"/>
<path d="M9.88281 11.3086C9.91834 10.1312 10.8839 9.18783 12.0699 9.18783C13.2559 9.18783 14.2215 10.1312 14.257 11.3086" stroke="#DAE7DF" stroke-miterlimit="10"/>
<path d="M7.76172 20.4375V23.25H16.2461V20.4375" stroke="#DAE7DF" stroke-miterlimit="10"/>
</g>
</svg>
