<svg width="56" height="56" viewBox="0 0 56 56" fill="none" xmlns="http://www.w3.org/2000/svg">
<rect width="56" height="56" rx="8.96" fill="#E1F9ED"/>
<mask id="mask0_1691_73794" style="mask-type:alpha" maskUnits="userSpaceOnUse" x="8" y="8" width="40" height="40">
<rect x="8.23535" y="8.23633" width="39.5294" height="39.5294" fill="#D9D9D9"/>
</mask>
<g mask="url(#mask0_1691_73794)">
<path d="M27.0406 30.5568V34.7724C27.0406 35.0373 27.1309 35.2592 27.3115 35.4382C27.4922 35.6172 27.716 35.7067 27.9831 35.7067C28.2502 35.7067 28.4714 35.6172 28.6465 35.4382C28.8219 35.2592 28.9096 35.0373 28.9096 34.7724V30.5568H33.1001C33.3546 30.5568 33.5739 30.4636 33.7581 30.2772C33.9423 30.091 34.0344 29.8605 34.0344 29.5854C34.0344 29.3101 33.9423 29.0848 33.7581 28.9097C33.5739 28.7343 33.3546 28.6466 33.1001 28.6466H28.9096V24.4721C28.9096 24.2072 28.8193 23.9853 28.6387 23.8063C28.458 23.6273 28.2342 23.5378 27.9671 23.5378C27.7 23.5378 27.4789 23.6273 27.3037 23.8063C27.1283 23.9853 27.0406 24.2072 27.0406 24.4721V28.6466H22.8501C22.5855 28.6466 22.3636 28.7369 22.1847 28.9175C22.0054 29.0981 21.9158 29.322 21.9158 29.5891C21.9158 29.8562 22.0077 30.0842 22.1917 30.273C22.3756 30.4622 22.6036 30.5568 22.8756 30.5568H27.0406ZM27.9716 43.5809C26.0531 43.5809 24.2436 43.2177 22.5433 42.4913C20.8433 41.765 19.3619 40.773 18.0991 39.5155C16.8364 38.2583 15.8376 36.7802 15.1027 35.0812C14.3679 33.3826 14.0004 31.5642 14.0004 29.6262C14.0004 27.6884 14.3679 25.8729 15.1027 24.1798C15.8376 22.4868 16.8364 21.0048 18.0991 19.7335C19.3619 18.4623 20.843 17.4635 22.5425 16.7371C24.2423 16.0107 26.0514 15.6476 27.97 15.6476C29.8885 15.6476 31.6967 16.0107 33.3945 16.7371C35.0924 17.4635 36.5768 18.4623 37.8478 19.7335C39.119 21.0048 40.1178 22.487 40.8442 24.1802C41.5705 25.8733 41.9337 27.6894 41.9337 29.6282C41.9337 31.5668 41.5705 33.385 40.8442 35.0829C40.1178 36.7807 39.119 38.2583 37.8478 39.5155C36.5768 40.773 35.0927 41.765 33.3954 42.4913C31.6984 43.2177 29.8904 43.5809 27.9716 43.5809ZM11.8877 19.6339C11.6936 19.4343 11.6007 19.2121 11.6089 18.9672C11.6174 18.7221 11.7188 18.5025 11.9132 18.3084L16.7531 13.5855C16.9367 13.4188 17.1573 13.3398 17.4148 13.3483C17.6725 13.3565 17.8912 13.4493 18.0707 13.6266C18.2648 13.8106 18.355 14.0276 18.3413 14.2776C18.3275 14.528 18.2312 14.744 18.0522 14.9257L13.2053 19.6512C13.0112 19.8181 12.7848 19.8999 12.5259 19.8966C12.2673 19.8936 12.0546 19.806 11.8877 19.6339ZM44.0625 19.626C43.8849 19.8034 43.6695 19.8962 43.4161 19.9044C43.1627 19.9129 42.939 19.8285 42.7449 19.6512L37.905 14.9286C37.7214 14.7724 37.6227 14.5623 37.609 14.2982C37.5952 14.0344 37.6854 13.8106 37.8795 13.6266C38.0464 13.4493 38.2565 13.3565 38.5099 13.3483C38.7633 13.3398 38.9871 13.4188 39.1815 13.5855L44.0214 18.3084C44.205 18.4772 44.3063 18.6904 44.3253 18.9479C44.3442 19.2056 44.2566 19.4317 44.0625 19.626ZM27.9704 41.7123C31.3309 41.7123 34.1869 40.5364 36.5384 38.1847C38.8895 35.833 40.0651 32.9782 40.0651 29.6204C40.0651 26.2582 38.8893 23.4003 36.5375 21.0466C34.1858 18.6933 31.3311 17.5166 27.9733 17.5166C24.6111 17.5166 21.7531 18.6933 19.3995 21.0466C17.0461 23.4 15.8694 26.257 15.8694 29.6175C15.8694 32.9781 17.0461 35.8341 19.3995 38.1855C21.7529 40.5367 24.6098 41.7123 27.9704 41.7123Z" fill="#37BD69"/>
</g>
</svg>
