<svg width="15" height="15" viewBox="0 0 15 15" fill="none" xmlns="http://www.w3.org/2000/svg">
<path d="M7.5 7.44141C8.80852 7.44141 9.87305 6.37688 9.87305 5.06836C9.87305 3.75984 8.80852 2.69531 7.5 2.69531C6.19148 2.69531 5.12695 3.75984 5.12695 5.06836C5.12695 6.37688 6.19148 7.44141 7.5 7.44141ZM7.5 3.86719C8.16227 3.86719 8.70117 4.40609 8.70117 5.06836C8.70117 5.73063 8.16227 6.26953 7.5 6.26953C6.83773 6.26953 6.29883 5.73063 6.29883 5.06836C6.29883 4.40609 6.83773 3.86719 7.5 3.86719ZM7.13013 12.5045L7.5 12.8056L7.86987 12.5045C7.91725 12.4659 9.04312 11.5449 10.1841 10.228C11.7661 8.40191 12.5684 6.76117 12.5684 5.35137V5.0687C12.5684 2.27383 10.2948 0 7.5 0C4.70524 0 2.43164 2.27383 2.43164 5.0687V5.35137C2.43164 6.76117 3.23387 8.40191 4.8159 10.228C5.95676 11.5449 7.08275 12.4659 7.13013 12.5045ZM3.60352 5.0687C3.60352 2.91996 5.35149 1.17188 7.5 1.17188C9.64851 1.17188 11.3965 2.91996 11.3965 5.0687V5.35137C11.3965 6.45218 10.6748 7.86861 9.30965 9.44767C8.61546 10.2506 7.91313 10.9089 7.49989 11.2767C7.08961 10.9117 6.39393 10.2599 5.70168 9.46072C4.32907 7.8764 3.60352 6.45538 3.60352 5.35137V5.0687ZM15 12.8613C15 13.3047 14.7125 13.6822 14.1455 13.9832C13.7511 14.1926 13.2034 14.3769 12.5174 14.5309C11.1706 14.8334 9.38873 15 7.5 15C5.61127 15 3.82942 14.8334 2.48257 14.531C1.79661 14.377 1.24889 14.1926 0.85453 13.9833C0.287476 13.6822 0 13.3047 0 12.8613C0 12.418 0.287476 12.0404 0.85453 11.7395C1.24889 11.53 1.79661 11.3458 2.48257 11.1917C2.91046 11.0956 3.38264 11.0135 3.88779 10.9458C3.90209 10.9624 3.91582 10.9789 3.93024 10.9955C4.2524 11.3673 4.57432 11.7099 4.87404 12.0133C4.22504 12.0747 3.61897 12.1587 3.08086 12.2636C1.99448 12.4754 1.46599 12.718 1.2561 12.8613C1.46599 13.0046 1.99436 13.2472 3.08086 13.4591C4.30126 13.6971 5.8707 13.8281 7.5 13.8281C9.1293 13.8281 10.6987 13.6971 11.9191 13.4591C13.0055 13.2472 13.534 13.0046 13.7439 12.8613C13.534 12.718 13.0056 12.4754 11.9191 12.2636C11.381 12.1587 10.7751 12.0745 10.1261 12.0133C10.4257 11.7099 10.7476 11.3673 11.0698 10.9955C11.0842 10.9789 11.098 10.9623 11.1122 10.9457C11.6174 11.0135 12.0895 11.0956 12.5174 11.1916C13.2034 11.3457 13.7511 11.53 14.1455 11.7393C14.7125 12.0404 15 12.418 15 12.8613Z" fill="#44544A"/>
</svg>
