<svg width="17" height="18" viewBox="0 0 17 18" fill="none" xmlns="http://www.w3.org/2000/svg">
<path d="M16.2295 0.20253C14.774 -0.675886 12.2461 1.34829 9.79479 5.39664C9.48838 5.89314 9.18196 6.42783 8.91385 6.96251C8.64574 6.92432 8.37763 6.92432 8.07122 6.96251C7.7648 6.38963 7.45839 5.89314 7.19028 5.39664C4.73897 1.38648 2.21106 -0.675886 0.755594 0.20253C0.21937 0.546258 -0.278552 1.34829 0.181068 3.29608C0.525783 4.70919 1.29182 6.42783 2.44087 8.29923C2.86219 8.98669 3.32181 9.67414 3.78143 10.3234C3.092 11.4692 2.67068 12.7677 2.67068 13.7225C2.67068 16.0904 5.27519 18 8.49253 18C11.7099 18 14.3527 16.0904 14.3527 13.7225C14.3527 12.7677 13.9314 11.5074 13.2419 10.3234C13.7016 9.67414 14.1612 8.98669 14.5825 8.33742C15.7316 6.46602 16.4976 4.74738 16.8423 3.33427C17.2636 1.34829 16.7657 0.546258 16.2295 0.20253ZM1.29182 3.02874C0.985404 1.80659 1.17691 1.3101 1.36842 1.19552C1.40672 1.15733 1.48333 1.15733 1.55993 1.15733C2.24936 1.15733 4.04954 2.41767 6.23274 6.00771C6.46254 6.38963 6.73066 6.84794 6.96047 7.26805C6.92216 7.26805 6.92216 7.30624 6.88386 7.30624C6.80726 7.34443 6.69236 7.38263 6.61575 7.42082C6.57745 7.42082 6.53915 7.45901 6.50085 7.4972C6.42424 7.53539 6.34764 7.57359 6.27104 7.64997C6.23274 7.64997 6.19443 7.68816 6.19443 7.68816C6.07953 7.76454 5.96462 7.84093 5.88802 7.91731C5.81142 7.9937 5.69651 8.07008 5.61991 8.14646C5.58161 8.18466 5.58161 8.18466 5.5433 8.22285C5.4667 8.29923 5.3901 8.33743 5.3518 8.41381C5.31349 8.452 5.31349 8.452 5.27519 8.49019C5.19859 8.56658 5.12199 8.64296 5.04538 8.71935L5.00708 8.75754C4.93048 8.83392 4.85387 8.91031 4.77727 9.02488C4.73897 9.06307 4.73897 9.06307 4.73897 9.10126C4.70067 9.17765 4.62406 9.21584 4.58576 9.29222L4.54746 9.33042C4.16444 8.79573 3.81973 8.26104 3.51331 7.72635C2.36426 5.96952 1.59823 4.28907 1.29182 3.02874ZM8.49253 16.816C5.92632 16.816 3.81973 15.4029 3.81973 13.6843C3.81973 12.8441 4.27935 11.6601 4.96878 10.5908C5.81142 9.29222 6.88386 8.41381 7.91801 8.18466C8.10952 8.14647 8.30103 8.10827 8.49253 8.10827C8.68404 8.10827 8.87555 8.14647 9.10536 8.18466C9.22027 8.22285 9.37347 8.26104 9.48838 8.29923C10.4076 8.64296 11.3269 9.44499 12.0546 10.5908C12.744 11.6601 13.2036 12.8823 13.2036 13.6843C13.2036 15.4029 11.097 16.816 8.49253 16.816ZM15.6932 3.02874C15.3868 4.28907 14.6208 5.96952 13.5867 7.68816C13.2802 8.22285 12.8972 8.75754 12.5525 9.29222C12.5525 9.29222 12.5525 9.25403 12.5142 9.25403C12.4759 9.17765 12.3993 9.10126 12.361 9.06307L12.3227 9.02488C12.2461 8.9485 12.1695 8.83392 12.0929 8.75754C12.0163 8.68115 11.9397 8.60477 11.8631 8.52838C11.8248 8.49019 11.8248 8.49019 11.7865 8.452C11.7099 8.37562 11.6333 8.33743 11.5567 8.26104C11.5184 8.22285 11.5184 8.22285 11.4801 8.18466C11.2886 8.03189 11.0587 7.87912 10.8672 7.72635C10.8289 7.72635 10.8289 7.68816 10.7906 7.68816C10.714 7.64997 10.5991 7.57359 10.5225 7.53539C10.4459 7.45901 10.4076 7.45901 10.4076 7.45901C10.2927 7.42082 10.2161 7.34443 10.1012 7.30624H10.0629C10.2927 6.88613 10.5608 6.42783 10.7906 6.00771C13.2036 2.03575 15.157 0.889986 15.6166 1.19552C15.8082 1.3101 15.9997 1.80659 15.6932 3.02874Z" fill="#44544A"/>
<path d="M6.573 10.8203C6.22829 10.8203 5.92188 11.1258 5.92188 11.4696C5.92188 11.8133 6.22829 12.1188 6.573 12.1188C6.91772 12.1188 7.22413 11.8133 7.22413 11.4696C7.22413 11.1258 6.91772 10.8203 6.573 10.8203Z" fill="#44544A"/>
<path d="M10.4011 10.8203C10.0564 10.8203 9.75 11.1258 9.75 11.4696C9.75 11.8133 10.0564 12.1188 10.4011 12.1188C10.7458 12.1188 11.0523 11.8133 11.0523 11.4696C11.0906 11.1258 10.7841 10.8203 10.4011 10.8203Z" fill="#44544A"/>
<path d="M8.49519 13C7.80576 13 7.26953 13.3437 7.26953 13.7638C7.26953 14.184 7.84406 14.795 8.49519 14.795C9.14631 14.795 9.72084 14.184 9.72084 13.7638C9.72084 13.3437 9.18462 13 8.49519 13Z" fill="#44544A"/>
</svg>
