<svg width="20" height="20" viewBox="0 0 20 20" fill="none" xmlns="http://www.w3.org/2000/svg">
<mask id="mask0_53017_85952" style="mask-type:alpha" maskUnits="userSpaceOnUse" x="0" y="0" width="20" height="20">
<rect width="20" height="20" fill="#D9D9D9"/>
</mask>
<g mask="url(#mask0_53017_85952)">
<path d="M6.01844 12.7616H7.05344V12.5891C7.05344 11.7726 7.33806 11.0797 7.90731 10.5104C8.47656 9.94119 9.16944 9.65656 9.98594 9.65656C10.8024 9.65656 11.4953 9.94119 12.0646 10.5104C12.6338 11.0797 12.9184 11.7726 12.9184 12.5891V12.7616H13.9534V12.5891C13.9534 11.4851 13.5682 10.5478 12.7977 9.77731C12.0272 9.00681 11.0899 8.62156 9.98594 8.62156C8.88194 8.62156 7.94469 9.00681 7.17419 9.77731C6.40369 10.5478 6.01844 11.4851 6.01844 12.5891V12.7616ZM6.60494 8.10406C7.07644 8.03506 7.57381 7.85106 8.09706 7.55206C8.62031 7.25306 9.03719 6.91381 9.34769 6.53431L8.55419 5.87881C8.32419 6.15481 8.00506 6.40781 7.59681 6.63781C7.18856 6.86781 6.81194 7.01156 6.46694 7.06906L6.60494 8.10406ZM13.3669 8.10406L13.5049 7.06906C13.1599 7.01156 12.7833 6.86781 12.3751 6.63781C11.9668 6.40781 11.6477 6.15481 11.4177 5.87881L10.6242 6.53431C10.9347 6.91381 11.3516 7.25306 11.8748 7.55206C12.3981 7.85106 12.8954 8.03506 13.3669 8.10406ZM9.98594 16.9016C9.03144 16.9016 8.13444 16.7204 7.29494 16.3582C6.45544 15.9959 5.72519 15.5043 5.10419 14.8833C4.48319 14.2623 3.99156 13.5321 3.62931 12.6926C3.26706 11.8531 3.08594 10.9561 3.08594 10.0016C3.08594 9.04706 3.26706 8.15006 3.62931 7.31056C3.99156 6.47106 4.48319 5.74081 5.10419 5.11981C5.72519 4.49881 6.45544 4.00719 7.29494 3.64494C8.13444 3.28269 9.03144 3.10156 9.98594 3.10156C10.9404 3.10156 11.8374 3.28269 12.6769 3.64494C13.5164 4.00719 14.2467 4.49881 14.8677 5.11981C15.4887 5.74081 15.9803 6.47106 16.3426 7.31056C16.7048 8.15006 16.8859 9.04706 16.8859 10.0016C16.8859 10.9561 16.7048 11.8531 16.3426 12.6926C15.9803 13.5321 15.4887 14.2623 14.8677 14.8833C14.2467 15.5043 13.5164 15.9959 12.6769 16.3582C11.8374 16.7204 10.9404 16.9016 9.98594 16.9016ZM9.98594 15.5216C11.5269 15.5216 12.8322 14.9868 13.9017 13.9173C14.9712 12.8478 15.5059 11.5426 15.5059 10.0016C15.5059 8.46056 14.9712 7.15531 13.9017 6.08581C12.8322 5.01631 11.5269 4.48156 9.98594 4.48156C8.44494 4.48156 7.13969 5.01631 6.07019 6.08581C5.00069 7.15531 4.46594 8.46056 4.46594 10.0016C4.46594 11.5426 5.00069 12.8478 6.07019 13.9173C7.13969 14.9868 8.44494 15.5216 9.98594 15.5216Z" fill="#44544A"/>
</g>
</svg>
