<svg width="24" height="24" viewBox="0 0 24 24" fill="none" xmlns="http://www.w3.org/2000/svg">
<path d="M20.7908 4.96466V23.0107C20.7908 23.4693 20.4188 23.8413 19.9602 23.8413H4.01324C3.55459 23.8413 3.18262 23.4693 3.18262 23.0107V0.962515C3.18262 0.503871 3.55433 0.131897 4.01324 0.131897H15.9583L20.7908 4.96466Z" fill="#008253"/>
<path d="M20.7908 4.96466H16.7149C16.2968 4.96466 15.958 4.62588 15.958 4.2078V0.131897L20.7908 4.96466Z" fill="#00AA6D"/>
<path d="M17.2777 20.9527H6.69594C6.47755 20.9527 6.30078 20.7756 6.30078 20.5575V18.0177C6.30078 17.7996 6.47755 17.6226 6.69594 17.6226H17.2777C17.4958 17.6226 17.6729 17.7996 17.6729 18.0177V20.5575C17.6729 20.7756 17.4958 20.9527 17.2777 20.9527ZM7.09109 20.1624H16.8825V18.4129H7.09109V20.1624Z" fill="white"/>
<path d="M17.2777 18.4131H6.69594C6.47755 18.4131 6.30078 18.2361 6.30078 18.018V15.4782C6.30078 15.26 6.47755 15.083 6.69594 15.083H17.2777C17.4958 15.083 17.6729 15.26 17.6729 15.4782V18.018C17.6729 18.2361 17.4958 18.4131 17.2777 18.4131ZM7.09109 17.6228H16.8825V15.8733H7.09109V17.6228Z" fill="white"/>
<path d="M17.2777 15.8734H6.69594C6.47755 15.8734 6.30078 15.6963 6.30078 15.4782V12.9387C6.30078 12.7205 6.47755 12.5435 6.69594 12.5435H17.2777C17.4958 12.5435 17.6729 12.7205 17.6729 12.9387V15.4782C17.6729 15.6963 17.4958 15.8734 17.2777 15.8734ZM7.09109 15.0831H16.8825V13.3338H7.09109V15.0831Z" fill="white"/>
<path d="M11.9865 20.9527C11.7681 20.9527 11.5913 20.7757 11.5913 20.5576V12.9387C11.5913 12.7205 11.7681 12.5435 11.9865 12.5435C12.2049 12.5435 12.3816 12.7205 12.3816 12.9387V20.5576C12.3816 20.7757 12.2049 20.9527 11.9865 20.9527Z" fill="white"/>
</svg>
