<svg width="19" height="16" viewBox="0 0 19 16" fill="none" xmlns="http://www.w3.org/2000/svg">
<path d="M6.61394 0.278732C6.651 0.262381 6.69086 0.253623 6.73125 0.25297C6.77246 0.252293 6.81338 0.260069 6.85159 0.275826C6.88979 0.291583 6.9245 0.31502 6.95364 0.344714C6.98279 0.374408 7.00577 0.409792 7.02124 0.448718C7.03671 0.487643 7.04433 0.529366 7.04367 0.571355V1.1981C7.04367 1.28119 7.01127 1.36093 6.9536 1.41968C6.89594 1.47844 6.81772 1.51147 6.73617 1.51147C6.65461 1.51147 6.5764 1.47844 6.51873 1.41968C6.46107 1.36093 6.42867 1.28119 6.42867 1.1981V0.571355C6.42802 0.53021 6.43533 0.489311 6.45018 0.451045C6.46504 0.41278 6.48714 0.377848 6.51524 0.348288C6.54334 0.318729 6.57688 0.295084 6.61394 0.278732Z" fill="white"/>
<path d="M4.8925 1.11867C4.9436 1.08388 5.00376 1.06548 5.06522 1.06585C5.1063 1.06594 5.14695 1.07442 5.18476 1.09078C5.22258 1.10713 5.25679 1.13106 5.28539 1.16112L5.72019 1.60297C5.74882 1.63206 5.77155 1.66663 5.78707 1.70467C5.8026 1.74271 5.81062 1.78351 5.81068 1.82471C5.81073 1.8659 5.80283 1.90673 5.78741 1.94481C5.77199 1.9829 5.74936 2.01753 5.72081 2.0467C5.69226 2.07587 5.65835 2.09905 5.62101 2.11486C5.58368 2.13068 5.54366 2.13886 5.50322 2.13892C5.46279 2.13898 5.42274 2.13091 5.38537 2.1152C5.34799 2.09949 5.31402 2.07642 5.28539 2.04733L4.84997 1.60485C4.80572 1.5614 4.77526 1.50539 4.76253 1.44413C4.7498 1.38287 4.75538 1.31909 4.77854 1.26109C4.80171 1.20309 4.8414 1.15347 4.8925 1.11867Z" fill="white"/>
<path d="M8.05152 1.06962C8.10719 1.01103 8.18308 0.976846 8.26308 0.974359C8.32522 0.972295 8.38651 0.988857 8.43888 1.02301C8.49124 1.05716 8.53222 1.10672 8.55639 1.16508C8.58057 1.22344 8.58682 1.28793 8.57431 1.34999C8.5618 1.41204 8.53112 1.4688 8.48632 1.51273L8.05152 1.95646C8.02285 1.98555 7.98884 2.00862 7.95142 2.02431C7.91401 2.04001 7.87393 2.04804 7.83347 2.04796C7.793 2.04787 7.75296 2.03966 7.71561 2.0238C7.67826 2.00795 7.64434 1.98473 7.61579 1.95552C7.58724 1.92631 7.56462 1.89163 7.54922 1.85351C7.53381 1.81539 7.52593 1.77453 7.52601 1.7333C7.5261 1.69208 7.53415 1.65125 7.54972 1.6132C7.56528 1.57514 7.58805 1.54056 7.61672 1.51148L8.05152 1.06962Z" fill="white"/>
<path fill-rule="evenodd" clip-rule="evenodd" d="M6.73014 1.82967C6.22461 1.82967 5.80764 2.25388 5.80764 2.76957V3.08162H6.42264V2.76957C6.42264 2.59036 6.55425 2.45627 6.73014 2.45627C6.90602 2.45627 7.03763 2.59036 7.03763 2.76957V3.08162H7.65263V2.76957C7.65263 2.25388 7.23566 1.82967 6.73014 1.82967Z" fill="white"/>
<path d="M7.03763 2.76957C7.03763 2.59036 6.90602 2.45627 6.73014 2.45627C6.55425 2.45627 6.42264 2.59036 6.42264 2.76957V3.08162H7.03763V2.76957Z" fill="white"/>
<path d="M7.03763 3.08162V2.76957C7.03763 2.59036 6.90602 2.45627 6.73014 2.45627C6.55425 2.45627 6.42264 2.59036 6.42264 2.76957V3.08162M7.03763 3.08162H6.42264M7.03763 3.08162H7.65263V2.76957C7.65263 2.25388 7.23566 1.82967 6.73014 1.82967C6.22461 1.82967 5.80764 2.25388 5.80764 2.76957V3.08162H6.42264M6.73125 0.25297C6.69086 0.253623 6.651 0.262381 6.61394 0.278732C6.57688 0.295084 6.54334 0.318729 6.51524 0.348288C6.48714 0.377848 6.46504 0.41278 6.45018 0.451045C6.43533 0.489311 6.42802 0.53021 6.42867 0.571355V1.1981C6.42867 1.28119 6.46107 1.36093 6.51873 1.41968C6.5764 1.47844 6.65461 1.51147 6.73617 1.51147C6.81772 1.51147 6.89594 1.47844 6.9536 1.41968C7.01127 1.36093 7.04367 1.28119 7.04367 1.1981V0.571355C7.04433 0.529366 7.03671 0.487643 7.02124 0.448718C7.00577 0.409792 6.98279 0.374408 6.95364 0.344714C6.9245 0.31502 6.88979 0.291583 6.85159 0.275826C6.81338 0.260069 6.77246 0.252293 6.73125 0.25297ZM5.06522 1.06585C5.00376 1.06548 4.9436 1.08388 4.8925 1.11867C4.8414 1.15347 4.80171 1.20309 4.77854 1.26109C4.75538 1.31909 4.7498 1.38287 4.76253 1.44413C4.77526 1.50539 4.80572 1.5614 4.84997 1.60485L5.28539 2.04733C5.31402 2.07642 5.34799 2.09949 5.38537 2.1152C5.42274 2.13091 5.46279 2.13898 5.50322 2.13892C5.54366 2.13886 5.58368 2.13068 5.62101 2.11486C5.65835 2.09905 5.69226 2.07587 5.72081 2.0467C5.74936 2.01753 5.77199 1.9829 5.78741 1.94481C5.80283 1.90673 5.81073 1.8659 5.81068 1.82471C5.81062 1.78351 5.8026 1.74271 5.78707 1.70467C5.77155 1.66663 5.74882 1.63206 5.72019 1.60297L5.28539 1.16112C5.25679 1.13106 5.22258 1.10713 5.18476 1.09078C5.14695 1.07442 5.1063 1.06594 5.06522 1.06585ZM8.26308 0.974359C8.18308 0.976846 8.10719 1.01103 8.05152 1.06962L7.61672 1.51148C7.58805 1.54056 7.56528 1.57514 7.54972 1.6132C7.53415 1.65125 7.5261 1.69208 7.52601 1.7333C7.52593 1.77453 7.53381 1.81539 7.54922 1.85351C7.56462 1.89163 7.58724 1.92631 7.61579 1.95552C7.64434 1.98473 7.67826 2.00795 7.71561 2.0238C7.75296 2.03966 7.793 2.04787 7.83347 2.04796C7.87393 2.04804 7.91401 2.04001 7.95142 2.02431C7.98884 2.00862 8.02285 1.98555 8.05152 1.95646L8.48632 1.51273C8.53112 1.4688 8.5618 1.41204 8.57431 1.34999C8.58682 1.28793 8.58057 1.22344 8.55639 1.16508C8.53222 1.10672 8.49124 1.05716 8.43888 1.02301C8.38651 0.988857 8.32522 0.972295 8.26308 0.974359Z" stroke="white" stroke-width="0.172415"/>
<path fill-rule="evenodd" clip-rule="evenodd" d="M0.730135 3.0127C0.655113 3.0127 0.583164 3.0425 0.530116 3.09555C0.477068 3.14859 0.447266 3.22054 0.447266 3.29556L0.447266 12.9086C0.447266 12.9836 0.477068 13.0556 0.530116 13.1086C0.583164 13.1617 0.655113 13.1915 0.730135 13.1915H2.24858C2.18162 13.3723 2.14641 13.5633 2.14448 13.7561C2.14448 14.6895 2.90823 15.4521 3.84169 15.4521C4.77516 15.4521 5.53891 14.6895 5.53891 13.7561C5.53891 13.5575 5.49818 13.3685 5.43481 13.1915H12.9976C12.9306 13.3723 12.8954 13.5633 12.8935 13.7561C12.8935 14.6895 13.6572 15.4521 14.5907 15.4521C15.5242 15.4521 16.2879 14.6895 16.2879 13.7561C16.2879 13.5575 16.2472 13.3685 16.1838 13.1915H18.268C18.343 13.1915 18.415 13.1617 18.468 13.1086C18.5211 13.0556 18.5509 12.9836 18.5509 12.9086V10.5525C18.5501 10.1027 18.371 9.67154 18.0529 9.35359C17.7347 9.03564 17.3035 8.85684 16.8537 8.85639H16.2879V7.17445C16.2875 6.57452 16.0489 5.99931 15.6246 5.5752C15.2002 5.15109 14.6249 4.91278 14.025 4.91263H11.762V3.29556C11.762 3.22054 11.7322 3.14859 11.6792 3.09555C11.6261 3.0425 11.5542 3.0127 11.4792 3.0127H0.730135ZM15.8461 12.6257H17.9851V12.2486V11.6828V11.1182V10.5525C17.9851 9.92111 17.4856 9.42213 16.8537 9.42213H15.7222V7.17445C15.7222 6.23024 14.9698 5.47837 14.025 5.47837H11.762V12.6257H11.1963V3.57843H1.013V9.79816V10.3639V10.9285V11.4942V12.6257H2.58689C2.89804 12.2806 3.34384 12.06 3.84226 12.06C4.34068 12.06 4.78648 12.2806 5.09763 12.6257H13.3353C13.6465 12.2806 14.0923 12.06 14.5907 12.06C15.0891 12.06 15.5349 12.2806 15.8461 12.6257ZM4.97317 13.7561C4.97317 13.1281 4.46966 12.6257 3.84169 12.6257C3.21372 12.6257 2.71022 13.1281 2.71022 13.7561C2.71022 14.384 3.21372 14.8864 3.84169 14.8864C4.46966 14.8864 4.97317 14.384 4.97317 13.7561ZM15.7222 13.7561C15.7222 13.1281 15.2187 12.6257 14.5907 12.6257C13.9627 12.6257 13.4592 13.1281 13.4592 13.7561C13.4592 14.384 13.9627 14.8864 14.5907 14.8864C15.2187 14.8864 15.7222 14.384 15.7222 13.7561Z" fill="white" stroke="white" stroke-width="0.45259"/>
<path d="M9.73038 6.86914C9.75156 6.79253 9.72156 6.71098 9.65589 6.66628C9.64534 6.65916 9.39372 6.48903 9.00774 6.31045C8.51805 6.08389 7.7829 5.8323 7.06173 5.92023C7.00549 5.92706 6.95545 5.95928 6.92589 6.00763C6.89636 6.05593 6.89052 6.11515 6.91006 6.16832L7.37104 7.42315L6.96279 7.57313L6.50179 6.31834C6.46649 6.22215 6.35988 6.17283 6.26367 6.20818C6.16753 6.2435 6.11821 6.3501 6.15353 6.44625L6.61889 7.77319L6.25716 7.88071L5.88798 6.98476C5.85268 6.88857 5.74607 6.83925 5.64987 6.8746C5.55372 6.90992 5.5044 7.01652 5.53972 7.11267L5.85799 7.979L5.44974 8.12898L5.27256 7.64672C5.23724 7.55057 5.13064 7.50125 5.03445 7.53655C4.93831 7.57187 4.88898 7.67847 4.92429 7.77466L5.24329 8.41364L4.78018 8.66376C4.60705 8.31268 4.22523 7.77993 3.86499 7.61326C3.44805 7.42036 2.981 7.40136 2.54983 7.55979C2.48947 7.58196 2.44489 7.63379 2.43203 7.69679C2.41914 7.75977 2.43983 7.82492 2.48663 7.86899L3.48757 9.06559L3.48757 10.5936C3.48042 10.6575 3.50685 10.7205 3.55743 10.7602C3.56888 10.7691 3.58117 10.7766 3.59402 10.7826C3.63818 10.803 3.6892 10.8055 3.7359 10.7883C4.16711 10.6299 4.51079 10.3131 4.70367 9.89619C4.87036 9.53591 4.87551 9.04342 4.78018 8.66376L5.24329 8.41364L5.40655 9.08741C5.42422 9.13552 5.45968 9.17189 5.50278 9.19183C5.54584 9.21175 5.59656 9.21525 5.64466 9.19758C5.74081 9.16226 5.79013 9.05566 5.75481 8.95951L5.44974 8.12898L5.85799 7.979L6.30418 9.19356C6.3218 9.24164 6.3573 9.27803 6.40036 9.29795C6.44347 9.3179 6.49418 9.32139 6.54224 9.3037C6.63843 9.2684 6.68776 9.1618 6.65241 9.06559L6.25716 7.88071L6.61889 7.77319L7.07652 9.07078C7.09415 9.11886 7.12965 9.15525 7.17271 9.17517C7.21582 9.19512 7.26649 9.1986 7.31459 9.18092C7.41074 9.1456 7.46006 9.039 7.42474 8.94285L6.96279 7.57313L7.37104 7.42315L7.95991 9.02618C7.97697 9.07262 8.01172 9.11004 8.0561 9.13057C8.06255 9.13356 8.06922 9.13616 8.07606 9.13842C8.12984 9.15612 8.18883 9.14828 8.23612 9.11707C9.29154 8.42141 9.71299 6.93216 9.73038 6.86914ZM3.89439 10.2947L3.86663 9.01471C3.87309 8.95668 3.85192 8.89898 3.80938 8.85895L2.99021 7.83344C3.23377 7.80526 3.48108 7.84445 3.70919 7.94999C4.03615 8.10126 4.28465 8.37079 4.4089 8.709C4.53312 9.04714 4.51825 9.41346 4.36698 9.74041C4.26142 9.96857 4.09825 10.1585 3.89439 10.2947ZM8.22261 8.66538L7.34389 6.27326C7.90286 6.26781 8.46136 6.46648 8.85194 6.64719C9.06037 6.74362 9.22781 6.83818 9.33137 6.90041C9.21833 7.23334 8.86889 8.12706 8.22261 8.66538Z" fill="white"/>
<path d="M7.37104 7.42315L6.91006 6.16832C6.89052 6.11515 6.89636 6.05593 6.92589 6.00763C6.95545 5.95928 7.00549 5.92706 7.06173 5.92023C7.7829 5.8323 8.51805 6.08389 9.00774 6.31045C9.39372 6.48903 9.64534 6.65916 9.65589 6.66628C9.72156 6.71099 9.75156 6.79253 9.73038 6.86914C9.71299 6.93216 9.29154 8.42142 8.23612 9.11707C8.18883 9.14828 8.12984 9.15612 8.07606 9.13842C8.06922 9.13616 8.06255 9.13356 8.0561 9.13057C8.01172 9.11004 7.97697 9.07262 7.95991 9.02618L7.37104 7.42315ZM7.37104 7.42315L6.96279 7.57313M6.96279 7.57313L6.50179 6.31834C6.46649 6.22215 6.35988 6.17283 6.26367 6.20818C6.16753 6.2435 6.11821 6.3501 6.15353 6.44625L6.61889 7.77319M6.96279 7.57313L7.42474 8.94285C7.46006 9.039 7.41074 9.1456 7.31459 9.18092C7.26649 9.1986 7.21582 9.19512 7.17271 9.17517C7.12965 9.15525 7.09415 9.11886 7.07652 9.07078L6.61889 7.77319M6.61889 7.77319L6.25716 7.88071M6.25716 7.88071L5.88798 6.98476C5.85268 6.88857 5.74607 6.83925 5.64987 6.8746C5.55372 6.90992 5.5044 7.01652 5.53972 7.11267L5.85799 7.979M6.25716 7.88071L6.65241 9.06559C6.68776 9.1618 6.63843 9.2684 6.54224 9.3037C6.49418 9.32139 6.44347 9.3179 6.40036 9.29795C6.3573 9.27803 6.3218 9.24164 6.30418 9.19356L5.85799 7.979M5.85799 7.979L5.44974 8.12898M5.44974 8.12898L5.27256 7.64672C5.23724 7.55057 5.13064 7.50125 5.03445 7.53655C4.93831 7.57187 4.88898 7.67847 4.92429 7.77466L5.24329 8.41364M5.44974 8.12898L5.75481 8.95951C5.79013 9.05566 5.74081 9.16226 5.64466 9.19758C5.59656 9.21525 5.54584 9.21175 5.50278 9.19183C5.45968 9.17189 5.42422 9.13552 5.40655 9.08741L5.24329 8.41364M5.24329 8.41364L4.78018 8.66376M4.78018 8.66376C4.60705 8.31268 4.22523 7.77993 3.86499 7.61326C3.44805 7.42036 2.981 7.40136 2.54983 7.55979C2.48947 7.58196 2.44489 7.63379 2.43203 7.69679C2.41914 7.75977 2.43983 7.82492 2.48663 7.86899L3.48757 9.06559L3.48757 10.5936C3.48042 10.6575 3.50685 10.7205 3.55743 10.7602C3.56888 10.7691 3.58117 10.7766 3.59402 10.7826C3.63818 10.803 3.6892 10.8055 3.7359 10.7883C4.16711 10.6299 4.51079 10.3131 4.70367 9.89619C4.87036 9.53591 4.87551 9.04342 4.78018 8.66376ZM3.89439 10.2947L3.86663 9.01471C3.87309 8.95668 3.85192 8.89898 3.80938 8.85895L2.99021 7.83344C3.23377 7.80526 3.48108 7.84445 3.70919 7.94999C4.03615 8.10126 4.28465 8.37079 4.4089 8.709C4.53312 9.04714 4.51825 9.41346 4.36698 9.74041C4.26142 9.96857 4.09825 10.1585 3.89439 10.2947ZM8.22261 8.66538L7.34389 6.27326C7.90286 6.26781 8.46136 6.46648 8.85194 6.64719C9.06037 6.74362 9.22781 6.83818 9.33137 6.90041C9.21833 7.23334 8.86889 8.12706 8.22261 8.66538Z" stroke="white" stroke-width="0.172415"/>
<path d="M8.29012 6.89051C8.24728 6.85746 8.19171 6.8424 8.13796 6.84934C8.08414 6.85636 8.03424 6.88484 8.00109 6.92781C7.96802 6.9707 7.95304 7.02632 7.95991 7.08016C7.96685 7.13392 7.99553 7.18383 8.03837 7.21688C8.08134 7.25002 8.1369 7.26509 8.19065 7.25815C8.2445 7.25108 8.29432 7.22253 8.32747 7.17956C8.36061 7.13659 8.37564 7.08108 8.3687 7.02732C8.3618 6.97352 8.33309 6.92365 8.29012 6.89051Z" fill="white"/>
<path d="M4.58707 8.60815C5.16316 8.12777 6.48185 7.37886 7.34698 7.29966" stroke="white" stroke-width="0.391094" stroke-linecap="round"/>
<path fill-rule="evenodd" clip-rule="evenodd" d="M12.7246 6.42676V8.44556H14.7544L14.7568 8.24437L14.7593 8.02367V7.4388C14.7593 7.14819 14.6609 6.88766 14.4768 6.70517C14.2927 6.52308 14.0309 6.42676 13.7407 6.42676H12.7246ZM13.7407 6.8332H13.1311V8.03911H14.3528V7.4388C14.3528 7.23639 14.291 7.09332 14.1906 6.99415C14.0907 6.89539 13.9443 6.8332 13.7407 6.8332Z" fill="white" stroke="white" stroke-width="0.162577"/>
</svg>
