<svg width="25" height="22" viewBox="0 0 25 22" fill="none" xmlns="http://www.w3.org/2000/svg">
<path d="M8.4806 1.38113C8.52973 1.35945 8.58257 1.34784 8.63611 1.34698C8.69074 1.34608 8.745 1.35639 8.79564 1.37728C8.84629 1.39817 8.8923 1.42924 8.93094 1.4686C8.96958 1.50797 9.00005 1.55488 9.02055 1.60648C9.04106 1.65808 9.05117 1.7134 9.05028 1.76906V2.59993C9.05028 2.71009 9.00734 2.8158 8.93089 2.89369C8.85444 2.97158 8.75075 3.01537 8.64263 3.01537C8.53452 3.01537 8.43083 2.97158 8.35438 2.89369C8.27793 2.8158 8.23498 2.71009 8.23498 2.59993V1.76906C8.23412 1.71452 8.24381 1.6603 8.2635 1.60957C8.28319 1.55884 8.3125 1.51253 8.34975 1.47334C8.387 1.43415 8.43146 1.40281 8.4806 1.38113Z" fill="#250E01"/>
<path d="M6.19848 2.49464C6.26622 2.44852 6.34598 2.42412 6.42745 2.42462C6.48191 2.42473 6.5358 2.43597 6.58593 2.45766C6.63607 2.47934 6.68142 2.51107 6.71933 2.55091L7.29575 3.13668C7.3337 3.17524 7.36383 3.22107 7.38442 3.2715C7.405 3.32192 7.41563 3.37602 7.41571 3.43063C7.41578 3.48525 7.4053 3.53937 7.38486 3.58986C7.36442 3.64034 7.33441 3.68626 7.29656 3.72493C7.25872 3.76361 7.21376 3.79432 7.16427 3.81529C7.11478 3.83626 7.06172 3.8471 7.00812 3.84718C6.95451 3.84726 6.90142 3.83657 6.85187 3.81574C6.80232 3.79492 6.75728 3.76433 6.71933 3.72576L6.14209 3.13917C6.08343 3.08156 6.04305 3.00732 6.02618 2.92611C6.0093 2.84489 6.01669 2.76034 6.04741 2.68345C6.07812 2.60656 6.13074 2.54077 6.19848 2.49464Z" fill="#250E01"/>
<path d="M10.3864 2.42962C10.4602 2.35194 10.5608 2.30662 10.6669 2.30332C10.7492 2.30059 10.8305 2.32254 10.8999 2.36782C10.9693 2.41309 11.0237 2.47879 11.0557 2.55616C11.0878 2.63353 11.096 2.71903 11.0795 2.80129C11.0629 2.88356 11.0222 2.95881 10.9628 3.01704L10.3864 3.6053C10.3484 3.64386 10.3033 3.67444 10.2537 3.69525C10.2041 3.71605 10.151 3.72671 10.0973 3.7266C10.0437 3.72648 9.99059 3.71559 9.94108 3.69457C9.89157 3.67355 9.8466 3.64278 9.80875 3.60405C9.77091 3.56533 9.74091 3.51936 9.72049 3.46882C9.70007 3.41829 9.68962 3.36411 9.68973 3.30946C9.68985 3.25481 9.70052 3.20068 9.72116 3.15023C9.74179 3.09979 9.77197 3.05394 9.80998 3.01538L10.3864 2.42962Z" fill="#250E01"/>
<path fill-rule="evenodd" clip-rule="evenodd" d="M8.63464 3.43721C7.96446 3.43721 7.41168 3.99958 7.41168 4.68324V5.09692H8.22698V4.68324C8.22698 4.44566 8.40146 4.2679 8.63464 4.2679C8.86781 4.2679 9.04229 4.44566 9.04229 4.68324V5.09692H9.85759V4.68324C9.85759 3.99958 9.30482 3.43721 8.63464 3.43721Z" fill="#250E01"/>
<path d="M9.04229 4.68324C9.04229 4.44566 8.86781 4.2679 8.63464 4.2679C8.40146 4.2679 8.22698 4.44566 8.22698 4.68324V5.09692H9.04229V4.68324Z" fill="#250E01"/>
<path d="M9.04229 5.09692V4.68324C9.04229 4.44566 8.86781 4.2679 8.63464 4.2679C8.40146 4.2679 8.22698 4.44566 8.22698 4.68324V5.09692M9.04229 5.09692H8.22698M9.04229 5.09692H9.85759V4.68324C9.85759 3.99958 9.30482 3.43721 8.63464 3.43721C7.96446 3.43721 7.41168 3.99958 7.41168 4.68324V5.09692H8.22698M8.63611 1.34698C8.58257 1.34784 8.52973 1.35945 8.4806 1.38113C8.43146 1.40281 8.387 1.43415 8.34975 1.47334C8.3125 1.51253 8.28319 1.55884 8.2635 1.60957C8.24381 1.6603 8.23412 1.71452 8.23498 1.76906V2.59993C8.23498 2.71009 8.27793 2.8158 8.35438 2.89369C8.43083 2.97158 8.53452 3.01537 8.64263 3.01537C8.75075 3.01537 8.85444 2.97158 8.93089 2.89369C9.00734 2.8158 9.05028 2.71009 9.05028 2.59993V1.76906C9.05117 1.7134 9.04106 1.65808 9.02055 1.60648C9.00005 1.55488 8.96958 1.50797 8.93094 1.4686C8.8923 1.42924 8.84629 1.39817 8.79564 1.37728C8.745 1.35639 8.69074 1.34608 8.63611 1.34698ZM6.42745 2.42462C6.34598 2.42412 6.26622 2.44852 6.19848 2.49464C6.13074 2.54077 6.07812 2.60656 6.04741 2.68345C6.01669 2.76034 6.0093 2.84489 6.02618 2.92611C6.04305 3.00732 6.08343 3.08156 6.14209 3.13917L6.71933 3.72576C6.75728 3.76433 6.80232 3.79492 6.85187 3.81574C6.90142 3.83657 6.95451 3.84726 7.00812 3.84718C7.06172 3.8471 7.11478 3.83626 7.16427 3.81529C7.21376 3.79432 7.25872 3.76361 7.29656 3.72493C7.33441 3.68626 7.36442 3.64034 7.38486 3.58986C7.4053 3.53937 7.41578 3.48525 7.41571 3.43063C7.41563 3.37602 7.405 3.32192 7.38442 3.2715C7.36383 3.22107 7.3337 3.17524 7.29575 3.13668L6.71933 2.55091C6.68142 2.51107 6.63607 2.47934 6.58593 2.45766C6.5358 2.43597 6.48191 2.42473 6.42745 2.42462ZM10.6669 2.30332C10.5608 2.30662 10.4602 2.35194 10.3864 2.42962L9.80998 3.01538C9.77197 3.05394 9.74179 3.09979 9.72116 3.15023C9.70052 3.20068 9.68985 3.25481 9.68973 3.30946C9.68962 3.36411 9.70007 3.41829 9.72049 3.46882C9.74091 3.51936 9.7709 3.56533 9.80875 3.60405C9.8466 3.64278 9.89157 3.67355 9.94108 3.69457C9.99059 3.71559 10.0437 3.72648 10.0973 3.7266C10.151 3.72671 10.2041 3.71605 10.2537 3.69525C10.3033 3.67444 10.3484 3.64386 10.3864 3.6053L10.9628 3.01704C11.0222 2.95881 11.0629 2.88356 11.0795 2.80129C11.096 2.71903 11.0878 2.63353 11.0557 2.55616C11.0237 2.47879 10.9693 2.41309 10.8999 2.36782C10.8305 2.32254 10.7492 2.30059 10.6669 2.30332Z" stroke="#250E01" stroke-width="0.228571"/>
<path fill-rule="evenodd" clip-rule="evenodd" d="M0.675049 5.00903C0.575593 5.00903 0.48021 5.04854 0.409884 5.11887C0.339558 5.18919 0.300049 5.28458 0.300049 5.38403L0.300049 18.128C0.300049 18.2275 0.339558 18.3229 0.409884 18.3932C0.48021 18.4635 0.575593 18.503 0.675049 18.503H2.68805C2.59929 18.7427 2.5526 18.996 2.55005 19.2515C2.55005 20.489 3.56255 21.5 4.80005 21.5C6.03755 21.5 7.05005 20.489 7.05005 19.2515C7.05005 18.9883 6.99605 18.7378 6.91205 18.503H16.938C16.8493 18.7427 16.8026 18.996 16.8 19.2515C16.8 20.489 17.8125 21.5 19.05 21.5C20.2875 21.5 21.3 20.489 21.3 19.2515C21.3 18.9883 21.246 18.7378 21.1621 18.503H23.925C24.0245 18.503 24.1199 18.4635 24.1902 18.3932C24.2605 18.3229 24.3 18.2275 24.3 18.128V15.0045C24.2991 14.4082 24.0616 13.8367 23.6399 13.4152C23.2181 12.9937 22.6463 12.7566 22.05 12.756H21.3V10.5263C21.2995 9.73096 20.9831 8.96839 20.4206 8.40615C19.8581 7.84391 19.0954 7.52798 18.3 7.52778H15.3V5.38403C15.3 5.28458 15.2605 5.18919 15.1902 5.11887C15.1199 5.04854 15.0245 5.00903 14.925 5.00903H0.675049ZM20.7143 17.753H23.55V17.253V16.503V15.7545V15.0045C23.55 14.1675 22.8878 13.506 22.05 13.506H20.55V10.5263C20.55 9.27453 19.5525 8.27778 18.3 8.27778H15.3V17.753H14.55V5.75903H1.05005V14.0045V14.7545V15.503V16.253V17.753H3.13655C3.54905 17.2955 4.14005 17.003 4.8008 17.003C5.46155 17.003 6.05255 17.2955 6.46505 17.753H17.3858C17.7983 17.2955 18.3893 17.003 19.05 17.003C19.7108 17.003 20.3018 17.2955 20.7143 17.753ZM6.30005 19.2515C6.30005 18.419 5.63255 17.753 4.80005 17.753C3.96755 17.753 3.30005 18.419 3.30005 19.2515C3.30005 20.084 3.96755 20.75 4.80005 20.75C5.63255 20.75 6.30005 20.084 6.30005 19.2515ZM20.55 19.2515C20.55 18.419 19.8825 17.753 19.05 17.753C18.2175 17.753 17.55 18.419 17.55 19.2515C17.55 20.084 18.2175 20.75 19.05 20.75C19.8825 20.75 20.55 20.084 20.55 19.2515Z" fill="#250E01" stroke="#250E01" stroke-width="0.6"/>
<path d="M12.6054 10.1218C12.6335 10.0203 12.5937 9.91219 12.5066 9.85292C12.4927 9.84349 12.1591 9.61794 11.6474 9.3812C10.9982 9.08085 10.0236 8.74731 9.06755 8.86389C8.993 8.87294 8.92666 8.91565 8.88747 8.97974C8.84832 9.04378 8.84058 9.12228 8.86648 9.19277L9.47761 10.8563L8.93639 11.0551L8.32523 9.39166C8.27844 9.26414 8.13711 9.19876 8.00957 9.24561C7.88211 9.29244 7.81672 9.43376 7.86355 9.56122L8.48048 11.3204L8.00093 11.4629L7.51151 10.2751C7.46471 10.1476 7.32339 10.0822 7.19584 10.1291C7.06838 10.1759 7.00299 10.3172 7.04982 10.4447L7.47175 11.5932L6.93053 11.792L6.69565 11.1527C6.64883 11.0252 6.5075 10.9598 6.37998 11.0066C6.25252 11.0535 6.18714 11.1948 6.23394 11.3223L6.65684 12.1694L6.0429 12.501C5.81338 12.0356 5.3072 11.3293 4.82963 11.1083C4.27689 10.8526 3.65772 10.8274 3.08612 11.0375C3.0061 11.0668 2.947 11.1356 2.92996 11.2191C2.91286 11.3026 2.94029 11.3889 3.00234 11.4474L4.32928 13.0337L4.32928 15.0594C4.31981 15.144 4.35484 15.2276 4.42189 15.2802C4.43707 15.2921 4.45336 15.302 4.4704 15.3099C4.52894 15.337 4.59659 15.3403 4.65849 15.3175C5.23015 15.1075 5.68576 14.6875 5.94146 14.1348C6.16245 13.6572 6.16927 13.0043 6.0429 12.501L6.65684 12.1694L6.87328 13.0626C6.8967 13.1264 6.94371 13.1746 7.00085 13.201C7.05794 13.2275 7.12517 13.2321 7.18894 13.2087C7.31641 13.1618 7.38179 13.0205 7.33497 12.8931L6.93053 11.792L7.47175 11.5932L8.06326 13.2033C8.08663 13.2671 8.13369 13.3153 8.19078 13.3417C8.24792 13.3682 8.31515 13.3728 8.37887 13.3494C8.50639 13.3026 8.57177 13.1612 8.52492 13.0337L8.00093 11.4629L8.48048 11.3204L9.08717 13.0406C9.11054 13.1043 9.15759 13.1526 9.21468 13.179C9.27183 13.2054 9.339 13.21 9.40277 13.1866C9.53023 13.1398 9.59562 12.9984 9.54879 12.871L8.93639 11.0551L9.47761 10.8563L10.2583 12.9814C10.2809 13.043 10.327 13.0926 10.3858 13.1198C10.3943 13.1238 10.4032 13.1273 10.4122 13.1302C10.4835 13.1537 10.5618 13.1433 10.6244 13.1019C12.0236 12.1797 12.5823 10.2054 12.6054 10.1218ZM4.86861 14.6631L4.83181 12.9662C4.84036 12.8893 4.81231 12.8128 4.7559 12.7598L3.66993 11.4002C3.99281 11.3629 4.32068 11.4148 4.62309 11.5547C5.05654 11.7553 5.38597 12.1126 5.55069 12.561C5.71537 13.0092 5.69565 13.4949 5.49511 13.9283C5.35517 14.2308 5.13886 14.4826 4.86861 14.6631ZM10.6065 12.5031L9.44162 9.3319C10.1826 9.32467 10.923 9.58804 11.4408 9.82761C11.7172 9.95545 11.9391 10.0808 12.0764 10.1633C11.9266 10.6047 11.4633 11.7895 10.6065 12.5031Z" fill="#250E01"/>
<path d="M9.47761 10.8563L8.86648 9.19277C8.84058 9.12228 8.84832 9.04378 8.88748 8.97974C8.92666 8.91565 8.993 8.87294 9.06755 8.86389C10.0236 8.74731 10.9982 9.08085 11.6474 9.3812C12.1591 9.61794 12.4927 9.84349 12.5066 9.85292C12.5937 9.91219 12.6335 10.0203 12.6054 10.1218C12.5823 10.2054 12.0236 12.1797 10.6244 13.1019C10.5618 13.1433 10.4835 13.1537 10.4122 13.1302C10.4032 13.1273 10.3943 13.1238 10.3858 13.1198C10.327 13.0926 10.2809 13.043 10.2583 12.9814L9.47761 10.8563ZM9.47761 10.8563L8.93639 11.0551M8.93639 11.0551L8.32523 9.39166C8.27844 9.26414 8.13711 9.19876 8.00957 9.24561C7.88211 9.29244 7.81672 9.43376 7.86355 9.56122L8.48048 11.3204M8.93639 11.0551L9.54879 12.871C9.59562 12.9984 9.53023 13.1398 9.40277 13.1866C9.339 13.21 9.27183 13.2054 9.21468 13.179C9.15759 13.1526 9.11054 13.1043 9.08717 13.0406L8.48048 11.3204M8.48048 11.3204L8.00093 11.4629M8.00093 11.4629L7.51151 10.2751C7.46471 10.1476 7.32339 10.0822 7.19584 10.1291C7.06838 10.1759 7.00299 10.3172 7.04982 10.4447L7.47175 11.5932M8.00093 11.4629L8.52492 13.0337C8.57177 13.1612 8.50639 13.3026 8.37887 13.3494C8.31515 13.3728 8.24792 13.3682 8.19078 13.3417C8.13369 13.3153 8.08663 13.2671 8.06326 13.2033L7.47175 11.5932M7.47175 11.5932L6.93053 11.792M6.93053 11.792L6.69565 11.1527C6.64883 11.0252 6.5075 10.9598 6.37998 11.0066C6.25252 11.0535 6.18714 11.1948 6.23394 11.3223L6.65684 12.1694M6.93053 11.792L7.33497 12.8931C7.38179 13.0205 7.31641 13.1618 7.18894 13.2087C7.12517 13.2321 7.05794 13.2275 7.00085 13.201C6.94371 13.1746 6.89671 13.1264 6.87328 13.0626L6.65684 12.1694M6.65684 12.1694L6.0429 12.501M6.0429 12.501C5.81338 12.0356 5.3072 11.3293 4.82963 11.1083C4.27689 10.8526 3.65772 10.8274 3.08612 11.0375C3.0061 11.0668 2.947 11.1356 2.92996 11.2191C2.91286 11.3026 2.94029 11.3889 3.00234 11.4474L4.32928 13.0337L4.32928 15.0594C4.31981 15.144 4.35484 15.2276 4.42189 15.2802C4.43707 15.2921 4.45336 15.302 4.4704 15.3099C4.52894 15.337 4.59659 15.3403 4.65849 15.3175C5.23015 15.1075 5.68576 14.6875 5.94147 14.1348C6.16245 13.6572 6.16927 13.0043 6.0429 12.501ZM4.86861 14.6631L4.83181 12.9662C4.84036 12.8893 4.81231 12.8128 4.7559 12.7598L3.66993 11.4002C3.99281 11.3629 4.32068 11.4148 4.62309 11.5547C5.05654 11.7553 5.38597 12.1126 5.55069 12.561C5.71537 13.0092 5.69565 13.4949 5.49511 13.9283C5.35517 14.2308 5.13886 14.4826 4.86861 14.6631ZM10.6065 12.5031L9.44162 9.3319C10.1826 9.32467 10.923 9.58804 11.4408 9.82761C11.7172 9.95545 11.9391 10.0808 12.0764 10.1633C11.9266 10.6047 11.4633 11.7895 10.6065 12.5031Z" stroke="#250E01" stroke-width="0.228571"/>
<path d="M10.6995 10.1478C10.6427 10.104 10.569 10.084 10.4977 10.0932C10.4264 10.1025 10.3602 10.1403 10.3163 10.1973C10.2725 10.2541 10.2526 10.3279 10.2617 10.3992C10.2709 10.4705 10.3089 10.5367 10.3657 10.5805C10.4227 10.6244 10.4963 10.6444 10.5676 10.6352C10.639 10.6258 10.705 10.588 10.749 10.531C10.7929 10.474 10.8128 10.4004 10.8036 10.3292C10.7945 10.2579 10.7564 10.1917 10.6995 10.1478Z" fill="#250E01"/>
<path d="M5.7912 12.4242C6.55492 11.7874 8.30312 10.7946 9.45002 10.6896" stroke="#250E01" stroke-width="0.518474" stroke-linecap="round"/>
<path fill-rule="evenodd" clip-rule="evenodd" d="M16.428 9.38306V12.3597H19.4208L19.4244 12.063L19.428 11.7376V10.8753C19.428 10.4468 19.283 10.0626 19.0115 9.79356C18.74 9.52509 18.3541 9.38306 17.9262 9.38306H16.428ZM17.9262 9.98234H17.0273V11.7604H18.8287V10.8753C18.8287 10.5768 18.7376 10.3659 18.5896 10.2197C18.4422 10.074 18.2264 9.98234 17.9262 9.98234Z" fill="#250E01" stroke="#250E01" stroke-width="0.239712"/>
</svg>
