<svg width="24" height="24" viewBox="0 0 24 24" fill="none" xmlns="http://www.w3.org/2000/svg">
<path d="M9.46174 4.87189C9.50075 4.85468 9.54271 4.84546 9.58522 4.84477C9.6286 4.84406 9.67167 4.85224 9.71189 4.86883C9.7521 4.88541 9.78864 4.91008 9.81932 4.94134C9.84999 4.9726 9.87419 5.00984 9.89047 5.05082C9.90675 5.09179 9.91478 5.13571 9.91408 5.17991V5.83964C9.91408 5.9271 9.87998 6.01104 9.81927 6.07289C9.75857 6.13474 9.67624 6.1695 9.59039 6.1695C9.50455 6.1695 9.42222 6.13474 9.36152 6.07289C9.30081 6.01104 9.26671 5.9271 9.26671 5.83964V5.17991C9.26603 5.1366 9.27372 5.09355 9.28936 5.05327C9.30499 5.01299 9.32826 4.97622 9.35784 4.9451C9.38742 4.91399 9.42272 4.8891 9.46174 4.87189Z" fill="#44544A"/>
<path d="M7.64969 5.75604C7.70348 5.71941 7.76681 5.70004 7.8315 5.70044C7.87474 5.70053 7.91753 5.70945 7.95734 5.72667C7.99714 5.74389 8.03316 5.76908 8.06326 5.80071L8.52094 6.26582C8.55108 6.29644 8.57501 6.33283 8.59135 6.37287C8.60769 6.41291 8.61613 6.45587 8.61619 6.49923C8.61625 6.54259 8.60793 6.58557 8.5917 6.62566C8.57547 6.66574 8.55164 6.7022 8.52159 6.73291C8.49154 6.76362 8.45585 6.78801 8.41655 6.80466C8.37725 6.82131 8.33512 6.82992 8.29256 6.82998C8.25 6.83004 8.20784 6.82155 8.1685 6.80501C8.12916 6.78848 8.09339 6.76419 8.06326 6.73357L7.60492 6.2678C7.55834 6.22206 7.52628 6.16311 7.51288 6.09863C7.49948 6.03414 7.50535 5.967 7.52974 5.90595C7.55412 5.8449 7.59591 5.79266 7.64969 5.75604Z" fill="#44544A"/>
<path d="M10.975 5.7044C11.0336 5.64273 11.1135 5.60674 11.1977 5.60413C11.2631 5.60195 11.3276 5.61939 11.3827 5.65534C11.4378 5.69129 11.481 5.74345 11.5064 5.80488C11.5319 5.86631 11.5384 5.93421 11.5253 5.99952C11.5121 6.06484 11.4798 6.12459 11.4327 6.17083L10.975 6.63792C10.9448 6.66854 10.909 6.69282 10.8696 6.70934C10.8302 6.72586 10.788 6.73432 10.7454 6.73423C10.7029 6.73414 10.6607 6.72549 10.6214 6.7088C10.5821 6.69211 10.5464 6.66768 10.5163 6.63693C10.4863 6.60618 10.4625 6.56968 10.4462 6.52955C10.43 6.48943 10.4217 6.44641 10.4218 6.40302C10.4219 6.35962 10.4304 6.31664 10.4468 6.27659C10.4631 6.23653 10.4871 6.20013 10.5173 6.16951L10.975 5.7044Z" fill="#44544A"/>
<path fill-rule="evenodd" clip-rule="evenodd" d="M9.58404 6.50445C9.05191 6.50445 8.613 6.95099 8.613 7.49382V7.8223H9.26036V7.49382C9.26036 7.30518 9.3989 7.16403 9.58404 7.16403C9.76919 7.16403 9.90773 7.30518 9.90773 7.49382V7.8223H10.5551V7.49382C10.5551 6.95099 10.1162 6.50445 9.58404 6.50445Z" fill="#44544A"/>
<path d="M9.90773 7.49382C9.90773 7.30518 9.76919 7.16403 9.58404 7.16403C9.3989 7.16403 9.26036 7.30518 9.26036 7.49382V7.8223H9.90773V7.49382Z" fill="#44544A"/>
<path d="M9.90773 7.8223V7.49382C9.90773 7.30518 9.76919 7.16403 9.58404 7.16403C9.3989 7.16403 9.26036 7.30518 9.26036 7.49382V7.8223M9.90773 7.8223H9.26036M9.90773 7.8223H10.5551V7.49382C10.5551 6.95099 10.1162 6.50445 9.58404 6.50445C9.05191 6.50445 8.613 6.95099 8.613 7.49382V7.8223H9.26036M9.58522 4.84477C9.54271 4.84546 9.50075 4.85468 9.46173 4.87189C9.42272 4.8891 9.38742 4.91399 9.35784 4.9451C9.32826 4.97622 9.30499 5.01299 9.28936 5.05327C9.27372 5.09355 9.26603 5.1366 9.26671 5.17991V5.83964C9.26671 5.9271 9.30081 6.01104 9.36152 6.07289C9.42222 6.13474 9.50455 6.1695 9.59039 6.1695C9.67624 6.1695 9.75857 6.13474 9.81927 6.07289C9.87998 6.01104 9.91408 5.9271 9.91408 5.83964V5.17991C9.91478 5.13571 9.90675 5.09179 9.89047 5.05082C9.87419 5.00984 9.84999 4.9726 9.81932 4.94134C9.78864 4.91008 9.7521 4.88541 9.71189 4.86883C9.67167 4.85224 9.6286 4.84406 9.58522 4.84477ZM7.8315 5.70044C7.76681 5.70004 7.70348 5.71941 7.64969 5.75604C7.59591 5.79266 7.55412 5.8449 7.52974 5.90595C7.50535 5.967 7.49948 6.03414 7.51288 6.09863C7.52628 6.16311 7.55834 6.22206 7.60492 6.2678L8.06326 6.73357C8.09339 6.76419 8.12916 6.78848 8.1685 6.80501C8.20784 6.82155 8.25 6.83004 8.29256 6.82998C8.33512 6.82992 8.37725 6.82131 8.41655 6.80466C8.45585 6.78801 8.49154 6.76362 8.52159 6.73291C8.55164 6.7022 8.57547 6.66574 8.5917 6.62566C8.60793 6.58557 8.61625 6.54259 8.61619 6.49923C8.61613 6.45587 8.60769 6.41291 8.59135 6.37287C8.57501 6.33283 8.55108 6.29644 8.52094 6.26582L8.06326 5.80071C8.03316 5.76908 7.99714 5.74389 7.95734 5.72667C7.91753 5.70945 7.87474 5.70053 7.8315 5.70044ZM11.1977 5.60413C11.1135 5.60674 11.0336 5.64273 10.975 5.7044L10.5173 6.16951C10.4871 6.20013 10.4631 6.23653 10.4468 6.27659C10.4304 6.31664 10.4219 6.35962 10.4218 6.40302C10.4217 6.44641 10.43 6.48943 10.4462 6.52955C10.4625 6.56968 10.4863 6.60618 10.5163 6.63693C10.5464 6.66768 10.5821 6.69211 10.6214 6.7088C10.6607 6.72549 10.7029 6.73414 10.7454 6.73423C10.788 6.73432 10.8302 6.72586 10.8696 6.70934C10.909 6.69282 10.9448 6.66854 10.975 6.63792L11.4327 6.17083C11.4798 6.12459 11.5121 6.06484 11.5253 5.99952C11.5384 5.93421 11.5319 5.86631 11.5064 5.80488C11.481 5.74345 11.4378 5.69129 11.3827 5.65534C11.3276 5.61939 11.2631 5.60195 11.1977 5.60413Z" stroke="#44544A" stroke-width="0.18149"/>
<path fill-rule="evenodd" clip-rule="evenodd" d="M3.26846 7.75C3.18949 7.75 3.11375 7.78137 3.05791 7.83721C3.00207 7.89305 2.9707 7.96879 2.9707 8.04776V18.1667C2.9707 18.2457 3.00207 18.3214 3.05791 18.3773C3.11375 18.4331 3.18949 18.4645 3.26846 18.4645H4.86682C4.79634 18.6548 4.75927 18.8559 4.75724 19.0588C4.75724 20.0414 5.56119 20.8442 6.54379 20.8442C7.52638 20.8442 8.33033 20.0414 8.33033 19.0588C8.33033 18.8498 8.28745 18.6509 8.22075 18.4645H16.1816C16.1111 18.6548 16.074 18.8559 16.072 19.0588C16.072 20.0414 16.8759 20.8442 17.8585 20.8442C18.8411 20.8442 19.6451 20.0414 19.6451 19.0588C19.6451 18.8498 19.6022 18.6509 19.5355 18.4645H21.7294C21.8084 18.4645 21.8841 18.4331 21.9399 18.3773C21.9958 18.3214 22.0271 18.2457 22.0271 18.1667V15.6866C22.0264 15.2131 21.8378 14.7593 21.5029 14.4246C21.168 14.0899 20.7141 13.9017 20.2406 13.9013H19.6451V12.1308C19.6446 11.4993 19.3935 10.8938 18.9468 10.4474C18.5002 10.0009 17.8945 9.75009 17.263 9.74993H14.881V8.04776C14.881 7.96879 14.8496 7.89305 14.7938 7.83721C14.7379 7.78137 14.6622 7.75 14.5832 7.75H3.26846ZM19.18 17.869H21.4316V17.472V16.8764V16.2821V15.6866C21.4316 15.022 20.9058 14.4968 20.2406 14.4968H19.0496V12.1308C19.0496 11.1369 18.2575 10.3454 17.263 10.3454H14.881V17.869H14.2855V8.34551H3.56622V14.8926V15.4881V16.0824V16.6779V17.869H5.22294C5.55047 17.5057 6.01973 17.2735 6.54438 17.2735C7.06903 17.2735 7.53829 17.5057 7.86583 17.869H16.5371C16.8646 17.5057 17.3339 17.2735 17.8585 17.2735C18.3832 17.2735 18.8525 17.5057 19.18 17.869ZM7.73481 19.0588C7.73481 18.3978 7.20481 17.869 6.54379 17.869C5.88277 17.869 5.35276 18.3978 5.35276 19.0588C5.35276 19.7198 5.88277 20.2486 6.54379 20.2486C7.20481 20.2486 7.73481 19.7198 7.73481 19.0588ZM19.0496 19.0588C19.0496 18.3978 18.5196 17.869 17.8585 17.869C17.1975 17.869 16.6675 18.3978 16.6675 19.0588C16.6675 19.7198 17.1975 20.2486 17.8585 20.2486C18.5196 20.2486 19.0496 19.7198 19.0496 19.0588Z" fill="#44544A" stroke="#44544A" stroke-width="0.476411"/>
<path d="M12.7427 11.8097C12.765 11.729 12.7334 11.6432 12.6643 11.5961C12.6532 11.5886 12.3883 11.4096 11.982 11.2216C11.4666 10.9831 10.6927 10.7183 9.93361 10.8108C9.87441 10.818 9.82173 10.8519 9.79062 10.9028C9.75953 10.9537 9.75339 11.016 9.77395 11.072L10.2592 12.3928L9.82946 12.5507L9.34419 11.2299C9.30703 11.1286 9.19482 11.0767 9.09355 11.1139C8.99234 11.1511 8.94042 11.2633 8.9776 11.3645L9.46746 12.7613L9.08669 12.8745L8.69808 11.9314C8.66092 11.8301 8.54871 11.7782 8.44743 11.8154C8.34623 11.8526 8.29431 11.9648 8.33149 12.066L8.66651 12.978L8.23677 13.1358L8.05027 12.6282C8.01309 12.527 7.90088 12.475 7.79963 12.5122C7.69842 12.5494 7.6465 12.6616 7.68366 12.7629L8.01946 13.4355L7.53198 13.6987C7.34974 13.3292 6.94781 12.7684 6.56861 12.593C6.12973 12.3899 5.6381 12.3699 5.18424 12.5367C5.1207 12.56 5.07377 12.6146 5.06024 12.6809C5.04666 12.7472 5.06845 12.8158 5.11771 12.8621L6.17133 14.1217L6.17133 15.7301C6.16381 15.7974 6.19163 15.8637 6.24487 15.9055C6.25692 15.9149 6.26986 15.9228 6.28338 15.9291C6.32986 15.9506 6.38358 15.9532 6.43273 15.9351C6.88664 15.7684 7.2484 15.4349 7.45144 14.996C7.6269 14.6168 7.63232 14.0984 7.53198 13.6987L8.01946 13.4355L8.19131 14.1447C8.20991 14.1953 8.24723 14.2336 8.29261 14.2546C8.33794 14.2756 8.39132 14.2793 8.44196 14.2607C8.54316 14.2235 8.59508 14.1113 8.5579 14.0101L8.23677 13.1358L8.66651 12.978L9.13618 14.2564C9.15474 14.307 9.1921 14.3453 9.23743 14.3663C9.28281 14.3873 9.33619 14.391 9.38678 14.3724C9.48803 14.3352 9.53995 14.223 9.50274 14.1217L9.08669 12.8745L9.46746 12.7613L9.94918 14.1272C9.96774 14.1778 10.0051 14.2161 10.0504 14.2371C10.0958 14.2581 10.1491 14.2617 10.1998 14.2431C10.301 14.2059 10.3529 14.0937 10.3157 13.9925L9.82946 12.5507L10.2592 12.3928L10.8791 14.0802C10.897 14.1291 10.9336 14.1685 10.9803 14.1901C10.9871 14.1933 10.9941 14.196 11.0013 14.1984C11.0579 14.217 11.12 14.2088 11.1698 14.1759C12.2808 13.4436 12.7244 11.876 12.7427 11.8097ZM6.59957 15.4155L6.57035 14.0682C6.57714 14.0071 6.55486 13.9463 6.51008 13.9042L5.64779 12.8247C5.90417 12.7951 6.1645 12.8363 6.40462 12.9474C6.74878 13.1066 7.01037 13.3904 7.14115 13.7464C7.27192 14.1023 7.25625 14.4879 7.09702 14.8321C6.98591 15.0722 6.81416 15.2722 6.59957 15.4155ZM11.1556 13.7005L10.2306 11.1824C10.819 11.1767 11.4069 11.3858 11.818 11.576C12.0374 11.6775 12.2137 11.7771 12.3227 11.8426C12.2037 12.193 11.8359 13.1338 11.1556 13.7005Z" fill="#44544A"/>
<path d="M10.2592 12.3928L9.77395 11.072C9.75339 11.016 9.75953 10.9537 9.79062 10.9028C9.82173 10.8519 9.87441 10.818 9.93361 10.8108C10.6927 10.7183 11.4666 10.9831 11.982 11.2216C12.3883 11.4096 12.6532 11.5886 12.6643 11.5961C12.7334 11.6432 12.765 11.729 12.7427 11.8097C12.7244 11.876 12.2808 13.4436 11.1698 14.1759C11.12 14.2088 11.0579 14.217 11.0013 14.1984C10.9941 14.196 10.9871 14.1933 10.9803 14.1901C10.9336 14.1685 10.897 14.1291 10.8791 14.0802L10.2592 12.3928ZM10.2592 12.3928L9.82946 12.5507M9.82946 12.5507L9.34419 11.2299C9.30703 11.1286 9.19482 11.0767 9.09355 11.1139C8.99234 11.1511 8.94042 11.2633 8.9776 11.3645L9.46746 12.7613M9.82946 12.5507L10.3157 13.9925C10.3529 14.0937 10.301 14.2059 10.1998 14.2431C10.1491 14.2617 10.0958 14.2581 10.0504 14.2371C10.0051 14.2161 9.96774 14.1778 9.94918 14.1272L9.46746 12.7613M9.46746 12.7613L9.08669 12.8745M9.08669 12.8745L8.69808 11.9314C8.66092 11.8301 8.54871 11.7782 8.44743 11.8154C8.34623 11.8526 8.29431 11.9648 8.33149 12.066L8.66651 12.978M9.08669 12.8745L9.50274 14.1217C9.53995 14.223 9.48803 14.3352 9.38678 14.3724C9.33619 14.391 9.28281 14.3873 9.23743 14.3663C9.1921 14.3453 9.15474 14.307 9.13618 14.2564L8.66651 12.978M8.66651 12.978L8.23677 13.1358M8.23677 13.1358L8.05027 12.6282C8.01309 12.527 7.90088 12.475 7.79963 12.5122C7.69842 12.5494 7.64651 12.6616 7.68366 12.7629L8.01946 13.4355M8.23677 13.1358L8.5579 14.0101C8.59508 14.1113 8.54316 14.2235 8.44196 14.2607C8.39132 14.2793 8.33794 14.2756 8.29261 14.2546C8.24723 14.2336 8.20991 14.1953 8.19131 14.1447L8.01946 13.4355M8.01946 13.4355L7.53198 13.6987M7.53198 13.6987C7.34974 13.3292 6.94781 12.7684 6.56861 12.593C6.12973 12.3899 5.6381 12.3699 5.18424 12.5367C5.1207 12.56 5.07377 12.6146 5.06024 12.6809C5.04666 12.7472 5.06845 12.8158 5.11771 12.8621L6.17133 14.1217L6.17133 15.7301C6.16381 15.7974 6.19163 15.8637 6.24487 15.9055C6.25692 15.9149 6.26986 15.9228 6.28338 15.9291C6.32986 15.9506 6.38358 15.9532 6.43273 15.9351C6.88664 15.7684 7.2484 15.4349 7.45144 14.996C7.6269 14.6168 7.63232 14.0984 7.53198 13.6987ZM6.59957 15.4155L6.57035 14.0682C6.57714 14.0071 6.55486 13.9463 6.51008 13.9042L5.64779 12.8247C5.90417 12.7951 6.1645 12.8363 6.40462 12.9474C6.74878 13.1066 7.01037 13.3904 7.14115 13.7464C7.27192 14.1023 7.25625 14.4879 7.09702 14.8321C6.98591 15.0722 6.81416 15.2722 6.59957 15.4155ZM11.1556 13.7005L10.2306 11.1824C10.819 11.1767 11.4069 11.3858 11.818 11.576C12.0374 11.6775 12.2137 11.7771 12.3227 11.8426C12.2037 12.193 11.8359 13.1338 11.1556 13.7005Z" stroke="#44544A" stroke-width="0.18149"/>
<path d="M11.2264 11.8317C11.1813 11.7969 11.1229 11.7811 11.0663 11.7884C11.0096 11.7958 10.9571 11.8257 10.9222 11.871C10.8874 11.9161 10.8716 11.9747 10.8789 12.0313C10.8862 12.0879 10.9163 12.1405 10.9614 12.1753C11.0067 12.2101 11.0652 12.226 11.1217 12.2187C11.1784 12.2113 11.2309 12.1812 11.2658 12.136C11.3006 12.0907 11.3165 12.0323 11.3092 11.9757C11.3019 11.9191 11.2717 11.8666 11.2264 11.8317Z" fill="#44544A"/>
<path d="M7.32767 13.6398C7.93408 13.1341 9.32218 12.3458 10.2328 12.2624" stroke="#44544A" stroke-width="0.411677" stroke-linecap="round"/>
<path fill-rule="evenodd" clip-rule="evenodd" d="M15.8945 11.3438V13.4688H18.0311L18.0337 13.257L18.0363 13.0247V12.4091C18.0363 12.1032 17.9327 11.8289 17.7389 11.6368C17.5451 11.4451 17.2696 11.3438 16.9641 11.3438H15.8945ZM16.9641 11.7716H16.3224V13.041H17.6084V12.4091C17.6084 12.196 17.5434 12.0454 17.4377 11.941C17.3325 11.837 17.1785 11.7716 16.9641 11.7716Z" fill="#44544A" stroke="#44544A" stroke-width="0.171134"/>
</svg>
