<svg width="24" height="24" viewBox="0 0 24 24" fill="none" xmlns="http://www.w3.org/2000/svg">
<path d="M10.6139 5.27873C10.651 5.26238 10.6909 5.25362 10.7312 5.25297C10.7725 5.25229 10.8134 5.26007 10.8516 5.27583C10.8898 5.29158 10.9245 5.31502 10.9536 5.34471C10.9828 5.37441 11.0058 5.40979 11.0212 5.44872C11.0367 5.48764 11.0443 5.52937 11.0437 5.57135V6.1981C11.0437 6.28119 11.0113 6.36093 10.9536 6.41968C10.8959 6.47844 10.8177 6.51147 10.7362 6.51147C10.6546 6.51147 10.5764 6.47844 10.5187 6.41968C10.4611 6.36093 10.4287 6.28119 10.4287 6.1981V5.57135C10.428 5.53021 10.4353 5.48931 10.4502 5.45105C10.465 5.41278 10.4871 5.37785 10.5152 5.34829C10.5433 5.31873 10.5769 5.29508 10.6139 5.27873Z" fill="white"/>
<path d="M8.8925 6.11867C8.9436 6.08388 9.00376 6.06548 9.06522 6.06585C9.1063 6.06594 9.14695 6.07442 9.18476 6.09078C9.22258 6.10713 9.25679 6.13106 9.28539 6.16112L9.72019 6.60297C9.74882 6.63206 9.77155 6.66663 9.78707 6.70467C9.8026 6.74271 9.81062 6.78351 9.81068 6.82471C9.81073 6.8659 9.80283 6.90673 9.78741 6.94481C9.77199 6.9829 9.74936 7.01753 9.72081 7.0467C9.69226 7.07587 9.65835 7.09905 9.62101 7.11486C9.58368 7.13068 9.54366 7.13886 9.50322 7.13892C9.46279 7.13898 9.42274 7.13091 9.38537 7.1152C9.34799 7.09949 9.31402 7.07642 9.28539 7.04733L8.84997 6.60485C8.80572 6.5614 8.77526 6.50539 8.76253 6.44413C8.7498 6.38287 8.75538 6.31909 8.77854 6.26109C8.80171 6.20309 8.8414 6.15347 8.8925 6.11867Z" fill="white"/>
<path d="M12.0515 6.06962C12.1072 6.01103 12.1831 5.97685 12.2631 5.97436C12.3252 5.9723 12.3865 5.98886 12.4389 6.02301C12.4912 6.05716 12.5322 6.10672 12.5564 6.16508C12.5806 6.22344 12.5868 6.28793 12.5743 6.34999C12.5618 6.41204 12.5311 6.4688 12.4863 6.51273L12.0515 6.95646C12.0228 6.98555 11.9888 7.00862 11.9514 7.02431C11.914 7.04001 11.8739 7.04804 11.8335 7.04796C11.793 7.04787 11.753 7.03966 11.7156 7.0238C11.6783 7.00795 11.6443 6.98473 11.6158 6.95552C11.5872 6.92631 11.5646 6.89163 11.5492 6.85351C11.5338 6.81539 11.5259 6.77453 11.526 6.7333C11.5261 6.69208 11.5342 6.65125 11.5497 6.6132C11.5653 6.57514 11.588 6.54056 11.6167 6.51148L12.0515 6.06962Z" fill="white"/>
<path fill-rule="evenodd" clip-rule="evenodd" d="M10.7301 6.82967C10.2246 6.82967 9.80764 7.25388 9.80764 7.76957V8.08162H10.4226V7.76957C10.4226 7.59036 10.5542 7.45627 10.7301 7.45627C10.906 7.45627 11.0376 7.59036 11.0376 7.76957V8.08162H11.6526V7.76957C11.6526 7.25388 11.2357 6.82967 10.7301 6.82967Z" fill="white"/>
<path d="M11.0376 7.76957C11.0376 7.59036 10.906 7.45627 10.7301 7.45627C10.5542 7.45627 10.4226 7.59036 10.4226 7.76957V8.08162H11.0376V7.76957Z" fill="white"/>
<path d="M11.0376 8.08162V7.76957C11.0376 7.59036 10.906 7.45627 10.7301 7.45627C10.5542 7.45627 10.4226 7.59036 10.4226 7.76957V8.08162M11.0376 8.08162H10.4226M11.0376 8.08162H11.6526V7.76957C11.6526 7.25388 11.2357 6.82967 10.7301 6.82967C10.2246 6.82967 9.80764 7.25388 9.80764 7.76957V8.08162H10.4226M10.7312 5.25297C10.6909 5.25362 10.651 5.26238 10.6139 5.27873C10.5769 5.29508 10.5433 5.31873 10.5152 5.34829C10.4871 5.37785 10.465 5.41278 10.4502 5.45105C10.4353 5.48931 10.428 5.53021 10.4287 5.57135V6.1981C10.4287 6.28119 10.4611 6.36093 10.5187 6.41968C10.5764 6.47844 10.6546 6.51147 10.7362 6.51147C10.8177 6.51147 10.8959 6.47844 10.9536 6.41968C11.0113 6.36093 11.0437 6.28119 11.0437 6.1981V5.57135C11.0443 5.52937 11.0367 5.48764 11.0212 5.44872C11.0058 5.40979 10.9828 5.37441 10.9536 5.34471C10.9245 5.31502 10.8898 5.29158 10.8516 5.27583C10.8134 5.26007 10.7725 5.25229 10.7312 5.25297ZM9.06522 6.06585C9.00376 6.06548 8.9436 6.08388 8.8925 6.11867C8.8414 6.15347 8.80171 6.20309 8.77854 6.26109C8.75538 6.31909 8.7498 6.38287 8.76253 6.44413C8.77526 6.50539 8.80572 6.5614 8.84997 6.60485L9.28539 7.04733C9.31402 7.07642 9.34799 7.09949 9.38537 7.1152C9.42274 7.13091 9.46279 7.13898 9.50322 7.13892C9.54366 7.13886 9.58368 7.13068 9.62101 7.11486C9.65835 7.09905 9.69226 7.07587 9.72081 7.0467C9.74936 7.01753 9.77199 6.9829 9.78741 6.94481C9.80283 6.90673 9.81073 6.8659 9.81068 6.82471C9.81062 6.78351 9.8026 6.74271 9.78707 6.70467C9.77155 6.66663 9.74882 6.63206 9.72019 6.60297L9.28539 6.16112C9.25679 6.13106 9.22258 6.10713 9.18476 6.09078C9.14695 6.07442 9.1063 6.06594 9.06522 6.06585ZM12.2631 5.97436C12.1831 5.97685 12.1072 6.01103 12.0515 6.06962L11.6167 6.51148C11.588 6.54056 11.5653 6.57514 11.5497 6.6132C11.5342 6.65125 11.5261 6.69208 11.526 6.7333C11.5259 6.77453 11.5338 6.81539 11.5492 6.85351C11.5646 6.89163 11.5872 6.92631 11.6158 6.95552C11.6443 6.98473 11.6783 7.00795 11.7156 7.0238C11.753 7.03966 11.793 7.04787 11.8335 7.04796C11.8739 7.04804 11.914 7.04001 11.9514 7.02431C11.9888 7.00862 12.0228 6.98555 12.0515 6.95646L12.4863 6.51273C12.5311 6.4688 12.5618 6.41204 12.5743 6.34999C12.5868 6.28793 12.5806 6.22344 12.5564 6.16508C12.5322 6.10672 12.4912 6.05716 12.4389 6.02301C12.3865 5.98886 12.3252 5.9723 12.2631 5.97436Z" stroke="white" stroke-width="0.172415"/>
<path fill-rule="evenodd" clip-rule="evenodd" d="M4.73013 8.0127C4.65511 8.0127 4.58316 8.0425 4.53012 8.09555C4.47707 8.14859 4.44727 8.22054 4.44727 8.29556V17.9086C4.44727 17.9836 4.47707 18.0556 4.53012 18.1086C4.58316 18.1617 4.65511 18.1915 4.73013 18.1915H6.24858C6.18162 18.3723 6.14641 18.5633 6.14448 18.7561C6.14448 19.6895 6.90823 20.4521 7.84169 20.4521C8.77516 20.4521 9.53891 19.6895 9.53891 18.7561C9.53891 18.5575 9.49818 18.3685 9.43481 18.1915H16.9976C16.9306 18.3723 16.8954 18.5633 16.8935 18.7561C16.8935 19.6895 17.6572 20.4521 18.5907 20.4521C19.5242 20.4521 20.2879 19.6895 20.2879 18.7561C20.2879 18.5575 20.2472 18.3685 20.1838 18.1915H22.268C22.343 18.1915 22.415 18.1617 22.468 18.1086C22.5211 18.0556 22.5509 17.9836 22.5509 17.9086V15.5525C22.5501 15.1027 22.371 14.6715 22.0529 14.3536C21.7347 14.0356 21.3035 13.8568 20.8537 13.8564H20.2879V12.1745C20.2875 11.5745 20.0489 10.9993 19.6246 10.5752C19.2002 10.1511 18.6249 9.91278 18.025 9.91263H15.762V8.29556C15.762 8.22054 15.7322 8.14859 15.6792 8.09555C15.6261 8.0425 15.5542 8.0127 15.4792 8.0127H4.73013ZM19.8461 17.6257H21.9851V17.2486V16.6828V16.1182V15.5525C21.9851 14.9211 21.4856 14.4221 20.8537 14.4221H19.7222V12.1745C19.7222 11.2302 18.9698 10.4784 18.025 10.4784H15.762V17.6257H15.1963V8.57843H5.013V14.7982V15.3639V15.9285V16.4942V17.6257H6.58689C6.89804 17.2806 7.34384 17.06 7.84226 17.06C8.34068 17.06 8.78648 17.2806 9.09763 17.6257H17.3353C17.6465 17.2806 18.0923 17.06 18.5907 17.06C19.0891 17.06 19.5349 17.2806 19.8461 17.6257ZM8.97317 18.7561C8.97317 18.1281 8.46966 17.6257 7.84169 17.6257C7.21372 17.6257 6.71022 18.1281 6.71022 18.7561C6.71022 19.384 7.21372 19.8864 7.84169 19.8864C8.46966 19.8864 8.97317 19.384 8.97317 18.7561ZM19.7222 18.7561C19.7222 18.1281 19.2187 17.6257 18.5907 17.6257C17.9627 17.6257 17.4592 18.1281 17.4592 18.7561C17.4592 19.384 17.9627 19.8864 18.5907 19.8864C19.2187 19.8864 19.7222 19.384 19.7222 18.7561Z" fill="white" stroke="white" stroke-width="0.45259"/>
<path d="M13.7304 11.8691C13.7516 11.7925 13.7216 11.711 13.6559 11.6663C13.6453 11.6592 13.3937 11.489 13.0077 11.3105C12.518 11.0839 11.7829 10.8323 11.0617 10.9202C11.0055 10.9271 10.9555 10.9593 10.9259 11.0076C10.8964 11.0559 10.8905 11.1151 10.9101 11.1683L11.371 12.4232L10.9628 12.5731L10.5018 11.3183C10.4665 11.2222 10.3599 11.1728 10.2637 11.2082C10.1675 11.2435 10.1182 11.3501 10.1535 11.4462L10.6189 12.7732L10.2572 12.8807L9.88798 11.9848C9.85268 11.8886 9.74607 11.8393 9.64987 11.8746C9.55372 11.9099 9.5044 12.0165 9.53972 12.1127L9.85799 12.979L9.44974 13.129L9.27256 12.6467C9.23724 12.5506 9.13064 12.5012 9.03445 12.5365C8.93831 12.5719 8.88898 12.6785 8.92429 12.7747L9.24329 13.4136L8.78018 13.6638C8.60705 13.3127 8.22523 12.7799 7.86499 12.6133C7.44805 12.4204 6.981 12.4014 6.54983 12.5598C6.48947 12.582 6.44489 12.6338 6.43203 12.6968C6.41914 12.7598 6.43983 12.8249 6.48663 12.869L7.48757 14.0656L7.48757 15.5936C7.48042 15.6575 7.50685 15.7205 7.55743 15.7602C7.56888 15.7691 7.58117 15.7766 7.59402 15.7826C7.63818 15.803 7.6892 15.8055 7.7359 15.7883C8.16711 15.6299 8.51079 15.3131 8.70367 14.8962C8.87036 14.5359 8.87551 14.0434 8.78018 13.6638L9.24329 13.4136L9.40655 14.0874C9.42422 14.1355 9.45968 14.1719 9.50278 14.1918C9.54584 14.2118 9.59656 14.2153 9.64466 14.1976C9.74081 14.1623 9.79013 14.0557 9.75481 13.9595L9.44974 13.129L9.85799 12.979L10.3042 14.1936C10.3218 14.2416 10.3573 14.278 10.4004 14.298C10.4435 14.3179 10.4942 14.3214 10.5422 14.3037C10.6384 14.2684 10.6878 14.1618 10.6524 14.0656L10.2572 12.8807L10.6189 12.7732L11.0765 14.0708C11.0942 14.1189 11.1297 14.1552 11.1727 14.1752C11.2158 14.1951 11.2665 14.1986 11.3146 14.1809C11.4107 14.1456 11.4601 14.039 11.4247 13.9429L10.9628 12.5731L11.371 12.4232L11.9599 14.0262C11.977 14.0726 12.0117 14.11 12.0561 14.1306C12.0625 14.1336 12.0692 14.1362 12.0761 14.1384C12.1298 14.1561 12.1888 14.1483 12.2361 14.1171C13.2915 13.4214 13.713 11.9322 13.7304 11.8691ZM7.89439 15.2947L7.86663 14.0147C7.87309 13.9567 7.85192 13.899 7.80938 13.859L6.99021 12.8334C7.23377 12.8053 7.48108 12.8445 7.70919 12.95C8.03615 13.1013 8.28465 13.3708 8.4089 13.709C8.53312 14.0471 8.51825 14.4135 8.36698 14.7404C8.26142 14.9686 8.09825 15.1585 7.89439 15.2947ZM12.2226 13.6654L11.3439 11.2733C11.9029 11.2678 12.4614 11.4665 12.8519 11.6472C13.0604 11.7436 13.2278 11.8382 13.3314 11.9004C13.2183 12.2333 12.8689 13.1271 12.2226 13.6654Z" fill="white"/>
<path d="M11.371 12.4232L10.9101 11.1683C10.8905 11.1151 10.8964 11.0559 10.9259 11.0076C10.9555 10.9593 11.0055 10.9271 11.0617 10.9202C11.7829 10.8323 12.518 11.0839 13.0077 11.3105C13.3937 11.489 13.6453 11.6592 13.6559 11.6663C13.7216 11.711 13.7516 11.7925 13.7304 11.8691C13.713 11.9322 13.2915 13.4214 12.2361 14.1171C12.1888 14.1483 12.1298 14.1561 12.0761 14.1384C12.0692 14.1362 12.0625 14.1336 12.0561 14.1306C12.0117 14.11 11.977 14.0726 11.9599 14.0262L11.371 12.4232ZM11.371 12.4232L10.9628 12.5731M10.9628 12.5731L10.5018 11.3183C10.4665 11.2222 10.3599 11.1728 10.2637 11.2082C10.1675 11.2435 10.1182 11.3501 10.1535 11.4462L10.6189 12.7732M10.9628 12.5731L11.4247 13.9429C11.4601 14.039 11.4107 14.1456 11.3146 14.1809C11.2665 14.1986 11.2158 14.1951 11.1727 14.1752C11.1297 14.1552 11.0942 14.1189 11.0765 14.0708L10.6189 12.7732M10.6189 12.7732L10.2572 12.8807M10.2572 12.8807L9.88798 11.9848C9.85268 11.8886 9.74607 11.8393 9.64987 11.8746C9.55372 11.9099 9.5044 12.0165 9.53972 12.1127L9.85799 12.979M10.2572 12.8807L10.6524 14.0656C10.6878 14.1618 10.6384 14.2684 10.5422 14.3037C10.4942 14.3214 10.4435 14.3179 10.4004 14.298C10.3573 14.278 10.3218 14.2416 10.3042 14.1936L9.85799 12.979M9.85799 12.979L9.44974 13.129M9.44974 13.129L9.27256 12.6467C9.23724 12.5506 9.13064 12.5012 9.03445 12.5365C8.93831 12.5719 8.88898 12.6785 8.92429 12.7747L9.24329 13.4136M9.44974 13.129L9.75481 13.9595C9.79013 14.0557 9.74081 14.1623 9.64466 14.1976C9.59656 14.2153 9.54584 14.2118 9.50278 14.1918C9.45968 14.1719 9.42422 14.1355 9.40655 14.0874L9.24329 13.4136M9.24329 13.4136L8.78018 13.6638M8.78018 13.6638C8.60705 13.3127 8.22523 12.7799 7.86499 12.6133C7.44805 12.4204 6.981 12.4014 6.54983 12.5598C6.48947 12.582 6.44489 12.6338 6.43203 12.6968C6.41914 12.7598 6.43983 12.8249 6.48663 12.869L7.48757 14.0656L7.48757 15.5936C7.48042 15.6575 7.50685 15.7205 7.55743 15.7602C7.56888 15.7691 7.58117 15.7766 7.59402 15.7826C7.63818 15.803 7.6892 15.8055 7.7359 15.7883C8.16711 15.6299 8.51079 15.3131 8.70367 14.8962C8.87036 14.5359 8.87551 14.0434 8.78018 13.6638ZM7.89439 15.2947L7.86663 14.0147C7.87309 13.9567 7.85192 13.899 7.80938 13.859L6.99021 12.8334C7.23377 12.8053 7.48108 12.8445 7.70919 12.95C8.03615 13.1013 8.28465 13.3708 8.4089 13.709C8.53312 14.0471 8.51825 14.4135 8.36698 14.7404C8.26142 14.9686 8.09825 15.1585 7.89439 15.2947ZM12.2226 13.6654L11.3439 11.2733C11.9029 11.2678 12.4614 11.4665 12.8519 11.6472C13.0604 11.7436 13.2278 11.8382 13.3314 11.9004C13.2183 12.2333 12.8689 13.1271 12.2226 13.6654Z" stroke="white" stroke-width="0.172415"/>
<path d="M12.2901 11.8905C12.2473 11.8575 12.1917 11.8424 12.138 11.8493C12.0841 11.8564 12.0342 11.8848 12.0011 11.9278C11.968 11.9707 11.953 12.0263 11.9599 12.0802C11.9668 12.1339 11.9955 12.1838 12.0384 12.2169C12.0813 12.25 12.1369 12.2651 12.1907 12.2581C12.2445 12.2511 12.2943 12.2225 12.3275 12.1796C12.3606 12.1366 12.3756 12.0811 12.3687 12.0273C12.3618 11.9735 12.3331 11.9237 12.2901 11.8905Z" fill="white"/>
<path d="M8.58707 13.6082C9.16316 13.1278 10.4819 12.3789 11.347 12.2997" stroke="white" stroke-width="0.391094" stroke-linecap="round"/>
<path fill-rule="evenodd" clip-rule="evenodd" d="M16.7246 11.4268V13.4456H18.7544L18.7568 13.2444L18.7593 13.0237V12.4388C18.7593 12.1482 18.6609 11.8877 18.4768 11.7052C18.2927 11.5231 18.0309 11.4268 17.7407 11.4268H16.7246ZM17.7407 11.8332H17.1311V13.0391H18.3528V12.4388C18.3528 12.2364 18.291 12.0933 18.1906 11.9942C18.0907 11.8954 17.9443 11.8332 17.7407 11.8332Z" fill="white" stroke="white" stroke-width="0.162577"/>
</svg>
