<svg width="21" height="17" viewBox="0 0 21 17" fill="none" xmlns="http://www.w3.org/2000/svg">
<path d="M7.46174 0.117981C7.50075 0.100769 7.54271 0.0915506 7.58522 0.0908632C7.6286 0.0901502 7.67167 0.0983353 7.71189 0.114922C7.7521 0.131508 7.78864 0.156178 7.81932 0.187435C7.84999 0.218692 7.87419 0.255938 7.89047 0.296913C7.90675 0.337887 7.91478 0.381806 7.91408 0.426005V1.08573C7.91408 1.1732 7.87998 1.25713 7.81927 1.31898C7.75857 1.38083 7.67624 1.4156 7.59039 1.4156C7.50455 1.4156 7.42222 1.38083 7.36152 1.31898C7.30081 1.25713 7.26671 1.1732 7.26671 1.08573V0.426005C7.26603 0.382695 7.27372 0.339643 7.28936 0.299363C7.30499 0.259084 7.32826 0.222313 7.35784 0.191198C7.38742 0.160083 7.42272 0.135193 7.46174 0.117981Z" fill="#44544A"/>
<path d="M5.64969 1.00213C5.70348 0.965506 5.76681 0.946132 5.8315 0.94653C5.87474 0.94662 5.91753 0.955544 5.95734 0.972764C5.99714 0.989983 6.03316 1.01517 6.06326 1.04681L6.52094 1.51192C6.55108 1.54254 6.57501 1.57893 6.59135 1.61897C6.60769 1.65901 6.61613 1.70196 6.61619 1.74532C6.61625 1.78869 6.60793 1.83167 6.5917 1.87175C6.57547 1.91184 6.55164 1.9483 6.52159 1.979C6.49154 2.00971 6.45585 2.0341 6.41655 2.05075C6.37725 2.0674 6.33512 2.07601 6.29256 2.07607C6.25 2.07613 6.20784 2.06765 6.1685 2.05111C6.12916 2.03457 6.09339 2.01028 6.06326 1.97966L5.60492 1.5139C5.55834 1.46815 5.52628 1.4092 5.51288 1.34472C5.49948 1.28024 5.50535 1.2131 5.52974 1.15204C5.55412 1.09099 5.59591 1.03875 5.64969 1.00213Z" fill="#44544A"/>
<path d="M8.97498 0.950498C9.03357 0.888825 9.11346 0.852837 9.19767 0.85022C9.26308 0.848047 9.3276 0.86548 9.38272 0.90143C9.43784 0.93738 9.48097 0.989542 9.50642 1.05097C9.53187 1.11241 9.53845 1.1803 9.52528 1.24562C9.51211 1.31093 9.47982 1.37069 9.43266 1.41693L8.97498 1.88401C8.9448 1.91463 8.90899 1.93891 8.86961 1.95543C8.83023 1.97195 8.78804 1.98042 8.74544 1.98032C8.70285 1.98023 8.6607 1.97159 8.62138 1.9549C8.58207 1.93821 8.54637 1.91377 8.51632 1.88302C8.48626 1.85227 8.46245 1.81577 8.44623 1.77565C8.43002 1.73552 8.42172 1.6925 8.42181 1.64911C8.4219 1.60572 8.43038 1.56274 8.44676 1.52268C8.46314 1.48263 8.48711 1.44623 8.51729 1.41561L8.97498 0.950498Z" fill="#44544A"/>
<path fill-rule="evenodd" clip-rule="evenodd" d="M7.58404 1.75054C7.05191 1.75054 6.613 2.19708 6.613 2.73991V3.06839H7.26036V2.73991C7.26036 2.55127 7.3989 2.41013 7.58404 2.41013C7.76919 2.41013 7.90773 2.55127 7.90773 2.73991V3.06839H8.55509V2.73991C8.55509 2.19708 8.11618 1.75054 7.58404 1.75054Z" fill="#44544A"/>
<path d="M7.90773 2.73991C7.90773 2.55127 7.76919 2.41013 7.58404 2.41013C7.3989 2.41013 7.26036 2.55127 7.26036 2.73991V3.06839H7.90773V2.73991Z" fill="#44544A"/>
<path d="M7.90773 3.06839V2.73991C7.90773 2.55127 7.76919 2.41013 7.58404 2.41013C7.3989 2.41013 7.26036 2.55127 7.26036 2.73991V3.06839M7.90773 3.06839H7.26036M7.90773 3.06839H8.55509V2.73991C8.55509 2.19708 8.11618 1.75054 7.58404 1.75054C7.05191 1.75054 6.613 2.19708 6.613 2.73991V3.06839H7.26036M7.58522 0.0908632C7.54271 0.0915506 7.50075 0.100769 7.46173 0.117981C7.42272 0.135193 7.38742 0.160083 7.35784 0.191198C7.32826 0.222313 7.30499 0.259084 7.28936 0.299363C7.27372 0.339643 7.26603 0.382695 7.26671 0.426005V1.08573C7.26671 1.1732 7.30081 1.25713 7.36152 1.31898C7.42222 1.38083 7.50455 1.4156 7.59039 1.4156C7.67624 1.4156 7.75857 1.38083 7.81927 1.31898C7.87998 1.25713 7.91408 1.1732 7.91408 1.08573V0.426005C7.91478 0.381806 7.90675 0.337887 7.89047 0.296913C7.87419 0.255938 7.84999 0.218692 7.81932 0.187435C7.78864 0.156178 7.7521 0.131508 7.71189 0.114922C7.67167 0.0983353 7.6286 0.0901502 7.58522 0.0908632ZM5.8315 0.94653C5.76681 0.946132 5.70348 0.965506 5.64969 1.00213C5.59591 1.03875 5.55412 1.09099 5.52974 1.15204C5.50535 1.2131 5.49948 1.28024 5.51288 1.34472C5.52628 1.4092 5.55834 1.46815 5.60492 1.5139L6.06326 1.97966C6.09339 2.01028 6.12916 2.03457 6.1685 2.05111C6.20784 2.06765 6.25 2.07613 6.29256 2.07607C6.33512 2.07601 6.37725 2.0674 6.41655 2.05075C6.45585 2.0341 6.49154 2.00971 6.52159 1.979C6.55164 1.9483 6.57547 1.91184 6.5917 1.87175C6.60793 1.83167 6.61625 1.78869 6.61619 1.74532C6.61613 1.70196 6.60769 1.65901 6.59135 1.61897C6.57501 1.57893 6.55108 1.54254 6.52094 1.51192L6.06326 1.04681C6.03316 1.01517 5.99714 0.989983 5.95734 0.972764C5.91753 0.955544 5.87474 0.94662 5.8315 0.94653ZM9.19767 0.85022C9.11346 0.852837 9.03357 0.888825 8.97498 0.950498L8.51729 1.41561C8.48711 1.44623 8.46314 1.48263 8.44676 1.52268C8.43038 1.56274 8.4219 1.60572 8.42181 1.64911C8.42172 1.6925 8.43002 1.73552 8.44623 1.77565C8.46245 1.81577 8.48626 1.85227 8.51632 1.88302C8.54637 1.91377 8.58207 1.93821 8.62138 1.9549C8.6607 1.97159 8.70285 1.98023 8.74544 1.98032C8.78804 1.98042 8.83023 1.97195 8.86961 1.95543C8.90899 1.93891 8.9448 1.91463 8.97498 1.88401L9.43266 1.41693C9.47982 1.37069 9.51211 1.31093 9.52528 1.24562C9.53845 1.1803 9.53187 1.11241 9.50642 1.05097C9.48097 0.989542 9.43784 0.93738 9.38272 0.90143C9.3276 0.86548 9.26308 0.848047 9.19767 0.85022Z" stroke="#44544A" stroke-width="0.18149"/>
<path fill-rule="evenodd" clip-rule="evenodd" d="M1.26846 2.99609C1.18949 2.99609 1.11375 3.02746 1.05791 3.0833C1.00207 3.13914 0.970703 3.21488 0.970703 3.29385L0.970703 13.4128C0.970703 13.4918 1.00207 13.5675 1.05791 13.6234C1.11375 13.6792 1.18949 13.7106 1.26846 13.7106H2.86682C2.79634 13.9009 2.75927 14.102 2.75724 14.3049C2.75724 15.2875 3.56119 16.0903 4.54379 16.0903C5.52638 16.0903 6.33033 15.2875 6.33033 14.3049C6.33033 14.0959 6.28745 13.897 6.22075 13.7106H14.1816C14.1111 13.9009 14.074 14.102 14.072 14.3049C14.072 15.2875 14.8759 16.0903 15.8585 16.0903C16.8411 16.0903 17.6451 15.2875 17.6451 14.3049C17.6451 14.0959 17.6022 13.897 17.5355 13.7106H19.7294C19.8084 13.7106 19.8841 13.6792 19.9399 13.6234C19.9958 13.5675 20.0271 13.4918 20.0271 13.4128V10.9327C20.0264 10.4592 19.8378 10.0054 19.5029 9.67072C19.168 9.33604 18.7141 9.14783 18.2406 9.14735H17.6451V7.37689C17.6446 6.74539 17.3935 6.1399 16.9468 5.69347C16.5002 5.24704 15.8945 4.99619 15.263 4.99603H12.881V3.29385C12.881 3.21488 12.8496 3.13914 12.7938 3.0833C12.7379 3.02746 12.6622 2.99609 12.5832 2.99609H1.26846ZM17.18 13.1151H19.4316V12.7181V12.1225V11.5282V10.9327C19.4316 10.2681 18.9058 9.74287 18.2406 9.74287H17.0496V7.37689C17.0496 6.38298 16.2575 5.59154 15.263 5.59154H12.881V13.1151H12.2855V3.59161H1.56622V10.1387V10.7342V11.3285V11.924V13.1151H3.22294C3.55047 12.7518 4.01973 12.5196 4.54438 12.5196C5.06903 12.5196 5.53829 12.7518 5.86583 13.1151H14.5371C14.8646 12.7518 15.3339 12.5196 15.8585 12.5196C16.3832 12.5196 16.8525 12.7518 17.18 13.1151ZM5.73481 14.3049C5.73481 13.6439 5.20481 13.1151 4.54379 13.1151C3.88277 13.1151 3.35276 13.6439 3.35276 14.3049C3.35276 14.9659 3.88277 15.4947 4.54379 15.4947C5.20481 15.4947 5.73481 14.9659 5.73481 14.3049ZM17.0496 14.3049C17.0496 13.6439 16.5196 13.1151 15.8585 13.1151C15.1975 13.1151 14.6675 13.6439 14.6675 14.3049C14.6675 14.9659 15.1975 15.4947 15.8585 15.4947C16.5196 15.4947 17.0496 14.9659 17.0496 14.3049Z" fill="#44544A" stroke="#44544A" stroke-width="0.476411"/>
<path d="M10.7427 7.05576C10.765 6.97512 10.7334 6.88929 10.6643 6.84223C10.6532 6.83474 10.3883 6.65565 9.98203 6.46767C9.46657 6.22919 8.69274 5.96436 7.93361 6.05692C7.87441 6.06411 7.82173 6.09802 7.79062 6.14891C7.75953 6.19976 7.75339 6.26209 7.77395 6.31806L8.2592 7.63894L7.82946 7.79681L7.34419 6.47598C7.30703 6.37473 7.19482 6.32281 7.09355 6.36001C6.99234 6.39719 6.94042 6.50941 6.9776 6.61061L7.46746 8.0074L7.08669 8.12057L6.69808 7.17747C6.66092 7.07622 6.54871 7.02431 6.44743 7.06151C6.34623 7.09869 6.29431 7.2109 6.33149 7.31211L6.66651 8.22404L6.23677 8.38192L6.05027 7.87427C6.01309 7.77306 5.90088 7.72114 5.79963 7.7583C5.69842 7.79548 5.6465 7.9077 5.68366 8.00895L6.01946 8.68156L5.53198 8.94484C5.34974 8.57528 4.94781 8.01449 4.56861 7.83905C4.12973 7.63599 3.6381 7.61599 3.18424 7.78277C3.1207 7.80611 3.07377 7.86067 3.06024 7.92698C3.04666 7.99327 3.06845 8.06185 3.11771 8.10824L4.17133 9.36782L4.17133 10.9762C4.16381 11.0435 4.19163 11.1098 4.24487 11.1516C4.25692 11.161 4.26986 11.1689 4.28338 11.1752C4.32986 11.1967 4.38358 11.1993 4.43273 11.1812C4.88664 11.0145 5.2484 10.681 5.45144 10.2421C5.6269 9.86289 5.63232 9.34448 5.53198 8.94484L6.01946 8.68156L6.19131 9.39079C6.20991 9.44143 6.24723 9.47971 6.29261 9.5007C6.33794 9.52167 6.39132 9.52536 6.44196 9.50675C6.54316 9.46957 6.59508 9.35736 6.5579 9.25616L6.23677 8.38192L6.66651 8.22404L7.13618 9.50252C7.15474 9.55314 7.1921 9.59144 7.23743 9.61241C7.28281 9.6334 7.33619 9.63709 7.38678 9.61846C7.48803 9.5813 7.53995 9.46909 7.50274 9.36782L7.08669 8.12057L7.46746 8.0074L7.94918 9.37328C7.96774 9.4239 8.0051 9.4622 8.05043 9.48317C8.0958 9.50416 8.14914 9.50783 8.19978 9.48922C8.30098 9.45204 8.3529 9.33983 8.31572 9.23862L7.82946 7.79681L8.2592 7.63894L8.87906 9.32633C8.89702 9.37521 8.9336 9.41461 8.98031 9.43622C8.9871 9.43936 8.99412 9.44211 9.00132 9.44448C9.05793 9.46311 9.12003 9.45486 9.1698 9.42201C10.2808 8.68974 10.7244 7.1221 10.7427 7.05576ZM4.59957 10.6616L4.57035 9.31426C4.57714 9.25318 4.55486 9.19244 4.51008 9.15031L3.64779 8.07082C3.90417 8.04115 4.1645 8.08241 4.40462 8.19351C4.74878 8.35274 5.01037 8.63645 5.14115 8.99246C5.27192 9.3484 5.25625 9.734 5.09702 10.0782C4.98591 10.3183 4.81416 10.5183 4.59957 10.6616ZM9.15559 8.94655L8.23062 6.42853C8.81901 6.42279 9.4069 6.63191 9.81804 6.82213C10.0374 6.92364 10.2137 7.02317 10.3227 7.08868C10.2037 7.43914 9.83587 8.37989 9.15559 8.94655Z" fill="#44544A"/>
<path d="M8.2592 7.63894L7.77395 6.31806C7.75339 6.26209 7.75953 6.19976 7.79062 6.14891C7.82173 6.09802 7.87441 6.06411 7.93361 6.05692C8.69274 5.96436 9.46657 6.22919 9.98203 6.46767C10.3883 6.65565 10.6532 6.83474 10.6643 6.84223C10.7334 6.88929 10.765 6.97512 10.7427 7.05576C10.7244 7.1221 10.2808 8.68974 9.1698 9.42201C9.12003 9.45486 9.05793 9.46311 9.00132 9.44448C8.99412 9.44211 8.9871 9.43936 8.98031 9.43622C8.9336 9.41461 8.89702 9.37521 8.87906 9.32633L8.2592 7.63894ZM8.2592 7.63894L7.82946 7.79681M7.82946 7.79681L7.34419 6.47598C7.30703 6.37473 7.19482 6.32281 7.09355 6.36001C6.99234 6.39719 6.94042 6.50941 6.9776 6.61061L7.46746 8.0074M7.82946 7.79681L8.31572 9.23862C8.3529 9.33983 8.30098 9.45204 8.19978 9.48922C8.14914 9.50782 8.0958 9.50416 8.05043 9.48317C8.0051 9.4622 7.96774 9.4239 7.94918 9.37328L7.46746 8.0074M7.46746 8.0074L7.08669 8.12057M7.08669 8.12057L6.69808 7.17747C6.66092 7.07622 6.54871 7.02431 6.44743 7.06151C6.34623 7.09869 6.29431 7.2109 6.33149 7.31211L6.66651 8.22404M7.08669 8.12057L7.50274 9.36782C7.53995 9.46909 7.48803 9.5813 7.38678 9.61846C7.33619 9.63709 7.28281 9.6334 7.23743 9.61241C7.1921 9.59144 7.15474 9.55314 7.13618 9.50252L6.66651 8.22404M6.66651 8.22404L6.23677 8.38192M6.23677 8.38192L6.05027 7.87427C6.01309 7.77306 5.90088 7.72114 5.79963 7.7583C5.69842 7.79548 5.64651 7.9077 5.68366 8.00895L6.01946 8.68156M6.23677 8.38192L6.5579 9.25616C6.59508 9.35736 6.54316 9.46957 6.44196 9.50675C6.39132 9.52536 6.33794 9.52167 6.29261 9.5007C6.24723 9.47971 6.20991 9.44143 6.19131 9.39079L6.01946 8.68156M6.01946 8.68156L5.53198 8.94484M5.53198 8.94484C5.34974 8.57528 4.94781 8.01449 4.56861 7.83905C4.12973 7.63599 3.6381 7.61599 3.18424 7.78277C3.1207 7.80611 3.07377 7.86067 3.06024 7.92698C3.04666 7.99327 3.06845 8.06185 3.11771 8.10824L4.17133 9.36782L4.17133 10.9762C4.16381 11.0435 4.19163 11.1098 4.24487 11.1516C4.25692 11.161 4.26986 11.1689 4.28338 11.1752C4.32986 11.1967 4.38358 11.1993 4.43273 11.1812C4.88664 11.0145 5.2484 10.681 5.45144 10.2421C5.6269 9.86289 5.63232 9.34448 5.53198 8.94484ZM4.59957 10.6616L4.57035 9.31426C4.57714 9.25318 4.55486 9.19244 4.51008 9.15031L3.64779 8.07082C3.90417 8.04115 4.1645 8.08241 4.40462 8.19351C4.74878 8.35274 5.01037 8.63645 5.14115 8.99246C5.27192 9.3484 5.25625 9.734 5.09702 10.0782C4.98591 10.3183 4.81416 10.5183 4.59957 10.6616ZM9.15559 8.94655L8.23062 6.42853C8.81901 6.42279 9.4069 6.63191 9.81804 6.82213C10.0374 6.92364 10.2137 7.02317 10.3227 7.08868C10.2037 7.43914 9.83588 8.37989 9.15559 8.94655Z" stroke="#44544A" stroke-width="0.18149"/>
<path d="M9.22644 7.0778C9.18134 7.04301 9.12286 7.02715 9.06627 7.03446C9.00962 7.04185 8.95709 7.07183 8.9222 7.11706C8.88738 7.16221 8.87162 7.22076 8.87885 7.27743C8.88616 7.33402 8.91634 7.38656 8.96144 7.42134C9.00667 7.45623 9.06516 7.47209 9.12174 7.46479C9.17843 7.45735 9.23086 7.4273 9.26575 7.38206C9.30064 7.33683 9.31646 7.27839 9.30916 7.22181C9.30189 7.16518 9.27167 7.11268 9.22644 7.0778Z" fill="#44544A"/>
<path d="M5.32767 8.88589C5.93408 8.38023 7.32218 7.5919 8.23284 7.50853" stroke="#44544A" stroke-width="0.411677" stroke-linecap="round"/>
<path fill-rule="evenodd" clip-rule="evenodd" d="M13.8945 6.58984V8.7149H16.0311L16.0337 8.50312L16.0363 8.2708V7.65515C16.0363 7.34925 15.9327 7.07501 15.7389 6.88291C15.5451 6.69124 15.2696 6.58984 14.9641 6.58984H13.8945ZM14.9641 7.01768H14.3224V8.28706H15.6084V7.65515C15.6084 7.44209 15.5434 7.29149 15.4377 7.1871C15.3325 7.08314 15.1785 7.01768 14.9641 7.01768Z" fill="#44544A" stroke="#44544A" stroke-width="0.171134"/>
</svg>
