<svg width="9" height="13" viewBox="0 0 9 13" fill="none" xmlns="http://www.w3.org/2000/svg">
<path d="M4.33333 12.6667C3.471 12.6667 2.73617 12.3662 2.12883 11.7653C1.52161 11.1646 1.218 10.4351 1.218 9.57683V3.55133C0.881222 3.55133 0.594056 3.43356 0.3565 3.198C0.118833 2.96256 0 2.67644 0 2.33967V1.218C0 0.881222 0.118833 0.594056 0.3565 0.3565C0.594056 0.118834 0.881222 0 1.218 0H7.44233C7.779 0 8.06722 0.118834 8.307 0.3565C8.54678 0.594056 8.66667 0.881222 8.66667 1.218V2.33967C8.66667 2.67644 8.54678 2.96256 8.307 3.198C8.06722 3.43356 7.779 3.55133 7.44233 3.55133V9.673C7.41667 10.5098 7.10233 11.2179 6.49933 11.7975C5.89633 12.3769 5.17433 12.6667 4.33333 12.6667ZM1.218 2.55133H7.44233C7.50211 2.55133 7.55445 2.531 7.59933 2.49033C7.64422 2.44978 7.66667 2.39956 7.66667 2.33967V1.218C7.66667 1.15811 7.64422 1.10683 7.59933 1.06417C7.55445 1.02139 7.50211 1 7.44233 1H1.218C1.15811 1 1.10683 1.02139 1.06417 1.06417C1.02139 1.10683 1 1.15811 1 1.218V2.33967C1 2.39956 1.02139 2.44978 1.06417 2.49033C1.10683 2.531 1.15811 2.55133 1.218 2.55133ZM4.33333 11.6667C4.91878 11.6667 5.41667 11.4647 5.827 11.0608C6.23722 10.6571 6.44233 10.1624 6.44233 9.57683V9.32683H4.37817V8.327H6.44233V6.7115H4.37817V5.7115H6.44233V3.55133H2.218V9.57683C2.218 10.1624 2.42417 10.6571 2.8365 11.0608C3.24894 11.4647 3.74789 11.6667 4.33333 11.6667Z" fill="white"/>
</svg>
