<svg width="24" height="24" viewBox="0 0 24 24" fill="none" xmlns="http://www.w3.org/2000/svg">
<path d="M11.4639 2.63867C12.588 2.63825 13.3418 2.90661 13.9189 3.50684C14.1847 3.78333 14.3905 4.10705 14.5752 4.43457C14.6682 4.5995 14.7609 4.77522 14.8545 4.95215C14.8931 5.02507 14.9338 5.09811 14.9736 5.17285H18.0391C18.6184 5.17289 19.0877 5.64238 19.0879 6.22168V11.2539C19.0877 11.6126 18.7972 11.9032 18.4385 11.9033C18.0796 11.9033 17.7883 11.6127 17.7881 11.2539V6.47266H5.32422V19.292H12.0146C12.3736 19.292 12.665 19.5834 12.665 19.9424C12.6647 20.3011 12.3734 20.5918 12.0146 20.5918H5.07324C4.49392 20.5918 4.02367 20.1222 4.02344 19.543V6.22168C4.02361 5.64236 4.49388 5.17285 5.07324 5.17285H8.13672C8.20698 5.03274 8.28143 4.88121 8.37109 4.70508C8.52191 4.40886 8.70593 4.0753 8.95312 3.76855C9.47978 3.11511 10.2501 2.63917 11.4639 2.63867ZM11.5039 3.56152C11.0478 3.56152 10.6778 3.92591 10.6777 4.37598C10.6777 4.82607 11.0478 5.19141 11.5039 5.19141C11.9599 5.19124 12.3291 4.82597 12.3291 4.37598C12.3291 3.92601 11.9599 3.56169 11.5039 3.56152Z" fill="#44544A"/>
<path d="M18.0421 18.6755C18.0619 18.6804 18.074 18.6845 18.087 18.6858C18.4079 18.7241 18.7284 18.7625 19.0494 18.7998C19.1091 18.8067 19.1729 18.801 19.2301 18.8157C19.4454 18.8708 19.5764 19.0758 19.5456 19.2987C19.5128 19.5352 19.3331 19.7171 19.099 19.7428C18.7982 19.7758 18.4977 19.7841 18.1982 19.7767C17.4863 19.7583 16.7948 19.6494 16.126 19.4411C15.6601 19.2961 15.2169 19.1033 14.8024 18.8519C14.3819 18.5967 14.0068 18.2857 13.6877 17.9077C13.627 17.836 13.555 17.7702 13.5352 17.6712C13.5211 17.5997 13.507 17.5232 13.5172 17.4503C13.5899 16.9305 13.7187 16.4219 13.9403 15.9343C14.0523 15.6877 14.1867 15.4529 14.3461 15.2326C14.3682 15.2021 14.3665 15.1841 14.3435 15.1609C14.2725 15.0906 14.2017 15.0195 14.1331 14.9468C14.1081 14.9205 14.0899 14.9242 14.0653 14.9512C14.0296 14.9907 13.9914 15.0277 13.9544 15.066C13.4649 15.5728 12.9755 16.0795 12.4863 16.586C12.3857 16.6902 12.2706 16.7515 12.1306 16.7406C11.965 16.7277 11.8524 16.6407 11.8018 16.4825C11.7509 16.324 11.7889 16.1743 11.9101 16.0484C12.4276 15.5105 12.9471 14.9747 13.4656 14.4379C13.5625 14.3375 13.553 14.3641 13.4709 14.2789C13.3797 14.1845 13.2849 14.0933 13.195 13.9975C13.1626 13.9627 13.1441 13.9692 13.1116 14.0034C12.7474 14.3824 12.3818 14.7599 12.0167 15.138C11.9336 15.2241 11.8357 15.2747 11.7211 15.2815C11.5525 15.2914 11.4093 15.1967 11.3482 15.0376C11.2924 14.8914 11.3333 14.7139 11.4529 14.5901C11.8233 14.2061 12.1937 13.822 12.5648 13.4388C12.5915 13.4112 12.5972 13.3931 12.5697 13.3659C12.4603 13.2579 12.3522 13.1485 12.2455 13.0378C12.2185 13.01 12.2012 13.0097 12.1713 13.0411C12.0002 13.2209 11.8278 13.3999 11.6539 13.5769C11.4892 13.7443 11.246 13.7597 11.0925 13.6158C10.9282 13.4613 10.931 13.1967 11.1013 13.0183C11.2683 12.8434 11.4374 12.6703 11.6053 12.4965C11.656 12.444 11.6563 12.4437 11.6078 12.3947C11.524 12.3098 11.4415 12.2231 11.3552 12.1407C11.3369 12.1232 11.3064 12.1097 11.2811 12.1106C10.8719 12.1267 10.4626 12.1459 10.0533 12.1636C9.88606 12.1711 9.71879 12.1808 9.55197 12.1844C9.34863 12.1883 9.17999 12.0566 9.13079 11.8619C9.08296 11.6725 9.16307 11.4579 9.33138 11.3353C9.41346 11.2751 9.50482 11.2443 9.60275 11.2396C10.0749 11.2186 10.5472 11.197 11.0196 11.1757C11.0825 11.1729 11.0828 11.1726 11.0846 11.1085C11.0999 10.6262 11.115 10.1443 11.1306 9.66228C11.139 9.4091 11.3071 9.21067 11.5512 9.16307C11.8065 9.11338 12.0547 9.31369 12.0511 9.57711C12.0468 9.8986 12.0329 10.2208 12.0232 10.5428C12.015 10.8145 12.0072 11.086 11.9975 11.3578C11.9963 11.3939 12.0065 11.4193 12.0308 11.4428C12.1169 11.5278 12.2012 11.6142 12.2863 11.7003C12.3301 11.7446 12.3306 11.7451 12.3791 11.6948C12.547 11.521 12.7147 11.3463 12.8831 11.173C13.0901 10.9603 13.4057 10.996 13.53 11.245C13.6008 11.3869 13.5731 11.5832 13.4561 11.7084C13.2832 11.8935 13.1056 12.0738 12.9301 12.2561C12.8833 12.3045 12.8831 12.3047 12.9256 12.3478C13.0317 12.4551 13.1378 12.562 13.2431 12.6702C13.2676 12.695 13.2842 12.6939 13.3106 12.6666C13.6795 12.2832 14.0494 11.9008 14.4192 11.5184C14.5473 11.3858 14.721 11.3416 14.8707 11.4034C15.0281 11.4687 15.1171 11.6171 15.1027 11.7981C15.0937 11.9101 15.043 12.0052 14.9635 12.087C14.7338 12.3248 14.5044 12.5623 14.2747 12.8001C14.138 12.9417 14.002 13.0835 13.8642 13.2241C13.8368 13.2525 13.834 13.2691 13.8609 13.2959C13.9696 13.4026 14.0764 13.5113 14.182 13.6207C14.2087 13.6483 14.2272 13.6498 14.2568 13.6187C14.3791 13.49 14.5031 13.3637 14.6264 13.236C15.0351 12.8129 15.4441 12.3895 15.8522 11.9659C16.0104 11.8021 16.2451 11.7819 16.4075 11.9186C16.5599 12.0469 16.58 12.2894 16.4515 12.4695C16.4282 12.5022 16.4009 12.5325 16.373 12.5614C15.8613 13.0917 15.3494 13.6212 14.838 14.1517C14.7641 14.2282 14.7677 14.2124 14.8344 14.2799C14.8953 14.3415 14.9566 14.4025 15.017 14.4646C15.038 14.4859 15.0544 14.4907 15.0832 14.4684C15.5114 14.137 15.9839 13.9081 16.4891 13.7638C16.729 13.6952 16.9732 13.6494 17.2162 13.5953C17.3764 13.5596 17.5099 13.6071 17.6283 13.7064C18.056 14.0651 18.4054 14.4927 18.6859 14.9825C18.9502 15.4446 19.1523 15.9372 19.2904 16.4601C19.3607 16.727 19.4154 16.9995 19.469 17.2716C19.5149 17.5046 19.3854 17.7491 19.1621 17.8405C19.0331 17.8931 18.9198 17.9709 18.8028 18.0444C18.5322 18.2142 18.2938 18.427 18.0626 18.6498C18.0573 18.6552 18.0527 18.662 18.041 18.6766L18.0421 18.6755ZM16.7643 16.7782C16.8406 16.8495 16.9363 16.8685 17.046 16.8232C17.1453 16.7822 17.2173 16.6777 17.2221 16.5675C17.2284 16.4166 17.2322 16.2658 17.237 16.115C17.2392 16.0459 17.239 16.0452 17.3085 16.042C17.4543 16.0349 17.5999 16.031 17.7455 16.021C17.9006 16.0104 18.0187 15.8829 18.0205 15.7307C18.0223 15.58 17.9053 15.4687 17.7519 15.4751C17.6047 15.4812 17.4577 15.4876 17.3104 15.4958C17.27 15.4982 17.2547 15.4886 17.2569 15.4428C17.2649 15.2887 17.269 15.1351 17.2724 14.9812C17.2751 14.8645 17.2083 14.7661 17.109 14.7337C16.9291 14.6749 16.7488 14.8103 16.7393 15.0141C16.7322 15.1632 16.7275 15.3124 16.7258 15.4615C16.7253 15.5102 16.7096 15.5229 16.6641 15.5244C16.5171 15.5287 16.3696 15.5356 16.2228 15.5449C16.066 15.5548 15.9434 15.6827 15.9419 15.8346C15.94 15.99 16.0601 16.0991 16.2192 16.0904C16.3634 16.0823 16.5073 16.0792 16.6515 16.0701C16.6983 16.0672 16.7067 16.0859 16.7048 16.1283C16.6982 16.2789 16.6945 16.4297 16.6896 16.5805C16.6875 16.6561 16.711 16.7204 16.7648 16.7787L16.7643 16.7782Z" fill="#44544A"/>
</svg>
