<svg width="56" height="56" viewBox="0 0 56 56" fill="none" xmlns="http://www.w3.org/2000/svg">
<path fill-rule="evenodd" clip-rule="evenodd" d="M27.4102 5.45117C30.2001 5.45016 32.0554 6.12461 33.4717 7.61817C34.125 8.30719 34.6299 9.11501 35.0879 9.93848C35.3186 10.3533 35.5491 10.7945 35.7822 11.2412C35.8857 11.4395 35.9942 11.6387 36.1016 11.8428H43.8506C45.2062 11.8428 46.3047 12.9422 46.3047 14.2979V27.0859C46.3043 27.9369 45.6147 28.627 44.7637 28.627C43.9129 28.6266 43.223 27.9367 43.2227 27.0859V14.9258H12.0547V47.4629H28.7803C29.6315 47.4629 30.3213 48.1537 30.3213 49.0049C30.3209 49.8557 29.6312 50.5459 28.7803 50.5459H11.4268C10.0715 50.5455 8.97283 49.4461 8.97266 48.0908V14.2979C8.97266 12.9424 10.0714 11.8431 11.4268 11.8428H19.1738C19.3567 11.4746 19.5462 11.0765 19.7773 10.6162C20.1516 9.87096 20.6061 9.03737 21.2148 8.27149C22.5083 6.64449 24.4057 5.45243 27.4102 5.45117ZM27.5098 7.68457C26.3749 7.68457 25.4543 8.60446 25.4541 9.73926C25.4541 10.8742 26.3748 11.7949 27.5098 11.7949C28.6446 11.7948 29.5645 10.8741 29.5645 9.73926C29.5643 8.60452 28.6445 7.68467 27.5098 7.68457Z" fill="white"/>
<path d="M43.473 45.8217C43.518 45.8342 43.5457 45.8444 43.5751 45.8482C44.3025 45.9604 45.0288 46.0726 45.7562 46.1824C45.8917 46.203 46.035 46.1958 46.1654 46.2331C46.6557 46.3731 46.9687 46.8361 46.918 47.3241C46.8639 47.8422 46.4739 48.2274 45.9478 48.2638C45.272 48.3103 44.5947 48.3026 43.9183 48.2604C42.3104 48.1585 40.7411 47.8587 39.2144 47.3423C38.1509 46.9826 37.1347 46.5197 36.1783 45.9303C35.2079 45.3317 34.3354 44.6145 33.5835 43.7544C33.4403 43.5911 33.2725 43.44 33.2194 43.2203C33.1816 43.0616 33.1432 42.8919 33.1602 42.7323C33.2803 41.5937 33.528 40.4848 33.9867 39.43C34.2186 38.8966 34.5019 38.3911 34.843 37.9198C34.8905 37.8544 34.8851 37.8147 34.8312 37.7614C34.665 37.6006 34.4994 37.438 34.3383 37.2719C34.2798 37.2117 34.239 37.2183 34.1857 37.2756C34.1085 37.3596 34.0254 37.4378 33.9452 37.5189C32.8837 38.5927 31.8221 39.6664 30.7611 40.7396C30.543 40.9603 30.2886 41.0856 29.9716 41.0494C29.597 41.0066 29.3356 40.8054 29.208 40.4525C29.0799 40.099 29.1529 39.7727 29.4157 39.5057C30.5379 38.3659 31.6648 37.2307 32.7893 36.0932C32.9995 35.8807 32.9802 35.9384 32.7879 35.7437C32.5742 35.5278 32.3524 35.3189 32.1415 35.1001C32.0656 35.0205 32.0243 35.0334 31.9538 35.1058C31.1643 35.909 30.3712 36.7089 29.5794 37.5099C29.399 37.6923 29.1825 37.7955 28.9245 37.8004C28.545 37.8078 28.2138 37.5868 28.0626 37.2312C27.9242 36.9043 28.0015 36.5168 28.2609 36.2545C29.0642 35.4408 29.8675 34.627 30.6726 33.815C30.7304 33.7565 30.7417 33.7173 30.6774 33.6549C30.4215 33.4076 30.1684 33.1574 29.9181 32.9043C29.855 32.8407 29.8158 32.8386 29.7511 32.9052C29.3801 33.2863 29.0063 33.6656 28.6289 34.0404C28.2716 34.3949 27.724 34.4078 27.3656 34.0775C26.9817 33.7233 26.9657 33.1405 27.335 32.7624C27.6969 32.3917 28.0639 32.0251 28.4281 31.6568C28.538 31.5456 28.5386 31.545 28.4251 31.4327C28.2287 31.2386 28.0353 31.0405 27.8338 30.8516C27.7909 30.8115 27.7211 30.7791 27.664 30.7789C26.742 30.7789 25.8201 30.7859 24.8981 30.7895C24.5215 30.7916 24.1449 30.7984 23.7688 30.7919C23.3103 30.783 22.9187 30.4783 22.7913 30.0454C22.6673 29.624 22.83 29.1583 23.1994 28.9028C23.3795 28.7774 23.583 28.7175 23.8036 28.7156C24.8672 28.7101 25.9308 28.7035 26.9951 28.6974C27.1367 28.6966 27.1373 28.696 27.1359 28.5549C27.1298 27.4941 27.1232 26.434 27.1177 25.3738C27.1151 24.8169 27.4778 24.3944 28.0244 24.3107C28.5964 24.2233 29.1732 24.6859 29.1874 25.2658C29.2047 25.9734 29.2007 26.6818 29.2059 27.3901C29.2105 27.9879 29.2156 28.5851 29.2167 29.1828C29.2172 29.2623 29.2423 29.3192 29.299 29.373C29.5005 29.5676 29.6981 29.7652 29.8973 29.9621C29.9998 30.0635 30.001 30.0646 30.1063 29.9581C30.4705 29.5897 30.8341 29.2196 31.1994 28.8524C31.6483 28.4018 32.3636 28.5077 32.6651 29.0669C32.8368 29.3856 32.7909 29.8154 32.5373 30.0812C32.1629 30.4738 31.7775 30.8555 31.3967 31.2418C31.2954 31.3443 31.2948 31.3449 31.3944 31.4434C31.6429 31.689 31.8914 31.9335 32.1381 32.1809C32.1954 32.2376 32.2329 32.2368 32.2901 32.1789C33.09 31.3663 33.8922 30.5561 34.6944 29.7458C34.9721 29.4649 35.3603 29.3827 35.7033 29.5316C36.0641 29.689 36.2774 30.0236 36.2601 30.421C36.2494 30.667 36.1429 30.872 35.9705 31.0452C35.4724 31.5491 34.9748 32.0524 34.4766 32.5563C34.18 32.8563 33.8852 33.1568 33.5863 33.4546C33.5267 33.5148 33.5217 33.5511 33.5849 33.6124C33.8391 33.8568 34.0893 34.1053 34.3366 34.3556C34.3992 34.4186 34.4412 34.4235 34.5054 34.3575C34.7704 34.0847 35.0396 33.8171 35.307 33.5467C36.1933 32.6501 37.0803 31.753 37.9655 30.8553C38.3084 30.5084 38.8364 30.484 39.2142 30.7992C39.569 31.0949 39.6348 31.6307 39.36 32.0164C39.3103 32.0863 39.2513 32.1506 39.1906 32.212C38.081 33.3356 36.9708 34.4574 35.8617 35.5816C35.7014 35.7437 35.7081 35.7091 35.8644 35.8637C36.0069 36.0046 36.1505 36.1443 36.2919 36.2863C36.3411 36.335 36.3786 36.3469 36.4417 36.3004C37.3799 35.6074 38.4265 35.1442 39.5543 34.87C40.0897 34.7396 40.6369 34.6599 41.1805 34.5618C41.5389 34.497 41.8443 34.6133 42.1197 34.8421C43.115 35.6691 43.9394 36.6411 44.6138 37.7441C45.2492 38.7846 45.7467 39.8869 46.1023 41.0504C46.2837 41.6443 46.43 42.2493 46.5739 42.8532C46.6973 43.3702 46.4256 43.8975 45.9296 44.0795C45.6428 44.1842 45.3938 44.3457 45.1361 44.4975C44.5398 44.8482 44.02 45.2963 43.5171 45.7668C43.5056 45.7784 43.4959 45.7928 43.4707 45.8241L43.473 45.8217ZM40.4297 41.5326C40.608 41.6963 40.8254 41.7463 41.0691 41.6562C41.2897 41.5744 41.4434 41.3506 41.4449 41.1082C41.4464 40.7764 41.4422 40.4447 41.4403 40.113C41.4395 39.961 41.4389 39.9593 41.5955 39.9584C41.9238 39.9554 42.252 39.9592 42.5797 39.9499C42.9286 39.9398 43.1845 39.6694 43.1756 39.3343C43.1668 39.0026 42.8936 38.7474 42.548 38.7482C42.2163 38.7489 41.8852 38.7502 41.5535 38.7556C41.4625 38.7573 41.4273 38.735 41.4284 38.6342C41.4334 38.2956 41.4297 37.9575 41.4243 37.6189C41.4206 37.3621 41.2615 37.1396 41.0347 37.0597C40.6239 36.9146 40.2287 37.1973 40.2243 37.6454C40.221 37.9731 40.2229 38.3013 40.2317 38.6295C40.2346 38.7366 40.2002 38.7633 40.0977 38.7628C39.7665 38.7595 39.4343 38.7619 39.1037 38.7696C38.7508 38.778 38.4851 39.049 38.4945 39.3835C38.5034 39.7256 38.7835 39.9762 39.1417 39.9707C39.4665 39.9654 39.7907 39.971 40.1155 39.9634C40.2209 39.9611 40.2413 40.003 40.2407 40.0963C40.2385 40.4274 40.2427 40.7591 40.2446 41.0908C40.2461 41.2573 40.3045 41.4009 40.4309 41.5338L40.4297 41.5326Z" fill="white"/>
</svg>
