<svg width="35" height="33" viewBox="0 0 35 33" fill="none" xmlns="http://www.w3.org/2000/svg">
<path d="M32.0983 14.8761V27.5615C32.0983 30.0224 30.096 32.0247 27.635 32.0247H7.3648C4.90386 32.0247 2.90155 30.0224 2.90155 27.5615V14.8761C2.90155 14.6006 3.01229 14.3374 3.20848 14.1446L15.1859 2.37245C15.8237 1.74559 16.6618 1.43182 17.4999 1.43182C18.338 1.43182 19.1761 1.74559 19.8139 2.37245L31.7912 14.1446C31.8885 14.24 31.9657 14.3538 32.0184 14.4794C32.0711 14.605 32.0983 14.7399 32.0983 14.8761Z" fill="#EFEFEF"/>
<path d="M34.7062 17.0153C34.6108 17.1124 34.4969 17.1895 34.3713 17.2421C34.2458 17.2946 34.111 17.3217 33.9748 17.3216C33.715 17.3216 33.456 17.2238 33.2563 17.0276L18.3764 2.40352C18.1344 2.16563 17.8172 2.04736 17.5 2.04736C17.1828 2.04736 16.8656 2.16563 16.6236 2.40352L1.74363 17.0276C1.34031 17.4248 0.690897 17.4187 0.293729 17.0153C-0.102756 16.6113 -0.0972868 15.9619 0.306717 15.5647L15.186 0.940625C15.8238 0.313769 16.6619 0 17.5 0C18.3381 0 19.1762 0.313769 19.814 0.940625L34.6933 15.5647C35.0973 15.9619 35.1027 16.6113 34.7062 17.0153Z" fill="#250E01"/>
<path d="M24.0174 11.8499C24.2069 11.8812 24.3553 12.0297 24.3867 12.2191C24.3916 12.2495 24.5095 12.9741 24.5095 14.0019C24.5095 15.306 24.3153 17.1738 23.3905 18.6664C23.3185 18.7829 23.197 18.8599 23.061 18.8757C22.925 18.8915 22.7892 18.8442 22.6924 18.7474L20.4078 16.4628L19.6645 17.206L21.949 19.4906C22.1242 19.6657 22.1242 19.9496 21.949 20.1247C21.774 20.2998 21.4901 20.2998 21.3151 20.1247L18.8767 17.7573L18.2738 18.4417L19.8644 20.1607C20.0395 20.3357 20.0395 20.6196 19.8644 20.7948C19.6893 20.9698 19.4054 20.9698 19.2304 20.7948L17.6531 19.2175L16.9098 19.9608L17.7878 20.8388C17.9629 21.0139 17.9629 21.2977 17.7878 21.4729C17.6128 21.648 17.3289 21.648 17.1537 21.4729L16.0759 20.1247L15.0573 20.8867C15.6517 21.6228 16.4328 23.0009 16.4328 23.9602C16.4328 25.0705 16.0005 26.1143 15.2154 26.8992C15.1055 27.0091 14.9466 27.0543 14.7953 27.0186C14.6441 26.983 14.5222 26.8715 14.473 26.7241L12.8641 23.3142L9.51252 21.7636C9.36515 21.7144 9.25375 21.5925 9.21801 21.4413C9.20995 21.407 9.20598 21.3725 9.20598 21.3383C9.20598 21.2207 9.25235 21.1062 9.33736 21.0212C10.1224 20.2361 11.1662 19.8038 12.2764 19.8038C13.2358 19.8038 14.3213 20.2923 15.0573 20.8867L16.0759 20.1247L14.7637 19.0829C14.6761 18.9953 14.6323 18.8806 14.6323 18.7658C14.6323 18.6511 14.6761 18.5363 14.7637 18.4488C14.9387 18.2737 15.2226 18.2737 15.3977 18.4488L16.9098 19.9608L17.6531 19.2175L15.4418 17.0062C15.3542 16.9188 15.3104 16.804 15.3104 16.6893C15.3104 16.5745 15.3542 16.4597 15.4418 16.3723C15.6169 16.1971 15.9007 16.1971 16.0759 16.3723L18.2738 18.4417L18.8767 17.7573L16.4949 15.4367C16.4073 15.3492 16.3636 15.2345 16.3636 15.1198C16.3636 15.005 16.4073 14.8903 16.4949 14.8027C16.67 14.6277 16.9539 14.6277 17.1289 14.8027L19.6645 17.206L20.4078 16.4628L17.4892 13.5443C17.4047 13.4598 17.3579 13.3455 17.3579 13.2274C17.3579 13.2102 17.3589 13.1929 17.3609 13.1756C17.3767 13.0397 17.4537 12.9183 17.5702 12.8462C20.1672 11.2372 23.8615 11.8241 24.0174 11.8499ZM10.581 21.1745L13.3604 22.5344C13.4942 22.5791 13.5993 22.6841 13.644 22.818L15.0621 25.6556C15.371 25.1499 15.5361 24.5677 15.5361 23.9602C15.5361 23.0896 15.1971 22.271 14.5813 21.6552C13.9656 21.0396 13.1471 20.7004 12.2764 20.7004C11.6688 20.7004 11.0865 20.8656 10.581 21.1745ZM18.5472 13.3342L22.9025 17.6893C23.4817 16.4687 23.6127 15.0421 23.6127 14.0019C23.6127 13.4469 23.5753 12.9837 23.5438 12.6933C22.6989 12.6034 20.3839 12.463 18.5472 13.3342Z" fill="#FA6140"/>
<path d="M20.4078 16.4628L22.6924 18.7474C22.7892 18.8442 22.925 18.8915 23.061 18.8757C23.197 18.8599 23.3185 18.7829 23.3905 18.6664C24.3153 17.1738 24.5095 15.306 24.5095 14.0019C24.5095 12.9741 24.3916 12.2495 24.3867 12.2191C24.3553 12.0297 24.2069 11.8812 24.0174 11.8499C23.8615 11.8241 20.1671 11.2372 17.5702 12.8462C17.4537 12.9183 17.3767 13.0397 17.3609 13.1756C17.3589 13.1929 17.3579 13.2102 17.3579 13.2274C17.3579 13.3455 17.4047 13.4598 17.4892 13.5443L20.4078 16.4628ZM20.4078 16.4628L19.6645 17.206M19.6645 17.206L21.949 19.4906C22.1242 19.6657 22.1242 19.9496 21.949 20.1247C21.774 20.2998 21.4901 20.2998 21.3151 20.1247L18.8767 17.7573M19.6645 17.206L17.1289 14.8027C16.9539 14.6277 16.67 14.6277 16.4949 14.8027C16.4073 14.8903 16.3636 15.005 16.3636 15.1198C16.3636 15.2345 16.4073 15.3492 16.4949 15.4367L18.8767 17.7573M18.8767 17.7573L18.2738 18.4417M18.2738 18.4417L19.8644 20.1607C20.0395 20.3357 20.0395 20.6196 19.8644 20.7948C19.6893 20.9698 19.4054 20.9698 19.2304 20.7948L17.6531 19.2175M18.2738 18.4417L16.0759 16.3723C15.9007 16.1971 15.6169 16.1971 15.4418 16.3723C15.3542 16.4597 15.3104 16.5745 15.3104 16.6893C15.3104 16.804 15.3542 16.9188 15.4418 17.0062L17.6531 19.2175M17.6531 19.2175L16.9098 19.9608M16.9098 19.9608L17.7878 20.8388C17.9629 21.0139 17.9629 21.2977 17.7878 21.4729C17.6128 21.648 17.3289 21.648 17.1537 21.4729L16.0759 20.1247M16.9098 19.9608L15.3977 18.4488C15.2226 18.2737 14.9387 18.2737 14.7637 18.4488C14.6761 18.5363 14.6323 18.6511 14.6323 18.7658C14.6323 18.8806 14.6761 18.9953 14.7637 19.0829L16.0759 20.1247M16.0759 20.1247L15.0573 20.8867M15.0573 20.8867C15.6517 21.6228 16.4328 23.0009 16.4328 23.9602C16.4328 25.0705 16.0005 26.1143 15.2154 26.8992C15.1055 27.0091 14.9466 27.0543 14.7953 27.0186C14.6441 26.983 14.5222 26.8715 14.473 26.7241L12.8641 23.3142L9.51252 21.7636C9.36515 21.7144 9.25374 21.5925 9.21801 21.4413C9.20995 21.407 9.20598 21.3725 9.20598 21.3383C9.20598 21.2207 9.25235 21.1062 9.33736 21.0212C10.1224 20.2361 11.1662 19.8038 12.2764 19.8038C13.2358 19.8038 14.3213 20.2923 15.0573 20.8867ZM10.581 21.1745L13.3604 22.5344C13.4942 22.5791 13.5993 22.6841 13.644 22.818L15.0621 25.6556C15.371 25.1499 15.5361 24.5677 15.5361 23.9602C15.5361 23.0896 15.1971 22.271 14.5813 21.6552C13.9656 21.0396 13.1471 20.7004 12.2764 20.7004C11.6688 20.7004 11.0865 20.8656 10.581 21.1745ZM18.5472 13.3342L22.9025 17.6893C23.4817 16.4687 23.6127 15.0421 23.6127 14.0019C23.6127 13.4469 23.5753 12.9837 23.5438 12.6934C22.6989 12.6034 20.3839 12.463 18.5472 13.3342Z" stroke="#FA6140" stroke-width="0.567129"/>
<path d="M22.5145 14.9764C22.5435 15.104 22.5201 15.2411 22.4504 15.352C22.3803 15.4629 22.2672 15.5435 22.1393 15.5725C22.0117 15.6016 21.8745 15.578 21.7633 15.5083C21.6525 15.4385 21.5721 15.3249 21.5431 15.1974C21.514 15.0696 21.5373 14.9324 21.6071 14.8215C21.6773 14.7106 21.7904 14.6303 21.9183 14.6012C22.0462 14.5721 22.1832 14.5955 22.2941 14.6652C22.4051 14.735 22.4854 14.8486 22.5145 14.9764Z" fill="#FA6140"/>
<path d="M14.9887 20.6008C16.627 19.8247 19.608 17.6922 20.6596 15.8749" stroke="#FA6140" stroke-width="0.945215" stroke-linecap="round"/>
<path d="M34.7063 17.0153C34.6108 17.1124 34.4969 17.1895 34.3714 17.2421C34.2458 17.2946 34.111 17.3217 33.9748 17.3216C33.715 17.3216 33.456 17.2238 33.2564 17.0276L18.3764 2.40352C18.1344 2.16563 17.8172 2.04736 17.5 2.04736V0C18.3381 0 19.1762 0.313769 19.814 0.940625L34.6933 15.5647C35.0973 15.9619 35.1027 16.6113 34.7063 17.0153Z" fill="#4A0415"/>
<path d="M32.0984 14.8761V27.5615C32.0984 30.0224 30.0961 32.0247 27.6351 32.0247H17.5V1.43182C18.3381 1.43182 19.1762 1.74559 19.814 2.37245L31.7913 14.1446C31.8886 14.24 31.9658 14.3538 32.0185 14.4794C32.0712 14.605 32.0984 14.7399 32.0984 14.8761Z" fill="black" fill-opacity="0.05"/>
</svg>
