<svg width="84" height="100" viewBox="0 0 84 100" fill="none" xmlns="http://www.w3.org/2000/svg">
<path d="M84 9.84492L84 90.1377C84 95.5742 79.5688 100 74.0867 100H9.89579C4.41372 100 4.48894e-05 95.5742 4.2336e-05 90.1377L4.62398e-06 9.84492C2.07056e-06 4.40843 4.41368 0 9.89574 0H74.0867C79.5688 0 84 4.40843 84 9.84492Z" fill="#DAE7DF"/>
<path d="M73.8058 17.4913C73.8058 19.5541 73.0578 21.3908 71.8197 22.7472C70.6073 24.0753 68.9307 24.923 67.0477 24.923H16.9812C13.241 24.923 10.1973 21.5886 10.1973 17.4913C10.1973 13.4223 13.241 10.0879 16.9811 10.0879H67.0477C70.7879 10.0879 73.8058 13.4223 73.8058 17.4913Z" fill="#F2FFF8"/>
<path d="M28.7102 36.8374L28.7102 48.0763C28.7102 50.0627 27.0988 51.6657 25.1022 51.6657H13.8053C11.8086 51.6657 10.1973 50.0627 10.1973 48.0763L10.1973 36.8374C10.1973 34.851 11.8086 33.2305 13.8053 33.2305H25.1022C27.0988 33.2305 28.7102 34.851 28.7102 36.8374Z" fill="#EFF5F2"/>
<path d="M73.1859 36.6429H39.2952C38.8048 36.6429 38.4194 36.2595 38.4194 35.7716C38.4194 35.2837 38.8048 34.9004 39.2952 34.9004H73.1684C73.6588 34.9004 74.0441 35.2837 74.0441 35.7716C74.0441 36.2595 73.6588 36.6429 73.1859 36.6429Z" fill="black" fill-opacity="0.2"/>
<path d="M73.1859 43.3167H39.2952C38.8048 43.3167 38.4194 42.9333 38.4194 42.4455C38.4194 41.9576 38.8048 41.5742 39.2952 41.5742H73.1684C73.6588 41.5742 74.0441 41.9576 74.0441 42.4455C74.0441 42.9333 73.6588 43.3167 73.1859 43.3167Z" fill="black" fill-opacity="0.2"/>
<path d="M54.9532 50.0159H39.2952C38.8048 50.0159 38.4194 49.6326 38.4194 49.1447C38.4194 48.6568 38.8048 48.2734 39.2952 48.2734H54.9532C55.4436 48.2734 55.8289 48.6568 55.8289 49.1447C55.8289 49.6326 55.4261 50.0159 54.9532 50.0159Z" fill="black" fill-opacity="0.2"/>
<path d="M28.7102 62.3921L28.7102 73.6309C28.7102 75.6174 27.0988 77.2204 25.1022 77.2204H13.8053C11.8086 77.2204 10.1973 75.6174 10.1973 73.6309L10.1973 62.3921C10.1973 60.4056 11.8086 58.7852 13.8053 58.7852H25.1022C27.0988 58.7852 28.7102 60.4056 28.7102 62.3921Z" fill="#EFF5F2"/>
<path d="M66.9332 62.2014H39.2952C38.8048 62.2014 38.4194 61.8181 38.4194 61.3302C38.4194 60.8423 38.8048 60.459 39.2952 60.459H66.9332C67.4236 60.459 67.8089 60.8423 67.8089 61.3302C67.8089 61.8181 67.4236 62.2014 66.9332 62.2014Z" fill="black" fill-opacity="0.2"/>
<path d="M63.2726 68.8733H39.2952C38.8048 68.8733 38.4194 68.49 38.4194 68.0021C38.4194 67.5142 38.8048 67.1309 39.2952 67.1309H63.2726C63.763 67.1309 64.1484 67.5142 64.1484 68.0021C64.1484 68.49 63.763 68.8733 63.2726 68.8733Z" fill="black" fill-opacity="0.2"/>
<path d="M54.9532 75.5569H39.2952C38.8048 75.5569 38.4194 75.1736 38.4194 74.6857C38.4194 74.1978 38.8048 73.8145 39.2952 73.8145H54.9532C55.4436 73.8145 55.8289 74.1978 55.8289 74.6857C55.8289 75.1736 55.4261 75.5569 54.9532 75.5569Z" fill="black" fill-opacity="0.2"/>
</svg>
