<svg width="74" height="121" viewBox="0 0 74 121" fill="none" xmlns="http://www.w3.org/2000/svg">
<mask id="mask0_10547_14292" style="mask-type:alpha" maskUnits="userSpaceOnUse" x="0" y="0" width="74" height="80">
<path d="M56.6968 43.0173C56.82 42.6131 56.7327 41.5488 57.2513 41.3646C57.6722 41.2162 57.5285 41.9632 57.5028 42.1577C57.4241 42.7741 57.2831 43.3809 57.0818 43.969C56.6557 45.2636 55.1464 47.7862 56.9124 48.7839C57.3129 49.0142 58.0213 49.0244 58.2472 49.5003C58.5912 50.2371 57.5182 50.3394 57.087 50.1757C56.5736 49.9864 56.1577 49.8943 55.9935 50.5799C55.9216 50.8716 55.9935 51.6033 55.5468 51.6033C54.9667 51.6493 55.2593 50.5288 54.8127 50.7488C54.3661 50.9688 54.3763 53.1383 53.56 52.642C53.1801 52.4117 53.4317 51.9103 53.5241 51.6186C53.6854 51.1178 53.8039 50.6043 53.8783 50.0836C53.9638 49.2713 53.9878 48.4537 53.9502 47.6378C53.9502 46.8703 54.0837 46.2051 54.1299 45.4478C54.2326 43.6927 54.2582 41.9377 54.3763 40.1877C54.479 38.6527 54.6946 37.1432 54.8127 35.6133C55 33.2514 54.6851 30.8766 53.8886 28.6442C53.0818 26.1365 52.5264 23.5553 52.2304 20.9383C51.9457 19.2147 51.5722 17.5069 51.1112 15.8216C50.8411 14.7384 50.3128 13.7361 49.5711 12.8999C48.9037 12.1528 48.0309 11.8305 47.3379 11.1653C46.2444 10.1112 45.7566 8.14637 44.196 7.66027C44.1734 7.6537 44.1493 7.65432 44.1271 7.66206C44.1048 7.66979 44.0856 7.68425 44.072 7.70342C44.0585 7.72258 44.0512 7.74549 44.0514 7.76894C44.0515 7.7924 44.059 7.81523 44.0728 7.83424C44.5861 8.49943 45.387 9.04693 45.2997 9.9833C45.2965 10.0093 45.2846 10.0335 45.266 10.0521C45.2474 10.0706 45.2232 10.0824 45.1971 10.0856C44.9506 10.0809 44.7091 10.0159 44.4937 9.89631C43.2421 9.43372 41.9444 9.10608 40.6228 8.919C39.2418 8.6427 35.7765 8.67851 35.5558 6.64715C35.3863 5.15304 36.9367 4.84092 38.0662 5.29631C38.0921 5.3126 38.1234 5.31798 38.1532 5.31126C38.1831 5.30454 38.209 5.28628 38.2253 5.2605C38.2417 5.23471 38.2471 5.20352 38.2403 5.17377C38.2336 5.14402 38.2153 5.11816 38.1894 5.10188C38.0806 4.94282 38.0065 4.76279 37.9718 4.5734C37.9372 4.38401 37.9428 4.18948 37.9882 4.00238C38.0337 3.81528 38.1181 3.63977 38.2358 3.48719C38.3536 3.33461 38.5022 3.20835 38.672 3.11656C39.6063 2.56907 40.8949 3.27007 41.7523 3.62824C41.7777 3.63774 41.8057 3.63779 41.8311 3.6284C41.8566 3.619 41.8778 3.60078 41.8909 3.57707C43.2308 1.38197 45.1868 3.78175 46.4138 3.99154C47.2609 4.13992 48.5648 3.28542 49.6737 3.52591C51.0137 3.81245 51.8659 4.50833 52.1688 5.8387C52.1733 5.86321 52.1858 5.88555 52.2043 5.90222C52.2229 5.91888 52.2465 5.92894 52.2714 5.9308C53.981 5.98708 55.6033 5.71589 56.0345 7.73191C56.0396 7.7596 56.0553 7.78423 56.0783 7.80049C56.1014 7.81676 56.1299 7.82336 56.1578 7.81889C58.1343 7.57329 59.7155 10.541 57.9289 11.7895C56.7841 12.5877 56.0499 11.0834 54.9616 11.4314C54.6946 11.5183 54.2634 11.8305 54.5355 12.1323C54.6073 12.2091 54.7716 12.1324 54.864 12.1784C54.9892 12.2368 55.1001 12.3216 55.1892 12.4268C55.2783 12.5321 55.3434 12.6555 55.38 12.7883C55.4166 12.9211 55.4239 13.0602 55.4013 13.1961C55.3787 13.332 55.3267 13.4614 55.2491 13.5753C54.8486 14.2353 52.6206 14.22 53.1955 15.3457C53.5754 15.3866 53.3444 14.8033 53.8219 14.788C54.8897 14.7573 54.5201 16.5942 54.289 17.0905C53.9245 17.8785 53.3598 18.5181 53.2315 19.4033C53.1288 20.1299 53.519 20.8821 53.6422 21.5882C53.8116 22.5194 53.1853 24.4434 54.1556 24.9908C54.7819 25.3337 56.0807 24.2336 56.3426 23.6502C56.3516 23.6307 56.366 23.614 56.3842 23.6024C56.4024 23.5908 56.4236 23.5846 56.4452 23.5846C56.4669 23.5846 56.488 23.5908 56.5062 23.6024C56.5244 23.614 56.5389 23.6307 56.5479 23.6502C56.6115 23.9501 56.5794 24.2624 56.4561 24.5432C56.3327 24.8239 56.1243 25.0592 55.86 25.216C55.8398 25.23 55.8247 25.2503 55.8171 25.2737C55.8095 25.2971 55.8098 25.3223 55.818 25.3455C55.8261 25.3687 55.8417 25.3886 55.8622 25.4022C55.8828 25.4158 55.9073 25.4222 55.9319 25.4207C56.0312 25.3951 56.1354 25.3951 56.2348 25.4207C56.5222 25.5332 56.091 25.83 55.9473 25.8914C55.7701 25.9637 55.5785 25.9935 55.3877 25.9784C55.3615 25.9774 55.3358 25.9854 55.315 26.0012C55.2941 26.0169 55.2794 26.0394 55.2733 26.0648C55.2673 26.0902 55.2702 26.1169 55.2817 26.1403C55.2932 26.1637 55.3125 26.1825 55.3363 26.1933C55.7522 26.3877 56.2399 26.444 56.512 26.8892C56.6557 27.1245 56.7019 27.5902 56.897 27.8051C56.9073 27.8151 56.9154 27.827 56.921 27.8402C56.9265 27.8534 56.9294 27.8675 56.9294 27.8818C56.9294 27.8961 56.9265 27.9103 56.921 27.9235C56.9154 27.9366 56.9073 27.9486 56.897 27.9586C56.5582 28.2349 55.9986 27.8307 55.747 27.5953C55.3261 27.1962 54.9102 27.3292 54.8692 27.9177C54.8543 28.467 55.0202 29.0061 55.3415 29.4527C55.6136 29.6932 55.8292 29.5243 56.0089 29.3043C56.0231 29.2869 56.0422 29.2741 56.0637 29.2676C56.0852 29.261 56.1082 29.2611 56.1298 29.2677C56.1513 29.2743 56.1703 29.2871 56.1845 29.3046C56.1986 29.3221 56.2072 29.3433 56.2091 29.3657C56.3426 30.7882 57.0767 32.052 56.9484 33.5359C56.8457 34.6616 56.3734 35.7156 56.1783 36.8311C56.0294 37.6651 56.3272 38.448 56.4555 39.2616C56.5737 40.0294 56.558 40.8118 56.4093 41.5744C56.3528 41.8967 56.2912 42.214 56.2245 42.5363C56.1732 42.7615 56.0243 43.1913 56.168 43.4011C56.4196 43.7183 56.6711 43.1759 56.6968 43.0173Z" fill="white"/>
<path d="M65.4821 64.9789C65.6178 65.0674 65.722 65.1963 65.7799 65.3473C65.8466 65.6543 65.477 65.7925 65.3538 66.0227C65.2879 66.2083 65.2771 66.4088 65.3226 66.6003C65.3681 66.7917 65.4681 66.9661 65.6105 67.1024C65.8381 67.3363 66.1186 67.5127 66.4284 67.6168C66.7383 67.721 67.0686 67.7498 67.3919 67.7011C67.664 67.7011 68.2287 67.6294 68.3057 67.9774C68.3827 68.3253 67.8591 68.3151 67.6281 68.2793C67.6281 68.3304 67.7769 68.4225 67.7718 68.4686C67.7667 68.5146 67.6075 68.6016 67.5459 68.6323C67.2738 68.7602 67.1712 68.6323 66.9042 68.5863C66.9055 68.6301 66.9206 68.6725 66.9473 68.7073C66.974 68.7422 67.011 68.7679 67.0531 68.7807C66.8015 69.0979 66.1803 68.8421 65.9647 68.617C65.9647 68.7142 66.0571 68.7551 65.9647 68.8165C65.8723 68.8779 65.7696 68.8165 65.7234 68.7756C65.7193 68.8284 65.7193 68.8814 65.7234 68.9342C65.7542 68.9956 65.8004 69.0058 65.8518 69.0468C65.9031 69.0877 66.0931 69.1747 66.2111 69.2412C66.5224 69.3597 66.8588 69.3969 67.1885 69.3495C67.5183 69.302 67.8304 69.1714 68.0952 68.97C68.3057 68.8421 68.7267 68.5402 68.6959 69.0314C68.6959 69.2975 68.3314 69.4919 68.1106 69.5431C68.2903 69.4868 68.7575 69.4101 68.9013 69.5789C69.2093 69.9218 67.9207 69.9576 67.7615 69.9576C67.401 69.9833 67.0387 69.9626 66.6834 69.8962C66.199 69.8347 65.7363 69.6593 65.3332 69.3845C64.9183 69.0664 64.6056 68.6346 64.4332 68.142C64.2609 67.6494 64.2364 67.1174 64.363 66.6112C64.4964 66.0228 64.9123 65.5469 65.0047 64.9533C65.0406 64.7282 65.0047 64.3496 65.2203 64.2012C65.1803 64.4037 65.213 64.6138 65.3127 64.7947C65.3579 64.8655 65.4153 64.9279 65.4821 64.9789Z" fill="white"/>
<path d="M35.27 63.8659C35.3675 63.4515 34.4178 63.037 34.351 62.6532C34.6426 62.5657 34.9234 62.4455 35.1878 62.2951C35.2091 62.2799 35.2259 62.2594 35.2367 62.2356C35.2475 62.2119 35.2518 62.1857 35.2492 62.1598C35.2466 62.1338 35.2372 62.109 35.2219 62.0879C35.2066 62.0667 35.186 62.0499 35.1622 62.0392C34.7309 61.8448 33.9044 62.1109 33.5039 62.1416C32.8062 62.2195 32.0999 62.121 31.4504 61.855C30.7306 61.5628 30.0658 61.151 29.4842 60.6372C29.2531 60.4121 29.0119 60.2279 29.1402 59.8902C29.2383 59.6734 29.404 59.494 29.6125 59.3785C30.0261 59.1524 30.4825 59.0147 30.9524 58.9743C31.5069 58.9078 31.0911 58.5701 30.7317 58.4626C30.2183 58.3449 29.5714 58.5649 29.0581 58.57C28.1648 58.57 27.9286 58.0021 27.405 57.3881C27.0267 56.8559 26.5616 56.3906 26.0291 56.0117C25.777 55.8927 25.5022 55.8289 25.2233 55.8245C24.9444 55.8201 24.6678 55.8752 24.412 55.9861C23.3852 56.5847 24.1296 58.3807 24.6481 59.0561C24.9366 59.3351 25.1761 59.6602 25.3566 60.0181C25.4283 60.3451 25.4283 60.6837 25.3566 61.0108C25.3016 61.4036 25.3242 61.8034 25.4233 62.1876C25.4849 62.4128 25.6133 63.1035 25.9675 63.0063C26.0805 62.6839 25.8443 62.3514 25.9675 61.9829C26.4809 60.673 27.7027 61.5787 28.5344 61.9829C29.1817 62.3025 29.8742 62.5216 30.5879 62.6328C31.1578 62.7146 31.779 62.5816 32.3386 62.7709C32.8982 62.9603 33.3243 63.518 33.8787 63.7943C34.1816 63.9478 34.962 64.3418 35.2443 63.9785C35.2587 63.9425 35.2674 63.9046 35.27 63.8659Z" fill="white"/>
<path d="M41.5824 57.8343C41.5516 57.8752 41.5259 57.9213 41.49 57.9622C41.4564 57.9294 41.4113 57.911 41.3642 57.911C41.3172 57.911 41.272 57.9294 41.2384 57.9622C41.3103 57.9622 41.3668 57.9622 41.3822 58.0492C41.4284 58.2181 41.2128 58.2846 41.1204 58.3716C40.9754 58.5058 40.8615 58.6699 40.7867 58.8525C40.6994 59.0981 40.8483 59.313 41.1204 59.2261C41.3925 59.1391 41.5157 58.7144 41.5003 58.4432C41.4849 58.172 41.5927 57.7729 41.8391 57.6859C41.7865 57.6832 41.7342 57.6958 41.6887 57.7222C41.6431 57.7485 41.6062 57.7874 41.5824 57.8343Z" fill="white"/>
<path d="M43.0116 29.4635C43.0954 29.6766 43.2095 29.8765 43.3505 30.0571C43.6379 30.318 43.6688 30.4306 43.3505 30.6762C42.8824 31.0495 42.29 31.2323 41.6922 31.1879C41.6204 31.1879 41.5434 31.1879 41.4355 31.1879C41.456 31.2505 41.4836 31.3106 41.5177 31.367C41.6885 31.6335 41.93 31.8476 42.2154 31.9858C42.5009 32.124 42.8191 32.1807 43.1348 32.1498C43.3036 32.1648 43.4735 32.1427 43.6327 32.0849C43.7918 32.0271 43.9363 31.9351 44.0558 31.8155C44.1753 31.6959 44.267 31.5515 44.3243 31.3927C44.3816 31.2338 44.4032 31.0643 44.3875 30.8962C44.3875 30.8451 44.4337 30.7427 44.4594 30.7427C44.5294 30.7423 44.5971 30.7678 44.6493 30.8144C44.694 30.8854 44.7269 30.9632 44.7469 31.0446C44.8444 31.3363 45.0497 31.4028 45.2962 31.2084C45.4211 31.1115 45.5241 30.9894 45.5984 30.85C45.6727 30.7107 45.7167 30.5573 45.7274 30.3999C45.7274 30.185 45.6247 30.0775 45.404 30.098C45.3372 30.098 45.2705 30.139 45.214 30.098C45.1238 30.0676 45.0376 30.0263 44.9573 29.9752C45.0087 29.9138 45.0446 29.8217 45.1113 29.791C45.2167 29.7451 45.3094 29.6746 45.3818 29.5856C45.4541 29.4966 45.504 29.3915 45.5272 29.2793C45.5751 29.0295 45.5677 28.7723 45.5054 28.5256C45.4431 28.279 45.3274 28.0489 45.1665 27.8514C45.0056 27.654 44.8033 27.4941 44.5739 27.3827C44.3444 27.2714 44.0933 27.2115 43.8382 27.207C43.7626 27.2195 43.6886 27.2401 43.6174 27.2684L43.7971 27.4782C43.9946 27.7291 44.1362 28.019 44.2124 28.3287C44.2885 28.6384 44.2974 28.9608 44.2386 29.2742C44.2129 29.438 44.1257 29.6119 43.9254 29.4789C43.6379 29.2896 43.3761 29.3868 43.0116 29.4635Z" fill="white"/>
<path d="M64.6957 48.8469C64.9729 48.6218 65.3169 48.3659 65.3579 48.0743C65.4247 47.6035 64.9626 47.9054 64.8035 48.0743C64.5743 48.3138 64.3309 48.5394 64.0745 48.7497C63.8383 48.9185 63.5611 48.6729 63.2941 48.8316C63.0272 48.9902 63.1093 49.159 62.9758 49.3432C62.8393 49.4599 62.6914 49.5628 62.5343 49.6502C62.3341 49.7986 61.8669 50.1619 62.2776 50.3666C62.56 50.5047 62.791 50.167 63.0118 50.034C63.0628 49.9999 63.1206 49.9772 63.1812 49.9675C63.3865 49.9675 63.4379 50.2284 63.52 50.4792C63.7404 51.2589 63.8186 52.0717 63.751 52.8789C63.7985 53.3581 63.8705 53.8346 63.9667 54.3065C64.0028 54.7678 63.9821 55.2318 63.9051 55.6881C63.782 56.223 63.6294 56.7509 63.4481 57.2691L63.0066 56.9417C62.56 56.5988 62.1647 56.169 61.5332 56.1741C61.3168 56.199 61.1078 56.2682 60.9196 56.3776C60.7314 56.487 60.5679 56.634 60.4396 56.8095C60.3113 56.985 60.2208 57.1852 60.174 57.3972C60.1272 57.6093 60.125 57.8288 60.1676 58.0418C60.1933 58.1891 60.1933 58.3397 60.1676 58.4869C60.1163 59.1572 60.2138 59.28 60.8453 59.321C60.8453 59.674 60.6707 59.7661 60.3319 59.8327C59.6905 59.9925 59.0676 60.2189 58.4735 60.5081C58.3151 60.6004 58.1386 60.6573 57.956 60.675C57.7734 60.6926 57.5891 60.6706 57.4159 60.6104C56.7896 60.3955 56.1581 60.1908 55.5369 59.9555C55.1416 59.8071 54.7771 59.5563 54.3767 59.4438C53.6272 59.2391 52.4977 59.6126 52.2872 60.4671C52.1589 60.9788 52.7698 60.8202 53.047 60.7025C53.361 60.5264 53.6869 60.3726 54.0225 60.242C54.3101 60.2169 54.5982 60.2851 54.8439 60.4364C55.7115 60.7946 56.6099 61.076 57.4724 61.4598C57.9992 61.7081 58.6009 61.7483 59.1563 61.5724C59.5624 61.4814 59.9739 61.4165 60.3884 61.3779C60.4424 61.3606 60.4997 61.3559 60.5558 61.3641C60.6119 61.3724 60.6654 61.3934 60.712 61.4255C60.7587 61.4577 60.7973 61.5001 60.8248 61.5495C60.8524 61.599 60.8682 61.654 60.871 61.7105C60.8958 62.2975 60.8821 62.8855 60.8299 63.4707C60.794 63.8289 60.527 63.9159 60.1522 63.8749C59.1255 63.7675 58.0576 63.7163 57.0103 63.6395C56.8637 63.6162 56.7134 63.6456 56.5865 63.7225C56.4595 63.7993 56.3641 63.9186 56.3173 64.0591C56.0247 64.9034 55.8501 66.5356 55.0954 67.1292C54.464 67.6153 53.3448 67.1292 52.5901 67.5744C52.2667 67.7586 51.6147 68.3368 52.0357 68.7C52.4567 69.0633 53.0368 68.4033 53.3653 68.2805C54.2073 67.9683 54.9825 68.7921 55.691 68.2191C56.2711 67.7381 56.384 66.8171 56.6818 66.1724C56.6935 66.1474 56.7072 66.1235 56.7228 66.1007C57.1746 65.2974 57.1746 65.2923 58.0987 65.4304C58.417 65.4765 58.725 65.5635 59.0331 65.6351C59.1365 65.6717 59.2376 65.7144 59.336 65.763C59.1362 66.0144 58.9069 66.2412 58.6532 66.4384C57.2003 67.252 57.4981 68.1833 58.1398 69.4625C58.5282 70.2367 58.871 71.0329 59.1665 71.8469C59.236 72.0524 59.2291 72.2761 59.1472 72.477C59.0652 72.678 58.9136 72.8429 58.7199 72.9419C58.3429 73.1849 58.0562 73.5443 57.9036 73.9652C57.8318 74.2006 57.7342 74.9886 58.073 75.1011C58.2887 75.1625 58.3965 74.8658 58.4632 74.7174C58.5835 74.2816 58.8364 73.8936 59.1871 73.607C59.5259 73.387 59.9623 73.2438 60.1522 72.8549C60.2024 72.7053 60.2187 72.5466 60.2001 72.39C60.1814 72.2334 60.1283 72.0829 60.0444 71.9492C59.7345 71.1446 59.4773 70.3207 59.2744 69.4829C59.1871 69.2973 59.1724 69.0859 59.2331 68.89C59.2939 68.6941 59.4257 68.5279 59.6029 68.4237C60.0752 68.1628 60.5783 67.9479 61.0661 67.7074C61.3895 67.5488 61.9439 67.0269 62.2725 67.4157C62.5241 67.7023 62.4419 68.2344 62.4984 68.5875C62.6081 69.253 62.8877 69.8793 63.3102 70.4062C63.7328 70.9331 64.2841 71.3428 64.9113 71.5962C66.4258 72.1078 68.1353 71.5962 69.5984 71.151C70.3685 70.9259 71.7598 70.5933 72.4528 71.151C72.6419 71.3099 72.7859 71.5154 72.8705 71.747C72.9552 71.9786 72.9776 72.2282 72.9354 72.4711C72.8801 72.9347 72.6594 73.3629 72.3134 73.6777C71.9675 73.9924 71.5195 74.1725 71.0513 74.1852C70.2453 74.1443 69.2288 73.4996 69.9373 72.6502C70.2042 72.3227 70.8357 72.2716 70.7536 72.7628C70.7176 72.9828 70.4199 72.8651 70.5533 73.2233C70.6868 73.5815 71.1078 73.4228 71.2926 73.1926C72.1602 72.1181 70.3685 71.4529 69.5522 71.8571C68.5255 72.3688 68.6795 73.8117 69.4393 74.4155C71.3183 75.9505 73.8441 74.3234 73.8441 72.0976C73.8441 70.5626 72.6017 69.7183 71.154 69.795C69.3366 69.8871 67.8273 71.1868 65.9637 71.064C64.1001 70.9412 63.1298 69.3089 63.058 67.6409C63.0747 66.6986 63.3403 65.7773 63.828 64.9699C64.4645 63.7261 64.8912 62.3864 65.091 61.0044C65.1797 60.4717 65.1569 59.9264 65.0242 59.4028C64.7907 58.3772 64.7907 57.3124 65.0242 56.2867C65.1628 55.3429 65.091 54.3803 64.8137 53.4674C64.6104 52.6564 64.4527 51.8347 64.3414 51.0062C64.2747 50.5252 64.0745 49.507 64.4441 49.0925C64.6546 48.852 64.8753 48.7753 65.132 49.0311C64.7675 49.113 65.2604 49.9521 65.2552 50.1414C65.3939 49.8651 65.7994 49.1181 65.3631 48.8827C65.1526 48.7702 64.7727 48.8827 64.6135 48.6371" fill="white"/>
<path d="M15.5166 46.8655L15.3728 46.973C13.5298 48.3596 14.6438 49.0197 15.4447 50.7185C15.994 51.8646 16.5279 53.7323 15.265 54.5765C14.99 54.1623 14.7999 53.698 14.7054 53.2104C14.1202 51.3018 11.9126 52.6987 11.6251 51.2711C11.1118 51.9363 10.7935 52.6884 10.275 53.3178C13.8686 52.8726 14.572 59.8315 11.9742 59.9952C12.1717 59.6461 12.2588 59.2457 12.2242 58.8464C12.1895 58.4472 12.0348 58.0676 11.7802 57.7574C11.5255 57.4473 11.1829 57.2209 10.7971 57.108C10.4113 56.9951 10.0003 57.0009 9.61782 57.1247C5.8342 58.2709 6.58887 64.191 7.85692 66.734C9.67429 70.3925 15.2753 68.3458 14.5309 64.4417C14.2434 62.9067 12.8778 61.3716 11.2298 61.2386C10.7038 61.2305 10.1871 61.3777 9.74493 61.6618C9.30275 61.9459 8.95484 62.3542 8.74507 62.835C8.52105 63.2766 8.39125 63.7596 8.36386 64.2537C8.33647 64.7477 8.41208 65.2421 8.58593 65.7056C8.62186 65.7823 9.22252 66.7647 9.09931 66.7647C8.84775 66.7647 8.61673 66.4321 8.47298 66.2531C8.0564 65.6993 7.80573 65.0392 7.75 64.3493C7.69427 63.6594 7.83576 62.9679 8.15809 62.3548C8.48041 61.7418 8.97038 61.2323 9.57126 60.8853C10.1721 60.5383 10.8593 60.3681 11.5533 60.3943C12.4192 60.3452 13.2792 60.5648 14.0147 61.023C14.7503 61.4812 15.3252 62.1554 15.6603 62.9527C16.8924 65.8232 16.2969 69.2361 13.5041 70.9196C12.213 71.6708 10.7191 72.0021 9.23019 71.8672C7.74134 71.7324 6.33172 71.1382 5.19761 70.1674C3.10814 68.3509 2.25593 65.8642 1.60394 63.2955C1.38832 62.4257 1.12649 61.5507 0.833865 60.7064C0.60468 59.9132 0.490579 59.0913 0.495034 58.2657C0.495034 57.9178 0.669585 57.2424 0.197274 57.1605C0.135668 56.4595 0.890337 55.0268 0.484766 54.464C-0.151827 54.7914 0.330753 53.6197 0.40776 53.415C0.58231 52.9494 1.2035 51.7111 0.977612 51.2353C0.833865 51.3325 0.726055 51.4809 0.546371 51.486C0.453963 50.8208 1.02382 49.951 1.23944 49.3267C1.38318 48.8969 1.85549 48.2573 1.75282 47.7917C1.42425 47.7405 1.36265 48.0833 1.10082 48.1857C0.546372 47.7149 2.83092 44.87 3.15435 44.4862C5.53644 41.8408 8.14955 40.2802 11.8202 40.1421C12.1488 40.1421 12.6057 40.0858 12.77 39.876C13.6889 38.6787 15.917 39.2722 17.2313 39.0829C17.8371 38.9959 18.4274 38.6991 19.0281 38.6736C20.2397 38.6275 20.2705 39.5383 20.9122 40.3058C21.3489 40.7185 21.8101 41.1046 22.2932 41.4622C22.4256 41.5832 22.5293 41.7321 22.5969 41.898C22.6645 42.0639 22.6942 42.2427 22.6839 42.4215C22.6735 42.6003 22.6235 42.7745 22.5372 42.9316C22.451 43.0887 22.3309 43.2247 22.1854 43.3298C21.672 43.7648 20.789 43.9387 20.1678 44.1025C19.474 44.2627 18.825 44.5757 18.2683 45.0184C17.8469 45.4285 17.388 45.7985 16.8976 46.1236C16.419 46.3356 15.9573 46.5837 15.5166 46.8655Z" fill="white"/>
<path d="M40.2477 47.2832C40.4069 47.2832 40.2118 47.672 40.1707 47.7283C40.0442 47.8945 39.8937 48.041 39.7241 48.1633C39.1918 48.6064 38.7922 49.1871 38.569 49.8416C38.3738 50.2693 38.2763 50.7348 38.2834 51.2047C38.2905 51.6745 38.4021 52.1369 38.61 52.5586C38.8065 52.9904 39.0511 53.3989 39.339 53.7764C39.5405 54.0093 39.6833 54.2868 39.7557 54.5858C39.828 54.8849 39.8277 55.1967 39.7549 55.4956C39.5695 56.2154 39.6017 56.9737 39.8473 57.6754C39.9213 57.8474 40.0276 58.0037 40.1604 58.1359C40.2619 58.2486 40.3323 58.3857 40.3647 58.5337C40.3971 58.6817 40.3904 58.8355 40.3453 58.9801C40.2888 59.2309 40.0988 59.2462 39.95 59.0671C39.624 58.6877 39.3206 58.2896 39.0413 57.8749C38.9313 57.6611 38.8733 57.4245 38.8719 57.1842C38.8831 56.6344 38.866 56.0845 38.8205 55.5366C38.6233 54.5089 38.0416 53.5943 37.1931 52.9782C36.6797 52.5586 36.1047 52.1595 35.6016 51.7041C35.3537 51.4872 35.1752 51.2025 35.0882 50.8854C34.8623 49.7955 34.0923 49.2941 33.1477 48.9615C32.085 48.5828 31.0069 48.2451 29.9544 47.846C28.74 47.4336 27.5905 46.8513 26.5404 46.1165C25.9757 45.697 25.3802 45.3234 24.7436 44.8834C24.708 45.0521 24.684 45.2231 24.6717 45.3951C24.6434 45.8176 24.6434 46.2415 24.6717 46.664C24.7383 46.9057 24.8459 47.1341 24.99 47.3394C25.0773 47.493 25.2364 47.6209 25.2775 47.7795C25.2864 47.8521 25.2785 47.9259 25.2545 47.995C25.2305 48.0642 25.191 48.127 25.1389 48.1786C25.0792 48.2023 25.0144 48.2105 24.9507 48.2024C24.887 48.1944 24.8263 48.1703 24.7744 48.1326C24.3908 47.739 24.0469 47.3088 23.7476 46.8482C23.6526 46.5695 23.6526 46.2673 23.7476 45.9886C23.8254 45.7243 23.8414 45.4457 23.7942 45.1742C23.747 44.9028 23.638 44.6457 23.4755 44.4229C23.4083 44.3138 23.3644 44.192 23.3467 44.0652C23.3291 43.9384 23.338 43.8093 23.3729 43.6861C23.4312 43.5465 23.5404 43.4341 23.6785 43.3714C23.8166 43.3088 23.9733 43.3005 24.1173 43.3483C24.7231 43.5019 25.3083 43.7219 25.8987 43.9163C25.9671 43.953 26.0309 43.9976 26.0887 44.0494C26.7817 44.5099 26.7663 44.4894 27.0744 43.7321C27.3557 43.0741 27.6727 42.4318 28.0241 41.8082C28.4321 40.9485 28.6342 40.0062 28.6145 39.0554C28.6145 38.8967 28.4451 38.6972 28.3065 38.5693C28.1239 38.4451 27.923 38.3501 27.7109 38.2878C27.5621 38.2264 27.3824 38.2162 27.2335 38.1497C26.9875 37.9832 26.8063 37.7375 26.7201 37.4538C26.6491 37.2931 26.6209 37.1169 26.638 36.9421C26.657 36.8663 26.7004 36.7987 26.7616 36.7497C26.8228 36.7007 26.8984 36.6731 26.9768 36.6709C27.059 36.6709 27.0846 36.7426 27.1514 36.7682C27.2586 36.7836 27.3675 36.7836 27.4748 36.7682C27.9316 36.7813 28.3879 36.7296 28.8301 36.6147C29.2361 36.5685 29.646 36.5685 30.052 36.6147C30.2419 36.6147 30.4832 36.6914 30.6116 36.6147C30.8928 36.4392 31.1327 36.2053 31.3149 35.929C31.5305 35.5759 31.2635 34.8647 30.8631 34.5679C30.4627 34.2712 30.1598 34.0972 29.8363 33.8311C29.5263 33.5826 29.2409 33.3051 28.9841 33.0022C28.8352 32.8231 28.7634 32.4138 28.9841 32.25C29.2049 32.0863 29.323 32.3831 29.364 32.5417C29.3887 32.7345 29.4423 32.9225 29.5232 33.0994C29.6207 33.258 29.8055 33.3655 29.9185 33.1557C29.9959 32.8654 30.0116 32.5621 29.9647 32.2654C29.9278 32.0101 29.956 31.7496 30.0468 31.5081C30.1238 31.3648 30.2625 31.2574 30.3857 31.4109C30.5089 31.5644 30.4524 31.81 30.4319 31.984C30.3908 32.2879 30.3908 32.5959 30.4319 32.8999C30.4344 33.0401 30.4677 33.178 30.5294 33.3041C30.609 33.3713 30.6992 33.4249 30.7964 33.4627C30.9144 33.5241 30.9658 32.9101 30.9658 32.8436C30.9658 32.6389 30.9658 32.4342 31.1968 32.3319C31.4278 32.2296 31.5305 32.5008 31.51 32.685C31.4604 32.861 31.3951 33.0322 31.3149 33.1966C31.1814 33.5804 31.4586 33.9232 31.6537 34.22C31.8488 34.5168 32.049 34.5731 32.2236 34.2763C32.3365 34.087 32.3724 33.8107 32.624 33.7646C32.9577 33.6776 33.009 34.1074 32.9115 34.3326C32.7575 34.6754 32.3519 34.8033 32.1774 35.1206C32.0028 35.4378 31.9309 35.6322 31.8231 35.8727C31.7564 36.0211 31.5151 36.3844 31.5613 36.5328C31.6075 36.6812 31.7564 36.5328 31.8591 36.5328C31.9617 36.5328 32.1209 36.4305 32.2544 36.3793C32.3879 36.3281 32.3314 36.3179 32.3879 36.3793C32.5265 36.5226 32.2544 36.804 32.1876 36.9217C32.0735 37.1334 31.8933 37.3022 31.6743 37.4026C31.51 37.4743 31.2892 37.6534 31.2738 37.8017C31.1294 38.9169 31.0489 40.0393 31.0325 41.1635C31.0472 41.9185 31.2596 42.6565 31.6486 43.3045C32.0377 43.9525 32.5898 44.488 33.2503 44.8578C34.329 45.5799 35.5235 46.1129 36.7824 46.4338C37.7219 46.6487 38.3225 48.0404 39.452 47.7846C39.611 47.7514 39.7625 47.6889 39.8986 47.6004C39.9664 47.5589 40.0301 47.5109 40.0886 47.4571C40.1296 47.406 40.1502 47.319 40.2221 47.3036L40.2477 47.2832Z" fill="white"/>
<path d="M40.6205 55.9803C40.6776 56.0326 40.7308 56.089 40.7796 56.1492C41.062 56.4971 40.908 56.9269 40.9028 57.3311C40.8977 57.7354 41.2468 57.6381 41.3392 57.28C41.3878 57.0724 41.3806 56.8558 41.3184 56.6518C41.2562 56.4479 41.1412 56.264 40.985 56.1185C40.8315 56.0056 40.6904 55.877 40.564 55.7347C40.5075 55.6579 40.3432 55.3765 40.4202 55.2793C40.3735 55.3298 40.3383 55.3898 40.317 55.4552C40.2957 55.5205 40.2889 55.5897 40.297 55.6579C40.2246 55.6558 40.1538 55.6801 40.0981 55.7263C40.0423 55.7724 40.0054 55.8373 39.9941 55.9087C40.1687 55.6375 40.4305 55.7961 40.6205 55.9803Z" fill="white"/>
<path d="M41.5859 0.0911485C41.2163 0.183251 40.7235 0.459556 40.5078 0.505607C39.9637 0.62841 39.1731 0.254886 38.7572 0.766565C38.2438 0.341871 37.0939 -0.0470044 36.5805 0.577244C36.4059 0.792149 36.4573 0.914951 36.755 0.945651C36.9398 0.945651 37.1093 0.787032 37.2684 0.766565C37.5186 0.747459 37.768 0.812301 37.9769 0.950769C38.3824 1.18102 38.711 1.52385 39.1166 1.75922C39.516 1.94578 39.9541 2.03521 40.3949 2.02018C40.5284 2.02018 41.1855 1.95366 41.1598 1.71317C41.1598 1.61083 40.5592 1.71317 40.4308 1.66712C40.2101 1.61595 39.7686 1.48291 39.7224 1.21172C39.6556 0.85355 40.1639 0.930301 40.359 0.991703C40.9545 1.17079 41.6732 1.34476 41.935 0.638645C42.1609 0.0809148 41.9299 -0.0111873 41.5859 0.0911485Z" fill="white"/>
<path d="M48.5832 61.8343C48.4395 61.9929 48.7373 62.392 48.804 62.5302C48.9197 62.7875 49.0175 63.0525 49.0966 63.3233C49.2476 63.8432 49.2844 64.3895 49.2044 64.9248C49.0247 66.1017 46.7556 68.9825 45.3438 67.9335C44.892 68.5833 44.317 69.2792 43.5008 68.394C43.1619 69.3099 42.1044 69.0439 41.5089 68.5475C40.785 69.6016 39.6863 68.8596 38.8803 68.4554C38.2591 69.269 38.2027 68.9671 37.2529 68.655C36.4572 68.394 36.4469 69.0387 35.7847 69.0694C35.4561 69.0694 35.0556 68.6754 34.6706 68.7675C34.2856 68.8596 34.1572 69.2434 33.7927 69.3611C33.4282 69.4788 33.074 69.3611 32.7198 69.4634C32.3655 69.5658 32.0318 69.8574 31.6057 69.9393C30.7432 70.103 30.004 70.3845 29.1415 70.6249C27.7605 71.0138 26.6259 71.1929 25.4349 70.2156C25.2097 70.0695 24.9565 69.9718 24.6913 69.9287C24.4261 69.8855 24.1549 69.8978 23.8947 69.9649C23.1446 70.2015 22.3529 70.2782 21.571 70.1901C20.7891 70.1019 20.0346 69.8509 19.3565 69.4532C18.6828 69.1055 17.9331 68.9297 17.1746 68.9415C17.029 68.9388 16.8842 68.9647 16.7486 69.0178C16.613 69.0708 16.4893 69.15 16.3844 69.2507C16.2795 69.3514 16.1956 69.4718 16.1374 69.6049C16.0792 69.7379 16.0478 69.8811 16.0451 70.0263C16.0419 70.1734 16.0737 70.3192 16.138 70.4518C16.2022 70.5843 16.2971 70.6998 16.4148 70.7887C16.5021 70.8706 17.3491 71.2543 17.3235 71.1622C17.3081 71.0228 17.3081 70.8821 17.3235 70.7426C17.7136 70.6761 17.652 71.2287 17.9652 71.2543C17.934 71.1585 17.9305 71.0559 17.955 70.9582C17.9795 70.8605 18.0311 70.7716 18.1038 70.7017C18.1705 70.9678 18.34 71.418 18.6172 71.4334C18.5875 71.3439 18.5848 71.2478 18.6094 71.1568C18.634 71.0658 18.6849 70.9841 18.7558 70.9217C19.1152 71.2594 19.223 71.5971 19.721 71.7865C20.2189 71.9758 20.7477 71.9707 21.2611 72.1549C21.9285 72.4107 22.6472 72.5591 23.3146 72.7484C23.4378 72.7842 23.561 72.8047 23.6175 72.9735C22.7005 73.1765 21.7709 73.3184 20.835 73.3982C20.2651 73.4341 19.3616 73.7871 18.8123 73.5415C18.6583 73.475 18.0371 72.5744 18.073 73.388C18.073 73.214 17.2927 72.7075 17.0462 72.8456C16.6663 73.081 16.6869 74.1811 16.9025 74.4932C17.2363 74.8776 17.7043 75.1209 18.2116 75.1738C19.7518 75.3733 21.2919 75.4091 22.832 75.6087C23.7664 75.7264 24.6597 76.0794 25.5889 76.2483C27.0828 76.5246 28.587 76.7293 30.0913 76.9698C30.2652 77.017 30.4366 77.0734 30.6046 77.1386C29.5779 77.9419 27.9864 77.2614 27.2728 78.6276L27.9453 78.7555L27.5808 79.1546C28.2533 79.9938 28.9978 79.83 29.8397 79.3798C30.6127 78.9634 31.4178 78.6092 32.2475 78.3206C32.5727 78.2556 32.8655 78.0806 33.076 77.825C33.2865 77.5695 33.4019 77.2492 33.4026 76.9186C33.4155 76.7978 33.4572 76.6819 33.5241 76.5804C33.5911 76.479 33.6814 76.3949 33.7876 76.3353C35.184 75.9515 36.5907 75.6087 38.0025 75.3119C38.14 75.2757 38.2836 75.2684 38.4241 75.2904C38.5646 75.3124 38.699 75.3633 38.8187 75.4398C39.3578 75.9106 39.173 76.3864 38.5004 76.6628C38.1339 76.8368 37.8164 77.0987 37.5764 77.4252C37.3607 77.7066 37.5199 77.8754 37.8382 78.1517C38.5518 78.7709 39.0857 78.4229 39.6915 78.0955C40.1279 77.8601 40.5745 77.6349 41.0006 77.3791C41.1166 77.3286 41.2207 77.2546 41.3063 77.1617C41.3919 77.0688 41.4571 76.9591 41.4977 76.8396C41.5383 76.7202 41.5534 76.5936 41.5421 76.468C41.5307 76.3423 41.4932 76.2205 41.4318 76.1101C41.363 75.9969 41.3188 75.8705 41.3021 75.7391C41.2853 75.6077 41.2964 75.4743 41.3346 75.3475C41.3729 75.2206 41.4374 75.1032 41.524 75.0028C41.6106 74.9023 41.7174 74.8211 41.8374 74.7644C43.2698 73.8332 44.7072 72.8866 46.2012 72.0525C47.6951 71.2185 49.2814 70.3282 50.2466 68.7317C51.7046 66.2859 51.181 63.4358 48.9837 61.998C48.881 61.9366 48.6551 61.7575 48.5524 61.8394L48.5832 61.8343Z" fill="white"/>
<path d="M25.4958 37.7552C25.3828 36.998 24.6846 36.9212 24.1353 36.911L24.2072 36.8649C24.7873 36.4198 25.2853 35.2838 24.5101 34.8182C24.3602 34.7125 24.1749 34.6694 23.9936 34.6981C23.8123 34.7268 23.6494 34.825 23.5398 34.9717C23.4184 35.1267 23.3215 35.2993 23.2523 35.4834C23.1907 35.6318 23.165 35.8927 23.0572 35.9951C22.9391 35.7955 22.9443 35.5294 22.78 35.3248C22.6349 35.1462 22.4375 35.0174 22.2152 34.9564C21.9702 34.8986 21.7128 34.9242 21.484 35.0289C21.2552 35.1337 21.068 35.3117 20.9523 35.5346C20.8518 35.7267 20.815 35.9456 20.8473 36.1598C20.8796 36.3741 20.9793 36.5726 21.132 36.7268C21.2977 36.9054 21.5036 37.0422 21.7327 37.1259C21.2193 37.2129 20.67 37.4892 20.9575 38.1185C21.0032 38.2237 21.0737 38.3164 21.1631 38.3886C21.2525 38.4607 21.3581 38.5103 21.4708 38.533C21.7224 38.5688 22.2769 38.3897 22.3744 38.1288C22.3162 38.2928 22.2983 38.4684 22.3221 38.6408C22.3459 38.8131 22.4108 38.9773 22.5113 39.1196C22.6118 39.2619 22.7451 39.3781 22.8999 39.4585C23.0547 39.539 23.2266 39.5813 23.4012 39.5819C24.2174 39.5512 23.817 38.6711 23.7451 38.2311C24.2636 38.8809 25.66 38.8451 25.4958 37.7552ZM23.5398 37.4124C23.3344 37.8422 22.4822 37.7757 22.8364 37.1873C22.8713 37.1314 22.9166 37.0828 22.9699 37.044C23.2625 36.8342 23.7605 36.9621 23.5398 37.4124Z" fill="white"/>
<path d="M23.6651 2.70548C23.6703 2.75985 23.66 2.81457 23.6355 2.86342C23.611 2.91227 23.5732 2.95328 23.5265 2.98179C23.1367 3.2505 22.8093 3.59948 22.5665 4.00514C22.433 4.22517 22.4638 4.40425 22.7102 4.51682C22.9371 4.58761 23.1713 4.63225 23.4084 4.64986C24.0091 4.73173 24.6097 4.9364 23.9218 5.56065C23.7062 5.76532 22.4946 6.07232 22.741 6.46632C23.0388 6.95241 24.1323 6.49702 24.5481 6.39468C25.2617 6.22071 25.7597 5.48389 26.4836 5.37133C27.1414 5.32015 27.8023 5.32015 28.4601 5.37133C28.608 5.38312 28.7516 5.42673 28.881 5.49917C29.0104 5.5716 29.1225 5.67113 29.2096 5.7909C29.4048 6.02658 29.6493 6.21693 29.9259 6.34862C30.2026 6.48031 30.5048 6.55016 30.8114 6.5533C31.294 6.5533 32.2129 6.04162 32.4131 6.81426C32.4491 6.96776 32.2899 7.32594 32.4131 7.44874C32.6955 7.679 32.9265 7.02405 32.9676 6.83984C32.989 6.6201 32.9529 6.39859 32.863 6.19685C32.773 5.9951 32.6322 5.82 32.4542 5.68857C32.1359 5.46343 31.6482 5.35598 31.5198 4.9364C31.6822 4.9833 31.8526 4.99523 32.0199 4.97141C32.1872 4.94759 32.3475 4.88856 32.4901 4.79825C32.562 4.74708 32.639 4.62939 32.7212 4.61916C32.8033 4.60892 32.8906 4.66521 32.9419 4.67033C33.0804 4.67974 33.2181 4.64184 33.3321 4.56287C33.4604 4.50659 33.6144 4.56287 33.7428 4.56287C33.8992 4.5582 34.0529 4.52163 34.1946 4.45542C34.4841 4.33301 34.7169 4.10651 34.8466 3.82094C34.9348 3.91233 35.0423 3.98312 35.1612 4.02823C35.2801 4.07335 35.4076 4.09167 35.5345 4.08189C35.786 4.08189 35.9914 3.88234 36.2173 3.86187C36.2738 4.12795 36.7307 4.17911 36.9258 4.1126C37.0316 4.06349 37.1207 3.98443 37.1819 3.88527C37.243 3.7861 37.2736 3.6712 37.2697 3.55487C37.2743 3.42794 37.2552 3.30128 37.2132 3.18134C37.0995 2.87851 36.9062 2.61168 36.6537 2.40871C36.1768 2.04986 35.6066 1.83498 35.0108 1.78957C34.2524 1.7009 33.4869 1.88212 32.8495 2.30125C31.9203 2.94085 31.3607 3.69813 30.1388 3.27856C29.9226 3.23135 29.7028 3.20225 29.4817 3.19157C28.4088 3.04319 27.3461 3.26321 26.2782 3.28879C25.981 3.30868 25.6824 3.28975 25.3901 3.23251C25.0698 3.16864 24.7764 3.00992 24.5481 2.77711C24.4579 2.71755 24.3838 2.6367 24.3325 2.54174C24.2555 2.30125 24.2863 1.67189 23.9013 2.09658C23.7556 2.267 23.6723 2.4817 23.6651 2.70548Z" fill="white"/>
<path d="M44.5792 66.838C44.5073 67.0427 45.262 67.0785 45.3544 67.0427C45.4828 66.9737 45.595 66.8783 45.6836 66.7627C45.7721 66.6471 45.8349 66.514 45.8678 66.3724C46.5095 67.145 47.3412 66.1268 47.1615 65.39C47.6749 65.39 47.9675 65.3132 48.142 64.8015C48.2284 64.6025 48.2491 64.3812 48.2011 64.1697C48.1531 63.9582 48.0389 63.7673 47.8751 63.6247C48.2088 63.3432 47.988 62.6013 47.49 62.6934C46.9921 62.7855 46.2631 64.3973 45.9499 64.822C45.6833 65.2274 45.3541 65.5883 44.9745 65.8914C44.7229 66.0756 43.0698 66.6794 43.65 67.1911C43.9528 67.4469 44.4765 67.1245 44.5792 66.838Z" fill="white"/>
<path d="M24.0149 38.5125C24.1587 38.9781 24.5283 39.3977 24.6464 39.9196C24.7303 40.3933 24.7163 40.879 24.6053 41.3472C24.5488 41.6388 24.0919 42.9385 24.8312 42.7747C25.0468 42.3501 24.7182 41.5979 25.1084 41.2755C25.4986 40.9532 26.0941 41.0709 26.4791 40.7638C26.7751 40.4875 26.9854 40.1323 27.0849 39.7405C26.8867 39.5473 26.6258 39.4308 26.3492 39.412C26.0725 39.3933 25.7983 39.4735 25.5756 39.6382C25.2639 39.9579 25.0533 40.3617 24.9698 40.7997C24.9236 40.1447 24.9698 39.5461 24.6207 38.9679C24.5185 38.7779 24.3868 38.6052 24.2305 38.4562C24.056 38.359 23.6093 38.272 24.0149 38.5125Z" fill="white"/>
<path d="M52.3729 62.0613C51.3051 63.1973 51.7107 66.6664 54.2416 65.858C56.0744 65.2644 55.33 62.6549 53.8772 61.9334C53.6512 61.7754 53.3767 61.7016 53.1017 61.7249C52.8267 61.7483 52.5687 61.8674 52.3729 62.0613Z" fill="white"/>
<path d="M59.8022 49.1139C59.4223 49.2878 59.3761 49.7228 59.2888 50.2498C59.1297 51.0685 58.9962 51.2322 58.2312 51.0736C57.5844 50.9406 56.8759 50.7154 56.6603 51.5444C56.3523 52.711 57.2045 52.5677 57.9797 52.931C59.3607 53.5348 57.5792 55.0391 58.837 55.6122C59.3042 55.8271 59.8022 55.9908 60.2078 55.6122C60.6133 55.2336 60.3977 54.5019 60.7468 54.1386C61.3577 53.499 62.4564 54.6502 62.8568 53.6269C63.0365 53.1944 63.0365 52.7085 62.8568 52.276C62.4666 51.7644 61.6555 52.2147 61.2294 51.6569C60.8033 51.0992 61.6606 50.2805 61.5579 49.6767C61.4553 49.0729 60.3104 48.8939 59.8022 49.1139Z" fill="white"/>
<path d="M27.1744 6.89373C27.1678 6.90261 27.1593 6.90995 27.1496 6.91524C27.1398 6.92054 27.129 6.92368 27.118 6.92444C27.0512 6.92444 26.9793 6.86303 26.9177 6.84257C26.1733 6.6072 25.6292 7.10352 25.4905 7.86593C25.3806 8.24741 25.3994 8.65432 25.5441 9.02411C25.6888 9.39389 25.9514 9.70607 26.2914 9.91264L26.3633 9.94846C26.4306 9.97623 26.5041 9.98565 26.5763 9.97576C26.6485 9.96586 26.7167 9.93702 26.774 9.89217C26.9793 9.77961 27.0204 9.84613 27.2104 9.9587C27.3778 10.041 27.5668 10.069 27.751 10.0387C27.9351 10.0084 28.1051 9.92137 28.2371 9.78984C28.4688 9.61296 28.6613 9.39033 28.8026 9.13588C28.944 8.88143 29.0311 8.60064 29.0585 8.31109C29.0912 8.01239 29.0321 7.71085 28.8891 7.44635C28.755 7.22958 28.5414 7.07353 28.2936 7.01142C28.1904 6.97824 28.0835 6.95762 27.9753 6.95002C27.9086 6.95002 27.6929 7.02677 27.77 6.88862C27.8059 6.83234 27.8829 6.78117 27.924 6.72488C27.965 6.6686 28.0831 6.48439 27.924 6.43834C27.8499 6.42943 27.7751 6.44761 27.7135 6.48951C27.6519 6.52533 27.6005 6.61231 27.5492 6.64301C27.4979 6.67371 27.5184 6.67371 27.4876 6.64301C27.4702 6.60601 27.4597 6.56611 27.4568 6.52533C27.4432 6.39089 27.4031 6.26046 27.3387 6.14157C27.2463 5.98806 26.928 5.76293 26.8253 6.02388C26.7227 6.28484 26.9229 6.50998 27.0666 6.6993C27.1026 6.69418 27.2206 6.82722 27.1744 6.89373Z" fill="white"/>
<path d="M12.7177 62.6497C12.4659 62.4268 12.1584 62.2759 11.8276 62.2128C11.4969 62.1498 11.1552 62.177 10.8387 62.2916C10.2378 62.4437 9.72178 62.8268 9.40338 63.357C9.08497 63.8872 8.99006 64.5214 9.13939 65.1212C9.23322 65.4683 9.40821 65.7884 9.65003 66.0552C9.89185 66.322 10.1936 66.528 10.5307 66.6562C10.8881 66.77 11.2669 66.8005 11.638 66.7455C12.0092 66.6905 12.3627 66.5514 12.6715 66.3389C12.9422 66.13 13.1619 65.8626 13.3139 65.5568C13.466 65.2511 13.5465 64.9149 13.5493 64.5737C13.5493 64.543 13.5493 64.5071 13.5493 64.4764C13.5481 64.1307 13.4734 63.7891 13.33 63.4742C13.1867 63.1593 12.978 62.8783 12.7177 62.6497ZM12.5996 63.8675C12.5284 64.0379 12.4196 64.19 12.2813 64.3127C12.0349 64.589 11.7679 64.8858 11.5317 65.1467C11.4474 65.2587 11.3339 65.3455 11.2036 65.3979C11.0733 65.4502 10.9311 65.466 10.7925 65.4435C10.6762 65.403 10.5709 65.3365 10.4845 65.2491C10.2894 65.07 9.97107 64.6044 10.2996 64.3843C10.5153 64.2308 10.6898 64.6453 10.8438 64.722C11.5574 65.0905 11.7268 63.187 12.384 63.5401C12.4918 63.6117 12.6253 63.7345 12.5996 63.8675Z" fill="white"/>
<path d="M59.3578 42.811C59.3031 43.1075 59.217 43.3973 59.1011 43.6757C58.9618 43.9752 58.8934 44.3026 58.9009 44.6326C58.8609 44.858 58.799 45.0791 58.7161 45.2926C58.6789 45.414 58.6565 45.5394 58.6493 45.6662C58.6302 46.2274 58.4264 46.7668 58.0692 47.2012C57.9819 47.3141 57.8659 47.4016 57.7332 47.4547C57.6004 47.5078 57.4559 47.5245 57.3145 47.5031C57.2581 47.5031 57.1554 47.4314 57.1502 47.3905C57.1448 47.298 57.1741 47.2069 57.2324 47.1347C57.3182 47.055 57.411 46.9831 57.5096 46.9198C57.6218 46.8376 57.7161 46.7335 57.7867 46.6139C57.8573 46.4943 57.9028 46.3616 57.9203 46.2239C57.9715 45.8376 58.0769 45.4604 58.2335 45.1033C58.284 44.9375 58.3082 44.7649 58.3053 44.5916C58.3053 44.3921 58.3053 44.1874 58.3361 43.9879C58.367 43.7013 58.4029 43.4148 58.4491 43.1282C58.4711 42.9857 58.5055 42.8453 58.5518 42.7087C58.6409 42.2573 58.6685 41.796 58.6339 41.3373C58.6339 40.9996 58.6853 40.6568 58.7109 40.314C58.772 39.9373 58.7202 39.5511 58.562 39.2036C58.4067 38.8948 58.2354 38.5942 58.0487 38.3031C57.9554 38.1608 57.9058 37.9946 57.9058 37.8247C57.9058 37.6548 57.9554 37.4885 58.0487 37.3462C58.2829 36.8717 58.3428 36.3304 58.2181 35.8163C58.1461 34.7259 58.1461 33.632 58.2181 32.5416C58.1581 31.7576 58.1702 30.9697 58.254 30.1879C58.3978 29.4152 58.8033 28.6886 58.7315 27.8802C58.6921 27.5725 58.5814 27.2782 58.408 27.0206C58.2848 26.8261 58.1873 26.6215 58.0641 26.4321C58.0079 26.3632 57.933 26.3117 57.8484 26.2837C57.6225 26.2207 57.4148 26.1049 57.2427 25.946C57.2016 25.909 57.1716 25.8613 57.1562 25.8083C57.1409 25.7553 57.1406 25.699 57.1556 25.6458C57.1705 25.5927 57.2 25.5447 57.2408 25.5074C57.2816 25.47 57.332 25.4447 57.3864 25.4344C57.4918 25.4078 57.6018 25.405 57.7084 25.4262C57.815 25.4475 57.9155 25.4922 58.0025 25.5572C58.3697 25.7882 58.7952 25.9106 59.2294 25.9102C59.3972 25.9317 59.5547 26.003 59.6812 26.1149C59.7776 26.1933 59.8943 26.2431 60.0178 26.2584C60.1412 26.2738 60.2666 26.2542 60.3794 26.2019C60.5232 26.1456 60.4872 26.074 60.5694 25.9665C60.602 25.9197 60.652 25.8877 60.7084 25.8776C60.7647 25.8676 60.8227 25.8802 60.8697 25.9128C60.9167 25.9453 60.9487 25.9952 60.9588 26.0513C60.9689 26.1075 60.9563 26.1653 60.9236 26.2121C60.8312 26.3605 60.5899 26.2991 60.4975 26.4372C60.4051 26.5754 60.631 26.8057 60.7439 26.8926C60.8575 26.9696 60.9916 27.0106 61.1289 27.0103C61.2419 27.0103 61.3805 26.9592 61.4575 27.0768C61.4735 27.1059 61.4828 27.1381 61.4849 27.1712C61.4869 27.2042 61.4817 27.2373 61.4694 27.2681C61.4571 27.2989 61.4382 27.3266 61.414 27.3493C61.3897 27.3719 61.3608 27.389 61.3292 27.3992C61.1443 27.4555 60.8979 27.2713 60.7028 27.2559C60.1895 27.2048 59.979 27.3839 59.9122 27.8597C59.8455 28.3356 59.7582 28.9394 59.712 29.4817C59.6332 30.6056 59.6573 31.7342 59.7839 32.8537C59.7747 33.3384 59.8619 33.8202 60.0406 34.2711C60.2408 34.6088 60.554 34.7827 60.749 35.1665C60.9594 35.7142 61.2633 36.2215 61.6475 36.6657C61.94 36.957 62.2895 37.1852 62.6742 37.336C63.4497 37.6238 64.1512 38.08 64.7277 38.6715C64.9433 38.9397 65.0912 39.2556 65.159 39.5925C65.2836 40.1506 65.3523 40.7197 65.3643 41.2913C65.3987 41.6218 65.4535 41.95 65.5286 42.2737C65.5248 42.2826 65.5228 42.2922 65.5228 42.3019C65.5228 42.3115 65.5248 42.3211 65.5286 42.33C65.633 42.4158 65.7141 42.5263 65.7643 42.6515C65.8145 42.7767 65.8324 42.9125 65.8161 43.0464C65.8161 43.3943 65.8161 43.7422 65.8161 44.0697C65.8203 44.1234 65.8077 44.177 65.7802 44.2232C65.7494 44.2744 65.6929 44.3409 65.6416 44.3409C65.6097 44.3351 65.5794 44.3225 65.5528 44.3039C65.5262 44.2854 65.504 44.2613 65.4876 44.2335C65.4484 44.1641 65.424 44.0875 65.4157 44.0083C65.3746 43.6706 65.3438 43.338 65.3027 42.985C65.2668 42.724 65.2309 42.4733 65.1847 42.1919C65.1385 41.9104 65.082 41.6802 65.0512 41.455C64.969 40.8615 64.9023 40.2628 64.8253 39.6693C64.809 39.6155 64.7829 39.5652 64.7483 39.5209C64.7226 39.5721 64.6713 39.6181 64.6661 39.6693C64.6045 40.1144 64.5429 40.5647 64.5019 41.0099C64.4456 41.4581 64.5318 41.9127 64.7483 42.3095C64.8304 42.4579 64.9639 42.5756 65.0563 42.7189C65.0969 42.7873 65.1198 42.8646 65.1231 42.944C65.1495 43.5588 65.1272 44.1748 65.0563 44.7861C64.9965 45.3383 64.9725 45.8937 64.9844 46.449C64.9776 46.588 64.9407 46.7239 64.8763 46.8473C64.812 46.9708 64.7216 47.079 64.6115 47.1645C64.5014 47.2499 64.374 47.3107 64.2381 47.3427C64.1023 47.3746 63.9611 47.377 63.8242 47.3496C63.7766 47.3365 63.7316 47.3158 63.6907 47.2882C63.5418 47.1807 63.5418 47.1142 63.6907 47.0528C63.916 46.9703 64.11 46.8202 64.2461 46.6231C64.3822 46.4261 64.4536 46.1919 64.4505 45.9527C64.4505 45.6713 64.4813 45.3847 64.4813 45.1033C64.4813 44.6684 64.4557 44.2335 64.4813 43.7985C64.4899 43.5308 64.4126 43.2673 64.2606 43.0464L63.8807 42.4937H63.8345C63.8448 42.5917 63.8603 42.689 63.8807 42.7854C63.9217 42.9389 63.9833 43.0873 64.0193 43.2459C64.0802 43.6884 63.9681 44.1372 63.7061 44.4995C63.4289 45.0112 63.1619 45.5229 62.9207 46.0346C62.8122 46.3 62.7196 46.5717 62.6434 46.8481C62.5821 47.0643 62.4384 47.2479 62.243 47.3598C61.9839 47.4844 61.7163 47.5904 61.4421 47.6771C61.4179 47.6893 61.3914 47.6967 61.3643 47.6987C61.3372 47.7007 61.31 47.6973 61.2842 47.6887C61.2584 47.6802 61.2346 47.6666 61.2141 47.6488C61.1936 47.631 61.1769 47.6093 61.1649 47.585C61.1033 47.457 61.1957 47.3752 61.283 47.3035C61.4524 47.1603 61.6167 47.017 61.7963 46.8942C62.006 46.7248 62.1656 46.502 62.2584 46.2495C62.397 45.9527 62.5459 45.6559 62.6896 45.3591C63.0316 44.7504 63.1836 44.0538 63.126 43.3585C63.1027 43.2062 63.0578 43.0581 62.9925 42.9184C62.8231 42.5398 62.6434 42.1663 62.4791 41.7927C62.4021 41.6392 62.3046 41.5011 62.2327 41.3476C62.1492 41.1746 62.0805 40.9948 62.0274 40.8103C61.976 40.6108 61.8836 40.5135 61.6783 40.5545C61.1645 40.6167 60.6439 40.5925 60.1381 40.4828C60.0406 40.4828 59.9738 40.4828 59.9687 40.5852C59.9473 40.7994 59.9388 41.0147 59.943 41.2299C59.9609 41.5201 59.9969 41.8089 60.0508 42.0946C60.133 42.5824 60.133 43.0805 60.0508 43.5683C60.0225 43.9951 60.0641 44.4237 60.1741 44.8372C60.2857 45.3061 60.3238 45.7894 60.287 46.2699C60.2349 46.4187 60.1696 46.5625 60.0919 46.6998C60.0507 46.7965 60.0365 46.9026 60.0508 47.0068C60.0817 47.1961 60.0508 47.3291 59.8404 47.3598C59.6699 47.3812 59.4974 47.3812 59.327 47.3598C59.2862 47.3471 59.2488 47.3253 59.2176 47.296C59.1865 47.2668 59.1625 47.2308 59.1473 47.191C59.1473 47.1398 59.2192 47.0323 59.2859 47.0016C59.4558 46.9107 59.587 46.7617 59.6555 46.5821C59.7474 46.382 59.7846 46.1614 59.7633 45.9425C59.7531 45.7925 59.7531 45.6421 59.7633 45.4922C59.7635 44.8939 59.6911 44.2977 59.5477 43.7167C59.5118 43.512 59.481 43.3022 59.4451 43.0975C59.404 43.0157 59.3783 42.9184 59.3578 42.811Z" fill="white"/>
<path d="M55.3205 58.321C54.9079 58.2481 54.5262 58.055 54.2237 57.766C53.9211 57.4771 53.7112 57.1052 53.6206 56.6975C53.5299 56.2898 53.5624 55.8644 53.7142 55.4751C53.8659 55.0858 54.1299 54.75 54.473 54.5101C54.816 54.2703 55.2227 54.1372 55.6416 54.1275C56.0605 54.1179 56.4729 54.2322 56.8267 54.456C57.1805 54.6797 57.4598 55.003 57.6294 55.3849C57.799 55.7668 57.8513 56.1903 57.7796 56.6017C57.6819 57.1546 57.368 57.6461 56.9069 57.9685C56.4459 58.2908 55.8753 58.4176 55.3205 58.321ZM55.8698 55.2049C55.6647 55.1694 55.4537 55.1954 55.2634 55.2796C55.0732 55.3637 54.9122 55.5022 54.8009 55.6775C54.6896 55.8528 54.6329 56.057 54.6381 56.2644C54.6432 56.4718 54.71 56.673 54.8299 56.8426C54.9498 57.0122 55.1174 57.1425 55.3116 57.2171C55.5059 57.2918 55.7179 57.3073 55.921 57.2618C56.1241 57.2163 56.309 57.1118 56.4525 56.9615C56.596 56.8113 56.6916 56.6219 56.7271 56.4175C56.7536 56.2818 56.7522 56.1422 56.723 56.007C56.6939 55.8719 56.6375 55.744 56.5574 55.6311C56.4773 55.5183 56.375 55.4228 56.2569 55.3504C56.1387 55.278 56.007 55.2302 55.8698 55.21V55.2049Z" fill="white"/>
<path d="M57.4185 59.5064C57.2797 59.4798 57.1565 59.4011 57.0745 59.2863L56.1915 58.0327C56.1511 57.9756 56.1223 57.9111 56.1069 57.8429C56.0914 57.7747 56.0896 57.7042 56.1015 57.6353C56.1134 57.5664 56.1389 57.5005 56.1763 57.4414C56.2138 57.3823 56.2626 57.3311 56.3199 57.2908C56.3772 57.2505 56.4419 57.2218 56.5103 57.2064C56.5787 57.191 56.6495 57.1892 56.7186 57.2011C56.7878 57.213 56.8539 57.2383 56.9132 57.2756C56.9725 57.313 57.0238 57.3616 57.0643 57.4187L57.9473 58.6774C58.0178 58.7598 58.0603 58.8624 58.0686 58.9704C58.0769 59.0783 58.0507 59.1862 57.9936 59.2783C57.9365 59.3705 57.8516 59.4422 57.751 59.4832C57.6504 59.5242 57.5394 59.5323 57.4339 59.5064H57.4185Z" fill="white"/>
<path d="M56.1101 21.6835C56.0525 21.5947 56.0182 21.4929 56.0101 21.3875C56.002 21.282 56.0205 21.1762 56.0639 21.0797C56.0896 21.0479 56.1088 21.0114 56.1204 20.9723C56.1255 20.9178 56.1255 20.863 56.1204 20.8085H55.9766L56.0947 20.6704C56.1612 20.5976 56.2115 20.5117 56.2425 20.4183C56.2734 20.3248 56.2843 20.2259 56.2744 20.128C56.2693 20.1027 56.2693 20.0766 56.2744 20.0513C56.3291 19.6991 56.264 19.3389 56.0896 19.0279C56.0472 18.8963 56.018 18.7609 56.0023 18.6237C56.0023 18.4702 55.915 18.3576 55.8278 18.3525C55.7405 18.3474 55.6429 18.4344 55.6224 18.593C55.5711 18.8907 55.5402 19.1916 55.53 19.4935C55.5105 20.2884 55.4419 21.0813 55.3246 21.8677C55.2784 22.1901 55.263 22.5176 55.1963 22.8348C55.1345 23.1184 55.0522 23.3971 54.9499 23.6688C54.9199 23.7553 54.8706 23.8339 54.8056 23.8986C54.7407 23.9633 54.6619 24.0125 54.5751 24.0424C54.38 24.1038 54.2414 23.9861 54.2979 23.7865C54.325 23.6638 54.3756 23.5474 54.4468 23.4437C54.7836 22.9308 54.9751 22.3368 55.0012 21.7245C55.0525 21.2639 55.1142 20.8034 55.1604 20.348C55.2014 19.8696 55.2014 19.3886 55.1604 18.9102C55.1129 18.5087 55.1476 18.1017 55.2623 17.7139C55.377 17.3261 55.5694 16.9654 55.8278 16.6537C56.1025 16.2793 56.4521 15.9657 56.8545 15.7327C57.142 15.5945 57.4449 15.4973 57.7427 15.3796L58.102 15.2619C58.1633 15.2374 58.2218 15.2066 58.2766 15.1698C58.321 15.1374 58.3532 15.091 58.3681 15.0381C58.383 14.9853 58.3797 14.929 58.3587 14.8782C58.3456 14.8313 58.3162 14.7907 58.2757 14.7635C58.2353 14.7363 58.1865 14.7244 58.138 14.7298C57.9585 14.7198 57.78 14.7625 57.6246 14.8526C57.2858 15.0522 57.1882 15.0317 56.9315 14.7349C56.8656 14.6495 56.7954 14.5675 56.721 14.4893C56.6961 14.462 56.6824 14.4264 56.6824 14.3895C56.6824 14.3526 56.6961 14.3171 56.721 14.2898C56.7672 14.2079 56.8186 14.1311 56.8596 14.0493C56.9007 13.9674 56.9059 13.9265 56.8853 13.8855C56.8549 13.829 56.8421 13.7648 56.8485 13.701C56.8549 13.6372 56.8802 13.5767 56.9213 13.5274C57.0207 13.3933 57.0681 13.2279 57.0547 13.0617C57.051 13.0311 57.051 13.0002 57.0547 12.9696L57.1523 13.0003C57.1989 13.0305 57.2533 13.0466 57.3089 13.0466C57.3644 13.0466 57.4188 13.0305 57.4654 13.0003C57.5351 12.9595 57.6116 12.9318 57.6913 12.9185C57.749 12.9046 57.8029 12.8781 57.8491 12.8409C57.8952 12.8038 57.9325 12.7568 57.9583 12.7035C58.0866 12.4477 58.1534 12.4375 58.3022 12.7035C58.3644 12.7999 58.4473 12.8811 58.5451 12.9413C58.6428 13.0015 58.7528 13.0391 58.867 13.0515C59.2212 13.1231 59.5806 13.2152 59.9297 13.3176C60.0446 13.3576 60.1484 13.4242 60.2326 13.512C60.402 13.6655 60.5509 13.8446 60.7459 13.993C61.02 14.237 61.1861 14.5791 61.208 14.9447C61.2491 15.4206 61.285 15.8913 61.2953 16.3621C61.3031 16.5593 61.2876 16.7568 61.2491 16.9505C61.2491 17.017 61.1875 17.237 61.2799 17.2728C61.3723 17.3087 61.4287 17.1961 61.4852 17.1654C61.5283 17.1382 61.5769 17.1208 61.6275 17.1146C61.6781 17.1085 61.7294 17.1136 61.7778 17.1296C61.9832 17.2012 61.9524 17.2933 61.824 17.4161C61.6957 17.5389 61.4031 17.8408 61.1618 17.8613C60.9729 17.855 60.786 17.8205 60.6073 17.7589C60.6073 17.585 60.6741 17.324 60.5457 17.1807C60.5457 17.1807 60.4687 17.1807 60.4328 17.1807C60.5156 17.1029 60.5701 16.9999 60.5878 16.8878C60.6054 16.7757 60.5852 16.661 60.5303 16.5616C60.4423 16.6332 60.3853 16.7358 60.3712 16.8481C60.3163 17.0956 60.1898 17.3216 60.0072 17.498C59.8247 17.6745 59.5943 17.7937 59.3444 17.8408L59.2007 17.8715V18.7772L59.1134 18.7055C59.1096 18.7849 59.1218 18.8643 59.1491 18.939C59.1764 19.0136 59.2184 19.0821 59.2725 19.1405C59.2725 19.3247 59.3701 19.1661 59.2725 19.3605C59.2302 19.4812 59.1619 19.5913 59.0723 19.6829C58.9491 19.7852 58.8054 19.8568 58.6873 19.9592C58.5692 20.0615 58.5795 20.1331 58.4973 20.1689C58.4488 20.1928 58.3929 20.197 58.3412 20.1808C58.2896 20.1646 58.2462 20.1292 58.2201 20.082C58.1734 20.0107 58.1558 19.9243 58.1711 19.8405C58.1864 19.7567 58.2333 19.682 58.3022 19.6317C58.4973 19.4935 58.6668 19.4117 58.5538 19.12C58.4245 18.8493 58.3729 18.5482 58.4049 18.2502C58.3202 18.2545 58.2379 18.2796 58.1654 18.3234C58.0928 18.3671 58.0322 18.4281 57.9891 18.5009C57.8916 18.6735 57.8157 18.8573 57.7632 19.0484C57.7181 19.2836 57.6855 19.521 57.6657 19.7596C57.5578 19.6522 57.5065 19.6675 57.4449 19.821C57.4449 19.821 57.4449 19.8619 57.4449 19.8824C57.3808 20.1771 57.2985 20.4676 57.1985 20.7523C57.1009 21.09 57.3268 21.4533 57.7119 21.2639C57.8659 21.1974 57.7991 21.1463 57.9069 21.0746C58.2304 20.8444 58.2252 21.3356 58.0148 21.5095C57.8915 21.617 57.7221 21.6682 57.5989 21.7756C57.4757 21.8831 57.3987 22.0366 57.2036 22.0008C56.9746 21.9363 56.7413 21.8884 56.5054 21.8575C56.2693 21.837 56.2025 21.8421 56.1101 21.6835Z" fill="white"/>
<path d="M19.0249 67.7489C19.5154 67.7489 19.913 67.3526 19.913 66.8637C19.913 66.3748 19.5154 65.9785 19.0249 65.9785C18.5344 65.9785 18.1367 66.3748 18.1367 66.8637C18.1367 67.3526 18.5344 67.7489 19.0249 67.7489Z" fill="white"/>
<path d="M18.3601 65.3885C18.655 65.3885 18.894 65.1503 18.894 64.8564C18.894 64.5625 18.655 64.3242 18.3601 64.3242C18.0652 64.3242 17.8262 64.5625 17.8262 64.8564C17.8262 65.1503 18.0652 65.3885 18.3601 65.3885Z" fill="white"/>
<path d="M20.8562 68.2205C21.1511 68.2205 21.3901 67.9823 21.3901 67.6884C21.3901 67.3945 21.1511 67.1562 20.8562 67.1562C20.5613 67.1562 20.3223 67.3945 20.3223 67.6884C20.3223 67.9823 20.5613 68.2205 20.8562 68.2205Z" fill="white"/>
<path d="M17.4577 68.1229C17.7526 68.1229 17.9917 67.8846 17.9917 67.5907C17.9917 67.2968 17.7526 67.0586 17.4577 67.0586C17.1629 67.0586 16.9238 67.2968 16.9238 67.5907C16.9238 67.8846 17.1629 68.1229 17.4577 68.1229Z" fill="white"/>
<path d="M18.97 66.7569L17.4922 67.4238L17.5959 67.6522L19.0738 66.9853L18.97 66.7569Z" fill="white"/>
<path d="M19.0708 66.7669L18.9688 66.9961L20.8034 67.8079L20.9055 67.5788L19.0708 66.7669Z" fill="white"/>
<path d="M18.5321 64.9769L18.293 65.0547L18.9032 66.9177L19.1423 66.8398L18.5321 64.9769Z" fill="white"/>
<path d="M65.2733 37.5764C65.2477 36.727 65.3555 35.3659 64.5546 34.8236C63.9694 34.4296 63.2044 34.4603 62.5986 34.1328C62.3317 33.9844 61.885 33.4318 62.3933 33.2271C62.768 33.0685 63.1428 33.6518 63.4919 33.5444C63.841 33.4369 63.4919 33.1453 63.302 32.9866C62.6587 32.4755 62.151 31.8149 61.8234 31.0627C61.5543 30.509 61.5084 29.8736 61.6951 29.2872C61.962 28.6323 62.5267 28.5913 63.0247 29.0569C63.2095 29.2309 63.379 29.5072 63.6767 29.4254C64.2414 29.2719 63.9129 28.7397 63.6767 28.5146C63.4406 28.2894 62.5884 28.0029 62.4754 27.5935C62.3368 27.0409 62.768 27.1433 63.0709 27.3121C63.3738 27.481 63.5843 27.481 63.4406 27.1228C63.2968 26.7646 62.881 26.5804 62.6397 26.3962C62.1263 25.9971 61.6129 25.6236 61.0995 25.204C60.54 24.7546 60.0579 24.2171 59.6723 23.6127C59.5286 23.3517 59.159 22.1339 59.7802 22.1288C60.1395 22.1288 60.2935 22.8452 60.6016 22.9577C61.4795 23.2545 60.5297 21.3766 60.4886 21.1515C60.4476 20.9264 60.4886 20.3738 60.7967 20.5835C60.9199 20.6705 60.9045 21.3971 61.2022 21.1873C61.2946 21.1208 61.2022 20.865 61.2022 20.7729C61.1252 20.2612 60.9301 19.7904 61.2382 19.3248C61.5601 18.964 61.9029 18.6223 62.2649 18.3015C62.4959 18.0303 62.8604 17.6567 62.881 17.2781C62.9015 16.8995 62.573 16.6283 62.8451 16.2547C63.302 15.6714 64.0566 17.7591 64.1593 18.02C64.5596 19.0832 64.852 20.1837 65.0321 21.305C65.4274 23.5769 65.489 25.9101 65.6789 28.1769C65.797 30.0068 65.797 31.8424 65.6789 33.6723C65.643 34.4756 66.2282 37.5611 65.1039 37.9243C65.1604 37.8015 65.0783 37.6532 65.2733 37.5764Z" fill="white"/>
<path d="M57.0063 72.2292C56.7681 72.9262 56.7273 73.675 56.8882 74.3936C56.0545 74.4378 55.2291 74.2093 54.5378 73.7429C53.8464 73.2764 53.3269 72.5975 53.0584 71.8096C52.8017 71.037 52.7555 70.0495 53.5358 69.5582C54.3162 69.067 54.9887 69.7834 55.3737 70.3821C55.3219 70.0686 55.3772 69.7468 55.5308 69.4685C55.6844 69.1901 55.9274 68.9712 56.2208 68.847C57.1243 68.5298 57.5813 69.3229 57.5659 70.116C57.4939 70.8457 57.305 71.5592 57.0063 72.2292Z" fill="white"/>
<path d="M58.6306 77.2429C58.5176 77.1252 58.2301 76.9103 58.1839 76.7312C58.1069 76.4907 58.3636 76.414 58.5638 76.4702C58.7264 76.5405 58.8826 76.6244 59.031 76.721C59.195 76.7809 59.3704 76.8036 59.5444 76.7875C59.8678 76.7875 60.181 76.7875 60.4993 76.7875C60.8176 76.7875 60.7046 76.7107 60.5711 76.4856C60.2749 75.8199 60.2258 75.0709 60.4325 74.3723C60.6211 73.6953 61.0569 73.1131 61.6544 72.7401C62.0079 72.5088 62.4115 72.3643 62.8319 72.3185C63.2523 72.2727 63.6776 72.327 64.0729 72.4768C64.4682 72.6266 64.8223 72.8677 65.106 73.1803C65.3897 73.4929 65.5949 73.8681 65.705 74.2751C65.785 74.5351 65.8007 74.8106 65.7506 75.0779C65.7005 75.3452 65.5862 75.5965 65.4175 75.8102C65.2584 76.0049 65.0424 76.1454 64.7995 76.2121C64.5566 76.2788 64.2989 76.2683 64.0622 76.1822C63.8256 76.0961 63.6217 75.9385 63.4791 75.7315C63.3364 75.5245 63.2621 75.2784 63.2664 75.0273C63.2606 74.9402 63.2816 74.8534 63.3265 74.7784C63.3714 74.7034 63.4382 74.6439 63.518 74.6077C63.5881 74.5743 63.6679 74.5668 63.7431 74.5864C63.8183 74.6061 63.884 74.6517 63.9287 74.7152C64.0057 74.8431 63.9646 74.8789 63.9287 74.9915C63.9287 74.9915 63.79 75.1859 63.8516 75.1962C64.1032 75.232 64.2367 74.9352 64.1751 74.7356C64.1289 74.6144 64.0466 74.5102 63.9392 74.437C63.8318 74.3638 63.7045 74.3252 63.5744 74.3263C63.4445 74.3191 63.3157 74.3535 63.2067 74.4243C63.0978 74.4952 63.0144 74.5989 62.9686 74.7203C62.866 74.9858 62.8495 75.2766 62.9213 75.552C62.9932 75.8273 63.1497 76.0733 63.3691 76.2553C63.6914 76.5325 64.1015 76.6877 64.5272 76.6937C64.9529 76.6997 65.3671 76.5561 65.6973 76.2882C66.0274 76.0202 66.2523 75.6449 66.3326 75.2282C66.4128 74.8114 66.3433 74.3798 66.1362 74.0091C66.042 73.8451 65.9392 73.6863 65.8282 73.5332C65.8132 73.5109 65.8032 73.4857 65.7988 73.4592C65.7944 73.4327 65.7956 73.4056 65.8025 73.3797C65.8173 73.353 65.8379 73.33 65.8628 73.3123C65.8876 73.2946 65.9162 73.2827 65.9462 73.2774C65.9873 73.2774 66.0489 73.3285 66.0746 73.3746C66.247 73.743 66.4514 74.0957 66.6855 74.4286C66.9525 74.7715 67.4453 74.9915 67.625 74.4286C67.6609 74.3007 67.7071 74.1728 67.7328 74.0449C67.7585 73.917 67.7328 73.7941 67.7328 73.6816C67.737 73.6163 67.7643 73.5547 67.8098 73.5076C67.8378 73.4965 67.8682 73.493 67.898 73.4975C67.9278 73.502 67.9558 73.5143 67.9792 73.5332C68.1281 73.6662 67.9792 74.1012 68.0152 74.2905C68.0999 74.5621 68.2046 74.8272 68.3283 75.0836C68.4427 75.4121 68.4727 75.7639 68.4156 76.1069C68.3188 76.6701 68.1037 77.2065 67.7843 77.6809C67.4649 78.1553 67.0485 78.5571 66.5623 78.8598C65.0478 79.9292 62.7068 79.8115 61.1102 79.0184C60.1977 78.6112 59.3771 78.0247 58.6973 77.294L58.6306 77.2429Z" fill="white"/>
<path d="M17.9847 5.81343C17.9847 5.76226 18.0566 5.70598 18.0412 5.66504C18.0157 5.44608 17.9324 5.23777 17.7999 5.06127C17.665 4.91297 17.4904 4.80623 17.2967 4.75365C17.1029 4.70106 16.8981 4.70483 16.7064 4.76449C16.5114 4.81397 16.3369 4.92292 16.2071 5.07613C16.0773 5.22934 15.9988 5.41914 15.9825 5.619C15.9218 6.02408 16.0073 6.43749 16.2238 6.78562C16.3214 6.95959 16.4446 7.1131 16.5473 7.2973C16.6192 7.41105 16.6844 7.52894 16.7423 7.65036C16.7624 7.69187 16.7728 7.73734 16.7728 7.7834C16.7728 7.82946 16.7624 7.87492 16.7423 7.91643C16.6551 7.82433 16.5729 7.73735 16.4856 7.65548C16.3387 7.52589 16.1653 7.42952 15.9774 7.373C15.7896 7.31647 15.5917 7.30112 15.3973 7.328C14.9136 7.38613 14.4517 7.56184 14.0522 7.83968C13.6775 8.08017 13.3129 8.35136 12.9382 8.58674C12.3741 8.955 11.7069 9.13426 11.0335 9.09841C11.0116 9.09355 10.9888 9.09355 10.9668 9.09841C11.2061 9.20577 11.4579 9.28311 11.7163 9.32867C11.973 9.37472 12.2297 9.4003 12.4813 9.43612L12.0192 9.47194L12.0808 9.50776C12.8934 9.92206 13.7969 10.1278 14.7093 10.1064C15.2726 10.1094 15.8338 10.0371 16.3778 9.89151C16.8005 9.78701 17.1971 9.59719 17.5432 9.33379C17.7876 9.15847 17.9563 8.89738 18.0154 8.60308C18.0745 8.30878 18.0195 8.00311 17.8615 7.74758C17.7256 7.52806 17.5728 7.31935 17.4046 7.12333C17.2301 6.90843 17.0452 6.70887 16.8912 6.48885C16.7207 6.28903 16.6278 6.03483 16.6294 5.7725C16.6234 5.71481 16.6345 5.65663 16.6613 5.60514C16.6881 5.55366 16.7295 5.51114 16.7802 5.48283C16.831 5.45453 16.889 5.44168 16.9471 5.44587C17.0051 5.45006 17.0607 5.47111 17.1068 5.50643C17.2288 5.58277 17.3394 5.67577 17.4354 5.78273C17.4979 5.84189 17.5499 5.91107 17.5894 5.9874C17.6911 6.1877 17.8367 6.36259 18.0155 6.49908C18.0977 6.56049 18.1695 6.52467 18.1695 6.42233C18.1645 6.36537 18.1488 6.30984 18.1233 6.25859C18.0669 6.11021 18.0001 5.96182 17.9385 5.80832L17.9847 5.81343Z" fill="white"/>
<path d="M15.3106 21.6092C15.3414 21.6501 15.3106 21.7115 15.2285 21.8036C14.7001 22.2883 14.006 22.5537 13.2879 22.5456C12.3596 22.5203 11.4511 22.2728 10.6389 21.8241C10.5516 21.7832 10.3822 21.7167 10.3154 21.8241C10.3 21.8741 10.3 21.9276 10.3154 21.9776C10.3756 22.317 10.5582 22.6227 10.8288 22.8372C11.0906 23.1238 10.4797 23.0419 10.3514 23.0112C9.8634 22.9336 9.40469 22.7289 9.0217 22.4177C8.79677 22.2101 8.63084 21.947 8.54069 21.655C8.45054 21.363 8.43937 21.0524 8.50832 20.7547C8.6674 20.2333 8.98935 19.7762 9.42728 19.4499C9.84312 19.102 10.3103 18.8154 10.7159 18.4573C11.1433 18.1163 11.4405 17.6395 11.5578 17.1064C11.6117 16.8405 11.5772 16.5643 11.4596 16.3197C11.3419 16.075 11.1475 15.8752 10.9058 15.7505C11.0757 16.0804 11.1471 16.4519 11.1116 16.821C11.0761 17.1901 10.9352 17.5413 10.7056 17.833C10.0433 18.6363 8.76501 18.8564 8.29783 19.7774C8.23623 19.9104 8.17462 20.069 8.03088 20.1151C7.92833 20.1398 7.82024 20.1251 7.72798 20.0742C7.48151 19.9655 7.27078 19.7898 7.12003 19.5671C6.96928 19.3444 6.88462 19.0839 6.87577 18.8154C7.18304 18.9354 7.52531 18.9303 7.82879 18.801C8.13227 18.6718 8.37264 18.4289 8.49806 18.1247C8.54351 18.0276 8.55994 17.9195 8.54537 17.8133C8.53081 17.7071 8.48586 17.6074 8.41591 17.526C8.34635 17.4729 8.26561 17.4361 8.17976 17.4185C8.01156 17.3895 7.83921 17.3944 7.67295 17.433C7.5067 17.4717 7.34995 17.5433 7.21201 17.6435C7.07407 17.7438 6.95777 17.8706 6.87002 18.0166C6.78227 18.1625 6.72487 18.3246 6.70122 18.4931C6.70122 18.5698 5.89008 18.2424 5.82847 18.2065C5.54726 18.0394 5.30838 17.8101 5.13027 17.5362C4.92492 17.2139 5.08407 17.0246 5.30482 16.7482C5.54821 16.4984 5.77138 16.2298 5.97222 15.9449C6.1211 15.6942 6.19297 15.4332 6.33158 15.1569C6.67042 14.5122 7.35835 14.1336 7.76392 13.5093C8.01548 13.1153 8.13355 12.6497 8.35944 12.2404C8.60298 11.8133 8.95773 11.4597 9.38621 11.217C9.67188 11.0293 9.99068 10.8974 10.3257 10.8281C10.454 10.8281 10.6697 10.8281 10.7569 10.9253C10.8442 11.0226 10.6697 11.3449 10.5464 11.437C10.4232 11.5291 10.1768 11.8464 10.3411 12.005C10.5772 11.8177 10.8259 11.6467 11.0855 11.4933C11.6609 11.1995 12.3032 11.0602 12.9491 11.0891C13.1288 11.0891 13.6935 11.0891 13.7243 11.3398C13.7705 11.7236 12.8464 11.6161 12.8772 12.1073C13.5681 11.939 14.2938 11.9806 14.9608 12.2268C15.6278 12.473 16.2056 12.9125 16.6198 13.4889C16.6865 13.5912 16.7532 13.7805 16.5889 13.8266C16.4247 13.8726 16.1474 13.6731 15.9934 13.6475C15.8758 13.6171 15.7519 13.6217 15.6369 13.6608C15.5219 13.6999 15.421 13.7718 15.3466 13.8675C16.109 14.2433 16.8329 14.6923 17.5079 15.2081C17.5849 15.2695 17.667 15.3718 17.6157 15.4537C17.5873 15.4861 17.5497 15.5093 17.5079 15.5202L16.9945 15.684C17.4667 15.957 17.8691 16.3353 18.1702 16.7892C18.2523 16.9171 18.3242 17.0962 18.2215 17.2088C18.16 17.2659 18.0797 17.2987 17.9956 17.3009C17.4428 17.3544 16.8982 17.4729 16.3733 17.6539C16.2552 17.7051 16.0396 17.8023 16.0602 17.966C16.0739 18.023 16.1043 18.0746 16.1474 18.1144C16.3011 18.2621 16.4937 18.3631 16.7028 18.4057C16.9119 18.4483 17.1288 18.4307 17.3282 18.3549C17.5849 18.2526 17.2974 18.9894 17.2615 19.0815C17.0223 19.6058 16.6442 20.0551 16.168 20.3812C15.8266 20.6168 15.4405 20.7805 15.0334 20.8621C14.7861 20.9056 14.5347 20.9211 14.2839 20.9082C14.1658 20.9082 13.637 20.8212 13.6627 21.031C13.6706 21.0741 13.6922 21.1136 13.7243 21.1436C13.9254 21.3653 14.2013 21.5055 14.4995 21.5376C14.6689 21.5631 15.1874 21.4506 15.3106 21.6092ZM7.5175 15.3872C7.53364 15.4009 7.55246 15.4112 7.57278 15.4174C7.5931 15.4236 7.61448 15.4255 7.63557 15.423C7.83579 15.423 7.82039 15.2081 7.96927 15.1518C8.11815 15.0955 8.19516 15.1518 8.26703 15.0955C8.42618 14.9727 8.23623 14.9113 8.10789 14.9011C8.00329 14.8972 7.89916 14.9168 7.80318 14.9584C7.70721 15 7.62186 15.0626 7.55343 15.1416C7.48669 15.2183 7.46102 15.3411 7.5175 15.3872Z" fill="white"/>
<path d="M17.1429 11.1124C17.0585 11.3696 17.0356 11.643 17.0761 11.9106C17.2156 12.5994 17.5788 13.2231 18.1096 13.6856C18.6404 14.148 19.3092 14.4233 20.0127 14.469C20.7725 14.5407 21.7017 14.2132 21.943 13.4457C21.7404 13.4298 21.5365 13.4523 21.3423 13.5122C20.9399 13.5369 20.538 13.4557 20.177 13.2768C19.6926 13.0481 19.2582 12.7264 18.8986 12.3302C18.6574 12.0846 18.4315 11.8185 18.185 11.5883C17.9386 11.358 17.8 11.0766 17.5895 10.9691C17.5521 10.9438 17.5094 10.9274 17.4646 10.921C17.4198 10.9146 17.3742 10.9184 17.3312 10.9322C17.2881 10.946 17.2488 10.9694 17.2162 11.0007C17.1835 11.0319 17.1585 11.0701 17.1429 11.1124Z" fill="white"/>
<path d="M18.1675 10.9949C18.1675 11.1228 18.3626 11.307 18.4601 11.394C18.7817 11.7105 19.1248 12.0045 19.4869 12.2741C19.8836 12.5778 20.3276 12.8146 20.8012 12.9751C20.986 13.0262 21.4326 13.1388 21.5302 12.9239C21.6277 12.709 21.4531 12.6118 21.3659 12.5197C20.7926 12.0123 20.1244 11.6228 19.3996 11.3735C19.1481 11.2661 18.5423 10.7748 18.2548 10.8618C18.24 10.8642 18.2258 10.8696 18.2132 10.8778C18.2006 10.8859 18.1899 10.8966 18.1816 10.9091C18.1734 10.9216 18.1679 10.9357 18.1655 10.9505C18.1631 10.9653 18.1637 10.9804 18.1675 10.9949Z" fill="white"/>
<path d="M20.3771 9.81366C21.0201 10.2287 21.7873 10.4095 22.5487 10.3253C22.9384 10.2731 23.2997 10.0931 23.5754 9.81366C23.62 9.76886 23.6502 9.71182 23.6621 9.64984C23.674 9.58786 23.667 9.52376 23.6422 9.46572C23.6011 9.3378 23.4984 9.31733 23.3855 9.31222C22.7597 9.26177 22.1461 9.11147 21.5681 8.86706C21.0816 8.66603 20.6767 8.30834 20.418 7.8511C20.1593 7.39387 20.0617 6.86344 20.1409 6.34448C20.158 6.25412 20.191 6.1675 20.2385 6.08864C20.336 5.91467 20.4387 5.75093 20.5362 5.57696C20.5632 5.5296 20.5806 5.47746 20.5876 5.42346C20.5961 5.35488 20.5796 5.28552 20.5409 5.22816C20.5022 5.1708 20.444 5.12931 20.3771 5.11133C20.3151 5.11107 20.2544 5.12884 20.2024 5.16247C20.1504 5.19611 20.1094 5.24413 20.0844 5.30065C20.0074 5.47462 19.9202 5.6486 19.8534 5.81233C19.7655 6.01245 19.6298 6.18811 19.4581 6.32401C19.2311 6.50099 19.0633 6.74255 18.9772 7.01669C18.891 7.29082 18.8904 7.58459 18.9755 7.85905C19.1107 8.40708 19.3991 8.90565 19.8072 9.29687C20.0228 9.53224 20.259 9.72156 20.3771 9.81366Z" fill="white"/>
<path d="M20.2987 6.45703C20.2663 6.86031 20.3369 7.26519 20.504 7.63389C20.7098 8.08826 21.0749 8.45214 21.5308 8.65725L21.6232 8.69818C21.7862 8.78861 21.9665 8.84358 22.1523 8.85946C22.3382 8.87533 22.5253 8.85176 22.7013 8.79029C23.1001 8.71021 23.457 8.4906 23.7075 8.17116C23.7884 8.06718 23.8493 7.94922 23.8872 7.82321C23.8833 7.7619 23.8579 7.70392 23.8153 7.65948C23.758 7.61684 23.686 7.59845 23.6151 7.60831C23.3636 7.64924 23.1017 7.72599 22.8605 7.76181C22.4366 7.84313 21.9999 7.82915 21.5821 7.72088C21.3087 7.63767 21.0581 7.49286 20.8498 7.29766C20.6415 7.10245 20.481 6.8621 20.3808 6.59518C20.3659 6.55337 20.3488 6.51238 20.3295 6.47238L20.2987 6.45703Z" fill="white"/>
<path d="M40.4974 54.8112C40.3846 54.6699 40.3087 54.5028 40.2767 54.3251C40.2459 54.0795 40.2767 53.8134 40.2767 53.5934C40.2781 53.4189 40.2214 53.2489 40.1155 53.11C40.0096 52.9711 39.8604 52.8712 39.6914 52.8258C39.866 52.7747 40.0097 52.8719 40.1689 52.9384C40.1761 52.8786 40.1989 52.8216 40.2349 52.7732C40.2709 52.7248 40.3189 52.6865 40.3742 52.6621C40.1432 53.0356 40.5077 53.3836 40.6566 53.6855C40.7588 53.8788 40.8051 54.0968 40.79 54.3148C40.7514 54.5232 40.6786 54.7237 40.5744 54.9084C40.5469 54.8775 40.5212 54.845 40.4974 54.8112Z" fill="white"/>
<path d="M40.8268 50.1319C40.8268 50.1677 40.7806 50.2035 40.7498 50.2393C40.7364 50.2257 40.7204 50.2149 40.7028 50.2075C40.6852 50.2001 40.6662 50.1963 40.6471 50.1963C40.628 50.1963 40.6091 50.2001 40.5914 50.2075C40.5738 50.2149 40.5578 50.2257 40.5444 50.2393C40.6061 50.2393 40.6471 50.2393 40.6625 50.3109C40.6985 50.4491 40.5239 50.5054 40.4469 50.577C40.3286 50.6871 40.2357 50.8215 40.1748 50.971C40.1029 51.1706 40.2262 51.3445 40.4469 51.2729C40.6677 51.2013 40.7703 50.8738 40.7601 50.6384C40.7498 50.403 40.8319 50.0858 41.0373 50.0142C40.9945 50.0113 40.9519 50.0209 40.9145 50.0418C40.8771 50.0627 40.8466 50.094 40.8268 50.1319Z" fill="white"/>
<path d="M40.3552 49.5505C40.2655 49.6371 40.1815 49.7294 40.1036 49.8268C39.6416 50.3896 39.8932 51.0906 39.8983 51.7507C39.9034 52.4107 39.3336 52.2624 39.1847 51.6688C39.1056 51.3307 39.1171 50.9778 39.218 50.6455C39.3189 50.3132 39.5057 50.0132 39.7597 49.7756C40.0126 49.5949 40.2435 49.3854 40.4476 49.1514C40.54 49.0234 40.807 48.5629 40.6889 48.4043C40.7649 48.488 40.8218 48.5872 40.8555 48.695C40.8891 48.8028 40.8989 48.9166 40.884 49.0285C41.0051 49.0181 41.1257 49.0541 41.2211 49.1292C41.3165 49.2044 41.3795 49.3129 41.3974 49.4328C41.0996 48.9876 40.6684 49.2486 40.3552 49.5505Z" fill="white"/>
<path d="M39.2785 60.8775C39.3135 60.8612 39.3463 60.8406 39.376 60.8161C39.4479 60.7393 39.5352 60.5346 39.6532 60.5346C39.7713 60.5346 39.8586 60.6319 39.9459 60.6882C40.0331 60.7444 40.2693 60.7393 40.1717 60.8416C40.0742 60.944 40.0126 60.9133 39.9613 60.9491L39.6635 61.1384C39.6155 61.167 39.5658 61.1927 39.5146 61.2152C39.4239 61.2651 39.3201 61.2865 39.2169 61.2766C39.1655 61.2766 39.1553 61.2766 39.1399 61.3329C39.0079 61.7265 38.7545 62.0685 38.416 62.3102C38.2791 62.4005 38.1348 62.4792 37.9847 62.5455C38.072 62.6223 38.1644 62.6069 38.2722 62.6274C38.4103 62.6632 38.5552 62.6632 38.6932 62.6274C38.7805 62.6018 39.0166 62.5046 39.068 62.6274C39.1193 62.7502 39.0115 62.8167 38.9653 62.8628C38.8449 62.9659 38.7 63.0364 38.5443 63.0675C38.2517 63.1596 37.764 63.2568 37.5176 62.9702C37.4449 62.8717 37.3957 62.758 37.3738 62.6376C37.3738 62.6227 37.3679 62.6084 37.3573 62.5978C37.3467 62.5873 37.3323 62.5814 37.3173 62.5814C37.1671 62.5647 37.0211 62.5214 36.8861 62.4534C36.8693 62.4486 36.8515 62.4486 36.8348 62.4534C36.7834 62.4556 36.733 62.4686 36.687 62.4915C36.641 62.5144 36.6004 62.5468 36.5678 62.5865C36.4959 62.6735 36.46 62.786 36.3779 62.873C36.2949 62.9621 36.1849 63.0214 36.0647 63.0419C35.9672 63.0419 35.654 63.1391 35.6232 62.9958C35.6215 62.9287 35.6355 62.8621 35.6643 62.8014C35.6832 62.708 35.7125 62.6171 35.7515 62.5302C35.8348 62.3965 35.9646 62.2982 36.116 62.2539C36.1894 62.2432 36.2585 62.2132 36.3163 62.1669C36.3667 62.1093 36.4035 62.0411 36.4241 61.9673C36.4319 61.9459 36.4319 61.9223 36.4241 61.9008C36.3717 61.7568 36.3524 61.603 36.3676 61.4505C36.3684 61.4373 36.3648 61.4241 36.3573 61.413C36.3499 61.4019 36.3391 61.3936 36.3265 61.3891C36.2392 61.3329 36.1468 61.2766 36.0698 61.2152C36.0022 61.1614 35.948 61.0928 35.9115 61.0147C35.875 60.9366 35.8571 60.8511 35.8593 60.7649C35.8553 60.5757 35.883 60.3872 35.9415 60.2072C35.9415 60.11 35.998 59.9462 36.0904 59.8848C36.104 59.8727 36.1202 59.8638 36.1378 59.859C36.1553 59.8542 36.1738 59.8535 36.1917 59.8569C36.2096 59.8604 36.2265 59.868 36.241 59.879C36.2554 59.8901 36.2672 59.9043 36.2752 59.9206C36.3419 60.0895 36.2084 60.3044 36.2752 60.4886C36.3072 60.5808 36.3619 60.6634 36.4343 60.7291C36.4794 60.7752 36.5159 60.8289 36.5421 60.8877C36.6056 60.8126 36.6623 60.7322 36.7116 60.6472C36.779 60.5647 36.8546 60.4892 36.9374 60.4221C37.1019 60.2858 37.2874 60.1769 37.4868 60.0997C37.6547 60.04 37.8262 59.9904 38.0001 59.9513C38.0152 59.949 38.0289 59.9417 38.0392 59.9305C38.0495 59.9194 38.0556 59.905 38.0566 59.8899C38.0608 59.782 38.1026 59.6789 38.1747 59.5983C38.2466 59.5113 38.6316 58.9638 38.7702 59.1224C38.8062 59.1633 38.7702 59.2606 38.801 59.3117C38.8318 59.3629 38.8678 59.5215 38.801 59.6085C38.7343 59.6955 38.6008 59.762 38.5187 59.8132C38.4365 59.8643 38.4519 59.8643 38.4519 59.9155H38.5135C38.6375 59.9342 38.7629 59.9428 38.8883 59.9411C38.9653 59.9411 39.1039 59.9155 39.1553 59.9974C39.2066 60.0792 38.9807 60.0997 39.0115 60.1765C39.0423 60.2532 39.2117 60.0844 39.2733 60.1458C39.3349 60.2072 39.3093 60.3095 39.2733 60.3811C39.2535 60.4841 39.2415 60.5885 39.2374 60.6933C39.2424 60.7529 39.2424 60.8128 39.2374 60.8724L39.2785 60.8775Z" fill="white"/>
<path d="M50.3254 62.278C50.4154 62.2834 50.5054 62.2665 50.5872 62.2286C50.6691 62.1907 50.7402 62.1332 50.7941 62.0611C50.8481 61.989 50.8833 61.9047 50.8964 61.8158C50.9096 61.7268 50.9003 61.636 50.8695 61.5515C50.7533 61.2891 50.6141 61.0374 50.4537 60.7993C50.387 60.6867 50.274 60.6663 50.2021 60.7993C50.0344 61.0437 49.8916 61.3043 49.776 61.577C49.749 61.6606 49.7429 61.7494 49.7583 61.8358C49.7737 61.9222 49.81 62.0035 49.8642 62.0727C49.9184 62.1419 49.9888 62.1967 50.0692 62.2325C50.1495 62.2683 50.2375 62.284 50.3254 62.278Z" fill="white"/>
<path d="M52.7766 55.2182C52.7029 55.1218 52.6017 55.0498 52.4864 55.0115C52.371 54.9731 52.2467 54.9703 52.1297 55.0033C52.0141 55.0384 51.9127 55.1095 51.8407 55.2062C51.7686 55.3029 51.7295 55.4201 51.7293 55.5406C51.6779 56.0062 51.6009 56.0523 51.1543 55.9141C51.1058 55.8944 51.0539 55.8846 51.0016 55.8853C50.9493 55.886 50.8976 55.8972 50.8497 55.9182C50.8018 55.9392 50.7586 55.9696 50.7228 56.0076C50.6869 56.0456 50.6591 56.0903 50.6409 56.1392C50.6002 56.2325 50.5972 56.3378 50.6326 56.4332C50.668 56.5285 50.7391 56.6065 50.8309 56.6509C50.885 56.6858 50.9416 56.7165 51.0003 56.743C50.958 56.799 50.9186 56.8571 50.8822 56.917C50.646 57.4287 50.4099 57.9659 50.1686 58.493C50.0408 58.7608 49.9825 59.0564 49.9992 59.3526C50.0163 59.5227 50.0163 59.6941 49.9992 59.8643C49.9765 59.946 49.984 60.0332 50.0205 60.1099C50.057 60.1865 50.12 60.2475 50.1979 60.2817C50.2758 60.3158 50.3635 60.3209 50.4448 60.2959C50.5262 60.271 50.5958 60.2176 50.6409 60.1457C50.7098 60.0455 50.7948 59.9574 50.8925 59.8847C51.1665 59.7032 51.3808 59.4451 51.5085 59.1428C51.7241 58.6311 51.95 58.1655 52.1656 57.6794C52.2059 57.5744 52.2385 57.4667 52.2632 57.357L52.4531 57.4338C52.5505 57.4724 52.6593 57.471 52.7555 57.4297C52.8518 57.3884 52.9277 57.3108 52.9665 57.2138C53.0051 57.1209 53.0075 57.0169 52.9734 56.9223C52.9392 56.8277 52.8708 56.7492 52.7817 56.7021L52.6739 56.6509C52.6253 56.6315 52.5825 56.5999 52.5498 56.5592C52.5171 56.5184 52.4955 56.4698 52.4872 56.4183C52.479 56.3667 52.4842 56.3139 52.5026 56.265C52.5209 56.2161 52.5516 56.1728 52.5918 56.1392C52.6588 56.0761 52.7206 56.0077 52.7766 55.9346C52.8706 55.8389 52.9233 55.7103 52.9233 55.5764C52.9233 55.4425 52.8706 55.3139 52.7766 55.2182ZM51.7087 57.925C51.5393 58.2985 51.3853 58.6721 51.1954 59.0354C51.1067 59.2256 50.985 59.3988 50.836 59.547C50.6871 59.6852 50.4972 59.6187 50.4047 59.3679C50.4023 59.2415 50.4196 59.1155 50.4561 58.9944C50.6255 58.5697 50.8155 58.1501 51.0054 57.7357C51.0393 57.6968 51.0873 57.6728 51.1389 57.6692C51.2414 57.6615 51.3444 57.6615 51.4469 57.6692C51.5367 57.6627 51.6266 57.6785 51.7087 57.7152C51.8114 57.7408 51.7498 57.8431 51.7087 57.925Z" fill="white"/>
<path d="M18.2098 46.736C18.0789 46.7156 17.9455 46.7156 17.8145 46.736C17.2908 46.8785 16.821 47.1723 16.4643 47.5803C16.0896 47.9487 15.6378 48.3632 15.6943 48.9414C15.7114 49.1796 15.7943 49.4084 15.9339 49.6026C16.0734 49.7967 16.2641 49.9486 16.4849 50.0415C16.765 50.1094 17.058 50.1037 17.3352 50.0247C17.6124 49.9458 17.8643 49.7964 18.0661 49.5912C18.3269 49.3487 18.6087 49.1296 18.908 48.9362C19.0652 48.8476 19.241 48.7968 19.4214 48.7879C19.5344 48.7879 19.8527 48.88 19.9348 48.7879C20.0169 48.6958 19.8373 48.6036 19.7705 48.5678C19.3971 48.2816 19.1429 47.868 19.0569 47.4063C18.9923 47.2271 18.8788 47.0694 18.7291 46.951C18.5795 46.8326 18.3996 46.7581 18.2098 46.736Z" fill="white"/>
<path d="M19.6532 47.0016H19.6122C19.514 46.8712 19.4456 46.721 19.4119 46.5615C19.3576 46.396 19.3265 46.2238 19.3195 46.0499C19.3063 45.8817 19.335 45.7129 19.4031 45.5584C19.4712 45.404 19.5765 45.2687 19.7097 45.1646C20.1358 44.8474 20.9264 44.7502 21.2499 45.2772V45.3335C21.4655 45.7582 21.1061 45.9936 20.7365 46.1266C20.3668 46.2596 19.6532 46.2852 19.6686 46.6997C19.6686 46.7764 19.7251 46.8583 19.72 46.9299C19.7148 47.0016 19.7097 47.0169 19.6532 47.0016Z" fill="white"/>
<path d="M19.0273 77.1001C18.5169 77.064 18.0216 76.9117 17.5795 76.655C17.4255 76.5782 17.2766 76.5014 17.1329 76.4452C16.5453 76.1973 15.9014 76.1124 15.2693 76.1996C15.173 76.2022 15.0793 76.1683 15.0071 76.1047C14.935 76.0411 14.8898 75.9525 14.8806 75.857C14.8715 75.7614 14.8991 75.6659 14.9579 75.5899C15.0168 75.5138 15.1024 75.4629 15.1974 75.4474C15.9522 75.3503 16.7192 75.4545 17.4204 75.7493C17.5898 75.8209 17.7541 75.9028 17.9338 75.9795C18.3251 76.237 18.7905 76.3592 19.2583 76.3275C19.3684 76.3031 19.4765 76.2706 19.5817 76.2303C19.803 76.1481 20.0344 76.0965 20.2697 76.0768C20.3621 76.0875 20.4475 76.1318 20.5094 76.2011C20.5713 76.2704 20.6055 76.36 20.6055 76.4528C20.6055 76.5457 20.5713 76.6352 20.5094 76.7046C20.4475 76.7739 20.3621 76.8181 20.2697 76.8289C20.1062 76.848 19.9458 76.8875 19.7922 76.9466C19.6639 76.9875 19.5304 77.0336 19.3918 77.0643C19.2717 77.0881 19.1497 77.1001 19.0273 77.1001Z" fill="white"/>
<path d="M9.81801 74.8639C9.462 74.8683 9.1104 74.7851 8.79431 74.6218C8.47822 74.4584 8.20739 74.22 8.00577 73.9275C7.88905 73.7855 7.7639 73.6505 7.63101 73.5233C7.56567 73.454 7.5293 73.3625 7.5293 73.2675C7.5293 73.1724 7.56567 73.0809 7.63101 73.0116C7.70107 72.9476 7.79266 72.9121 7.8877 72.9121C7.98274 72.9121 8.07432 72.9476 8.14439 73.0116C8.29826 73.1588 8.44393 73.3142 8.58076 73.4772C8.79864 73.806 9.13502 74.0387 9.52025 74.1271C9.80458 74.1677 10.0933 74.1677 10.3776 74.1271C10.5316 74.1271 10.6805 74.0913 10.8294 74.0861C10.8786 74.0835 10.9279 74.0905 10.9744 74.1067C11.0209 74.123 11.0637 74.1483 11.1004 74.1811C11.1371 74.2139 11.167 74.2535 11.1883 74.2978C11.2096 74.3421 11.222 74.3902 11.2247 74.4392C11.2274 74.4883 11.2203 74.5374 11.204 74.5837C11.1877 74.63 11.1623 74.6727 11.1294 74.7093C11.0965 74.7459 11.0567 74.7757 11.0123 74.7969C10.9679 74.8182 10.9197 74.8305 10.8704 74.8332L10.4649 74.8741C10.2492 74.8383 10.0388 74.8639 9.81801 74.8639Z" fill="white"/>
<path d="M23.8851 79.1319C23.7254 79.1323 23.5659 79.122 23.4076 79.1012C23.0449 79.028 22.6975 78.893 22.3809 78.7021C22.1556 78.5631 21.9068 78.466 21.6467 78.4156C21.2891 78.42 20.9375 78.5076 20.62 78.6714C20.3377 78.7959 20.0436 78.8919 19.7421 78.958C18.9236 79.0663 18.0916 78.9141 17.3651 78.523L16.8877 78.3286C16.2071 78.0793 15.4755 78.0002 14.7571 78.0984C14.3865 78.1532 14.0085 78.1287 13.6481 78.0263C13.2878 77.924 12.9536 77.7462 12.6677 77.5048L12.411 77.3411C11.5793 76.8294 10.9427 76.6042 10.5064 76.7475C10.4402 76.7856 10.3664 76.8084 10.2903 76.8144C10.2142 76.8205 10.1377 76.8095 10.0664 76.7823C9.99505 76.7551 9.9307 76.7124 9.87803 76.6573C9.82536 76.6022 9.78569 76.5361 9.76189 76.4638C9.7381 76.3915 9.73079 76.3148 9.74049 76.2393C9.7502 76.1639 9.77667 76.0915 9.81799 76.0275C9.85931 75.9635 9.91443 75.9095 9.97933 75.8694C10.0442 75.8293 10.1173 75.8042 10.1932 75.7958C10.9376 75.5502 11.8411 75.7958 12.9552 76.4968L13.2221 76.6708C13.4132 76.8467 13.6419 76.9768 13.891 77.0513C14.1401 77.1258 14.403 77.1426 14.6596 77.1006C15.5263 76.9873 16.4076 77.0875 17.2265 77.3922L17.7399 77.5969C18.2878 77.9033 18.9165 78.0354 19.5419 77.9756C19.7753 77.9262 20.0038 77.856 20.2247 77.7658C20.6866 77.537 21.1978 77.4246 21.7135 77.4383C22.1032 77.4952 22.4771 77.631 22.8121 77.8374C23.0359 77.9731 23.2804 78.0717 23.536 78.1291C24.1747 78.1928 24.8177 78.0607 25.379 77.7504C25.4939 77.7191 25.6162 77.7285 25.7249 77.7772C25.8336 77.8259 25.922 77.9107 25.9748 78.0172C26.0276 78.1237 26.0416 78.2451 26.0144 78.3608C25.9872 78.4764 25.9204 78.579 25.8256 78.651C25.223 78.9538 24.5598 79.1181 23.8851 79.1319Z" fill="white"/>
<path d="M15.7574 72.2511C15.5499 72.3468 15.384 72.514 15.2902 72.7218C15.2842 72.7314 15.2759 72.7392 15.266 72.7446C15.2561 72.7501 15.245 72.7529 15.2337 72.7529C15.2225 72.7529 15.2114 72.7501 15.2015 72.7446C15.1916 72.7392 15.1833 72.7314 15.1773 72.7218C15.0814 72.5136 14.9139 72.3466 14.705 72.2511C14.694 72.2463 14.6846 72.2385 14.678 72.2285C14.6715 72.2185 14.668 72.2068 14.668 72.1948C14.668 72.1829 14.6715 72.1712 14.678 72.1612C14.6846 72.1512 14.694 72.1433 14.705 72.1385C14.9139 72.043 15.0814 71.876 15.1773 71.6678C15.1833 71.6583 15.1916 71.6504 15.2015 71.645C15.2114 71.6396 15.2225 71.6367 15.2337 71.6367C15.245 71.6367 15.2561 71.6396 15.266 71.645C15.2759 71.6504 15.2842 71.6583 15.2902 71.6678C15.384 71.8756 15.5499 72.0428 15.7574 72.1385C15.7684 72.1433 15.7777 72.1512 15.7843 72.1612C15.7909 72.1712 15.7944 72.1829 15.7944 72.1948C15.7944 72.2068 15.7909 72.2185 15.7843 72.2285C15.7777 72.2385 15.7684 72.2463 15.7574 72.2511Z" fill="white"/>
<path d="M15.1459 73.7685C14.7971 73.6319 14.4803 73.4251 14.2153 73.161C13.9503 72.8969 13.7428 72.5811 13.6057 72.2335C13.5973 72.2162 13.5842 72.2016 13.5679 72.1914C13.5515 72.1812 13.5326 72.1758 13.5133 72.1758C13.494 72.1758 13.4751 72.1812 13.4588 72.1914C13.4424 72.2016 13.4293 72.2162 13.4209 72.2335C13.2833 72.5808 13.0756 72.8963 12.8107 73.1603C12.5458 73.4244 12.2292 73.6314 11.8808 73.7685C11.8614 73.7751 11.8446 73.7874 11.8327 73.804C11.8209 73.8205 11.8145 73.8403 11.8145 73.8606C11.8145 73.881 11.8209 73.9008 11.8327 73.9173C11.8446 73.9339 11.8614 73.9462 11.8808 73.9528C12.2267 74.0873 12.5415 74.2905 12.8063 74.5499C13.071 74.8094 13.2801 75.1198 13.4209 75.4622C13.4274 75.4815 13.4399 75.4982 13.4564 75.5101C13.473 75.5219 13.4929 75.5283 13.5133 75.5283C13.5337 75.5283 13.5536 75.5219 13.5702 75.5101C13.5868 75.4982 13.5992 75.4815 13.6057 75.4622C13.7462 75.1196 13.9553 74.8091 14.22 74.5496C14.4848 74.2901 14.7998 74.087 15.1459 73.9528C15.1652 73.9462 15.182 73.9339 15.1939 73.9173C15.2058 73.9008 15.2122 73.881 15.2122 73.8606C15.2122 73.8403 15.2058 73.8205 15.1939 73.804C15.182 73.7874 15.1652 73.7751 15.1459 73.7685ZM14.0729 73.9169C13.8595 74.0145 13.6882 74.1852 13.5903 74.3979C13.5855 74.4089 13.5776 74.4182 13.5676 74.4247C13.5576 74.4313 13.5458 74.4348 13.5339 74.4348C13.5219 74.4348 13.5101 74.4313 13.5001 74.4247C13.4901 74.4182 13.4822 74.4089 13.4774 74.3979C13.3811 74.1841 13.2093 74.0129 12.9948 73.9169C12.9838 73.9122 12.9745 73.9043 12.9679 73.8943C12.9613 73.8843 12.9578 73.8726 12.9578 73.8606C12.9578 73.8487 12.9613 73.837 12.9679 73.827C12.9745 73.817 12.9838 73.8091 12.9948 73.8044C13.2083 73.7068 13.3795 73.5361 13.4774 73.3234C13.4822 73.3124 13.4901 73.3031 13.5001 73.2966C13.5101 73.29 13.5219 73.2865 13.5339 73.2865C13.5458 73.2865 13.5576 73.29 13.5676 73.2966C13.5776 73.3031 13.5855 73.3124 13.5903 73.3234C13.6915 73.5339 13.8617 73.7036 14.0729 73.8044C14.0836 73.8101 14.0923 73.8188 14.098 73.8294C14.1038 73.84 14.1062 73.852 14.1051 73.864C14.104 73.876 14.0994 73.8875 14.0919 73.8969C14.0843 73.9063 14.0742 73.9132 14.0626 73.9169H14.0729Z" fill="white"/>
</mask>
<g mask="url(#mask0_10547_14292)">
<path d="M-2.2207 -5.4141H79.9207V85.1892H-2.2207V-5.4141Z" fill="white"/>
</g>
<path fill-rule="evenodd" clip-rule="evenodd" d="M52.0165 107.864C52.8106 107.864 52.9922 107.617 52.9922 106.734L53.0112 104.991C53.0112 104.107 52.8296 103.86 52.0354 103.86H50.6802C50.008 103.86 49.7017 103.801 49.4876 103.557C49.2735 103.313 49.2436 103.007 49.2436 102.486V96.7154H51.7779C52.3607 96.7154 52.5721 96.5907 52.5721 95.829V93.7825C52.5721 93.0182 52.3607 92.8962 51.7779 92.8962H49.2436V89.9742C49.2436 89.3942 49.0187 89.0879 48.2055 89.0879H45.3948C44.5708 89.0879 44.3567 89.3942 44.3567 89.9742V92.9558L42.7304 93.3543C42.088 93.5061 41.9362 93.628 41.9362 94.3924V95.951C41.9362 96.531 42.1205 96.7154 42.7005 96.7154H44.3539V103.036C44.3539 104.991 44.5979 106.031 45.2403 106.734C46.0046 107.558 47.1376 107.864 49.577 107.864H52.0165ZM11.9112 106.607C11.3014 107.523 9.83499 108.133 7.91055 108.133H7.45248C4.39777 108.133 2.50586 106.507 2.50586 103.431V103.1C2.50586 99.6791 4.42759 98.5787 8.52312 98.5787H8.73454C9.44915 98.5781 10.1632 98.6188 10.8731 98.7006V98.0582C10.8731 97.4484 10.781 97.0201 10.3554 96.7165C9.98678 96.4699 9.54226 96.3804 8.52312 96.3804C7.32493 96.411 6.13471 96.5848 4.97781 96.8981C4.21617 97.0824 4.03186 96.8385 3.9397 96.3181L3.69576 94.6917C3.66474 94.4887 3.64394 94.2843 3.63342 94.0792C3.63342 93.6834 3.7581 93.4693 4.36796 93.285C6.07138 92.8301 7.82797 92.6049 9.59105 92.6155C12.0305 92.6155 13.6215 93.1034 14.6 94.1117C15.3942 94.9248 15.7601 96.1256 15.7601 97.9281V107.003C15.7601 107.613 15.5162 107.86 14.722 107.86H13.2854C12.5834 107.86 12.3395 107.705 12.1552 107.155L11.9736 106.613L11.9112 106.607ZM10.8785 101.842C10.3925 101.777 9.90249 101.747 9.41216 101.75H9.07606C7.67203 101.75 7.09199 101.994 7.09199 103.124V103.246C7.09199 104.376 7.73437 104.65 8.8023 104.65H9.01643C9.53383 104.677 10.0427 104.511 10.4448 104.184C10.7809 103.88 10.8731 103.512 10.8731 102.688L10.8785 101.842ZM31.2451 92.6151C33.0476 92.6151 34.3296 93.0407 35.1238 93.8674C35.918 94.6941 36.2541 95.8515 36.2541 97.898V106.97C36.2541 107.55 36.0399 107.856 35.216 107.856H32.4052C31.592 107.856 31.3671 107.55 31.3671 106.97V98.3262C31.3671 97.6242 31.2749 97.1959 31.031 96.9195C30.787 96.643 30.2992 96.5237 29.6757 96.5237H29.4941C28.8816 96.5237 28.3937 96.6457 28.1389 96.9195C27.8841 97.1932 27.8028 97.5917 27.8028 98.3262V106.97C27.8028 107.55 27.5887 107.856 26.7647 107.856H23.9756C23.1625 107.856 22.9375 107.55 22.9375 106.97V93.7454C22.9375 93.1328 23.1814 92.8889 23.9756 92.8889H25.4122C26.1142 92.8889 26.3581 93.0109 26.5424 93.5909L26.724 94.171H26.8162C27.7947 93.1328 29.1987 92.6151 31.0012 92.6151H31.2451ZM59.7114 96.7753C59.1314 96.7753 58.9173 96.6534 58.9173 95.889V93.7829C58.9173 93.0185 59.1314 92.8965 59.7114 92.8965H70.0357C70.6157 92.8965 70.922 93.0809 70.922 93.7829V94.3629C70.975 95.1442 70.7354 95.9171 70.2498 96.5314L64.9969 103.983H70.22C70.8 103.983 71.0141 104.107 71.0141 104.869V106.978C71.0141 107.739 70.8 107.864 70.22 107.864H59.7114C59.0691 107.864 58.7655 107.65 58.7655 106.978V106.276C58.7135 105.495 58.953 104.722 59.4377 104.107L64.5686 96.7889L59.7114 96.7753ZM4.0001 117.744C3.85959 117.54 3.77971 117.301 3.76971 117.053L2.91862 117.064C2.92864 117.563 3.12157 118.04 3.46072 118.406C3.79681 118.767 4.36782 118.948 5.17374 118.948C5.92725 118.948 6.48471 118.774 6.8461 118.428C7.01933 118.273 7.15734 118.082 7.25085 117.87C7.34436 117.657 7.3912 117.427 7.3882 117.194C7.40387 116.983 7.36377 116.772 7.27194 116.582C7.18011 116.392 7.03978 116.229 6.86507 116.11C6.44797 115.894 6.00139 115.741 5.53965 115.655L4.93522 115.511C4.72521 115.467 4.52258 115.393 4.33349 115.291C4.22915 115.24 4.14108 115.16 4.07893 115.062C4.01677 114.963 3.98293 114.85 3.98113 114.733C3.97977 114.632 4.00389 114.532 4.05125 114.442C4.09861 114.353 4.1677 114.277 4.25217 114.221C4.48923 114.075 4.76593 114.007 5.04363 114.026C5.55049 114.026 5.91641 114.145 6.12782 114.378C6.25229 114.534 6.32943 114.722 6.35008 114.92H7.18762C7.19214 114.568 7.07537 114.226 6.85694 113.95C6.49735 113.478 5.90827 113.242 5.08971 113.242C4.55247 113.213 4.02295 113.38 3.59895 113.711C3.42145 113.861 3.28041 114.05 3.1865 114.263C3.09259 114.475 3.04825 114.707 3.05685 114.939C3.05366 115.145 3.10675 115.348 3.21039 115.526C3.31403 115.704 3.46431 115.851 3.64503 115.95C3.96625 116.128 4.31263 116.256 4.6723 116.33L5.396 116.508C5.66558 116.565 5.92823 116.65 6.17932 116.763C6.27499 116.813 6.3547 116.889 6.40934 116.982C6.46399 117.075 6.49135 117.181 6.48832 117.289C6.49486 117.426 6.46181 117.563 6.3931 117.682C6.32439 117.801 6.22291 117.898 6.10072 117.961C5.82533 118.11 5.51629 118.184 5.20355 118.178C4.63164 118.178 4.23049 118.032 4.0001 117.744ZM16.816 113.394H17.8107C17.686 113.739 17.405 114.522 16.9678 115.744C16.6398 116.663 16.3687 117.414 16.1546 117.994C15.6342 119.356 15.2674 120.188 15.0542 120.49C14.8427 120.788 14.4768 120.94 13.97 120.94C13.8721 120.942 13.7743 120.936 13.6772 120.924C13.5923 120.91 13.5082 120.892 13.4252 120.87V120.056C13.5367 120.088 13.6498 120.115 13.764 120.135C13.8258 120.145 13.8883 120.151 13.951 120.151C14.0787 120.161 14.2063 120.132 14.3169 120.067C14.3946 120.013 14.4617 119.945 14.5148 119.867C14.531 119.84 14.5907 119.704 14.6937 119.457C14.7412 119.343 14.7824 119.243 14.8178 119.157L14.8179 119.157L14.8182 119.157C14.8593 119.057 14.8925 118.976 14.9186 118.915L12.921 113.394H13.9402L15.374 117.731L16.816 113.394ZM24.4668 117.745C24.325 117.541 24.245 117.301 24.2364 117.053L23.369 117.051C23.3793 117.549 23.5722 118.027 23.9111 118.392C24.2472 118.754 24.8173 118.934 25.6214 118.934C26.3722 118.934 26.9279 118.761 27.2938 118.414C27.467 118.259 27.605 118.069 27.6985 117.856C27.792 117.643 27.8389 117.413 27.8359 117.181C27.851 116.97 27.8103 116.759 27.7181 116.568C27.6258 116.378 27.4851 116.215 27.31 116.097C26.8942 115.88 26.4484 115.727 25.9873 115.641L25.3802 115.498C25.1712 115.453 24.9695 115.379 24.7812 115.278C24.6764 115.227 24.588 115.147 24.5258 115.049C24.4636 114.95 24.43 114.836 24.4288 114.72C24.4275 114.618 24.4516 114.518 24.4989 114.429C24.5463 114.339 24.6154 114.263 24.6999 114.207C24.9392 114.065 25.2168 114.002 25.494 114.026C26.0171 114.026 26.3831 114.145 26.5945 114.378C26.7192 114.533 26.7955 114.722 26.814 114.92H27.6624C27.6679 114.569 27.5521 114.226 27.3344 113.95C26.9739 113.478 26.3804 113.242 25.5672 113.242C25.0299 113.213 24.5002 113.38 24.0765 113.711C23.8962 113.86 23.7523 114.048 23.656 114.261C23.5597 114.474 23.5134 114.706 23.5208 114.939C23.5182 115.145 23.5718 115.349 23.6759 115.527C23.78 115.705 23.9306 115.851 24.1117 115.95C24.4321 116.128 24.7776 116.256 25.1362 116.33L25.8627 116.509C26.1315 116.564 26.3933 116.65 26.6433 116.763C26.7397 116.813 26.8201 116.888 26.8753 116.981C26.9304 117.074 26.9581 117.181 26.955 117.289C26.9612 117.427 26.928 117.563 26.8593 117.682C26.7906 117.801 26.6894 117.898 26.5674 117.961C26.2919 118.109 25.9829 118.184 25.6702 118.178C25.0983 118.178 24.6972 118.032 24.4668 117.745ZM34.1186 111.898H35.0293V113.405H35.8831V114.139H35.0293V117.633C35.0199 117.707 35.033 117.783 35.0668 117.849C35.1006 117.916 35.1536 117.971 35.219 118.007C35.3304 118.05 35.4496 118.068 35.5687 118.061H35.7069L35.8831 118.045V118.758C35.7778 118.79 35.6698 118.811 35.5605 118.823C35.44 118.838 35.3187 118.845 35.1973 118.845C34.7799 118.845 34.4926 118.736 34.3435 118.522C34.1841 118.273 34.1055 117.98 34.1186 117.685V114.126H33.3949V113.405H34.1186V111.898ZM46.0139 114.224C45.8112 113.923 45.5299 113.684 45.2008 113.533C44.8658 113.358 44.4944 113.264 44.1166 113.259C43.7718 113.249 43.4291 113.316 43.1142 113.457C42.7993 113.598 42.5202 113.808 42.2979 114.072C41.8167 114.66 41.5696 115.405 41.604 116.165C41.604 117.037 41.8344 117.718 42.2952 118.2C42.508 118.434 42.7682 118.619 43.0585 118.745C43.3487 118.87 43.6623 118.932 43.9784 118.927C44.2237 118.93 44.4686 118.904 44.7075 118.848C45.0868 118.765 45.4352 118.577 45.7131 118.306C45.8898 118.133 46.0381 117.934 46.1522 117.715C46.2704 117.512 46.3495 117.288 46.3853 117.056H45.4881C45.4256 117.288 45.3126 117.502 45.1574 117.685C45.0166 117.84 44.8437 117.962 44.6508 118.042C44.4578 118.123 44.2496 118.16 44.0407 118.151C43.8303 118.167 43.6192 118.131 43.4266 118.044C43.234 117.958 43.0659 117.826 42.9375 117.658C42.681 117.269 42.5478 116.812 42.5554 116.346H46.453C46.4643 115.951 46.4371 115.556 46.3717 115.167C46.3208 114.831 46.1989 114.509 46.0139 114.224ZM45.2686 114.698C45.4172 114.989 45.504 115.307 45.5233 115.633H42.5743C42.5747 115.212 42.7323 114.806 43.0161 114.495C43.1459 114.351 43.305 114.237 43.4826 114.16C43.6603 114.082 43.8525 114.044 44.0461 114.048C44.2906 114.029 44.5355 114.08 44.752 114.195C44.9685 114.31 45.1477 114.485 45.2686 114.698ZM52.7039 113.398H53.5929V114.157C53.7592 113.94 53.9543 113.746 54.1729 113.582C54.4701 113.38 54.822 113.274 55.1812 113.278C55.4782 113.25 55.7767 113.316 56.0335 113.468C56.2902 113.62 56.492 113.85 56.6097 114.124C56.7878 113.856 57.03 113.636 57.3144 113.484C57.597 113.344 57.9094 113.273 58.2251 113.278C58.9434 113.278 59.434 113.549 59.6915 114.059C59.8475 114.414 59.9198 114.8 59.9029 115.187V118.748H58.9678V115.024C58.9829 114.889 58.9663 114.752 58.9192 114.625C58.8722 114.497 58.796 114.382 58.6967 114.289C58.5069 114.153 58.2774 114.082 58.0435 114.089C57.7052 114.084 57.3783 114.211 57.1328 114.444C56.878 114.68 56.7506 115.076 56.7506 115.628V118.74H55.8345V115.244C55.8513 114.972 55.8068 114.701 55.7044 114.449C55.6258 114.321 55.5121 114.217 55.3767 114.151C55.2413 114.085 55.0898 114.058 54.94 114.075C54.5913 114.079 54.2581 114.22 54.013 114.468C53.742 114.739 53.5956 115.208 53.5956 115.897V118.735H52.6984L52.7039 113.398ZM67.1062 117.744C66.9645 117.541 66.8845 117.301 66.8759 117.053L66.0193 117.059C66.0296 117.557 66.2225 118.035 66.5614 118.4C66.8975 118.761 67.4613 118.943 68.2745 118.943C69.028 118.943 69.5854 118.769 69.9468 118.422C70.12 118.267 70.2581 118.077 70.3516 117.864C70.4451 117.651 70.4919 117.421 70.4889 117.189C70.5046 116.978 70.4645 116.767 70.3727 116.577C70.2808 116.386 70.1405 116.223 69.9658 116.105C69.545 115.89 69.0947 115.738 68.6295 115.655L68.0251 115.511C67.8151 115.467 67.6125 115.393 67.4234 115.291C67.3186 115.24 67.2302 115.161 67.168 115.062C67.1058 114.964 67.0722 114.85 67.071 114.733C67.0697 114.632 67.0938 114.532 67.1411 114.442C67.1885 114.353 67.2576 114.277 67.3421 114.221C67.5791 114.075 67.8558 114.007 68.1335 114.026C68.6539 114.026 69.0198 114.145 69.2313 114.378C69.356 114.533 69.4323 114.722 69.4508 114.92H70.3019C70.3064 114.568 70.1896 114.226 69.9712 113.95C69.6116 113.478 69.0226 113.242 68.204 113.242C67.6667 113.213 67.1372 113.38 66.7132 113.711C66.5357 113.861 66.3947 114.05 66.3008 114.263C66.2069 114.475 66.1625 114.707 66.1711 114.939C66.1671 115.144 66.219 115.347 66.3212 115.525C66.4233 115.703 66.572 115.85 66.7512 115.95C67.0716 116.127 67.417 116.255 67.7757 116.33L68.5021 116.508C68.7717 116.565 69.0344 116.65 69.2855 116.763C69.3811 116.813 69.4608 116.889 69.5155 116.982C69.5701 117.075 69.5975 117.181 69.5945 117.289C69.6007 117.426 69.5675 117.563 69.4988 117.682C69.4301 117.801 69.3288 117.898 69.2069 117.961C68.9315 118.11 68.6224 118.184 68.3097 118.178C67.7378 118.178 67.3366 118.032 67.1062 117.744Z" fill="white"/>
</svg>
