<svg width="179" height="195" viewBox="0 0 179 195" fill="none" xmlns="http://www.w3.org/2000/svg">
<path fill-rule="evenodd" clip-rule="evenodd" d="M98.8579 1.33481L98.8579 1.33484C98.4163 1.52816 98.0231 1.70025 97.7794 1.74712C97.3097 1.85031 96.7641 1.80284 96.211 1.75471C95.2096 1.66759 94.1836 1.57833 93.5394 2.37712C92.3294 1.37712 89.5394 0.377124 88.2694 1.92712C87.8494 2.43712 87.9694 2.74712 88.6894 2.81712C88.9387 2.84545 89.1815 2.71971 89.4234 2.59448C89.6085 2.49866 89.793 2.40313 89.9794 2.37712C90.5881 2.33315 91.1939 2.49517 91.6994 2.83712C92.2472 3.14387 92.7289 3.52862 93.2137 3.91578L93.2137 3.91583C93.614 4.23547 94.0162 4.55675 94.4594 4.83712C95.4243 5.29289 96.4827 5.51554 97.5494 5.48712C97.8794 5.48712 99.4694 5.31712 99.4094 4.72712C99.4094 4.58758 98.9192 4.61031 98.4479 4.63216C98.1086 4.64789 97.7792 4.66316 97.6494 4.61712C97.1094 4.48712 96.0494 4.17712 95.9294 3.50712C95.7694 2.63712 96.9994 2.83712 97.4694 2.97712C98.9094 3.41712 100.649 3.82712 101.289 2.11712C101.789 0.717123 101.229 0.547124 100.399 0.747124C99.9213 0.869301 99.3586 1.11564 98.8581 1.33474L98.8579 1.33481ZM137.01 105.107C137.095 104.821 137.14 104.406 137.188 103.949C137.309 102.811 137.457 101.414 138.35 101.107C139.278 100.773 139.068 102.311 138.986 102.916C138.979 102.962 138.974 103.003 138.97 103.037C138.781 104.533 138.446 106.007 137.97 107.437C137.784 108.02 137.505 108.707 137.202 109.455L137.202 109.455C135.873 112.731 134.073 117.169 137.55 119.147C137.881 119.329 138.288 119.455 138.705 119.584C139.548 119.845 140.428 120.118 140.79 120.887C141.63 122.677 139.03 122.887 137.98 122.527C136.74 122.067 135.72 121.847 135.33 123.527C135.289 123.697 135.268 123.922 135.245 124.168V124.168C135.17 124.964 135.075 125.978 134.25 126.047C133.514 126.104 133.358 125.39 133.223 124.769C133.098 124.199 132.991 123.709 132.47 123.967C132.042 124.179 131.787 125.117 131.518 126.108L131.518 126.108L131.518 126.108L131.518 126.109L131.518 126.109L131.518 126.109L131.518 126.109L131.518 126.109L131.518 126.109L131.518 126.109C131.1 127.645 130.649 129.306 129.47 128.577C128.681 128.088 129.017 127.121 129.274 126.383L129.274 126.382C129.316 126.26 129.357 126.144 129.39 126.037C129.778 124.813 130.062 123.559 130.24 122.287C130.445 120.311 130.505 118.322 130.42 116.337C130.42 115.252 130.532 114.248 130.645 113.234L130.646 113.234C130.726 112.511 130.808 111.783 130.85 111.017C130.963 109.09 131.037 107.16 131.111 105.23C131.201 102.895 131.291 100.56 131.45 98.2271C131.57 96.4379 131.753 94.6533 131.937 92.8689L131.937 92.8686C132.134 90.9531 132.33 89.0378 132.45 87.1171C132.916 81.3573 132.159 75.564 130.23 70.1171C128.05 64.0171 127.14 57.7271 126.23 51.3871C125.544 47.177 124.643 43.0049 123.53 38.8871C122.852 36.2535 121.556 33.8195 119.75 31.7871C118.861 30.789 117.828 30.1037 116.8 29.4211C115.953 28.859 115.108 28.2987 114.35 27.5671C113.368 26.6189 112.587 25.3661 111.8 24.1046L111.8 24.1045C110.463 21.96 109.109 19.79 106.73 19.0471C106.674 19.033 106.616 19.0361 106.563 19.0559C106.509 19.0757 106.463 19.1114 106.431 19.1582C106.398 19.2049 106.38 19.2605 106.38 19.3175C106.38 19.3745 106.397 19.4301 106.43 19.4771C106.734 19.8826 107.087 20.2703 107.442 20.6599L107.442 20.6599C108.495 21.8173 109.564 22.9913 109.43 24.6971C109.425 24.7608 109.396 24.8205 109.35 24.8648C109.304 24.9091 109.243 24.9348 109.18 24.9371C108.584 24.9299 108 24.7753 107.48 24.4871C105.118 23.4355 102.275 22.8993 99.6377 22.4019C99.1152 22.3034 98.6007 22.2063 98.0995 22.1071C97.4736 21.9819 96.6717 21.8832 95.7779 21.7733C91.8883 21.2948 86.2587 20.6022 85.8196 16.5771C85.4196 12.9571 89.1696 12.1971 91.9096 13.2971C91.962 13.3176 92.0195 13.3212 92.0741 13.3073C92.1287 13.2935 92.1775 13.263 92.2139 13.22C92.2503 13.177 92.2723 13.1238 92.2769 13.0677C92.2815 13.0116 92.2684 12.9554 92.2396 12.9071C91.9763 12.5195 91.7973 12.0809 91.7141 11.6198C91.6309 11.1586 91.6454 10.6852 91.7566 10.23C91.8678 9.77477 92.0733 9.34796 92.3597 8.97713C92.6462 8.6063 93.0072 8.29968 93.4196 8.07709C95.3856 6.92008 98.0025 8.05613 100.033 8.93741C100.336 9.06917 100.626 9.19524 100.9 9.30709C100.96 9.33196 101.027 9.33343 101.088 9.31122C101.149 9.28901 101.2 9.24472 101.23 9.18709C103.53 5.41821 106.568 7.21344 109.212 8.77536C110.314 9.42648 111.347 10.037 112.23 10.1871C113.162 10.3508 114.322 10.0078 115.563 9.64055C117.052 9.20036 118.658 8.72543 120.13 9.04709C123.37 9.74709 125.43 11.4371 126.13 14.6771C126.143 14.7362 126.176 14.7891 126.223 14.8272C126.27 14.8653 126.329 14.8864 126.39 14.8871C126.902 14.9044 127.411 14.9096 127.911 14.9148C131.456 14.9512 134.579 14.9833 135.5 19.2771C135.514 19.3434 135.553 19.4018 135.609 19.4407C135.664 19.4796 135.732 19.4962 135.8 19.4871C140.6 18.8871 144.43 26.1071 140.09 29.1371C138.556 30.2073 137.333 29.5733 136.099 28.9341C135.097 28.4146 134.088 27.8915 132.9 28.2771C132.25 28.4771 131.21 29.2771 131.9 29.9671C131.989 30.0733 132.157 30.0608 132.324 30.0483C132.455 30.0384 132.587 30.0286 132.68 30.0771C132.985 30.2189 133.255 30.4254 133.473 30.6822C133.69 30.9391 133.849 31.2402 133.939 31.5646C134.028 31.889 134.046 32.229 133.991 32.561C133.936 32.8929 133.809 33.209 133.62 33.4871C133.237 34.0985 132.217 34.4705 131.179 34.849C129.5 35.4611 127.773 36.0904 128.62 37.7771C129.065 37.8298 129.169 37.5315 129.283 37.202C129.408 36.8435 129.545 36.4479 130.15 36.4271C132.74 36.3471 131.84 40.8171 131.28 42.0271C130.988 42.6606 130.641 43.2557 130.296 43.8462L130.296 43.8463L130.296 43.8465L130.296 43.8466C129.603 45.0361 128.92 46.2071 128.72 47.6371C128.554 48.8096 128.911 50.0085 129.26 51.1842C129.438 51.7834 129.615 52.3765 129.72 52.9571C129.848 53.6855 129.779 54.661 129.705 55.694C129.55 57.8802 129.376 60.3239 131.02 61.2271C132.54 62.0671 135.69 59.3871 136.32 57.9671C136.341 57.9204 136.376 57.8808 136.419 57.853C136.463 57.8253 136.513 57.8106 136.565 57.8106C136.616 57.8106 136.667 57.8253 136.71 57.853C136.753 57.8808 136.788 57.9204 136.81 57.9671C137.32 59.2471 136.39 60.9671 135.15 61.7671C135.096 61.7988 135.056 61.8477 135.035 61.9057C135.013 61.9638 135.012 62.0273 135.032 62.0859C135.052 62.1444 135.092 62.1943 135.144 62.2273C135.196 62.2603 135.258 62.2743 135.32 62.2671C135.563 62.2069 135.817 62.2069 136.06 62.2671C136.75 62.5371 135.71 63.2671 135.36 63.4071C134.929 63.5849 134.464 63.6603 134 63.6271C133.94 63.63 133.882 63.6522 133.836 63.6903C133.789 63.7285 133.756 63.7805 133.742 63.8389C133.727 63.8972 133.732 63.9586 133.755 64.0141C133.778 64.0696 133.818 64.1163 133.87 64.1471C134.131 64.2698 134.405 64.3701 134.679 64.4704C135.456 64.7543 136.235 65.0392 136.73 65.8371C136.879 66.0802 136.983 66.427 137.09 66.7852C137.234 67.2667 137.384 67.7689 137.66 68.0671C137.684 68.0913 137.703 68.1201 137.717 68.1518C137.73 68.1836 137.737 68.2177 137.737 68.2521C137.737 68.2865 137.73 68.3206 137.717 68.3524C137.703 68.3841 137.684 68.4129 137.66 68.4371C136.85 69.1071 135.49 68.1271 134.88 67.5571C133.88 66.5571 132.88 66.9071 132.76 68.3371C132.728 69.6569 133.124 70.9515 133.89 72.0271C134.56 72.6271 135.07 72.2071 135.51 71.6771C135.543 71.6351 135.588 71.604 135.639 71.5877C135.69 71.5714 135.745 71.5708 135.797 71.5858C135.848 71.6008 135.894 71.6308 135.928 71.672C135.963 71.7132 135.984 71.7637 135.99 71.8171C136.125 73.2335 136.503 74.5862 136.88 75.937C137.425 77.8859 137.969 79.8308 137.78 81.9571C137.641 83.5285 137.205 85.0469 136.768 86.5676L136.768 86.5679L136.768 86.5681L136.768 86.5683L136.768 86.5685L136.768 86.5687L136.768 86.5689L136.768 86.569L136.768 86.5692L136.768 86.5694L136.768 86.5696L136.768 86.5698L136.767 86.57L136.767 86.5701L136.767 86.5703L136.767 86.5705L136.767 86.5707L136.767 86.5709L136.767 86.5711L136.767 86.5712L136.767 86.5714L136.767 86.5716L136.767 86.5718L136.767 86.572L136.767 86.5722L136.767 86.5723L136.767 86.5725L136.767 86.5727L136.767 86.5729L136.767 86.5731L136.767 86.5733L136.767 86.5734L136.767 86.5736L136.766 86.5738L136.766 86.574L136.766 86.5742L136.766 86.5744L136.766 86.5745L136.766 86.5747L136.766 86.5749L136.766 86.5751L136.766 86.5753L136.766 86.5755L136.766 86.5756L136.766 86.5758C136.444 87.6943 136.123 88.814 135.92 89.9571C135.662 91.3868 135.962 92.7808 136.263 94.1829C136.384 94.7421 136.504 95.3026 136.59 95.8671C136.878 97.7327 136.841 99.6342 136.48 101.487C136.34 102.267 136.2 103.047 136.03 103.827C136.008 103.933 135.977 104.058 135.943 104.193L135.942 104.196L135.942 104.196L135.942 104.197C135.8 104.762 135.61 105.516 135.9 105.927C136.34 106.817 136.9 105.487 137.01 105.107ZM158.299 158.497C158.625 158.717 158.876 159.031 159.019 159.397C159.121 159.872 158.8 160.179 158.483 160.482C158.3 160.658 158.118 160.832 158.019 161.037C157.857 161.487 157.829 161.974 157.939 162.439C158.049 162.905 158.293 163.328 158.639 163.657C159.186 164.231 159.864 164.663 160.615 164.918C161.365 165.172 162.166 165.24 162.949 165.117C163.036 165.117 163.135 165.114 163.242 165.111C163.943 165.09 164.978 165.059 165.169 165.797C165.389 166.647 164.089 166.617 163.529 166.527C163.55 166.577 163.615 166.645 163.682 166.715L163.682 166.716L163.683 166.716C163.776 166.814 163.875 166.917 163.869 166.987C163.859 167.107 163.469 167.317 163.329 167.377C162.871 167.599 162.611 167.513 162.277 167.403L162.277 167.403C162.13 167.354 161.968 167.301 161.769 167.267C161.769 167.375 161.804 167.48 161.869 167.567C161.934 167.654 162.025 167.717 162.129 167.747C161.519 168.507 160.019 167.897 159.499 167.347C159.499 167.433 159.53 167.501 159.557 167.56C159.602 167.66 159.637 167.737 159.499 167.837C159.279 167.997 159.019 167.837 158.909 167.737C158.902 167.864 158.902 167.99 158.909 168.117C158.959 168.224 159.035 168.27 159.118 168.32C159.151 168.341 159.185 168.361 159.219 168.387C159.501 168.565 159.795 168.722 160.099 168.857C161.619 169.647 163.279 169.017 164.649 168.197C164.69 168.173 164.734 168.147 164.78 168.12L164.781 168.12C165.323 167.798 166.184 167.288 166.119 168.357C166.119 169.007 165.229 169.477 164.699 169.647C165.129 169.517 166.259 169.327 166.609 169.727C167.349 170.567 164.239 170.657 163.849 170.657C162.977 170.718 162.099 170.667 161.239 170.507C160.063 170.358 158.94 169.933 157.959 169.267C156.958 168.489 156.203 167.437 155.788 166.239C155.373 165.041 155.314 163.748 155.619 162.517C155.767 161.84 156.074 161.222 156.38 160.606C156.715 159.931 157.049 159.26 157.169 158.517C157.191 158.385 157.202 158.231 157.214 158.07C157.251 157.561 157.295 156.97 157.689 156.697C157.6 157.188 157.678 157.695 157.909 158.137C158.022 158.275 158.153 158.396 158.299 158.497ZM83.9606 154.133C84.5832 154.673 85.2153 155.22 85.0894 155.767C85.0605 155.893 85.0022 156.009 84.9194 156.107C84.2394 156.987 82.3394 156.027 81.6094 155.657C81.0219 155.361 80.5216 154.944 80.0202 154.526C79.3693 153.984 78.7167 153.44 77.8694 153.157C77.0696 152.889 76.2092 152.894 75.35 152.9H75.3497C74.7695 152.904 74.1897 152.908 73.6294 152.827C71.9257 152.545 70.274 152.009 68.7294 151.237C68.4755 151.11 68.2057 150.963 67.9256 150.811C66.0097 149.768 63.6099 148.463 62.5194 151.237C62.3655 151.678 62.4405 152.109 62.5136 152.529C62.5831 152.928 62.6509 153.317 62.5194 153.697C61.754 153.893 61.4243 152.584 61.2552 151.913C61.2437 151.867 61.2329 151.824 61.2228 151.785L61.211 151.74L61.1994 151.697C60.9584 150.761 60.9007 149.786 61.0294 148.827C61.2289 148.035 61.2494 147.208 61.0894 146.407C60.635 145.545 60.0402 144.764 59.3294 144.097C58.0694 142.487 56.3294 138.127 58.7594 136.667C59.3783 136.399 60.0475 136.266 60.722 136.278C61.3965 136.29 62.0605 136.447 62.6694 136.737C63.9624 137.655 65.0915 138.784 66.0094 140.077C66.25 140.36 66.4654 140.638 66.6713 140.904C67.5524 142.044 68.2585 142.957 70.0094 142.957C70.4868 142.95 71.0087 142.869 71.5397 142.787C72.4103 142.652 73.3054 142.513 74.0694 142.687C74.9394 142.877 75.9494 143.707 74.5994 143.877C73.4604 143.975 72.3555 144.316 71.3594 144.877C70.8565 145.139 70.4554 145.562 70.2194 146.077C69.9277 146.816 70.3837 147.255 70.8907 147.743C70.94 147.791 70.9898 147.839 71.0394 147.887C72.4546 149.141 74.066 150.155 75.8094 150.887C77.3905 151.538 79.112 151.772 80.8094 151.567C81.1122 151.549 81.5066 151.477 81.9372 151.398C82.9288 151.216 84.1122 151 84.8094 151.327C84.8668 151.354 84.9162 151.394 84.9528 151.446C84.9895 151.497 85.0119 151.557 85.018 151.62C85.0241 151.683 85.0136 151.746 84.9875 151.804C84.9614 151.861 84.9207 151.911 84.8694 151.947C84.2364 152.309 83.5658 152.601 82.8694 152.817C82.9373 153.247 83.4457 153.688 83.9606 154.133ZM100.389 141.117L100.159 141.427C100.077 141.345 99.9653 141.299 99.8492 141.299C99.733 141.299 99.6216 141.345 99.5392 141.427C99.7292 141.427 99.8592 141.427 99.8992 141.637C99.9805 141.94 99.7173 142.112 99.4816 142.266C99.3987 142.32 99.3191 142.372 99.2592 142.427C98.9099 142.754 98.6368 143.153 98.4592 143.597C98.2392 144.187 98.5992 144.707 99.2592 144.507C99.9192 144.307 100.259 143.307 100.189 142.607C100.119 141.907 100.399 140.967 101.009 140.757C100.882 140.751 100.756 140.782 100.646 140.846C100.536 140.909 100.447 141.004 100.389 141.117ZM104.679 73.6473C104.332 73.2115 104.052 72.7261 103.849 72.2073C103.897 72.1949 103.944 72.1824 103.99 72.1701L104.074 72.1475L104.076 72.147C104.842 71.941 105.43 71.783 106.059 72.2573C106.549 72.5873 106.769 72.1473 106.829 71.7573C106.968 70.9939 106.943 70.2099 106.757 69.4567C106.571 68.7036 106.227 67.9983 105.749 67.3873C105.651 67.2533 105.537 67.1272 105.378 66.952L105.319 66.8873C105.49 66.8167 105.668 66.7631 105.849 66.7273C106.472 66.7364 107.085 66.882 107.646 67.1537C108.206 67.4255 108.7 67.8169 109.093 68.3003C109.486 68.7837 109.768 69.3473 109.919 69.9515C110.071 70.5557 110.088 71.1858 109.969 71.7973C109.916 72.0735 109.798 72.3329 109.624 72.5539C109.45 72.7749 109.225 72.9509 108.969 73.0673C108.856 73.1169 108.778 73.2417 108.699 73.3671L108.699 73.3672C108.667 73.4188 108.634 73.4706 108.599 73.5173C108.796 73.634 109.004 73.7311 109.219 73.8073C109.294 73.8301 109.381 73.8073 109.472 73.7836L109.472 73.7836C109.54 73.7657 109.611 73.7473 109.679 73.7473C110.209 73.6973 110.469 73.9573 110.469 74.4873C110.448 74.8766 110.344 75.2568 110.163 75.6019C109.981 75.9471 109.728 76.2491 109.419 76.4873C108.819 76.9573 108.329 76.7873 108.089 76.0873C108.04 75.892 107.959 75.7062 107.849 75.5373C107.79 75.4764 107.718 75.4288 107.639 75.3978C107.559 75.3667 107.474 75.3529 107.389 75.3573C107.329 75.3573 107.209 75.5973 107.209 75.7273C107.241 76.1293 107.185 76.5334 107.045 76.9117C106.906 77.29 106.686 77.6336 106.401 77.9187C106.116 78.2038 105.772 78.4238 105.394 78.5634C105.015 78.703 104.611 78.7589 104.209 78.7273C103.445 78.7993 102.675 78.6602 101.984 78.3252C101.293 77.9902 100.707 77.4722 100.289 76.8273C100.214 76.6846 100.147 76.5377 100.089 76.3873H100.679C102.122 76.4965 103.552 76.0532 104.679 75.1473C105.439 74.5573 105.369 74.2873 104.679 73.6473ZM157.989 117.387C157.902 118.001 157.253 118.56 156.636 119.06C156.823 119.117 157.031 119.136 157.235 119.155C157.499 119.179 157.756 119.203 157.949 119.307C158.947 119.844 158.137 121.489 157.763 122.247C157.74 122.294 157.718 122.337 157.699 122.377C157.699 122.236 157.592 121.952 157.467 121.619C157.176 120.846 156.784 119.807 157.399 119.667C156.779 119.047 156.239 119.237 155.719 119.817C154.917 120.738 155.245 122.871 155.438 124.128C155.457 124.25 155.474 124.364 155.489 124.467C155.748 126.488 156.128 128.492 156.629 130.467C157.297 132.686 157.471 135.024 157.139 137.317C156.569 139.812 156.569 142.403 157.139 144.897C157.463 146.168 157.517 147.493 157.299 148.787C156.822 152.147 155.791 155.404 154.249 158.427C153.063 160.391 152.418 162.633 152.379 164.927C152.519 168.977 154.859 172.947 159.379 173.247C161.829 173.41 164.026 172.559 166.226 171.707C168.084 170.987 169.944 170.267 171.959 170.157C175.479 169.977 178.479 172.027 178.479 175.767C178.469 181.177 172.359 185.147 167.809 181.397C165.959 179.877 165.609 176.347 168.069 175.127C170.059 174.147 174.389 175.757 172.289 178.377C171.839 178.937 170.839 179.317 170.509 178.447C170.312 177.928 170.493 177.822 170.689 177.706C170.822 177.628 170.963 177.545 170.999 177.327C171.179 176.137 169.649 176.257 168.999 177.047C167.279 179.107 169.699 180.677 171.699 180.777C174.119 180.907 175.999 178.787 176.329 176.497C176.429 175.906 176.373 175.3 176.168 174.738C175.963 174.175 175.615 173.675 175.159 173.287C173.479 171.927 170.099 172.737 168.239 173.287L167.967 173.37C164.488 174.423 160.456 175.643 156.889 174.357C155.369 173.744 154.032 172.75 153.009 171.469C151.986 170.188 151.311 168.665 151.049 167.047C151.003 166.787 150.99 166.484 150.977 166.167V166.167C150.946 165.46 150.914 164.691 150.499 164.207C149.874 163.472 148.912 164.088 148.154 164.573C147.943 164.709 147.747 164.834 147.579 164.917C147.191 165.106 146.801 165.289 146.411 165.471C145.606 165.849 144.801 166.226 144.019 166.657C143.592 166.911 143.274 167.314 143.128 167.789C142.982 168.265 143.018 168.777 143.229 169.227C143.713 171.268 144.338 173.273 145.099 175.227C145.303 175.552 145.431 175.917 145.476 176.298C145.521 176.678 145.481 177.064 145.359 177.427C145.018 178.132 144.346 178.501 143.683 178.865L143.682 178.866C143.452 178.992 143.223 179.118 143.009 179.257C142.168 179.961 141.559 180.902 141.259 181.957C141.251 181.975 141.243 181.994 141.234 182.014L141.219 182.05L141.219 182.05C141.056 182.427 140.798 183.025 140.319 182.887C139.499 182.637 139.739 180.697 139.909 180.127C140.285 179.093 140.987 178.208 141.909 177.607C142.377 177.363 142.742 176.96 142.938 176.47C143.134 175.98 143.149 175.437 142.979 174.937C142.267 172.96 141.439 171.027 140.499 169.147C138.939 166.027 138.209 163.787 141.729 161.787C142.35 161.314 142.908 160.762 143.389 160.147C143.149 160.029 142.902 159.925 142.649 159.837C142.475 159.795 142.302 159.752 142.128 159.708C141.554 159.565 140.981 159.422 140.389 159.337C138.176 158.97 138.15 159.016 137.074 160.924L137.049 160.967C137.015 161.025 136.985 161.085 136.959 161.147C136.732 161.642 136.55 162.199 136.363 162.768C135.951 164.027 135.521 165.341 134.549 166.147C133.614 166.924 132.618 166.668 131.581 166.402C130.722 166.181 129.835 165.953 128.929 166.297C128.695 166.381 128.412 166.573 128.102 166.783C127.342 167.3 126.424 167.923 125.699 167.297C124.679 166.417 126.259 165.007 127.039 164.567C127.922 164.075 129.008 164.081 130.069 164.086C131.208 164.092 132.317 164.098 133.109 163.487C134.488 162.433 135.084 160.013 135.583 157.99C135.76 157.269 135.925 156.598 136.109 156.057C136.227 155.719 136.46 155.434 136.767 155.251C137.074 155.068 137.436 154.999 137.789 155.057C138.632 155.12 139.475 155.175 140.318 155.231L140.321 155.231L140.322 155.231C142.017 155.342 143.71 155.453 145.399 155.627C146.309 155.707 146.949 155.507 147.039 154.627C147.173 153.204 147.206 151.774 147.139 150.347C147.119 149.787 146.649 149.427 145.969 149.537C144.961 149.632 143.959 149.789 142.969 150.007C141.625 150.438 140.168 150.345 138.889 149.747C137.746 149.249 136.575 148.817 135.406 148.386L135.405 148.385C134.437 148.028 133.47 147.671 132.519 147.277C131.921 146.908 131.22 146.74 130.519 146.797C129.71 147.125 128.922 147.502 128.159 147.927C127.489 148.207 125.999 148.567 126.309 147.357C126.829 145.337 129.569 144.427 131.379 144.927C131.93 145.058 132.44 145.321 132.96 145.59L132.96 145.59L132.96 145.59L132.96 145.59C133.356 145.794 133.758 146.002 134.189 146.157C135.458 146.656 136.749 147.084 138.042 147.512C138.278 147.59 138.514 147.668 138.749 147.747C139.168 147.895 139.614 147.95 140.056 147.909C140.498 147.868 140.926 147.73 141.309 147.507C142.748 146.802 144.256 146.25 145.809 145.857C146.609 145.647 147.039 145.427 147.039 144.557C145.509 144.487 145.269 144.187 145.399 142.557C145.465 142.2 145.465 141.834 145.399 141.477C145.298 140.959 145.304 140.426 145.419 139.911C145.533 139.396 145.752 138.911 146.063 138.484C146.374 138.058 146.769 137.701 147.225 137.434C147.68 137.168 148.185 136.999 148.709 136.937C149.986 136.921 150.832 137.618 151.685 138.32L151.685 138.32L151.685 138.321L151.685 138.321L151.685 138.321L151.686 138.321L151.686 138.321L151.686 138.322L151.686 138.322L151.687 138.322L151.687 138.322L151.687 138.322L151.687 138.322L151.688 138.323C151.883 138.483 152.078 138.644 152.279 138.797L153.359 139.597C153.796 138.338 154.163 137.056 154.459 135.757C154.647 134.648 154.701 133.519 154.619 132.397C154.379 131.248 154.205 130.086 154.099 128.917C154.256 126.959 154.063 124.988 153.529 123.097C153.506 123.025 153.483 122.951 153.46 122.878L153.46 122.878C153.301 122.365 153.147 121.867 152.709 121.867C152.562 121.892 152.421 121.95 152.299 122.037C152.172 122.118 152.04 122.231 151.901 122.35C151.494 122.698 151.034 123.091 150.519 122.837C149.529 122.357 150.659 121.467 151.139 121.097C151.524 120.894 151.883 120.645 152.209 120.357C152.34 120.203 152.401 120.033 152.462 119.866C152.555 119.609 152.647 119.358 152.979 119.177C153.329 118.982 153.662 119.035 153.978 119.085C154.294 119.135 154.594 119.182 154.879 118.977C155.5 118.461 156.091 117.91 156.649 117.327C156.989 116.977 158.149 116.237 157.989 117.387ZM36.8891 114.697L37.2291 114.437C38.3231 113.777 39.4665 113.201 40.6491 112.717C41.8342 111.922 42.9453 111.022 43.9691 110.027C45.3163 108.949 46.8883 108.187 48.5691 107.797C48.7841 107.74 49.0122 107.683 49.249 107.623L49.2491 107.623C50.6754 107.265 52.4143 106.828 53.4691 105.927C53.8136 105.665 54.0971 105.331 54.3003 104.948C54.5035 104.566 54.6215 104.144 54.6462 103.712C54.6709 103.28 54.6017 102.847 54.4434 102.444C54.2851 102.041 54.0414 101.677 53.7291 101.377C53.3007 100.97 52.8204 100.619 52.3335 100.264L52.3335 100.264L52.3334 100.264L52.3334 100.264C51.6498 99.7647 50.9532 99.2563 50.3691 98.5672C49.9238 98.0248 49.6007 97.4563 49.298 96.9237C48.5402 95.5904 47.9099 94.4814 45.8091 94.5672C44.9949 94.6062 44.1931 94.8474 43.3881 95.0896C42.7497 95.2816 42.1093 95.4743 41.4591 95.5672C40.4981 95.7057 39.3365 95.6719 38.1217 95.6365C35.3041 95.5543 32.2003 95.4638 30.6491 97.4972C30.2491 98.0072 29.1391 98.1472 28.3491 98.1472C19.4491 98.4772 13.1191 102.267 7.34914 108.697C6.52914 109.647 0.999144 116.557 2.34914 117.697C2.59375 117.581 2.7675 117.384 2.93478 117.195C3.19836 116.897 3.44587 116.618 3.92915 116.697C4.0939 117.473 3.60361 118.447 3.16352 119.32C2.96253 119.72 2.77201 120.098 2.65915 120.427C2.50453 120.888 2.26995 121.404 2.02423 121.944C1.45946 123.187 0.835845 124.558 0.989148 125.687C1.25074 125.667 1.4602 125.494 1.67952 125.314L1.67956 125.314L1.6796 125.314L1.67963 125.314C1.77887 125.232 1.88013 125.149 1.98915 125.077C2.4324 126.021 1.50114 128.218 0.915408 129.6L0.915388 129.6C0.787553 129.902 0.676178 130.165 0.599144 130.367C0.585362 130.405 0.565718 130.457 0.541886 130.521L0.541512 130.522C0.253677 131.284 -0.641556 133.656 0.789147 132.927C1.37784 133.744 0.956151 135.326 0.555887 136.828C0.289833 137.826 0.0332455 138.788 0.0891461 139.467C1.01442 139.604 0.923341 140.718 0.852412 141.586C0.835184 141.797 0.819146 141.993 0.819146 142.157C0.804781 144.166 1.07754 146.166 1.62915 148.097C2.34915 150.147 2.97915 152.277 3.49915 154.387C5.03915 160.637 7.10915 166.677 12.1691 171.087C14.9158 173.451 18.3314 174.898 21.9398 175.228C25.5482 175.558 29.1696 174.753 32.2991 172.927C39.0591 168.827 40.5191 160.557 37.5191 153.557C36.7095 151.626 35.3226 149.993 33.5484 148.881C31.7743 147.77 29.6998 147.234 27.6091 147.347C23.2391 147.547 19.6691 150.047 18.6091 154.347C18.3541 155.599 18.3629 156.89 18.6349 158.139C18.9069 159.387 19.4363 160.565 20.1891 161.597L20.2335 161.654L20.2852 161.72C20.6308 162.165 21.1534 162.837 21.7091 162.837C21.9419 162.83 21.1709 161.486 20.7386 160.732C20.5952 160.482 20.4891 160.297 20.4691 160.247C20.0423 159.118 19.8556 157.912 19.921 156.707C19.9865 155.502 20.3026 154.323 20.8491 153.247C21.9791 150.977 24.1891 149.167 26.8491 149.367C30.8491 149.677 34.1491 153.437 34.8491 157.147C36.6591 166.647 23.0691 171.617 18.6591 162.727C15.5891 156.537 13.7591 142.157 22.9291 139.367C23.8585 139.063 24.8584 139.047 25.7969 139.322C26.7355 139.596 27.5688 140.149 28.187 140.907C28.8052 141.665 29.1793 142.592 29.26 143.567C29.3407 144.542 29.1243 145.518 28.6391 146.367C34.9291 145.977 33.2091 129.057 24.5291 130.137C25.2241 129.288 25.7822 128.347 26.3427 127.402C26.7983 126.634 27.2555 125.864 27.7891 125.137C28.1205 126.775 29.4626 126.904 30.9441 127.046C32.637 127.208 34.5119 127.388 35.2691 129.857C35.4967 131.042 35.9554 132.17 36.6191 133.177C39.6791 131.127 38.3891 126.587 37.0591 123.807C36.6469 122.938 36.2016 122.18 35.7979 121.492C34.2918 118.927 33.3641 117.347 36.8891 114.697ZM97.0895 115.447C97.4895 115.447 97.0095 116.397 96.9095 116.537C96.5971 116.919 96.2337 117.255 95.8295 117.537C94.5372 118.617 93.5683 120.032 93.0295 121.627C92.5565 122.666 92.3201 123.797 92.3374 124.938C92.3547 126.08 92.6252 127.203 93.1294 128.227C93.6069 129.289 94.2006 130.296 94.8995 131.227C95.3858 131.795 95.7301 132.47 95.904 133.196C96.0779 133.923 96.0763 134.681 95.8995 135.407C95.4564 137.154 95.5328 138.993 96.1195 140.697C96.2992 141.118 96.5571 141.502 96.8794 141.827C97.1268 142.1 97.2985 142.433 97.3774 142.792C97.4564 143.152 97.4398 143.526 97.3295 143.877C97.1895 144.487 96.7295 144.527 96.3295 144.087C95.5403 143.167 94.8089 142.198 94.1395 141.187C93.8695 140.672 93.7288 140.099 93.7295 139.517C93.698 138.99 93.7037 138.457 93.7093 137.927C93.7181 137.111 93.7268 136.299 93.5994 135.517C93.1296 133.006 91.7162 130.769 89.6495 129.267L89.4794 129.136C89.3273 129.018 89.1746 128.9 89.0216 128.783C87.9302 127.942 86.8241 127.09 85.8095 126.167C85.1828 125.648 84.7293 124.951 84.5095 124.167C83.9594 121.517 82.0995 120.297 79.8095 119.487C78.7783 119.119 77.7423 118.766 76.7072 118.413L76.7063 118.413L76.7057 118.413C75.1517 117.883 73.5998 117.353 72.0695 116.777C69.1255 115.77 66.3381 114.352 63.7895 112.567C62.9003 111.913 61.9769 111.29 61.011 110.637L61.0104 110.636L61.0072 110.634L61.0066 110.634L61.004 110.632C60.4947 110.288 59.9736 109.936 59.4395 109.567C59.3557 109.98 59.2989 110.397 59.2695 110.817C59.2112 111.84 59.2279 112.866 59.3195 113.887C59.4772 114.477 59.7415 115.033 60.0995 115.527C60.1814 115.683 60.2953 115.827 60.4081 115.969C60.5704 116.175 60.7304 116.377 60.7895 116.607C60.816 116.789 60.799 116.974 60.7399 117.148C60.6808 117.322 60.5812 117.479 60.4495 117.607C60.3062 117.668 60.1492 117.69 59.9946 117.671C59.84 117.652 59.6933 117.592 59.5695 117.497C58.6369 116.539 57.8058 115.486 57.0895 114.357C56.8594 113.683 56.8594 112.951 57.0895 112.277C57.2732 111.633 57.3084 110.955 57.1923 110.295C57.0763 109.635 56.812 109.01 56.4195 108.467C56.2599 108.199 56.1555 107.902 56.1126 107.592C56.0696 107.283 56.089 106.969 56.1695 106.667C56.3119 106.328 56.5782 106.055 56.9143 105.904C57.2505 105.754 57.6313 105.737 57.9795 105.857C59.1081 106.143 60.2188 106.525 61.3255 106.905C61.6504 107.017 61.9749 107.128 62.2995 107.237C62.4634 107.328 62.6175 107.435 62.7595 107.557C64.3863 108.639 64.3904 108.628 65.0829 106.926L65.1395 106.787C65.8206 105.185 66.5918 103.622 67.4495 102.107C68.44 100.019 68.9264 97.7276 68.8695 95.4172C68.8695 95.0272 68.4594 94.5472 68.1195 94.2372C67.6819 93.936 67.1992 93.7065 66.6895 93.5572C66.5187 93.488 66.3351 93.4443 66.1516 93.4006C65.9374 93.3497 65.7233 93.2987 65.5295 93.2072C64.9568 92.791 64.5383 92.1966 64.3395 91.5172C64.1803 91.1382 64.1118 90.7273 64.1395 90.3172C64.1887 90.1327 64.296 89.9689 64.4454 89.8501C64.5949 89.7312 64.7786 89.6636 64.9695 89.6572C65.0814 89.6572 65.1517 89.7196 65.2232 89.7832C65.2731 89.8276 65.3237 89.8725 65.3895 89.8972C65.6487 89.9539 65.9151 89.9708 66.1795 89.9472C67.2843 89.9693 68.3873 89.8448 69.4595 89.5772C70.4536 89.4386 71.4606 89.4185 72.4595 89.5172C72.6139 89.5172 72.7774 89.5397 72.9397 89.5621C73.2607 89.6064 73.577 89.65 73.8095 89.5172C74.491 89.0917 75.074 88.5258 75.5195 87.8572C76.0395 86.9972 75.3895 85.2672 74.4195 84.5472C74.0973 84.3075 73.7659 84.0787 73.4343 83.8497L73.4341 83.8496C72.9217 83.4958 72.409 83.1418 71.9295 82.7472C71.1752 82.1504 70.4818 81.4805 69.8595 80.7472C69.4995 80.3172 69.3195 79.3172 69.8595 78.9272C70.3995 78.5372 70.6795 79.2372 70.7795 79.6372C70.8435 80.1005 70.9749 80.5519 71.1695 80.9772C71.3995 81.3772 71.8495 81.6272 72.1695 81.1172C72.3571 80.4129 72.3946 79.6769 72.2795 78.9572C72.1892 78.3368 72.258 77.7037 72.4795 77.1172C72.6695 76.7672 73.0095 76.5072 73.3095 76.8772C73.568 77.1961 73.4923 77.708 73.4345 78.0995C73.4252 78.1622 73.4164 78.2219 73.4095 78.2772C73.3094 79.0138 73.3094 79.7606 73.4095 80.4972C73.4202 80.8434 73.5018 81.1838 73.6495 81.4972C73.8429 81.6599 74.0627 81.7885 74.2995 81.8772C74.5795 82.0172 74.7095 80.5272 74.6995 80.3772C74.6995 79.8772 74.6995 79.3772 75.2695 79.1872C75.8395 78.9972 76.0795 79.5972 76.0195 80.0472C75.903 80.4779 75.7456 80.8964 75.5495 81.2972C75.2662 82.1203 75.7585 82.8651 76.2082 83.5454C76.2666 83.6338 76.3243 83.721 76.3795 83.8072C76.8595 84.5572 77.3795 84.6572 77.7595 83.9472C77.8283 83.8274 77.8854 83.6952 77.9429 83.5621C78.1111 83.1732 78.2826 82.7764 78.7595 82.6572C79.5695 82.4472 79.6995 83.4972 79.4595 84.0372C79.2648 84.4739 78.8985 84.7694 78.5339 85.0635C78.2055 85.3285 77.8785 85.5923 77.6795 85.9572C77.3695 86.5472 77.0895 87.1672 76.8195 87.7772C76.777 87.8754 76.7049 88.0067 76.624 88.1542C76.4002 88.5621 76.1087 89.0934 76.1895 89.3872C76.2767 89.7045 76.5213 89.5561 76.7435 89.4213C76.8014 89.3862 76.8578 89.352 76.9095 89.3272C77.1595 89.2072 77.5495 89.0772 77.9095 88.9572C77.945 88.943 77.9743 88.9271 78.0001 88.9131C78.0834 88.868 78.1302 88.8427 78.2295 88.9572C78.4896 89.2173 78.1643 89.6648 77.9211 89.9995L77.921 89.9996C77.8463 90.1023 77.7794 90.1944 77.7395 90.2672C77.453 90.7873 77.0032 91.1985 76.4595 91.4372C76.0595 91.6172 75.5195 92.0472 75.4595 92.4372C75.1084 95.1505 74.9114 97.8816 74.8695 100.617C74.8695 104.567 76.9695 107.477 80.2495 109.617C82.8545 111.382 85.748 112.679 88.7995 113.447C89.7361 113.665 90.5293 114.364 91.3301 115.069C92.4788 116.081 93.6433 117.107 95.2694 116.747C95.6505 116.654 96.0148 116.502 96.3494 116.297C96.5158 116.195 96.6701 116.074 96.8095 115.937C96.8478 115.895 96.8776 115.843 96.9074 115.79C96.9631 115.691 97.0187 115.593 97.1294 115.567L97.0895 115.447ZM98.4696 137.037C98.3515 136.893 98.2246 136.756 98.0896 136.627C97.5996 136.207 96.9596 135.797 96.5796 136.457C96.6107 136.282 96.7035 136.125 96.8412 136.013C96.9789 135.901 97.1522 135.842 97.3296 135.847C97.3056 135.682 97.3192 135.513 97.3694 135.354C97.4196 135.195 97.5051 135.049 97.6196 134.927C97.4396 135.157 97.8396 135.847 97.9696 136.037C98.269 136.382 98.6042 136.693 98.9696 136.967C99.3494 137.319 99.629 137.766 99.7801 138.261C99.9312 138.756 99.9483 139.283 99.8296 139.787C99.6096 140.657 98.7596 140.887 98.7696 139.907C98.7721 139.657 98.7982 139.402 98.8242 139.147L98.8242 139.147C98.9001 138.404 98.9759 137.662 98.4696 137.037ZM117.712 152.199C117.461 151.764 117.085 151.112 117.35 150.817L117.49 150.807C117.674 150.632 118.12 150.942 118.389 151.128L118.39 151.129L118.392 151.13C118.428 151.155 118.461 151.178 118.49 151.197C123.82 154.687 125.09 161.567 121.55 167.567C119.24 171.447 115.54 173.537 111.75 175.637C108.213 177.632 104.735 179.901 101.297 182.144L101.17 182.227C100.877 182.364 100.616 182.561 100.405 182.806C100.193 183.05 100.035 183.336 99.9407 183.645C99.8465 183.954 99.8181 184.28 99.8576 184.6C99.897 184.921 100.003 185.23 100.17 185.507C100.317 185.775 100.407 186.07 100.434 186.375C100.461 186.679 100.424 186.986 100.325 187.275C100.226 187.564 100.067 187.829 99.8599 188.053C99.6524 188.278 99.4002 188.456 99.1195 188.577C98.3405 189.061 97.5329 189.488 96.727 189.914L96.7267 189.914L96.7265 189.914L96.7263 189.914L96.7261 189.914L96.7258 189.914L96.7256 189.915L96.7254 189.915L96.7251 189.915L96.7249 189.915L96.7247 189.915L96.7245 189.915C96.4656 190.052 96.207 190.189 95.9495 190.327L95.8319 190.391L95.6932 190.466C94.3112 191.216 93.0895 191.88 91.4595 190.457C90.6895 189.797 90.3095 189.377 90.8295 188.697C91.4028 187.9 92.1705 187.263 93.0595 186.847C94.6895 186.137 95.1395 184.987 93.8395 183.847C93.5455 183.661 93.2164 183.536 92.8725 183.481C92.5286 183.426 92.1771 183.442 91.8395 183.527C88.4195 184.287 85.0129 185.134 81.6195 186.067C81.3648 186.213 81.1478 186.416 80.9863 186.661C80.8247 186.906 80.7231 187.186 80.6895 187.477C80.6195 189.337 79.6495 190.287 77.8995 190.897C75.8858 191.593 73.9326 192.452 72.0595 193.467C70.0195 194.567 68.2195 194.917 66.5895 192.917L67.4695 191.917L65.8495 191.607C66.8443 189.681 68.5416 189.438 70.2835 189.188C71.5534 189.006 72.847 188.82 73.9095 187.977C73.4981 187.818 73.0773 187.685 72.6495 187.577C71.3874 187.372 70.1229 187.178 68.858 186.983C66.485 186.619 64.1109 186.254 61.7495 185.817C60.754 185.636 59.7741 185.366 58.7952 185.097C57.5616 184.758 56.3296 184.419 55.0695 184.257C53.2128 184.017 51.3435 183.874 49.473 183.732H49.4728H49.4727H49.4726H49.4724H49.4723H49.4721H49.472H49.4719H49.4717H49.4716H49.4715H49.4713H49.4712H49.471H49.4709H49.4708H49.4706H49.4705H49.4704H49.4702H49.4701H49.4699H49.4698H49.4697H49.4695H49.4694H49.4693H49.4691H49.469H49.4688H49.4687H49.4686H49.4684H49.4683C47.6029 183.589 45.7362 183.447 43.8795 183.207C42.6136 183.109 41.4348 182.525 40.5895 181.577C40.0695 180.817 40.0095 178.147 40.9395 177.577C41.4642 177.25 43.3217 178.443 43.359 178.874C43.2972 177.424 44.11 178.257 44.6857 178.848C44.8831 179.05 45.0527 179.224 45.1495 179.267C46.0539 179.668 47.356 179.404 48.5307 179.165C49.0834 179.053 49.608 178.946 50.0495 178.917C52.3166 178.74 54.5687 178.406 56.7895 177.917C56.6668 177.539 56.3923 177.465 56.1179 177.39L56.0695 177.377C55.6756 177.271 55.2759 177.169 54.8734 177.066C53.6005 176.741 52.3004 176.408 51.0695 175.937C50.4796 175.714 49.8674 175.606 49.2539 175.499L49.2537 175.499L49.2536 175.499L49.2534 175.499L49.2533 175.498L49.2531 175.498L49.253 175.498L49.2528 175.498L49.2527 175.498L49.2526 175.498L49.2524 175.498L49.2523 175.498L49.2522 175.498L49.252 175.498L49.2519 175.498H49.2518C48.6285 175.389 48.0039 175.279 47.3995 175.047C46.5988 174.74 46.2166 174.268 45.7924 173.745C45.5809 173.484 45.359 173.21 45.0695 172.937C44.9066 173.086 44.7877 173.276 44.726 173.488C44.6642 173.7 44.662 173.924 44.7195 174.137C44.0295 174.097 43.6195 173.017 43.4595 172.367C43.2826 172.536 43.1568 172.751 43.0966 172.988C43.0365 173.225 43.0444 173.474 43.1195 173.707C42.7755 173.689 42.6302 173.402 42.4815 173.109C42.3017 172.754 42.1168 172.39 41.5695 172.477C41.527 172.809 41.527 173.145 41.5695 173.477C41.6295 173.687 39.5695 172.757 39.3695 172.567C39.0818 172.352 38.85 172.07 38.6934 171.747C38.5368 171.423 38.46 171.067 38.4695 170.707C38.4747 170.354 38.5496 170.006 38.6897 169.682C38.8299 169.358 39.0326 169.065 39.2862 168.82C39.5399 168.575 39.8395 168.382 40.1678 168.253C40.4961 168.124 40.8468 168.061 41.1995 168.067C43.0405 168.038 44.8594 168.471 46.4895 169.327C48.1324 170.296 49.9611 170.909 51.8564 171.124C53.7517 171.339 55.6711 171.153 57.4895 170.577C58.1184 170.42 58.7729 170.392 59.4126 170.497C60.0524 170.602 60.6639 170.837 61.2095 171.187C64.1095 173.567 66.8595 173.187 70.2095 172.187C70.9303 171.987 71.6129 171.774 72.2822 171.566C73.5814 171.163 74.8301 170.775 76.2095 170.517C76.7952 170.426 77.3097 170.141 77.8027 169.868C78.1768 169.661 78.5385 169.461 78.9095 169.357C79.3198 169.243 79.7233 169.249 80.1319 169.255H80.1321C80.5798 169.262 81.0338 169.269 81.5095 169.117C81.9538 168.976 82.2479 168.689 82.5419 168.402C82.8502 168.101 83.1584 167.8 83.6395 167.667C84.1806 167.517 84.7283 167.785 85.2483 168.04C85.6317 168.227 86 168.407 86.3395 168.407C86.9952 168.378 87.3876 168.082 87.7656 167.796C88.2869 167.403 88.7807 167.03 89.8995 167.407C90.373 167.564 90.7545 167.721 91.0752 167.852L91.0755 167.852C92.306 168.356 92.6418 168.494 93.8395 166.907C94.0357 167.007 94.239 167.114 94.4478 167.225C96.3154 168.215 98.6256 169.44 100.2 167.137C101.65 168.347 104.22 168.987 105.03 166.767C106.99 168.917 108.4 167.227 109.5 165.637C112.92 168.187 118.42 161.187 118.85 158.337C119.044 157.034 118.955 155.703 118.59 154.437C118.402 153.777 118.165 153.132 117.88 152.507C117.846 152.431 117.784 152.324 117.712 152.199ZM56.9796 7.11707C56.9901 7.24922 56.9639 7.38171 56.9039 7.49994C56.8439 7.61816 56.7524 7.71752 56.6396 7.78707C55.6881 8.44256 54.8926 9.29951 54.3096 10.2971C53.9896 10.8371 54.0696 11.2971 54.6496 11.4971C55.203 11.6649 55.773 11.7722 56.3496 11.8171C57.7996 12.0171 59.2696 12.5171 57.6196 14.0371C57.4532 14.1909 57.0505 14.3634 56.5947 14.5586C55.5981 14.9854 54.3479 15.5209 54.7596 16.2071C55.355 17.183 57.2706 16.5925 58.4868 16.2177C58.7411 16.1393 58.9649 16.0703 59.1396 16.0271C59.9547 15.8292 60.6521 15.3272 61.3449 14.8285C62.1225 14.2688 62.8941 13.7134 63.8196 13.5971C65.4169 13.467 67.0222 13.467 68.6196 13.5971C68.975 13.6256 69.3202 13.7296 69.6323 13.902C69.9444 14.0744 70.2162 14.3114 70.4296 14.5971C70.898 15.1745 71.4894 15.6403 72.1606 15.9603C72.8318 16.2803 73.566 16.4466 74.3096 16.4471C74.6469 16.4644 75.0723 16.3636 75.5185 16.258C76.62 15.9972 77.848 15.7064 78.1896 17.0871C78.2237 17.2274 78.1902 17.4426 78.1546 17.6715C78.0963 18.0459 78.0323 18.4571 78.2496 18.6371C78.9396 19.1971 79.5296 17.6371 79.5996 17.1471C79.6458 16.611 79.5521 16.0722 79.3278 15.5831C79.1034 15.0941 78.756 14.6717 78.3196 14.3571C78.0871 14.188 77.8127 14.0472 77.5355 13.9049C76.8944 13.5759 76.2381 13.2391 76.0496 12.5271C76.4453 12.6347 76.8589 12.6601 77.2648 12.6016C77.6707 12.5431 78.0603 12.402 78.4096 12.1871C78.4676 12.1427 78.5279 12.0809 78.5898 12.0175C78.7092 11.8951 78.8344 11.7668 78.9596 11.7471C79.1387 11.7797 79.3157 11.8231 79.4896 11.8771C79.8261 11.896 80.1596 11.8047 80.4396 11.6171C80.6544 11.5231 80.8871 11.5553 81.1138 11.5866C81.2248 11.6019 81.3344 11.6171 81.4396 11.6171C81.8168 11.6056 82.1878 11.5171 82.5296 11.3571C83.2139 11.0622 83.7681 10.5293 84.0896 9.85707C84.305 10.0777 84.5661 10.2485 84.8547 10.3573C85.1432 10.4662 85.4521 10.5105 85.7596 10.4871C86.0922 10.4871 86.3922 10.3443 86.6854 10.2048C86.9298 10.0884 87.1695 9.97435 87.4196 9.94707C87.5496 10.5971 88.6096 10.7171 89.1296 10.5671C89.3864 10.4472 89.6021 10.2542 89.7498 10.0123C89.8974 9.77039 89.9704 9.49028 89.9596 9.20707C89.976 8.89816 89.9319 8.58901 89.8296 8.29707C89.54 7.54518 89.0487 6.88774 88.4096 6.39707C87.2466 5.52429 85.8592 5.00055 84.4096 4.88707C82.5691 4.67729 80.7135 5.12346 79.1696 6.14707C78.7395 6.44525 78.3423 6.75329 77.9604 7.04948C76.3443 8.30288 75.0019 9.34402 72.5996 8.52707C72.104 8.40775 71.5986 8.3341 71.0896 8.30707C69.3943 8.07235 67.7119 8.22023 66.0283 8.3682C65.1298 8.44718 64.2309 8.52619 63.3296 8.54707C62.6103 8.59422 61.8879 8.55054 61.1796 8.41707C60.4201 8.24693 59.7257 7.86155 59.1796 7.30707C58.9877 7.13819 58.8343 6.9302 58.7296 6.69707C58.6889 6.5639 58.6611 6.38284 58.632 6.19414C58.5323 5.54682 58.4187 4.80955 57.7296 5.60707C57.3081 6.0053 57.0422 6.54061 56.9796 7.11707ZM109.53 163.527C109.3 163.617 107.47 163.537 107.65 163.027C107.4 163.727 106.09 164.507 105.42 163.887C104.312 162.914 106.547 161.798 107.853 161.146L107.853 161.146C108.211 160.968 108.499 160.824 108.63 160.727C109.55 159.994 110.35 159.12 111 158.137C111.203 157.852 111.485 157.349 111.813 156.766C112.679 155.227 113.862 153.124 114.74 152.957C115.95 152.727 116.47 154.537 115.67 155.217C116.57 155.767 116.64 157.077 116.32 158.077C115.94 159.327 115.15 159.507 113.94 159.507C114.37 161.307 112.36 163.787 110.8 161.897C110.715 162.243 110.558 162.568 110.339 162.848C110.12 163.129 109.844 163.361 109.53 163.527ZM57.9182 94.4915C58.0718 94.888 58.2854 95.2755 58.5033 95.6708C58.8413 96.2838 59.1894 96.9152 59.3396 97.6271C59.5513 98.7745 59.5172 99.9538 59.2396 101.087C59.2202 101.193 59.1789 101.354 59.1288 101.549L59.1287 101.549C58.843 102.662 58.2683 104.899 59.7996 104.567C60.023 104.138 60.0027 103.547 59.9823 102.951C59.9552 102.16 59.9277 101.358 60.4696 100.907C60.9478 100.509 61.5501 100.388 62.1491 100.267C62.7401 100.148 63.3277 100.03 63.7896 99.6471C64.4966 98.9821 65.0055 98.134 65.2596 97.1971C64.7786 96.7276 64.1462 96.4446 63.4756 96.3988C62.8049 96.353 62.1399 96.5473 61.5996 96.9471C60.8729 97.5253 60.6224 98.2928 60.3616 99.0922L60.3615 99.0923L60.3615 99.0924L60.3615 99.0925L60.3613 99.0932C60.2884 99.3165 60.2147 99.5423 60.1296 99.7671C60.1095 99.4768 60.0967 99.1924 60.0842 98.9128C60.0281 97.6612 59.9762 96.5042 59.2896 95.3271C59.2019 95.1735 59.1057 95.0252 59.0017 94.8828C60.3436 95.1164 61.7339 94.5056 61.4692 92.7522C61.1992 90.9022 59.4692 90.7522 58.1792 90.7022L58.3492 90.5822C59.7592 89.5122 60.9692 86.7422 59.0892 85.5822C58.7249 85.3278 58.2759 85.2252 57.8372 85.2961C57.3986 85.367 57.0048 85.6059 56.7392 85.9622C56.4428 86.3403 56.2067 86.7619 56.0392 87.2122C55.9863 87.3391 55.9434 87.5007 55.899 87.6679C55.8175 87.9749 55.7311 88.3003 55.5692 88.4622C55.4431 88.2534 55.3737 88.0124 55.3026 87.7656C55.2103 87.445 55.1152 87.1147 54.8892 86.8322C54.5408 86.3999 54.0649 86.0884 53.5292 85.9422C52.9347 85.8013 52.3102 85.8625 51.7543 86.116C51.1984 86.3695 50.7427 86.8009 50.4592 87.3422C50.2162 87.8099 50.1278 88.3427 50.2069 88.8638C50.286 89.385 50.5284 89.8676 50.8992 90.2422C51.3019 90.6841 51.8017 91.0264 52.3592 91.2422C51.1092 91.4622 49.7792 92.1222 50.4792 93.6522C50.5932 93.9155 50.7723 94.1455 50.9998 94.3204C51.2272 94.4954 51.4955 94.6096 51.7792 94.6522C52.3701 94.7393 53.6928 94.3293 53.9388 93.7127C53.8167 94.0891 53.78 94.4882 53.8317 94.881C53.8862 95.2949 54.0374 95.6902 54.273 96.0349C54.5086 96.3795 54.822 96.6639 55.1879 96.8649C55.5539 97.066 55.962 97.1781 56.3792 97.1922C58.011 97.1187 57.6458 95.6874 57.3636 94.5816L57.3636 94.5816C57.2999 94.3321 57.2405 94.0992 57.2092 93.9022C57.4039 94.1364 57.6471 94.334 57.9182 94.4915ZM55.0292 91.3622C54.1692 92.8022 56.2292 92.9622 56.7392 91.9122C57.2692 90.8222 56.0692 90.5022 55.3492 91.0222C55.2229 91.1153 55.1145 91.2305 55.0292 91.3622ZM126.529 151.387C123.939 154.157 124.919 162.617 131.059 160.617C135.499 159.167 133.689 152.837 130.179 151.077C128.539 150.257 127.329 150.527 126.529 151.387ZM143.358 122.166C143.566 121.123 143.731 120.298 144.529 119.937C145.759 119.377 148.519 119.767 148.739 121.247C148.832 121.871 148.525 122.584 148.216 123.301C147.792 124.286 147.363 125.28 147.959 126.067C148.488 126.766 149.263 126.823 150.018 126.879C150.734 126.932 151.432 126.984 151.889 127.577C152.469 128.307 152.199 130.067 151.889 130.857C151.358 132.225 150.318 132.021 149.243 131.81C148.353 131.635 147.439 131.456 146.769 132.157C146.373 132.577 146.282 133.197 146.189 133.831C146.087 134.527 145.982 135.241 145.469 135.727C144.489 136.657 143.289 136.247 142.149 135.727C140.646 135.046 140.919 133.821 141.198 132.575C141.488 131.277 141.783 129.957 140.079 129.207C139.651 129.021 139.214 128.892 138.802 128.77C137.403 128.357 136.298 128.031 136.869 125.837C137.357 123.988 138.844 124.306 140.301 124.618C140.387 124.636 140.473 124.654 140.559 124.672L140.617 124.685L140.679 124.697C142.529 125.077 142.859 124.697 143.249 122.697C143.289 122.515 143.324 122.337 143.358 122.166ZM65.4795 17.277C65.464 17.3003 65.4433 17.3197 65.419 17.3336C65.3947 17.3475 65.3675 17.3555 65.3395 17.357C65.2438 17.357 65.1318 17.296 65.0269 17.2388C64.9674 17.2063 64.9102 17.1751 64.8595 17.157C63.0495 16.577 61.7395 17.787 61.3995 19.597C61.0595 21.407 61.5395 23.597 63.3395 24.537L63.5195 24.627C63.6828 24.6959 63.8614 24.7201 64.0371 24.6973C64.2128 24.6745 64.3793 24.6053 64.5195 24.497C64.9546 24.2484 65.0901 24.3467 65.395 24.5678C65.4335 24.5958 65.4747 24.6256 65.5195 24.657C65.9395 24.8676 66.4161 24.9375 66.8788 24.8565C67.3416 24.7755 67.7661 24.5478 68.0895 24.207C68.6536 23.7801 69.1228 23.2404 69.4671 22.6224C69.8114 22.0043 70.0234 21.3214 70.0895 20.617C70.1782 19.8881 70.0348 19.1497 69.6795 18.507C69.3548 17.9848 68.8435 17.6059 68.2495 17.447C67.9947 17.373 67.7336 17.3228 67.4695 17.297C67.431 17.297 67.3715 17.308 67.3062 17.3202C67.1002 17.3584 66.8353 17.4075 66.9795 17.157C67.0948 17.0165 67.2184 16.8829 67.3495 16.757C67.5495 16.507 67.7295 16.167 67.3495 16.057C67.1693 16.0354 66.9874 16.0818 66.8395 16.187C66.7612 16.234 66.6911 16.3109 66.6235 16.3851C66.5615 16.4531 66.5017 16.5188 66.4395 16.557C66.4225 16.5675 66.4087 16.5764 66.3974 16.5837C66.3698 16.6017 66.3574 16.6097 66.3492 16.6066C66.3424 16.6041 66.3385 16.594 66.3313 16.5757C66.3236 16.556 66.3122 16.5268 66.2895 16.487C66.2511 16.3981 66.2274 16.3035 66.2195 16.207C66.1829 15.8827 66.0881 15.5676 65.9395 15.277C65.7095 14.907 64.9395 14.357 64.6695 14.987C64.4256 15.5561 64.81 16.0599 65.1446 16.4984C65.1804 16.5454 65.2157 16.5916 65.2495 16.637C65.2656 16.6884 65.3064 16.7563 65.3508 16.8302C65.4446 16.9861 65.5542 17.1684 65.4795 17.277ZM28.3033 151.769C29.1045 151.92 29.8497 152.286 30.4595 152.827C31.0823 153.389 31.5803 154.076 31.9214 154.842C32.2624 155.609 32.4389 156.438 32.4395 157.277V157.507C32.4433 158.337 32.2591 159.157 31.9005 159.905C31.542 160.653 31.0186 161.31 30.3695 161.827C29.618 162.342 28.7593 162.679 27.8583 162.812C26.9574 162.945 26.0379 162.872 25.1695 162.597C24.3532 162.279 23.6235 161.773 23.0397 161.119C22.4558 160.466 22.0344 159.684 21.8095 158.837C21.5576 157.808 21.5922 156.729 21.9095 155.717C22.223 154.815 22.7507 154.002 23.4474 153.349C24.1442 152.696 24.9891 152.222 25.9095 151.967C26.6748 151.686 27.5021 151.617 28.3033 151.769ZM29.3995 156.907C29.7309 156.607 29.9935 156.238 30.1695 155.827V155.797C30.2295 155.467 29.8995 155.207 29.6295 155.047C28.8859 154.654 28.4069 155.533 27.9134 156.439C27.3916 157.397 26.8536 158.385 25.9695 157.927C25.842 157.86 25.7099 157.703 25.5711 157.537C25.2963 157.21 24.995 156.851 24.6495 157.097C23.9095 157.627 24.6195 158.767 25.0895 159.207C25.2924 159.398 25.5348 159.541 25.7995 159.627C26.1337 159.682 26.4764 159.643 26.7902 159.516C27.1041 159.389 27.3771 159.179 27.5795 158.907C28.0342 158.474 28.4585 157.985 28.8813 157.498C29.0537 157.299 29.2257 157.101 29.3995 156.907ZM143.44 104.577C143.303 105.296 143.096 105.999 142.82 106.677C142.482 107.403 142.315 108.196 142.33 108.997C142.23 109.545 142.082 110.084 141.89 110.607C141.801 110.903 141.747 111.208 141.73 111.517C141.676 112.876 141.185 114.181 140.33 115.237C140.119 115.513 139.838 115.727 139.516 115.857C139.194 115.987 138.843 116.029 138.5 115.977C138.35 115.977 138.11 115.807 138.1 115.707C138.09 115.482 138.157 115.26 138.29 115.077C138.501 114.888 138.729 114.717 138.97 114.567C139.241 114.367 139.47 114.114 139.642 113.824C139.813 113.533 139.925 113.211 139.97 112.877C140.098 111.937 140.354 111.018 140.73 110.147C140.848 109.762 140.905 109.36 140.9 108.957C140.9 108.477 140.9 107.957 140.98 107.497C141.05 106.797 141.15 106.097 141.25 105.407C141.304 105.067 141.388 104.733 141.5 104.407C141.716 103.311 141.783 102.191 141.7 101.077C141.7 100.491 141.759 99.9052 141.819 99.3192C141.844 99.0751 141.869 98.8311 141.89 98.587C142.034 97.6744 141.909 96.7394 141.53 95.897C141.13 95.1454 140.693 94.4145 140.22 93.707C139.992 93.361 139.871 92.956 139.871 92.542C139.871 92.1279 139.992 91.7229 140.22 91.377C140.816 90.2114 140.979 88.8717 140.68 87.597C140.504 84.9332 140.504 82.2607 140.68 79.597C140.534 77.6949 140.565 75.7835 140.77 73.887C140.893 73.2242 141.095 72.5763 141.296 71.9289L141.296 71.9286C141.666 70.7397 142.036 69.5524 141.92 68.277C141.83 67.5282 141.562 66.8117 141.14 66.187C141.018 65.99 140.905 65.7824 140.793 65.576L140.793 65.5757C140.638 65.2899 140.484 65.0066 140.31 64.757C140.174 64.5903 139.993 64.4655 139.79 64.397C139.24 64.2433 138.735 63.9585 138.32 63.567C138.226 63.4773 138.158 63.3636 138.124 63.2382C138.09 63.1129 138.091 62.9806 138.127 62.8558C138.163 62.731 138.233 62.6185 138.329 62.5306C138.424 62.4426 138.542 62.3826 138.67 62.357C138.923 62.2954 139.186 62.2894 139.441 62.3395C139.697 62.3896 139.938 62.4945 140.15 62.647C141.044 63.22 142.087 63.5189 143.15 63.507C143.554 63.5636 143.933 63.7374 144.24 64.007C144.47 64.2031 144.753 64.3275 145.053 64.3649C145.353 64.4022 145.658 64.3508 145.93 64.217C146.156 64.1328 146.198 64.0318 146.254 63.8977C146.285 63.8248 146.319 63.7421 146.39 63.647C146.469 63.5329 146.591 63.4552 146.728 63.4308C146.865 63.4064 147.005 63.4374 147.12 63.517C147.234 63.5965 147.311 63.7182 147.336 63.8551C147.36 63.992 147.329 64.1329 147.25 64.247C147.134 64.4285 146.929 64.4803 146.73 64.5307C146.534 64.5803 146.344 64.6284 146.25 64.797C146.06 65.137 146.58 65.687 146.85 65.897C147.123 66.085 147.447 66.1861 147.78 66.187C147.84 66.187 147.903 66.181 147.968 66.175C148.194 66.1539 148.432 66.1316 148.58 66.357C148.619 66.4264 148.642 66.5037 148.648 66.5834C148.653 66.663 148.64 66.7428 148.61 66.8168C148.581 66.8908 148.534 66.9572 148.475 67.0109C148.416 67.0646 148.346 67.1043 148.27 67.127C148.011 67.2092 147.711 67.0913 147.402 66.9699C147.185 66.8846 146.964 66.7976 146.75 66.777C145.57 66.657 145 67.097 144.84 68.247L144.831 68.3084C144.644 69.6076 144.458 70.8974 144.36 72.197C144.163 74.9295 144.217 77.6742 144.52 80.397C144.499 81.5708 144.713 82.737 145.15 83.827C145.362 84.1949 145.636 84.4705 145.914 84.7504C146.263 85.1019 146.619 85.4602 146.87 86.017C147.376 87.3494 148.114 88.5818 149.05 89.657C149.762 90.3667 150.613 90.9216 151.55 91.287C153.408 91.9963 155.088 93.1059 156.47 94.537C156.973 95.1955 157.315 95.9626 157.47 96.777C157.768 98.1342 157.932 99.5176 157.96 100.907C158.045 101.707 158.175 102.502 158.35 103.287C158.35 103.287 158.35 103.407 158.42 103.427C158.675 103.641 158.87 103.917 158.988 104.229C159.105 104.541 159.14 104.878 159.09 105.207V107.737C159.1 107.869 159.072 108.001 159.01 108.117C158.93 108.237 158.79 108.397 158.67 108.397C158.55 108.397 158.38 108.267 158.3 108.147C158.203 107.979 158.145 107.791 158.13 107.597C158.066 107.126 158.016 106.659 157.966 106.192C157.929 105.844 157.892 105.496 157.85 105.147C157.76 104.507 157.67 103.867 157.57 103.227C157.524 102.933 157.467 102.656 157.412 102.385C157.347 102.065 157.283 101.752 157.24 101.427C157.125 100.598 157.024 99.7726 156.923 98.9466L156.923 98.9462L156.923 98.9458L156.922 98.9454L156.922 98.945L156.922 98.9446L156.922 98.9442L156.922 98.9437L156.922 98.9433L156.922 98.9429L156.922 98.9425L156.922 98.9421L156.922 98.9417L156.922 98.9413L156.922 98.9409L156.922 98.9405L156.922 98.94L156.922 98.9396L156.922 98.9392L156.922 98.9388L156.922 98.9384L156.922 98.938L156.922 98.9376L156.922 98.9372L156.922 98.9367L156.921 98.9363L156.921 98.9356L156.921 98.9348L156.921 98.934L156.921 98.9332L156.921 98.9324L156.921 98.9317L156.921 98.9309L156.921 98.9301L156.921 98.9293L156.921 98.9286L156.92 98.9278L156.92 98.927L156.92 98.9262L156.92 98.9254L156.92 98.9247L156.92 98.9239L156.92 98.9231L156.92 98.9223L156.92 98.9215L156.92 98.9208L156.92 98.92L156.919 98.9192L156.919 98.9184C156.845 98.3087 156.77 97.6988 156.69 97.087C156.69 97.0031 156.64 96.9275 156.588 96.8495C156.56 96.8067 156.531 96.7631 156.51 96.717C156.484 96.7638 156.453 96.808 156.421 96.8515C156.366 96.9288 156.312 97.0038 156.3 97.087C156.275 97.282 156.249 97.4766 156.224 97.6711L156.223 97.6768C156.107 98.5675 155.991 99.4539 155.91 100.347C155.774 101.437 155.984 102.542 156.51 103.507C156.622 103.709 156.771 103.888 156.922 104.069L156.922 104.069C157.04 104.211 157.158 104.353 157.26 104.507C157.354 104.671 157.406 104.857 157.41 105.047C157.471 106.542 157.418 108.04 157.25 109.527C157.115 110.876 157.055 112.231 157.07 113.587C157.053 113.925 156.964 114.255 156.808 114.554C156.653 114.854 156.434 115.117 156.167 115.324C155.9 115.531 155.591 115.678 155.262 115.755C154.932 115.831 154.591 115.835 154.26 115.767C154.149 115.733 154.044 115.683 153.95 115.617C153.59 115.357 153.59 115.197 154 115.047C154.546 114.844 155.016 114.478 155.347 113.998C155.678 113.519 155.853 112.95 155.85 112.367C155.91 111.677 155.92 110.987 155.92 110.297C155.92 109.97 155.913 109.631 155.907 109.286V109.285V109.285V109.284V109.284V109.284V109.284V109.283V109.283V109.283V109.282V109.282V109.282V109.281V109.281C155.893 108.573 155.879 107.842 155.92 107.137C155.943 106.484 155.754 105.842 155.38 105.307L154.47 103.967H154.36C154.378 104.205 154.412 104.443 154.46 104.677C154.505 104.845 154.561 105.013 154.616 105.181L154.617 105.182C154.684 105.383 154.75 105.585 154.8 105.787C154.942 106.848 154.67 107.922 154.04 108.787C153.37 109.997 152.73 111.227 152.14 112.487C151.878 113.14 151.654 113.808 151.47 114.487C151.388 114.738 151.258 114.971 151.087 115.172C150.915 115.373 150.705 115.538 150.47 115.657C149.844 115.967 149.195 116.227 148.53 116.437C148.471 116.468 148.406 116.487 148.34 116.492C148.273 116.498 148.207 116.49 148.143 116.47C148.08 116.449 148.021 116.417 147.971 116.373C147.92 116.33 147.879 116.277 147.85 116.217C147.71 115.897 147.93 115.697 148.14 115.527C148.178 115.495 148.216 115.463 148.254 115.432L148.409 115.301L148.41 115.301C148.727 115.035 149.044 114.769 149.38 114.527C149.885 114.118 150.269 113.579 150.49 112.967C150.716 112.481 150.952 112.003 151.187 111.525L151.187 111.525C151.305 111.286 151.423 111.047 151.54 110.807C152.37 109.325 152.739 107.63 152.6 105.937C152.54 105.567 152.429 105.206 152.27 104.867C151.86 103.947 151.42 103.037 150.98 102.127C150.894 101.952 150.794 101.784 150.693 101.616C150.581 101.429 150.469 101.242 150.38 101.047C150.182 100.627 150.019 100.192 149.89 99.747C149.76 99.257 149.53 99.027 149.04 99.117C147.786 99.2758 146.514 99.2183 145.28 98.947C145.05 98.947 144.88 98.947 144.87 99.207C144.815 99.725 144.795 100.246 144.81 100.767C144.858 101.471 144.941 102.172 145.06 102.867C145.259 104.052 145.259 105.262 145.06 106.447C144.981 107.486 145.079 108.531 145.35 109.537C145.619 110.676 145.71 111.85 145.62 113.017C145.498 113.382 145.341 113.734 145.15 114.067C145.047 114.299 145.013 114.556 145.05 114.807C145.13 115.267 145.05 115.587 144.54 115.667C144.115 115.722 143.684 115.722 143.26 115.667C143.16 115.635 143.069 115.581 142.995 115.508C142.92 115.435 142.864 115.346 142.83 115.247C142.83 115.127 143 114.877 143.15 114.797C143.563 114.587 143.884 114.23 144.05 113.797C144.282 113.315 144.375 112.779 144.32 112.247C144.29 111.881 144.29 111.513 144.32 111.147C144.318 109.691 144.14 108.24 143.79 106.827C143.71 106.327 143.63 105.827 143.54 105.327C143.559 105.074 143.503 104.84 143.444 104.598L143.44 104.577ZM133.679 142.307C132.678 142.132 131.751 141.663 131.016 140.96C130.281 140.258 129.771 139.353 129.55 138.36C129.329 137.368 129.408 136.332 129.776 135.384C130.144 134.436 130.785 133.619 131.617 133.035C132.45 132.452 133.437 132.128 134.454 132.106C135.47 132.083 136.47 132.363 137.328 132.909C138.186 133.455 138.862 134.243 139.272 135.174C139.681 136.105 139.806 137.136 139.629 138.137C139.455 139.123 138.999 140.028 138.327 140.749L140.029 143.187C140.127 143.326 140.197 143.482 140.235 143.648C140.272 143.813 140.276 143.984 140.248 144.151C140.219 144.319 140.157 144.479 140.067 144.622C139.976 144.765 139.858 144.889 139.719 144.987C139.437 145.184 139.089 145.263 138.749 145.207C138.414 145.146 138.116 144.956 137.919 144.677L136.138 142.139C135.351 142.391 134.508 142.453 133.679 142.307ZM135.009 134.727C134.514 134.644 134.006 134.708 133.548 134.913C133.09 135.117 132.702 135.452 132.433 135.875C132.164 136.299 132.026 136.792 132.036 137.294C132.046 137.795 132.204 138.282 132.49 138.695C132.776 139.107 133.177 139.426 133.643 139.611C134.109 139.797 134.62 139.84 135.111 139.737C135.602 139.634 136.051 139.388 136.403 139.031C136.755 138.673 136.994 138.22 137.089 137.727C137.152 137.393 137.149 137.05 137.078 136.718C137.008 136.386 136.871 136.071 136.678 135.791C136.484 135.512 136.237 135.274 135.95 135.091C135.664 134.909 135.344 134.785 135.009 134.727ZM135.579 53.2073C135.439 52.991 135.356 52.7431 135.337 52.4863C135.318 52.2295 135.363 51.9719 135.469 51.7373C135.522 51.6524 135.566 51.5618 135.599 51.4673C135.614 51.3343 135.614 51.2002 135.599 51.0673H135.259L135.529 50.7272C135.692 50.5533 135.816 50.3463 135.892 50.1202C135.968 49.8942 135.994 49.6544 135.969 49.4173C135.954 49.3548 135.954 49.2897 135.969 49.2272C136.082 48.3868 135.924 47.5323 135.519 46.7873C135.414 46.4618 135.34 46.1269 135.299 45.7873C135.249 45.4173 135.099 45.1573 134.879 45.1373C134.659 45.1173 134.439 45.3373 134.379 45.7173C134.256 46.4414 134.183 47.1731 134.159 47.9072C134.113 49.8391 133.946 51.7662 133.659 53.6773C133.626 53.939 133.598 54.2031 133.57 54.4675C133.514 54.9909 133.459 55.5157 133.359 56.0273C133.209 56.709 133.005 57.3778 132.749 58.0273C132.682 58.2381 132.565 58.4298 132.408 58.5863C132.252 58.7429 132.06 58.8598 131.849 58.9273C131.369 59.0873 131.039 58.7973 131.169 58.3073C131.241 58.0122 131.363 57.7315 131.529 57.4772C132.344 56.2294 132.81 54.7861 132.879 53.2972C132.909 53.0448 132.939 52.7918 132.969 52.5384L132.969 52.5362L132.969 52.5359L132.969 52.5356L132.969 52.5354L132.969 52.5351L132.969 52.5348L132.969 52.5345L132.969 52.5343L132.97 52.534L132.97 52.5337L132.97 52.5334L132.97 52.5331L132.97 52.5328L132.97 52.5325L132.97 52.5322L132.97 52.5317L132.97 52.5312L132.97 52.5307L132.97 52.5302L132.97 52.5297L132.97 52.5292L132.97 52.5286C133.072 51.6712 133.175 50.8092 133.259 49.9473C133.382 48.7914 133.406 47.6271 133.329 46.4673C133.211 45.4901 133.293 44.499 133.572 43.5549C133.85 42.6108 134.319 41.7336 134.949 40.9772C135.618 40.0611 136.473 39.2976 137.459 38.7373C137.984 38.4788 138.537 38.2781 139.089 38.0781C139.263 38.015 139.437 37.952 139.609 37.8873C139.749 37.8323 139.894 37.7848 140.039 37.7373L140.039 37.7373C140.184 37.6898 140.329 37.6423 140.469 37.5872C140.623 37.5362 140.768 37.4621 140.899 37.3673C141.005 37.2889 141.083 37.1784 141.121 37.0522C141.158 36.926 141.154 36.791 141.109 36.6673C141.075 36.553 141.003 36.454 140.905 36.3866C140.806 36.3193 140.688 36.2877 140.569 36.2972C140.119 36.2662 139.67 36.3707 139.279 36.5973C138.459 37.0773 138.279 37.0373 137.609 36.3073C137.565 36.2552 137.521 36.2031 137.478 36.1512C137.354 36.0038 137.232 35.8578 137.099 35.7173C137.029 35.6586 136.983 35.5762 136.97 35.4857C136.957 35.3952 136.978 35.3032 137.029 35.2272C137.149 35.0396 137.259 34.846 137.359 34.6473C137.434 34.5281 137.459 34.3846 137.429 34.2473C137.358 34.1092 137.329 33.9534 137.345 33.7989C137.361 33.6444 137.421 33.4979 137.519 33.3773C137.761 33.0526 137.875 32.6504 137.839 32.2473C137.848 32.1691 137.865 32.0921 137.889 32.0173L138.089 32.2073C138.2 32.2808 138.331 32.32 138.464 32.32C138.597 32.32 138.728 32.2808 138.839 32.2073C139.013 32.1082 139.202 32.0405 139.399 32.0073C139.538 31.97 139.666 31.9033 139.777 31.8119C139.887 31.7204 139.977 31.6063 140.039 31.4772C140.349 30.8672 140.519 30.8473 140.869 31.4273C141.021 31.6598 141.223 31.8558 141.46 32.001C141.697 32.1463 141.963 32.2372 142.239 32.2673C143.109 32.4473 143.969 32.6673 144.819 32.9173C145.094 33.0186 145.343 33.179 145.549 33.3873C145.735 33.56 145.911 33.743 146.088 33.9261C146.299 34.1457 146.51 34.3654 146.739 34.5673C147.072 34.8572 147.342 35.2112 147.535 35.6081C147.727 36.005 147.837 36.4367 147.859 36.8773C147.959 38.0272 148.049 39.1673 148.079 40.3173C148.094 40.8003 148.054 41.2834 147.959 41.7573C147.959 41.7893 147.952 41.8385 147.944 41.8973L147.942 41.9111C147.91 42.1282 147.862 42.4602 148.039 42.5373C148.201 42.6076 148.313 42.4848 148.411 42.3779C148.452 42.333 148.491 42.2909 148.529 42.2673C148.635 42.2004 148.755 42.1584 148.88 42.1446C149.005 42.1307 149.131 42.1453 149.249 42.1873C149.739 42.3573 149.669 42.5873 149.349 42.8873L149.313 42.9216L149.249 42.9818C148.902 43.3136 148.293 43.8948 147.749 43.9673C147.293 43.9441 146.843 43.8601 146.409 43.7173C146.409 43.6171 146.418 43.5044 146.428 43.3861L146.428 43.3859V43.3856V43.3854V43.3851V43.3849V43.3846V43.3844V43.3842V43.3839V43.3837V43.3834V43.3832V43.383V43.3828V43.3826V43.3825V43.3823V43.3821V43.3819V43.3818C146.459 43.0052 146.494 42.5728 146.259 42.3073C146.259 42.2743 146.181 42.2848 146.099 42.2958C146.057 42.3014 146.013 42.3073 145.979 42.3073C146.19 42.124 146.33 41.8729 146.376 41.5973C146.422 41.3216 146.37 41.0387 146.229 40.7972C146.006 40.9294 145.94 41.1435 145.873 41.3606L145.873 41.3615L145.872 41.3622C145.859 41.4074 145.845 41.4526 145.829 41.4973C145.7 42.0942 145.4 42.6404 144.964 43.0686C144.529 43.4968 143.978 43.7883 143.379 43.9072L143.039 43.9873V46.1873L142.829 46.0073C142.818 46.2004 142.846 46.3938 142.911 46.5759C142.977 46.7581 143.078 46.9252 143.209 47.0673C143.209 47.2762 143.261 47.304 143.292 47.321C143.329 47.3405 143.338 47.3454 143.209 47.5973C143.109 47.8918 142.941 48.1589 142.719 48.3773C142.568 48.5124 142.401 48.6232 142.235 48.7336L142.235 48.7337C142.081 48.8357 141.928 48.9373 141.789 49.0573C141.645 49.1815 141.58 49.2859 141.526 49.3719C141.472 49.4589 141.43 49.5269 141.329 49.5773C141.21 49.6292 141.076 49.6354 140.952 49.5949C140.829 49.5543 140.724 49.4697 140.659 49.3573C140.551 49.1825 140.51 48.9739 140.545 48.7711C140.58 48.5684 140.688 48.3855 140.849 48.2573C140.897 48.2234 140.944 48.191 140.99 48.1594L140.991 48.1589C141.406 47.8742 141.72 47.6591 141.459 47.0472C141.153 46.3887 141.032 45.6593 141.109 44.9373C140.904 44.9488 140.705 45.0116 140.53 45.1199C140.355 45.2282 140.211 45.3786 140.109 45.5573C139.865 45.9728 139.68 46.4205 139.559 46.8873C139.449 47.456 139.369 48.0301 139.319 48.6073C139.059 48.3473 138.939 48.3773 138.789 48.7573C138.785 48.8072 138.785 48.8573 138.789 48.9072C138.64 49.6229 138.442 50.3278 138.199 51.0173C137.959 51.8473 138.509 52.7173 139.399 52.3173C139.617 52.22 139.657 52.1391 139.699 52.0558C139.73 51.9935 139.762 51.93 139.869 51.8573C140.659 51.2973 140.649 52.4873 140.129 52.9173C139.984 53.0386 139.814 53.134 139.645 53.2298L139.644 53.2299C139.464 53.3314 139.283 53.4335 139.129 53.5673C139.058 53.6286 138.994 53.6961 138.931 53.7622C138.728 53.9762 138.538 54.176 138.179 54.1073C137.624 53.9522 137.06 53.8353 136.489 53.7573C136.42 53.7376 136.357 53.7207 136.299 53.7053C135.916 53.6027 135.77 53.5636 135.579 53.2073ZM45.4096 158.167C45.4096 158.629 45.1665 159.035 44.8013 159.263L45.3615 160.978C45.4811 160.958 45.6041 160.947 45.7296 160.947C46.917 160.947 47.8796 161.91 47.8796 163.097C47.8796 163.305 47.8499 163.507 47.7946 163.698L49.137 164.294C49.3723 163.98 49.7472 163.777 50.1694 163.777C50.8818 163.777 51.4594 164.355 51.4594 165.067C51.4594 165.78 50.8818 166.357 50.1694 166.357C49.4569 166.357 48.8794 165.78 48.8794 165.067C48.8794 164.995 48.8854 164.924 48.8969 164.854L47.5426 164.253C47.1607 164.851 46.4914 165.247 45.7296 165.247C44.9663 165.247 44.2959 164.849 43.9144 164.25L43.1981 164.574C43.2119 164.65 43.2192 164.728 43.2192 164.807C43.2192 165.52 42.6416 166.097 41.9292 166.097C41.2167 166.097 40.6392 165.52 40.6392 164.807C40.6392 164.095 41.2167 163.517 41.9292 163.517C42.3439 163.517 42.713 163.713 42.949 164.017L43.6635 163.694C43.6089 163.504 43.5796 163.304 43.5796 163.097C43.5796 162.25 44.0694 161.517 44.7813 161.167L44.2219 159.453C44.1881 159.456 44.154 159.457 44.1196 159.457C43.4071 159.457 42.8296 158.88 42.8296 158.167C42.8296 157.455 43.4071 156.877 44.1196 156.877C44.832 156.877 45.4096 157.455 45.4096 158.167ZM157.77 91.0575V91.0573C157.76 89.0566 157.746 86.3417 156.05 85.1873C155.277 84.6429 154.373 84.4305 153.475 84.2192C152.723 84.0423 151.975 83.8663 151.31 83.4973C150.66 83.1373 149.57 81.7973 150.8 81.2973C151.286 81.0964 151.767 81.3874 152.238 81.6724C152.657 81.9265 153.069 82.1757 153.47 82.0673C154.32 81.8373 153.47 81.0673 153.01 80.7173C151.448 79.4773 150.218 77.8693 149.43 76.0373C148.776 74.6939 148.665 73.1504 149.12 71.7273C149.76 70.1273 151.12 70.0273 152.34 71.1673C152.421 71.2452 152.502 71.3318 152.585 71.4198C152.946 71.806 153.333 72.2202 153.92 72.0573C155.29 71.6773 154.49 70.3873 153.92 69.8373C153.647 69.5826 153.224 69.357 152.784 69.1221C152.015 68.7112 151.191 68.2716 151.02 67.5973C150.67 66.2673 151.72 66.5073 152.46 66.9173C153.2 67.3273 153.64 67.3373 153.36 66.4573C153.155 65.8131 152.515 65.41 151.96 65.0598C151.757 64.9316 151.565 64.8105 151.41 64.6873C150.893 64.2635 150.367 63.8631 149.842 63.4639C149.129 62.9212 148.419 62.3808 147.74 61.7873C146.383 60.7009 145.217 59.3964 144.29 57.9273C143.94 57.2873 143.09 54.3273 144.54 54.3273C145.016 54.3273 145.332 54.838 145.646 55.3474C145.912 55.7783 146.178 56.2081 146.54 56.3273C148.223 56.8963 147.133 54.1673 146.558 52.7265C146.405 52.3442 146.288 52.0526 146.27 51.9373C146.18 51.3873 146.27 50.0373 147.01 50.5573C147.109 50.6295 147.17 50.8886 147.237 51.1755C147.365 51.7229 147.517 52.3716 148.01 52.0173C148.23 51.8573 148.08 51.2373 148.01 51.0173C147.972 50.756 147.921 50.4991 147.87 50.2458L147.87 50.2454L147.87 50.2452L147.87 50.245L147.87 50.2447C147.679 49.2867 147.499 48.3807 148.1 47.4873C148.891 46.6037 149.733 45.7657 150.62 44.9773C150.687 44.8977 150.759 44.8145 150.834 44.7284C151.38 44.1004 152.066 43.3111 152.11 42.5373C152.128 42.2071 152.029 41.9037 151.932 41.6085C151.771 41.117 151.617 40.6484 152.03 40.1173C153.063 38.7953 154.712 43.1069 155.136 44.2168L155.138 44.2211C155.168 44.3013 155.193 44.3645 155.21 44.4073C156.181 46.9966 156.891 49.6766 157.33 52.4073C158.014 56.3844 158.283 60.4081 158.552 64.43V64.4302C158.657 65.9904 158.761 67.5504 158.89 69.1073C159.17 73.5562 159.17 78.0184 158.89 82.4673C158.869 82.9253 158.927 83.6697 158.996 84.5558C159.229 87.5386 159.587 92.1265 157.49 92.7973C157.495 92.701 157.486 92.6068 157.477 92.5163V92.5162V92.5161V92.5159V92.5158C157.451 92.2493 157.429 92.0165 157.78 91.8673C157.773 91.6168 157.772 91.345 157.77 91.0586V91.0583V91.0581V91.0578V91.0575ZM137.46 181.387C137.066 179.644 137.166 177.826 137.75 176.137C138.45 174.516 138.892 172.795 139.06 171.037C139.1 169.107 137.99 167.187 135.8 167.957C135.103 168.259 134.528 168.786 134.166 169.453C133.803 170.119 133.674 170.888 133.8 171.637C132.86 170.177 131.24 168.447 129.34 169.637C127.44 170.827 127.56 173.227 128.18 175.117C128.832 177.03 130.092 178.678 131.767 179.81C133.442 180.942 135.441 181.495 137.46 181.387ZM141.689 188.307C141.609 188.221 141.488 188.114 141.355 187.997C141.042 187.721 140.663 187.387 140.599 187.127C140.419 186.537 141.049 186.347 141.529 186.487C141.919 186.665 142.297 186.868 142.659 187.097C143.058 187.245 143.486 187.3 143.909 187.257C144.709 187.257 145.459 187.257 146.229 187.327C146.893 187.387 146.777 187.203 146.527 186.806C146.487 186.742 146.444 186.672 146.399 186.597C145.686 184.973 145.569 183.149 146.069 181.447C146.532 179.785 147.603 178.357 149.069 177.447C149.929 176.884 150.91 176.533 151.931 176.422C152.953 176.312 153.986 176.446 154.946 176.813C155.906 177.18 156.765 177.77 157.452 178.534C158.139 179.298 158.635 180.214 158.899 181.207C159.082 181.833 159.113 182.493 158.989 183.133C158.866 183.773 158.592 184.374 158.189 184.887C157.806 185.362 157.284 185.706 156.696 185.87C156.108 186.034 155.484 186.01 154.91 185.802C154.336 185.594 153.841 185.212 153.495 184.709C153.149 184.206 152.969 183.608 152.979 182.997C152.971 182.789 153.025 182.583 153.134 182.405C153.242 182.227 153.401 182.085 153.589 181.997C153.761 181.918 153.955 181.902 154.138 181.951C154.321 182.001 154.48 182.112 154.589 182.267C154.742 182.521 154.701 182.632 154.63 182.823L154.63 182.823C154.621 182.847 154.612 182.872 154.603 182.898C154.598 182.911 154.594 182.924 154.589 182.937C154.589 182.937 154.249 183.407 154.399 183.427C155.009 183.517 155.329 182.807 155.179 182.317C155.069 182.022 154.871 181.768 154.611 181.589C154.352 181.411 154.044 181.316 153.729 181.317C153.41 181.305 153.095 181.396 152.83 181.576C152.566 181.756 152.366 182.016 152.259 182.317C152.025 182.96 151.996 183.66 152.175 184.321C152.354 184.981 152.733 185.57 153.259 186.007C153.689 186.391 154.192 186.684 154.737 186.869C155.283 187.055 155.86 187.129 156.435 187.087C157.009 187.045 157.57 186.888 158.082 186.625C158.595 186.362 159.05 185.999 159.419 185.557C160.809 184.027 160.739 182.307 159.969 180.557C159.742 180.153 159.491 179.763 159.219 179.387C159.182 179.334 159.157 179.273 159.145 179.21C159.133 179.146 159.134 179.08 159.149 179.017C159.189 178.953 159.241 178.897 159.303 178.854C159.365 178.811 159.435 178.781 159.509 178.767C159.599 178.767 159.759 178.897 159.809 179.007C160.235 179.903 160.734 180.762 161.299 181.577C161.939 182.397 163.129 182.927 163.569 181.517C163.594 181.432 163.62 181.347 163.646 181.262C163.716 181.037 163.786 180.81 163.829 180.577C163.86 180.415 163.844 180.264 163.829 180.117C163.814 179.974 163.8 179.836 163.829 179.697C163.844 179.54 163.911 179.392 164.019 179.277C164.087 179.253 164.16 179.245 164.232 179.256C164.303 179.266 164.371 179.294 164.429 179.337C164.648 179.543 164.594 180.034 164.544 180.483C164.514 180.753 164.486 181.008 164.519 181.177C164.72 181.838 164.971 182.484 165.269 183.107C165.552 183.916 165.628 184.782 165.489 185.627C165.251 186.996 164.727 188.299 163.952 189.452C163.177 190.604 162.167 191.581 160.989 192.317C157.329 194.917 151.659 194.637 147.779 192.697C145.569 191.705 143.58 190.28 141.929 188.507L141.689 188.307ZM43.2726 14.5469C43.2529 14.5816 43.2337 14.6155 43.2194 14.647L43.0794 14.667C43.1118 14.7469 43.1442 14.8263 43.1765 14.9054L43.1788 14.9111L43.18 14.914L43.1804 14.915L43.1806 14.9154L43.1811 14.9167L43.1813 14.9173L43.1817 14.9182C43.2972 15.2013 43.4113 15.4812 43.5194 15.767C43.5802 15.889 43.6175 16.0213 43.6294 16.157C43.6294 16.407 43.4594 16.487 43.2494 16.347C42.83 15.9992 42.4891 15.5663 42.2494 15.077C42.1561 14.8901 42.0308 14.7209 41.8794 14.577C41.6426 14.3242 41.3775 14.0994 41.0894 13.907C40.9787 13.8131 40.8423 13.7549 40.6979 13.7399C40.5535 13.7249 40.408 13.754 40.2804 13.8232C40.1528 13.8924 40.0491 13.9985 39.9829 14.1277C39.9167 14.2569 39.8911 14.403 39.9094 14.547C39.8868 15.1779 40.0928 15.7958 40.4894 16.287C40.7172 16.5945 40.9644 16.8825 41.2107 17.1695C41.397 17.3866 41.5829 17.6031 41.7594 17.827C42.1692 18.3034 42.5404 18.8117 42.8694 19.347C43.2514 19.9698 43.3834 20.7143 43.2386 21.4304C43.0939 22.1466 42.6833 22.7814 42.0894 23.207C41.2424 23.8504 40.2724 24.3133 39.2394 24.567C37.9348 24.9154 36.5898 25.0903 35.2394 25.087C33.0308 25.1386 30.8444 24.6367 28.8794 23.627L28.7294 23.547L29.8394 23.457C29.6503 23.4318 29.4582 23.4086 29.2644 23.3851L29.2643 23.3851L29.2643 23.3851L29.2642 23.3851L29.2642 23.3851L29.2641 23.3851L29.2641 23.3851L29.2641 23.3851L29.264 23.3851L29.264 23.3851L29.2639 23.3851L29.2639 23.3851L29.2638 23.3851L29.2638 23.3851L29.2637 23.3851L29.2637 23.385L29.2636 23.385L29.2635 23.385L29.2634 23.385C28.8426 23.3341 28.4137 23.2823 27.9894 23.207C27.3609 23.071 26.7502 22.863 26.1694 22.587C26.2257 22.5777 26.2831 22.5777 26.3394 22.587C27.9757 22.6693 29.5952 22.2241 30.9594 21.317C31.125 21.2035 31.2906 21.0897 31.4563 20.9757L31.4564 20.9757L31.4568 20.9755C32.1816 20.4771 32.9089 19.9771 33.6494 19.497C34.6163 18.8143 35.7355 18.3783 36.9094 18.227C37.3795 18.1648 37.8575 18.204 38.3111 18.342C38.7648 18.48 39.1836 18.7136 39.5394 19.027C39.6848 19.1591 39.817 19.2956 39.9534 19.4365L39.9536 19.4366L39.9537 19.4368L39.9539 19.4369L39.9539 19.437L39.954 19.437L39.954 19.437C40.0239 19.5092 40.095 19.5825 40.1694 19.657C40.216 19.5568 40.2401 19.4475 40.2401 19.337C40.2401 19.2265 40.216 19.1173 40.1694 19.017C40.0305 18.721 39.8735 18.4338 39.6994 18.157C39.584 17.9677 39.46 17.7848 39.3364 17.6024L39.3364 17.6023C39.1923 17.3897 39.0486 17.1777 38.9194 16.957C38.3951 16.1054 38.1863 15.0968 38.3294 14.107C38.3818 13.6332 38.5788 13.1871 38.8937 12.8292C39.2086 12.4714 39.6261 12.2192 40.0894 12.107C40.5578 11.9542 41.0606 11.9408 41.5364 12.0687C42.0123 12.1965 42.4407 12.46 42.7694 12.827C43.0877 13.259 43.2908 13.7649 43.3594 14.297C43.3737 14.3684 43.3217 14.4602 43.2726 14.5469ZM36.7293 53.0471C36.8093 53.1471 36.7293 53.2971 36.5393 53.5271C35.2611 54.707 33.5787 55.3513 31.8393 55.3271C29.5902 55.2655 27.3886 54.6654 25.4193 53.5771C25.1993 53.4671 24.7893 53.3071 24.6293 53.5771C24.5946 53.698 24.5946 53.8262 24.6293 53.9471C24.7619 54.767 25.1842 55.5121 25.8193 56.0471C26.4393 56.7371 24.9693 56.5371 24.6593 56.4671C23.4784 56.2774 22.3681 55.7808 21.4393 55.0271C20.9069 54.5234 20.5152 53.8894 20.303 53.1879C20.0908 52.4863 20.0654 51.7415 20.2293 51.0271C20.6211 49.7624 21.4014 48.6532 22.4593 47.8571C22.9276 47.4591 23.4243 47.0962 23.9208 46.7335C24.4846 46.3215 25.0482 45.9098 25.5693 45.4471C26.5868 44.6106 27.2917 43.4547 27.5693 42.1671C27.7068 41.5198 27.6264 40.8452 27.3406 40.2484C27.0549 39.6515 26.5798 39.1659 25.9893 38.8671C26.4039 39.6681 26.5782 40.5718 26.4913 41.4695C26.4044 42.3671 26.0599 43.2206 25.4993 43.9271C24.7763 44.8254 23.7547 45.413 22.7471 45.9925L22.7471 45.9925C21.5112 46.7034 20.2963 47.4021 19.6793 48.6471C19.6638 48.6792 19.6483 48.7117 19.6328 48.7445C19.4884 49.0485 19.3363 49.3688 19.0293 49.4771C18.7822 49.5379 18.5211 49.5022 18.2993 49.3771C17.7075 49.1044 17.2054 48.6692 16.8513 48.1221C16.4972 47.5751 16.3058 46.9387 16.2993 46.2871C16.6668 46.4364 17.0602 46.5112 17.4568 46.5074C17.8534 46.5036 18.2453 46.4212 18.6099 46.265C18.9744 46.1088 19.3044 45.8818 19.5806 45.5972C19.8569 45.3127 20.074 44.9761 20.2193 44.6071C20.3198 44.4496 20.3792 44.2695 20.3922 44.0831C20.4053 43.8968 20.3715 43.7102 20.294 43.5402C20.2164 43.3702 20.0976 43.2224 19.9484 43.1101C19.7991 42.9977 19.6241 42.9245 19.4393 42.8971C19.0321 42.8245 18.6143 42.8347 18.2111 42.9271C17.8078 43.0195 17.4273 43.1922 17.0923 43.4348C16.7572 43.6775 16.4745 43.9852 16.2609 44.3395C16.0474 44.6938 15.9074 45.0875 15.8493 45.4971C15.8493 45.6871 13.8493 44.8971 13.7393 44.8071C13.0697 44.3872 12.5052 43.8193 12.0893 43.1471C11.5893 42.3671 11.9693 41.8871 12.5093 41.2271C13.0837 40.6208 13.6118 39.9723 14.0893 39.2871C14.2754 38.9629 14.4134 38.616 14.5515 38.2691C14.6731 37.9633 14.7948 37.6576 14.9493 37.3671C15.3917 36.5202 16.0872 35.8566 16.7848 35.1911C17.3803 34.6229 17.9772 34.0533 18.4193 33.3671C18.7575 32.8128 18.9973 32.2308 19.2359 31.6518C19.4277 31.1863 19.6187 30.7228 19.8593 30.2771C20.437 29.232 21.2782 28.3563 22.2993 27.7371C22.9926 27.2816 23.7665 26.9626 24.5793 26.7971C24.6259 26.7971 24.6773 26.7955 24.7314 26.7939C25.0377 26.7844 25.4349 26.7722 25.5793 27.0271C25.7493 27.3271 25.3793 28.0271 25.0693 28.2971C24.7593 28.5671 24.1793 29.2971 24.5793 29.6771C25.1491 29.2139 25.7543 28.7959 26.3893 28.4271C27.774 27.7003 29.3272 27.3552 30.8893 27.4271C31.3293 27.4271 32.6993 27.4271 32.7793 28.0471C32.8312 28.481 32.3604 28.6547 31.8558 28.8408C31.2903 29.0494 30.6824 29.2736 30.7193 29.8971C32.3949 29.491 34.1535 29.5949 35.7696 30.1953C37.3857 30.7958 38.7855 31.8655 39.7893 33.2671C39.9593 33.5071 40.1093 33.9671 39.7093 34.0771C39.4558 34.1469 39.0938 33.9835 38.7684 33.8368C38.5805 33.752 38.4048 33.6728 38.2693 33.6471C37.9845 33.5728 37.6841 33.5834 37.4051 33.6775C37.1262 33.7717 36.8809 33.9454 36.6993 34.1771C38.5458 35.0928 40.2975 36.1881 41.9293 37.4471C42.1193 37.5971 42.3293 37.8371 42.1993 38.0371C42.1324 38.1173 42.0411 38.1735 41.9393 38.1971L40.7493 38.6071C41.8877 39.2827 42.8531 40.2139 43.5693 41.3271C43.7693 41.6371 43.9393 42.0671 43.6993 42.3271C43.5461 42.4604 43.3522 42.538 43.1493 42.5471C41.8098 42.6765 40.4905 42.9652 39.2193 43.4071L39.2086 43.4118C38.9071 43.5424 38.4001 43.762 38.4593 44.1671C38.4893 44.3036 38.563 44.4265 38.6693 44.5171C39.0406 44.8772 39.5069 45.124 40.0135 45.2285C40.52 45.333 41.0459 45.2909 41.5293 45.1071C42.1493 44.8571 41.4593 46.6571 41.3593 46.8671C40.8764 47.9598 40.1417 48.9226 39.2153 49.6769C38.2889 50.4313 37.1972 50.9556 36.0293 51.2071C35.4325 51.3156 34.8245 51.3492 34.2193 51.3071C34.1706 51.3071 34.0916 51.3008 33.9947 51.293L33.9941 51.2929L33.9938 51.2929C33.5334 51.2558 32.6698 51.1861 32.7193 51.6071C32.7405 51.7162 32.7926 51.8168 32.8693 51.8971C33.3502 52.447 34.0151 52.8026 34.7393 52.8971C34.8748 52.9092 35.0827 52.8922 35.3151 52.8733C35.8548 52.8293 36.5266 52.7745 36.7293 53.0471ZM17.8493 37.9271C17.8892 37.9608 17.9354 37.986 17.9852 38.0015C18.035 38.017 18.0874 38.0223 18.1393 38.0171C18.4163 38.0171 18.5208 37.8478 18.626 37.6771C18.707 37.5458 18.7885 37.4136 18.9493 37.3571C19.0379 37.3234 19.1479 37.3181 19.2589 37.3128C19.4111 37.3055 19.5653 37.2981 19.6693 37.2171C20.0593 36.9171 19.5893 36.7671 19.2893 36.7471C19.0352 36.736 18.7818 36.7823 18.548 36.8827C18.3143 36.9832 18.1062 37.1351 17.9393 37.3271C17.7793 37.5171 17.7093 37.7871 17.8493 37.9271ZM40.9392 29.5272C40.8263 28.8781 40.8778 28.2111 41.0892 27.5872C41.1151 27.4712 41.1692 27.3635 41.2468 27.2736C41.3244 27.1837 41.423 27.1143 41.5339 27.0718C41.6448 27.0292 41.7645 27.0147 41.8823 27.0296C42.0001 27.0445 42.1124 27.0883 42.2092 27.1572C42.5507 27.3213 42.8921 27.7442 43.2024 28.1284C43.3647 28.3294 43.5184 28.5198 43.6592 28.6572C43.9891 28.9761 44.3009 29.3101 44.6128 29.6442L44.6129 29.6444L44.6129 29.6444L44.613 29.6444L44.613 29.6445L44.613 29.6445L44.6131 29.6445L44.6131 29.6446L44.6131 29.6446L44.6132 29.6446L44.6132 29.6447L44.6132 29.6447L44.6133 29.6447L44.6133 29.6448L44.6133 29.6448L44.6134 29.6448L44.6134 29.6449C44.8686 29.9183 45.1238 30.1918 45.3892 30.4572C46.258 31.4264 47.3121 32.2118 48.4892 32.7672C49.3632 33.2012 50.3349 33.401 51.3092 33.3472C51.7765 33.1947 52.2688 33.1336 52.7592 33.1672C52.1792 35.0672 49.9292 35.8572 48.0892 35.6872C46.386 35.5891 44.7626 34.9326 43.4702 33.819C42.1777 32.7055 41.2882 31.1971 40.9392 29.5272ZM43.6694 27.207C43.6694 27.5079 44.1026 27.9406 44.3476 28.1852L44.3694 28.207C45.1453 28.9765 45.9703 29.6947 46.8394 30.357C47.8068 31.0879 48.8833 31.6616 50.0294 32.057C50.4694 32.177 51.5594 32.447 51.7994 31.927C51.969 31.5779 51.6113 31.1692 51.4011 30.9289L51.3994 30.927C50.3211 29.7391 48.5581 28.977 47.0566 28.328C46.9149 28.2667 46.7756 28.2065 46.6394 28.147C46.4621 28.0715 46.2113 27.9164 45.9277 27.7412C45.2357 27.3136 44.3488 26.7655 43.8594 26.957C43.803 26.9689 43.7528 27.0007 43.7179 27.0466C43.683 27.0926 43.6658 27.1495 43.6694 27.207ZM54.2691 25.6271C52.4248 25.8252 50.569 25.3763 49.0191 24.3571C48.9054 24.2585 48.7529 24.1355 48.5768 23.9936L48.5766 23.9934L48.5765 23.9933C48.2881 23.7608 47.9367 23.4774 47.5891 23.1671C46.6056 22.2085 45.9123 20.992 45.5891 19.6571C45.3803 18.9887 45.3805 18.2725 45.5895 17.6042C45.7986 16.9359 46.2066 16.3473 46.7591 15.9171C47.1967 15.6042 47.5421 15.1794 47.7591 14.6871C47.8722 14.4171 47.9931 14.151 48.1145 13.8839C48.1864 13.7257 48.2584 13.5671 48.3291 13.4071C48.3886 13.2687 48.4878 13.1511 48.6142 13.0692C48.7406 12.9873 48.8885 12.9448 49.0391 12.9471C49.2005 12.9916 49.3401 13.0932 49.4321 13.233C49.5241 13.3729 49.5621 13.5413 49.5391 13.7071C49.5298 13.8415 49.4887 13.9717 49.4191 14.0871C49.3094 14.2874 49.1929 14.4832 49.0772 14.6777L49.077 14.6779C48.9501 14.8911 48.8242 15.1027 48.7091 15.3171C48.5871 15.5122 48.5055 15.7299 48.4691 15.9571C48.2744 17.2163 48.5087 18.5045 49.1344 19.6145C49.7602 20.7245 50.741 21.5918 51.9191 22.0771C53.3206 22.6747 54.8102 23.0395 56.3291 23.1571C56.5891 23.1771 56.8491 23.2271 56.9391 23.5371C57.005 23.6777 57.025 23.8354 56.9962 23.9879C56.9675 24.1405 56.8916 24.2801 56.7791 24.3871C56.102 25.0657 55.2196 25.5017 54.2691 25.6271ZM48.8294 16.2073C48.7447 17.1869 48.9134 18.1718 49.3194 19.0673C49.8287 20.1936 50.7372 21.0914 51.8694 21.5873L52.0994 21.6873C52.4922 21.907 52.9273 22.0402 53.3757 22.0782C53.8241 22.1161 54.2754 22.0578 54.6994 21.9073C55.6446 21.7271 56.4931 21.2123 57.0894 20.4573C57.2826 20.2006 57.4314 19.9132 57.5294 19.6073C57.5487 19.5183 57.5451 19.4259 57.519 19.3387C57.493 19.2515 57.4453 19.1723 57.3805 19.1085C57.3156 19.0446 57.2357 18.9982 57.1481 18.9735C57.0605 18.9488 56.9681 18.9467 56.8794 18.9673C56.6115 19.0156 56.3455 19.0774 56.0797 19.1392C55.7404 19.218 55.4015 19.2968 55.0594 19.3473C54.0222 19.5362 52.9556 19.4883 51.9394 19.2073C51.2913 19.0018 50.6981 18.6521 50.2045 18.1845C49.7109 17.7168 49.3296 17.1434 49.0894 16.5073L48.9694 16.2073H48.8294ZM97.2193 132.577C97.304 133.01 97.4889 133.418 97.7593 133.767C97.8129 133.86 97.8766 133.948 97.9493 134.027C98.1985 133.583 98.371 133.099 98.4593 132.597C98.4937 132.068 98.383 131.539 98.1393 131.067C98.0523 130.881 97.9349 130.69 97.8148 130.495C97.438 129.883 97.0347 129.227 97.4593 128.537C97.3223 128.592 97.2031 128.683 97.1148 128.802C97.0266 128.92 96.9728 129.06 96.9593 129.207C96.8712 129.173 96.7857 129.134 96.7011 129.096C96.4112 128.964 96.1322 128.836 95.7993 128.937C96.2088 129.046 96.5705 129.287 96.8275 129.624C97.0846 129.961 97.2224 130.374 97.2193 130.797C97.2543 131.092 97.2368 131.39 97.2193 131.687C97.2018 131.985 97.1843 132.282 97.2193 132.577ZM98.5491 122.347C98.4949 122.438 98.4348 122.524 98.3691 122.607C98.3366 122.574 98.2977 122.547 98.2547 122.529C98.2118 122.511 98.1657 122.502 98.1191 122.502C98.0726 122.502 98.0265 122.511 97.9836 122.529C97.9406 122.547 97.9017 122.574 97.8691 122.607C97.8993 122.596 97.9315 122.592 97.9633 122.595C97.9952 122.599 98.026 122.609 98.0536 122.625C98.0812 122.641 98.105 122.663 98.1232 122.689C98.1414 122.716 98.1537 122.746 98.1591 122.777C98.2185 123.022 98.0029 123.162 97.81 123.287C97.7427 123.331 97.6782 123.373 97.6291 123.417C97.3412 123.698 97.1192 124.04 96.9791 124.417C96.7991 124.907 97.0891 125.327 97.6291 125.157C98.1691 124.987 98.4191 124.157 98.3891 123.607C98.3591 123.057 98.5691 122.267 99.0591 122.097C98.9594 122.088 98.8593 122.107 98.7694 122.151C98.6795 122.195 98.6034 122.263 98.5491 122.347ZM96.7994 121.647C96.9881 121.411 97.1918 121.187 97.4094 120.977C98.1694 120.207 99.2194 119.617 99.8994 120.707C99.8577 120.422 99.7122 120.162 99.4907 119.977C99.2693 119.793 98.9875 119.697 98.6994 119.707C98.7335 119.436 98.7082 119.16 98.6253 118.899C98.5424 118.639 98.4039 118.399 98.2194 118.197C98.5094 118.577 97.8594 119.697 97.6394 120.007C97.1416 120.575 96.5814 121.085 95.9694 121.527C95.3539 122.104 94.9014 122.833 94.6573 123.641C94.4133 124.448 94.3864 125.306 94.5794 126.127C94.9394 127.557 96.2994 128.077 96.2994 126.327C96.2969 125.915 96.2544 125.495 96.212 125.076C96.0899 123.868 95.9681 122.664 96.7994 121.647ZM94.7993 148.567C94.8811 148.525 94.9582 148.475 95.0293 148.417C95.0826 148.361 95.1385 148.278 95.1984 148.19C95.3407 147.98 95.5052 147.737 95.7093 147.737C95.9162 147.737 96.0824 147.859 96.2369 147.973C96.299 148.019 96.3591 148.063 96.4193 148.097C96.4846 148.134 96.5837 148.161 96.6824 148.188C96.9012 148.247 97.1178 148.305 96.9593 148.477C96.8116 148.638 96.6968 148.662 96.5992 148.683C96.5449 148.694 96.4958 148.705 96.4493 148.737L95.7293 149.197C95.6412 149.253 95.5402 149.303 95.4419 149.351C95.4174 149.363 95.3932 149.375 95.3693 149.387C95.1488 149.515 94.8925 149.568 94.6393 149.537C94.5293 149.537 94.4893 149.537 94.4593 149.667C94.1438 150.629 93.531 151.466 92.7093 152.057C92.3735 152.269 92.0225 152.456 91.6593 152.617C91.8125 152.756 91.9763 152.772 92.1586 152.79C92.2262 152.797 92.2963 152.804 92.3693 152.817C92.6973 152.902 93.0414 152.902 93.3693 152.817C93.396 152.81 93.4284 152.799 93.465 152.787C93.7168 152.707 94.1658 152.564 94.2793 152.817C94.3901 153.064 94.2103 153.224 94.0866 153.334C94.0653 153.353 94.0455 153.371 94.0293 153.387C93.7429 153.635 93.3991 153.806 93.0293 153.887C92.3193 154.117 91.1393 154.337 90.5993 153.647C90.4274 153.406 90.3112 153.129 90.2593 152.837C90.258 152.819 90.2532 152.801 90.2449 152.784C90.2367 152.768 90.2253 152.753 90.2113 152.741C90.1974 152.729 90.1812 152.72 90.1637 152.714C90.1462 152.708 90.1277 152.706 90.1093 152.707C89.7604 152.663 89.4219 152.558 89.1093 152.397C89.0667 152.386 89.0219 152.386 88.9793 152.397C88.7338 152.421 88.5059 152.535 88.3393 152.717C88.2646 152.814 88.2053 152.922 88.1462 153.03C88.0708 153.168 87.9958 153.305 87.8893 153.417C87.6873 153.633 87.4205 153.777 87.1293 153.827C86.8793 153.887 86.1293 154.057 86.0493 153.707C86.0493 153.59 86.098 153.439 86.1374 153.316L86.1463 153.289L86.1593 153.247C86.2015 153.02 86.2685 152.799 86.3593 152.587C86.5644 152.261 86.8804 152.019 87.2493 151.907C87.3072 151.889 87.3614 151.882 87.4128 151.875H87.4129C87.5299 151.86 87.632 151.846 87.7293 151.707C87.8536 151.565 87.9457 151.398 87.9993 151.217C88.0143 151.165 88.0143 151.109 87.9993 151.057C87.8773 150.704 87.8297 150.33 87.8593 149.957C87.8593 149.877 87.8593 149.847 87.7693 149.807C87.551 149.68 87.3407 149.54 87.1393 149.387C86.9757 149.256 86.8451 149.088 86.7583 148.897C86.6714 148.706 86.6307 148.497 86.6393 148.287C86.6257 147.829 86.6934 147.372 86.8393 146.937L86.8474 146.905L86.8525 146.885L86.8634 146.84C86.92 146.608 86.9978 146.288 87.1893 146.157C87.2221 146.128 87.2612 146.106 87.3035 146.094C87.3459 146.082 87.3905 146.08 87.4338 146.087C87.4772 146.095 87.5182 146.113 87.5539 146.139C87.5895 146.164 87.6187 146.198 87.6393 146.237C87.7249 146.449 87.6838 146.685 87.6422 146.924C87.6012 147.16 87.5599 147.399 87.6393 147.617C87.7224 147.841 87.8559 148.043 88.0293 148.207C88.1349 148.32 88.2226 148.448 88.2893 148.587C88.4506 148.41 88.5915 148.216 88.7093 148.007C88.8712 147.807 89.052 147.623 89.2493 147.457C89.6527 147.129 90.1048 146.866 90.5893 146.677C90.988 146.532 91.3955 146.411 91.8093 146.317C91.8993 146.317 91.9393 146.257 91.9493 146.167C91.9627 145.904 92.0649 145.654 92.2393 145.457C92.2645 145.428 92.3043 145.377 92.355 145.311L92.3563 145.31L92.3567 145.309C92.6702 144.905 93.3959 143.971 93.6793 144.297C93.7408 144.372 93.7416 144.503 93.7423 144.62C93.7427 144.675 93.743 144.726 93.7493 144.767C93.845 144.995 93.8626 145.248 93.7993 145.487C93.7176 145.65 93.4926 145.775 93.3002 145.882L93.2505 145.91C93.2334 145.919 93.2167 145.929 93.2005 145.938C93.1714 145.955 93.1441 145.971 93.1193 145.987C93.0727 146.008 93.0329 146.041 93.0046 146.084C92.9763 146.126 92.9606 146.176 92.9593 146.227H93.1093C93.411 146.267 93.715 146.287 94.0193 146.287C94.0526 146.287 94.0903 146.285 94.1303 146.283C94.3186 146.274 94.5604 146.262 94.6593 146.427C94.7226 146.533 94.605 146.596 94.4886 146.66C94.3843 146.716 94.281 146.772 94.3093 146.857C94.3391 146.946 94.4625 146.89 94.5963 146.83C94.7321 146.768 94.8788 146.702 94.9493 146.777C95.0893 146.927 95.0293 147.177 94.9493 147.347C94.9024 147.601 94.8756 147.859 94.8693 148.117C94.8693 148.257 94.8693 148.407 94.8093 148.547L94.7993 148.567ZM120.654 150.734C120.853 150.824 121.072 150.862 121.29 150.847C121.506 150.851 121.719 150.802 121.912 150.704C122.105 150.606 122.271 150.463 122.396 150.287C122.522 150.111 122.602 149.906 122.63 149.692C122.659 149.478 122.634 149.26 122.56 149.057C122.28 148.416 121.945 147.801 121.56 147.217C121.4 146.977 121.13 146.917 120.95 147.217C120.555 147.809 120.22 148.439 119.95 149.097C119.878 149.303 119.859 149.524 119.893 149.74C119.928 149.956 120.016 150.159 120.148 150.333C120.281 150.506 120.455 150.644 120.654 150.734ZM127.509 134.737C127.331 134.501 127.086 134.324 126.806 134.23C126.526 134.135 126.224 134.127 125.939 134.207C125.654 134.289 125.402 134.46 125.222 134.696C125.042 134.932 124.943 135.22 124.939 135.517C124.819 136.647 124.639 136.757 123.549 136.427C123.314 136.348 123.057 136.36 122.83 136.46C122.603 136.56 122.421 136.74 122.319 136.967C122.222 137.197 122.215 137.454 122.298 137.689C122.381 137.924 122.549 138.12 122.769 138.237L123.189 138.447C123.083 138.582 122.989 138.726 122.909 138.877C122.771 139.182 122.632 139.487 122.494 139.792C122.053 140.764 121.613 141.732 121.179 142.707C120.88 143.33 120.742 144.017 120.779 144.707C120.814 145.096 120.814 145.488 120.779 145.877C120.734 146.069 120.753 146.27 120.832 146.45C120.912 146.631 121.048 146.781 121.219 146.877C121.416 146.96 121.635 146.97 121.838 146.906C122.042 146.842 122.216 146.707 122.329 146.527C122.501 146.286 122.706 146.07 122.939 145.887C123.608 145.453 124.128 144.825 124.429 144.087C124.649 143.593 124.872 143.102 125.096 142.61L125.096 142.608L125.097 142.606L125.098 142.605C125.412 141.913 125.726 141.222 126.029 140.527C126.126 140.276 126.206 140.019 126.269 139.757L126.719 139.937C126.958 140.028 127.224 140.024 127.46 139.925C127.696 139.827 127.886 139.641 127.989 139.407C128.086 139.177 128.093 138.92 128.01 138.685C127.927 138.45 127.759 138.255 127.539 138.137L127.269 138.007C127.15 137.959 127.045 137.88 126.966 137.779C126.886 137.679 126.834 137.559 126.815 137.431C126.795 137.304 126.81 137.174 126.856 137.054C126.903 136.934 126.979 136.828 127.079 136.747C127.244 136.597 127.392 136.43 127.519 136.247C127.687 136.031 127.778 135.764 127.776 135.49C127.774 135.216 127.68 134.951 127.509 134.737ZM124.929 141.317C124.803 141.593 124.68 141.872 124.557 142.15L124.557 142.15C124.279 142.778 124.001 143.407 123.689 144.017C123.467 144.456 123.173 144.855 122.819 145.197C122.459 145.537 121.989 145.367 121.819 144.767C121.822 144.456 121.866 144.147 121.949 143.847C122.203 143.227 122.48 142.608 122.764 141.974C122.938 141.585 123.114 141.19 123.289 140.787C123.369 140.698 123.48 140.641 123.599 140.627C123.849 140.612 124.099 140.612 124.349 140.627C124.568 140.61 124.788 140.648 124.989 140.737C125.148 140.852 125.05 141.06 124.963 141.245C124.951 141.269 124.94 141.294 124.929 141.317ZM42.7596 114.117C43.0911 114.067 43.4281 114.067 43.7596 114.117C44.2029 114.172 44.6229 114.346 44.9751 114.621C45.3273 114.896 45.5984 115.261 45.7596 115.677L45.7874 115.763C46.1124 116.759 46.5175 118.002 47.4896 118.507L47.5211 118.524C47.7114 118.623 48.1261 118.84 47.8996 119.047C47.7289 119.204 47.3106 119.138 46.986 119.086C46.8541 119.066 46.7376 119.047 46.6596 119.047C46.2211 119.071 45.7938 119.194 45.4096 119.407C44.6816 119.877 43.9957 120.409 43.3596 120.997C42.2896 121.837 40.9296 122.617 39.5396 122.097C39.0052 121.869 38.5437 121.498 38.2052 121.025C37.8667 120.553 37.6641 119.997 37.6196 119.417C37.4924 118.048 38.5232 117.051 39.4294 116.175L39.4896 116.117C40.3546 115.138 41.4938 114.441 42.7596 114.117ZM47.2596 114.787L47.1596 114.737C46.9192 114.421 46.7519 114.056 46.6696 113.667C46.5424 113.272 46.4685 112.862 46.4496 112.447C46.4227 112.032 46.5001 111.617 46.6747 111.24C46.8494 110.863 47.1158 110.535 47.4496 110.287C48.4496 109.517 50.4496 109.287 51.1296 110.567L51.1996 110.697C51.7196 111.697 50.8596 112.317 49.9696 112.627C49.8007 112.687 49.5693 112.741 49.3138 112.799C48.4645 112.995 47.3488 113.251 47.3796 114.027C47.3796 114.121 47.4138 114.218 47.4472 114.312C47.4814 114.408 47.5146 114.501 47.5096 114.587C47.4996 114.757 47.3696 114.817 47.2596 114.787ZM42.2294 186.867C43.2981 187.501 44.4998 187.878 45.7394 187.967C46.0291 187.961 46.3174 187.924 46.5994 187.857C46.9377 187.783 47.2716 187.689 47.5994 187.577C47.9682 187.43 48.3549 187.333 48.7494 187.287C48.8689 187.283 48.9865 187.256 49.0954 187.206C49.2043 187.157 49.3025 187.087 49.3842 186.999C49.4659 186.912 49.5297 186.81 49.5717 186.698C49.6138 186.586 49.6334 186.467 49.6294 186.347C49.6282 186.227 49.6026 186.108 49.5542 185.998C49.5058 185.887 49.4355 185.788 49.3477 185.706C49.2598 185.624 49.1562 185.56 49.043 185.519C48.9299 185.478 48.8096 185.46 48.6894 185.467C48.1215 185.512 47.5628 185.637 47.0294 185.837L46.9147 185.874C46.6758 185.951 46.4464 186.025 46.2394 186.077C45.1053 186.151 43.978 185.853 43.0294 185.227C42.6494 185.027 42.2494 184.837 41.8394 184.667C40.1388 183.952 38.279 183.7 36.4494 183.937C36.3297 183.948 36.2133 183.983 36.1072 184.04C36.001 184.096 35.9071 184.173 35.8308 184.266C35.7546 184.359 35.6975 184.466 35.6629 184.581C35.6284 184.696 35.617 184.817 35.6294 184.937C35.638 185.058 35.6711 185.176 35.7266 185.284C35.7821 185.392 35.8589 185.488 35.9523 185.565C36.0457 185.643 36.1539 185.701 36.2702 185.735C36.3866 185.77 36.5088 185.781 36.6294 185.767C38.1626 185.557 39.7241 185.764 41.1494 186.367C41.4563 186.49 41.7709 186.643 42.0931 186.801L42.094 186.801L42.2294 186.867ZM23.4291 182.497C23.0668 182.498 22.7051 182.465 22.3491 182.397C21.0057 182.112 19.8197 181.33 19.0291 180.207C18.7481 179.854 18.4441 179.52 18.1191 179.207C17.9638 179.037 17.8777 178.816 17.8779 178.585C17.8782 178.355 17.9647 178.133 18.1204 177.964C18.2761 177.794 18.4897 177.689 18.719 177.67C18.9483 177.65 19.1767 177.717 19.3591 177.857C19.7366 178.211 20.0907 178.588 20.4191 178.987C20.9439 179.787 21.7571 180.353 22.6891 180.567C23.3823 180.666 24.086 180.666 24.7791 180.567C24.9829 180.567 25.1867 180.542 25.3923 180.516L25.3926 180.516H25.3927H25.3929C25.5503 180.496 25.7088 180.476 25.8691 180.467C25.9886 180.461 26.1081 180.479 26.2208 180.519C26.3335 180.56 26.4371 180.622 26.5258 180.702C26.6145 180.782 26.6864 180.879 26.7376 180.987C26.7888 181.096 26.8182 181.213 26.8241 181.332C26.83 181.452 26.8124 181.571 26.7721 181.684C26.7318 181.797 26.6697 181.9 26.5894 181.989C26.5091 182.078 26.4121 182.15 26.3039 182.201C26.1958 182.252 26.0786 182.281 25.9591 182.287L24.9591 182.377C24.4519 182.447 23.941 182.487 23.4291 182.497ZM56.3494 192.807C56.7305 192.859 57.1147 192.886 57.4994 192.887C59.1733 192.856 60.8169 192.435 62.2994 191.657C62.5885 191.515 62.8093 191.264 62.9134 190.96C63.0175 190.655 62.9963 190.321 62.8544 190.032C62.7125 189.743 62.4616 189.522 62.1568 189.418C61.8521 189.314 61.5185 189.335 61.2294 189.477C59.8646 190.223 58.3078 190.544 56.7594 190.397C56.1422 190.254 55.5516 190.015 55.0094 189.687C54.1974 189.174 53.2886 188.834 52.3394 188.687C51.0929 188.653 49.8571 188.924 48.7394 189.477C48.2089 189.717 47.6563 189.905 47.0894 190.037C45.5662 190.326 44.2512 189.772 42.7397 189.136L42.7194 189.127L41.4894 188.627C39.4894 187.879 37.336 187.635 35.2194 187.917C33.5716 188.076 33.185 187.821 31.7709 186.888L31.7394 186.867L31.0894 186.447C28.3894 184.747 26.1994 184.147 24.3894 184.747C24.2281 184.79 24.0772 184.865 23.946 184.968C23.8149 185.071 23.7063 185.2 23.6269 185.346C23.5475 185.493 23.4991 185.655 23.4846 185.821C23.4701 185.987 23.4898 186.154 23.5426 186.313C23.5953 186.471 23.68 186.617 23.7913 186.741C23.9026 186.865 24.0382 186.965 24.1898 187.035C24.3413 187.105 24.5055 187.143 24.6723 187.147C24.8391 187.15 25.0048 187.12 25.1594 187.057C26.2094 186.707 27.7694 187.197 29.7694 188.497L30.3994 188.897C31.0842 189.476 31.8837 189.904 32.7454 190.152C33.6071 190.4 34.5115 190.463 35.3994 190.337C37.1393 190.1 38.9108 190.293 40.5594 190.897C40.959 191.047 41.3388 191.207 41.7184 191.367L41.7194 191.367L41.8317 191.414C43.5545 192.129 45.287 192.848 47.4794 192.437C48.2116 192.278 48.9255 192.043 49.6094 191.737C50.3638 191.345 51.1991 191.132 52.0494 191.117C52.6775 191.234 53.278 191.468 53.8194 191.807C54.5981 192.285 55.4543 192.624 56.3494 192.807ZM37.8192 176.147C37.3174 176.387 36.9145 176.793 36.6792 177.297C36.6669 177.323 36.6477 177.344 36.6238 177.359C36.6 177.374 36.5724 177.382 36.5442 177.382C36.516 177.382 36.4884 177.374 36.4645 177.359C36.4406 177.344 36.4215 177.323 36.4092 177.297C36.1767 176.791 35.7729 176.384 35.2692 176.147C35.2438 176.135 35.2224 176.116 35.2075 176.092C35.1925 176.068 35.1846 176.04 35.1846 176.012C35.1846 175.984 35.1925 175.956 35.2075 175.933C35.2224 175.909 35.2438 175.889 35.2692 175.877C35.7743 175.647 36.1792 175.242 36.4092 174.737C36.4215 174.712 36.4406 174.69 36.4645 174.675C36.4884 174.661 36.516 174.653 36.5442 174.653C36.5724 174.653 36.6 174.661 36.6238 174.675C36.6477 174.69 36.6669 174.712 36.6792 174.737C36.9121 175.24 37.3162 175.644 37.8192 175.877C37.8446 175.889 37.8659 175.909 37.8809 175.933C37.8959 175.956 37.9038 175.984 37.9038 176.012C37.9038 176.04 37.8959 176.068 37.8809 176.092C37.8659 176.116 37.8446 176.135 37.8192 176.147ZM34.1252 178.399C34.7556 179.025 35.5052 179.517 36.3295 179.847C36.3945 179.847 36.4568 179.873 36.5028 179.919C36.5487 179.965 36.5745 180.027 36.5745 180.092C36.5745 180.157 36.5487 180.219 36.5028 180.265C36.4568 180.311 36.3945 180.337 36.3295 180.337C35.5018 180.669 34.75 181.166 34.1193 181.797C33.4885 182.427 32.992 183.179 32.6595 184.007C32.6425 184.053 32.6118 184.093 32.5716 184.121C32.5313 184.148 32.4835 184.163 32.4345 184.163C32.3855 184.163 32.3377 184.148 32.2975 184.121C32.2573 184.093 32.2266 184.053 32.2095 184.007C31.8749 183.179 31.3765 182.427 30.7441 181.796C30.1118 181.166 29.3585 180.669 28.5295 180.337C28.4836 180.32 28.444 180.289 28.416 180.249C28.388 180.209 28.373 180.161 28.373 180.112C28.373 180.063 28.388 180.015 28.416 179.975C28.444 179.935 28.4836 179.904 28.5295 179.887C29.3588 179.553 30.1122 179.054 30.7445 178.422C31.3768 177.79 31.8751 177.036 32.2095 176.207C32.2266 176.161 32.2573 176.121 32.2975 176.094C32.3377 176.066 32.3855 176.051 32.4345 176.051C32.4835 176.051 32.5313 176.066 32.5716 176.094C32.6118 176.121 32.6425 176.161 32.6595 176.207C32.9963 177.029 33.4948 177.774 34.1252 178.399ZM32.5695 181.377C32.8071 180.86 33.2222 180.445 33.7395 180.207C33.7637 180.191 33.7828 180.169 33.7946 180.143C33.8065 180.117 33.8106 180.088 33.8063 180.059C33.8021 180.031 33.7898 180.004 33.7709 179.982C33.7519 179.961 33.7272 179.945 33.6995 179.937C33.1822 179.699 32.7671 179.284 32.5295 178.767C32.5173 178.742 32.4981 178.72 32.4742 178.705C32.4503 178.69 32.4227 178.682 32.3945 178.682C32.3664 178.682 32.3387 178.69 32.3149 178.705C32.291 178.72 32.2718 178.742 32.2595 178.767C32.022 179.284 31.6069 179.699 31.0895 179.937C31.0642 179.949 31.0428 179.968 31.0278 179.992C31.0129 180.016 31.0049 180.044 31.0049 180.072C31.0049 180.1 31.0129 180.128 31.0278 180.152C31.0428 180.176 31.0642 180.195 31.0895 180.207C31.6219 180.437 32.0522 180.853 32.2995 181.377C32.3118 181.402 32.331 181.424 32.3549 181.439C32.3787 181.454 32.4064 181.462 32.4345 181.462C32.4627 181.462 32.4903 181.454 32.5142 181.439C32.5381 181.424 32.5573 181.402 32.5695 181.377Z" fill="#1F515B"/>
</svg>
