<svg width="32" height="32" viewBox="0 0 32 32" fill="none" xmlns="http://www.w3.org/2000/svg">
<path d="M21.9881 6.57617H8.97715C8.48015 6.57617 8.07715 6.97917 8.07715 7.47617C8.07715 7.97317 8.48015 8.37617 8.97715 8.37617H21.9891C22.4861 8.37617 22.8891 7.97317 22.8891 7.47617C22.8891 6.97917 22.4851 6.57617 21.9881 6.57617Z" fill="#37BD69"/>
<path d="M22.8881 12.5504C22.8881 12.0534 22.4851 11.6504 21.9881 11.6504H8.97715C8.48015 11.6504 8.07715 12.0534 8.07715 12.5504C8.07715 13.0474 8.48015 13.4504 8.97715 13.4504H21.9891C22.4851 13.4504 22.8881 13.0474 22.8881 12.5504Z" fill="#37BD69"/>
<path d="M8.97715 16.7266C8.48015 16.7266 8.07715 17.1296 8.07715 17.6266C8.07715 18.1236 8.48015 18.5266 8.97715 18.5266H15.5311C16.0281 18.5266 16.4311 18.1236 16.4311 17.6266C16.4311 17.1296 16.0281 16.7266 15.5311 16.7266H8.97715Z" fill="#37BD69"/>
<path d="M11.3137 29.0996H5.74473C4.97673 29.0996 4.35273 28.4746 4.35273 27.7076V4.29161C4.35273 3.52361 4.97773 2.89961 5.74473 2.89961H25.2207C25.9877 2.89961 26.6127 3.52461 26.6127 4.29161V12.8366C26.6127 13.3336 27.0157 13.7366 27.5127 13.7366C28.0097 13.7366 28.4127 13.3336 28.4127 12.8366V4.29161C28.4127 2.53161 26.9807 1.09961 25.2217 1.09961H5.74473C3.98473 1.09961 2.55273 2.53161 2.55273 4.29161V27.7076C2.55273 29.4676 3.98473 30.8996 5.74473 30.8996H11.3137C11.8107 30.8996 12.2137 30.4966 12.2137 29.9996C12.2137 29.5026 11.8107 29.0996 11.3137 29.0996Z" fill="#37BD69"/>
<path d="M28.4674 16.9138C27.1614 15.6068 25.0344 15.6068 23.7294 16.9138L15.4544 25.1888C15.1924 25.4508 15.0204 25.7828 14.9584 26.1478L14.5064 28.8308C14.4104 29.3958 14.5954 29.9748 15.0004 30.3798C15.3344 30.7148 15.7894 30.8998 16.2554 30.8998C16.3534 30.8998 16.4514 30.8918 16.5494 30.8748L19.2304 30.4218C19.5964 30.3608 19.9294 30.1898 20.1914 29.9268L28.4664 21.6518C29.7734 20.3458 29.7734 18.2198 28.4674 16.9138ZM18.9334 28.6468L16.2814 29.1298L16.7264 26.4608L22.6814 20.5058L24.8754 22.6998L18.9334 28.6468ZM27.1944 20.3788L26.1474 21.4268L23.9534 19.2328L25.0014 18.1848C25.3034 17.8828 25.7014 17.7318 26.0984 17.7318C26.4954 17.7318 26.8924 17.8828 27.1954 18.1848C27.7994 18.7908 27.7994 19.7738 27.1944 20.3788Z" fill="#37BD69"/>
</svg>
