<svg width="32" height="32" viewBox="0 0 32 32" fill="none" xmlns="http://www.w3.org/2000/svg">
<mask id="path-1-inside-1_2897_66955" fill="white">
<path d="M16.0391 0C16.6841 5.10109e-05 17.207 0.522938 17.207 1.16797V1.24414H19.7373C20.3822 1.24431 20.9053 1.76715 20.9053 2.41211V7.97852C20.9053 12.7753 17.2714 16.737 12.6123 17.2607V23.8232C12.6123 27.0431 15.2323 29.6631 18.4521 29.6631C21.672 29.663 24.291 27.0431 24.291 23.8232V19.2266C22.4742 18.7155 21.1387 17.045 21.1387 15.0674C21.1387 12.6845 23.0767 10.7461 25.46 10.7461C27.8424 10.7462 29.7812 12.6846 29.7812 15.0674C29.7809 17.0453 28.4441 18.7158 26.627 19.2266V23.8232C26.627 28.3308 22.9597 31.999 18.4521 31.999C13.9441 31.999 10.2773 28.3309 10.2773 23.8232V17.2305C5.73123 16.6025 2.21875 12.6946 2.21875 7.97852V2.41211C2.21875 1.76705 2.74166 1.24414 3.38672 1.24414H5.83984V1.16797C5.83984 0.523038 6.36195 0.000213021 7.00684 0C7.6519 0 8.1748 0.522906 8.1748 1.16797V3.65918C8.1748 4.30424 7.6519 4.82715 7.00684 4.82715C6.36195 4.82694 5.83984 4.30411 5.83984 3.65918V3.58008H4.55469V7.97852C4.55469 11.8422 7.69788 14.9862 11.5615 14.9863C15.4253 14.9863 18.5693 11.8423 18.5693 7.97852V3.58008H17.207V3.65918C17.207 4.30421 16.6841 4.8271 16.0391 4.82715C15.394 4.82715 14.8711 4.30424 14.8711 3.65918V1.16797C14.8711 0.522906 15.394 0 16.0391 0ZM25.459 13.082C24.364 13.0822 23.4736 13.9728 23.4736 15.0674C23.4737 16.1619 24.3641 17.0525 25.459 17.0527C26.5537 17.0527 27.4443 16.1621 27.4443 15.0674C27.4443 13.9727 26.5537 13.082 25.459 13.082Z"/>
</mask>
<path d="M16.0391 0C16.6841 5.10109e-05 17.207 0.522938 17.207 1.16797V1.24414H19.7373C20.3822 1.24431 20.9053 1.76715 20.9053 2.41211V7.97852C20.9053 12.7753 17.2714 16.737 12.6123 17.2607V23.8232C12.6123 27.0431 15.2323 29.6631 18.4521 29.6631C21.672 29.663 24.291 27.0431 24.291 23.8232V19.2266C22.4742 18.7155 21.1387 17.045 21.1387 15.0674C21.1387 12.6845 23.0767 10.7461 25.46 10.7461C27.8424 10.7462 29.7812 12.6846 29.7812 15.0674C29.7809 17.0453 28.4441 18.7158 26.627 19.2266V23.8232C26.627 28.3308 22.9597 31.999 18.4521 31.999C13.9441 31.999 10.2773 28.3309 10.2773 23.8232V17.2305C5.73123 16.6025 2.21875 12.6946 2.21875 7.97852V2.41211C2.21875 1.76705 2.74166 1.24414 3.38672 1.24414H5.83984V1.16797C5.83984 0.523038 6.36195 0.000213021 7.00684 0C7.6519 0 8.1748 0.522906 8.1748 1.16797V3.65918C8.1748 4.30424 7.6519 4.82715 7.00684 4.82715C6.36195 4.82694 5.83984 4.30411 5.83984 3.65918V3.58008H4.55469V7.97852C4.55469 11.8422 7.69788 14.9862 11.5615 14.9863C15.4253 14.9863 18.5693 11.8423 18.5693 7.97852V3.58008H17.207V3.65918C17.207 4.30421 16.6841 4.8271 16.0391 4.82715C15.394 4.82715 14.8711 4.30424 14.8711 3.65918V1.16797C14.8711 0.522906 15.394 0 16.0391 0ZM25.459 13.082C24.364 13.0822 23.4736 13.9728 23.4736 15.0674C23.4737 16.1619 24.3641 17.0525 25.459 17.0527C26.5537 17.0527 27.4443 16.1621 27.4443 15.0674C27.4443 13.9727 26.5537 13.082 25.459 13.082Z" fill="#006D35"/>
<path d="M16.0391 0L16.0391 -0.3H16.0391V0ZM17.207 1.24414H16.907V1.54414H17.207V1.24414ZM19.7373 1.24414L19.7374 0.944141H19.7373V1.24414ZM20.9053 2.41211H21.2053H20.9053ZM12.6123 17.2607L12.5788 16.9626L12.3123 16.9926V17.2607H12.6123ZM18.4521 29.6631V29.9631H18.4522L18.4521 29.6631ZM24.291 19.2266H24.591V18.9993L24.3722 18.9378L24.291 19.2266ZM21.1387 15.0674H20.8387V15.0674L21.1387 15.0674ZM25.46 10.7461L25.46 10.4461H25.46V10.7461ZM29.7812 15.0674L30.0812 15.0674V15.0674L29.7812 15.0674ZM26.627 19.2266L26.5458 18.9378L26.327 18.9993V19.2266H26.627ZM18.4521 31.999V32.299H18.4522L18.4521 31.999ZM10.2773 17.2305H10.5773V16.9691L10.3184 16.9333L10.2773 17.2305ZM5.83984 1.24414V1.54414H6.13984V1.24414H5.83984ZM7.00684 0V-0.3L7.00674 -0.3L7.00684 0ZM7.00684 4.82715L7.00674 5.12715H7.00684V4.82715ZM5.83984 3.58008H6.13984V3.28008H5.83984V3.58008ZM4.55469 3.58008V3.28008H4.25469V3.58008H4.55469ZM11.5615 14.9863L11.5615 15.2863H11.5615V14.9863ZM18.5693 3.58008H18.8693V3.28008H18.5693V3.58008ZM17.207 3.58008V3.28008H16.907V3.58008H17.207ZM16.0391 4.82715V5.12715H16.0391L16.0391 4.82715ZM25.459 13.082V12.782H25.4589L25.459 13.082ZM23.4736 15.0674H23.1736V15.0674L23.4736 15.0674ZM25.459 17.0527L25.4589 17.3527H25.459V17.0527ZM27.4443 15.0674L27.7443 15.0674V15.0674H27.4443ZM16.0391 0L16.039 0.3C16.5184 0.300038 16.907 0.688647 16.907 1.16797H17.207H17.507C17.507 0.357229 16.8497 -0.299936 16.0391 -0.3L16.0391 0ZM17.207 1.16797H16.907V1.24414H17.207H17.507V1.16797H17.207ZM17.207 1.24414V1.54414H19.7373V1.24414V0.944141H17.207V1.24414ZM19.7373 1.24414L19.7372 1.54414C20.2166 1.54426 20.6053 1.93291 20.6053 2.41211H20.9053H21.2053C21.2053 1.60139 20.5479 0.944348 19.7374 0.944141L19.7373 1.24414ZM20.9053 2.41211H20.6053V7.97852H20.9053H21.2053V2.41211H20.9053ZM20.9053 7.97852H20.6053C20.6053 12.6206 17.0881 16.4557 12.5788 16.9626L12.6123 17.2607L12.6458 17.5589C17.4547 17.0183 21.2053 12.93 21.2053 7.97852H20.9053ZM12.6123 17.2607H12.3123V23.8232H12.6123H12.9123V17.2607H12.6123ZM12.6123 23.8232H12.3123C12.3123 27.2088 15.0666 29.9631 18.4521 29.9631V29.6631V29.3631C15.398 29.3631 12.9123 26.8774 12.9123 23.8232H12.6123ZM18.4521 29.6631L18.4522 29.9631C21.8377 29.963 24.591 27.2087 24.591 23.8232H24.291H23.991C23.991 26.8775 21.5062 29.363 18.4521 29.3631L18.4521 29.6631ZM24.291 23.8232H24.591V19.2266H24.291H23.991V23.8232H24.291ZM24.291 19.2266L24.3722 18.9378C22.6811 18.4621 21.4387 16.9068 21.4387 15.0674L21.1387 15.0674L20.8387 15.0674C20.8387 17.1833 22.2674 18.969 24.2098 19.5154L24.291 19.2266ZM21.1387 15.0674H21.4387C21.4387 12.8502 23.2424 11.0461 25.46 11.0461V10.7461V10.4461C22.911 10.4461 20.8387 12.5188 20.8387 15.0674H21.1387ZM25.46 10.7461L25.4599 11.0461C27.6767 11.0462 29.4812 12.8503 29.4813 15.0674L29.7812 15.0674L30.0812 15.0674C30.0812 12.5189 28.008 10.4462 25.46 10.4461L25.46 10.7461ZM29.7812 15.0674L29.4813 15.0673C29.4809 16.9069 28.2374 18.4623 26.5458 18.9378L26.627 19.2266L26.7081 19.5154C28.6508 18.9693 30.0809 17.1837 30.0812 15.0674L29.7812 15.0674ZM26.627 19.2266H26.327V23.8232H26.627H26.927V19.2266H26.627ZM26.627 23.8232H26.327C26.327 28.1652 22.794 31.699 18.4521 31.699L18.4521 31.999L18.4522 32.299C23.1255 32.299 26.927 28.4965 26.927 23.8232H26.627ZM18.4521 31.999V31.699C14.1098 31.699 10.5773 28.1652 10.5773 23.8232H10.2773H9.97734C9.97734 28.4965 13.7783 32.299 18.4521 32.299V31.999ZM10.2773 23.8232H10.5773V17.2305H10.2773H9.97734V23.8232H10.2773ZM10.2773 17.2305L10.3184 16.9333C5.91833 16.3255 2.51875 12.5424 2.51875 7.97852H2.21875H1.91875C1.91875 12.8468 5.54413 16.8795 10.2363 17.5276L10.2773 17.2305ZM2.21875 7.97852H2.51875V2.41211H2.21875H1.91875V7.97852H2.21875ZM2.21875 2.41211H2.51875C2.51875 1.93273 2.90734 1.54414 3.38672 1.54414V1.24414V0.944141C2.57597 0.944141 1.91875 1.60136 1.91875 2.41211H2.21875ZM3.38672 1.24414V1.54414H5.83984V1.24414V0.944141H3.38672V1.24414ZM5.83984 1.24414H6.13984V1.16797H5.83984H5.53984V1.24414H5.83984ZM5.83984 1.16797H6.13984C6.13984 0.688495 6.52789 0.300158 7.00694 0.3L7.00684 0L7.00674 -0.3C6.19602 -0.299732 5.53984 0.35758 5.53984 1.16797H5.83984ZM7.00684 0V0.3C7.48621 0.3 7.8748 0.688592 7.8748 1.16797H8.1748H8.4748C8.4748 0.357221 7.81758 -0.3 7.00684 -0.3V0ZM8.1748 1.16797H7.8748V3.65918H8.1748H8.4748V1.16797H8.1748ZM8.1748 3.65918H7.8748C7.8748 4.13856 7.48621 4.52715 7.00684 4.52715V4.82715V5.12715C7.81758 5.12715 8.4748 4.46993 8.4748 3.65918H8.1748ZM7.00684 4.82715L7.00694 4.52715C6.52789 4.52699 6.13984 4.13865 6.13984 3.65918H5.83984H5.53984C5.53984 4.46957 6.19602 5.12688 7.00674 5.12715L7.00684 4.82715ZM5.83984 3.65918H6.13984V3.58008H5.83984H5.53984V3.65918H5.83984ZM5.83984 3.58008V3.28008H4.55469V3.58008V3.88008H5.83984V3.58008ZM4.55469 3.58008H4.25469V7.97852H4.55469H4.85469V3.58008H4.55469ZM4.55469 7.97852H4.25469C4.25469 12.0078 7.53215 15.2862 11.5615 15.2863L11.5615 14.9863L11.5615 14.6863C7.86361 14.6862 4.85469 11.6765 4.85469 7.97852H4.55469ZM11.5615 14.9863V15.2863C15.591 15.2863 18.8693 12.008 18.8693 7.97852H18.5693H18.2693C18.2693 11.6766 15.2596 14.6863 11.5615 14.6863V14.9863ZM18.5693 7.97852H18.8693V3.58008H18.5693H18.2693V7.97852H18.5693ZM18.5693 3.58008V3.28008H17.207V3.58008V3.88008H18.5693V3.58008ZM17.207 3.58008H16.907V3.65918H17.207H17.507V3.58008H17.207ZM17.207 3.65918H16.907C16.907 4.1385 16.5184 4.52711 16.039 4.52715L16.0391 4.82715L16.0391 5.12715C16.8497 5.12708 17.507 4.46992 17.507 3.65918H17.207ZM16.0391 4.82715V4.52715C15.5597 4.52715 15.1711 4.13856 15.1711 3.65918H14.8711H14.5711C14.5711 4.46993 15.2283 5.12715 16.0391 5.12715V4.82715ZM14.8711 3.65918H15.1711V1.16797H14.8711H14.5711V3.65918H14.8711ZM14.8711 1.16797H15.1711C15.1711 0.688592 15.5597 0.3 16.0391 0.3V0V-0.3C15.2283 -0.3 14.5711 0.357221 14.5711 1.16797H14.8711ZM25.459 13.082L25.4589 12.782C24.1984 12.7823 23.1736 13.8071 23.1736 15.0674H23.4736H23.7736C23.7736 14.1385 24.5297 13.3822 25.459 13.382L25.459 13.082ZM23.4736 15.0674L23.1736 15.0674C23.1737 16.3276 24.1984 17.3525 25.4589 17.3527L25.459 17.0527L25.459 16.7527C24.5298 16.7526 23.7737 15.9962 23.7736 15.0674L23.4736 15.0674ZM25.459 17.0527V17.3527C26.7194 17.3527 27.7443 16.3277 27.7443 15.0674L27.4443 15.0674L27.1443 15.0674C27.1443 15.9964 26.388 16.7527 25.459 16.7527V17.0527ZM27.4443 15.0674H27.7443C27.7443 13.807 26.7194 12.782 25.459 12.782V13.082V13.382C26.388 13.382 27.1443 14.1384 27.1443 15.0674H27.4443Z" fill="white" mask="url(#path-1-inside-1_2897_66955)"/>
</svg>
