<svg width="32" height="32" viewBox="0 0 32 32" fill="none" xmlns="http://www.w3.org/2000/svg">
<g clip-path="url(#clip0_2897_66981)">
<path d="M16.6055 0C17.6393 0 18.4803 0.841187 18.4805 1.875V4.75C18.4803 5.56468 17.9578 6.25961 17.2305 6.51758V8.29102L20.3555 12.458C20.7583 12.996 20.9804 13.6613 20.9805 14.332V19.7598L23.5195 18.2939C25.9128 16.9124 28.9671 17.7313 30.3486 20.124C31.7371 22.53 30.8907 25.5842 28.5186 26.9541L20.9414 31.3281C18.5728 32.6957 15.5517 31.9095 14.1504 29.5605H4.10645C2.38356 29.5605 0.981627 28.1594 0.981445 26.4365V14.332C0.981535 13.6612 1.20365 12.9958 1.60645 12.458L4.73145 8.29102V6.51758C4.00414 6.2596 3.48155 5.56458 3.48145 4.75V1.875C3.48145 0.841187 4.32263 0 5.35645 0H16.6055ZM16.5674 23.751C14.7852 24.7804 14.154 27.0619 15.1953 28.874C16.2316 30.6687 18.5229 31.2815 20.3164 30.2461L23.709 28.2871L19.959 21.793L16.5674 23.751ZM2.23145 25.8047V26.4365C2.23163 27.4702 3.07274 28.3115 4.10645 28.3115H13.6162C13.3893 27.4812 13.3877 26.615 13.5859 25.8047H2.23145ZM29.2666 20.749C28.2303 18.9542 25.9393 18.341 24.1445 19.377L21.042 21.168L24.792 27.6621L27.8936 25.8711C29.6738 24.8431 30.3073 22.5529 29.2666 20.749ZM2.23145 15.374V24.5615H14.0762C14.5132 23.7751 15.1516 23.1252 15.9414 22.6689L19.7305 20.4814V15.374H2.23145ZM10.9805 17.0625C11.3256 17.0625 11.6055 17.3424 11.6055 17.6875V19.5625H13.4805C13.8257 19.5625 14.1055 19.8424 14.1055 20.1875C14.1054 20.5325 13.8255 20.8125 13.4805 20.8125H11.6055V22.6875C11.6053 23.0325 11.3254 23.3125 10.9805 23.3125C10.6356 23.3123 10.3556 23.0324 10.3555 22.6875V20.8125H8.48145C8.13638 20.8125 7.85655 20.5325 7.85645 20.1875C7.85645 19.8424 8.13632 19.5625 8.48145 19.5625H10.3555V17.6875C10.3555 17.3425 10.6355 17.0627 10.9805 17.0625ZM5.98145 6.625V8.5C5.98135 8.6351 5.93748 8.76699 5.85645 8.875L2.60645 13.207C2.40659 13.4739 2.28267 13.7939 2.24512 14.124H19.7168C19.6792 13.7939 19.5555 13.4741 19.3555 13.207L16.293 9.125H10.3564C10.0114 9.125 9.73165 8.84495 9.73145 8.5C9.73145 8.15487 10.0113 7.875 10.3564 7.875H15.9805V6.625H5.98145ZM7.85645 7.875C8.20122 7.87526 8.48145 8.15516 8.48145 8.5C8.48145 8.84484 8.20122 9.12474 7.85645 9.125C7.51145 9.125 7.23145 8.845 7.23145 8.5C7.23145 8.155 7.51145 7.875 7.85645 7.875ZM5.35645 1.25C5.01188 1.25 4.73145 1.53038 4.73145 1.875V4.75C4.73158 5.09445 5.0119 5.375 5.35645 5.375H16.6055C16.95 5.375 17.2303 5.09451 17.2305 4.75V1.875C17.2305 1.53038 16.9501 1.25 16.6055 1.25H5.35645Z" fill="#00AFD6"/>
<path d="M18.4805 1.875H18.6305V1.87498L18.4805 1.875ZM18.4805 4.75L18.6305 4.75002V4.75H18.4805ZM17.2305 6.51758L17.1803 6.37621L17.0805 6.41163V6.51758H17.2305ZM17.2305 8.29102H17.0805V8.34101L17.1105 8.38101L17.2305 8.29102ZM20.3555 12.458L20.4755 12.3681L20.4755 12.368L20.3555 12.458ZM20.9805 14.332H21.1305V14.332L20.9805 14.332ZM20.9805 19.7598H20.8305V20.0196L21.0555 19.8897L20.9805 19.7598ZM23.5195 18.2939L23.4445 18.164L23.4445 18.164L23.5195 18.2939ZM30.3486 20.124L30.4785 20.049L30.4785 20.049L30.3486 20.124ZM28.5186 26.9541L28.5935 27.084L28.5936 27.084L28.5186 26.9541ZM20.9414 31.3281L20.8664 31.1982L20.8664 31.1982L20.9414 31.3281ZM14.1504 29.5605L14.2792 29.4837L14.2356 29.4105H14.1504V29.5605ZM0.981445 26.4365H0.831445V26.4365L0.981445 26.4365ZM0.981445 14.332L0.831445 14.332V14.332H0.981445ZM1.60645 12.458L1.48644 12.368L1.48639 12.3681L1.60645 12.458ZM4.73145 8.29102L4.85145 8.38101L4.88145 8.34101V8.29102H4.73145ZM4.73145 6.51758H4.88145V6.41163L4.78159 6.37621L4.73145 6.51758ZM3.48145 4.75H3.33145V4.75002L3.48145 4.75ZM16.5674 23.751L16.4924 23.6211L16.4924 23.6211L16.5674 23.751ZM15.1953 28.874L15.0653 28.9488L15.0654 28.949L15.1953 28.874ZM20.3164 30.2461L20.3914 30.376L20.3914 30.376L20.3164 30.2461ZM23.709 28.2871L23.784 28.417L23.9139 28.342L23.8389 28.2121L23.709 28.2871ZM19.959 21.793L20.0889 21.718L20.0139 21.5881L19.884 21.6631L19.959 21.793ZM2.23145 25.8047V25.6547H2.08145V25.8047H2.23145ZM2.23145 26.4365H2.08145V26.4366L2.23145 26.4365ZM13.6162 28.3115V28.4615H13.8127L13.7609 28.272L13.6162 28.3115ZM13.5859 25.8047L13.7316 25.8403L13.777 25.6547H13.5859V25.8047ZM29.2666 20.749L29.3965 20.6741L29.3965 20.674L29.2666 20.749ZM24.1445 19.377L24.0695 19.247L24.0695 19.247L24.1445 19.377ZM21.042 21.168L20.967 21.0381L20.8371 21.1131L20.9121 21.243L21.042 21.168ZM24.792 27.6621L24.6621 27.7371L24.7371 27.867L24.867 27.792L24.792 27.6621ZM27.8936 25.8711L27.9686 26.001L27.8936 25.8711ZM2.23145 15.374V15.224H2.08145V15.374H2.23145ZM2.23145 24.5615H2.08145V24.7115H2.23145V24.5615ZM14.0762 24.5615V24.7115H14.1644L14.2073 24.6344L14.0762 24.5615ZM15.9414 22.6689L15.8664 22.539L15.8664 22.5391L15.9414 22.6689ZM19.7305 20.4814L19.8055 20.6114L19.8805 20.5681V20.4814H19.7305ZM19.7305 15.374H19.8805V15.224H19.7305V15.374ZM10.9805 17.0625V16.9125H10.9804L10.9805 17.0625ZM11.6055 19.5625H11.4555V19.7125H11.6055V19.5625ZM14.1055 20.1875L14.2555 20.1875V20.1875H14.1055ZM11.6055 20.8125V20.6625H11.4555V20.8125H11.6055ZM11.6055 22.6875L11.7555 22.6876V22.6875H11.6055ZM10.9805 23.3125L10.9804 23.4625H10.9805V23.3125ZM10.3555 22.6875H10.2055V22.6876L10.3555 22.6875ZM10.3555 20.8125H10.5055V20.6625H10.3555V20.8125ZM7.85645 20.1875H7.70645V20.1875L7.85645 20.1875ZM10.3555 19.5625V19.7125H10.5055V19.5625H10.3555ZM5.98145 6.625V6.475H5.83145V6.625H5.98145ZM5.98145 8.5L6.13145 8.5001V8.5H5.98145ZM5.85645 8.875L5.73646 8.78498L5.73646 8.78498L5.85645 8.875ZM2.60645 13.207L2.48646 13.117L2.48639 13.1171L2.60645 13.207ZM2.24512 14.124L2.09608 14.1071L2.07709 14.274H2.24512V14.124ZM19.7168 14.124V14.274H19.8849L19.8658 14.107L19.7168 14.124ZM19.3555 13.207L19.4755 13.1171L19.4755 13.117L19.3555 13.207ZM16.293 9.125L16.413 9.03498L16.368 8.975H16.293V9.125ZM9.73145 8.5H9.58145V8.50009L9.73145 8.5ZM15.9805 7.875V8.025H16.1305V7.875H15.9805ZM15.9805 6.625H16.1305V6.475H15.9805V6.625ZM7.85645 7.875L7.85656 7.725H7.85645V7.875ZM7.85645 9.125V9.275H7.85656L7.85645 9.125ZM4.73145 4.75H4.58145V4.75006L4.73145 4.75ZM17.2305 4.75L17.3805 4.75006V4.75H17.2305ZM16.6055 0V0.15C17.5564 0.15 18.3304 0.924018 18.3305 1.87502L18.4805 1.875L18.6305 1.87498C18.6303 0.758357 17.7221 -0.15 16.6055 -0.15V0ZM18.4805 1.875H18.3305V4.75H18.4805H18.6305V1.875H18.4805ZM18.4805 4.75L18.3305 4.74998C18.3303 5.499 17.8498 6.13874 17.1803 6.37621L17.2305 6.51758L17.2806 6.65895C18.0657 6.38048 18.6303 5.63036 18.6305 4.75002L18.4805 4.75ZM17.2305 6.51758H17.0805V8.29102H17.2305H17.3805V6.51758H17.2305ZM17.2305 8.29102L17.1105 8.38101L20.2355 12.548L20.3555 12.458L20.4755 12.368L17.3505 8.20102L17.2305 8.29102ZM20.3555 12.458L20.2354 12.5479C20.6189 13.06 20.8304 13.6939 20.8305 14.3321L20.9805 14.332L21.1305 14.332C21.1304 13.6288 20.8978 12.9319 20.4755 12.3681L20.3555 12.458ZM20.9805 14.332H20.8305V19.7598H20.9805H21.1305V14.332H20.9805ZM20.9805 19.7598L21.0555 19.8897L23.5945 18.4239L23.5195 18.2939L23.4445 18.164L20.9055 19.6299L20.9805 19.7598ZM23.5195 18.2939L23.5945 18.4239C25.916 17.0837 28.8786 17.878 30.2187 20.199L30.3486 20.124L30.4785 20.049C29.0556 17.5846 25.9095 16.741 23.4445 18.164L23.5195 18.2939ZM30.3486 20.124L30.2187 20.199C31.5654 22.5326 30.7446 25.4954 28.4435 26.8242L28.5186 26.9541L28.5936 27.084C31.0368 25.6731 31.9088 22.5274 30.4785 20.049L30.3486 20.124ZM28.5186 26.9541L28.4436 26.8242L20.8664 31.1982L20.9414 31.3281L21.0164 31.458L28.5935 27.084L28.5186 26.9541ZM20.9414 31.3281L20.8664 31.1982C18.5689 32.5248 15.6385 31.7622 14.2792 29.4837L14.1504 29.5605L14.0216 29.6374C15.4649 32.0568 18.5768 32.8666 21.0164 31.458L20.9414 31.3281ZM14.1504 29.5605V29.4105H4.10645V29.5605V29.7105H14.1504V29.5605ZM4.10645 29.5605V29.4105C2.46635 29.4105 1.13162 28.0765 1.13145 26.4365L0.981445 26.4365L0.831445 26.4365C0.831636 28.2423 2.30076 29.7105 4.10645 29.7105V29.5605ZM0.981445 26.4365H1.13145V14.332H0.981445H0.831445V26.4365H0.981445ZM0.981445 14.332L1.13145 14.3321C1.13153 13.6938 1.34308 13.0598 1.7265 12.5479L1.60645 12.458L1.48639 12.3681C1.06422 12.9317 0.831539 13.6287 0.831445 14.332L0.981445 14.332ZM1.60645 12.458L1.72645 12.548L4.85145 8.38101L4.73145 8.29102L4.61144 8.20102L1.48644 12.368L1.60645 12.458ZM4.73145 8.29102H4.88145V6.51758H4.73145H4.58145V8.29102H4.73145ZM4.73145 6.51758L4.78159 6.37621C4.11208 6.13873 3.63154 5.4989 3.63145 4.74998L3.48145 4.75L3.33145 4.75002C3.33156 5.63026 3.89621 6.38048 4.6813 6.65895L4.73145 6.51758ZM3.48145 4.75H3.63145V1.875H3.48145H3.33145V4.75H3.48145ZM3.48145 1.875H3.63145C3.63145 0.92403 4.40548 0.15 5.35645 0.15V0V-0.15C4.23979 -0.15 3.33145 0.758345 3.33145 1.875H3.48145ZM5.35645 0V0.15H16.6055V0V-0.15H5.35645V0ZM16.5674 23.751L16.4924 23.6211C14.6389 24.6917 13.9826 27.0646 15.0653 28.9488L15.1953 28.874L15.3254 28.7993C14.3255 27.0593 14.9314 24.8691 16.6424 23.8809L16.5674 23.751ZM15.1953 28.874L15.0654 28.949C16.1432 30.8155 18.5262 31.4528 20.3914 30.376L20.3164 30.2461L20.2414 30.1162C18.5196 31.1102 16.3201 30.5219 15.3252 28.799L15.1953 28.874ZM20.3164 30.2461L20.3914 30.376L23.784 28.417L23.709 28.2871L23.634 28.1572L20.2414 30.1162L20.3164 30.2461ZM23.709 28.2871L23.8389 28.2121L20.0889 21.718L19.959 21.793L19.8291 21.868L23.5791 28.3621L23.709 28.2871ZM19.959 21.793L19.884 21.6631L16.4924 23.6211L16.5674 23.751L16.6424 23.8809L20.034 21.9229L19.959 21.793ZM2.23145 25.8047H2.08145V26.4365H2.23145H2.38145V25.8047H2.23145ZM2.23145 26.4365L2.08145 26.4366C2.08164 27.553 2.98988 28.4615 4.10645 28.4615V28.3115V28.1615C3.15561 28.1615 2.38161 27.3874 2.38145 26.4365L2.23145 26.4365ZM4.10645 28.3115V28.4615H13.6162V28.3115V28.1615H4.10645V28.3115ZM13.6162 28.3115L13.7609 28.272C13.5409 27.467 13.5393 26.6267 13.7316 25.8403L13.5859 25.8047L13.4402 25.7691C13.2362 26.6033 13.2376 27.4954 13.4715 28.3511L13.6162 28.3115ZM13.5859 25.8047V25.6547H2.23145V25.8047V25.9547H13.5859V25.8047ZM29.2666 20.749L29.3965 20.674C28.3187 18.8074 25.936 18.1697 24.0695 19.247L24.1445 19.377L24.2195 19.5069C25.9425 18.5123 28.1418 19.101 29.1367 20.824L29.2666 20.749ZM24.1445 19.377L24.0695 19.247L20.967 21.0381L21.042 21.168L21.117 21.2979L24.2195 19.5069L24.1445 19.377ZM21.042 21.168L20.9121 21.243L24.6621 27.7371L24.792 27.6621L24.9219 27.5871L21.1719 21.093L21.042 21.168ZM24.792 27.6621L24.867 27.792L27.9686 26.001L27.8936 25.8711L27.8185 25.7412L24.717 27.5322L24.792 27.6621ZM27.8936 25.8711L27.9686 26.001C29.8199 24.9319 30.479 22.5502 29.3965 20.6741L29.2666 20.749L29.1367 20.824C30.1357 22.5555 29.5277 24.7542 27.8185 25.7412L27.8936 25.8711ZM2.23145 15.374H2.08145V24.5615H2.23145H2.38145V15.374H2.23145ZM2.23145 24.5615V24.7115H14.0762V24.5615V24.4115H2.23145V24.5615ZM14.0762 24.5615L14.2073 24.6344C14.631 23.8718 15.2501 23.2416 16.0164 22.7988L15.9414 22.6689L15.8664 22.5391C15.0532 23.0089 14.3953 23.6784 13.9451 24.4887L14.0762 24.5615ZM15.9414 22.6689L16.0164 22.7989L19.8055 20.6114L19.7305 20.4814L19.6555 20.3515L15.8664 22.539L15.9414 22.6689ZM19.7305 20.4814H19.8805V15.374H19.7305H19.5805V20.4814H19.7305ZM19.7305 15.374V15.224H2.23145V15.374V15.524H19.7305V15.374ZM10.9805 17.0625V17.2125C11.2428 17.2125 11.4555 17.4252 11.4555 17.6875H11.6055H11.7555C11.7555 17.2595 11.4084 16.9125 10.9805 16.9125V17.0625ZM11.6055 17.6875H11.4555V19.5625H11.6055H11.7555V17.6875H11.6055ZM11.6055 19.5625V19.7125H13.4805V19.5625V19.4125H11.6055V19.5625ZM13.4805 19.5625V19.7125C13.7428 19.7125 13.9555 19.9252 13.9555 20.1875H14.1055H14.2555C14.2555 19.7595 13.9085 19.4125 13.4805 19.4125V19.5625ZM14.1055 20.1875L13.9555 20.1875C13.9554 20.4497 13.7426 20.6625 13.4805 20.6625V20.8125V20.9625C13.9084 20.9625 14.2553 20.6153 14.2555 20.1875L14.1055 20.1875ZM13.4805 20.8125V20.6625H11.6055V20.8125V20.9625H13.4805V20.8125ZM11.6055 20.8125H11.4555V22.6875H11.6055H11.7555V20.8125H11.6055ZM11.6055 22.6875L11.4555 22.6874C11.4553 22.9497 11.2425 23.1625 10.9805 23.1625V23.3125V23.4625C11.4083 23.4625 11.7553 23.1153 11.7555 22.6876L11.6055 22.6875ZM10.9805 23.3125L10.9805 23.1625C10.7185 23.1624 10.5056 22.9495 10.5055 22.6874L10.3555 22.6875L10.2055 22.6876C10.2057 23.1152 10.5528 23.4623 10.9804 23.4625L10.9805 23.3125ZM10.3555 22.6875H10.5055V20.8125H10.3555H10.2055V22.6875H10.3555ZM10.3555 20.8125V20.6625H8.48145V20.8125V20.9625H10.3555V20.8125ZM8.48145 20.8125V20.6625C8.21928 20.6625 8.00652 20.4497 8.00645 20.1875L7.85645 20.1875L7.70645 20.1875C7.70657 20.6153 8.05349 20.9625 8.48145 20.9625V20.8125ZM7.85645 20.1875H8.00645C8.00645 19.9253 8.21917 19.7125 8.48145 19.7125V19.5625V19.4125C8.05347 19.4125 7.70645 19.7596 7.70645 20.1875H7.85645ZM8.48145 19.5625V19.7125H10.3555V19.5625V19.4125H8.48145V19.5625ZM10.3555 19.5625H10.5055V17.6875H10.3555H10.2055V19.5625H10.3555ZM10.3555 17.6875H10.5055C10.5055 17.4254 10.7183 17.2126 10.9805 17.2125L10.9805 17.0625L10.9804 16.9125C10.5527 16.9127 10.2055 17.2596 10.2055 17.6875H10.3555ZM5.98145 6.625H5.83145V8.5H5.98145H6.13145V6.625H5.98145ZM5.98145 8.5L5.83145 8.4999C5.83137 8.60269 5.79796 8.70301 5.73646 8.78498L5.85645 8.875L5.97643 8.96502C6.07701 8.83097 6.13133 8.6675 6.13145 8.5001L5.98145 8.5ZM5.85645 8.875L5.73646 8.78498L2.48646 13.117L2.60645 13.207L2.72643 13.297L5.97643 8.96502L5.85645 8.875ZM2.60645 13.207L2.48639 13.1171C2.27004 13.406 2.13654 13.7513 2.09608 14.1071L2.24512 14.124L2.39416 14.141C2.4288 13.8364 2.54313 13.5418 2.7265 13.297L2.60645 13.207ZM2.24512 14.124V14.274H19.7168V14.124V13.974H2.24512V14.124ZM19.7168 14.124L19.8658 14.107C19.8253 13.7514 19.6921 13.4062 19.4755 13.1171L19.3555 13.207L19.2354 13.297C19.4189 13.542 19.5331 13.8364 19.5678 14.141L19.7168 14.124ZM19.3555 13.207L19.4755 13.117L16.413 9.03498L16.293 9.125L16.173 9.21502L19.2355 13.297L19.3555 13.207ZM16.293 9.125V8.975H10.3564V9.125V9.275H16.293V9.125ZM10.3564 9.125V8.975C10.0944 8.975 9.8816 8.76218 9.88144 8.49991L9.73145 8.5L9.58145 8.50009C9.5817 8.92773 9.92851 9.275 10.3564 9.275V9.125ZM9.73145 8.5H9.88144C9.88144 8.23772 10.0942 8.025 10.3564 8.025V7.875V7.725C9.92848 7.725 9.58145 8.07203 9.58145 8.5H9.73145ZM10.3564 7.875V8.025H15.9805V7.875V7.725H10.3564V7.875ZM15.9805 7.875H16.1305V6.625H15.9805H15.8305V7.875H15.9805ZM15.9805 6.625V6.475H5.98145V6.625V6.775H15.9805V6.625ZM7.85645 7.875L7.85633 8.025C8.11847 8.0252 8.33145 8.23812 8.33145 8.5H8.48145H8.63145C8.63145 8.07221 8.28397 7.72533 7.85656 7.725L7.85645 7.875ZM8.48145 8.5H8.33145C8.33145 8.76188 8.11847 8.9748 7.85633 8.975L7.85645 9.125L7.85656 9.275C8.28397 9.27467 8.63145 8.92779 8.63145 8.5H8.48145ZM7.85645 9.125V8.975C7.59429 8.975 7.38145 8.76216 7.38145 8.5H7.23145H7.08145C7.08145 8.92784 7.4286 9.275 7.85645 9.275V9.125ZM7.23145 8.5H7.38145C7.38145 8.23784 7.59429 8.025 7.85645 8.025V7.875V7.725C7.4286 7.725 7.08145 8.07216 7.08145 8.5H7.23145ZM5.35645 1.25V1.1C4.92905 1.1 4.58145 1.44752 4.58145 1.875H4.73145H4.88145C4.88145 1.61323 5.09472 1.4 5.35645 1.4V1.25ZM4.73145 1.875H4.58145V4.75H4.73145H4.88145V1.875H4.73145ZM4.73145 4.75L4.58145 4.75006C4.58161 5.17724 4.92899 5.525 5.35645 5.525V5.375V5.225C5.09481 5.225 4.88155 5.01166 4.88145 4.74994L4.73145 4.75ZM5.35645 5.375V5.525H16.6055V5.375V5.225H5.35645V5.375ZM16.6055 5.375V5.525C17.0329 5.525 17.3803 5.17731 17.3805 4.75006L17.2305 4.75L17.0805 4.74994C17.0804 5.01171 16.8671 5.225 16.6055 5.225V5.375ZM17.2305 4.75H17.3805V1.875H17.2305H17.0805V4.75H17.2305ZM17.2305 1.875H17.3805C17.3805 1.44753 17.0329 1.1 16.6055 1.1V1.25V1.4C16.8673 1.4 17.0805 1.61322 17.0805 1.875H17.2305ZM16.6055 1.25V1.1H5.35645V1.25V1.4H16.6055V1.25Z" fill="#00AFD6"/>
</g>
<defs>
<clipPath id="clip0_2897_66981">
<rect width="32" height="32" fill="white"/>
</clipPath>
</defs>
</svg>
