<svg width="18" height="18" viewBox="0 0 18 18" fill="none" xmlns="http://www.w3.org/2000/svg">
<path d="M9 0C7.21997 0 5.47991 0.527841 3.99987 1.51677C2.51983 2.50571 1.36628 3.91131 0.685088 5.55585C0.00389956 7.20038 -0.17433 9.00998 0.172936 10.7558C0.520203 12.5016 1.37737 14.1053 2.63604 15.364C3.89471 16.6226 5.49836 17.4798 7.24419 17.8271C8.99002 18.1743 10.7996 17.9961 12.4442 17.3149C14.0887 16.6337 15.4943 15.4802 16.4832 14.0001C17.4722 12.5201 18 10.78 18 9C17.998 6.61366 17.0492 4.32564 15.3618 2.63824C13.6744 0.950847 11.3863 0.00199536 9 0ZM9 2.93023C10.0263 2.93121 11.0353 3.19555 11.9302 3.69795L3.69879 11.9302C3.19645 11.0352 2.93184 10.0264 2.93024 9C2.93134 7.39054 3.57119 5.84731 4.70925 4.70925C5.84732 3.57119 7.39054 2.93134 9 2.93023ZM9 15.0698C7.97366 15.0688 6.96474 14.8044 6.06977 14.302L14.302 6.06977C14.8045 6.96474 15.0688 7.97366 15.0698 9C15.0687 10.6095 14.4288 12.1527 13.2907 13.2907C12.1527 14.4288 10.6095 15.0687 9 15.0698Z" fill="#839D8D"/>
</svg>
