<svg width="32" height="28" viewBox="0 0 32 28" fill="none" xmlns="http://www.w3.org/2000/svg">
<path d="M16.0007 27.7203C15.8729 27.7201 15.7469 27.6898 15.6331 27.6317C15.5471 27.5884 13.4982 26.5391 10.8217 24.5924C8.35168 22.7927 4.8637 19.8583 2.2915 16.0833C1.91461 15.5319 1.57507 14.956 1.27517 14.3593C1.21342 14.2357 1.18428 14.0983 1.19053 13.9603C1.19677 13.8222 1.23819 13.6881 1.31084 13.5705C1.38348 13.4529 1.48498 13.3558 1.60571 13.2884C1.72645 13.221 1.8624 13.1857 2.00066 13.1856H7.21641L8.53819 11.2935C8.61787 11.1793 8.72564 11.0875 8.85111 11.027C8.97658 10.9665 9.11551 10.9393 9.25453 10.9481C9.39354 10.9569 9.52794 11.0014 9.64478 11.0772C9.76162 11.1531 9.85695 11.2577 9.92159 11.3811L11.5077 14.4085L14.1762 8.69429C14.2477 8.5403 14.3658 8.41266 14.5137 8.32936C14.6617 8.24607 14.8321 8.21131 15.0008 8.23001C15.1696 8.2487 15.3282 8.31989 15.4544 8.43355C15.5805 8.5472 15.6678 8.69759 15.7039 8.86349L17.369 16.4428L19.7173 11.4151C19.7813 11.2782 19.8822 11.1618 20.0087 11.0791C20.1353 10.9964 20.2824 10.9508 20.4335 10.9473C20.5846 10.9438 20.7337 10.9826 20.8639 11.0594C20.9942 11.1361 21.1003 11.2477 21.1705 11.3816L22.8977 14.6793L23.6973 13.5332C23.772 13.4262 23.8715 13.3388 23.9873 13.2785C24.1031 13.2182 24.2317 13.1867 24.3622 13.1867H29.4893C31.0349 9.74252 30.5543 6.31292 28.1665 3.93642C25.438 1.21989 20.9986 1.21989 18.2696 3.93642C17.8069 4.39702 17.2241 4.94249 16.6072 5.5204L16.5559 5.56797C16.4056 5.70859 16.2076 5.78683 16.0018 5.78683C15.796 5.78683 15.5979 5.70859 15.4477 5.56797L15.3936 5.51769C14.7768 4.93762 14.1951 4.39702 13.7329 3.9348C11.0044 1.21881 6.56444 1.21881 3.83601 3.9348C2.03039 5.73177 1.29517 8.16341 1.75901 10.7805C1.79676 10.9922 1.74889 11.2102 1.62591 11.3866C1.50294 11.563 1.31494 11.6833 1.10325 11.7211C0.998394 11.7398 0.890881 11.7377 0.786854 11.7148C0.682828 11.6919 0.584326 11.6488 0.496974 11.5878C0.409623 11.5269 0.335134 11.4493 0.277761 11.3596C0.220389 11.2699 0.181257 11.1697 0.162601 11.0648C-0.11581 9.50303 -0.0363414 7.9888 0.398305 6.5643C0.836871 5.13372 1.62503 3.83498 2.69155 2.78548C6.05141 -0.558701 11.5175 -0.558701 14.8773 2.78548C15.1968 3.10389 15.5833 3.47096 16.0007 3.86344C16.418 3.47096 16.8046 3.1066 17.1246 2.78548C20.4839 -0.558701 25.9505 -0.558701 29.3098 2.78548C30.7533 4.20676 31.6754 6.0733 31.9269 8.0834C32.1815 10.1085 31.7647 12.278 30.7262 14.3582C30.6573 14.4962 30.5504 14.6116 30.4182 14.691C30.286 14.7704 30.1338 14.8104 29.9796 14.8064H24.7861L23.4637 16.6985C23.3844 16.8131 23.2768 16.9054 23.1515 16.9664C23.0261 17.0273 22.8871 17.0549 22.7479 17.0465C22.6087 17.0381 22.4741 16.9939 22.3569 16.9183C22.2398 16.8426 22.1442 16.7381 22.0792 16.6147L20.4931 13.5873L17.8247 19.2988C17.7528 19.4521 17.6348 19.5792 17.487 19.662C17.3393 19.7448 17.1694 19.7794 17.001 19.7607C16.8327 19.742 16.6744 19.6711 16.5485 19.5579C16.4225 19.4447 16.3351 19.295 16.2986 19.1296L14.6335 11.5503L12.2851 16.5779C12.2212 16.7148 12.1202 16.831 11.9937 16.9136C11.8673 16.9961 11.7202 17.0417 11.5692 17.0452C11.4182 17.0487 11.2692 17.0099 11.1391 16.9333C11.0089 16.8567 10.9027 16.7452 10.8325 16.6114L9.10528 13.3138L8.30465 14.4593C8.22994 14.5662 8.13054 14.6536 8.01487 14.7139C7.89921 14.7742 7.77069 14.8058 7.64024 14.8058H3.39271C3.47002 14.9275 3.55003 15.048 3.63166 15.168C6.066 18.7403 9.39126 21.5412 11.7521 23.2641C13.111 24.2591 14.5297 25.1697 16.0002 25.9909C17.4819 25.173 23.128 21.8575 27.2128 16.7369C27.2783 16.6511 27.3603 16.5792 27.4539 16.5255C27.5475 16.4718 27.6509 16.4373 27.7581 16.424C27.8652 16.4108 27.9739 16.4191 28.0778 16.4484C28.1816 16.4778 28.2786 16.5275 28.363 16.5948C28.4474 16.6621 28.5175 16.7456 28.5692 16.8403C28.6209 16.9351 28.6532 17.0392 28.6642 17.1466C28.6751 17.254 28.6645 17.3625 28.633 17.4657C28.6014 17.5689 28.5496 17.6648 28.4805 17.7478C25.8954 20.9914 22.7447 23.5014 20.5569 25.0384C18.1864 26.7034 16.4418 27.5971 16.3683 27.6333C16.2543 27.6908 16.1284 27.7207 16.0007 27.7203Z" fill="#E93353"/>
</svg>
