<svg width="40" height="40" viewBox="0 0 40 40" fill="none" xmlns="http://www.w3.org/2000/svg">
<g id="animal">
<path id="Vector" d="M15.7864 6.95312C14.952 6.95312 14.2164 7.41881 13.7137 8.10832C13.211 8.7971 12.9156 9.71908 12.9156 10.7306C12.9156 11.7428 13.211 12.6648 13.7137 13.3536C14.2164 14.0424 14.952 14.5088 15.7864 14.5088C16.6207 14.5088 17.3563 14.0424 17.859 13.3536C18.3617 12.6648 18.6564 11.7428 18.6564 10.7306C18.6564 9.71981 18.3624 8.7971 17.859 8.10832C17.3563 7.41881 16.6207 6.95312 15.7864 6.95312ZM23.7527 6.95312C22.9184 6.95312 22.1828 7.41881 21.6801 8.10832C21.1774 8.7971 20.8827 9.71908 20.8827 10.7306C20.8827 11.7428 21.1766 12.6648 21.6801 13.3536C22.1828 14.0424 22.9184 14.5088 23.7527 14.5088C24.587 14.5088 25.3226 14.0424 25.8253 13.3536C26.328 12.6648 26.6235 11.7428 26.6235 10.7306C26.6235 9.71981 26.328 8.7971 25.8253 8.10832C25.3226 7.41881 24.587 6.95312 23.7527 6.95312ZM15.7864 7.67512C16.329 7.67512 16.8415 7.9733 17.2409 8.5213C17.6404 9.06857 17.9027 9.85554 17.9027 10.7306C17.9027 11.6064 17.6404 12.3912 17.2409 12.9392C16.8415 13.4864 16.329 13.7868 15.7864 13.7868C15.2437 13.7868 14.7312 13.4864 14.3318 12.9392C13.9323 12.3912 13.6693 11.6064 13.6693 10.7306C13.6693 9.85554 13.9323 9.06857 14.3325 8.5213C14.732 7.9733 15.243 7.67512 15.7864 7.67512ZM23.7527 7.67512C24.2954 7.67512 24.8079 7.9733 25.2073 8.5213C25.6068 9.06857 25.8698 9.85554 25.8698 10.7306C25.8698 11.6064 25.6068 12.3912 25.2066 12.9392C24.8071 13.4864 24.2961 13.7868 23.7527 13.7868C23.2101 13.7868 22.6976 13.4864 22.2981 12.9392C21.8987 12.3912 21.6364 11.6064 21.6364 10.7306C21.6364 9.85554 21.8987 9.06857 22.2981 8.5213C22.6976 7.9733 23.2101 7.67512 23.7527 7.67512ZM9.82854 12.6583C8.99422 12.6583 8.25863 13.1247 7.75593 13.8135C7.25096 14.5023 6.95703 15.4243 6.95703 16.4365C6.95703 17.4473 7.25172 18.37 7.75517 19.0588C8.25788 19.7483 8.99347 20.214 9.82779 20.214C10.6621 20.214 11.3969 19.7483 11.9004 19.0588C12.4031 18.37 12.6978 17.448 12.6978 16.4365C12.6978 15.4243 12.4031 14.5023 11.9004 13.8135C11.3969 13.1247 10.6629 12.6583 9.82854 12.6583ZM29.712 12.6583C28.8777 12.6583 28.1429 13.1247 27.6394 13.8135C27.1367 14.5023 26.842 15.4243 26.842 16.4365C26.842 17.4473 27.1367 18.37 27.6394 19.0588C28.1429 19.7483 28.8777 20.214 29.712 20.214C30.5464 20.214 31.2819 19.7483 31.7846 19.0588C32.2881 18.37 32.582 17.448 32.582 16.4372C32.582 15.425 32.2873 14.503 31.7839 13.8142C31.2812 13.1254 30.5456 12.659 29.7113 12.659L29.712 12.6583ZM9.82854 13.3803C10.3712 13.3803 10.8829 13.6807 11.2831 14.2279C11.6826 14.7752 11.9449 15.5607 11.9449 16.4365C11.9449 17.3116 11.6826 18.0985 11.2824 18.6458C10.8829 19.1938 10.3712 19.492 9.82779 19.492C9.28514 19.492 8.77339 19.1938 8.37319 18.6458C7.97374 18.0985 7.71146 17.3116 7.71146 16.4365C7.71146 15.5607 7.97449 14.7759 8.37394 14.2279C8.77339 13.6807 9.28589 13.3803 9.82854 13.3803ZM29.712 13.3803C30.2547 13.3803 30.7672 13.6807 31.1666 14.2279C31.5661 14.7752 31.8284 15.5607 31.8284 16.4372C31.8284 17.3123 31.5653 18.0993 31.1659 18.6465C30.7664 19.1945 30.2539 19.4927 29.7113 19.4927C29.1686 19.4927 28.6569 19.1945 28.2567 18.6465C27.8572 18.0993 27.595 17.3123 27.595 16.4372C27.595 15.5615 27.8572 14.7766 28.2574 14.2287C28.6569 13.6814 29.1686 13.3803 29.712 13.3803ZM19.7695 15.6892C17.3306 15.6892 15.2007 16.9051 14.1343 18.7195C13.7786 19.3158 13.5035 20.2898 13.0467 20.8652C12.5493 21.4912 11.9283 21.9829 11.2492 22.3597C11.2454 22.3621 11.2416 22.3645 11.2379 22.367C9.55571 23.3835 8.47041 25.0867 8.46891 26.9856C8.46891 30.0872 11.3268 32.5767 14.8043 32.5767C15.7069 32.5759 16.6003 32.4039 17.4331 32.0706C18.1734 31.7752 18.9676 31.6238 19.7695 31.6251C20.5933 31.6251 21.3726 31.7818 22.0954 32.0677H22.0969C22.9259 32.3998 23.8175 32.5774 24.7348 32.5781C28.2122 32.5781 31.0702 30.0887 31.0702 26.987C31.0679 25.0846 29.9781 23.3806 28.2959 22.3677C28.2919 22.3652 28.2879 22.3628 28.2838 22.3605C27.5898 21.9805 26.9809 21.4728 26.4923 20.8667C26.2662 20.5829 26.0401 20.1338 25.8562 19.7209C25.6746 19.3108 25.5548 18.9693 25.41 18.7317H25.4085C24.3496 16.9123 22.216 15.6892 19.7695 15.6892ZM19.7695 16.4112C21.9537 16.4112 23.8334 17.5051 24.7521 19.0819C24.7536 19.0846 24.7551 19.0872 24.7566 19.0898C24.7996 19.1599 24.9707 19.57 25.1636 20.0024C25.355 20.4349 25.5879 20.9201 25.8916 21.302H25.8932C26.4584 22.0139 27.1593 22.5655 27.9055 22.9821C29.3842 23.8774 30.3142 25.3488 30.3172 26.9841C30.3172 29.6598 27.8391 31.8532 24.7348 31.8532C23.9285 31.8529 23.1303 31.6985 22.387 31.3991H22.384C21.5553 31.0696 20.6668 30.9003 19.7695 30.9009C18.8425 30.9009 17.9592 31.0793 17.1437 31.4034C16.4027 31.7002 15.6075 31.8531 14.8043 31.8532C11.6999 31.8532 9.22258 29.6598 9.22258 26.9841C9.22334 25.3524 10.1489 23.8824 11.6276 22.9836L11.6396 22.9763C12.417 22.5499 13.0988 21.9807 13.6459 21.3013H13.6474C14.2489 20.5439 14.5488 19.4797 14.79 19.0761C15.7148 17.4986 17.5914 16.4112 19.7695 16.4112Z" fill="white" stroke="white"/>
</g>
</svg>
