<svg width="24" height="24" viewBox="0 0 24 24" fill="none" xmlns="http://www.w3.org/2000/svg">
<path fill-rule="evenodd" clip-rule="evenodd" d="M5.875 6.25C5.54135 6.25 5.25 6.52931 5.25 6.8998V17.0982C5.25 17.4687 5.54135 17.748 5.875 17.748H9.5C9.83365 17.748 10.125 17.4687 10.125 17.0982V6.8998C10.125 6.52931 9.83365 6.25 9.5 6.25H5.875ZM4 6.8998C4 5.86221 4.82796 5 5.875 5H9.5C10.547 5 11.375 5.86221 11.375 6.8998V17.0982C11.375 18.1358 10.547 18.998 9.5 18.998H5.875C4.82796 18.998 4 18.1358 4 17.0982V6.8998ZM14.5 6.25C14.1664 6.25 13.875 6.52931 13.875 6.8998V9.44939C13.875 9.81988 14.1664 10.0992 14.5 10.0992H18.125C18.4586 10.0992 18.75 9.81988 18.75 9.44939V6.8998C18.75 6.52931 18.4586 6.25 18.125 6.25H14.5ZM12.625 6.8998C12.625 5.86221 13.453 5 14.5 5H18.125C19.172 5 20 5.86221 20 6.8998V9.44939C20 10.487 19.172 11.3492 18.125 11.3492H14.5C13.453 11.3492 12.625 10.487 12.625 9.44939V6.8998ZM13.875 14.5486C13.875 14.1781 14.1664 13.8988 14.5 13.8988H18.125C18.4586 13.8988 18.75 14.1781 18.75 14.5486V17.0982C18.75 17.4687 18.4586 17.748 18.125 17.748H14.5C14.1664 17.748 13.875 17.4687 13.875 17.0982V14.5486ZM14.5 12.6488C13.453 12.6488 12.625 13.511 12.625 14.5486V17.0982C12.625 18.1357 13.453 18.998 14.5 18.998H18.125C19.172 18.998 20 18.1357 20 17.0982V14.5486C20 13.511 19.172 12.6488 18.125 12.6488H14.5Z" fill="white"/>
</svg>
