<svg width="24" height="24" viewBox="0 0 24 24" fill="none" xmlns="http://www.w3.org/2000/svg">
<path fill-rule="evenodd" clip-rule="evenodd" d="M6.88777 19.1071C7.87367 19.7323 9.01585 20.0619 10.1808 20.0574C10.6279 20.0573 11.0738 20.0109 11.5115 19.9188C11.6968 19.8792 11.854 19.8367 12 19.7915C12.1628 19.8396 12.3228 19.8848 12.4885 19.9188C12.9297 20.0128 13.3794 20.0602 13.8304 20.0602C15.2222 20.0756 16.576 19.6026 17.6595 18.7221C18.7429 17.8417 19.4884 16.6089 19.768 15.2352C20.1376 13.1203 20.0649 10.9509 19.5546 8.86596C18.878 6.15084 17.5642 4.51894 15.7562 4.13995C14.4115 3.85712 13.1229 4.35207 12 5.27125C10.7647 4.27288 9.47336 3.88258 8.23812 4.13995C6.43579 4.51611 5.12194 6.15084 4.44536 8.86313C3.93506 10.95 3.86239 13.1212 4.232 15.238C4.39092 16.0307 4.70832 16.7825 5.1649 17.4477C5.62148 18.1129 6.20767 18.6774 6.88777 19.1071ZM15.5906 4.9658C17.4435 5.35893 18.325 7.41507 18.7377 9.07242C19.2153 11.0336 19.285 13.073 18.9426 15.0627C18.3474 17.9362 15.5906 19.6953 12.6625 19.0873C12.4862 19.0514 12.3119 19.006 12.1404 18.9515H12.1011C10.852 18.5794 9.78793 17.7471 9.12049 16.6203C8.45305 15.4935 8.23124 14.1549 8.4992 12.8708C8.90908 10.891 10.3324 7.88456 12.2021 6.18478C12.2454 6.16288 12.2837 6.13205 12.3144 6.09427C12.3215 6.08801 12.3273 6.0803 12.3313 6.07165C13.1538 5.36175 14.055 4.90641 14.9898 4.90641C15.1898 4.90625 15.3893 4.92711 15.585 4.96863L15.5906 4.9658ZM5.26231 9.06959C5.67499 7.41507 6.5565 5.35893 8.41779 4.96863C9.37229 4.76782 10.3633 5.06196 11.3627 5.83973C9.47336 7.70638 8.09775 10.6449 7.67664 12.6954C7.50811 13.4858 7.50059 14.3024 7.65453 15.0958C7.80846 15.8892 8.12065 16.6428 8.57219 17.3111C9.09732 18.0832 9.78937 18.7253 10.5963 19.1891C9.45362 19.2818 8.31169 19.0011 7.33976 18.3887C6.75539 18.0198 6.25167 17.5349 5.85929 16.9636C5.4669 16.3923 5.19406 15.7465 5.05737 15.0655C4.71488 13.074 4.78465 11.0327 5.26231 9.06959ZM6.1885 11.0353H6.24745C6.34858 11.0351 6.44631 10.9986 6.52302 10.9322C6.59973 10.8658 6.65035 10.774 6.66575 10.6733C6.72024 10.2735 6.79615 9.87695 6.89315 9.48542C7.05675 8.76867 7.33554 8.08369 7.71851 7.45756C7.78106 7.36417 7.80421 7.24958 7.78289 7.13899C7.76157 7.0284 7.69751 6.93088 7.60482 6.86787C7.51212 6.80486 7.39837 6.78153 7.2886 6.80301C7.17883 6.8245 7.08202 6.88903 7.01948 6.98241C6.5814 7.69024 6.26267 8.46624 6.0762 9.27895C5.96914 9.69922 5.8848 10.125 5.82354 10.5545C5.81566 10.6103 5.81888 10.6671 5.83303 10.7216C5.84717 10.7761 5.87196 10.8272 5.90593 10.872C5.93991 10.9168 5.98239 10.9543 6.03091 10.9823C6.07942 11.0103 6.133 11.0283 6.1885 11.0353ZM10.7568 9.71371C10.7287 9.60856 10.7414 9.49655 10.7925 9.40056C11.374 8.34516 12.1286 7.39654 13.0244 6.59494C13.1111 6.52751 13.2205 6.4968 13.3294 6.50933C13.4382 6.52186 13.538 6.57663 13.6074 6.66203C13.6768 6.74743 13.7105 6.85672 13.7012 6.9667C13.6919 7.07669 13.6405 7.1787 13.5578 7.25109C12.7399 7.98344 12.0509 8.84977 11.5196 9.81349C11.483 9.87747 11.4301 9.93053 11.3665 9.96729C11.3029 10.004 11.2308 10.0232 11.1575 10.0228C11.0826 10.0235 11.0089 10.004 10.9441 9.96622C10.852 9.90918 10.785 9.81886 10.7568 9.71371Z" fill="white"/>
<path d="M10.1808 20.0574L10.1808 19.8074L10.1798 19.8074L10.1808 20.0574ZM6.88777 19.1071L7.02166 18.8959L7.02129 18.8957L6.88777 19.1071ZM11.5115 19.9188L11.563 20.1634L11.5637 20.1632L11.5115 19.9188ZM12 19.7915L12.0708 19.5517L11.9982 19.5303L11.926 19.5527L12 19.7915ZM12.4885 19.9188L12.5406 19.6742L12.5387 19.6739L12.4885 19.9188ZM13.8304 20.0602L13.8332 19.8102H13.8304L13.8304 20.0602ZM17.6595 18.7221L17.5018 18.5281L17.6595 18.7221ZM19.768 15.2352L20.013 15.2851L20.0142 15.2782L19.768 15.2352ZM19.5546 8.86596L19.7974 8.80652L19.7972 8.80551L19.5546 8.86596ZM15.7562 4.13995L15.7048 4.3846L15.705 4.38463L15.7562 4.13995ZM12 5.27125L11.8428 5.46568L12.001 5.59351L12.1583 5.46471L12 5.27125ZM8.23812 4.13995L8.18712 3.89521L8.18704 3.89522L8.23812 4.13995ZM4.44536 8.86313L4.20279 8.80262L4.20252 8.80375L4.44536 8.86313ZM4.232 15.238L3.98565 15.281L3.98688 15.2872L4.232 15.238ZM5.1649 17.4477L5.37102 17.3062L5.1649 17.4477ZM18.7377 9.07242L18.9806 9.01327L18.9803 9.01202L18.7377 9.07242ZM15.5906 4.9658L15.6425 4.72124L15.5566 4.70302L15.4782 4.74252L15.5906 4.9658ZM18.9426 15.0627L19.1875 15.1134L19.189 15.1051L18.9426 15.0627ZM12.6625 19.0873L12.7134 18.8425L12.7124 18.8423L12.6625 19.0873ZM12.1404 18.9515L12.2161 18.7133L12.1791 18.7015H12.1404V18.9515ZM12.1011 18.9515L12.0297 19.1911L12.0646 19.2015H12.1011V18.9515ZM8.4992 12.8708L8.74393 12.9218L8.74401 12.9214L8.4992 12.8708ZM12.2021 6.18478L12.0894 5.96165L12.0591 5.97696L12.0339 5.99979L12.2021 6.18478ZM12.3144 6.09427L12.1494 5.90651L12.1336 5.92032L12.1204 5.93656L12.3144 6.09427ZM12.3313 6.07165L12.1679 5.88238L12.1268 5.91788L12.1041 5.96724L12.3313 6.07165ZM14.9898 4.90641V5.15641L14.99 5.15641L14.9898 4.90641ZM15.585 4.96863L15.5331 5.21318L15.619 5.23141L15.6975 5.19191L15.585 4.96863ZM8.41779 4.96863L8.46909 5.21331L8.46925 5.21327L8.41779 4.96863ZM5.26231 9.06959L5.01973 9.00909L5.01939 9.01049L5.26231 9.06959ZM11.3627 5.83973L11.5384 6.01757L11.7411 5.81737L11.5163 5.64243L11.3627 5.83973ZM7.67664 12.6954L7.92115 12.7475L7.92153 12.7457L7.67664 12.6954ZM7.65453 15.0958L7.4091 15.1434L7.65453 15.0958ZM8.57219 17.3111L8.36504 17.4511L8.36548 17.4517L8.57219 17.3111ZM10.5963 19.1891L10.6165 19.4383L11.4184 19.3732L10.7209 18.9723L10.5963 19.1891ZM7.33976 18.3887L7.2063 18.6001L7.20648 18.6002L7.33976 18.3887ZM5.85929 16.9636L6.06537 16.822L5.85929 16.9636ZM5.05737 15.0655L4.81089 15.1079L4.81226 15.1147L5.05737 15.0655ZM6.24745 11.0353V11.2853L6.24785 11.2853L6.24745 11.0353ZM6.1885 11.0353L6.15744 11.2834L6.17291 11.2853H6.1885V11.0353ZM6.52302 10.9322L6.35942 10.7431L6.35942 10.7431L6.52302 10.9322ZM6.66575 10.6733L6.91291 10.7111L6.91346 10.707L6.66575 10.6733ZM6.89315 9.48542L7.13585 9.54555L7.13688 9.54105L6.89315 9.48542ZM7.71851 7.45756L7.51062 7.31833L7.50524 7.32711L7.71851 7.45756ZM7.78289 7.13899L7.53741 7.18632L7.78289 7.13899ZM7.60482 6.86787L7.46428 7.07463H7.46428L7.60482 6.86787ZM7.2886 6.80301L7.33661 7.04836H7.33661L7.2886 6.80301ZM7.01948 6.98241L6.81163 6.84321L6.8069 6.85085L7.01948 6.98241ZM6.0762 9.27895L6.31854 9.34069L6.31987 9.33486L6.0762 9.27895ZM5.82354 10.5545L5.57605 10.5192L5.576 10.5195L5.82354 10.5545ZM6.03091 10.9823L5.90582 11.1987L5.90582 11.1987L6.03091 10.9823ZM10.7925 9.40056L10.5735 9.27992L10.5718 9.2831L10.7925 9.40056ZM10.7568 9.71371L10.5154 9.77843L10.7568 9.71371ZM13.0244 6.59494L12.8709 6.39755L12.8641 6.40287L12.8577 6.40864L13.0244 6.59494ZM13.3294 6.50933L13.358 6.26097V6.26097L13.3294 6.50933ZM13.6074 6.66203L13.8014 6.50433L13.8014 6.50433L13.6074 6.66203ZM13.7012 6.9667L13.9503 6.98769L13.7012 6.9667ZM13.5578 7.25109L13.3931 7.06296L13.391 7.06485L13.5578 7.25109ZM11.5196 9.81349L11.7366 9.93781L11.7386 9.93418L11.5196 9.81349ZM11.3665 9.96729L11.2414 9.75083L11.2414 9.75083L11.3665 9.96729ZM11.1575 10.0228L11.1589 9.77275L11.1551 9.77279L11.1575 10.0228ZM10.9441 9.96622L10.8124 10.1788L10.8183 10.1822L10.9441 9.96622ZM10.1798 19.8074C9.06273 19.8117 7.96733 19.4957 7.02166 18.8959L6.75388 19.3182C7.78001 19.9689 8.96897 20.3121 10.1818 20.3074L10.1798 19.8074ZM11.46 19.6741C11.0393 19.7627 10.6106 19.8073 10.1808 19.8074L10.1808 20.3074C10.6452 20.3073 11.1084 20.2591 11.563 20.1634L11.46 19.6741ZM11.926 19.5527C11.7867 19.5959 11.6367 19.6364 11.4593 19.6743L11.5637 20.1632C11.7568 20.122 11.9213 20.0776 12.074 20.0303L11.926 19.5527ZM12.5387 19.6739C12.3841 19.6422 12.2326 19.5995 12.0708 19.5517L11.9292 20.0313C12.093 20.0796 12.2616 20.1275 12.4383 20.1637L12.5387 19.6739ZM13.8304 19.8102C13.3969 19.8102 12.9647 19.7646 12.5406 19.6743L12.4364 20.1633C12.8947 20.2609 13.3619 20.3102 13.8304 20.3102L13.8304 19.8102ZM17.5018 18.5281C16.4635 19.3718 15.1665 19.825 13.8332 19.8102L13.8276 20.3102C15.278 20.3263 16.6886 19.8333 17.8171 18.9162L17.5018 18.5281ZM19.523 15.1853C19.2549 16.5026 18.5401 17.6844 17.5018 18.5281L17.8171 18.9162C18.9457 17.9991 19.7218 16.7152 20.0129 15.285L19.523 15.1853ZM19.3118 8.9254C19.8139 10.9768 19.8854 13.1113 19.5217 15.1921L20.0142 15.2782C20.3898 13.1293 20.316 10.9251 19.7974 8.80652L19.3118 8.9254ZM15.705 4.38463C17.3753 4.73477 18.6454 6.25105 19.312 8.92641L19.7972 8.80551C19.1107 6.05063 17.7531 4.3031 15.8075 3.89527L15.705 4.38463ZM12.1583 5.46471C13.245 4.57523 14.4584 4.12245 15.7048 4.3846L15.8077 3.8953C14.3647 3.5918 13.0009 4.12891 11.8416 5.0778L12.1583 5.46471ZM8.28911 4.38469C9.43214 4.14654 10.6491 4.50088 11.8428 5.46568L12.1571 5.07682C10.8804 4.04487 9.51458 3.61862 8.18712 3.89521L8.28911 4.38469ZM4.68793 8.92364C5.3547 6.25065 6.62491 4.73202 8.28919 4.38468L8.18704 3.89522C6.24666 4.30019 4.88918 6.05102 4.20279 8.80262L4.68793 8.92364ZM4.47828 15.195C4.1146 13.1122 4.1861 10.9759 4.68821 8.92251L4.20252 8.80375C3.68401 10.9242 3.61018 13.1302 3.98573 15.281L4.47828 15.195ZM5.37102 17.3062C4.93358 16.669 4.62942 15.9486 4.47713 15.1889L3.98688 15.2872C4.15241 16.1129 4.48307 16.8961 4.95879 17.5892L5.37102 17.3062ZM7.02129 18.8957C6.36996 18.4843 5.80845 17.9435 5.37102 17.3062L4.95879 17.5892C5.43451 18.2822 6.04537 18.8706 6.75426 19.3184L7.02129 18.8957ZM18.9803 9.01202C18.7705 8.16978 18.4385 7.21139 17.9135 6.40823C17.3874 5.60343 16.6544 4.93594 15.6425 4.72124L15.5387 5.21036C16.3797 5.38878 17.0139 5.94593 17.4949 6.68181C17.9771 7.41935 18.2921 8.3177 18.4951 9.13283L18.9803 9.01202ZM19.189 15.1051C19.5372 13.0817 19.4663 11.0077 18.9806 9.01327L18.4948 9.13157C18.9643 11.0595 19.0329 13.0644 18.6962 15.0203L19.189 15.1051ZM12.6117 19.332C15.6696 19.9671 18.5631 18.1274 19.1874 15.1134L18.6978 15.012C18.1318 17.7449 15.5116 19.4236 12.7134 18.8425L12.6117 19.332ZM12.0646 19.1898C12.2446 19.247 12.4276 19.2946 12.6127 19.3322L12.7124 18.8423C12.5448 18.8082 12.3792 18.7651 12.2161 18.7133L12.0646 19.1898ZM12.1011 19.2015H12.1404V18.7015H12.1011V19.2015ZM8.90539 16.7477C9.60473 17.9284 10.72 18.8009 12.0297 19.1911L12.1724 18.7119C10.9841 18.3579 9.97112 17.5658 9.33558 16.4929L8.90539 16.7477ZM8.25447 12.8197C7.97378 14.1648 8.20608 15.5671 8.90539 16.7477L9.33558 16.4929C8.70001 15.4199 8.48869 14.1449 8.74393 12.9218L8.25447 12.8197ZM12.0339 5.99979C10.1172 7.7423 8.67259 10.8001 8.25439 12.8201L8.74401 12.9214C9.14556 10.9819 10.5476 8.02681 12.3703 6.36976L12.0339 5.99979ZM12.1204 5.93656C12.1118 5.94715 12.1012 5.95566 12.0894 5.96165L12.3149 6.4079C12.3897 6.3701 12.4556 6.31694 12.5084 6.25199L12.1204 5.93656ZM12.1041 5.96724C12.1147 5.94414 12.1301 5.92343 12.1494 5.90651L12.4795 6.28203C12.513 6.25258 12.5398 6.21645 12.5584 6.17606L12.1041 5.96724ZM14.9898 4.65641C13.9721 4.65641 13.0149 5.15143 12.1679 5.88238L12.4946 6.26091C13.2927 5.57208 14.1378 5.15641 14.9898 5.15641V4.65641ZM15.6369 4.72407C15.4241 4.67892 15.2071 4.65624 14.9896 4.65641L14.99 5.15641C15.1725 5.15627 15.3545 5.17529 15.5331 5.21318L15.6369 4.72407ZM15.4782 4.74252L15.4725 4.74535L15.6975 5.19191L15.7031 5.18908L15.4782 4.74252ZM8.36648 4.72395C7.35038 4.93702 6.61512 5.60362 6.08775 6.40795C5.56155 7.2105 5.22945 8.1683 5.01974 9.00909L5.50487 9.1301C5.70784 8.31636 6.02285 7.41883 6.50589 6.6821C6.98777 5.94715 7.62391 5.39054 8.46909 5.21331L8.36648 4.72395ZM11.5163 5.64243C10.4776 4.83412 9.41323 4.50374 8.36632 4.72398L8.46925 5.21327C9.33135 5.03191 10.249 5.2898 11.2092 6.03703L11.5163 5.64243ZM7.92153 12.7457C8.33414 10.7366 9.68902 7.84474 11.5384 6.01757L11.187 5.66189C9.2577 7.56801 7.86135 10.5533 7.43175 12.6451L7.92153 12.7457ZM7.89995 15.0482C7.75241 14.2878 7.75962 13.5051 7.92115 12.7475L7.43214 12.6433C7.25661 13.4665 7.24877 14.317 7.4091 15.1434L7.89995 15.0482ZM8.77934 17.1712C8.34669 16.5308 8.04749 15.8086 7.89995 15.0482L7.4091 15.1434C7.56944 15.9698 7.89462 16.7549 8.36505 17.4511L8.77934 17.1712ZM10.7209 18.9723C9.94685 18.5274 9.28284 17.9114 8.77891 17.1705L8.36548 17.4517C8.9118 18.255 9.63189 18.9231 10.4717 19.4058L10.7209 18.9723ZM7.20648 18.6002C8.22406 19.2414 9.41982 19.5353 10.6165 19.4383L10.5761 18.9399C9.48741 19.0282 8.39933 18.7608 7.47303 18.1772L7.20648 18.6002ZM5.65321 17.1051C6.06475 17.7043 6.59315 18.213 7.2063 18.6001L7.47321 18.1773C6.91763 17.8266 6.4386 17.3655 6.06537 16.822L5.65321 17.1051ZM4.81226 15.1147C4.95557 15.8287 5.24167 16.5059 5.65321 17.1051L6.06537 16.822C5.69213 16.2786 5.43254 15.6642 5.30248 15.0163L4.81226 15.1147ZM5.01939 9.01049C4.53365 11.0068 4.4627 13.0827 4.81098 15.1079L5.30375 15.0231C4.96706 13.0653 5.03565 11.0585 5.50522 9.1287L5.01939 9.01049ZM6.24745 10.7853H6.1885V11.2853H6.24745V10.7853ZM6.35942 10.7431C6.32789 10.7704 6.28802 10.7852 6.24706 10.7853L6.24785 11.2853C6.40913 11.285 6.56474 11.2267 6.68662 11.1212L6.35942 10.7431ZM6.41863 10.6355C6.41217 10.6777 6.39099 10.7158 6.35942 10.7431L6.68662 11.1212C6.80846 11.0158 6.88853 10.8702 6.91288 10.7111L6.41863 10.6355ZM6.65048 9.4253C6.55133 9.82553 6.47373 10.2309 6.41804 10.6395L6.91346 10.707C6.96674 10.3161 7.04096 9.92838 7.13581 9.54554L6.65048 9.4253ZM7.50524 7.32711C7.10811 7.9764 6.81903 8.68666 6.64942 9.42979L7.13688 9.54105C7.29446 8.85068 7.56298 8.19097 7.93178 7.58801L7.50524 7.32711ZM7.53741 7.18632C7.54629 7.23237 7.53659 7.27993 7.51079 7.31845L7.92623 7.59667C8.02552 7.44842 8.06214 7.2668 8.02837 7.09166L7.53741 7.18632ZM7.46428 7.07463C7.50199 7.10026 7.52854 7.14031 7.53741 7.18632L8.02837 7.09166C7.9946 6.9165 7.89303 6.76149 7.74535 6.66111L7.46428 7.07463ZM7.33661 7.04836C7.38075 7.03972 7.42663 7.04904 7.46428 7.07463L7.74535 6.66111C7.5976 6.56068 7.41599 6.52334 7.24059 6.55767L7.33661 7.04836ZM7.2272 7.12153C7.25295 7.08308 7.29244 7.057 7.33661 7.04836L7.24059 6.55767C7.06522 6.59199 6.91109 6.69498 6.81176 6.8433L7.2272 7.12153ZM6.31987 9.33486C6.50021 8.54886 6.80845 7.79842 7.23206 7.11398L6.8069 6.85085C6.35435 7.58205 6.02513 8.38363 5.83253 9.22305L6.31987 9.33486ZM6.07104 10.5898C6.13103 10.1692 6.21363 9.75223 6.31847 9.34067L5.83394 9.21724C5.72466 9.64621 5.63857 10.0808 5.57605 10.5192L6.07104 10.5898ZM6.07501 10.6588C6.06915 10.6362 6.06781 10.6126 6.07108 10.5895L5.576 10.5195C5.5635 10.6079 5.56861 10.698 5.59104 10.7844L6.07501 10.6588ZM6.10506 10.7209C6.09112 10.7025 6.08088 10.6814 6.07501 10.6588L5.59104 10.7844C5.61347 10.8708 5.65279 10.952 5.7068 11.0232L6.10506 10.7209ZM6.156 10.7658C6.13634 10.7545 6.119 10.7392 6.10506 10.7209L5.7068 11.0232C5.76081 11.0943 5.82844 11.154 5.90582 11.1987L6.156 10.7658ZM6.21956 10.7872C6.19726 10.7844 6.17565 10.7772 6.156 10.7658L5.90582 11.1987C5.9832 11.2435 6.06874 11.2723 6.15744 11.2834L6.21956 10.7872ZM10.5718 9.2831C10.4909 9.43505 10.4708 9.61219 10.5154 9.77843L10.9983 9.64899C10.9865 9.60494 10.9919 9.55804 11.0132 9.51803L10.5718 9.2831ZM12.8577 6.40864C11.9408 7.22908 11.1685 8.19991 10.5735 9.27993L11.0115 9.5212C11.5794 8.49041 12.3163 7.56401 13.1911 6.78124L12.8577 6.40864ZM13.358 6.26097C13.1839 6.24094 13.0092 6.29009 12.8709 6.39755L13.1778 6.79233C13.213 6.76493 13.2571 6.75267 13.3008 6.75769L13.358 6.26097ZM13.8014 6.50433C13.691 6.36852 13.532 6.281 13.358 6.26097L13.3008 6.75769C13.3445 6.76272 13.385 6.78474 13.4134 6.81973L13.8014 6.50433ZM13.9503 6.98769C13.965 6.81346 13.9117 6.64008 13.8014 6.50433L13.4134 6.81973C13.4419 6.85477 13.4559 6.89997 13.4521 6.94572L13.9503 6.98769ZM13.7224 7.43922C13.8541 7.32397 13.9356 7.16193 13.9503 6.98769L13.4521 6.94572C13.4482 6.99145 13.4269 7.03344 13.3931 7.06297L13.7224 7.43922ZM11.7386 9.93418C12.2562 8.99503 12.9277 8.15088 13.7245 7.43734L13.391 7.06485C12.5522 7.81601 11.8455 8.70452 11.3007 9.6928L11.7386 9.93418ZM11.4916 10.1837C11.5936 10.1248 11.678 10.0399 11.7365 9.93779L11.3027 9.68919C11.2879 9.71503 11.2667 9.73624 11.2414 9.75083L11.4916 10.1837ZM11.1561 10.2728C11.2739 10.2734 11.3897 10.2427 11.4916 10.1837L11.2414 9.75083C11.2162 9.76542 11.1877 9.77295 11.1589 9.77278L11.1561 10.2728ZM10.8183 10.1822C10.9219 10.2426 11.0399 10.2739 11.1599 10.2728L11.1551 9.77279C11.1253 9.77308 11.0959 9.76532 11.0699 9.75019L10.8183 10.1822ZM10.5154 9.77843C10.5599 9.9447 10.666 10.088 10.8125 10.1788L11.0757 9.75367C11.038 9.73032 11.0101 9.69301 10.9983 9.64899L10.5154 9.77843Z" fill="white"/>
</svg>
