<svg width="24" height="24" viewBox="0 0 24 24" fill="none" xmlns="http://www.w3.org/2000/svg">
<g clip-path="url(#clip0_18002_36643)">
<mask id="mask0_18002_36643" style="mask-type:luminance" maskUnits="userSpaceOnUse" x="-1" y="-1" width="25" height="25">
<path d="M-0.00390625 -0.0156231H23.9961V23.9844H-0.00390625V-0.0156231Z" fill="white"/>
</mask>
<g mask="url(#mask0_18002_36643)">
<path d="M3.68234 13.7229C2.87534 14.4043 1.79366 14.7969 0.699219 14.7969C1.71833 15.8159 2.9937 16.5716 4.32627 17.045C3.67002 17.4029 2.92864 17.6094 2.15234 17.6094L3.06167 18.2155C4.24287 19.003 5.66356 19.206 6.9635 18.8713C6.89014 19.5786 6.96172 20.305 7.19492 21.0043C8.01467 20.1845 9.0995 19.7337 10.219 19.6856C10.813 20.9448 11.9961 21.8281 11.9961 21.8281C11.9961 21.8281 13.1792 20.9448 13.7732 19.6856C14.8927 19.7337 15.9776 20.1845 16.7973 21.0043C17.0305 20.305 17.1021 19.5786 17.0287 18.8713C18.3287 19.206 19.7494 19.003 20.9306 18.2155L21.8398 17.6094C21.0636 17.6094 20.3222 17.4029 19.6659 17.045C20.9985 16.5716 22.2739 15.8159 23.293 14.7969C22.1986 14.7969 21.1169 14.4043 20.3099 13.7229" stroke="white" stroke-width="1.40625" stroke-miterlimit="10" stroke-linecap="round" stroke-linejoin="round"/>
<path d="M16.918 11.2812C16.918 14.7762 14.7144 16.2031 11.9961 16.2031C9.27781 16.2031 7.07422 14.7762 7.07422 11.2812C7.07422 7.78634 9.27781 3.54688 11.9961 3.54688C14.7144 3.54688 16.918 7.78634 16.918 11.2812Z" stroke="white" stroke-width="1.40625" stroke-miterlimit="10" stroke-linecap="round" stroke-linejoin="round"/>
<path d="M13.7812 4.16694C14.633 2.95625 15.7263 2.14062 16.9186 2.14062C19.6369 2.14062 21.8405 6.38009 21.8405 9.875C21.8405 13.3699 19.6369 14.7969 16.9186 14.7969C16.5391 14.7969 16.1696 14.7691 15.8148 14.7117" stroke="white" stroke-width="1.40625" stroke-miterlimit="10" stroke-linecap="round" stroke-linejoin="round"/>
<path d="M8.17803 14.7117C7.82319 14.7691 7.45372 14.7969 7.07422 14.7969C4.35594 14.7969 2.15234 13.3699 2.15234 9.875C2.15234 6.38009 4.35594 2.14062 7.07422 2.14062C8.26653 2.14062 9.3598 2.95625 10.2116 4.16694" stroke="white" stroke-width="1.40625" stroke-miterlimit="10" stroke-linecap="round" stroke-linejoin="round"/>
</g>
</g>
<defs>
<clipPath id="clip0_18002_36643">
<rect width="24" height="24" fill="white"/>
</clipPath>
</defs>
</svg>
