<svg width="32" height="32" viewBox="0 0 32 32" fill="none" xmlns="http://www.w3.org/2000/svg">
<path fill-rule="evenodd" clip-rule="evenodd" d="M7.53773 21.7346C4.37811 22.6496 2.24805 24.0648 1.94248 25.6747C1.91705 25.8075 1.9043 25.9421 1.9043 26.0767C1.9043 27.7339 3.83242 29.2182 6.87017 30.2132C9.3313 31.0191 12.5182 31.5066 16.0016 31.5066C19.4851 31.5066 22.6737 31.0191 25.133 30.2132C28.1726 29.2182 30.0989 27.7339 30.0989 26.0767C30.0989 25.5091 29.8734 24.9616 29.4532 24.4486C28.5491 23.3408 26.7483 22.3858 24.3781 21.7109L7.53773 21.7346Z" fill="#AA6A51"/>
<path fill-rule="evenodd" clip-rule="evenodd" d="M29.4525 24.4486C28.5485 23.3408 26.7476 22.3858 24.3775 21.7109C24.041 21.8564 23.9355 22.1111 24.0991 22.4949C24.7467 22.8879 25.267 23.3153 25.6362 23.7682C26.0564 24.2831 26.282 24.8306 26.282 25.3981C26.282 27.0553 24.3538 28.5378 21.3161 29.5347C18.8568 30.3405 15.6681 30.8262 12.1846 30.8262C10.8204 30.8262 9.49977 30.7516 8.25195 30.6134C10.4766 31.1773 13.1396 31.5066 16.001 31.5066C19.4843 31.5066 22.6731 31.0191 25.1324 30.2132C28.172 29.2182 30.0983 27.7338 30.0983 26.0766C30.0983 25.5091 29.8727 24.9616 29.4525 24.4486Z" fill="#935B44"/>
<path fill-rule="evenodd" clip-rule="evenodd" d="M16.002 4.98438C10.2339 4.98438 7.1543 14.5326 7.1543 19.1821C7.1543 20.0789 7.28892 20.9448 7.53811 21.7597C8.18205 23.8626 9.5918 25.6307 11.4435 26.7385C12.7696 26.8676 14.3303 26.9441 16.002 26.9441C17.63 26.9441 19.1544 26.8731 20.4567 26.7476C22.3194 25.6362 23.7382 23.8535 24.3785 21.7361C24.6223 20.9266 24.7551 20.0699 24.7551 19.1822C24.7551 14.4599 21.8574 4.98438 16.002 4.98438Z" fill="#FAF7F7"/>
<path fill-rule="evenodd" clip-rule="evenodd" d="M24.7525 19.1821C24.7525 14.4599 21.8548 4.98438 15.9993 4.98438C15.3681 4.98438 14.7678 5.099 14.2021 5.30819C18.8351 7.009 21.1308 14.9783 21.1308 19.1821C21.1308 20.0698 20.9998 20.9266 20.7542 21.7361C20.7542 21.7379 20.7542 21.7397 20.7524 21.7415C20.1121 23.8571 18.6951 25.6379 16.8343 26.7476C16.0266 26.8258 15.1371 26.8822 14.1895 26.9131C14.7733 26.9331 15.3791 26.9441 15.9994 26.9441C17.6274 26.9441 19.1518 26.8731 20.4541 26.7476C22.3168 25.6362 23.7356 23.8535 24.376 21.7361C24.6196 20.9266 24.7525 20.0699 24.7525 19.1821Z" fill="#DEDBEE"/>
<path d="M4.85362 26.2485C4.66875 26.4334 4.66875 26.7331 4.85362 26.9181C4.94612 27.0105 5.06725 27.0567 5.18837 27.0567C5.3095 27.0567 5.43068 27.0105 5.52312 26.9181L5.52493 26.9163C5.70981 26.7314 5.70887 26.4325 5.524 26.2476C5.33918 26.0628 5.0385 26.0635 4.85362 26.2485Z" fill="black"/>
<path d="M12.0019 28.6022C11.814 28.784 11.8088 29.0837 11.9905 29.2717C12.0835 29.3677 12.2071 29.416 12.331 29.416C12.4494 29.416 12.568 29.3719 12.66 29.283L12.6618 29.2813C12.8497 29.0995 12.854 28.8007 12.6722 28.6128C12.4905 28.4247 12.1899 28.4205 12.0019 28.6022Z" fill="black"/>
<path d="M21.4762 28.9431V28.9412C21.4762 28.6798 21.2643 28.4688 21.0028 28.4688C20.7413 28.4688 20.5294 28.6816 20.5294 28.9431C20.5294 29.2045 20.7414 29.4165 21.0028 29.4165C21.2642 29.4165 21.4762 29.2045 21.4762 28.9431Z" fill="black"/>
<path d="M27.5701 25.5196L27.5719 25.5178C27.7567 25.3329 27.7558 25.034 27.5709 24.8491C27.386 24.6643 27.0853 24.6651 26.9005 24.8501C26.7156 25.035 26.7156 25.3347 26.9005 25.5196C26.993 25.6121 27.1141 25.6583 27.2352 25.6583C27.3564 25.6583 27.4776 25.612 27.5701 25.5196Z" fill="black"/>
<path d="M15.9991 2.96737C16.2605 2.96737 16.4725 2.75544 16.4725 2.49394V0.520312C16.4725 0.258812 16.2605 0.046875 15.9991 0.046875C15.7376 0.046875 15.5256 0.258812 15.5256 0.520312V2.494C15.5256 2.75537 15.7376 2.96737 15.9991 2.96737Z" fill="#DEDBEE"/>
<path d="M22.7355 4.92306C22.8254 5.00194 22.9367 5.04063 23.0476 5.04063C23.1791 5.04063 23.31 4.98613 23.4036 4.87944L24.7059 3.39506C24.8784 3.1985 24.8589 2.89938 24.6624 2.727C24.4657 2.5545 24.1668 2.574 23.9943 2.77056L22.6919 4.25494C22.5194 4.45156 22.539 4.75069 22.7355 4.92306Z" fill="#DEDBEE"/>
<path d="M8.6076 4.87936C8.70116 4.98598 8.83204 5.04054 8.9636 5.04054C9.07448 5.04054 9.18573 5.00186 9.27566 4.92298C9.47216 4.75061 9.49173 4.45148 9.31923 4.25492L8.01685 2.77054C7.84441 2.57404 7.54541 2.55448 7.34879 2.72698C7.15229 2.89935 7.13273 3.19848 7.30523 3.39504L8.6076 4.87936Z" fill="#DEDBEE"/>
</svg>
