<svg width="24" height="24" viewBox="0 0 24 24" fill="none" xmlns="http://www.w3.org/2000/svg">
<path d="M20.5914 17.6843L20.4377 11.0505C20.3552 7.3643 18.4314 4.0043 15.3002 2.0618C13.2977 0.820547 10.7064 0.820547 8.70391 2.0618C5.56891 4.0043 3.64891 7.3643 3.56641 11.0505L3.41266 17.6843C2.95891 17.8305 2.62891 18.2505 2.62891 18.7493V20.9993C2.62891 22.0343 3.46891 22.8743 4.50391 22.8743H19.5002C20.5352 22.8743 21.3752 22.0343 21.3752 20.9993V18.7493C21.3752 18.2505 21.0452 17.8268 20.5914 17.6843ZM9.09766 2.6993C10.8639 1.6043 13.1402 1.6043 14.9064 2.6993C17.8239 4.5068 19.6127 7.63805 19.6914 11.0655L19.8452 17.6243H19.0764C19.1252 17.3018 19.1589 16.9755 19.1589 16.6418C19.1589 14.2755 18.0039 12.423 16.5339 12.423C15.5664 12.423 14.7377 13.2255 14.2839 14.448C13.8302 13.2255 13.0014 12.423 12.0339 12.423C11.0664 12.423 10.2377 13.2255 9.78391 14.448C9.33016 13.2255 8.50141 12.423 7.53391 12.423C6.06391 12.423 4.90891 14.2755 4.90891 16.6418C4.90891 16.9755 4.94266 17.3018 4.99141 17.6243H4.16641L4.32016 11.0655C4.39891 7.6343 6.18766 4.5068 9.10516 2.6993H9.09766ZM5.74516 17.6243C5.69266 17.3055 5.65516 16.9793 5.65516 16.6418C5.65516 14.763 6.51391 13.173 7.53016 13.173C8.54641 13.173 9.40516 14.763 9.40516 16.6418C9.40516 16.9793 9.37141 17.3055 9.31516 17.6243H5.74516ZM10.2452 17.6243C10.1927 17.3055 10.1552 16.9793 10.1552 16.6418C10.1552 14.763 11.0139 13.173 12.0302 13.173C13.0464 13.173 13.9052 14.763 13.9052 16.6418C13.9052 16.9793 13.8714 17.3055 13.8152 17.6243H10.2414H10.2452ZM14.7452 17.6243C14.6927 17.3055 14.6552 16.9793 14.6552 16.6418C14.6552 14.763 15.5139 13.173 16.5302 13.173C17.5464 13.173 18.4052 14.763 18.4052 16.6418C18.4052 16.9793 18.3714 17.3055 18.3152 17.6243H14.7414H14.7452ZM20.6252 20.9993C20.6252 21.618 20.1189 22.1243 19.5002 22.1243H4.50016C3.88141 22.1243 3.37516 21.618 3.37516 20.9993V18.7493C3.37516 18.543 3.54391 18.3743 3.75016 18.3743H20.2502C20.4564 18.3743 20.6252 18.543 20.6252 18.7493V20.9993Z" fill="white" stroke="white" stroke-width="0.3"/>
<path d="M14.625 19.125H9.375C9.16875 19.125 9 19.2937 9 19.5V21C9 21.2062 9.16875 21.375 9.375 21.375H14.625C14.8313 21.375 15 21.2062 15 21V19.5C15 19.2937 14.8313 19.125 14.625 19.125ZM14.25 20.625H9.75V19.875H14.25V20.625Z" fill="white" stroke="white" stroke-width="0.3"/>
<path d="M16.875 21C17.2892 21 17.625 20.6642 17.625 20.25C17.625 19.8358 17.2892 19.5 16.875 19.5C16.4608 19.5 16.125 19.8358 16.125 20.25C16.125 20.6642 16.4608 21 16.875 21Z" fill="white" stroke="white" stroke-width="0.3"/>
<path d="M7.125 21C7.53921 21 7.875 20.6642 7.875 20.25C7.875 19.8358 7.53921 19.5 7.125 19.5C6.71079 19.5 6.375 19.8358 6.375 20.25C6.375 20.6642 6.71079 21 7.125 21Z" fill="white" stroke="white" stroke-width="0.3"/>
</svg>
