<svg width="24" height="24" viewBox="0 0 24 24" fill="none" xmlns="http://www.w3.org/2000/svg">
<path fill-rule="evenodd" clip-rule="evenodd" d="M20.3333 6.66667V16C21.2533 16 22 16.7467 22 17.6667V20.3333C22 21.2533 21.2533 22 20.3333 22H3.66667C2.74667 22 2 21.2533 2 20.3333V17.6667C2 16.7467 2.74667 16 3.66667 16V6.66667C3.66667 4.09333 5.76 2 8.33333 2H15.6667C18.24 2 20.3333 4.09333 20.3333 6.66667ZM8.33333 3.33333C6.49333 3.33333 5 4.82667 5 6.66667V16H7.38667C6.92 15.2 6.66667 14.2867 6.66667 13.3333C6.66667 10.4467 8.96 6 12 6C15.04 6 17.3333 10.4467 17.3333 13.3333C17.3333 14.2867 17.08 15.2 16.6133 16H19V6.66667C19 4.82667 17.5067 3.33333 15.6667 3.33333H8.33333ZM8 13.3333C8 14.3267 8.36667 15.2667 9.02667 16H14.9733C15.6333 15.2667 16 14.3267 16 13.3333C16 11.0733 14.1333 7.33333 12 7.33333C9.86667 7.33333 8 11.0733 8 13.3333ZM20.3333 20.6667C20.52 20.6667 20.6667 20.52 20.6667 20.3333V17.6667C20.6667 17.48 20.52 17.3333 20.3333 17.3333H3.66667C3.48 17.3333 3.33333 17.48 3.33333 17.6667V20.3333C3.33333 20.52 3.48 20.6667 3.66667 20.6667H20.3333ZM13.2265 8.62667C12.9532 8.38 12.5332 8.39334 12.2865 8.66667C12.0399 8.94001 12.0532 9.36001 12.3265 9.60667L12.3275 9.60765C12.3626 9.64154 13.2695 10.5169 13.4532 11.5667C13.5132 11.8933 13.7932 12.12 14.1065 12.12C14.1465 12.12 14.1865 12.12 14.2199 12.1067C14.5799 12.04 14.8265 11.7 14.7599 11.3333C14.4932 9.81334 13.2732 8.67334 13.2199 8.62667H13.2265ZM6.00089 18.3333H5.33422C4.96756 18.3333 4.66756 18.6333 4.66756 19C4.66756 19.3667 4.96756 19.6667 5.33422 19.6667H6.00089C6.36756 19.6667 6.66756 19.3667 6.66756 19C6.66756 18.6333 6.36756 18.3333 6.00089 18.3333ZM8.66639 18.3333H7.99973C7.63306 18.3333 7.33306 18.6333 7.33306 19C7.33306 19.3667 7.63306 19.6667 7.99973 19.6667H8.66639C9.03306 19.6667 9.33306 19.3667 9.33306 19C9.33306 18.6333 9.03306 18.3333 8.66639 18.3333ZM11.3334 18.3333H18.6667C19.0334 18.3333 19.3334 18.6333 19.3334 19C19.3334 19.3667 19.0334 19.6667 18.6667 19.6667H11.3334C10.9667 19.6667 10.6667 19.3667 10.6667 19C10.6667 18.6333 10.9667 18.3333 11.3334 18.3333Z" fill="white"/>
</svg>
