<svg width="24" height="22" viewBox="0 0 24 22" fill="none" xmlns="http://www.w3.org/2000/svg">
<g clip-path="url(#clip0_31737_115138)">
<path d="M23.0473 7.40707L12.1723 1.78207C12.1191 1.75458 12.06 1.74023 12.0001 1.74023C11.9403 1.74023 11.8812 1.75458 11.828 1.78207L0.953022 7.40707C0.906107 7.43128 0.864833 7.46513 0.831901 7.50639C0.798969 7.54765 0.775121 7.59541 0.761918 7.64652C0.748714 7.69764 0.746452 7.75097 0.75528 7.80302C0.764108 7.85507 0.783827 7.90467 0.813147 7.94857L1.56315 9.07357C1.61437 9.15037 1.69213 9.20558 1.78153 9.22862C1.87092 9.25166 1.96568 9.24092 2.04765 9.19845L3.00015 8.70457V23.8654C3.00015 23.9649 3.03966 24.0603 3.10998 24.1306C3.18031 24.2009 3.27569 24.2404 3.37515 24.2404H5.25015C5.3496 24.2404 5.44499 24.2009 5.51531 24.1306C5.58564 24.0603 5.62515 23.9649 5.62515 23.8654V21.2404H9.00015V23.8654C9.00015 23.9649 9.03965 24.0603 9.10998 24.1306C9.18031 24.2009 9.27569 24.2404 9.37515 24.2404H14.6251C14.7246 24.2404 14.82 24.2009 14.8903 24.1306C14.9606 24.0603 15.0001 23.9649 15.0001 23.8654V21.2404H18.3751V23.8654C18.3751 23.9649 18.4147 24.0603 18.485 24.1306C18.5553 24.2009 18.6507 24.2404 18.7501 24.2404H20.6251C20.7246 24.2404 20.82 24.2009 20.8903 24.1306C20.9606 24.0603 21.0001 23.9649 21.0001 23.8654V8.70457L21.9526 9.19845C22.0346 9.24092 22.1294 9.25166 22.2188 9.22862C22.3082 9.20558 22.3859 9.15037 22.4371 9.07357L23.1871 7.94857C23.2165 7.90467 23.2362 7.85507 23.245 7.80302C23.2538 7.75097 23.2516 7.69764 23.2384 7.64652C23.2252 7.59541 23.2013 7.54765 23.1684 7.50639C23.1355 7.46513 23.0942 7.43128 23.0473 7.40707ZM20.2501 20.4904H15.0001V18.2404H18.7501C18.8496 18.2404 18.945 18.2009 19.0153 18.1306C19.0856 18.0603 19.1251 17.9649 19.1251 17.8654V8.86545C19.1252 8.79576 19.1058 8.72744 19.0692 8.66816C19.0325 8.60888 18.9801 8.56097 18.9178 8.52982L12.1678 5.15482C12.1157 5.12881 12.0583 5.11527 12.0001 5.11527C11.942 5.11527 11.8846 5.12881 11.8325 5.15482L5.08252 8.52982C5.02018 8.56097 4.96776 8.60888 4.93113 8.66816C4.8945 8.72744 4.87511 8.79576 4.87515 8.86545V17.8654C4.87515 17.9649 4.91466 18.0603 4.98498 18.1306C5.05531 18.2009 5.15069 18.2404 5.25015 18.2404H9.00015V20.4904H3.75015V8.3427L12.0001 4.03845L20.2501 8.3427V20.4904ZM9.75015 20.4904V19.7404H14.2501V20.4904H9.75015ZM14.2501 21.2404V21.9904H9.75015V21.2404H14.2501ZM17.7969 15.4696C17.4086 14.9557 16.8339 14.6148 16.1968 14.5204V14.4904H15.2461V14.5043C14.9433 14.5319 14.6454 14.5996 14.3604 14.7057C14.9072 13.9476 15.197 13.0345 15.1876 12.0998C15.1876 10.0422 13.8245 7.74045 12.0001 7.74045C10.1758 7.74045 8.81265 10.0422 8.81265 12.0998C8.80326 13.0345 9.09314 13.9476 9.6399 14.7057C9.35488 14.5996 9.05702 14.5319 8.75415 14.5043V14.4904H7.80352V14.5141C7.49321 14.5563 7.19431 14.6595 6.92401 14.8177C6.65372 14.9759 6.41736 15.186 6.22852 15.4358C5.99703 15.7254 5.86596 16.0824 5.85507 16.453C5.84418 16.8236 5.95406 17.1877 6.16815 17.4904H5.62515V9.0972L12.0001 5.9097L15.1876 7.50345L18.3751 9.0972V17.4904H17.8374C18.0448 17.1924 18.1526 16.8364 18.1453 16.4734C18.138 16.1104 18.0161 15.759 17.7969 15.4696ZM11.2531 15.0882C10.2751 14.6806 9.56265 13.4959 9.56265 12.0998C9.56265 10.2447 10.7473 8.49045 12.0001 8.49045C13.253 8.49045 14.4376 10.2447 14.4376 12.0998C14.4376 13.4959 13.7251 14.6806 12.7471 15.0882C12.2507 15.1441 11.7496 15.1441 11.2531 15.0882ZM6.61252 16.6279C6.58509 16.3618 6.66258 16.0954 6.82852 15.8854C6.97932 15.6856 7.17431 15.5234 7.39824 15.4115C7.62216 15.2996 7.86894 15.2411 8.11927 15.2404H8.4444C8.76703 15.2402 9.08705 15.2982 9.38902 15.4118C9.93027 15.6124 10.4931 15.749 11.066 15.8191C11.6679 16.0476 12.3327 16.0476 12.9346 15.8191C13.5075 15.749 14.0702 15.6124 14.6113 15.4118C14.9132 15.2982 15.2333 15.2402 15.5559 15.2404H15.8386C16.1021 15.2411 16.3619 15.3027 16.5975 15.4205C16.8332 15.5384 17.0383 15.7092 17.1969 15.9196C17.3408 16.1112 17.4097 16.3489 17.3908 16.5878C17.3718 16.8268 17.2662 17.0505 17.0938 17.2171C16.8972 17.3989 16.6374 17.497 16.3696 17.4904H7.58865C7.34871 17.4906 7.117 17.403 6.93719 17.2441C6.75739 17.0852 6.64191 16.8661 6.61252 16.6279ZM14.2501 18.2404V18.9904H9.75015V18.2404H14.2501ZM4.87515 23.4904H3.75015V21.2404H4.87515V23.4904ZM14.2501 23.4904H9.75015V22.7404H14.2501V23.4904ZM20.2501 23.4904H19.1251V21.2404H20.2501V23.4904ZM21.9995 8.37795L12.2368 3.31545L12.1738 3.28245C12.1205 3.25483 12.0613 3.24042 12.0013 3.24042C11.9412 3.24042 11.8821 3.25483 11.8288 3.28245L11.7658 3.31545L2.00077 8.37795L1.66965 7.88107L12.0001 2.5377L22.3306 7.88107L21.9995 8.37795Z" fill="#5F6275"/>
<path d="M13.5942 10.4892L12.9064 10.7891C13.0738 11.1705 13.1612 11.5821 13.1633 11.9986C13.1701 12.3761 13.0809 12.7491 12.9042 13.0828L13.5604 13.4449C13.798 13.0002 13.9194 12.5027 13.9133 11.9986C13.911 11.4789 13.8024 10.9653 13.5942 10.4892ZM13.0763 9.64453L12.5078 10.1342C12.5934 10.2345 12.67 10.3423 12.7366 10.4562L13.3812 10.0723C13.292 9.92122 13.19 9.77811 13.0763 9.64453Z" fill="#5F6275"/>
</g>
<defs>
<clipPath id="clip0_31737_115138">
<rect width="24" height="20.52" fill="white" transform="translate(0 0.740234)"/>
</clipPath>
</defs>
</svg>
