<svg width="24" height="24" viewBox="0 0 24 24" fill="none" xmlns="http://www.w3.org/2000/svg">
<g clip-path="url(#clip0_38583_34420)">
<path d="M17.7459 13.6403C16.1312 11.6907 14.0901 10.6169 11.9987 10.6169C9.9072 10.6169 7.86613 11.6907 6.25147 13.6403C4.80003 15.3927 3.93359 17.6013 3.93359 19.5482C3.93359 20.4939 4.22272 21.2143 4.79291 21.6894C5.35569 22.1583 6.0987 22.3169 6.92764 22.3169C7.80969 22.3169 8.78909 22.1373 9.75139 21.9607C10.5923 21.8065 11.3865 21.6608 11.9987 21.6608C12.5271 21.6608 13.2721 21.7991 14.0607 21.9455C15.9036 22.2876 17.9926 22.6754 19.1993 21.6721C19.7729 21.1951 20.0638 20.4805 20.0638 19.5482C20.0638 17.6013 19.1974 15.3927 17.7459 13.6403ZM18.3002 20.5908C17.6007 21.1724 15.7801 20.8344 14.3173 20.5629C13.4631 20.4043 12.6564 20.2545 11.9986 20.2545C11.2585 20.2545 10.4032 20.4115 9.49756 20.5776C8.09455 20.8349 6.34845 21.1553 5.69295 20.6091C5.60558 20.5363 5.3397 20.3147 5.3397 19.5481C5.3397 17.9429 6.10405 16.0228 7.33437 14.5372C8.67711 12.916 10.3336 12.0231 11.9986 12.0231C13.6636 12.0231 15.32 12.916 16.6628 14.5372C17.8932 16.0228 18.6575 17.9429 18.6575 19.5481C18.6576 20.2937 18.3886 20.5173 18.3002 20.5908Z" fill="#37BD69"/>
<path d="M17.9135 3.05368C17.3227 2.18261 16.4767 1.68311 15.5924 1.68311C14.7081 1.68311 13.8621 2.1827 13.2713 3.05368C12.7286 3.85389 12.4297 4.90473 12.4297 6.01267C12.4297 7.12061 12.7286 8.17145 13.2713 8.97165C13.8621 9.84268 14.7081 10.3423 15.5924 10.3423C16.4768 10.3423 17.3227 9.84268 17.9135 8.97165C18.4563 8.17145 18.7552 7.12061 18.7552 6.01267C18.7552 4.90473 18.4563 3.85384 17.9135 3.05368ZM16.7498 8.18232C16.5589 8.46381 16.1546 8.93607 15.5924 8.93607C15.0303 8.93607 14.6261 8.46386 14.4351 8.18232C14.0543 7.62086 13.8359 6.83003 13.8359 6.01267C13.8359 5.19526 14.0543 4.40448 14.4351 3.84301C14.626 3.56153 15.0303 3.08926 15.5924 3.08926C16.1546 3.08926 16.5589 3.56148 16.7498 3.84301C17.1306 4.40448 17.349 5.19531 17.349 6.01267C17.3489 6.83003 17.1306 7.62086 16.7498 8.18232Z" fill="#37BD69"/>
<path d="M10.73 3.05373C10.1391 2.18265 9.29319 1.68311 8.40884 1.68311C7.5245 1.68311 6.6785 2.1827 6.08773 3.05373C5.54502 3.85393 5.24609 4.90478 5.24609 6.01272C5.24609 7.12065 5.54497 8.1715 6.08773 8.9717C6.67855 9.84278 7.5245 10.3424 8.40884 10.3424C9.29319 10.3424 10.1391 9.84278 10.73 8.9717C11.2727 8.1715 11.5716 7.1207 11.5716 6.01272C11.5715 4.90478 11.2727 3.85389 10.73 3.05373ZM9.56609 8.18242C9.37517 8.4639 8.97092 8.93617 8.4088 8.93617C7.84662 8.93617 7.44238 8.4639 7.25145 8.18242C6.87064 7.62095 6.65225 6.83012 6.65225 6.01276C6.65225 5.19536 6.87069 4.40457 7.25145 3.84311C7.44238 3.56162 7.84662 3.08936 8.4088 3.08936C8.97097 3.08936 9.37517 3.56157 9.56609 3.84311C9.94691 4.40457 10.1653 5.1954 10.1653 6.01276C10.1653 6.83012 9.94691 7.62095 9.56609 8.18242Z" fill="#37BD69"/>
<path d="M23.8595 9.84995C23.6213 9.03976 23.1108 8.45106 22.4221 8.19235C21.8678 7.98418 21.2422 8.01948 20.6604 8.29178C19.8586 8.66696 19.2032 9.44171 18.8624 10.4173C18.584 11.2146 18.5492 12.0572 18.7647 12.7902C19.0029 13.6004 19.5134 14.1891 20.2022 14.4478C20.4405 14.5374 20.692 14.5818 20.9476 14.5818C21.2863 14.5818 21.6323 14.5036 21.9639 14.3484C22.7657 13.9732 23.4211 13.1985 23.7619 12.2229V12.2229C24.0403 11.4257 24.075 10.5829 23.8595 9.84995ZM22.4343 11.7591C22.2207 12.3704 21.822 12.8622 21.3679 13.0748C21.2008 13.1529 20.9489 13.2261 20.6966 13.1314C20.0878 12.9027 19.851 11.8511 20.1899 10.8811C20.4035 10.2698 20.8021 9.77795 21.2563 9.56537C21.3671 9.51357 21.5151 9.46393 21.6758 9.46393C21.7575 9.46393 21.8426 9.47678 21.9275 9.5087C22.5364 9.73745 22.7732 10.789 22.4343 11.7591Z" fill="#37BD69"/>
<path d="M5.13686 10.4173C4.79603 9.44165 4.14067 8.66694 3.33892 8.29176C2.75706 8.01946 2.13137 7.98421 1.57717 8.19233C0.888387 8.45108 0.377871 9.03979 0.1397 9.84993C-0.0757848 10.5829 -0.0410504 11.4256 0.237434 12.2228V12.2229C0.578309 13.1985 1.23362 13.9732 2.03537 14.3484C2.36706 14.5036 2.71295 14.5818 3.05172 14.5818C3.30728 14.5818 3.55881 14.5373 3.79712 14.4478C4.486 14.1891 4.99647 13.6003 5.23464 12.7902C5.45003 12.0573 5.41529 11.2146 5.13686 10.4173ZM3.30259 13.1314C3.05036 13.2261 2.79836 13.1529 2.63139 13.0748C2.17722 12.8623 1.7785 12.3704 1.56498 11.7591V11.7592C1.22612 10.7891 1.46289 9.73757 2.0717 9.50882C2.32389 9.41408 2.57593 9.48735 2.74295 9.56544C3.19717 9.77802 3.59584 10.2698 3.80936 10.8811C4.14822 11.8512 3.9114 12.9027 3.30259 13.1314Z" fill="#37BD69"/>
</g>
<defs>
<clipPath id="clip0_38583_34420">
<rect width="24" height="24" fill="white"/>
</clipPath>
</defs>
</svg>
