<svg width="24" height="24" viewBox="0 0 24 24" fill="none" xmlns="http://www.w3.org/2000/svg">
<path fill-rule="evenodd" clip-rule="evenodd" d="M2.81641 13.4488C2.81641 6.28449 7.1081 0 12.0006 0C16.8938 0 21.1861 6.28449 21.1861 13.4488C21.1861 16.1859 20.2299 18.8044 18.4937 20.8217C17.646 21.8068 16.6643 22.5842 15.5761 23.1321C14.4325 23.708 13.2292 24 11.9999 24C10.7706 24 9.56753 23.7079 8.42414 23.132C7.33618 22.584 6.3548 21.8065 5.50733 20.8213C3.77205 18.8041 2.81641 16.1858 2.81641 13.4488ZM4.30094 13.4488C4.30094 18.3634 7.82667 22.5155 11.9999 22.5155C16.1747 22.5155 19.7015 18.3634 19.7015 13.4488C19.7015 7.18713 16.031 1.48454 12.0006 1.48454C7.97086 1.48454 4.30094 7.18713 4.30094 13.4488ZM7.76579 13.4492C7.76579 14.98 8.31026 16.491 9.25967 17.5947C10.0681 18.5344 11.0416 19.052 12.0009 19.052V20.5365C10.6023 20.5365 9.22904 19.8355 8.13425 18.5628C6.95661 17.1939 6.28125 15.33 6.28125 13.4492H7.76579Z" fill="#E4B819"/>
</svg>
