<svg width="48" height="48" viewBox="0 0 48 48" fill="none" xmlns="http://www.w3.org/2000/svg">
<rect width="48" height="48" rx="8" fill="#00AFD6" fill-opacity="0.2"/>
<rect x="0.5" y="0.5" width="47" height="47" rx="7.5" stroke="#00AFD6" stroke-opacity="0.2"/>
<path d="M29.12 36L33.6 31.52V35.2H35.2V28.8H28.8V30.4H32.48L28 34.88L29.12 36ZM11.2 36.8C10.32 36.8 9.56667 36.4867 8.94 35.86C8.31333 35.2333 8 34.48 8 33.6V11.2C8 10.32 8.31333 9.56667 8.94 8.94C9.56667 8.31333 10.32 8 11.2 8H33.6C34.48 8 35.2333 8.31333 35.86 8.94C36.4867 9.56667 36.8 10.32 36.8 11.2V21.92C36.2933 21.68 35.7733 21.4733 35.24 21.3C34.7067 21.1267 34.16 21 33.6 20.92V11.2H11.2V33.6H20.88C20.96 34.1867 21.0867 34.7467 21.26 35.28C21.4333 35.8133 21.64 36.32 21.88 36.8H11.2ZM11.2 33.6V11.2V20.92V20.8V33.6ZM14.4 30.4H20.92C21 29.84 21.1267 29.2933 21.3 28.76C21.4733 28.2267 21.6667 27.7067 21.88 27.2H14.4V30.4ZM14.4 24H24.16C25.0133 23.2 25.9667 22.5333 27.02 22C28.0733 21.4667 29.2 21.1067 30.4 20.92V20.8H14.4V24ZM14.4 17.6H30.4V14.4H14.4V17.6ZM32 40C29.7867 40 27.9 39.22 26.34 37.66C24.78 36.1 24 34.2133 24 32C24 29.7867 24.78 27.9 26.34 26.34C27.9 24.78 29.7867 24 32 24C34.2133 24 36.1 24.78 37.66 26.34C39.22 27.9 40 29.7867 40 32C40 34.2133 39.22 36.1 37.66 37.66C36.1 39.22 34.2133 40 32 40Z" fill="#00AFD6"/>
</svg>
