<svg width="32" height="32" viewBox="0 0 32 32" fill="none" xmlns="http://www.w3.org/2000/svg">
<path d="M21.12 28L25.6 23.52V27.2H27.2V20.8H20.8V22.4H24.48L20 26.88L21.12 28ZM3.2 28.8C2.32 28.8 1.56667 28.4867 0.94 27.86C0.313333 27.2333 0 26.48 0 25.6V3.2C0 2.32 0.313333 1.56667 0.94 0.94C1.56667 0.313333 2.32 0 3.2 0H25.6C26.48 0 27.2333 0.313333 27.86 0.94C28.4867 1.56667 28.8 2.32 28.8 3.2V13.92C28.2933 13.68 27.7733 13.4733 27.24 13.3C26.7067 13.1267 26.16 13 25.6 12.92V3.2H3.2V25.6H12.88C12.96 26.1867 13.0867 26.7467 13.26 27.28C13.4333 27.8133 13.64 28.32 13.88 28.8H3.2ZM3.2 25.6V3.2V12.92V12.8V25.6ZM6.4 22.4H12.92C13 21.84 13.1267 21.2933 13.3 20.76C13.4733 20.2267 13.6667 19.7067 13.88 19.2H6.4V22.4ZM6.4 16H16.16C17.0133 15.2 17.9667 14.5333 19.02 14C20.0733 13.4667 21.2 13.1067 22.4 12.92V12.8H6.4V16ZM6.4 9.6H22.4V6.4H6.4V9.6ZM24 32C21.7867 32 19.9 31.22 18.34 29.66C16.78 28.1 16 26.2133 16 24C16 21.7867 16.78 19.9 18.34 18.34C19.9 16.78 21.7867 16 24 16C26.2133 16 28.1 16.78 29.66 18.34C31.22 19.9 32 21.7867 32 24C32 26.2133 31.22 28.1 29.66 29.66C28.1 31.22 26.2133 32 24 32Z" fill="#00AFD6"/>
</svg>
