<svg width="24" height="24" viewBox="0 0 24 24" fill="none" xmlns="http://www.w3.org/2000/svg">
<g clip-path="url(#clip0_38583_34463)">
<path d="M19.7927 20.1655C20.5696 18.9068 21 17.4881 21 16.0001C21 12.5336 18.8126 9.52649 15.5449 8.43056C15.1053 7.72031 14.3836 7.2075 13.5321 7.05384L13.9999 6.11822C14.1235 5.87114 14.0234 5.57086 13.7763 5.44735L14.2236 4.55283C14.4707 4.67541 14.77 4.57627 14.8945 4.32919L15.9472 2.22371C16.0707 1.97663 15.9707 1.67635 15.7236 1.55279L12.7236 0.0527928C12.476 -0.0702539 12.1767 0.0288866 12.0527 0.276433L11 2.38191C10.8764 2.62899 10.9765 2.92927 11.2236 3.05283L10.7763 3.94735C10.5298 3.82477 10.229 3.92391 10.1054 4.17099L6.05268 12.2765C5.92917 12.5235 6.02924 12.8238 6.27632 12.9474L9.27632 14.4474C9.34808 14.483 9.42425 14.5001 9.49944 14.5001C9.68305 14.5001 9.8593 14.399 9.94719 14.2237L10.964 12.1902C11.4998 12.6886 12.212 13.0001 12.9999 13.0001C13.6564 13.0001 14.2591 12.7821 14.7536 12.4232C16.1232 13.093 16.9999 14.4618 16.9999 16.0001C16.9999 18.2057 15.2055 20.0001 12.9999 20.0001H8.99994V19.0001H10.4999C10.7763 19.0001 11 18.7765 11 18.5001C11 18.2237 10.7763 18.0001 10.4999 18.0001H8.49993H5.49993H3.50001C3.22364 18.0001 3 18.2237 3 18.5001C3 18.7765 3.22364 19.0001 3.50001 19.0001H5.00001V20.0001C3.897 20.0001 3 20.897 3 22.0001V23.5001C3 23.7765 3.22364 24.0001 3.50001 24.0001H20.5C20.7764 24.0001 21 23.7765 21 23.5001V22.0001C21 21.1788 20.502 20.4732 19.7927 20.1655ZM10 10.0001C10 10.4609 10.113 10.8926 10.2994 11.2831L9.27641 13.3292L7.17093 12.2765L10.7764 5.06555C11.024 5.18813 11.3233 5.08899 11.4473 4.84191L12.3418 3.05283C12.4654 2.80576 12.3653 2.50548 12.1182 2.38191L12.7237 1.17099L14.8292 2.22371L14.2237 3.43463C13.9766 3.31257 13.6763 3.41119 13.5528 3.65827L12.6582 5.44735C12.5347 5.69442 12.6348 5.9947 12.8819 6.11822L12.4112 7.05956C11.0381 7.33411 10 8.54742 10 10.0001ZM13 12C11.897 12 11 11.1031 11 10C11 8.89696 11.897 8.00001 13 8.00001C14.1031 8.00001 15 8.89696 15 10C15 11.1031 14.103 12 13 12ZM18 16.0001C18 14.1875 17.0316 12.557 15.4883 11.6739C15.8112 11.1954 16.0001 10.6194 16.0001 10.0001C16.0001 9.88673 15.9789 9.7791 15.9666 9.66899C18.4107 10.8061 20 13.2359 20 16.0001C20 17.4425 19.5485 18.8163 18.717 20H15.9691C17.1943 19.0878 18 17.6413 18 16.0001ZM6.00004 19.0001H8.00005V20H6.00004V19.0001ZM20 23H4.00003V22C4.00003 21.4488 4.44876 21.0001 5.00001 21.0001H5.50003H8.50002H19C19.5513 21.0001 20 21.4488 20 22V23Z" fill="#00AFD6"/>
</g>
<defs>
<clipPath id="clip0_38583_34463">
<rect width="24" height="24" fill="white"/>
</clipPath>
</defs>
</svg>
