<svg width="24" height="24" viewBox="0 0 24 24" fill="none" xmlns="http://www.w3.org/2000/svg">
<g clip-path="url(#clip0_38583_34483)">
<path d="M11.8201 3.9436V5.90341L8.6875 7.75052V9.57791H23.2872V7.75052L20.1546 5.90341V3.9436" stroke="#E93353" stroke-width="1.40568" stroke-miterlimit="10" stroke-linecap="round" stroke-linejoin="round"/>
<path d="M21.1714 0.702759H10.8008V3.94361H21.1714V0.702759Z" stroke="#E93353" stroke-width="1.40568" stroke-miterlimit="10" stroke-linecap="round" stroke-linejoin="round"/>
<path d="M9.38281 22.2798C9.89673 22.8737 10.6511 23.2502 11.4934 23.2971H20.522C22.0494 23.2502 23.2877 22.012 23.2877 20.4845V9.57788" stroke="#E93353" stroke-width="1.40568" stroke-miterlimit="10" stroke-linecap="round" stroke-linejoin="round"/>
<path d="M8.6875 9.57788V17.7702" stroke="#E93353" stroke-width="1.40568" stroke-miterlimit="10" stroke-linecap="round" stroke-linejoin="round"/>
<path d="M5.11786 18.2211V16.172C5.11786 14.9583 4.13397 13.9744 2.92026 13.9744C1.70654 13.9744 0.722656 14.9583 0.722656 16.172V21.0934C0.722656 22.3071 1.70654 23.291 2.92026 23.291C3.7684 23.291 4.50432 22.8105 4.87069 22.1069" stroke="#E93353" stroke-width="1.40568" stroke-miterlimit="10" stroke-linecap="round" stroke-linejoin="round"/>
<path d="M0.816406 18.6327H4.76685" stroke="#E93353" stroke-width="1.40568" stroke-miterlimit="10" stroke-linecap="round" stroke-linejoin="round"/>
<path d="M7.19027 23.2873C8.81414 23.2873 10.1305 21.9709 10.1305 20.347C10.1305 18.7231 8.81414 17.4067 7.19027 17.4067C5.5664 17.4067 4.25 18.7231 4.25 20.347C4.25 21.9709 5.5664 23.2873 7.19027 23.2873Z" stroke="#E93353" stroke-width="1.40568" stroke-miterlimit="10" stroke-linecap="round" stroke-linejoin="round"/>
<path d="M5.10938 18.2679L9.26748 22.4261" stroke="#E93353" stroke-width="1.40568" stroke-miterlimit="10" stroke-linecap="round" stroke-linejoin="round"/>
<path d="M15.6656 13.6667V19.5287L13.9012 17.7644C13.8705 17.7325 13.8337 17.7071 13.793 17.6897C13.7524 17.6722 13.7086 17.663 13.6644 17.6626C13.6201 17.6622 13.5762 17.6707 13.5352 17.6874C13.4943 17.7042 13.4571 17.7289 13.4258 17.7602C13.3945 17.7915 13.3697 17.8287 13.3529 17.8697C13.3362 17.9107 13.3278 17.9546 13.3281 17.9988C13.3285 18.0431 13.3377 18.0868 13.3552 18.1275C13.3727 18.1682 13.3981 18.2049 13.4299 18.2357L15.7632 20.569C15.8257 20.6315 15.9105 20.6666 15.9989 20.6666C16.0873 20.6666 16.172 20.6315 16.2346 20.569L18.5679 18.2357C18.6286 18.1728 18.6622 18.0886 18.6614 18.0012C18.6607 17.9138 18.6256 17.8302 18.5638 17.7684C18.502 17.7066 18.4184 17.6716 18.331 17.6708C18.2436 17.67 18.1594 17.7036 18.0966 17.7644L16.3322 19.5287V13.6667C16.3322 13.5783 16.2971 13.4935 16.2346 13.431C16.1721 13.3685 16.0873 13.3334 15.9989 13.3334C15.9105 13.3334 15.8257 13.3685 15.7632 13.431C15.7007 13.4935 15.6656 13.5783 15.6656 13.6667Z" fill="#E93353" stroke="#E93353" stroke-width="0.5"/>
</g>
<defs>
<clipPath id="clip0_38583_34483">
<rect width="24" height="24" fill="white"/>
</clipPath>
</defs>
</svg>
