<svg width="183" height="155" viewBox="0 0 183 155" fill="none" xmlns="http://www.w3.org/2000/svg">
<path d="M107.396 53.2374H106.543V141.309H107.396V53.2374Z" fill="#F3F3F3"/>
<path d="M115.974 42.3719H106.953V44.6687H115.974V42.3719Z" fill="white"/>
<path d="M114.181 46.6122H106.953V48.9089H114.181V46.6122Z" fill="white"/>
<path d="M116.858 146.521H107.367V149.583H116.858V146.521Z" fill="white"/>
<path d="M83.7123 53.2374H82.8594V141.309H83.7123V53.2374Z" fill="#F3F3F3"/>
<path d="M143.271 53.2374H142.418V141.309H143.271V53.2374Z" fill="#F3F3F3"/>
<path d="M99.3732 42.3719H82.625V44.6687H99.3732V42.3719Z" fill="white"/>
<path d="M93.3203 46.6122H82.625V48.9089H93.3203V46.6122Z" fill="white"/>
<path d="M153.642 42.3719H143.27V44.6687H153.642V42.3719Z" fill="white"/>
<path d="M155.375 46.6122H143.27V48.9089H155.375V46.6122Z" fill="white"/>
<path d="M92.7602 146.521H83.2695V149.583H92.7602V146.521Z" fill="white"/>
<path d="M152.76 146.521H143.27V149.583H152.76V146.521Z" fill="white"/>
<path d="M68.5814 154.088H152.293C158.081 154.088 162.753 149.406 162.753 143.606V25.8235C162.753 20.0228 158.081 15.3409 152.293 15.3409H68.5814C62.793 15.3409 58.1211 20.0228 58.1211 25.8235V143.606C58.1211 149.406 62.793 154.088 68.5814 154.088Z" fill="black" fill-opacity="0.4"/>
<path d="M156.582 0.0882568H71.3428C67.4643 0.0882568 64.3203 3.23893 64.3203 7.12573V148.229H156.582V0.0882568Z" fill="#DAE7DF"/>
<path d="M147.974 27.8258H120.766V31.2709H147.974V27.8258Z" fill="#839D8D"/>
<path d="M145.741 42.2837H120.766V45.7288H145.741V42.2837Z" fill="#839D8D"/>
<path d="M142.362 35.04H120.766V38.4852H142.362V35.04Z" fill="#839D8D"/>
<path d="M91.5841 49.9395C88.4989 49.9395 85.5019 49.2917 82.7399 48.0255C75.1004 44.551 70.1641 36.8657 70.1641 28.4737C70.1641 16.6366 79.7722 7.00793 91.5841 7.00793C103.396 7.00793 113.004 16.6366 113.004 28.4737C113.004 36.8657 108.068 44.551 100.428 48.0255C97.6663 49.2917 94.6693 49.9395 91.5841 49.9395ZM91.5841 8.12687C80.3893 8.12687 71.2806 17.255 71.2806 28.4737C71.2806 36.424 75.9525 43.697 83.1806 46.9949C85.8251 48.2022 88.6458 48.8206 91.5547 48.8206C94.493 48.8206 97.3137 48.2022 99.9288 46.9949C107.157 43.697 111.829 36.424 111.829 28.4737C111.888 17.2255 102.779 8.12687 91.5841 8.12687Z" fill="#006D35"/>
<path d="M101.427 58.567H70.1641V61.6293H101.427V58.567Z" fill="#839D8D"/>
<path d="M101.427 66.8412H70.1641V69.9035H101.427V66.8412Z" fill="#839D8D"/>
<path d="M101.427 75.1155H70.1641V78.1778H101.427V75.1155Z" fill="#839D8D"/>
<path d="M113.039 58.567H107.809V61.6293H113.039V58.567Z" fill="#839D8D"/>
<path d="M113.039 66.8412H107.809V69.9035H113.039V66.8412Z" fill="#839D8D"/>
<path d="M113.039 75.1155H107.809V78.1778H113.039V75.1155Z" fill="#839D8D"/>
<path d="M169.865 150.525H133.519C126.32 150.525 120.473 144.666 120.473 137.452V68.549C120.473 61.3349 126.32 55.4752 133.519 55.4752H169.865C177.064 55.4752 182.911 61.3349 182.911 68.549V137.452C182.911 144.666 177.064 150.525 169.865 150.525Z" fill="#E8F4F2"/>
<path d="M175.622 69.6091C174.094 65.31 170.01 62.6894 165.691 62.8072C164.633 62.8366 163.605 63.0427 162.547 63.3961C159.403 64.515 157.17 67.0179 156.23 69.9919C155.583 72.053 155.583 74.3204 156.376 76.4993C156.465 76.7054 156.523 76.941 156.641 77.1471C157.052 78.0894 157.581 78.9433 158.228 79.7089C160.901 82.8596 165.338 84.1846 169.452 82.7123C174.741 80.7984 177.503 74.9387 175.622 69.6091ZM168.57 80.2978C165.485 81.4167 162.165 80.4156 160.137 78.0305C159.667 77.471 159.256 76.8232 158.962 76.1165C158.903 75.9693 158.845 75.7926 158.786 75.6454C158.198 73.9965 158.198 72.3181 158.698 70.7574C159.403 68.549 161.078 66.6645 163.428 65.8106C164.192 65.5456 164.986 65.3984 165.779 65.3689C169.011 65.2806 172.067 67.2534 173.213 70.463C174.623 74.4676 172.566 78.855 168.57 80.2978Z" fill="#1F415B"/>
<path d="M158.669 70.7868L156.23 70.0213C157.141 67.0473 159.404 64.5444 162.548 63.4255C163.576 63.0427 164.634 62.866 165.692 62.8365L165.78 65.3983C164.987 65.4277 164.193 65.575 163.429 65.84C161.049 66.6645 159.374 68.549 158.669 70.7868Z" fill="white"/>
<path d="M158.962 76.1165L156.611 77.1471C156.523 76.941 156.435 76.7348 156.347 76.4993C155.583 74.3203 155.583 72.053 156.2 69.9918L158.639 70.7574C158.168 72.2886 158.168 73.9964 158.727 75.6454C158.815 75.822 158.903 75.9693 158.962 76.1165Z" fill="white"/>
<path d="M158.2 79.7089C157.554 78.9433 157.025 78.0894 156.613 77.1472L158.964 76.1166C159.258 76.8233 159.669 77.4711 160.139 78.0305L158.2 79.7089Z" fill="white"/>
<path d="M165.899 129.06H160.375V147.169H165.899V129.06Z" fill="#1F415B"/>
<path d="M157.731 134.124H152.207V147.139H157.731V134.124Z" fill="#1F415B"/>
<path d="M173.856 120.668H168.332V147.169H173.856V120.668Z" fill="#1F415B"/>
<path d="M128.816 129.206L128.316 128.802L137.308 116.44L148.385 117.092L156.759 103.022L165.75 102.028L171.156 90.7216L171.685 91.0011L166.132 102.649L157.112 103.612L148.708 117.744L137.601 117.123L128.816 129.206Z" fill="#1F415B" stroke="#1F415B" stroke-width="0.5"/>
<path d="M145.799 68.9612H130.109C129.11 68.9612 128.316 68.1662 128.316 67.1651C128.316 66.1639 129.11 65.3689 130.109 65.3689H145.77C146.769 65.3689 147.562 66.1639 147.562 67.1651C147.591 68.1662 146.769 68.9612 145.799 68.9612ZM145.799 75.2331H130.109C129.11 75.2331 128.316 74.4381 128.316 73.437C128.316 72.4358 129.11 71.6408 130.109 71.6408H145.77C146.769 71.6408 147.562 72.4358 147.562 73.437C147.591 74.4381 146.769 75.2331 145.799 75.2331ZM145.799 81.505H130.109C129.11 81.505 128.316 80.71 128.316 79.7089C128.316 78.7077 129.11 77.9127 130.109 77.9127H145.77C146.769 77.9127 147.562 78.7077 147.562 79.7089C147.591 80.6806 146.769 81.505 145.799 81.505Z" fill="#1F415B"/>
<path d="M94.3757 16.6956H88.793V40.2225H94.3757V16.6956Z" fill="#006D35"/>
<path d="M103.316 31.2543V25.6597H79.8396V31.2543H103.316Z" fill="#006D35"/>
<path d="M27.8895 41.8714C31.7355 41.8714 34.8532 36.374 34.8532 29.5926C34.8532 22.8112 31.7355 17.3138 27.8895 17.3138C24.0435 17.3138 20.9258 22.8112 20.9258 29.5926C20.9258 36.374 24.0435 41.8714 27.8895 41.8714Z" fill="black"/>
<path d="M31.3516 59.0971C31.3516 59.0971 35.9647 59.8332 37.1987 57.7721L37.2281 48.6145C35.4945 49.2917 33.6434 49.704 31.8805 49.7629L31.3516 59.0971Z" fill="#FFBDA8"/>
<path d="M32.2648 42.6959L31.8828 49.7334C33.6752 49.6745 36.9954 48.9678 38.729 48.2611L37.2892 38.5441L32.2648 42.6959Z" fill="#FCF4AE"/>
<path d="M39.1711 75.0565C40.3758 74.6737 41.5804 74.1437 42.4032 73.2309L41.7861 71.4053C40.5814 72.112 39.4061 72.4948 38.1133 72.9364L39.1711 75.0565Z" fill="white"/>
<path d="M31.3516 59.097L38.139 72.9659C39.4024 72.5536 40.6071 72.1414 41.8118 71.4347L37.2281 57.772C34.8775 57.772 31.3516 59.097 31.3516 59.097Z" fill="#FFBDA8"/>
<path d="M45.8393 81.1517C45.8099 81.3578 45.7805 81.5934 45.663 81.7701C45.5454 81.9468 45.3398 82.1234 45.1341 82.094C44.8696 82.0645 44.664 81.829 44.6052 81.564C44.5464 81.299 44.5758 81.0339 44.6052 80.7689C44.6933 79.8561 44.517 78.9433 44.1644 78.1188C43.9588 77.7066 43.7237 77.2944 43.6062 76.8527C43.1654 75.2921 44.899 74.5854 45.4279 76.2049C45.9274 77.8244 46.0449 79.5322 45.8393 81.1517Z" fill="white"/>
<path d="M44.3119 81.6523C44.2825 81.8585 44.2532 82.094 44.1356 82.2707C44.0181 82.4474 43.8124 82.624 43.6067 82.5946C43.3423 82.5652 43.1366 82.3296 43.0778 82.0646C43.0191 81.7996 43.0485 81.5346 43.0778 81.2696C43.166 80.3567 42.9897 79.4439 42.6371 78.6195C42.4314 78.2072 42.1964 77.795 42.0788 77.3533C41.6381 75.7927 43.3717 75.086 43.9006 76.7055C44.4001 78.325 44.5176 80.0328 44.3119 81.6523Z" fill="white"/>
<path d="M42.9018 81.0634C42.8724 81.2695 42.843 81.505 42.7255 81.6817C42.6079 81.8584 42.4023 82.0351 42.1966 82.0056C41.9321 81.9762 41.7265 81.7406 41.6677 81.4756C41.6089 81.2106 41.6383 80.9456 41.6677 80.6806C41.7558 79.7678 41.5795 78.8549 41.2269 78.0305C41.0213 77.6182 40.7862 77.206 40.6687 76.7643C40.2279 75.2037 41.9615 74.497 42.4904 76.1165C42.9899 77.7066 43.1074 79.4438 42.9018 81.0634Z" fill="white"/>
<path d="M41.5498 80.0033C41.5204 80.18 41.491 80.3567 41.4029 80.5039C41.3147 80.6511 41.1384 80.7689 40.9621 80.7689C40.7564 80.7689 40.5801 80.5628 40.5214 80.3567C40.4626 80.1505 40.492 79.915 40.5214 79.7088C40.5801 78.9727 40.4626 78.2366 40.1394 77.5593C39.9925 77.206 39.7868 76.8821 39.6693 76.5287C39.3167 75.2626 40.7271 74.6737 41.1678 75.9987C41.6085 77.2649 41.6967 78.6783 41.5498 80.0033Z" fill="white"/>
<path d="M45.34 76.0576C44.8699 75.1742 44.5467 74.6736 43.8709 73.9375C43.1951 73.2014 42.2548 72.6419 41.2264 72.6125C40.2274 72.583 39.1696 73.2014 38.9052 74.1731C38.7289 74.762 38.8464 75.3803 39.0815 75.9398C39.581 77.0882 40.6094 77.9715 41.8141 78.266C43.0188 78.5605 44.3704 78.266 45.34 77.5004V76.0576Z" fill="white"/>
<path d="M45.1367 78.6489C44.1083 78.59 43.7851 77.5594 43.5794 76.7055C43.55 76.6171 43.4913 76.5582 43.4031 76.5582C42.7273 76.5877 42.0221 76.2932 41.5814 75.7927C41.1406 75.3215 40.9937 74.7326 40.935 74.0848C40.935 73.9965 40.8174 74.0259 40.7881 74.0848C40.6411 74.7915 40.935 75.5276 41.4051 76.0577C41.9046 76.5877 42.5804 76.8821 43.2856 76.8821C43.5207 77.7949 43.9908 79.0905 45.1367 78.9433C45.313 78.9433 45.313 78.6783 45.1367 78.6489Z" fill="black" fill-opacity="0.4"/>
<path d="M31.3511 75.2626C32.6733 73.6725 33.7899 72.0236 33.9661 70.7869L16.2777 67.5184C15.7195 68.9613 15.2493 70.4335 14.8086 71.9058C20.1563 73.9376 25.7684 75.3509 31.3511 75.2626Z" fill="#FCF4AE"/>
<path d="M28.8555 137.039C29.0024 138.453 29.1493 139.689 29.2962 140.72H32.0876C32.2639 139.572 32.4108 138.335 32.5871 137.039H28.8555Z" fill="#FFBDA8"/>
<path d="M28.7974 140.278L32.4703 140.19C33.4987 141.25 39.6396 142.605 39.9922 144.018H27.9453C28.0628 142.752 28.3567 141.486 28.7974 140.278Z" fill="#250E01"/>
<path d="M39.9924 144.018C40.0218 144.165 40.0512 144.283 40.0806 144.43C40.1099 144.636 39.963 144.841 39.728 144.841H28.2393C28.0336 144.841 27.8867 144.665 27.8867 144.459C27.8867 144.312 27.9161 144.165 27.9161 143.989H39.9924V144.018Z" fill="#250E01"/>
<path d="M37.759 69.668C40.286 78.5016 39.9921 90.1915 39.0519 99.3491C37.9647 110.067 35.7904 127.146 33.0284 137.569H28.4741L25.859 80.71C25.859 80.71 23.9198 73.967 24.3899 70.8164C29.9726 70.8752 32.4408 71.6703 37.759 69.668Z" fill="#839D8D"/>
<path d="M19.2773 137.039C19.4243 138.453 19.5712 139.689 19.7181 140.72H22.5094C22.6857 139.572 22.8327 138.335 23.009 137.039H19.2773Z" fill="#FFBDA8"/>
<path d="M23.0372 140.278L19.3644 140.19C18.336 141.25 16.6612 142.605 16.3086 144.018H23.8893C23.7718 142.752 23.478 141.486 23.0372 140.278Z" fill="#250E01"/>
<path d="M16.3106 144.018C16.2812 144.165 16.2519 144.283 16.2225 144.43C16.1931 144.636 16.34 144.841 16.5751 144.841H23.5975C23.8032 144.841 23.9501 144.665 23.9501 144.459C23.9501 144.312 23.9208 144.165 23.9208 143.989H16.3106V144.018Z" fill="#250E01"/>
<path d="M14.8395 71.9354C12.3126 80.7691 11.9894 90.1916 12.9296 99.3492C14.0168 110.067 16.1911 127.146 18.9531 137.569H23.5074L26.1225 80.7102C26.1225 80.7102 29.0607 78.0601 31.382 75.2922C25.7699 75.3511 20.1578 73.9377 14.8395 71.9354Z" fill="#839D8D"/>
<path d="M18.5725 111.569C18.4843 111.422 18.3374 111.304 18.1905 111.186C18.0436 111.068 17.9261 110.951 17.7792 110.803C17.5147 110.538 17.2503 110.273 17.0152 109.979C16.5451 109.39 16.1337 108.742 15.8105 108.094C15.7518 107.977 15.5755 108.065 15.6048 108.183C15.8693 108.919 16.2806 109.567 16.7508 110.185C16.9858 110.48 17.2209 110.774 17.5147 111.039C17.6616 111.186 17.8085 111.333 17.9555 111.451C18.073 111.569 18.2493 111.687 18.4256 111.746C18.5431 111.775 18.6313 111.657 18.5725 111.569ZM17.9848 112.128C17.9261 112.07 17.8967 112.011 17.8379 111.981C17.7204 111.863 17.6029 111.775 17.5147 111.657C17.2797 111.451 17.074 111.245 16.8389 111.039C16.7508 110.951 16.6332 111.068 16.7214 111.157C16.9271 111.392 17.1327 111.628 17.3384 111.834C17.456 111.952 17.5441 112.04 17.6616 112.158C17.7204 112.217 17.7792 112.276 17.8085 112.305C17.8673 112.364 17.9261 112.423 18.0436 112.423C18.073 112.423 18.1024 112.393 18.1024 112.364C18.1024 112.246 18.0436 112.187 17.9848 112.128Z" fill="#FCF4AE"/>
<path d="M34.707 58.7731C34.7364 52.2068 37.0282 45.7288 37.2927 39.1624C37.3221 38.4557 37.0282 37.749 36.47 37.3073C35.0008 36.1001 33.708 35.3639 31.6806 34.775C30.3584 34.3922 28.9774 34.1861 27.6551 34.1272C26.2448 34.0978 24.8932 34.3628 23.5709 34.8045C21.8667 35.4228 20.2213 36.3945 18.7228 37.484C17.9588 38.0435 17.6062 39.0741 17.9001 40.0163C19.6043 45.4637 21.0146 51.0584 20.7502 56.7414C20.3682 64.1911 16.6072 64.5444 14.668 71.3169C22.19 74.7031 30.8579 74.3498 39.1144 72.7892C38.6443 69.4618 34.707 62.336 34.707 58.7731Z" fill="#FCF4AE"/>
<path d="M31.68 34.7456C31.3861 37.3662 30.7103 39.8691 29.7995 42.2542C29.4762 43.1081 28.5948 43.2848 28.0953 42.5781C26.3323 40.1047 25.0982 37.3073 23.5703 34.8045C24.8925 34.3628 26.2441 34.0978 27.6545 34.1272C29.0061 34.1567 30.3577 34.3628 31.68 34.7456Z" fill="white"/>
<path d="M25.2734 26.7953C25.626 29.5043 25.7729 32.2722 25.7436 35.0106C25.7436 35.5701 25.9492 36.1001 26.2725 36.3945C27.1833 37.219 28.2999 37.5135 29.2989 37.219C29.7984 37.0718 30.1216 36.3356 30.0334 35.5701C29.7984 33.8033 29.6515 32.1249 29.5633 30.2993C28.388 28.5031 26.8895 27.4431 25.2734 26.7953Z" fill="#FFBDA8"/>
<path opacity="0.15" d="M29.5339 30.3287C28.388 28.5031 26.8895 27.4431 25.2734 26.8247C25.3616 27.5314 25.4497 28.2675 25.5085 28.9742C26.625 31.1826 28.1823 33.3616 29.8865 34.3628C29.7102 33.0377 29.6221 31.7127 29.5339 30.3287Z" fill="black"/>
<path d="M34.5293 22.9673C34.4706 27.2958 32.2375 31.8304 31.1209 31.7421C27.3893 31.4182 25.832 27.4725 25.8027 27.4431C25.8027 27.5019 25.215 27.6492 24.8624 27.6492C24.5392 27.6197 24.0985 27.2369 23.9222 26.9719C23.5696 26.4419 23.217 25.6469 23.599 25.058C24.0397 24.3513 25.3031 24.2629 25.7145 25.0874C27.3306 23.2323 26.6548 21.9073 26.978 20.3467C29.0935 19.375 31.5323 19.3455 33.7948 20.0817C34.1767 20.1406 34.5293 22.5551 34.5293 22.9673Z" fill="#FFBDA8"/>
<path d="M29.4165 23.4974C27.771 24.6163 25.7142 25.1169 23.7162 24.8519C23.3048 22.6434 22.6878 19.6989 24.5389 18.4327C25.9493 17.461 29.9453 14.8109 31.6495 15.1643C33.53 15.5471 34.4703 19.0511 33.7945 20.0522C33.2362 20.8473 30.2392 22.9085 29.4165 23.4974Z" fill="black"/>
<path d="M31.5901 38.544C31.4432 38.9857 31.2963 39.3979 31.1493 39.8396C30.973 40.2813 30.7968 40.723 30.5911 41.1352C30.4148 41.5475 30.2091 41.9303 30.0034 42.3131C29.8271 42.637 29.6508 42.9903 29.357 43.2553C29.0632 43.5203 28.6812 43.6087 28.2992 43.432C27.9466 43.2848 27.6822 42.9609 27.4765 42.6664C26.9182 41.9303 26.4775 41.1058 25.978 40.3402C25.3903 39.4274 24.8321 38.5146 24.1856 37.6312C24.1856 37.6018 24.1562 37.6312 24.1562 37.6607C24.6851 38.6029 25.2728 39.4863 25.8311 40.3991C26.1249 40.8408 26.3893 41.2825 26.6832 41.7241C26.9182 42.1069 27.1533 42.5192 27.4177 42.8725C27.8291 43.4025 28.4755 43.9326 29.1807 43.6087C29.5039 43.4614 29.739 43.1964 29.9153 42.902C30.1797 42.5192 30.3854 42.0775 30.5911 41.6653C30.8261 41.1647 31.0024 40.6641 31.1787 40.1635C31.355 39.6335 31.5607 39.1035 31.6489 38.5735C31.6782 38.5146 31.5901 38.4851 31.5901 38.544Z" fill="#E4B819"/>
<path d="M35.4623 44.698H30.3203V47.0831H35.4623V44.698Z" fill="white"/>
<path d="M33.9634 44.4626H31.7891V44.8744H33.9634V44.4626Z" fill="#E4B819"/>
<path d="M36.1442 43.167C36.1442 43.1375 36.1148 43.1375 36.1148 43.167C36.1148 43.5498 36.1735 43.962 36.2029 44.3448C36.2323 44.7276 36.2617 45.1398 36.2617 45.5226C36.2617 46.3177 36.2029 47.1421 36.056 47.9077C35.9385 48.6733 35.7328 49.4389 35.4684 50.2045C35.3214 50.5873 35.1745 50.9701 34.9982 51.3528C34.8513 51.7062 34.6456 52.0301 34.5281 52.3834C34.4987 52.4423 34.6163 52.5012 34.6456 52.4423C34.9982 51.9712 35.2627 51.3823 35.4684 50.8228C35.7034 50.2339 35.9091 49.6156 36.056 48.9972C36.3498 47.7899 36.4968 46.5238 36.4674 45.2576C36.4674 44.5804 36.438 43.7853 36.1442 43.167Z" fill="#E4B819"/>
<path d="M37.1163 45.081C37.028 45.1693 36.9398 45.2871 36.8516 45.4049C36.7633 45.5226 36.7045 45.6404 36.6457 45.7582C36.528 45.9938 36.381 46.2588 36.3516 46.5238C36.3516 46.5827 36.4104 46.6121 36.4398 46.5532C36.4986 46.4355 36.5574 46.3177 36.6163 46.1999C36.6751 46.0821 36.7339 45.9643 36.7927 45.8465C36.8516 45.7288 36.9398 45.611 36.9986 45.5226C37.0869 45.4049 37.1457 45.3165 37.2045 45.1988C37.2633 45.081 37.1751 45.0221 37.1163 45.081Z" fill="#E4B819"/>
<path d="M23.248 69.8152C23.3949 69.9919 23.5418 70.1686 23.6006 70.3747C23.6593 70.5808 23.6299 70.8458 23.483 70.993C23.3067 71.1697 22.9835 71.1697 22.7485 71.0225C22.5134 70.9047 22.3371 70.6986 22.1608 70.4925C21.5438 69.8152 20.7504 69.3147 19.8983 69.0496C19.4576 68.9024 18.9875 68.8141 18.5761 68.608C17.1364 67.9013 17.7534 66.1345 19.3401 66.8412C20.8386 67.5185 22.1902 68.608 23.248 69.8152Z" fill="white"/>
<path d="M22.6308 71.2875C22.7777 71.4642 22.9246 71.6409 22.9834 71.847C23.0421 72.0531 23.0128 72.3181 22.8658 72.4653C22.6895 72.642 22.3663 72.642 22.1313 72.4948C21.8962 72.377 21.7199 72.1709 21.5436 71.9648C20.9266 71.2875 20.1333 70.7869 19.2812 70.5219C18.8404 70.3747 18.3703 70.2864 17.9589 70.0803C16.5192 69.3736 17.1362 67.6068 18.7229 68.3135C20.192 68.9613 21.5436 70.0508 22.6308 71.2875Z" fill="white"/>
<path d="M21.2167 71.9352C21.3636 72.1119 21.5106 72.2886 21.5693 72.4947C21.6281 72.7008 21.5987 72.9658 21.4518 73.113C21.2755 73.2897 20.9523 73.2897 20.7172 73.1425C20.4822 73.0247 20.3059 72.8186 20.1296 72.6125C19.5125 71.9352 18.7192 71.4346 17.8671 71.1696C17.4263 71.0224 16.9562 70.9341 16.5449 70.728C15.1051 70.0213 15.7221 68.2545 17.3088 68.9612C18.778 69.6385 20.1589 70.6985 21.2167 71.9352Z" fill="white"/>
<path d="M19.5122 72.2297C19.6297 72.377 19.7472 72.4947 19.806 72.6714C19.8648 72.8481 19.8354 73.0542 19.7178 73.172C19.5709 73.3192 19.3065 73.3192 19.1302 73.2014C18.9539 73.0836 18.807 72.9364 18.6601 72.7597C18.1605 72.2297 17.5141 71.8175 16.8089 71.5819C16.4563 71.4641 16.0744 71.4053 15.7218 71.2286C14.5465 70.6397 15.046 69.1968 16.3388 69.7858C17.5435 70.3452 18.6307 71.2286 19.5122 72.2297Z" fill="white"/>
<path d="M19.1603 66.7823C18.1907 66.5173 17.6031 66.429 16.604 66.4584C15.605 66.4879 14.5472 66.7823 13.8714 67.5185C13.1663 68.2546 12.9312 69.4324 13.4601 70.3158C13.7833 70.8164 14.3122 71.1697 14.8998 71.3464C16.0752 71.7586 17.4268 71.5525 18.4552 70.8752C19.4836 70.1685 20.1594 68.9907 20.2475 67.754L19.1603 66.7823Z" fill="white"/>
<path d="M14.6074 65.4867L8.2901 54.0324L16.8993 47.7016C14.8425 46.7888 13.1676 45.0515 11.7573 43.432L2.11973 51.6473C0.650591 52.884 0.503676 55.0924 1.76713 56.5353L11.9629 68.0779C13.0207 67.3712 14.0491 66.5467 14.6074 65.4867Z" fill="#FFBDA8"/>
<path d="M11.9609 68.0779L13.959 70.3452L15.7513 67.5479L14.6054 65.4867C14.0471 66.5467 13.0187 67.3712 11.9609 68.0779Z" fill="white"/>
<path d="M17.308 47.9077L22.0386 44.4331L18.7183 37.5134L10.8438 43.4614C12.2247 45.022 14.8104 46.7593 17.308 47.9077Z" fill="#FCF4AE"/>
<path d="M21.5427 44.9632C20.7787 45.346 20.0735 45.876 19.3683 46.3177C18.6631 46.7594 17.9286 47.2011 17.2822 47.7311C17.2234 47.7605 17.2822 47.8194 17.3409 47.8194C17.7229 47.6427 18.0755 47.4072 18.4281 47.1716C18.8101 46.936 19.1626 46.7005 19.5446 46.4649C20.2498 46.0232 20.9844 45.611 21.6308 45.081C21.7483 45.0221 21.6308 44.9043 21.5427 44.9632Z" fill="#E4B819"/>
<path d="M21.9834 45.7583C21.6308 45.7289 21.2488 45.7877 20.8962 45.8465C20.7199 45.876 20.5436 45.9054 20.3673 45.9348C20.191 45.9642 20.0147 45.9642 19.8384 46.0524C19.8091 46.0818 19.8091 46.1407 19.8384 46.1407C20.0147 46.1701 20.191 46.1407 20.3379 46.1407C20.5142 46.1112 20.7199 46.1113 20.8962 46.0818C21.2488 46.0524 21.6308 46.023 21.9834 45.9054C22.0715 45.8465 22.0422 45.7583 21.9834 45.7583Z" fill="#E4B819"/>
</svg>
