<svg width="24" height="24" viewBox="0 0 24 24" fill="none" xmlns="http://www.w3.org/2000/svg">
<path d="M20.3343 4.98131L15.8145 0.705328C15.3337 0.2505 14.7045 0 14.0427 0H5.4375C4.01592 0 2.85938 1.15655 2.85938 2.57812V21.4219C2.85938 22.8435 4.01592 24 5.4375 24H18.5625C19.9841 24 21.1406 22.8435 21.1406 21.4219V6.85416C21.1406 6.14873 20.8467 5.46609 20.3343 4.98131ZM18.9684 5.625H15.4688C15.3395 5.625 15.2344 5.51986 15.2344 5.39062V2.09236L18.9684 5.625ZM18.5625 22.5938H5.4375C4.79133 22.5938 4.26562 22.068 4.26562 21.4219V2.57812C4.26562 1.93195 4.79133 1.40625 5.4375 1.40625H13.8281V5.39062C13.8281 6.29527 14.5641 7.03125 15.4688 7.03125H19.7344V21.4219C19.7344 22.068 19.2087 22.5938 18.5625 22.5938Z" fill="#FA6140"/>
<path d="M7.78125 10.3281V11.7344C7.78125 12.1227 8.09606 12.4375 8.48438 12.4375C8.87269 12.4375 9.1875 12.1227 9.1875 11.7344V10.3281H10.5938C10.9821 10.3281 11.2969 10.0133 11.2969 9.625C11.2969 9.23669 10.9821 8.92188 10.5938 8.92188H9.1875V7.51562C9.1875 7.12731 8.87269 6.8125 8.48438 6.8125C8.09606 6.8125 7.78125 7.12731 7.78125 7.51562V8.92188H6.375C5.98669 8.92188 5.67188 9.23669 5.67188 9.625C5.67188 10.0133 5.98669 10.3281 6.375 10.3281H7.78125Z" fill="#FA6140"/>
<path d="M17.0156 13.7812H6.70312C6.31481 13.7812 6 14.0961 6 14.4844C6 14.8727 6.31481 15.1875 6.70312 15.1875H17.0156C17.4039 15.1875 17.7188 14.8727 17.7188 14.4844C17.7188 14.0961 17.4039 13.7812 17.0156 13.7812Z" fill="#FA6140"/>
<path d="M17.0156 17.5312H6.70312C6.31481 17.5312 6 17.8461 6 18.2344C6 18.6227 6.31481 18.9375 6.70312 18.9375H17.0156C17.4039 18.9375 17.7188 18.6227 17.7188 18.2344C17.7188 17.8461 17.4039 17.5312 17.0156 17.5312Z" fill="#FA6140"/>
</svg>
