<svg width="175" height="169" viewBox="0 0 175 169" fill="none" xmlns="http://www.w3.org/2000/svg">
<path d="M48.0697 29.7289L41.6012 39.8771C37.9568 45.5946 39.6047 53.2049 45.2844 56.8771L91.6589 86.8362C94.4266 88.6262 98.1133 87.8145 99.888 85.0284L113.124 64.2641C114.902 61.478 114.096 57.7668 111.328 55.9803L64.954 26.0212C59.2742 22.349 51.7142 24.0079 48.0697 29.7289Z" fill="#FA6140"/>
<path d="M74.922 35.2464L57.7695 62.152L80.6216 76.9146L97.7741 50.009L74.922 35.2464Z" fill="white"/>
<path d="M76.3338 38.5512L61.3438 62.0648L62.2684 62.6621L77.2585 39.1485L76.3338 38.5512Z" fill="#AFEFEB"/>
<path d="M75.6622 43.4946L65.5312 59.3861L66.4559 59.9834L76.5868 44.0919L75.6622 43.4946Z" fill="#AFEFEB"/>
<path d="M82.3259 65.1779C86.5147 63.9109 88.8902 59.4657 87.6316 55.2491C86.373 51.0326 81.957 48.6416 77.7682 49.9086C73.5793 51.1755 71.2039 55.6208 72.4625 59.8373C73.721 64.0538 78.137 66.4449 82.3259 65.1779Z" fill="#AFEFEB"/>
<path d="M83.5185 58.6602C81.1134 57.1112 80.4091 53.8962 81.948 51.4752C84.3531 53.0242 85.0538 56.2392 83.5185 58.6602Z" fill="#DDEBE9"/>
<path d="M83.4275 58.6813C80.1807 56.5936 75.8671 57.5471 73.793 60.8152C77.0397 62.903 81.3534 61.9459 83.4275 58.6813Z" fill="#DDEBE9"/>
<path d="M48.7324 26.4926L38.957 41.8263L42.3503 44.0184L52.1256 28.6847L48.7324 26.4926Z" fill="#FA6140"/>
<g opacity="0.5">
<path d="M94.1663 82.1501L48.8341 52.8644C45.341 50.6065 43.2776 46.9591 42.8938 43.1026C42.8233 42.4255 42.8057 41.7414 42.848 41.0573L41.4747 40.1711L40.4359 39.5012L38.957 41.8265L40.4465 42.7871C38.9746 48.1855 41.0627 54.144 45.9889 57.3236L91.3211 86.6127C94.2754 88.5197 98.2121 87.6584 100.11 84.6809L102.955 80.2182C101.057 83.1993 97.1206 84.0606 94.1663 82.1501Z" fill="#FA6140"/>
</g>
<path d="M24.1977 33.8476L35.3776 16.3124C35.8353 15.5928 36.7896 15.3837 37.5044 15.8445L49.0364 23.2953C49.7512 23.7561 49.959 24.7167 49.5012 25.4362L38.3213 42.9714C37.8636 43.691 36.9093 43.9001 36.1945 43.4393L24.6625 35.9885C23.9477 35.5277 23.7364 34.5672 24.1977 33.8476Z" fill="#AFEFEB"/>
<path d="M26.5048 33.4547L26.0312 34.1975L37.2484 41.4438L37.7219 40.701L26.5048 33.4547Z" fill="#AFEFEB"/>
<path d="M28.1571 30.854L27.6836 31.5968L38.9007 38.8431L39.3743 38.1003L28.1571 30.854Z" fill="#AFEFEB"/>
<path d="M29.8212 28.2456L29.3477 28.9884L40.5648 36.2347L41.0383 35.4919L29.8212 28.2456Z" fill="#AFEFEB"/>
<path d="M31.4814 25.6501L31.0078 26.3929L42.2249 33.6393L42.6985 32.8964L31.4814 25.6501Z" fill="#AFEFEB"/>
<path d="M33.1376 23.0455L32.6641 23.7883L43.8812 31.0347L44.3547 30.2918L33.1376 23.0455Z" fill="#AFEFEB"/>
<path d="M34.8056 20.4449L34.332 21.1877L45.5491 28.4341L46.0227 27.6912L34.8056 20.4449Z" fill="#AFEFEB"/>
<path d="M36.4618 17.8415L35.9883 18.5844L47.2054 25.8307L47.6789 25.0878L36.4618 17.8415Z" fill="#AFEFEB"/>
<g opacity="0.5">
<path d="M84.0591 44.0242C83.6647 44.6409 82.8513 44.8182 82.2386 44.4247L64.512 32.9721C63.8992 32.5751 63.7232 31.7563 64.114 31.1395C64.5084 30.5227 65.3219 30.3455 65.9346 30.739L83.6612 42.1916C84.2739 42.5886 84.45 43.4074 84.0591 44.0242Z" fill="white"/>
</g>
<path d="M143.197 43.7619L129.838 68.5104C129.119 69.8397 127.468 70.3324 126.144 69.6093L110.77 61.2014C109.45 60.4783 108.96 58.8159 109.679 57.4831L123.038 32.7346L143.197 43.7619Z" fill="#C3CEC7"/>
<path d="M138.621 46.14L123.547 37.8942L112.657 58.0669L127.731 66.3127L138.621 46.14Z" fill="white"/>
<path d="M145.697 39.1999L143.813 42.6914L123.594 31.6322L125.478 28.1407C125.837 27.4744 126.664 27.2298 127.323 27.5913L145.152 37.3426C145.814 37.7041 146.057 38.5371 145.697 39.1999Z" fill="#DDEBE9"/>
<path d="M146.315 41.7203L145.079 44.0101C144.719 44.6765 143.892 44.9211 143.234 44.5595L122.356 33.1388C121.694 32.7772 121.451 31.9442 121.81 31.2814L123.046 28.9916C123.406 28.3252 124.233 28.0806 124.892 28.4421L145.769 39.8629C146.427 40.2245 146.674 41.0574 146.315 41.7203Z" fill="#AFEFEB"/>
<g opacity="0.5">
<path d="M136.239 32.4652L118.457 65.4053L110.77 61.2014C109.45 60.4783 108.96 58.8158 109.679 57.4831L122.714 33.3371L122.355 33.1422C121.693 32.7806 121.45 31.9477 121.809 31.2848L123.045 28.995C123.404 28.3286 124.232 28.084 124.89 28.4456L125.218 28.6263L125.478 28.1443C125.838 27.4779 126.665 27.2333 127.324 27.5949L136.239 32.4652Z" fill="#839D8D"/>
</g>
<path d="M112.21 24.0398L82.4662 36.2723C81.7866 36.5523 81.012 36.2226 80.7373 35.5421L79.8711 33.4118L112.073 20.1691L112.939 22.2994C113.214 22.98 112.886 23.7598 112.21 24.0398Z" fill="#FFBDA8"/>
<path d="M110.37 23.4337L124.839 59.0855C125.321 60.2729 124.856 61.6128 123.796 62.2544C123.684 62.3217 123.567 62.382 123.444 62.4316L101.144 71.6015C99.8414 72.1367 98.352 71.5094 97.8203 70.1978L83.3516 34.5461L110.37 23.4337Z" fill="#FFBDA8"/>
<g opacity="0.7">
<path d="M123.802 62.2544C123.689 62.3217 123.573 62.382 123.45 62.4316L101.15 71.6015C99.8473 72.1367 98.3578 71.5094 97.8261 70.1978L83.875 35.8221L123.802 62.2544Z" fill="#FA6140"/>
</g>
<path d="M114.656 33.9972L94.3672 42.3423L100.191 56.6879L120.479 48.3428L114.656 33.9972Z" fill="white"/>
<path d="M115.758 36.7047L116.311 38.0694L100.416 44.6057C100.042 44.7581 99.6163 44.5773 99.4613 44.2016C99.3839 44.0137 99.3909 43.8117 99.4649 43.638C99.5388 43.4643 99.6761 43.319 99.8628 43.241L115.758 36.7047Z" fill="#AFEFEB"/>
<path d="M117.297 40.4868L117.85 41.8515L101.955 48.3878C101.581 48.5402 101.152 48.3594 101 47.9837C100.923 47.7958 100.93 47.5938 101.004 47.4201C101.078 47.2464 101.215 47.1011 101.402 47.0231L117.297 40.4868Z" fill="#AFEFEB"/>
<path d="M118.829 44.2725L119.381 45.6371L103.486 52.1734C103.113 52.3258 102.687 52.1451 102.532 51.7693C102.454 51.5815 102.461 51.3794 102.535 51.2057C102.609 51.032 102.746 50.8867 102.933 50.8087L118.829 44.2725Z" fill="#AFEFEB"/>
<path d="M109.654 19.7758L81.3224 31.4269L78.6568 24.8587C78.1181 23.526 78.7519 22.0089 80.0724 21.463L103.615 11.7791C104.939 11.2368 106.446 11.8748 106.989 13.204L109.654 19.7758Z" fill="#DDEBE9"/>
<path d="M112.418 20.7929L80.0512 34.1065C79.3716 34.3866 78.5969 34.0569 78.3222 33.3763L76.1109 27.9247C75.8327 27.2406 76.1602 26.4608 76.8363 26.1843L109.203 12.8707C109.883 12.5907 110.658 12.9203 110.932 13.6009L113.144 19.0525C113.422 19.7366 113.098 20.5165 112.418 20.7929Z" fill="#AFEFEB"/>
<path d="M81.9959 31.9762C81.4536 32.1996 80.8339 31.9373 80.6085 31.3914L79.126 27.7262C78.9042 27.1804 79.1648 26.5565 79.707 26.3297C80.2493 26.1064 80.8691 26.3687 81.0945 26.9145L82.5805 30.5797C82.8023 31.1291 82.5418 31.7529 81.9959 31.9762Z" fill="white"/>
<path d="M87.5151 29.7111C86.9728 29.9344 86.353 29.6721 86.1277 29.1262L84.6416 25.4611C84.4198 24.9152 84.6804 24.2914 85.2227 24.0645C85.765 23.8412 86.3847 24.1035 86.6101 24.6494L88.0961 28.3145C88.318 28.8604 88.0574 29.4878 87.5151 29.7111Z" fill="white"/>
<path d="M93.019 27.4426C92.4767 27.6659 91.8569 27.4036 91.6316 26.8577L90.1456 23.1926C89.9237 22.6467 90.1843 22.0228 90.7266 21.796C91.2689 21.5727 91.8886 21.835 92.114 22.3808L93.6 26.046C93.8254 26.5954 93.5648 27.2192 93.019 27.4426Z" fill="white"/>
<path d="M98.5268 25.1775C97.9845 25.4008 97.3648 25.1385 97.1394 24.5927L95.6534 20.9275C95.4315 20.3817 95.6921 19.7578 96.2344 19.531C96.7767 19.3077 97.3965 19.57 97.6218 20.1158L99.1078 23.781C99.3297 24.3304 99.0691 24.9542 98.5268 25.1775Z" fill="white"/>
<path d="M104.039 22.9126C103.496 23.136 102.876 22.8737 102.651 22.3278L101.165 18.6626C100.943 18.1168 101.204 17.4929 101.746 17.2661C102.288 17.0428 102.908 17.3051 103.134 17.8509L104.62 21.5161C104.845 22.0655 104.584 22.6893 104.039 22.9126Z" fill="white"/>
<path d="M109.542 20.6476C109 20.8709 108.38 20.6086 108.155 20.0628L106.669 16.3976C106.447 15.8518 106.708 15.2279 107.25 15.0011C107.792 14.7777 108.412 15.04 108.637 15.5859L110.123 19.251C110.345 19.8005 110.085 20.4243 109.542 20.6476Z" fill="white"/>
<path d="M166.741 70.6726L153.596 76.0959C149.822 77.6555 145.79 76.5957 144.441 73.7422L144.237 73.2389L128.634 34.6877C128.071 33.2982 128.733 31.7102 130.117 31.143L145.91 24.6635C147.293 24.0963 148.867 24.7663 149.434 26.1593L162.899 59.4326L164.664 63.7925L164.903 64.388L165.34 65.4656L165.579 66.0611L166.678 68.7762C166.938 69.4072 166.942 70.0771 166.741 70.6726Z" fill="#AFEFEB"/>
<path d="M139.868 33.5074L139.897 33.4967C140.076 33.4223 140.284 33.5109 140.354 33.6917L154.827 69.4498C154.901 69.6306 154.813 69.8397 154.633 69.9106L154.605 69.9212C154.426 69.9957 154.218 69.907 154.148 69.7263L139.675 33.9682C139.601 33.7874 139.689 33.5818 139.868 33.5074Z" fill="#DDEBE9"/>
<path d="M132.315 36.8251C131.748 35.4214 132.417 33.8228 133.812 33.2521C135.206 32.6814 136.794 33.3549 137.361 34.7585C137.928 36.1622 137.259 37.7608 135.864 38.3315C134.47 38.9022 132.882 38.2287 132.315 36.8251Z" fill="#FA6140"/>
<path d="M135.944 45.7893C135.377 44.3856 136.046 42.787 137.44 42.2163C138.835 41.6456 140.423 42.3191 140.99 43.7228C141.557 45.1264 140.888 46.7251 139.493 47.2957C138.102 47.8664 136.511 47.193 135.944 45.7893Z" fill="#FA6140"/>
<path d="M139.573 54.7539C139.006 53.3502 139.675 51.7516 141.069 51.1809C142.464 50.6102 144.052 51.2837 144.619 52.6874C145.186 54.091 144.517 55.6897 143.122 56.2603C141.731 56.831 140.143 56.1576 139.573 54.7539Z" fill="#FA6140"/>
<path d="M147.068 65.083C148.378 64.3352 148.837 62.6606 148.094 61.3428C147.351 60.0249 145.687 59.5628 144.378 60.3106C143.069 61.0585 142.61 62.733 143.353 64.0508C144.096 65.3687 145.759 65.8308 147.068 65.083Z" fill="#FA6140"/>
<path d="M146.827 72.6825C146.26 71.2788 146.929 69.6802 148.323 69.1095C149.718 68.5388 151.306 69.2123 151.873 70.616C152.44 72.0196 151.771 73.6183 150.376 74.1889C148.985 74.7596 147.394 74.0861 146.827 72.6825Z" fill="#FA6140"/>
<path d="M142.752 32.5432C142.186 31.1395 142.855 29.5409 144.249 28.9702C145.644 28.3995 147.232 29.073 147.799 30.4767C148.366 31.8804 147.696 33.479 146.302 34.0497C144.911 34.6203 143.319 33.9469 142.752 32.5432Z" fill="#FA6140"/>
<path d="M146.374 41.5074C145.807 40.1038 146.476 38.5051 147.87 37.9345C149.265 37.3638 150.853 38.0373 151.42 39.4409C151.987 40.8446 151.318 42.4432 149.923 43.0139C148.529 43.5846 146.94 42.9111 146.374 41.5074Z" fill="#FA6140"/>
<path d="M150.014 50.4718C149.447 49.0681 150.116 47.4695 151.511 46.8988C152.905 46.3281 154.493 47.0016 155.06 48.4053C155.627 49.8089 154.958 51.4076 153.564 51.9783C152.173 52.5489 150.581 51.8755 150.014 50.4718Z" fill="#FA6140"/>
<path d="M156.98 61.0249C158.414 60.5643 159.206 59.0207 158.748 57.5772C158.291 56.1337 156.757 55.3369 155.323 55.7975C153.889 56.2582 153.098 57.8018 153.555 59.2453C154.013 60.6888 155.546 61.4856 156.98 61.0249Z" fill="#FA6140"/>
<path d="M157.264 68.4006C156.697 66.9969 157.366 65.3983 158.761 64.8276C160.155 64.257 161.743 64.9304 162.31 66.3341C162.877 67.7378 162.208 69.3364 160.814 69.9071C159.419 70.4778 157.831 69.8043 157.264 68.4006Z" fill="#FA6140"/>
<path d="M133.022 37.1368C132.455 35.7332 133.124 34.1345 134.519 33.5639C135.913 32.9932 137.501 33.6666 138.068 35.0703C138.635 36.474 137.966 38.0726 136.572 38.6433C135.181 39.2104 133.592 38.5369 133.022 37.1368Z" fill="#FFBDA8"/>
<path d="M136.651 46.1011C136.084 44.6974 136.753 43.0988 138.147 42.5281C139.542 41.9574 141.13 42.6309 141.697 44.0345C142.264 45.4382 141.595 47.0368 140.2 47.6075C138.806 48.1747 137.218 47.5012 136.651 46.1011Z" fill="#FFBDA8"/>
<path d="M140.292 55.0654C139.725 53.6618 140.394 52.0631 141.788 51.4924C143.183 50.9218 144.771 51.5952 145.338 52.9989C145.905 54.4026 145.236 56.0012 143.841 56.5719C142.45 57.139 140.858 56.4655 140.292 55.0654Z" fill="#FFBDA8"/>
<path d="M143.913 64.0264C143.346 62.6227 144.015 61.0241 145.409 60.4534C146.804 59.8827 148.392 60.5562 148.959 61.9598C149.526 63.3635 148.857 64.9621 147.462 65.5328C146.071 66.1035 144.483 65.43 143.913 64.0264Z" fill="#FFBDA8"/>
<path d="M147.545 72.9905C146.978 71.5868 147.648 69.9882 149.042 69.4175C150.436 68.8468 152.025 69.5203 152.592 70.924C153.159 72.3276 152.489 73.9262 151.095 74.4969C149.701 75.0676 148.112 74.3941 147.545 72.9905Z" fill="#FFBDA8"/>
<path d="M143.471 32.855C142.904 31.4513 143.573 29.8527 144.968 29.282C146.362 28.7113 147.95 29.3848 148.517 30.7885C149.084 32.1921 148.415 33.7907 147.021 34.3614C145.63 34.9321 144.038 34.2586 143.471 32.855Z" fill="#FFBDA8"/>
<path d="M147.104 41.8192C146.537 40.4155 147.206 38.8169 148.601 38.2462C149.995 37.6755 151.583 38.349 152.15 39.7527C152.717 41.1564 152.048 42.755 150.654 43.3257C149.263 43.8964 147.671 43.2229 147.104 41.8192Z" fill="#FFBDA8"/>
<path d="M150.725 50.7838C150.158 49.3801 150.827 47.7815 152.222 47.2108C153.616 46.6401 155.204 47.3136 155.771 48.7173C156.338 50.121 155.669 51.7196 154.275 52.2903C152.884 52.8609 151.296 52.1839 150.725 50.7838Z" fill="#FFBDA8"/>
<path d="M154.358 59.7479C153.791 58.3442 154.46 56.7456 155.855 56.1749C157.249 55.6043 158.837 56.2777 159.404 57.6814C159.971 59.0851 159.302 60.6837 157.907 61.2544C156.517 61.8251 154.925 61.148 154.358 59.7479Z" fill="#FFBDA8"/>
<path d="M163.027 68.7553C163.611 67.3588 162.96 65.75 161.573 65.1619C160.185 64.5739 158.587 65.2292 158.003 66.6257C157.419 68.0221 158.07 69.6309 159.457 70.219C160.844 70.807 162.443 70.1517 163.027 68.7553Z" fill="#FFBDA8"/>
<path d="M174.604 30.6292L166.674 87.4671C166.026 92.1212 162.66 95.5205 159.085 95.2121C158.987 95.205 158.888 95.1944 158.793 95.1802C158.687 95.166 158.582 95.1483 158.476 95.1235C154.969 94.4075 152.676 90.2178 153.324 85.5779L161.255 28.7399C161.772 25.0252 164.022 22.108 166.73 21.2395C167.058 21.1332 167.396 21.0588 167.737 21.0162C167.984 20.9843 168.23 20.9701 168.48 20.9737C168.512 20.9737 168.544 20.9737 168.575 20.9772C168.766 20.9843 168.952 20.9985 169.139 21.0268C169.329 21.0552 169.512 21.0907 169.695 21.1367C169.727 21.1438 169.759 21.1509 169.787 21.1615C170.03 21.2289 170.262 21.3104 170.491 21.4061C170.808 21.5408 171.107 21.7074 171.396 21.8988C173.759 23.4868 175.122 26.9145 174.604 30.6292Z" fill="#DDEBE9"/>
<path d="M171.771 0.145304L172.306 0.219738C173.447 0.379246 174.243 1.44263 174.081 2.59109L171.013 24.5783L166.348 23.919L169.415 1.93179C169.573 0.783333 170.63 -0.0142038 171.771 0.145304Z" fill="#DDEBE9"/>
<path d="M160.009 86.4354C159.248 86.3291 158.716 85.6202 158.822 84.851L167.914 19.6832C167.918 19.6584 167.939 19.6442 167.963 19.6478L170.64 20.027C170.664 20.0306 170.678 20.0518 170.675 20.0767L161.583 85.2444C161.474 86.0065 160.769 86.5418 160.009 86.4354Z" fill="#DDEBE9"/>
<path d="M171.645 1.85394L171.962 1.90002C172.638 1.99573 173.106 2.62312 173.011 3.30014L170.511 21.2146C170.494 21.2288 170.487 21.2359 170.469 21.2465L167.786 20.8673C167.772 20.8495 167.764 20.8425 167.754 20.8247L170.254 2.91024C170.346 2.23322 170.969 1.75823 171.645 1.85394Z" fill="#E93353"/>
<path d="M169.983 19.6697L168.672 19.4845L160.636 77.1401L161.947 77.3253L169.983 19.6697Z" fill="#E93353"/>
<path d="M163.419 34.3792C163.39 34.5706 163.309 34.7337 163.2 34.8471C163.091 34.9605 162.95 35.0172 162.809 34.9995L160.422 34.6628L160.616 33.2804L163.003 33.6171C163.288 33.6561 163.475 33.9964 163.419 34.3792Z" fill="#AFEFEB"/>
<path d="M162.176 43.2656C162.148 43.457 162.067 43.62 161.958 43.7335C161.849 43.8469 161.708 43.9036 161.567 43.8859L159.18 43.5492L159.373 42.1667L161.761 42.5035C162.046 42.5425 162.229 42.8863 162.176 43.2656Z" fill="#AFEFEB"/>
<path d="M160.938 52.1522C160.91 52.3436 160.829 52.5066 160.72 52.6201C160.611 52.7335 160.47 52.7902 160.329 52.7725L157.941 52.4357L158.135 51.0533L160.523 51.3901C160.808 51.4291 160.991 51.7729 160.938 52.1522Z" fill="#AFEFEB"/>
<path d="M159.7 61.0383C159.672 61.2297 159.591 61.3927 159.481 61.5062C159.372 61.6196 159.231 61.6763 159.091 61.6586L156.703 61.3219L156.897 59.9395L159.284 60.2762C159.57 60.3152 159.753 60.659 159.7 61.0383Z" fill="#AFEFEB"/>
<path d="M158.458 69.9282C158.429 70.1196 158.348 70.2826 158.239 70.3961C158.13 70.5095 157.989 70.5662 157.848 70.5485L155.461 70.2117L155.655 68.8293L158.042 69.1661C158.327 69.2051 158.51 69.5418 158.458 69.9282Z" fill="#AFEFEB"/>
<path d="M165.491 30.14C165.463 30.3314 165.382 30.4945 165.273 30.6079C165.16 30.7213 165.023 30.778 164.882 30.7603L161.047 30.218L161.241 28.8356L165.075 29.3779C165.357 29.4169 165.547 29.7607 165.491 30.14Z" fill="#AFEFEB"/>
<path d="M157.037 78.7864C157.009 78.9778 156.928 79.1409 156.819 79.2543C156.706 79.3677 156.569 79.4245 156.428 79.4067L154.23 79.0948L154.424 77.7124L156.621 78.0243C156.903 78.0633 157.093 78.4036 157.037 78.7864Z" fill="#AFEFEB"/>
<path d="M164.253 39.0265C164.224 39.2179 164.143 39.3809 164.034 39.4944C163.922 39.6078 163.784 39.6645 163.643 39.6468L159.809 39.1044L160.002 37.722L163.837 38.2644C164.119 38.3034 164.305 38.6472 164.253 39.0265Z" fill="#AFEFEB"/>
<path d="M163.01 47.9127C162.982 48.1041 162.901 48.2672 162.792 48.3806C162.679 48.494 162.542 48.5507 162.401 48.533L158.566 47.9907L158.76 46.6083L162.595 47.1506C162.877 47.1896 163.063 47.5334 163.01 47.9127Z" fill="#AFEFEB"/>
<path d="M161.768 56.8026C161.74 56.994 161.659 57.157 161.55 57.2705C161.437 57.3839 161.3 57.4406 161.159 57.4229L157.324 56.8806L157.518 55.4982L161.353 56.0405C161.634 56.0759 161.821 56.4198 161.768 56.8026Z" fill="#AFEFEB"/>
<path d="M160.534 65.6888C160.506 65.8802 160.425 66.0433 160.315 66.1567C160.203 66.2701 160.065 66.3268 159.925 66.3091L156.09 65.7668L156.284 64.3844L160.118 64.9267C160.4 64.9657 160.587 65.3025 160.534 65.6888Z" fill="#AFEFEB"/>
<path d="M159.292 74.5753C159.263 74.7667 159.182 74.9298 159.073 75.0432C158.961 75.1566 158.823 75.2133 158.682 75.1956L154.848 74.6533L155.041 73.2709L158.876 73.8132C159.158 73.8522 159.344 74.1925 159.292 74.5753Z" fill="#AFEFEB"/>
<path d="M167.392 64.0442C166.973 63.984 166.681 63.594 166.737 63.1722L171.336 30.2073C171.396 29.7855 171.784 29.4913 172.203 29.548C172.622 29.6083 172.914 29.9982 172.858 30.42L168.259 63.3849C168.199 63.8103 167.811 64.1045 167.392 64.0442Z" fill="white"/>
<path d="M173.019 55.1439H38.9453V168.125H173.019V55.1439Z" fill="#DAE7DF"/>
<path d="M157.187 55.1438L156.021 156.977L140.988 168.125V55.1438H157.187Z" fill="black" fill-opacity="0.05"/>
<path d="M173.035 168.125L156.023 156.977L157.189 55.1438H173.035V168.125Z" fill="black" fill-opacity="0.05"/>
<path d="M140.988 168.125H173.031L156.02 156.977L140.988 168.125Z" fill="black" fill-opacity="0.2"/>
<path d="M86.7703 123.653V110.282H92.9289V123.653H106.211V129.852H92.9289V143.226H86.7703V129.852H73.4883V123.653H86.7703Z" fill="#006D35"/>
<path d="M69.4831 70.9004C71.2597 69.1119 71.2597 66.2122 69.483 64.4237C67.7062 62.6352 64.8256 62.6353 63.049 64.4238C61.2723 66.2123 61.2724 69.1121 63.0491 70.9005C64.8258 72.689 67.7064 72.689 69.4831 70.9004Z" fill="black" fill-opacity="0.4"/>
<path d="M117.902 68.5381C118.383 66.0555 116.772 63.651 114.306 63.1677C111.84 62.6843 109.451 64.305 108.971 66.7877C108.491 69.2704 110.101 71.6748 112.567 72.1582C115.034 72.6415 117.422 71.0208 117.902 68.5381Z" fill="black" fill-opacity="0.4"/>
<path d="M89.8624 92.245C75.8127 92.245 64.3828 81.2177 64.3828 67.6631C64.3828 66.8195 65.0624 66.1354 65.9005 66.1354C66.7385 66.1354 67.4181 66.8195 67.4181 67.6631C67.4181 79.534 77.4888 89.1896 89.8659 89.1896C102.243 89.1896 112.314 79.534 112.314 67.6631C112.314 66.8195 112.993 66.1354 113.831 66.1354C114.669 66.1354 115.349 66.8195 115.349 67.6631C115.342 81.2177 103.912 92.245 89.8624 92.245Z" fill="#838B86"/>
<path d="M6.53456 44.0278C6.55217 44.0348 6.5733 44.0384 6.5909 44.0384C6.62964 44.0348 6.66485 44.0065 6.68245 43.9675C6.74583 43.808 6.81274 43.6485 6.87612 43.4854C6.72823 45.038 7.32684 45.9135 8.81279 46.4168C11.9079 47.4696 21.1547 48.7634 28.7464 40.1996C25.8942 38.4663 23.2744 33.3372 24.2393 28.7398C19.2391 23.8376 12.2565 24.0397 12.2565 24.0397C12.2565 24.0397 11.4185 23.0401 9.87268 23.1606C8.2494 23.1748 6.95711 23.8199 6.21765 25.0003C5.40073 26.3047 4.85142 28.8674 6.8726 33.6775C8.63321 37.8637 7.59093 41.1353 6.47823 43.8718C6.45358 43.932 6.47822 44.0029 6.53456 44.0278ZM8.52053 23.5824C7.39726 24.2523 6.09441 25.5071 5.72821 27.3752C5.80567 26.3756 6.08033 25.6489 6.40428 25.1314C6.88316 24.3658 7.61558 23.8412 8.52053 23.5824ZM7.95361 39.5084C8.16841 37.7467 8.00644 35.7901 7.07683 33.5782C6.69654 32.6708 6.4078 31.8449 6.19653 31.097C6.4747 31.7776 6.85852 32.5007 7.37966 33.2734C8.62617 35.1166 8.49588 37.4277 7.95361 39.5084Z" fill="black"/>
<path d="M9.36719 147.112L11.5962 157.08L14.931 157.058L15.0542 147.112H9.36719Z" fill="#FFBDA8"/>
<path d="M37.4375 147.534L43.776 157.08L46.248 153.709L42.4308 146.223L37.4375 147.534Z" fill="#FFBDA8"/>
<path d="M45.6484 151.529C45.6484 151.529 44.011 151.83 42.6694 151.936C42.3701 151.961 42.0884 151.975 41.8384 151.975C41.1905 151.975 40.025 151.717 39.2433 151.522L39.1834 151.507C38.8383 151.422 38.5778 151.352 38.4792 151.323L38.4369 151.313C38.4369 151.313 30.2747 141.657 25.6972 126.181C25.5915 125.82 25.4788 125.458 25.3591 125.089C22.852 117.327 17.6582 107.583 14.9222 98.7636C14.4856 97.3599 14.0947 96.0378 13.7461 94.7865C13.6335 94.386 13.5243 93.9925 13.4187 93.6062C11.401 86.1589 10.8165 81.2709 10.2812 76.0461L26.7359 80.4946C26.7394 80.4946 33.6481 112.322 45.6484 151.529Z" fill="#839D8D"/>
<path d="M11.4818 156.523C11.4818 156.523 11.7494 158.498 11.0557 160.61C11.0557 160.61 10.5099 163.254 12.9608 163.304C15.4117 163.354 16.0138 163.109 15.7356 161.486C15.4575 159.866 14.9292 157.062 14.9292 157.062L11.4818 156.523Z" fill="#FFBDA8"/>
<path d="M11.0592 160.61C11.0592 160.61 10.605 163.105 10.8831 164.435C10.8831 164.435 11.6226 165.023 13.4045 165.023C15.0912 165.023 15.9715 164.435 15.9715 164.435C15.9715 164.435 16.0244 161.698 15.5736 160.543C15.5701 160.543 13.8341 163.311 11.0592 160.61Z" fill="#250E01"/>
<path d="M52.1515 161.751C52.1515 161.751 47.6335 156.424 46.2461 153.712L42.8867 155.541L50.3978 163.035L52.155 162.79L52.1515 161.751Z" fill="#FFBDA8"/>
<path d="M55.0177 164.874C55.0177 164.874 50.1617 164.874 49.3307 164.775C48.4996 164.679 47.827 163.4 46.9256 161.482C46.5558 160.699 45.7283 160.266 44.8796 160.029V164.467H43.5979L42.383 159.749C41.5836 158.186 42.3196 156.771 42.883 155.538C43.538 155.538 45.2987 156.013 48.637 160.008C49.7356 161.319 50.947 161.787 52.1478 161.748C52.1654 161.759 52.1795 161.769 52.1971 161.776C54.9719 163.106 55.0177 164.874 55.0177 164.874Z" fill="#250E01"/>
<path d="M16.6366 121.761C16.6859 128.641 16.3584 144.461 15.5168 151.008C15.5168 151.008 14.7174 151.759 12.7349 151.77C10.7031 151.78 9.79456 150.983 9.79456 150.983C7.67821 139.598 6.17459 130.176 5.07592 122.055C4.17797 115.395 3.37861 109.681 2.76237 104.765C2.21656 100.408 1.81864 96.6723 1.62497 93.4538C1.60032 93.0178 1.57567 92.5889 1.55806 92.1706C1.53341 91.6177 1.51581 91.0824 1.50524 90.5649C1.49468 90.0403 1.49468 89.5334 1.4982 89.0372L1.56863 89.0301L5.65694 88.6083L18.5734 87.2684C18.3621 99.3237 16.6084 117.763 16.6366 121.761Z" fill="#839D8D"/>
<path d="M16.1133 44.1411C16.1133 44.1411 22.7511 43.021 24.9801 45.3781C27.7092 48.2635 32.8363 64.8133 32.6356 66.7026C32.5581 67.4221 29.8643 67.0889 28.9381 66.061C24.3357 60.9284 17.7331 47.9799 16.1133 44.1411Z" fill="#FCF4AE"/>
<path d="M29.0089 90.3488C24.0546 91.717 0.930725 94.418 0.730015 88.2646C0.680718 86.7617 0.730012 84.9503 0.842691 82.9866C1.18777 76.9076 2.12794 69.3966 2.57513 65.2635C2.78288 63.3707 2.09625 54.8814 2.62091 50.2592C2.69838 49.5751 2.80049 48.9725 2.94134 48.4904C3.94137 45.0025 8.4274 44.0561 10.7303 43.971L17.6812 43.7194C17.6812 43.7194 24.8609 52.2406 25.8574 54.8601C26.8575 57.4796 27.1814 66.4404 27.9596 70.779C28.7413 75.1176 31.421 89.686 29.0089 90.3488Z" fill="#FCF4AE"/>
<path d="M15.3553 69.5524C15.3553 69.5524 11.4924 82.1641 0.84375 82.99C1.18884 76.911 2.12905 69.4 2.57627 65.2669C2.78403 63.3741 2.09736 54.8848 2.62205 50.2626C2.75938 50.2945 2.88615 50.376 3.03053 50.4044C14.7567 52.8076 16.4188 66.9223 15.3553 69.5524Z" fill="#FFE86E"/>
<path d="M32.3044 67.0109C32.3044 67.0109 25.325 69.4425 16.8244 65.5435C16.8244 65.5435 14.5073 65.3095 13.3594 65.6214C13.3594 65.6214 13.6059 63.1792 14.7292 62.5163C15.8525 61.8535 20.6874 63.2891 22.1311 63.0764C25.2898 62.6156 30.7902 62.2576 32.3044 67.0109Z" fill="#FFBDA8"/>
<path d="M26.083 61.3325C26.083 61.3325 26.738 55.3067 24.5195 51.6734C24.5195 51.6734 25.3048 51.3899 25.8647 52.3327C26.4281 53.2756 30.3474 62.2257 28.4811 62.885C26.6112 63.5479 26.083 61.3325 26.083 61.3325Z" fill="#FFE86E"/>
<path d="M15.8922 62.3391C15.7936 62.3391 12.5962 62.7822 12.0293 63.2075C11.4623 63.6329 11.9624 65.1181 13.0294 65.2599C14.0963 65.4017 15.8922 62.3391 15.8922 62.3391Z" fill="#FFBDA8"/>
<path d="M7.15625 64.6219C7.15625 64.6219 16.259 64.2675 24.5166 62.5696C24.5166 62.5696 26.0273 62.5838 25.8477 63.9839C25.6716 65.384 11.5368 73.2247 8.43099 71.7147L7.15625 64.6219Z" fill="#FFBDA8"/>
<path d="M24.5156 62.5731C24.5156 62.5731 25.4805 61.3361 26.0791 61.3361C26.6778 61.3361 28.2448 62.1513 28.4772 62.8921C28.7096 63.6365 26.6249 63.1048 25.8467 63.9874C25.0685 64.87 24.5156 62.5731 24.5156 62.5731Z" fill="#FFBDA8"/>
<path d="M10.7322 43.9746C10.7322 43.9746 3.08379 43.9923 1.96399 46.9131C-0.0784062 52.2442 6.65094 69.9247 8.42924 71.7183C9.19338 72.4875 12.7288 71.2752 12.7288 66.1816C12.7288 63.5373 12.5528 48.1076 10.7322 43.9746Z" fill="#FCF4AE"/>
<path d="M18.1272 46.6437C18.1554 46.6579 15.451 48.1501 13.4192 47.5582C11.507 47.0052 10.257 44.368 10.2816 44.3609C11.0915 44.1908 11.1479 40.3839 11.1303 35.3009L12.4191 37.0945L17.8314 39.2957C17.8314 39.2957 17.6906 41.3551 17.6871 43.294C17.6835 44.9245 17.7786 46.47 18.1272 46.6437Z" fill="#FFBDA8"/>
<path d="M17.5709 41.7023C17.5709 42.8189 16.8843 44.2509 15.4652 44.2509C14.046 44.2509 13.3594 38.5937 13.3594 37.4807C13.3594 36.3641 13.5812 39.6854 15.0003 39.6854C16.4194 39.6819 17.5709 40.5858 17.5709 41.7023Z" fill="#FFBDA8"/>
<path d="M10.8449 31.026C10.8308 35.6589 10.7287 37.6226 12.7781 40.1428C15.8593 43.9355 21.2189 42.9431 22.5394 38.4059C23.7261 34.3225 23.5535 27.4318 19.4124 25.3015C15.3346 23.2031 10.859 26.3932 10.8449 31.026Z" fill="#FFBDA8"/>
<path d="M14.5442 26.613C15.7415 28.4987 23.1364 30.0548 26.5205 29.4239C26.5205 29.4239 25.464 28.9879 25.0732 28.5519C24.9147 26.9887 24.559 23.5753 22.1399 21.8951C18.203 19.1622 14.5231 19.9314 12.3258 20.8813C11.0475 21.4343 10.132 22.6501 9.85377 24.0857L9.69531 24.9045L14.5442 26.613Z" fill="black"/>
<path d="M12.8643 25.2555L14.8891 26.1594C14.8891 26.1594 16.8786 33.0785 10.7655 33.6243C10.7655 33.6243 10.0824 26.6237 12.8643 25.2555Z" fill="black"/>
<path d="M9.36969 34.4714C9.5528 35.4036 10.1162 36.1763 10.7289 36.6159C11.6515 37.2752 12.4192 36.4989 12.4227 35.3894C12.4227 34.3899 11.9438 32.8444 10.8944 32.6282C9.85916 32.4155 9.15841 33.4045 9.36969 34.4714Z" fill="#FFBDA8"/>
</svg>
