<svg width="175" height="167" viewBox="0 0 175 167" fill="none" xmlns="http://www.w3.org/2000/svg">
<path d="M48.0701 29.4938L41.6013 39.5615C37.9567 45.2336 39.6047 52.7835 45.2847 56.4266L91.6612 86.148C94.429 87.9238 98.1159 87.1185 99.8906 84.3546L113.127 63.755C114.906 60.991 114.099 57.3092 111.332 55.5369L64.9551 25.8156C59.2751 22.1725 51.7147 23.8182 48.0701 29.4938Z" fill="#FA6140"/>
<path d="M74.9225 34.968L57.7695 61.6597L80.6219 76.3047L97.7749 49.613L74.9225 34.968Z" fill="white"/>
<path d="M76.3304 38.2464L61.3398 61.5731L62.2645 62.1657L77.255 38.8389L76.3304 38.2464Z" fill="#AFEFEB"/>
<path d="M75.6586 43.1506L65.5273 58.9158L66.452 59.5084L76.5833 43.7432L75.6586 43.1506Z" fill="#AFEFEB"/>
<path d="M82.3261 64.6616C86.515 63.4048 88.8904 58.9948 87.6317 54.8118C86.3731 50.6288 81.9571 48.2566 77.7682 49.5135C73.5793 50.7704 71.2039 55.1803 72.4625 59.3634C73.7212 63.5464 78.1372 65.9185 82.3261 64.6616Z" fill="#AFEFEB"/>
<path d="M83.5146 58.1956C81.1095 56.6589 80.4052 53.4694 81.944 51.0677C84.3491 52.6044 85.0499 55.7938 83.5146 58.1956Z" fill="#DDEBE9"/>
<path d="M83.4235 58.2166C80.1768 56.1454 75.8632 57.0913 73.7891 60.3335C77.0358 62.4047 81.3495 61.4553 83.4235 58.2166Z" fill="#DDEBE9"/>
<path d="M48.7327 26.2835L38.957 41.4953L42.3504 43.6699L52.126 28.4581L48.7327 26.2835Z" fill="#FA6140"/>
<g opacity="0.5">
<path d="M94.1687 81.4991L48.8345 52.4458C45.3413 50.2058 43.2778 46.5874 42.8939 42.7614C42.8235 42.0898 42.8059 41.4111 42.8482 40.7324L41.4748 39.8533L40.436 39.1887L38.957 41.4955L40.4466 42.4484C38.9746 47.8041 41.0628 53.7153 45.9892 56.8696L91.3234 85.9263C94.2779 87.8182 98.2148 86.9637 100.113 84.0098L102.958 79.5826C101.06 82.5399 97.1231 83.3944 94.1687 81.4991Z" fill="#FA6140"/>
</g>
<path d="M24.1977 33.5799L35.3781 16.1839C35.8359 15.47 36.7902 15.2625 37.505 15.7197L49.0375 23.1113C49.7523 23.5685 49.9601 24.5215 49.5023 25.2353L38.322 42.6314C37.8642 43.3452 36.9099 43.5527 36.195 43.0955L24.6625 35.7039C23.9477 35.2467 23.7364 34.2938 24.1977 33.5799Z" fill="#AFEFEB"/>
<path d="M26.5048 33.1901L26.0312 33.927L37.2485 41.1156L37.7221 40.3787L26.5048 33.1901Z" fill="#AFEFEB"/>
<path d="M28.1572 30.61L27.6836 31.3469L38.9009 38.5355L39.3744 37.7986L28.1572 30.61Z" fill="#AFEFEB"/>
<path d="M29.8212 28.0225L29.3477 28.7594L40.5649 35.948L41.0385 35.2111L29.8212 28.0225Z" fill="#AFEFEB"/>
<path d="M31.4814 25.4475L31.0078 26.1844L42.2251 33.373L42.6986 32.6361L31.4814 25.4475Z" fill="#AFEFEB"/>
<path d="M33.1376 22.8636L32.6641 23.6005L43.8813 30.7891L44.3549 30.0522L33.1376 22.8636Z" fill="#AFEFEB"/>
<path d="M34.8056 20.2837L34.332 21.0206L45.5493 28.2092L46.0229 27.4722L34.8056 20.2837Z" fill="#AFEFEB"/>
<path d="M36.4619 17.7009L35.9883 18.4378L47.2055 25.6264L47.6791 24.8895L36.4619 17.7009Z" fill="#AFEFEB"/>
<g opacity="0.5">
<path d="M84.0591 43.6757C83.6647 44.2876 82.8513 44.4634 82.2386 44.0731L64.512 32.7113C63.8992 32.3174 63.7232 31.5051 64.114 30.8933C64.5084 30.2814 65.3219 30.1056 65.9346 30.4959L83.6612 41.8577C84.2739 42.2515 84.45 43.0638 84.0591 43.6757Z" fill="white"/>
</g>
<path d="M143.203 43.4157L129.843 67.9678C129.124 69.2865 127.473 69.7753 126.149 69.0579L110.774 60.7168C109.454 59.9994 108.964 58.3502 109.683 57.028L123.043 32.4759L143.203 43.4157Z" fill="#C3CEC7"/>
<path d="M138.625 45.7745L123.551 37.5944L112.661 57.6068L127.735 65.7869L138.625 45.7745Z" fill="white"/>
<path d="M145.701 38.8899L143.817 42.3536L123.598 31.3822L125.482 27.9184C125.841 27.2573 126.668 27.0147 127.327 27.3734L145.156 37.0472C145.818 37.4059 146.061 38.2323 145.701 38.8899Z" fill="#DDEBE9"/>
<path d="M146.32 41.3902L145.084 43.6619C144.724 44.323 143.897 44.5656 143.238 44.2069L122.36 32.8768C121.698 32.5181 121.455 31.6917 121.814 31.0341L123.05 28.7625C123.41 28.1014 124.237 27.8588 124.896 28.2174L145.774 39.5476C146.432 39.9062 146.679 40.7326 146.32 41.3902Z" fill="#AFEFEB"/>
<g opacity="0.5">
<path d="M136.244 32.2086L118.461 64.8873L110.774 60.7167C109.454 59.9994 108.964 58.3502 109.683 57.028L122.719 33.0736L122.36 32.8802C121.698 32.5215 121.455 31.6952 121.814 31.0376L123.05 28.7659C123.409 28.1048 124.237 27.8622 124.895 28.2209L125.222 28.4002L125.483 27.922C125.842 27.2609 126.67 27.0182 127.328 27.3769L136.244 32.2086Z" fill="#839D8D"/>
</g>
<path d="M112.211 23.85L82.4663 35.9854C81.7867 36.2632 81.012 35.9362 80.7373 35.261L79.8711 33.1476L112.074 20.01L112.94 22.1234C113.215 22.7986 112.888 23.5722 112.211 23.85Z" fill="#FFBDA8"/>
<path d="M110.371 23.2488L124.84 58.6176C125.323 59.7956 124.858 61.1249 123.798 61.7614C123.685 61.8282 123.569 61.888 123.446 61.9372L101.145 71.0343C99.8422 71.5653 98.3526 70.9429 97.8209 69.6418L83.3516 34.273L110.371 23.2488Z" fill="#FFBDA8"/>
<g opacity="0.7">
<path d="M123.804 61.7613C123.691 61.8281 123.575 61.8879 123.452 61.9371L101.151 71.0343C99.848 71.5652 98.3584 70.9428 97.8267 69.6417L83.875 35.5388L123.804 61.7613Z" fill="#FA6140"/>
</g>
<path d="M114.656 33.7285L94.3672 42.0074L100.191 56.2392L120.479 47.9603L114.656 33.7285Z" fill="white"/>
<path d="M115.758 36.4144L116.311 37.7683L100.416 44.2527C100.042 44.4039 99.6163 44.2246 99.4613 43.8518C99.3839 43.6654 99.3909 43.465 99.4649 43.2927C99.5388 43.1204 99.6761 42.9762 99.8628 42.8988L115.758 36.4144Z" fill="#AFEFEB"/>
<path d="M117.297 40.1665L117.85 41.5204L101.955 48.0048C101.581 48.156 101.152 47.9766 101 47.6039C100.923 47.4175 100.93 47.2171 101.004 47.0448C101.078 46.8724 101.215 46.7283 101.402 46.6509L117.297 40.1665Z" fill="#AFEFEB"/>
<path d="M118.829 43.9221L119.381 45.2759L103.486 51.7603C103.113 51.9115 102.687 51.7322 102.532 51.3594C102.454 51.1731 102.461 50.9726 102.535 50.8003C102.609 50.628 102.746 50.4838 102.933 50.4065L118.829 43.9221Z" fill="#AFEFEB"/>
<path d="M109.656 19.6198L81.3225 31.1785L78.6569 24.6625C78.1181 23.3403 78.7519 21.8352 80.0725 21.2937L103.616 11.6866C104.94 11.1486 106.448 11.7816 106.99 13.1003L109.656 19.6198Z" fill="#DDEBE9"/>
<path d="M112.42 20.6289L80.0513 33.8369C79.3717 34.1147 78.597 33.7876 78.3223 33.1125L76.1109 27.7041C75.8327 27.0254 76.1602 26.2518 76.8363 25.9775L109.205 12.7696C109.884 12.4918 110.659 12.8188 110.934 13.494L113.145 18.9023C113.423 19.581 113.099 20.3547 112.42 20.6289Z" fill="#AFEFEB"/>
<path d="M81.9959 31.7235C81.4536 31.9451 80.8339 31.6848 80.6085 31.1433L79.126 27.5073C78.9042 26.9657 79.1648 26.3468 79.707 26.1218C80.2493 25.9002 80.8691 26.1604 81.0945 26.702L82.5805 30.338C82.8023 30.8831 82.5418 31.502 81.9959 31.7235Z" fill="white"/>
<path d="M87.5151 29.4764C86.9728 29.6979 86.353 29.4377 86.1277 28.8962L84.6416 25.2601C84.4198 24.7186 84.6804 24.0997 85.2227 23.8746C85.765 23.6531 86.3847 23.9133 86.6101 24.4549L88.0961 28.0909C88.318 28.6324 88.0574 29.2549 87.5151 29.4764Z" fill="white"/>
<path d="M93.019 27.2258C92.4767 27.4473 91.8569 27.1871 91.6316 26.6456L90.1456 23.0095C89.9237 22.468 90.1843 21.8491 90.7266 21.624C91.2689 21.4025 91.8886 21.6627 92.114 22.2042L93.6 25.8403C93.8254 26.3853 93.5648 27.0043 93.019 27.2258Z" fill="white"/>
<path d="M98.5268 24.9788C97.9845 25.2003 97.3648 24.9401 97.1394 24.3986L95.6534 20.7625C95.4315 20.221 95.6921 19.6021 96.2344 19.377C96.7767 19.1555 97.3965 19.4157 97.6218 19.9572L99.1078 23.5933C99.3297 24.1383 99.0691 24.7572 98.5268 24.9788Z" fill="white"/>
<path d="M104.042 22.7318C103.5 22.9534 102.88 22.6931 102.655 22.1516L101.169 18.5156C100.947 17.974 101.208 17.3551 101.75 17.1301C102.292 16.9085 102.912 17.1687 103.137 17.7103L104.623 21.3463C104.849 21.8914 104.588 22.5103 104.042 22.7318Z" fill="white"/>
<path d="M109.546 20.4848C109.004 20.7063 108.384 20.4461 108.159 19.9045L106.673 16.2685C106.451 15.7269 106.712 15.108 107.254 14.883C107.796 14.6615 108.416 14.9217 108.641 15.4632L110.127 19.0993C110.349 19.6443 110.089 20.2632 109.546 20.4848Z" fill="white"/>
<path d="M166.751 70.1127L153.605 75.4929C149.83 77.0402 145.798 75.9888 144.45 73.158L144.246 72.6587L128.642 34.4133C128.079 33.0349 128.741 31.4595 130.125 30.8969L145.918 24.4687C147.302 23.9061 148.876 24.5707 149.443 25.9527L162.909 58.9619L164.673 63.2872L164.912 63.878L165.349 64.947L165.589 65.5378L166.687 68.2314C166.948 68.8573 166.951 69.5219 166.751 70.1127Z" fill="#AFEFEB"/>
<path d="M139.876 33.2423L139.904 33.2318C140.084 33.1579 140.292 33.2458 140.362 33.4252L154.835 68.8995C154.909 69.0788 154.821 69.2863 154.641 69.3566L154.613 69.3672C154.434 69.441 154.226 69.3531 154.155 69.1738L139.682 33.6994C139.609 33.5201 139.697 33.3162 139.876 33.2423Z" fill="#DDEBE9"/>
<path d="M132.331 36.5338C131.764 35.1413 132.433 33.5553 133.827 32.9892C135.222 32.423 136.81 33.0912 137.377 34.4837C137.944 35.8762 137.275 37.4622 135.88 38.0283C134.486 38.5945 132.898 37.9263 132.331 36.5338Z" fill="#FA6140"/>
<path d="M135.952 45.4269C135.385 44.0344 136.054 42.4485 137.448 41.8823C138.843 41.3162 140.431 41.9843 140.998 43.3768C141.565 44.7693 140.896 46.3553 139.501 46.9214C138.11 47.4876 136.519 46.8195 135.952 45.4269Z" fill="#FA6140"/>
<path d="M139.581 54.3204C139.014 52.9278 139.683 51.3419 141.077 50.7757C142.472 50.2096 144.06 50.8777 144.627 52.2702C145.194 53.6628 144.525 55.2487 143.13 55.8149C141.739 56.381 140.151 55.7129 139.581 54.3204Z" fill="#FA6140"/>
<path d="M147.076 64.5673C148.386 63.8254 148.845 62.1642 148.102 60.8568C147.359 59.5494 145.695 59.091 144.386 59.8329C143.077 60.5747 142.618 62.2359 143.361 63.5433C144.104 64.8507 145.767 65.3091 147.076 64.5673Z" fill="#FA6140"/>
<path d="M146.834 72.1067C146.268 70.7141 146.937 69.1282 148.331 68.5621C149.726 67.9959 151.314 68.664 151.881 70.0566C152.448 71.4491 151.779 73.035 150.384 73.6012C148.993 74.1673 147.401 73.4992 146.834 72.1067Z" fill="#FA6140"/>
<path d="M142.756 32.2859C142.189 30.8933 142.858 29.3074 144.253 28.7413C145.647 28.1751 147.236 28.8432 147.803 30.2358C148.369 31.6283 147.7 33.2142 146.306 33.7804C144.915 34.3465 143.323 33.6784 142.756 32.2859Z" fill="#FA6140"/>
<path d="M146.377 41.179C145.811 39.7864 146.48 38.2005 147.874 37.6343C149.269 37.0682 150.857 37.7363 151.424 39.1288C151.991 40.5214 151.321 42.1073 149.927 42.6735C148.533 43.2396 146.944 42.5715 146.377 41.179Z" fill="#FA6140"/>
<path d="M150.018 50.0723C149.451 48.6798 150.12 47.0939 151.515 46.5277C152.909 45.9615 154.497 46.6297 155.064 48.0222C155.631 49.4147 154.962 51.0007 153.568 51.5668C152.177 52.133 150.585 51.4649 150.018 50.0723Z" fill="#FA6140"/>
<path d="M156.984 60.5417C158.418 60.0847 159.21 58.5534 158.752 57.1214C158.295 55.6893 156.761 54.8988 155.327 55.3558C153.893 55.8128 153.101 57.3441 153.559 58.7762C154.017 60.2082 155.55 60.9987 156.984 60.5417Z" fill="#FA6140"/>
<path d="M157.268 67.8587C156.701 66.4662 157.37 64.8803 158.765 64.3141C160.159 63.748 161.747 64.4161 162.314 65.8086C162.881 67.2012 162.212 68.7871 160.818 69.3533C159.423 69.9194 157.835 69.2513 157.268 67.8587Z" fill="#FA6140"/>
<path d="M133.038 36.843C132.471 35.4505 133.14 33.8645 134.534 33.2984C135.929 32.7322 137.517 33.4004 138.084 34.7929C138.651 36.1854 137.982 37.7714 136.587 38.3375C135.196 38.9001 133.608 38.232 133.038 36.843Z" fill="#FFBDA8"/>
<path d="M136.659 45.7362C136.092 44.3437 136.761 42.7577 138.155 42.1916C139.55 41.6254 141.138 42.2936 141.705 43.6861C142.272 45.0786 141.603 46.6645 140.208 47.2307C138.814 47.7933 137.226 47.1252 136.659 45.7362Z" fill="#FFBDA8"/>
<path d="M140.299 54.6293C139.732 53.2368 140.401 51.6509 141.796 51.0847C143.19 50.5185 144.779 51.1867 145.345 52.5792C145.912 53.9717 145.243 55.5577 143.849 56.1238C142.458 56.6865 140.866 56.0183 140.299 54.6293Z" fill="#FFBDA8"/>
<path d="M143.92 63.5192C143.353 62.1266 144.023 60.5407 145.417 59.9745C146.811 59.4084 148.4 60.0765 148.967 61.469C149.534 62.8616 148.864 64.4475 147.47 65.0137C146.079 65.5798 144.491 64.9117 143.92 63.5192Z" fill="#FFBDA8"/>
<path d="M147.553 72.4123C146.986 71.0198 147.655 69.4338 149.05 68.8677C150.444 68.3015 152.032 68.9696 152.599 70.3622C153.166 71.7547 152.497 73.3406 151.103 73.9068C149.708 74.473 148.12 73.8048 147.553 72.4123Z" fill="#FFBDA8"/>
<path d="M143.475 32.5953C142.908 31.2027 143.577 29.6168 144.972 29.0506C146.366 28.4845 147.954 29.1526 148.521 30.5452C149.088 31.9377 148.419 33.5236 147.025 34.0898C145.634 34.6559 144.042 33.9878 143.475 32.5953Z" fill="#FFBDA8"/>
<path d="M147.108 41.4883C146.541 40.0958 147.21 38.5099 148.605 37.9437C149.999 37.3776 151.587 38.0457 152.154 39.4382C152.721 40.8307 152.052 42.4167 150.657 42.9828C149.267 43.549 147.675 42.8809 147.108 41.4883Z" fill="#FFBDA8"/>
<path d="M150.729 50.3818C150.162 48.9893 150.831 47.4034 152.226 46.8372C153.62 46.2711 155.208 46.9392 155.775 48.3317C156.342 49.7242 155.673 51.3102 154.279 51.8763C152.888 52.4425 151.299 51.7708 150.729 50.3818Z" fill="#FFBDA8"/>
<path d="M154.362 59.2748C153.795 57.8823 154.464 56.2964 155.858 55.7302C157.253 55.1641 158.841 55.8322 159.408 57.2247C159.975 58.6172 159.306 60.2032 157.911 60.7693C156.52 61.3355 154.929 60.6638 154.362 59.2748Z" fill="#FFBDA8"/>
<path d="M163.031 68.2106C163.615 66.8253 162.964 65.2293 161.577 64.6459C160.189 64.0625 158.591 64.7127 158.007 66.098C157.423 67.4834 158.074 69.0794 159.461 69.6627C160.848 70.2461 162.447 69.596 163.031 68.2106Z" fill="#FFBDA8"/>
<path d="M174.604 30.3872L166.674 86.7741C166.026 91.3912 162.66 94.7635 159.085 94.4576C158.987 94.4506 158.888 94.44 158.793 94.4259C158.687 94.4119 158.582 94.3943 158.476 94.3697C154.969 93.6594 152.676 89.5029 153.324 84.8998L161.255 28.5129C161.772 24.8276 164.022 21.9335 166.73 21.072C167.058 20.9665 167.396 20.8927 167.737 20.8505C167.984 20.8188 168.23 20.8048 168.48 20.8083C168.512 20.8083 168.544 20.8083 168.575 20.8118C168.766 20.8188 168.952 20.8329 169.139 20.861C169.329 20.8891 169.512 20.9243 169.695 20.97C169.727 20.9771 169.759 20.9841 169.787 20.9946C170.03 21.0615 170.262 21.1423 170.491 21.2373C170.808 21.3709 171.107 21.5362 171.396 21.7261C173.759 23.3015 175.122 26.7019 174.604 30.3872Z" fill="#DDEBE9"/>
<path d="M171.771 0.145143L172.306 0.218986C173.447 0.377228 174.243 1.43218 174.081 2.57152L171.013 24.3843L166.348 23.7302L169.415 1.91745C169.573 0.778108 170.63 -0.0130991 171.771 0.145143Z" fill="#DDEBE9"/>
<path d="M160.009 85.7505C159.248 85.645 158.716 84.9417 158.822 84.1787L167.914 19.528C167.918 19.5034 167.939 19.4893 167.963 19.4928L170.64 19.8691C170.664 19.8726 170.678 19.8937 170.675 19.9183L161.583 84.569C161.474 85.325 160.769 85.856 160.009 85.7505Z" fill="#DDEBE9"/>
<path d="M171.645 1.84011L171.962 1.88582C172.638 1.98077 173.106 2.60319 173.011 3.27484L170.511 21.0472C170.494 21.0612 170.487 21.0683 170.469 21.0788L167.786 20.7026C167.772 20.685 167.764 20.6779 167.754 20.6604L170.254 2.88803C170.346 2.21638 170.969 1.74516 171.645 1.84011Z" fill="#E93353"/>
<path d="M169.987 19.5145L168.676 19.3308L160.639 76.5289L161.95 76.7126L169.987 19.5145Z" fill="#E93353"/>
<path d="M163.419 34.1075C163.39 34.2974 163.309 34.4591 163.2 34.5717C163.091 34.6842 162.95 34.7405 162.809 34.7229L160.422 34.3888L160.616 33.0174L163.003 33.3515C163.288 33.3901 163.475 33.7277 163.419 34.1075Z" fill="#AFEFEB"/>
<path d="M162.176 42.9233C162.148 43.1132 162.067 43.275 161.958 43.3875C161.849 43.5 161.708 43.5563 161.567 43.5387L159.18 43.2046L159.373 41.8332L161.761 42.1673C162.046 42.2059 162.229 42.547 162.176 42.9233Z" fill="#AFEFEB"/>
<path d="M160.938 51.7393C160.91 51.9292 160.829 52.0909 160.72 52.2035C160.611 52.316 160.47 52.3723 160.329 52.3547L157.941 52.0206L158.135 50.6492L160.523 50.9832C160.808 51.0219 160.991 51.363 160.938 51.7393Z" fill="#AFEFEB"/>
<path d="M159.7 60.555C159.672 60.7449 159.591 60.9067 159.481 61.0192C159.372 61.1317 159.231 61.188 159.091 61.1704L156.703 60.8363L156.897 59.4649L159.284 59.799C159.57 59.8376 159.753 60.1788 159.7 60.555Z" fill="#AFEFEB"/>
<path d="M158.458 69.3744C158.429 69.5642 158.348 69.726 158.239 69.8385C158.13 69.9511 157.989 70.0073 157.848 69.9897L155.461 69.6557L155.655 68.2842L158.042 68.6183C158.327 68.657 158.51 68.9911 158.458 69.3744Z" fill="#AFEFEB"/>
<path d="M165.491 29.9019C165.463 30.0917 165.382 30.2535 165.273 30.366C165.16 30.4786 165.023 30.5348 164.882 30.5172L161.047 29.9792L161.241 28.6078L165.075 29.1458C165.357 29.1845 165.547 29.5256 165.491 29.9019Z" fill="#AFEFEB"/>
<path d="M157.037 78.1621C157.009 78.352 156.928 78.5138 156.819 78.6263C156.706 78.7388 156.569 78.7951 156.428 78.7775L154.23 78.4681L154.424 77.0966L156.621 77.4061C156.903 77.4448 157.093 77.7823 157.037 78.1621Z" fill="#AFEFEB"/>
<path d="M164.253 38.7177C164.224 38.9076 164.143 39.0694 164.034 39.1819C163.922 39.2944 163.784 39.3507 163.643 39.3331L159.809 38.7951L160.002 37.4236L163.837 37.9617C164.119 38.0003 164.305 38.3414 164.253 38.7177Z" fill="#AFEFEB"/>
<path d="M163.01 47.5335C162.982 47.7233 162.901 47.8851 162.792 47.9976C162.679 48.1102 162.542 48.1664 162.401 48.1488L158.566 47.6108L158.76 46.2394L162.595 46.7774C162.877 46.8161 163.063 47.1572 163.01 47.5335Z" fill="#AFEFEB"/>
<path d="M161.768 56.3528C161.74 56.5427 161.659 56.7044 161.55 56.817C161.437 56.9295 161.3 56.9857 161.159 56.9682L157.324 56.4301L157.518 55.0587L161.353 55.5967C161.634 55.6319 161.821 55.973 161.768 56.3528Z" fill="#AFEFEB"/>
<path d="M160.534 65.1686C160.506 65.3585 160.425 65.5203 160.315 65.6328C160.203 65.7453 160.065 65.8016 159.925 65.784L156.09 65.246L156.284 63.8746L160.118 64.4126C160.4 64.4513 160.587 64.7853 160.534 65.1686Z" fill="#AFEFEB"/>
<path d="M159.292 73.9845C159.263 74.1744 159.182 74.3361 159.073 74.4487C158.961 74.5612 158.823 74.6175 158.682 74.5999L154.848 74.0619L155.041 72.6904L158.876 73.2285C159.158 73.2671 159.344 73.6047 159.292 73.9845Z" fill="#AFEFEB"/>
<path d="M167.392 63.537C166.973 63.4772 166.681 63.0904 166.737 62.6719L171.336 29.9686C171.396 29.5501 171.784 29.2582 172.203 29.3145C172.622 29.3743 172.914 29.7611 172.858 30.1796L168.259 62.8829C168.199 63.3049 167.811 63.5967 167.392 63.537Z" fill="white"/>
<path d="M173.025 54.7072H38.9453V166.792H173.025V54.7072Z" fill="#DAE7DF"/>
<path d="M157.187 54.7072L156.021 155.732L140.988 166.792V54.7072H157.187Z" fill="black" fill-opacity="0.05"/>
<path d="M173.039 166.792L156.027 155.732L157.193 54.7072H173.039V166.792Z" fill="black" fill-opacity="0.05"/>
<path d="M140.988 166.792H173.033L156.021 155.732L140.988 166.792Z" fill="black" fill-opacity="0.2"/>
<path d="M86.7709 122.672V109.408H92.9298V122.672H106.212V128.823H92.9298V142.091H86.7709V128.823H73.4883V122.672H86.7709Z" fill="#006D35"/>
<path d="M69.4794 70.3388C71.2561 68.5645 71.256 65.6878 69.4793 63.9136C67.7025 62.1393 64.8218 62.1394 63.0451 63.9137C61.2684 65.688 61.2685 68.5647 63.0453 70.3389C64.822 72.1131 67.7027 72.1131 69.4794 70.3388Z" fill="black" fill-opacity="0.4"/>
<path d="M117.903 67.9949C118.383 65.5319 116.773 63.1466 114.306 62.6671C111.84 62.1876 109.451 63.7955 108.971 66.2584C108.491 68.7214 110.101 71.1067 112.567 71.5862C115.034 72.0658 117.422 70.4578 117.903 67.9949Z" fill="black" fill-opacity="0.4"/>
<path d="M89.8596 91.5141C75.8093 91.5141 64.3789 80.5743 64.3789 67.1272C64.3789 66.2903 65.0585 65.6116 65.8966 65.6116C66.7347 65.6116 67.4143 66.2903 67.4143 67.1272C67.4143 78.904 77.4855 88.4829 89.8631 88.4829C102.241 88.4829 112.312 78.904 112.312 67.1272C112.312 66.2903 112.992 65.6116 113.83 65.6116C114.668 65.6116 115.347 66.2903 115.347 67.1272C115.34 80.5743 103.91 91.5141 89.8596 91.5141Z" fill="#839D8D"/>
<path d="M6.5307 43.6794C6.54831 43.6864 6.56944 43.69 6.58705 43.69C6.62578 43.6864 6.66099 43.6583 6.6786 43.6196C6.74198 43.4614 6.80889 43.3031 6.87228 43.1414C6.72438 44.6816 7.32301 45.5502 8.80903 46.0495C11.9043 47.0939 21.1515 48.3774 28.7435 39.8816C25.8912 38.162 23.2713 33.0737 24.2362 28.5128C19.2358 23.6495 12.2529 23.8499 12.2529 23.8499C12.2529 23.8499 11.4149 22.8583 9.86897 22.9778C8.24562 22.9919 6.95327 23.6319 6.21378 24.8029C5.39682 26.097 4.84749 28.6394 6.86876 33.4113C8.62945 37.5642 7.58712 40.8099 6.47436 43.5247C6.44972 43.5845 6.47436 43.6548 6.5307 43.6794ZM8.51676 23.3963C7.39344 24.0609 6.09053 25.3058 5.72431 27.1589C5.80178 26.1673 6.07645 25.4464 6.40041 24.933C6.87932 24.1734 7.61176 23.653 8.51676 23.3963ZM7.94982 39.1959C8.16462 37.4482 8.00264 35.5071 7.073 33.3128C6.69269 32.4126 6.40394 31.5932 6.19265 30.8513C6.47084 31.5264 6.85467 32.2438 7.37584 33.0104C8.6224 34.839 8.49211 37.1317 7.94982 39.1959Z" fill="black"/>
<path d="M9.36328 145.946L11.5923 155.834L14.9271 155.813L15.0503 145.946H9.36328Z" fill="#FFBDA8"/>
<path d="M37.4336 146.364L43.7721 155.834L46.2441 152.49L42.4269 145.063L37.4336 146.364Z" fill="#FFBDA8"/>
<path d="M45.646 150.327C45.646 150.327 44.0086 150.626 42.667 150.732C42.3676 150.756 42.0859 150.77 41.8359 150.77C41.188 150.77 40.0224 150.514 39.2407 150.32L39.1808 150.306C38.8357 150.222 38.5751 150.152 38.4765 150.123L38.4343 150.113C38.4343 150.113 30.2717 140.534 25.6939 125.181C25.5883 124.822 25.4756 124.464 25.3559 124.098C22.8487 116.397 17.6546 106.73 14.9185 97.9809C14.4819 96.5884 14.091 95.2767 13.7424 94.0354C13.6297 93.638 13.5205 93.2477 13.4149 92.8644C11.3971 85.4763 10.8126 80.627 10.2773 75.4437L26.7327 79.8569C26.7363 79.8569 33.6452 111.431 45.646 150.327Z" fill="#839D8D"/>
<path d="M11.4779 155.282C11.4779 155.282 11.7455 157.241 11.0518 159.337C11.0518 159.337 10.506 161.96 12.9569 162.009C15.4078 162.058 16.0099 161.816 15.7317 160.205C15.4536 158.598 14.9253 155.817 14.9253 155.817L11.4779 155.282Z" fill="#FFBDA8"/>
<path d="M11.0553 159.337C11.0553 159.337 10.6011 161.812 10.8792 163.131C10.8792 163.131 11.6187 163.715 13.4005 163.715C15.0873 163.715 15.9676 163.131 15.9676 163.131C15.9676 163.131 16.0205 160.416 15.5697 159.27C15.5662 159.27 13.8302 162.016 11.0553 159.337Z" fill="#250E01"/>
<path d="M52.1476 160.469C52.1476 160.469 47.6296 155.184 46.2422 152.494L42.8828 154.308L50.3939 161.742L52.1511 161.499L52.1476 160.469Z" fill="#FFBDA8"/>
<path d="M55.0138 163.567C55.0138 163.567 50.1578 163.567 49.3268 163.469C48.4957 163.374 47.8231 162.104 46.9217 160.202C46.5519 159.425 45.7244 158.996 44.8757 158.76V163.163H43.594L42.3791 158.482C41.5797 156.931 42.3157 155.528 42.8791 154.305C43.5341 154.305 45.2948 154.776 48.6331 158.739C49.7317 160.04 50.9431 160.504 52.1439 160.465C52.1615 160.476 52.1756 160.487 52.1932 160.494C54.968 161.812 55.0138 163.567 55.0138 163.567Z" fill="#250E01"/>
<path d="M16.6327 120.796C16.682 127.621 16.3545 143.315 15.5129 149.81C15.5129 149.81 14.7135 150.556 12.731 150.566C10.6992 150.577 9.79066 149.786 9.79066 149.786C7.67431 138.491 6.17068 129.144 5.07201 121.088C4.17406 114.48 3.37471 108.812 2.75847 103.934C2.21265 99.6125 1.81474 95.9061 1.62106 92.7132C1.59641 92.2806 1.57176 91.8551 1.55416 91.4402C1.52951 90.8916 1.5119 90.3606 1.50134 89.8472C1.49077 89.3268 1.49077 88.8239 1.49429 88.3316L1.56472 88.3246L5.65304 87.9061L18.5695 86.5769C18.3582 98.5365 16.6045 116.829 16.6327 120.796Z" fill="#839D8D"/>
<path d="M16.1094 43.7918C16.1094 43.7918 22.7472 42.6806 24.9762 45.0191C27.7053 47.8815 32.8324 64.3 32.6317 66.1742C32.5542 66.8881 29.8604 66.5575 28.9342 65.5378C24.3318 60.4459 17.7292 47.6002 16.1094 43.7918Z" fill="#FCF4AE"/>
<path d="M29.0063 89.6328C24.0517 90.9902 0.926828 93.6698 0.72611 87.5651C0.67681 86.0741 0.726107 84.2772 0.838791 82.3291C1.18389 76.2983 2.12409 68.8469 2.57131 64.7466C2.77907 62.8688 2.0924 54.4468 2.61709 49.8613C2.69456 49.1827 2.79668 48.5848 2.93753 48.1066C3.9376 44.6464 8.42384 43.7075 10.7268 43.6231L17.678 43.3734C17.678 43.3734 24.8581 51.8271 25.8547 54.4257C26.8547 57.0244 27.1787 65.9141 27.9569 70.2183C28.7387 74.5225 31.4184 88.9753 29.0063 89.6328Z" fill="#FCF4AE"/>
<path d="M15.3514 69.0015C15.3514 69.0015 11.4885 81.5132 0.839844 82.3326C1.18494 76.3018 2.12515 68.8503 2.57236 64.7501C2.78012 62.8723 2.09345 54.4503 2.61814 49.8648C2.75547 49.8965 2.88224 49.9773 3.02662 50.0055C14.7528 52.3897 16.4149 66.3923 15.3514 69.0015Z" fill="#FFE86E"/>
<path d="M32.3005 66.4802C32.3005 66.4802 25.3211 68.8925 16.8205 65.0244C16.8205 65.0244 14.5034 64.7923 13.3555 65.1017C13.3555 65.1017 13.602 62.6789 14.7253 62.0213C15.8486 61.3637 20.6834 62.7879 22.1272 62.5769C25.2859 62.1198 30.7863 61.7646 32.3005 66.4802Z" fill="#FFBDA8"/>
<path d="M26.0791 60.8468C26.0791 60.8468 26.7341 54.8688 24.5156 51.2644C24.5156 51.2644 25.3009 50.983 25.8608 51.9184C26.4242 52.8538 30.3435 61.7329 28.4772 62.387C26.6073 63.0446 26.0791 60.8468 26.0791 60.8468Z" fill="#FFE86E"/>
<path d="M15.8883 61.8455C15.7897 61.8455 12.5923 62.285 12.0254 62.707C11.4584 63.129 11.9585 64.6024 13.0254 64.7431C14.0924 64.8837 15.8883 61.8455 15.8883 61.8455Z" fill="#FFBDA8"/>
<path d="M7.15234 64.1101C7.15234 64.1101 16.2551 63.7584 24.5127 62.074C24.5127 62.074 26.0234 62.0881 25.8438 63.4771C25.6677 64.8661 11.5329 72.6446 8.42708 71.1466L7.15234 64.1101Z" fill="#FFBDA8"/>
<path d="M24.5117 62.0775C24.5117 62.0775 25.4766 60.8503 26.0752 60.8503C26.6738 60.8503 28.2409 61.6591 28.4733 62.394C28.7057 63.1325 26.621 62.605 25.8428 63.4806C25.0646 64.3562 24.5117 62.0775 24.5117 62.0775Z" fill="#FFBDA8"/>
<path d="M10.7283 43.6266C10.7283 43.6266 3.07988 43.6442 1.96009 46.5418C-0.0823125 51.8306 6.64704 69.3708 8.42533 71.1501C9.18947 71.9132 12.7249 70.7106 12.7249 65.6574C12.7249 63.0341 12.5489 47.7268 10.7283 43.6266Z" fill="#FCF4AE"/>
<path d="M18.1233 46.2744C18.1515 46.2885 15.4471 47.7689 13.4152 47.1817C11.5031 46.6331 10.2531 44.0168 10.2777 44.0098C11.0876 43.841 11.144 40.0643 11.1264 35.0217L12.4152 36.801L17.8275 38.9848C17.8275 38.9848 17.6867 41.0278 17.6832 42.9514C17.6796 44.5689 17.7747 46.1021 18.1233 46.2744Z" fill="#FFBDA8"/>
<path d="M17.567 41.3724C17.567 42.4801 16.8804 43.9008 15.4613 43.9008C14.0421 43.9008 13.3555 38.2885 13.3555 37.1843C13.3555 36.0766 13.5773 39.3716 14.9964 39.3716C16.4155 39.368 17.567 40.2647 17.567 41.3724Z" fill="#FFBDA8"/>
<path d="M10.841 30.7808C10.8269 35.3768 10.7248 37.3249 12.7742 39.8252C15.8554 43.5878 21.215 42.6032 22.5355 38.1021C23.7222 34.0511 23.5496 27.215 19.4085 25.1016C15.3307 23.0199 10.8551 26.1847 10.841 30.7808Z" fill="#FFBDA8"/>
<path d="M14.5403 26.4028C15.7376 28.2736 23.1325 29.8174 26.5165 29.1914C26.5165 29.1914 25.4601 28.7589 25.0693 28.3264C24.9108 26.7756 24.5551 23.3892 22.136 21.7224C18.1991 19.0112 14.5192 19.7743 12.3219 20.7167C11.0436 21.2653 10.1281 22.4714 9.84987 23.8956L9.69141 24.7079L14.5403 26.4028Z" fill="black"/>
<path d="M12.8604 25.056L14.8851 25.9527C14.8851 25.9527 16.8747 32.8169 10.7616 33.3584C10.7616 33.3584 10.0785 26.4133 12.8604 25.056Z" fill="black"/>
<path d="M9.36579 34.1989C9.5489 35.1237 10.1123 35.8903 10.725 36.3264C11.6476 36.9804 12.4153 36.2103 12.4188 35.1097C12.4188 34.118 11.9399 32.5848 10.8905 32.3703C9.85526 32.1593 9.1545 33.1404 9.36579 34.1989Z" fill="#FFBDA8"/>
</svg>
