<svg width="231" height="250" viewBox="0 0 231 250" fill="none" xmlns="http://www.w3.org/2000/svg">
<path d="M121.501 101.177H120.648V189.147H121.501V101.177Z" fill="#F3F3F3"/>
<path d="M130.088 90.3235H121.059V92.6176H130.088V90.3235Z" fill="white"/>
<path d="M128.294 94.5588H121.059V96.853H128.294V94.5588Z" fill="white"/>
<path d="M130.973 194.353H121.473V197.412H130.973V194.353Z" fill="white"/>
<path d="M97.7943 101.177H96.9414V189.147H97.7943V101.177Z" fill="#F3F3F3"/>
<path d="M157.412 101.177H156.559V189.147H157.412V101.177Z" fill="#F3F3F3"/>
<path d="M113.472 90.3235H96.707V92.6176H113.472V90.3235Z" fill="white"/>
<path d="M107.413 94.5588H96.707V96.853H107.413V94.5588Z" fill="white"/>
<path d="M167.793 90.3235H157.41V92.6176H167.793V90.3235Z" fill="white"/>
<path d="M169.528 94.5588H157.41V96.853H169.528V94.5588Z" fill="white"/>
<path d="M106.852 194.353H97.3516V197.412H106.852V194.353Z" fill="white"/>
<path d="M166.91 194.353H157.41V197.412H166.91V194.353Z" fill="white"/>
<path d="M82.6464 201.912H166.44C172.235 201.912 176.911 197.235 176.911 191.441V73.7941C176.911 68 172.235 63.3235 166.44 63.3235H82.6464C76.8523 63.3235 72.1758 68 72.1758 73.7941V191.441C72.1758 197.235 76.8523 201.912 82.6464 201.912Z" fill="black" fill-opacity="0.4"/>
<path d="M170.736 48.0883H85.4122C81.5299 48.0883 78.3828 51.2353 78.3828 55.1177V196.059H170.736V48.0883Z" fill="#DAE7DF"/>
<path d="M162.118 75.7941H134.883V79.2352H162.118V75.7941Z" fill="#839D8D"/>
<path d="M159.883 90.2354H134.883V93.6765H159.883V90.2354Z" fill="#839D8D"/>
<path d="M156.5 83H134.883V86.4412H156.5V83Z" fill="#839D8D"/>
<path d="M105.676 97.8824C102.587 97.8824 99.5873 97.2353 96.8226 95.9706C89.1755 92.5 84.2344 84.8235 84.2344 76.4412C84.2344 64.6176 93.852 55 105.676 55C117.499 55 127.117 64.6176 127.117 76.4412C127.117 84.8235 122.176 92.5 114.528 95.9706C111.764 97.2353 108.764 97.8824 105.676 97.8824ZM105.676 56.1176C94.4697 56.1176 85.352 65.2353 85.352 76.4412C85.352 84.3824 90.0285 91.6471 97.2638 94.9412C99.9108 96.1471 102.734 96.7647 105.646 96.7647C108.587 96.7647 111.411 96.1471 114.028 94.9412C121.264 91.6471 125.94 84.3824 125.94 76.4412C125.999 65.2059 116.881 56.1176 105.676 56.1176Z" fill="#006D35"/>
<path d="M115.528 106.5H84.2344V109.559H115.528V106.5Z" fill="#839D8D"/>
<path d="M115.528 114.765H84.2344V117.823H115.528V114.765Z" fill="#839D8D"/>
<path d="M115.528 123.029H84.2344V126.088H115.528V123.029Z" fill="#839D8D"/>
<path d="M127.149 106.5H121.914V109.559H127.149V106.5Z" fill="#839D8D"/>
<path d="M127.149 114.765H121.914V117.823H127.149V114.765Z" fill="#839D8D"/>
<path d="M127.149 123.029H121.914V126.088H127.149V123.029Z" fill="#839D8D"/>
<path d="M184.031 198.353H147.649C140.443 198.353 134.59 192.5 134.59 185.294V116.471C134.59 109.265 140.443 103.412 147.649 103.412H184.031C191.237 103.412 197.09 109.265 197.09 116.471V185.294C197.09 192.5 191.237 198.353 184.031 198.353Z" fill="#E8F4F2"/>
<path d="M189.794 117.529C188.265 113.235 184.176 110.618 179.853 110.735C178.794 110.765 177.765 110.971 176.706 111.323C173.559 112.441 171.324 114.941 170.382 117.912C169.735 119.971 169.735 122.235 170.529 124.412C170.618 124.618 170.676 124.853 170.794 125.059C171.206 126 171.735 126.853 172.382 127.618C175.059 130.765 179.5 132.088 183.618 130.618C188.912 128.706 191.677 122.853 189.794 117.529ZM182.735 128.206C179.647 129.323 176.324 128.323 174.294 125.941C173.824 125.382 173.412 124.735 173.118 124.029C173.059 123.882 173 123.706 172.941 123.559C172.353 121.912 172.353 120.235 172.853 118.676C173.559 116.471 175.235 114.588 177.588 113.735C178.353 113.471 179.147 113.323 179.941 113.294C183.177 113.206 186.235 115.176 187.382 118.382C188.794 122.382 186.735 126.765 182.735 128.206Z" fill="#1F415B"/>
<path d="M172.824 118.706L170.383 117.941C171.295 114.971 173.559 112.471 176.706 111.353C177.736 110.971 178.795 110.794 179.853 110.765L179.942 113.323C179.148 113.353 178.353 113.5 177.589 113.765C175.206 114.588 173.53 116.471 172.824 118.706Z" fill="white"/>
<path d="M173.117 124.029L170.764 125.059C170.676 124.853 170.588 124.647 170.5 124.412C169.735 122.235 169.735 119.971 170.353 117.912L172.794 118.676C172.323 120.206 172.323 121.912 172.882 123.559C172.97 123.735 173.058 123.882 173.117 124.029Z" fill="white"/>
<path d="M172.354 127.618C171.707 126.853 171.177 126 170.766 125.059L173.119 124.029C173.413 124.735 173.824 125.382 174.295 125.941L172.354 127.618Z" fill="white"/>
<path d="M180.061 176.912H174.531V195H180.061V176.912Z" fill="#1F415B"/>
<path d="M171.885 181.971H166.355V194.971H171.885V181.971Z" fill="#1F415B"/>
<path d="M188.029 168.529H182.5V195H188.029V168.529Z" fill="#1F415B"/>
<path d="M142.941 177.058L142.441 176.654L151.441 164.306L162.53 164.958L170.912 150.904L179.912 149.911L185.324 138.618L185.853 138.897L180.294 150.531L171.265 151.493L162.853 165.609L151.736 164.989L142.941 177.058Z" fill="#1F415B" stroke="#1F415B" stroke-width="0.5"/>
<path d="M159.941 116.882H144.236C143.236 116.882 142.441 116.088 142.441 115.088C142.441 114.088 143.236 113.294 144.236 113.294H159.912C160.912 113.294 161.706 114.088 161.706 115.088C161.736 116.088 160.912 116.882 159.941 116.882ZM159.941 123.147H144.236C143.236 123.147 142.441 122.353 142.441 121.353C142.441 120.353 143.236 119.559 144.236 119.559H159.912C160.912 119.559 161.706 120.353 161.706 121.353C161.736 122.353 160.912 123.147 159.941 123.147ZM159.941 129.412H144.236C143.236 129.412 142.441 128.618 142.441 127.618C142.441 126.618 143.236 125.823 144.236 125.823H159.912C160.912 125.823 161.706 126.618 161.706 127.618C161.736 128.588 160.912 129.412 159.941 129.412Z" fill="#1F415B"/>
<path d="M108.467 64.6765H102.879V88.1765H108.467V64.6765Z" fill="#006D35"/>
<path d="M117.418 79.2186V73.6304H93.918V79.2186H117.418Z" fill="#006D35"/>
<path d="M41.9159 89.8235C45.7657 89.8235 48.8865 84.3324 48.8865 77.5588C48.8865 70.7852 45.7657 65.2941 41.9159 65.2941C38.0662 65.2941 34.9453 70.7852 34.9453 77.5588C34.9453 84.3324 38.0662 89.8235 41.9159 89.8235Z" fill="black"/>
<path d="M45.3828 107.029C45.3828 107.029 50.0005 107.765 51.2358 105.706L51.2652 96.5588C49.5299 97.2353 47.6769 97.6471 45.9122 97.7059L45.3828 107.029Z" fill="#FFBDA8"/>
<path d="M46.2964 90.6471L45.9141 97.6765C47.7082 97.6176 51.0317 96.9118 52.767 96.2059L51.3258 86.5L46.2964 90.6471Z" fill="#FCF4AE"/>
<path d="M53.2073 122.971C54.4131 122.588 55.619 122.059 56.4426 121.147L55.8249 119.323C54.619 120.029 53.4426 120.412 52.1484 120.853L53.2073 122.971Z" fill="white"/>
<path d="M45.3828 107.029L52.1769 120.882C53.4416 120.471 54.6475 120.059 55.8534 119.353L51.2652 105.706C48.9122 105.706 45.3828 107.029 45.3828 107.029Z" fill="#FFBDA8"/>
<path d="M59.8845 129.059C59.8551 129.265 59.8257 129.5 59.708 129.676C59.5904 129.853 59.3845 130.029 59.1786 130C58.9139 129.971 58.708 129.735 58.6492 129.471C58.5904 129.206 58.6198 128.941 58.6492 128.676C58.7374 127.765 58.561 126.853 58.208 126.029C58.0022 125.618 57.7669 125.206 57.6492 124.765C57.208 123.206 58.9433 122.5 59.4727 124.118C59.9727 125.735 60.0904 127.441 59.8845 129.059Z" fill="white"/>
<path d="M58.3533 129.559C58.3238 129.765 58.2944 130 58.1768 130.176C58.0591 130.353 57.8533 130.529 57.6474 130.5C57.3827 130.471 57.1768 130.235 57.118 129.971C57.0591 129.706 57.0886 129.441 57.118 129.176C57.2062 128.265 57.0297 127.353 56.6768 126.529C56.4709 126.118 56.2356 125.706 56.118 125.265C55.6768 123.706 57.4121 123 57.9415 124.618C58.4415 126.235 58.5591 127.941 58.3533 129.559Z" fill="white"/>
<path d="M56.9431 128.971C56.9137 129.176 56.8843 129.412 56.7666 129.588C56.649 129.765 56.4431 129.941 56.2372 129.912C55.9725 129.882 55.7666 129.647 55.7078 129.382C55.649 129.118 55.6784 128.853 55.7078 128.588C55.796 127.676 55.6196 126.765 55.2666 125.941C55.0607 125.529 54.8255 125.118 54.7078 124.676C54.2666 123.118 56.0019 122.412 56.5313 124.029C57.0313 125.618 57.149 127.353 56.9431 128.971Z" fill="white"/>
<path d="M55.5908 127.912C55.5613 128.088 55.5319 128.265 55.4437 128.412C55.3555 128.559 55.179 128.676 55.0025 128.676C54.7966 128.676 54.6202 128.47 54.5613 128.265C54.5025 128.059 54.5319 127.823 54.5613 127.618C54.6202 126.882 54.5025 126.147 54.179 125.47C54.0319 125.118 53.826 124.794 53.7084 124.441C53.3555 123.176 54.7672 122.588 55.2084 123.912C55.6496 125.176 55.7378 126.588 55.5908 127.912Z" fill="white"/>
<path d="M59.3855 123.971C58.9149 123.088 58.5914 122.588 57.9149 121.853C57.2385 121.118 56.2973 120.559 55.2679 120.529C54.2679 120.5 53.209 121.118 52.9443 122.088C52.7679 122.676 52.8855 123.294 53.1208 123.853C53.6208 125 54.6502 125.882 55.8561 126.176C57.062 126.471 58.4149 126.176 59.3855 125.412V123.971Z" fill="white"/>
<path d="M59.1801 126.559C58.1507 126.5 57.8272 125.471 57.6213 124.618C57.5919 124.529 57.533 124.471 57.4448 124.471C56.7683 124.5 56.0624 124.206 55.6213 123.706C55.1801 123.235 55.033 122.647 54.9742 122C54.9742 121.912 54.8566 121.941 54.8272 122C54.6801 122.706 54.9742 123.441 55.4448 123.971C55.9448 124.5 56.6213 124.794 57.3272 124.794C57.5624 125.706 58.033 127 59.1801 126.853C59.3566 126.853 59.3566 126.588 59.1801 126.559Z" fill="black" fill-opacity="0.4"/>
<path d="M45.383 123.176C46.7066 121.588 47.8242 119.941 48.0007 118.706L30.2948 115.441C29.736 116.882 29.2654 118.353 28.8242 119.824C34.1772 121.853 39.7948 123.265 45.383 123.176Z" fill="#FCF4AE"/>
<path d="M42.8828 184.882C43.0299 186.294 43.1769 187.529 43.324 188.559H46.1181C46.2946 187.412 46.4416 186.176 46.6181 184.882H42.8828Z" fill="#FFBDA8"/>
<path d="M42.8256 188.118L46.5021 188.029C47.5315 189.088 53.6785 190.441 54.0315 191.853H41.9727C42.0903 190.588 42.3844 189.324 42.8256 188.118Z" fill="#250E01"/>
<path d="M54.0317 191.853C54.0611 192 54.0905 192.118 54.1199 192.265C54.1494 192.471 54.0023 192.677 53.767 192.677H42.267C42.0611 192.677 41.9141 192.5 41.9141 192.294C41.9141 192.147 41.9435 192 41.9435 191.824H54.0317V191.853Z" fill="#250E01"/>
<path d="M51.7958 117.588C54.3252 126.412 54.0311 138.088 53.0899 147.235C52.0016 157.941 49.8252 175 47.0605 185.412H42.5016L39.884 128.618C39.884 128.618 37.9428 121.882 38.4134 118.735C44.0016 118.794 46.4722 119.588 51.7958 117.588Z" fill="#839D8D"/>
<path d="M33.2969 184.882C33.4439 186.294 33.591 187.529 33.7381 188.559H36.5322C36.7086 187.412 36.8557 186.176 37.0322 184.882H33.2969Z" fill="#FFBDA8"/>
<path d="M37.0595 188.118L33.383 188.029C32.3536 189.088 30.6772 190.441 30.3242 191.853H37.9125C37.7948 190.588 37.5007 189.324 37.0595 188.118Z" fill="#250E01"/>
<path d="M30.3263 191.853C30.2969 192 30.2675 192.118 30.2381 192.265C30.2087 192.471 30.3558 192.677 30.591 192.677H37.6205C37.8263 192.677 37.9734 192.5 37.9734 192.294C37.9734 192.147 37.944 192 37.944 191.824H30.3263V191.853Z" fill="#250E01"/>
<path d="M28.8536 119.853C26.3242 128.677 26.0006 138.088 26.9418 147.235C28.03 157.941 30.2065 175 32.9712 185.412H37.53L40.1477 128.618C40.1477 128.618 43.0889 125.971 45.4124 123.206C39.7947 123.265 34.1771 121.853 28.8536 119.853Z" fill="#839D8D"/>
<path d="M32.5911 159.441C32.5028 159.294 32.3558 159.176 32.2087 159.059C32.0616 158.941 31.944 158.824 31.7969 158.676C31.5322 158.412 31.2675 158.147 31.0322 157.853C30.5616 157.265 30.1499 156.618 29.8263 155.971C29.7675 155.853 29.5911 155.941 29.6205 156.059C29.8852 156.794 30.2969 157.441 30.7675 158.059C31.0028 158.353 31.2381 158.647 31.5322 158.912C31.6793 159.059 31.8263 159.206 31.9734 159.324C32.0911 159.441 32.2675 159.559 32.444 159.618C32.5616 159.647 32.6499 159.529 32.5911 159.441ZM32.0028 160C31.944 159.941 31.9146 159.882 31.8558 159.853C31.7381 159.735 31.6205 159.647 31.5322 159.529C31.2969 159.324 31.0911 159.118 30.8558 158.912C30.7675 158.824 30.6499 158.941 30.7381 159.029C30.944 159.265 31.1499 159.5 31.3558 159.706C31.4734 159.824 31.5616 159.912 31.6793 160.029C31.7381 160.088 31.7969 160.147 31.8263 160.176C31.8852 160.235 31.944 160.294 32.0616 160.294C32.0911 160.294 32.1205 160.265 32.1205 160.235C32.1205 160.118 32.0616 160.059 32.0028 160Z" fill="#FCF4AE"/>
<path d="M48.7385 106.706C48.7679 100.147 51.062 93.6764 51.3267 87.1176C51.3562 86.4117 51.062 85.7058 50.5032 85.2646C49.0326 84.0587 47.7385 83.3234 45.7091 82.7352C44.3856 82.3529 43.0032 82.147 41.6797 82.0882C40.2679 82.0587 38.915 82.3234 37.5914 82.7646C35.8856 83.3823 34.2385 84.3529 32.7385 85.4411C31.9738 85.9999 31.6209 87.0293 31.915 87.9705C33.6209 93.4117 35.0326 98.9999 34.7679 104.676C34.3856 112.118 30.6209 112.471 28.6797 119.235C36.2091 122.618 44.8856 122.265 53.1503 120.706C52.6797 117.382 48.7385 110.265 48.7385 106.706Z" fill="#FCF4AE"/>
<path d="M45.7075 82.7058C45.4134 85.3235 44.7369 87.8235 43.8251 90.2058C43.5016 91.0587 42.6193 91.2352 42.1193 90.5293C40.3546 88.0587 39.1193 85.2646 37.5898 82.7646C38.9134 82.3234 40.2663 82.0587 41.6781 82.0882C43.031 82.1176 44.384 82.3235 45.7075 82.7058Z" fill="white"/>
<path d="M39.2969 74.7646C39.6498 77.4705 39.7969 80.2352 39.7675 82.9705C39.7675 83.5294 39.9733 84.0588 40.2969 84.3529C41.2086 85.1764 42.3263 85.4705 43.3263 85.1764C43.8263 85.0294 44.1498 84.2941 44.0616 83.5294C43.8263 81.7646 43.6792 80.0882 43.591 78.2647C42.4145 76.4705 40.9145 75.4117 39.2969 74.7646Z" fill="#FFBDA8"/>
<path opacity="0.15" d="M43.5616 78.2941C42.4145 76.4705 40.9145 75.4117 39.2969 74.7941C39.3851 75.4999 39.4733 76.2352 39.5322 76.9411C40.6498 79.147 42.2086 81.3235 43.9145 82.3235C43.7381 80.9999 43.6498 79.6764 43.5616 78.2941Z" fill="black"/>
<path d="M48.5598 70.9411C48.501 75.2646 46.2657 79.794 45.1481 79.7058C41.4128 79.3823 39.8539 75.4411 39.8245 75.4117C39.8245 75.4705 39.2363 75.6176 38.8834 75.6176C38.5598 75.5882 38.1186 75.2058 37.9422 74.9411C37.5892 74.4117 37.2363 73.6176 37.6186 73.0293C38.0598 72.3235 39.3245 72.2352 39.7363 73.0588C41.3539 71.2058 40.6775 69.8823 41.001 68.3235C43.1186 67.3529 45.5598 67.3235 47.8245 68.0588C48.2069 68.1176 48.5598 70.5293 48.5598 70.9411Z" fill="#FFBDA8"/>
<path d="M43.442 71.4706C41.795 72.5882 39.7362 73.0882 37.7362 72.8235C37.3244 70.6176 36.7068 67.6764 38.5597 66.4117C39.9715 65.4412 43.9715 62.7941 45.6773 63.147C47.5597 63.5294 48.5009 67.0294 47.8244 68.0294C47.2656 68.8235 44.2656 70.8823 43.442 71.4706Z" fill="black"/>
<path d="M45.6209 86.5C45.4738 86.9412 45.3267 87.3529 45.1797 87.7941C45.0032 88.2353 44.8267 88.6765 44.6209 89.0882C44.4444 89.5 44.2385 89.8823 44.0326 90.2647C43.8562 90.5882 43.6797 90.9412 43.3856 91.2059C43.0915 91.4706 42.7091 91.5588 42.3267 91.3824C41.9738 91.2353 41.7091 90.9118 41.5032 90.6176C40.9444 89.8824 40.5032 89.0588 40.0032 88.2941C39.415 87.3824 38.8562 86.4706 38.2091 85.5882C38.2091 85.5588 38.1797 85.5882 38.1797 85.6176C38.7091 86.5588 39.2973 87.4412 39.8562 88.3529C40.1503 88.7941 40.415 89.2353 40.7091 89.6765C40.9444 90.0588 41.1797 90.4706 41.4444 90.8235C41.8562 91.3529 42.5032 91.8823 43.2091 91.5588C43.5326 91.4118 43.7679 91.1471 43.9444 90.8529C44.2091 90.4706 44.415 90.0294 44.6209 89.6176C44.8562 89.1176 45.0326 88.6176 45.2091 88.1176C45.3856 87.5882 45.5915 87.0588 45.6797 86.5294C45.7091 86.4706 45.6209 86.4412 45.6209 86.5Z" fill="#E4B819"/>
<path d="M49.4986 92.6471H44.3516V95.0294H49.4986V92.6471Z" fill="white"/>
<path d="M47.9968 92.4117H45.8203V92.8235H47.9968V92.4117Z" fill="#E4B819"/>
<path d="M50.1809 91.1176C50.1809 91.0882 50.1515 91.0882 50.1515 91.1176C50.1515 91.5 50.2103 91.9118 50.2397 92.2941C50.2692 92.6765 50.2986 93.0882 50.2986 93.4706C50.2986 94.2647 50.2397 95.0882 50.0927 95.8529C49.975 96.6176 49.7692 97.3824 49.5045 98.1471C49.3574 98.5294 49.2103 98.9118 49.0339 99.2941C48.8868 99.6471 48.6809 99.9706 48.5633 100.324C48.5339 100.382 48.6515 100.441 48.6809 100.382C49.0339 99.9118 49.2986 99.3235 49.5045 98.7647C49.7397 98.1765 49.9456 97.5588 50.0927 96.9412C50.3868 95.7353 50.5339 94.4706 50.5045 93.2059C50.5045 92.5294 50.475 91.7353 50.1809 91.1176Z" fill="#E4B819"/>
<path d="M51.1514 93.0294C51.0632 93.1177 50.975 93.2353 50.8867 93.353C50.7985 93.4706 50.7397 93.5883 50.6808 93.7059C50.5632 93.9412 50.4161 94.2059 50.3867 94.4706C50.3867 94.5294 50.4455 94.5588 50.475 94.5C50.5338 94.3824 50.5926 94.2647 50.6514 94.1471C50.7103 94.0294 50.7691 93.9118 50.8279 93.7941C50.8867 93.6765 50.975 93.5588 51.0338 93.4706C51.122 93.353 51.1808 93.2647 51.2397 93.1471C51.2985 93.0294 51.2102 92.9706 51.1514 93.0294Z" fill="#E4B819"/>
<path d="M37.269 117.735C37.4161 117.912 37.5631 118.088 37.622 118.294C37.6808 118.5 37.6514 118.765 37.5043 118.912C37.3278 119.088 37.0043 119.088 36.769 118.941C36.5337 118.824 36.3572 118.618 36.1808 118.412C35.5631 117.735 34.769 117.235 33.9161 116.971C33.4749 116.824 33.0043 116.735 32.5925 116.529C31.1514 115.824 31.769 114.059 33.3572 114.765C34.8572 115.441 36.2102 116.529 37.269 117.735Z" fill="white"/>
<path d="M36.6518 119.206C36.7989 119.382 36.9459 119.559 37.0048 119.765C37.0636 119.971 37.0342 120.235 36.8871 120.382C36.7106 120.559 36.3871 120.559 36.1518 120.412C35.9165 120.294 35.7401 120.088 35.5636 119.882C34.9459 119.206 34.1518 118.706 33.2989 118.441C32.8577 118.294 32.3871 118.206 31.9754 118C30.5342 117.294 31.1518 115.529 32.7401 116.235C34.2106 116.882 35.5636 117.971 36.6518 119.206Z" fill="white"/>
<path d="M35.2378 119.853C35.3848 120.029 35.5319 120.206 35.5907 120.412C35.6495 120.618 35.6201 120.882 35.4731 121.029C35.2966 121.206 34.9731 121.206 34.7378 121.059C34.5025 120.941 34.326 120.735 34.1495 120.529C33.5319 119.853 32.7378 119.353 31.8848 119.088C31.4436 118.941 30.9731 118.853 30.5613 118.647C29.1201 117.941 29.7378 116.176 31.326 116.882C32.7966 117.559 34.1789 118.618 35.2378 119.853Z" fill="white"/>
<path d="M33.5322 120.147C33.6498 120.294 33.7675 120.412 33.8263 120.588C33.8851 120.765 33.8557 120.971 33.7381 121.088C33.591 121.235 33.3263 121.235 33.1498 121.118C32.9734 121 32.8263 120.853 32.6792 120.676C32.1792 120.147 31.5322 119.735 30.8263 119.5C30.4734 119.382 30.091 119.324 29.7381 119.147C28.5616 118.559 29.0616 117.118 30.3557 117.706C31.5616 118.265 32.6498 119.147 33.5322 120.147Z" fill="white"/>
<path d="M33.178 114.706C32.2074 114.441 31.6191 114.353 30.6191 114.382C29.6191 114.412 28.5603 114.706 27.8839 115.441C27.178 116.176 26.9427 117.353 27.4721 118.235C27.7956 118.735 28.325 119.088 28.9133 119.265C30.0897 119.676 31.4427 119.471 32.4721 118.794C33.5015 118.088 34.178 116.912 34.2662 115.676L33.178 114.706Z" fill="white"/>
<path d="M28.6209 113.412L22.2974 101.971L30.915 95.647C28.8562 94.7353 27.1797 93 25.768 91.3823L16.1209 99.5882C14.6503 100.823 14.5033 103.029 15.768 104.471L25.9739 116C27.0327 115.294 28.0621 114.471 28.6209 113.412Z" fill="#FFBDA8"/>
<path d="M25.9727 116L27.9727 118.265L29.7668 115.471L28.6197 113.412C28.0609 114.471 27.0315 115.294 25.9727 116Z" fill="white"/>
<path d="M31.3261 95.8529L36.0613 92.3823L32.7378 85.4706L24.8555 91.4118C26.2378 92.9706 28.8261 94.7059 31.3261 95.8529Z" fill="#FCF4AE"/>
<path d="M35.5625 92.9118C34.7978 93.2941 34.0919 93.8236 33.386 94.2647C32.6802 94.7059 31.9449 95.1471 31.2978 95.6765C31.239 95.7059 31.2978 95.7647 31.3566 95.7647C31.739 95.5883 32.0919 95.353 32.4449 95.1177C32.8272 94.8824 33.1802 94.6471 33.5625 94.4118C34.2684 93.9706 35.0037 93.5588 35.6507 93.0294C35.7684 92.9706 35.6507 92.853 35.5625 92.9118Z" fill="#E4B819"/>
<path d="M36.0051 93.7059C35.6521 93.6765 35.2698 93.7354 34.9168 93.7942C34.7404 93.8236 34.5639 93.853 34.3874 93.8824C34.2109 93.9118 34.0345 93.9118 33.858 94.0001C33.8286 94.0295 33.8286 94.0883 33.858 94.0883C34.0345 94.1177 34.2109 94.0883 34.358 94.0883C34.5345 94.0589 34.7404 94.0589 34.9168 94.0295C35.2698 94.0001 35.6521 93.9706 36.0051 93.853C36.0933 93.7942 36.0639 93.7059 36.0051 93.7059Z" fill="#E4B819"/>
</svg>
