<svg width="215" height="250" viewBox="0 0 215 250" fill="none" xmlns="http://www.w3.org/2000/svg">
<path d="M67.0701 82.4938L60.6013 92.5615C56.9567 98.2336 58.6047 105.784 64.2847 109.427L110.661 139.148C113.429 140.924 117.116 140.119 118.891 137.355L132.127 116.755C133.906 113.991 133.099 110.309 130.332 108.537L83.9551 78.8156C78.2751 75.1725 70.7147 76.8182 67.0701 82.4938Z" fill="#FA6140"/>
<path d="M93.9225 87.968L76.7695 114.66L99.6219 129.305L116.775 102.613L93.9225 87.968Z" fill="white"/>
<path d="M95.3304 91.2464L80.3398 114.573L81.2645 115.166L96.255 91.8389L95.3304 91.2464Z" fill="#AFEFEB"/>
<path d="M94.6586 96.1506L84.5273 111.916L85.452 112.508L95.5833 96.7432L94.6586 96.1506Z" fill="#AFEFEB"/>
<path d="M101.326 117.662C105.515 116.405 107.89 111.995 106.632 107.812C105.373 103.629 100.957 101.257 96.7682 102.514C92.5793 103.77 90.2039 108.18 91.4625 112.363C92.7212 116.546 97.1372 118.919 101.326 117.662Z" fill="#AFEFEB"/>
<path d="M102.515 111.196C100.109 109.659 99.4052 106.469 100.944 104.068C103.349 105.604 104.05 108.794 102.515 111.196Z" fill="#DDEBE9"/>
<path d="M102.424 111.217C99.1768 109.145 94.8632 110.091 92.7891 113.334C96.0358 115.405 100.349 114.455 102.424 111.217Z" fill="#DDEBE9"/>
<path d="M67.7327 79.2835L57.957 94.4953L61.3504 96.6699L71.126 81.4581L67.7327 79.2835Z" fill="#FA6140"/>
<g opacity="0.5">
<path d="M113.169 134.499L67.8345 105.446C64.3413 103.206 62.2778 99.5874 61.8939 95.7614C61.8235 95.0898 61.8059 94.4111 61.8482 93.7324L60.4748 92.8533L59.436 92.1887L57.957 94.4955L59.4466 95.4484C57.9746 100.804 60.0628 106.715 64.9892 109.87L110.323 138.926C113.278 140.818 117.215 139.964 119.113 137.01L121.958 132.583C120.06 135.54 116.123 136.394 113.169 134.499Z" fill="#FA6140"/>
</g>
<path d="M43.1977 86.5799L54.3781 69.1839C54.8359 68.47 55.7902 68.2625 56.505 68.7197L68.0375 76.1113C68.7523 76.5685 68.9601 77.5215 68.5023 78.2353L57.322 95.6314C56.8642 96.3452 55.9099 96.5527 55.195 96.0955L43.6625 88.7039C42.9477 88.2467 42.7364 87.2938 43.1977 86.5799Z" fill="#AFEFEB"/>
<path d="M45.5048 86.1901L45.0312 86.927L56.2485 94.1156L56.7221 93.3787L45.5048 86.1901Z" fill="#AFEFEB"/>
<path d="M47.1572 83.61L46.6836 84.3469L57.9009 91.5355L58.3744 90.7986L47.1572 83.61Z" fill="#AFEFEB"/>
<path d="M48.8212 81.0225L48.3477 81.7594L59.5649 88.948L60.0385 88.2111L48.8212 81.0225Z" fill="#AFEFEB"/>
<path d="M50.4814 78.4475L50.0078 79.1844L61.2251 86.373L61.6986 85.6361L50.4814 78.4475Z" fill="#AFEFEB"/>
<path d="M52.1376 75.8636L51.6641 76.6005L62.8813 83.7891L63.3549 83.0522L52.1376 75.8636Z" fill="#AFEFEB"/>
<path d="M53.8056 73.2837L53.332 74.0206L64.5493 81.2092L65.0229 80.4722L53.8056 73.2837Z" fill="#AFEFEB"/>
<path d="M55.4619 70.7009L54.9883 71.4378L66.2055 78.6264L66.6791 77.8895L55.4619 70.7009Z" fill="#AFEFEB"/>
<g opacity="0.5">
<path d="M103.059 96.6757C102.665 97.2876 101.851 97.4634 101.239 97.0731L83.512 85.7113C82.8992 85.3174 82.7232 84.5051 83.114 83.8933C83.5084 83.2814 84.3219 83.1056 84.9346 83.4959L102.661 94.8577C103.274 95.2515 103.45 96.0638 103.059 96.6757Z" fill="white"/>
</g>
<path d="M162.203 96.4157L148.843 120.968C148.124 122.286 146.473 122.775 145.149 122.058L129.774 113.717C128.454 112.999 127.964 111.35 128.683 110.028L142.043 85.4759L162.203 96.4157Z" fill="#C3CEC7"/>
<path d="M157.625 98.7745L142.551 90.5944L131.661 110.607L146.735 118.787L157.625 98.7745Z" fill="white"/>
<path d="M164.701 91.8899L162.817 95.3536L142.598 84.3822L144.482 80.9184C144.841 80.2573 145.668 80.0147 146.327 80.3734L164.156 90.0472C164.818 90.4059 165.061 91.2323 164.701 91.8899Z" fill="#DDEBE9"/>
<path d="M165.32 94.3902L164.084 96.6619C163.724 97.323 162.897 97.5656 162.238 97.2069L141.36 85.8768C140.698 85.5181 140.455 84.6917 140.814 84.0341L142.05 81.7625C142.41 81.1014 143.237 80.8588 143.896 81.2174L164.774 92.5476C165.432 92.9062 165.679 93.7326 165.32 94.3902Z" fill="#AFEFEB"/>
<g opacity="0.5">
<path d="M155.244 85.2086L137.461 117.887L129.774 113.717C128.454 112.999 127.964 111.35 128.683 110.028L141.719 86.0736L141.36 85.8802C140.698 85.5215 140.455 84.6952 140.814 84.0376L142.05 81.7659C142.409 81.1048 143.237 80.8622 143.895 81.2209L144.222 81.4002L144.483 80.922C144.842 80.2609 145.67 80.0182 146.328 80.3769L155.244 85.2086Z" fill="#839D8D"/>
</g>
<path d="M131.211 76.85L101.466 88.9854C100.787 89.2632 100.012 88.9362 99.7373 88.261L98.8711 86.1476L131.074 73.01L131.94 75.1234C132.215 75.7986 131.888 76.5722 131.211 76.85Z" fill="#FFBDA8"/>
<path d="M129.371 76.2488L143.84 111.618C144.323 112.796 143.858 114.125 142.798 114.761C142.685 114.828 142.569 114.888 142.446 114.937L120.145 124.034C118.842 124.565 117.353 123.943 116.821 122.642L102.352 87.273L129.371 76.2488Z" fill="#FFBDA8"/>
<g opacity="0.7">
<path d="M142.804 114.761C142.691 114.828 142.575 114.888 142.452 114.937L120.151 124.034C118.848 124.565 117.358 123.943 116.827 122.642L102.875 88.5388L142.804 114.761Z" fill="#FA6140"/>
</g>
<path d="M133.656 86.7285L113.367 95.0074L119.191 109.239L139.479 100.96L133.656 86.7285Z" fill="white"/>
<path d="M134.758 89.4144L135.311 90.7683L119.416 97.2527C119.042 97.4039 118.616 97.2246 118.461 96.8518C118.384 96.6654 118.391 96.465 118.465 96.2927C118.539 96.1204 118.676 95.9762 118.863 95.8988L134.758 89.4144Z" fill="#AFEFEB"/>
<path d="M136.297 93.1665L136.85 94.5204L120.955 101.005C120.581 101.156 120.152 100.977 120 100.604C119.923 100.418 119.93 100.217 120.004 100.045C120.078 99.8724 120.215 99.7283 120.402 99.6509L136.297 93.1665Z" fill="#AFEFEB"/>
<path d="M137.829 96.9221L138.381 98.2759L122.486 104.76C122.113 104.912 121.687 104.732 121.532 104.359C121.454 104.173 121.461 103.973 121.535 103.8C121.609 103.628 121.746 103.484 121.933 103.406L137.829 96.9221Z" fill="#AFEFEB"/>
<path d="M128.656 72.6198L100.323 84.1785L97.6569 77.6625C97.1181 76.3403 97.7519 74.8352 99.0725 74.2937L122.616 64.6866C123.94 64.1486 125.448 64.7816 125.99 66.1003L128.656 72.6198Z" fill="#DDEBE9"/>
<path d="M131.42 73.6289L99.0513 86.8369C98.3717 87.1147 97.597 86.7876 97.3223 86.1125L95.1109 80.7041C94.8327 80.0254 95.1602 79.2518 95.8363 78.9775L128.205 65.7696C128.884 65.4918 129.659 65.8188 129.934 66.494L132.145 71.9023C132.423 72.581 132.099 73.3547 131.42 73.6289Z" fill="#AFEFEB"/>
<path d="M100.996 84.7235C100.454 84.9451 99.8339 84.6848 99.6085 84.1433L98.126 80.5073C97.9042 79.9657 98.1648 79.3468 98.707 79.1218C99.2493 78.9002 99.8691 79.1604 100.094 79.702L101.58 83.338C101.802 83.8831 101.542 84.502 100.996 84.7235Z" fill="white"/>
<path d="M106.515 82.4764C105.973 82.6979 105.353 82.4377 105.128 81.8962L103.642 78.2601C103.42 77.7186 103.68 77.0997 104.223 76.8746C104.765 76.6531 105.385 76.9133 105.61 77.4549L107.096 81.0909C107.318 81.6324 107.057 82.2549 106.515 82.4764Z" fill="white"/>
<path d="M112.019 80.2258C111.477 80.4473 110.857 80.1871 110.632 79.6456L109.146 76.0095C108.924 75.468 109.184 74.8491 109.727 74.624C110.269 74.4025 110.889 74.6627 111.114 75.2042L112.6 78.8403C112.825 79.3853 112.565 80.0043 112.019 80.2258Z" fill="white"/>
<path d="M117.527 77.9788C116.985 78.2003 116.365 77.9401 116.139 77.3986L114.653 73.7625C114.432 73.221 114.692 72.6021 115.234 72.377C115.777 72.1555 116.396 72.4157 116.622 72.9572L118.108 76.5933C118.33 77.1383 118.069 77.7572 117.527 77.9788Z" fill="white"/>
<path d="M123.042 75.7318C122.5 75.9534 121.88 75.6931 121.655 75.1516L120.169 71.5156C119.947 70.974 120.208 70.3551 120.75 70.1301C121.292 69.9085 121.912 70.1687 122.137 70.7103L123.623 74.3463C123.849 74.8914 123.588 75.5103 123.042 75.7318Z" fill="white"/>
<path d="M128.546 73.4848C128.004 73.7063 127.384 73.4461 127.159 72.9045L125.673 69.2685C125.451 68.7269 125.712 68.108 126.254 67.883C126.796 67.6615 127.416 67.9217 127.641 68.4632L129.127 72.0993C129.349 72.6443 129.089 73.2632 128.546 73.4848Z" fill="white"/>
<path d="M185.751 123.113L172.605 128.493C168.83 130.04 164.798 128.989 163.45 126.158L163.246 125.659L147.642 87.4133C147.079 86.0349 147.741 84.4595 149.125 83.8969L164.918 77.4687C166.302 76.9061 167.876 77.5707 168.443 78.9527L181.909 111.962L183.673 116.287L183.912 116.878L184.349 117.947L184.589 118.538L185.687 121.231C185.948 121.857 185.951 122.522 185.751 123.113Z" fill="#AFEFEB"/>
<path d="M158.876 86.2423L158.904 86.2318C159.084 86.1579 159.292 86.2458 159.362 86.4252L173.835 121.899C173.909 122.079 173.821 122.286 173.641 122.357L173.613 122.367C173.434 122.441 173.226 122.353 173.155 122.174L158.682 86.6994C158.609 86.5201 158.697 86.3162 158.876 86.2423Z" fill="#DDEBE9"/>
<path d="M151.331 89.5338C150.764 88.1413 151.433 86.5553 152.827 85.9892C154.222 85.423 155.81 86.0912 156.377 87.4837C156.944 88.8762 156.275 90.4622 154.88 91.0283C153.486 91.5945 151.898 90.9263 151.331 89.5338Z" fill="#FA6140"/>
<path d="M154.952 98.4269C154.385 97.0344 155.054 95.4485 156.448 94.8823C157.843 94.3162 159.431 94.9843 159.998 96.3768C160.565 97.7693 159.896 99.3553 158.501 99.9214C157.11 100.488 155.519 99.8195 154.952 98.4269Z" fill="#FA6140"/>
<path d="M158.581 107.32C158.014 105.928 158.683 104.342 160.077 103.776C161.472 103.21 163.06 103.878 163.627 105.27C164.194 106.663 163.525 108.249 162.13 108.815C160.739 109.381 159.151 108.713 158.581 107.32Z" fill="#FA6140"/>
<path d="M166.076 117.567C167.386 116.825 167.845 115.164 167.102 113.857C166.359 112.549 164.695 112.091 163.386 112.833C162.077 113.575 161.618 115.236 162.361 116.543C163.104 117.851 164.767 118.309 166.076 117.567Z" fill="#FA6140"/>
<path d="M165.834 125.107C165.268 123.714 165.937 122.128 167.331 121.562C168.726 120.996 170.314 121.664 170.881 123.057C171.448 124.449 170.779 126.035 169.384 126.601C167.993 127.167 166.401 126.499 165.834 125.107Z" fill="#FA6140"/>
<path d="M161.756 85.2859C161.189 83.8933 161.858 82.3074 163.253 81.7413C164.647 81.1751 166.236 81.8432 166.803 83.2358C167.369 84.6283 166.7 86.2142 165.306 86.7804C163.915 87.3465 162.323 86.6784 161.756 85.2859Z" fill="#FA6140"/>
<path d="M165.377 94.179C164.811 92.7864 165.48 91.2005 166.874 90.6343C168.269 90.0682 169.857 90.7363 170.424 92.1288C170.991 93.5214 170.321 95.1073 168.927 95.6735C167.533 96.2396 165.944 95.5715 165.377 94.179Z" fill="#FA6140"/>
<path d="M169.018 103.072C168.451 101.68 169.12 100.094 170.515 99.5277C171.909 98.9615 173.497 99.6297 174.064 101.022C174.631 102.415 173.962 104.001 172.568 104.567C171.177 105.133 169.585 104.465 169.018 103.072Z" fill="#FA6140"/>
<path d="M175.984 113.542C177.418 113.085 178.21 111.553 177.752 110.121C177.295 108.689 175.761 107.899 174.327 108.356C172.893 108.813 172.101 110.344 172.559 111.776C173.017 113.208 174.55 113.999 175.984 113.542Z" fill="#FA6140"/>
<path d="M176.268 120.859C175.701 119.466 176.37 117.88 177.765 117.314C179.159 116.748 180.747 117.416 181.314 118.809C181.881 120.201 181.212 121.787 179.818 122.353C178.423 122.919 176.835 122.251 176.268 120.859Z" fill="#FA6140"/>
<path d="M152.038 89.843C151.471 88.4505 152.14 86.8645 153.534 86.2984C154.929 85.7322 156.517 86.4004 157.084 87.7929C157.651 89.1854 156.982 90.7714 155.587 91.3375C154.196 91.9001 152.608 91.232 152.038 89.843Z" fill="#FFBDA8"/>
<path d="M155.659 98.7362C155.092 97.3437 155.761 95.7577 157.155 95.1916C158.55 94.6254 160.138 95.2936 160.705 96.6861C161.272 98.0786 160.603 99.6645 159.208 100.231C157.814 100.793 156.226 100.125 155.659 98.7362Z" fill="#FFBDA8"/>
<path d="M159.299 107.629C158.732 106.237 159.401 104.651 160.796 104.085C162.19 103.519 163.779 104.187 164.345 105.579C164.912 106.972 164.243 108.558 162.849 109.124C161.458 109.686 159.866 109.018 159.299 107.629Z" fill="#FFBDA8"/>
<path d="M162.92 116.519C162.353 115.127 163.023 113.541 164.417 112.975C165.811 112.408 167.4 113.077 167.967 114.469C168.534 115.862 167.864 117.448 166.47 118.014C165.079 118.58 163.491 117.912 162.92 116.519Z" fill="#FFBDA8"/>
<path d="M166.553 125.412C165.986 124.02 166.655 122.434 168.05 121.868C169.444 121.302 171.032 121.97 171.599 123.362C172.166 124.755 171.497 126.341 170.103 126.907C168.708 127.473 167.12 126.805 166.553 125.412Z" fill="#FFBDA8"/>
<path d="M162.475 85.5953C161.908 84.2027 162.577 82.6168 163.972 82.0506C165.366 81.4845 166.954 82.1526 167.521 83.5452C168.088 84.9377 167.419 86.5236 166.025 87.0898C164.634 87.6559 163.042 86.9878 162.475 85.5953Z" fill="#FFBDA8"/>
<path d="M166.108 94.4883C165.541 93.0958 166.21 91.5099 167.605 90.9437C168.999 90.3776 170.587 91.0457 171.154 92.4382C171.721 93.8307 171.052 95.4167 169.657 95.9828C168.267 96.549 166.675 95.8809 166.108 94.4883Z" fill="#FFBDA8"/>
<path d="M169.729 103.382C169.162 101.989 169.831 100.403 171.226 99.8372C172.62 99.2711 174.208 99.9392 174.775 101.332C175.342 102.724 174.673 104.31 173.279 104.876C171.888 105.442 170.299 104.771 169.729 103.382Z" fill="#FFBDA8"/>
<path d="M173.362 112.275C172.795 110.882 173.464 109.296 174.858 108.73C176.253 108.164 177.841 108.832 178.408 110.225C178.975 111.617 178.306 113.203 176.911 113.769C175.52 114.335 173.929 113.664 173.362 112.275Z" fill="#FFBDA8"/>
<path d="M182.031 121.211C182.615 119.825 181.964 118.229 180.577 117.646C179.189 117.063 177.591 117.713 177.007 119.098C176.423 120.483 177.074 122.079 178.461 122.663C179.848 123.246 181.447 122.596 182.031 121.211Z" fill="#FFBDA8"/>
<path d="M193.604 83.3872L185.674 139.774C185.026 144.391 181.66 147.764 178.085 147.458C177.987 147.451 177.888 147.44 177.793 147.426C177.687 147.412 177.582 147.394 177.476 147.37C173.969 146.659 171.676 142.503 172.324 137.9L180.255 81.5129C180.772 77.8276 183.022 74.9335 185.73 74.072C186.058 73.9665 186.396 73.8927 186.737 73.8505C186.984 73.8188 187.23 73.8048 187.48 73.8083C187.512 73.8083 187.544 73.8083 187.575 73.8118C187.766 73.8188 187.952 73.8329 188.139 73.861C188.329 73.8891 188.512 73.9243 188.695 73.97C188.727 73.9771 188.759 73.9841 188.787 73.9946C189.03 74.0615 189.262 74.1423 189.491 74.2373C189.808 74.3709 190.107 74.5362 190.396 74.7261C192.759 76.3015 194.122 79.7019 193.604 83.3872Z" fill="#DDEBE9"/>
<path d="M190.771 53.1451L191.306 53.219C192.447 53.3772 193.243 54.4322 193.081 55.5715L190.013 77.3843L185.348 76.7302L188.415 54.9175C188.573 53.7781 189.63 52.9869 190.771 53.1451Z" fill="#DDEBE9"/>
<path d="M179.009 138.751C178.248 138.645 177.716 137.942 177.822 137.179L186.914 72.528C186.918 72.5034 186.939 72.4893 186.963 72.4928L189.64 72.8691C189.664 72.8726 189.678 72.8937 189.675 72.9183L180.583 137.569C180.474 138.325 179.769 138.856 179.009 138.751Z" fill="#DDEBE9"/>
<path d="M190.645 54.8401L190.962 54.8858C191.638 54.9808 192.106 55.6032 192.011 56.2748L189.511 74.0472C189.494 74.0612 189.487 74.0683 189.469 74.0788L186.786 73.7026C186.772 73.685 186.764 73.6779 186.754 73.6604L189.254 55.888C189.346 55.2164 189.969 54.7452 190.645 54.8401Z" fill="#E93353"/>
<path d="M188.987 72.5145L187.676 72.3308L179.639 129.529L180.95 129.713L188.987 72.5145Z" fill="#E93353"/>
<path d="M182.419 87.1075C182.39 87.2974 182.309 87.4591 182.2 87.5717C182.091 87.6842 181.95 87.7405 181.809 87.7229L179.422 87.3888L179.616 86.0174L182.003 86.3515C182.288 86.3901 182.475 86.7277 182.419 87.1075Z" fill="#AFEFEB"/>
<path d="M181.176 95.9233C181.148 96.1132 181.067 96.275 180.958 96.3875C180.849 96.5 180.708 96.5563 180.567 96.5387L178.18 96.2046L178.373 94.8332L180.761 95.1673C181.046 95.2059 181.229 95.547 181.176 95.9233Z" fill="#AFEFEB"/>
<path d="M179.938 104.739C179.91 104.929 179.829 105.091 179.72 105.203C179.611 105.316 179.47 105.372 179.329 105.355L176.941 105.021L177.135 103.649L179.523 103.983C179.808 104.022 179.991 104.363 179.938 104.739Z" fill="#AFEFEB"/>
<path d="M178.7 113.555C178.672 113.745 178.591 113.907 178.481 114.019C178.372 114.132 178.231 114.188 178.091 114.17L175.703 113.836L175.897 112.465L178.284 112.799C178.57 112.838 178.753 113.179 178.7 113.555Z" fill="#AFEFEB"/>
<path d="M177.458 122.374C177.429 122.564 177.348 122.726 177.239 122.839C177.13 122.951 176.989 123.007 176.848 122.99L174.461 122.656L174.655 121.284L177.042 121.618C177.327 121.657 177.51 121.991 177.458 122.374Z" fill="#AFEFEB"/>
<path d="M184.491 82.9019C184.463 83.0917 184.382 83.2535 184.273 83.366C184.16 83.4786 184.023 83.5348 183.882 83.5172L180.047 82.9792L180.241 81.6078L184.075 82.1458C184.357 82.1845 184.547 82.5256 184.491 82.9019Z" fill="#AFEFEB"/>
<path d="M176.037 131.162C176.009 131.352 175.928 131.514 175.819 131.626C175.706 131.739 175.569 131.795 175.428 131.777L173.23 131.468L173.424 130.097L175.621 130.406C175.903 130.445 176.093 130.782 176.037 131.162Z" fill="#AFEFEB"/>
<path d="M183.253 91.7177C183.224 91.9076 183.143 92.0694 183.034 92.1819C182.922 92.2944 182.784 92.3507 182.643 92.3331L178.809 91.7951L179.002 90.4236L182.837 90.9617C183.119 91.0003 183.305 91.3414 183.253 91.7177Z" fill="#AFEFEB"/>
<path d="M182.01 100.533C181.982 100.723 181.901 100.885 181.792 100.998C181.679 101.11 181.542 101.166 181.401 101.149L177.566 100.611L177.76 99.2394L181.595 99.7774C181.877 99.8161 182.063 100.157 182.01 100.533Z" fill="#AFEFEB"/>
<path d="M180.768 109.353C180.74 109.543 180.659 109.704 180.55 109.817C180.437 109.929 180.3 109.986 180.159 109.968L176.324 109.43L176.518 108.059L180.353 108.597C180.634 108.632 180.821 108.973 180.768 109.353Z" fill="#AFEFEB"/>
<path d="M179.534 118.169C179.506 118.359 179.425 118.52 179.315 118.633C179.203 118.745 179.065 118.802 178.925 118.784L175.09 118.246L175.284 116.875L179.118 117.413C179.4 117.451 179.587 117.785 179.534 118.169Z" fill="#AFEFEB"/>
<path d="M178.292 126.985C178.263 127.174 178.182 127.336 178.073 127.449C177.961 127.561 177.823 127.617 177.682 127.6L173.848 127.062L174.041 125.69L177.876 126.228C178.158 126.267 178.344 126.605 178.292 126.985Z" fill="#AFEFEB"/>
<path d="M186.392 116.537C185.973 116.477 185.681 116.09 185.737 115.672L190.336 82.9686C190.396 82.5501 190.784 82.2582 191.203 82.3145C191.622 82.3743 191.914 82.7611 191.858 83.1796L187.259 115.883C187.199 116.305 186.811 116.597 186.392 116.537Z" fill="white"/>
<path d="M192.025 107.707H57.9453V219.792H192.025V107.707Z" fill="#DAE7DF"/>
<path d="M176.187 107.707L175.021 208.732L159.988 219.792V107.707H176.187Z" fill="black" fill-opacity="0.05"/>
<path d="M192.039 219.792L175.027 208.732L176.193 107.707H192.039V219.792Z" fill="black" fill-opacity="0.05"/>
<path d="M159.988 219.792H192.033L175.021 208.732L159.988 219.792Z" fill="black" fill-opacity="0.2"/>
<path d="M105.771 175.672V162.408H111.93V175.672H125.212V181.823H111.93V195.091H105.771V181.823H92.4883V175.672H105.771Z" fill="#006D35"/>
<path d="M88.4794 123.339C90.2561 121.564 90.256 118.688 88.4793 116.914C86.7025 115.139 83.8218 115.139 82.0451 116.914C80.2684 118.688 80.2685 121.565 82.0453 123.339C83.822 125.113 86.7027 125.113 88.4794 123.339Z" fill="black" fill-opacity="0.4"/>
<path d="M136.903 120.995C137.383 118.532 135.773 116.147 133.306 115.667C130.84 115.188 128.451 116.795 127.971 119.258C127.491 121.721 129.101 124.107 131.567 124.586C134.034 125.066 136.422 123.458 136.903 120.995Z" fill="black" fill-opacity="0.4"/>
<path d="M108.86 144.514C94.8093 144.514 83.3789 133.574 83.3789 120.127C83.3789 119.29 84.0585 118.612 84.8966 118.612C85.7347 118.612 86.4143 119.29 86.4143 120.127C86.4143 131.904 96.4855 141.483 108.863 141.483C121.241 141.483 131.312 131.904 131.312 120.127C131.312 119.29 131.992 118.612 132.83 118.612C133.668 118.612 134.347 119.29 134.347 120.127C134.34 133.574 122.91 144.514 108.86 144.514Z" fill="#839D8D"/>
<path d="M25.5307 96.6794C25.5483 96.6864 25.5694 96.69 25.587 96.69C25.6258 96.6864 25.661 96.6583 25.6786 96.6196C25.742 96.4614 25.8089 96.3031 25.8723 96.1414C25.7244 97.6816 26.323 98.5502 27.809 99.0495C30.9043 100.094 40.1515 101.377 47.7435 92.8816C44.8912 91.162 42.2713 86.0737 43.2362 81.5128C38.2358 76.6495 31.2529 76.8499 31.2529 76.8499C31.2529 76.8499 30.4149 75.8583 28.869 75.9778C27.2456 75.9919 25.9533 76.6319 25.2138 77.8029C24.3968 79.097 23.8475 81.6394 25.8688 86.4113C27.6294 90.5642 26.5871 93.8099 25.4744 96.5247C25.4497 96.5845 25.4744 96.6548 25.5307 96.6794ZM27.5168 76.3963C26.3934 77.0609 25.0905 78.3058 24.7243 80.1589C24.8018 79.1673 25.0764 78.4464 25.4004 77.933C25.8793 77.1734 26.6118 76.653 27.5168 76.3963ZM26.9498 92.1959C27.1646 90.4482 27.0026 88.5071 26.073 86.3128C25.6927 85.4126 25.4039 84.5932 25.1927 83.8513C25.4708 84.5264 25.8547 85.2438 26.3758 86.0104C27.6224 87.839 27.4921 90.1317 26.9498 92.1959Z" fill="black"/>
<path d="M28.3633 198.946L30.5923 208.834L33.9271 208.813L34.0503 198.946H28.3633Z" fill="#FFBDA8"/>
<path d="M56.4336 199.364L62.7721 208.834L65.2441 205.49L61.4269 198.063L56.4336 199.364Z" fill="#FFBDA8"/>
<path d="M64.646 203.327C64.646 203.327 63.0086 203.626 61.667 203.732C61.3676 203.756 61.0859 203.77 60.8359 203.77C60.188 203.77 59.0224 203.514 58.2407 203.32L58.1808 203.306C57.8357 203.222 57.5751 203.152 57.4765 203.123L57.4343 203.113C57.4343 203.113 49.2717 193.534 44.6939 178.181C44.5883 177.822 44.4756 177.464 44.3559 177.098C41.8487 169.397 36.6546 159.73 33.9185 150.981C33.4819 149.588 33.091 148.277 32.7424 147.035C32.6297 146.638 32.5205 146.248 32.4149 145.864C30.3971 138.476 29.8126 133.627 29.2773 128.444L45.7327 132.857C45.7363 132.857 52.6452 164.431 64.646 203.327Z" fill="#839D8D"/>
<path d="M30.4779 208.282C30.4779 208.282 30.7455 210.241 30.0518 212.337C30.0518 212.337 29.506 214.96 31.9569 215.009C34.4078 215.058 35.0099 214.816 34.7317 213.205C34.4536 211.598 33.9253 208.817 33.9253 208.817L30.4779 208.282Z" fill="#FFBDA8"/>
<path d="M30.0553 212.337C30.0553 212.337 29.6011 214.812 29.8792 216.131C29.8792 216.131 30.6187 216.715 32.4005 216.715C34.0873 216.715 34.9676 216.131 34.9676 216.131C34.9676 216.131 35.0205 213.416 34.5697 212.27C34.5662 212.27 32.8302 215.016 30.0553 212.337Z" fill="#250E01"/>
<path d="M71.1476 213.469C71.1476 213.469 66.6296 208.184 65.2422 205.494L61.8828 207.308L69.3939 214.742L71.1511 214.499L71.1476 213.469Z" fill="#FFBDA8"/>
<path d="M74.0138 216.567C74.0138 216.567 69.1578 216.567 68.3268 216.469C67.4957 216.374 66.8231 215.104 65.9217 213.202C65.5519 212.425 64.7244 211.996 63.8757 211.76V216.163H62.594L61.3791 211.482C60.5797 209.931 61.3157 208.528 61.8791 207.305C62.5341 207.305 64.2948 207.776 67.6331 211.739C68.7317 213.04 69.9431 213.504 71.1439 213.465C71.1615 213.476 71.1756 213.487 71.1932 213.494C73.968 214.812 74.0138 216.567 74.0138 216.567Z" fill="#250E01"/>
<path d="M35.6327 173.796C35.682 180.621 35.3545 196.315 34.5129 202.81C34.5129 202.81 33.7135 203.556 31.731 203.566C29.6992 203.577 28.7907 202.786 28.7907 202.786C26.6743 191.491 25.1707 182.144 24.072 174.088C23.1741 167.48 22.3747 161.812 21.7585 156.934C21.2127 152.613 20.8147 148.906 20.6211 145.713C20.5964 145.281 20.5718 144.855 20.5542 144.44C20.5295 143.892 20.5119 143.361 20.5013 142.847C20.4908 142.327 20.4908 141.824 20.4943 141.332L20.5647 141.325L24.653 140.906L37.5695 139.577C37.3582 151.536 35.6045 169.829 35.6327 173.796Z" fill="#839D8D"/>
<path d="M35.1094 96.7918C35.1094 96.7918 41.7472 95.6806 43.9762 98.0191C46.7053 100.881 51.8324 117.3 51.6317 119.174C51.5542 119.888 48.8604 119.558 47.9342 118.538C43.3318 113.446 36.7292 100.6 35.1094 96.7918Z" fill="#FCF4AE"/>
<path d="M48.0063 142.633C43.0517 143.99 19.9268 146.67 19.7261 140.565C19.6768 139.074 19.7261 137.277 19.8388 135.329C20.1839 129.298 21.1241 121.847 21.5713 117.747C21.7791 115.869 21.0924 107.447 21.6171 102.861C21.6946 102.183 21.7967 101.585 21.9375 101.107C22.9376 97.6464 27.4238 96.7075 29.7268 96.6231L36.678 96.3734C36.678 96.3734 43.8581 104.827 44.8547 107.426C45.8547 110.024 46.1787 118.914 46.9569 123.218C47.7387 127.522 50.4184 141.975 48.0063 142.633Z" fill="#FCF4AE"/>
<path d="M34.3514 122.002C34.3514 122.002 30.4885 134.513 19.8398 135.333C20.1849 129.302 21.1251 121.85 21.5724 117.75C21.7801 115.872 21.0935 107.45 21.6181 102.865C21.7555 102.896 21.8822 102.977 22.0266 103.005C33.7528 105.39 35.4149 119.392 34.3514 122.002Z" fill="#FFE86E"/>
<path d="M51.3005 119.48C51.3005 119.48 44.3211 121.893 35.8205 118.024C35.8205 118.024 33.5034 117.792 32.3555 118.102C32.3555 118.102 32.602 115.679 33.7253 115.021C34.8486 114.364 39.6834 115.788 41.1272 115.577C44.2859 115.12 49.7863 114.765 51.3005 119.48Z" fill="#FFBDA8"/>
<path d="M45.0791 113.847C45.0791 113.847 45.7341 107.869 43.5156 104.264C43.5156 104.264 44.3009 103.983 44.8608 104.918C45.4242 105.854 49.3435 114.733 47.4772 115.387C45.6073 116.045 45.0791 113.847 45.0791 113.847Z" fill="#FFE86E"/>
<path d="M34.8883 114.845C34.7897 114.845 31.5923 115.285 31.0254 115.707C30.4584 116.129 30.9585 117.602 32.0254 117.743C33.0924 117.884 34.8883 114.845 34.8883 114.845Z" fill="#FFBDA8"/>
<path d="M26.1523 117.11C26.1523 117.11 35.2551 116.758 43.5127 115.074C43.5127 115.074 45.0234 115.088 44.8438 116.477C44.6677 117.866 30.5329 125.645 27.4271 124.147L26.1523 117.11Z" fill="#FFBDA8"/>
<path d="M43.5117 115.078C43.5117 115.078 44.4766 113.85 45.0752 113.85C45.6738 113.85 47.2409 114.659 47.4733 115.394C47.7057 116.132 45.621 115.605 44.8428 116.481C44.0646 117.356 43.5117 115.078 43.5117 115.078Z" fill="#FFBDA8"/>
<path d="M29.7283 96.6266C29.7283 96.6266 22.0799 96.6442 20.9601 99.5418C18.9177 104.831 25.647 122.371 27.4253 124.15C28.1895 124.913 31.7249 123.711 31.7249 118.657C31.7249 116.034 31.5489 100.727 29.7283 96.6266Z" fill="#FCF4AE"/>
<path d="M37.1233 99.2744C37.1515 99.2885 34.4471 100.769 32.4152 100.182C30.5031 99.6331 29.2531 97.0168 29.2777 97.0098C30.0876 96.841 30.144 93.0643 30.1264 88.0217L31.4152 89.801L36.8275 91.9848C36.8275 91.9848 36.6867 94.0278 36.6832 95.9514C36.6796 97.5689 36.7747 99.1021 37.1233 99.2744Z" fill="#FFBDA8"/>
<path d="M36.567 94.3724C36.567 95.4801 35.8804 96.9008 34.4613 96.9008C33.0421 96.9008 32.3555 91.2885 32.3555 90.1843C32.3555 89.0766 32.5773 92.3716 33.9964 92.3716C35.4155 92.368 36.567 93.2647 36.567 94.3724Z" fill="#FFBDA8"/>
<path d="M29.841 83.7808C29.8269 88.3768 29.7248 90.3249 31.7742 92.8252C34.8554 96.5878 40.215 95.6032 41.5355 91.1021C42.7222 87.0511 42.5496 80.215 38.4085 78.1016C34.3307 76.0199 29.8551 79.1847 29.841 83.7808Z" fill="#FFBDA8"/>
<path d="M33.5403 79.4028C34.7376 81.2736 42.1325 82.8174 45.5165 82.1914C45.5165 82.1914 44.4601 81.7589 44.0693 81.3264C43.9108 79.7756 43.5551 76.3892 41.136 74.7224C37.1991 72.0112 33.5192 72.7743 31.3219 73.7167C30.0436 74.2653 29.1281 75.4714 28.8499 76.8956L28.6914 77.7079L33.5403 79.4028Z" fill="black"/>
<path d="M31.8604 78.056L33.8851 78.9527C33.8851 78.9527 35.8747 85.8169 29.7616 86.3584C29.7616 86.3584 29.0785 79.4133 31.8604 78.056Z" fill="black"/>
<path d="M28.3658 87.1989C28.5489 88.1237 29.1123 88.8903 29.725 89.3264C30.6476 89.9804 31.4153 89.2103 31.4188 88.1097C31.4188 87.118 30.9399 85.5848 29.8905 85.3703C28.8553 85.1593 28.1545 86.1404 28.3658 87.1989Z" fill="#FFBDA8"/>
</svg>
