<svg width="24" height="24" viewBox="0 0 24 24" fill="none" xmlns="http://www.w3.org/2000/svg">
<g clip-path="url(#clip0_38583_34473)">
<path d="M17.9073 12.4073C16.4414 12.4021 15.0391 13.0058 14.0355 14.0744C12.592 12.9228 10.7987 12.2986 8.95208 12.3056H8.93754C6.7182 12.3103 4.65873 13.173 3.13235 14.743C1.58158 16.3277 0.733603 18.4937 0.738301 20.844C0.73921 20.9726 0.78967 21.0957 0.878922 21.1879C0.969993 21.2792 1.09395 21.3299 1.2229 21.3286L13.9434 21.3043C13.9725 21.3383 14.0014 21.3674 14.0307 21.4013C15.7007 23.1688 18.3554 23.5821 20.484 22.4064C22.6125 21.2305 23.676 18.7636 23.0691 16.4088C22.4622 14.054 20.3391 12.408 17.9073 12.4073ZM1.72205 20.3545C1.82387 18.4501 2.56047 16.7105 3.82516 15.4167C5.16758 14.0356 6.98475 13.2748 8.93754 13.2748H8.95208C10.582 13.2684 12.1652 13.8188 13.4394 14.8351C12.3658 16.4933 12.295 18.6089 13.2553 20.3353L1.72205 20.3545ZM17.9073 22.0991C15.4986 22.0991 13.5461 20.1465 13.5461 17.7377C13.5461 15.3293 15.4986 13.3765 17.9073 13.3765C20.3161 13.3765 22.2685 15.3293 22.2685 17.7377C22.2685 20.1465 20.3161 22.0991 17.9073 22.0991Z" fill="#1F515B" stroke="#1F515B" stroke-width="0.7"/>
<path d="M8.94239 11.1523C11.7712 11.1523 14.0645 8.85899 14.0645 6.03019C14.0645 3.20124 11.7712 0.907959 8.94239 0.907959C6.1136 0.907959 3.82031 3.20124 3.82031 6.03019C3.82304 8.85777 6.11466 11.1495 8.94239 11.1523ZM8.94239 1.87716C11.2361 1.87716 13.0953 3.7366 13.0953 6.03019C13.0953 8.32362 11.2361 10.1831 8.94239 10.1831C6.64881 10.1831 4.78951 8.32362 4.78951 6.03019C4.79224 3.73766 6.64987 1.88004 8.94239 1.87716Z" fill="#1F515B" stroke="#1F515B" stroke-width="0.7"/>
<path d="M19.5395 16.2599L17.1988 18.1644L16.3411 17.1612C16.1671 16.9577 15.8613 16.9339 15.658 17.1079C15.4545 17.2818 15.4307 17.5878 15.6046 17.7913L16.7676 19.1528C16.8599 19.2601 16.9943 19.3221 17.136 19.3224C17.2469 19.3236 17.3548 19.2857 17.4411 19.2158L20.1501 17.0109C20.3547 16.8418 20.3846 16.539 20.2171 16.3329C20.0494 16.1267 19.7471 16.0943 19.5395 16.2599Z" fill="#1F515B" stroke="#1F515B" stroke-width="0.7"/>
</g>
<defs>
<clipPath id="clip0_38583_34473">
<rect width="24" height="24" fill="white"/>
</clipPath>
</defs>
</svg>
