<svg width="244" height="32" viewBox="0 0 244 32" fill="none" xmlns="http://www.w3.org/2000/svg">
<g clip-path="url(#clip0_40579_65315)">
<path d="M19.3229 1.09375L13.2732 16.9678L6.96605 1.09375H0L13.11 31.9981L26.22 1.09375H19.3229Z" fill="black"/>
<path d="M51.9193 29.3743H58.7034L46.3276 0H44.8968L32.5273 29.3743H38.6148L45.3988 12.6879L51.9193 29.3743Z" fill="black"/>
<path d="M156.949 29.3743H163.733L151.357 0H149.927L137.551 29.3743H143.645L150.429 12.6879L156.949 29.3743Z" fill="black"/>
<path d="M71.1602 0.1875V29.3792H77.2037L77.1033 13.0328L94.7882 30.33H96.1438V1.09423H90.1756L90.2446 17.7113L72.6349 0.1875H71.1602Z" fill="black"/>
<path d="M122.535 29.3724V6.94971H129.319V1.09375H109.965V6.94971H116.567V29.3724H122.535Z" fill="black"/>
<path d="M194.273 15.274C194.976 13.7313 195.327 12.1256 195.327 10.5011C195.327 8.54279 194.876 6.83007 193.978 5.41961C193.081 4.00284 191.813 2.91351 190.206 2.17679C188.637 1.45896 186.792 1.09375 184.728 1.09375H176.438V29.3787H182.437V20.1729H185.286L191.204 29.3787H198.17L191.418 18.5672C192.704 17.7234 193.664 16.6152 194.267 15.2803M189.221 10.6459C189.221 11.137 189.102 11.6974 188.863 12.3082C188.65 12.8623 188.273 13.3283 187.715 13.725C187.175 14.1091 186.366 14.3043 185.305 14.3043H182.443V6.94971H185.456C186.479 6.94971 187.251 7.15121 187.765 7.5479C188.311 7.96978 188.675 8.44834 188.882 9.00874C189.108 9.62582 189.221 10.1736 189.221 10.6459Z" fill="black"/>
<path d="M227.04 29.3743H233.824L221.455 0H220.024L207.648 29.3743H213.736L220.52 12.6879L227.04 29.3743Z" fill="black"/>
<path d="M241.115 29.3813H240.795C240.795 29.3813 240.776 29.3813 240.764 29.375C240.356 29.3498 239.973 29.2427 239.603 29.0601C238.536 28.5312 237.946 27.4734 237.908 26.4281C237.889 25.8929 238.009 25.3828 238.26 24.9106C238.768 23.922 239.816 23.2797 240.921 23.2734C241.354 23.2734 241.768 23.349 242.157 23.5253C243.205 24.0039 243.801 24.8224 243.977 25.9558C243.989 26.0251 243.996 26.0944 244.002 26.1636V26.4848C244.002 26.4848 244.002 26.51 243.996 26.5226C243.964 26.957 243.858 27.3663 243.65 27.7441C243.148 28.6697 242.37 29.1987 241.335 29.3561C241.266 29.3687 241.19 29.375 241.121 29.3813M243.381 26.3337C243.381 24.9924 242.289 23.8968 240.958 23.8968C239.621 23.8968 238.523 24.9924 238.523 26.3274C238.523 27.6686 239.615 28.7642 240.946 28.7642C242.282 28.7642 243.381 27.6686 243.381 26.3337Z" fill="black"/>
<path d="M239.622 24.6625C239.622 24.6625 239.641 24.6625 239.647 24.6625C240.124 24.6625 240.595 24.6625 241.072 24.6688C241.247 24.6688 241.423 24.7066 241.593 24.7633C241.906 24.8829 242.069 25.1159 242.088 25.4433C242.101 25.6259 242.088 25.8023 242 25.966C241.9 26.1612 241.737 26.2745 241.536 26.3438C241.523 26.3438 241.505 26.3564 241.48 26.3627C241.68 26.4193 241.806 26.5453 241.906 26.7027C241.956 26.7782 242 26.8601 242.038 26.9357C242.182 27.2316 242.327 27.5213 242.471 27.8172C242.471 27.8298 242.477 27.8361 242.484 27.855H242.44C242.176 27.855 241.919 27.855 241.655 27.855C241.618 27.855 241.605 27.8424 241.586 27.8109C241.461 27.5464 241.335 27.2883 241.203 27.0301C241.172 26.9609 241.128 26.8979 241.084 26.8349C241.009 26.7279 240.902 26.6649 240.777 26.6523C240.664 26.646 240.551 26.6523 240.431 26.6523V27.8487H239.609V24.6562L239.622 24.6625ZM240.444 26.0793C240.639 26.0667 240.839 26.0982 241.028 26.0478C241.153 26.0163 241.229 25.9345 241.254 25.8023C241.266 25.7267 241.272 25.6511 241.266 25.5819C241.247 25.3993 241.159 25.2985 240.977 25.2796C240.808 25.2607 240.632 25.267 240.457 25.2607C240.457 25.2607 240.457 25.2607 240.45 25.2607V26.073L240.444 26.0793Z" fill="black"/>
</g>
<defs>
<clipPath id="clip0_40579_65315">
<rect width="244" height="32" fill="white"/>
</clipPath>
</defs>
</svg>
