<svg width="24" height="24" viewBox="0 0 24 24" fill="none" xmlns="http://www.w3.org/2000/svg">
<path d="M15.8565 2.93539C17.9905 5.06936 17.9905 8.52918 15.8565 10.6631L11.9927 14.527L8.12879 10.6631C5.99483 8.52918 5.99483 5.0694 8.12879 2.93544C10.2628 0.801476 13.7226 0.801476 15.8565 2.93539Z" stroke="#1F515B" stroke-width="1.32781" stroke-miterlimit="10"/>
<path d="M11.9987 9.17669C13.3114 9.17669 14.3754 8.11262 14.3754 6.80002C14.3754 5.48741 13.3114 4.42334 11.9987 4.42334C10.6861 4.42334 9.62207 5.48741 9.62207 6.80002C9.62207 8.11262 10.6861 9.17669 11.9987 9.17669Z" stroke="#1F515B" stroke-width="1.32781" stroke-miterlimit="10"/>
<path d="M15.2073 11.314H22.6634V22.6658H1.33008V11.314H8.7862" stroke="#1F515B" stroke-width="1.32781" stroke-miterlimit="10"/>
<path d="M17.1641 11.314V20.01" stroke="#1F515B" stroke-width="1.32781" stroke-miterlimit="10"/>
<path d="M6.83008 11.314V20.01" stroke="#1F515B" stroke-width="1.32781" stroke-miterlimit="10"/>
<path d="M1.33008 20.0117H22.6634" stroke="#1F515B" stroke-width="1.32781" stroke-miterlimit="10"/>
</svg>
