<svg width="32" height="24" viewBox="0 0 32 24" fill="none" xmlns="http://www.w3.org/2000/svg">
<path d="M5.5 0.601562L3 4.35156V8.00156H0V9.00156H3V11.0016H0V12.0016H3V16.0016H0V17.0016H3V19.0016H0V20.0016H3V24.0016H8V20.0016H10V24.0016H15V20.0016H17V24.0016H22V20.0016H24V24.0016H29V20.0016H32V19.0016H29V17.0016H32V16.0016H29V12.0016H32V11.0016H29V9.00156H32V8.00156H29V4.35156L26.5 0.601562L24 4.35156V8.00156H22V4.35156L19.5 0.601562L17 4.35156V8.00156H15V4.35156L12.5 0.601562L10 4.35156V8.00156H8V4.35156L5.5 0.601562ZM5.5 2.40356L7 4.65356V23.0016H4V4.65156L5.5 2.40356ZM12.5 2.40356L14 4.65356V23.0016H11V4.65156L12.5 2.40356ZM19.5 2.40356L21 4.65356V23.0016H18V4.65156L19.5 2.40356ZM26.5 2.40356L28 4.65356V23.0016H25V4.65156L26.5 2.40356ZM8 9.00156H10V11.0016H8V9.00156ZM15 9.00156H17V11.0016H15V9.00156ZM22 9.00156H24V11.0016H22V9.00156ZM8 12.0016H10V16.0016H8V12.0016ZM15 12.0016H17V16.0016H15V12.0016ZM22 12.0016H24V16.0016H22V12.0016ZM8 17.0016H10V19.0016H8V17.0016ZM15 17.0016H17V19.0016H15V17.0016ZM22 17.0016H24V19.0016H22V17.0016Z" fill="#44544A"/>
</svg>
