<svg width="33" height="32" viewBox="0 0 33 32" fill="none" xmlns="http://www.w3.org/2000/svg">
<path d="M6.98585 15.1953L15.6258 8.71531C16.1947 8.28865 16.977 8.28865 17.5458 8.71531L26.1858 15.1953M6.98585 15.1953L5.38585 16.3953C2.58593 18.3953 0.185877 14.7953 2.58585 13.1953L15.2465 3.88603C15.8063 3.4744 16.5678 3.47115 17.1311 3.87798L30.4819 13.5203C30.5511 13.5702 30.6184 13.627 30.677 13.6891C32.9131 16.0571 30.1547 18.3693 27.7859 16.3953L26.1858 15.1953M6.98585 15.1953V27.5953C6.98585 28.479 7.70219 29.1953 8.58585 29.1953H24.5858C25.4695 29.1953 26.1858 28.479 26.1858 27.5953V15.1953" stroke="#44544A" stroke-width="2"/>
<path d="M14.7243 14.6016C14.3846 14.6016 14.085 14.7912 13.8803 15.072C13.6756 15.3524 13.5553 15.7279 13.5553 16.1398C13.5553 16.552 13.6756 16.9274 13.8803 17.2079C14.085 17.4884 14.3846 17.6783 14.7243 17.6783C15.064 17.6783 15.3636 17.4884 15.5683 17.2079C15.773 16.9274 15.893 16.552 15.893 16.1398C15.893 15.7282 15.7733 15.3524 15.5683 15.072C15.3636 14.7912 15.064 14.6016 14.7243 14.6016ZM17.9683 14.6016C17.6285 14.6016 17.329 14.7912 17.1243 15.072C16.9196 15.3524 16.7996 15.7279 16.7996 16.1398C16.7996 16.552 16.9193 16.9274 17.1243 17.2079C17.329 17.4884 17.6285 17.6783 17.9683 17.6783C18.308 17.6783 18.6076 17.4884 18.8123 17.2079C19.017 16.9274 19.1373 16.552 19.1373 16.1398C19.1373 15.7282 19.017 15.3524 18.8123 15.072C18.6076 14.7912 18.308 14.6016 17.9683 14.6016ZM14.7243 14.8956C14.9453 14.8956 15.154 15.017 15.3166 15.2401C15.4793 15.463 15.5861 15.7835 15.5861 16.1398C15.5861 16.4964 15.4793 16.816 15.3166 17.0391C15.154 17.262 14.9453 17.3843 14.7243 17.3843C14.5033 17.3843 14.2946 17.262 14.132 17.0391C13.9693 16.816 13.8622 16.4964 13.8622 16.1398C13.8622 15.7835 13.9693 15.463 14.1323 15.2401C14.2949 15.017 14.503 14.8956 14.7243 14.8956ZM17.9683 14.8956C18.1893 14.8956 18.398 15.017 18.5606 15.2401C18.7233 15.463 18.8304 15.7835 18.8304 16.1398C18.8304 16.4964 18.7233 16.816 18.5603 17.0391C18.3977 17.262 18.1896 17.3843 17.9683 17.3843C17.7473 17.3843 17.5386 17.262 17.376 17.0391C17.2133 16.816 17.1065 16.4964 17.1065 16.1398C17.1065 15.7835 17.2133 15.463 17.376 15.2401C17.5386 15.017 17.7473 14.8956 17.9683 14.8956ZM12.2982 16.9248C11.9585 16.9248 11.6589 17.1147 11.4542 17.3952C11.2486 17.6757 11.1289 18.0511 11.1289 18.4633C11.1289 18.8749 11.2489 19.2506 11.4539 19.5311C11.6586 19.8119 11.9582 20.0015 12.2979 20.0015C12.6377 20.0015 12.9369 19.8119 13.1419 19.5311C13.3466 19.2506 13.4666 18.8752 13.4666 18.4633C13.4666 18.0511 13.3466 17.6757 13.1419 17.3952C12.9369 17.1147 12.638 16.9248 12.2982 16.9248ZM20.395 16.9248C20.0552 16.9248 19.756 17.1147 19.551 17.3952C19.3463 17.6757 19.2263 18.0511 19.2263 18.4633C19.2263 18.8749 19.3463 19.2506 19.551 19.5311C19.756 19.8119 20.0552 20.0015 20.395 20.0015C20.7347 20.0015 21.0343 19.8119 21.239 19.5311C21.444 19.2506 21.5637 18.8752 21.5637 18.4636C21.5637 18.0514 21.4437 17.676 21.2387 17.3955C21.034 17.115 20.7347 16.9248 20.395 16.9248ZM12.2982 17.2188C12.5192 17.2188 12.7276 17.3411 12.8905 17.5639C13.0532 17.7868 13.16 18.1067 13.16 18.4633C13.16 18.8196 13.0532 19.1401 12.8902 19.363C12.7276 19.5861 12.5192 19.7075 12.2979 19.7075C12.0769 19.7075 11.8685 19.5861 11.7056 19.363C11.5429 19.1401 11.4361 18.8196 11.4361 18.4633C11.4361 18.1067 11.5432 17.7871 11.7059 17.5639C11.8685 17.3411 12.0772 17.2188 12.2982 17.2188ZM20.395 17.2188C20.616 17.2188 20.8247 17.3411 20.9873 17.5639C21.15 17.7868 21.2568 18.1067 21.2568 18.4636C21.2568 18.8199 21.1497 19.1404 20.987 19.3632C20.8244 19.5864 20.6157 19.7078 20.3947 19.7078C20.1737 19.7078 19.9653 19.5864 19.8024 19.3632C19.6397 19.1404 19.5329 18.8199 19.5329 18.4636C19.5329 18.107 19.6397 17.7874 19.8027 17.5642C19.9653 17.3414 20.1737 17.2188 20.395 17.2188ZM16.3463 18.159C15.3532 18.159 14.4858 18.6541 14.0516 19.3929C13.9067 19.6358 13.7947 20.0324 13.6087 20.2667C13.4061 20.5216 13.1533 20.7218 12.8767 20.8753L12.8721 20.8783C12.1871 21.2922 11.7452 21.9858 11.7446 22.759C11.7446 24.022 12.9083 25.0358 14.3244 25.0358C14.6919 25.0354 15.0558 24.9654 15.3949 24.8297C15.6963 24.7094 16.0197 24.6477 16.3463 24.6483C16.6817 24.6483 16.9991 24.7121 17.2934 24.8285C17.631 24.9637 17.9947 25.0361 18.3682 25.0363C19.7843 25.0363 20.948 24.0226 20.948 22.7596C20.9471 21.9849 20.5033 21.291 19.8183 20.8785L19.8134 20.8756C19.5308 20.7209 19.2829 20.5141 19.0839 20.2673C18.9918 20.1518 18.8998 19.9689 18.8249 19.8007C18.7509 19.6337 18.7021 19.4947 18.6432 19.3979C18.212 18.6571 17.3425 18.159 16.3463 18.159ZM16.3463 18.453C17.2357 18.453 18.0011 18.8984 18.3752 19.5405L18.3771 19.5438C18.3946 19.5723 18.4643 19.7393 18.5428 19.9154C18.6208 20.0915 18.7156 20.2891 18.8393 20.4446C19.0695 20.7345 19.3555 20.9591 19.6593 21.1287C20.2615 21.4933 20.6402 22.0925 20.6414 22.7584C20.6414 23.848 19.6323 24.7412 18.3682 24.7412C18.0399 24.741 17.7148 24.6782 17.4122 24.5562C17.0747 24.4221 16.7117 24.3531 16.3463 24.3534C15.9688 24.3534 15.6091 24.426 15.277 24.558C14.9753 24.6788 14.6515 24.7411 14.3244 24.7412C13.0603 24.7412 12.0515 23.848 12.0515 22.7584C12.0518 22.094 12.4287 21.4954 13.0308 21.1293L13.0357 21.1264C13.3522 20.9528 13.6299 20.721 13.8527 20.4443C14.0976 20.1359 14.2204 19.7025 14.3186 19.5382C14.6951 18.8958 15.4593 18.453 16.3463 18.453Z" fill="#44544A" stroke="#44544A" stroke-width="0.7"/>
</svg>
