<svg width="41" height="40" viewBox="0 0 41 40" fill="none" xmlns="http://www.w3.org/2000/svg">
<g id="Enclosure icon">
<g id="Group 427320520">
<path id="Vector 75" d="M8.73036 19L19.5304 10.9C20.2415 10.3667 21.2192 10.3667 21.9304 10.9L32.7304 19M8.73036 19L6.73036 20.5C3.23046 23 0.230393 18.5 3.23036 16.5L19.0561 4.86339C19.7559 4.34886 20.7078 4.3448 21.4119 4.85334L38.1005 16.9062C38.1869 16.9686 38.271 17.0396 38.3443 17.1172C41.1394 20.0772 37.6914 22.9674 34.7304 20.5L32.7304 19M8.73036 19V34.5C8.73036 35.6046 9.62579 36.5 10.7304 36.5H30.7304C31.8349 36.5 32.7304 35.6046 32.7304 34.5V19" stroke="white" stroke-width="1.73913"/>
<path id="Vector" d="M18.4044 18.2578C17.9797 18.2578 17.6053 18.4949 17.3494 18.8458C17.0935 19.1964 16.9431 19.6657 16.9431 20.1806C16.9431 20.6958 17.0935 21.1651 17.3494 21.5157C17.6053 21.8663 17.9797 22.1037 18.4044 22.1037C18.8291 22.1037 19.2035 21.8663 19.4594 21.5157C19.7153 21.1651 19.8653 20.6958 19.8653 20.1806C19.8653 19.6661 19.7157 19.1964 19.4594 18.8458C19.2035 18.4949 18.8291 18.2578 18.4044 18.2578ZM22.4594 18.2578C22.0347 18.2578 21.6603 18.4949 21.4044 18.8458C21.1485 19.1964 20.9985 19.6657 20.9985 20.1806C20.9985 20.6958 21.1481 21.1651 21.4044 21.5157C21.6603 21.8663 22.0347 22.1037 22.4594 22.1037C22.8841 22.1037 23.2585 21.8663 23.5144 21.5157C23.7703 21.1651 23.9206 20.6958 23.9206 20.1806C23.9206 19.6661 23.7703 19.1964 23.5144 18.8458C23.2585 18.4949 22.8841 18.2578 22.4594 18.2578ZM18.4044 18.6253C18.6806 18.6253 18.9415 18.7771 19.1448 19.056C19.3481 19.3346 19.4816 19.7352 19.4816 20.1806C19.4816 20.6264 19.3481 21.0259 19.1448 21.3048C18.9415 21.5834 18.6806 21.7362 18.4044 21.7362C18.1282 21.7362 17.8673 21.5834 17.664 21.3048C17.4607 21.0259 17.3268 20.6264 17.3268 20.1806C17.3268 19.7352 17.4607 19.3346 17.6644 19.056C17.8677 18.7771 18.1278 18.6253 18.4044 18.6253ZM22.4594 18.6253C22.7356 18.6253 22.9965 18.7771 23.1998 19.056C23.4031 19.3346 23.537 19.7352 23.537 20.1806C23.537 20.6264 23.4031 21.0259 23.1994 21.3048C22.9961 21.5834 22.736 21.7362 22.4594 21.7362C22.1832 21.7362 21.9223 21.5834 21.719 21.3048C21.5157 21.0259 21.3822 20.6264 21.3822 20.1806C21.3822 19.7352 21.5157 19.3346 21.719 19.056C21.9223 18.7771 22.1832 18.6253 22.4594 18.6253ZM15.3718 21.1618C14.9471 21.1618 14.5727 21.3992 14.3168 21.7498C14.0598 22.1004 13.9102 22.5697 13.9102 23.085C13.9102 23.5995 14.0602 24.0692 14.3164 24.4198C14.5723 24.7707 14.9467 25.0078 15.3714 25.0078C15.7961 25.0078 16.1701 24.7707 16.4264 24.4198C16.6823 24.0692 16.8323 23.5999 16.8323 23.085C16.8323 22.5697 16.6823 22.1004 16.4264 21.7498C16.1701 21.3992 15.7965 21.1618 15.3718 21.1618ZM25.4928 21.1618C25.0681 21.1618 24.694 21.3992 24.4378 21.7498C24.1819 22.1004 24.0319 22.5697 24.0319 23.085C24.0319 23.5995 24.1819 24.0692 24.4378 24.4198C24.694 24.7707 25.0681 25.0078 25.4928 25.0078C25.9174 25.0078 26.2919 24.7707 26.5478 24.4198C26.804 24.0692 26.9536 23.5999 26.9536 23.0854C26.9536 22.5701 26.8036 22.1008 26.5474 21.7502C26.2915 21.3996 25.9174 21.1618 25.4928 21.1618ZM15.3718 21.5293C15.648 21.5293 15.9085 21.6822 16.1122 21.9608C16.3155 22.2394 16.449 22.6392 16.449 23.085C16.449 23.5304 16.3155 23.931 16.1118 24.2096C15.9085 24.4885 15.648 24.6403 15.3714 24.6403C15.0952 24.6403 14.8347 24.4885 14.631 24.2096C14.4277 23.931 14.2942 23.5304 14.2942 23.085C14.2942 22.6392 14.4281 22.2397 14.6314 21.9608C14.8347 21.6822 15.0956 21.5293 15.3718 21.5293ZM25.4928 21.5293C25.769 21.5293 26.0299 21.6822 26.2332 21.9608C26.4365 22.2394 26.57 22.6392 26.57 23.0854C26.57 23.5308 26.4361 23.9314 26.2328 24.2099C26.0295 24.4889 25.7686 24.6406 25.4924 24.6406C25.2162 24.6406 24.9557 24.4889 24.752 24.2099C24.5486 23.9314 24.4151 23.5308 24.4151 23.0854C24.4151 22.6396 24.5486 22.2401 24.7524 21.9612C24.9557 21.6826 25.2162 21.5293 25.4928 21.5293ZM20.4319 22.7046C19.1905 22.7046 18.1063 23.3235 17.5635 24.247C17.3824 24.5506 17.2424 25.0464 17.0099 25.3393C16.7567 25.6579 16.4406 25.9082 16.0949 26.1L16.0892 26.1037C15.2329 26.6211 14.6805 27.4881 14.6797 28.4546C14.6797 30.0334 16.1345 31.3006 17.9045 31.3006C18.3639 31.3001 18.8187 31.2126 19.2426 31.0429C19.6195 30.8926 20.0237 30.8155 20.4319 30.8162C20.8512 30.8162 21.2479 30.8959 21.6158 31.0415C22.0378 31.2105 22.4924 31.3009 22.9593 31.3013C24.7293 31.3013 26.1841 30.0341 26.1841 28.4553C26.1829 27.487 25.6282 26.6196 24.7719 26.104L24.7658 26.1004C24.4125 25.9069 24.1026 25.6485 23.8539 25.34C23.7388 25.1956 23.6237 24.967 23.5301 24.7568C23.4376 24.548 23.3767 24.3742 23.303 24.2533C22.764 23.3272 21.6772 22.7046 20.4319 22.7046ZM20.4319 23.0721C21.5437 23.0721 22.5004 23.6289 22.9681 24.4315L22.9704 24.4356C22.9923 24.4712 23.0793 24.68 23.1775 24.9001C23.275 25.1202 23.3935 25.3672 23.5481 25.5616C23.8359 25.924 24.1934 26.2047 24.5732 26.4168C25.3259 26.8725 25.7993 27.6215 25.8008 28.4539C25.8008 29.8158 24.5394 30.9323 22.9593 30.9323C22.5488 30.9321 22.1426 30.8536 21.7642 30.7012C21.3424 30.5334 20.8886 30.4473 20.4319 30.4476C19.96 30.4476 19.5104 30.5384 19.0953 30.7034C18.7181 30.8544 18.3134 30.9322 17.9045 30.9323C16.3244 30.9323 15.0634 29.8158 15.0634 28.4539C15.0637 27.6233 15.5348 26.8751 16.2875 26.4175L16.2937 26.4138C16.6893 26.1968 17.0364 25.9071 17.3149 25.5612C17.621 25.1757 17.7745 24.634 17.8972 24.4286C18.368 23.6256 19.3232 23.0721 20.4319 23.0721Z" fill="white" stroke="white" stroke-width="0.833333"/>
</g>
</g>
</svg>
