<svg width="32" height="32" viewBox="0 0 32 32" fill="none" xmlns="http://www.w3.org/2000/svg">
<path d="M11.9997 13.3338C13.4724 13.3338 14.6663 12.1399 14.6663 10.6672C14.6663 9.1944 13.4724 8.00049 11.9997 8.00049C10.5269 8.00049 9.33301 9.1944 9.33301 10.6672C9.33301 12.1399 10.5269 13.3338 11.9997 13.3338Z" stroke="#839D8D" stroke-width="2.25684" stroke-linecap="round" stroke-linejoin="round"/>
<path d="M17.3337 2.66699H12.0003C5.33366 2.66699 2.66699 5.33366 2.66699 12.0003V20.0003C2.66699 26.667 5.33366 29.3337 12.0003 29.3337H20.0003C26.667 29.3337 29.3337 26.667 29.3337 20.0003V13.3337" stroke="#839D8D" stroke-width="2" stroke-linecap="round" stroke-linejoin="round"/>
<path d="M21.001 6.66699H28.3343" stroke="#839D8D" stroke-width="2" stroke-linecap="round"/>
<path d="M24.667 10.3338V3.00049" stroke="#839D8D" stroke-width="2" stroke-linecap="round"/>
<path d="M3.56055 25.2671L10.1339 20.8537C11.1872 20.1471 12.7072 20.2271 13.6539 21.0404L14.0939 21.4271C15.1339 22.3204 16.8139 22.3204 17.8539 21.4271L23.4005 16.6671C24.4405 15.7737 26.1205 15.7737 27.1605 16.6671L29.3339 18.5337" stroke="#839D8D" stroke-width="2" stroke-linecap="round" stroke-linejoin="round"/>
</svg>
