<svg width="24" height="24" viewBox="0 0 24 24" fill="none" xmlns="http://www.w3.org/2000/svg">
<path d="M21.452 0H2.552C2.21687 0 1.88501 0.0660095 1.57539 0.194259C1.26577 0.322509 0.984439 0.510488 0.747464 0.747464C0.268871 1.22606 0 1.87517 0 2.552V21.452C0.00105978 22.1281 0.270398 22.7762 0.748876 23.254C1.22735 23.7317 1.87586 24 2.552 24H21.452C22.1274 23.9989 22.7749 23.7302 23.2525 23.2525C23.7302 22.7749 23.9989 22.1274 24 21.452V2.552C24 1.87586 23.7317 1.22735 23.254 0.748876C22.7762 0.270398 22.1281 0.00105978 21.452 0ZM21.452 1.6C21.7038 1.60106 21.9449 1.70182 22.1226 1.88024C22.3003 2.05866 22.4 2.30021 22.4 2.552V14.5H16.2V1.6H21.452ZM8.4 14.5V1.6H14.6V14.5H8.4ZM2.552 22.4C2.30021 22.4 2.05866 22.3003 1.88024 22.1226C1.70182 21.9449 1.60106 21.7038 1.6 21.452V2.552C1.6 2.42698 1.62462 2.30319 1.67247 2.18769C1.72031 2.07218 1.79043 1.96724 1.87883 1.87883C2.05737 1.7003 2.29951 1.6 2.552 1.6H6.8V22.4H2.552ZM22.4 21.452C22.3989 21.7031 22.2987 21.9436 22.1212 22.1212C21.9436 22.2987 21.7031 22.3989 21.452 22.4H8.4V16.1H22.4V21.448V21.452Z" fill="#44544A"/>
</svg>
