<svg width="32" height="32" viewBox="0 0 32 32" fill="none" xmlns="http://www.w3.org/2000/svg">
<g id="Icon">
<g id="Layer 75">
<path id="Vector" d="M1.06667 29.6639C0.783769 29.6639 0.512458 29.5516 0.312419 29.3515C0.112381 29.1515 0 28.8802 0 28.5973V3.4026C0 3.11971 0.112381 2.8484 0.312419 2.64836C0.512458 2.44832 0.783769 2.33594 1.06667 2.33594C1.34956 2.33594 1.62088 2.44832 1.82091 2.64836C2.02095 2.8484 2.13333 3.11971 2.13333 3.4026V28.5973C2.13333 28.8802 2.02095 29.1515 1.82091 29.3515C1.62088 29.5516 1.34956 29.6639 1.06667 29.6639Z" fill="white"/>
<path id="Vector_2" d="M28.6027 0H3.40267C2.95582 0 2.51335 0.0880126 2.10052 0.259013C1.68769 0.430013 1.31258 0.680651 0.996618 0.996618C0.358494 1.63474 0 2.50022 0 3.40267V28.6027C0.00141304 29.5042 0.360531 30.3683 0.998502 31.0053C1.63647 31.6422 2.50115 32 3.40267 32H28.6027C29.5033 31.9986 30.3666 31.6402 31.0034 31.0034C31.6402 30.3666 31.9986 29.5033 32 28.6027V3.40267C32 2.50115 31.6422 1.63647 31.0053 0.998502C30.3683 0.360531 29.5042 0.00141304 28.6027 0ZM28.6027 2.13333C28.9384 2.13474 29.2599 2.2691 29.4968 2.50699C29.7337 2.74489 29.8667 3.06694 29.8667 3.40267V19.3333H21.6V2.13333H28.6027ZM11.2 19.3333V2.13333H19.4667V19.3333H11.2ZM3.40267 29.8667C3.06694 29.8667 2.74489 29.7337 2.50699 29.4968C2.2691 29.2599 2.13474 28.9384 2.13333 28.6027V3.40267C2.13333 3.23598 2.16617 3.07092 2.22996 2.91691C2.29375 2.76291 2.38724 2.62298 2.50511 2.50511C2.74316 2.26707 3.06602 2.13333 3.40267 2.13333H9.06667V29.8667H3.40267ZM29.8667 28.6027C29.8653 28.9375 29.7316 29.2582 29.4949 29.4949C29.2582 29.7316 28.9375 29.8653 28.6027 29.8667H11.2V21.4667H29.8667V28.5973V28.6027Z" fill="white"/>
</g>
</g>
</svg>
