<svg width="48" height="48" viewBox="0 0 48 48" fill="none" xmlns="http://www.w3.org/2000/svg">
<path d="M25 24.8828C27.617 24.8828 29.7461 22.7538 29.7461 20.1367C29.7461 17.5197 27.617 15.3906 25 15.3906C22.383 15.3906 20.2539 17.5197 20.2539 20.1367C20.2539 22.7538 22.383 24.8828 25 24.8828ZM25 17.7344C26.3245 17.7344 27.4023 18.8122 27.4023 20.1367C27.4023 21.4613 26.3245 22.5391 25 22.5391C23.6755 22.5391 22.5977 21.4613 22.5977 20.1367C22.5977 18.8122 23.6755 17.7344 25 17.7344ZM24.2603 35.009L25 35.6112L25.7397 35.009C25.8345 34.9319 28.0862 33.0898 30.3682 30.4561C33.5323 26.8038 35.1367 23.5223 35.1367 20.7027V20.1374C35.1367 14.5477 30.5895 10 25 10C19.4105 10 14.8633 14.5477 14.8633 20.1374V20.7027C14.8633 23.5223 16.4677 26.8038 19.6318 30.4561C21.9135 33.0898 24.1655 34.9319 24.2603 35.009ZM17.207 20.1374C17.207 15.8399 20.703 12.3438 25 12.3438C29.297 12.3438 32.793 15.8399 32.793 20.1374V20.7027C32.793 22.9044 31.3496 25.7372 28.6193 28.8953C27.2309 30.5012 25.8263 31.8177 24.9998 32.5533C24.1792 31.8234 22.7879 30.5197 21.4034 28.9214C18.6581 25.7528 17.207 22.9108 17.207 20.7027V20.1374ZM40 35.7227C40 36.6093 39.425 37.3644 38.2909 37.9664C37.5022 38.3852 36.4068 38.7537 35.0349 39.0618C32.3412 39.6667 28.7775 40 25 40C21.2225 40 17.6588 39.6667 14.9651 39.062C13.5932 38.754 12.4978 38.3852 11.7091 37.9666C10.575 37.3644 10 36.6093 10 35.7227C10 34.836 10.575 34.0809 11.7091 33.4789C12.4978 33.0601 13.5932 32.6916 14.9651 32.3835C15.8209 32.1912 16.7653 32.0269 17.7756 31.8916C17.8042 31.9248 17.8316 31.9578 17.8605 31.991C18.5048 32.7346 19.1486 33.4199 19.7481 34.0266C18.4501 34.1493 17.2379 34.3173 16.1617 34.5272C13.989 34.9509 12.932 35.4361 12.5122 35.7227C12.932 36.0092 13.9887 36.4944 16.1617 36.9181C18.6025 37.3942 21.7414 37.6562 25 37.6562C28.2586 37.6562 31.3975 37.3942 33.8383 36.9181C36.011 36.4944 37.068 36.0092 37.4878 35.7227C37.068 35.4361 36.0113 34.9509 33.8383 34.5272C32.7621 34.3173 31.5501 34.1491 30.2522 34.0266C30.8514 33.4199 31.4952 32.7346 32.1395 31.991C32.1684 31.9578 32.196 31.9246 32.2244 31.8914C33.2347 32.0269 34.1791 32.1912 35.0349 32.3833C36.4068 32.6913 37.5022 33.0601 38.2909 33.4787C39.425 34.0809 40 34.836 40 35.7227Z" fill="white"/>
</svg>
