<svg width="33" height="29" viewBox="0 0 33 29" fill="none" xmlns="http://www.w3.org/2000/svg">
<path d="M6.98585 13.1965L15.6258 6.71653C16.1947 6.28987 16.977 6.28987 17.5458 6.71653L26.1858 13.1965M6.98585 13.1965L5.38585 14.3965C2.58593 16.3965 0.185877 12.7965 2.58585 11.1965L15.2465 1.88725C15.8063 1.47562 16.5678 1.47237 17.1311 1.8792L30.4819 11.5215C30.5511 11.5714 30.6184 11.6282 30.677 11.6903C32.9131 14.0583 30.1547 16.3705 27.7859 14.3965L26.1858 13.1965M6.98585 13.1965V25.5965C6.98585 26.4802 7.70219 27.1965 8.58585 27.1965H24.5858C25.4695 27.1965 26.1858 26.4802 26.1858 25.5965V13.1965" stroke="#44544A" stroke-width="2"/>
<path d="M14.7256 12.6028C14.3859 12.6028 14.0864 12.7924 13.8817 13.0732C13.6769 13.3537 13.5566 13.7291 13.5566 14.141C13.5566 14.5532 13.6769 14.9286 13.8817 15.2091C14.0864 15.4896 14.3859 15.6795 14.7256 15.6795C15.0654 15.6795 15.3649 15.4896 15.5696 15.2091C15.7743 14.9286 15.8943 14.5532 15.8943 14.141C15.8943 13.7294 15.7746 13.3537 15.5696 13.0732C15.3649 12.7924 15.0654 12.6028 14.7256 12.6028ZM17.9696 12.6028C17.6299 12.6028 17.3304 12.7924 17.1256 13.0732C16.9209 13.3537 16.8009 13.7291 16.8009 14.141C16.8009 14.5532 16.9206 14.9286 17.1256 15.2091C17.3304 15.4896 17.6299 15.6795 17.9696 15.6795C18.3094 15.6795 18.6089 15.4896 18.8136 15.2091C19.0183 14.9286 19.1386 14.5532 19.1386 14.141C19.1386 13.7294 19.0183 13.3537 18.8136 13.0732C18.6089 12.7924 18.3094 12.6028 17.9696 12.6028ZM14.7256 12.8968C14.9466 12.8968 15.1553 13.0182 15.318 13.2414C15.4806 13.4642 15.5874 13.7847 15.5874 14.141C15.5874 14.4976 15.4806 14.8172 15.318 15.0404C15.1553 15.2632 14.9466 15.3855 14.7256 15.3855C14.5047 15.3855 14.296 15.2632 14.1333 15.0404C13.9707 14.8172 13.8635 14.4976 13.8635 14.141C13.8635 13.7847 13.9707 13.4642 14.1336 13.2414C14.2963 13.0182 14.5044 12.8968 14.7256 12.8968ZM17.9696 12.8968C18.1906 12.8968 18.3993 13.0182 18.562 13.2414C18.7246 13.4642 18.8317 13.7847 18.8317 14.141C18.8317 14.4976 18.7246 14.8172 18.5617 15.0404C18.399 15.2632 18.1909 15.3855 17.9696 15.3855C17.7487 15.3855 17.54 15.2632 17.3773 15.0404C17.2146 14.8172 17.1078 14.4976 17.1078 14.141C17.1078 13.7847 17.2146 13.4642 17.3773 13.2414C17.54 13.0182 17.7487 12.8968 17.9696 12.8968ZM12.2996 14.926C11.9598 14.926 11.6603 15.1159 11.4556 15.3964C11.2499 15.6769 11.1302 16.0523 11.1302 16.4645C11.1302 16.8761 11.2502 17.2519 11.4553 17.5323C11.66 17.8131 11.9595 18.0028 12.2993 18.0028C12.639 18.0028 12.9382 17.8131 13.1432 17.5323C13.3479 17.2519 13.4679 16.8764 13.4679 16.4645C13.4679 16.0523 13.3479 15.6769 13.1432 15.3964C12.9382 15.1159 12.6393 14.926 12.2996 14.926ZM20.3963 14.926C20.0566 14.926 19.7574 15.1159 19.5523 15.3964C19.3476 15.6769 19.2276 16.0523 19.2276 16.4645C19.2276 16.8761 19.3476 17.2519 19.5523 17.5323C19.7574 17.8131 20.0566 18.0028 20.3963 18.0028C20.7361 18.0028 21.0356 17.8131 21.2403 17.5323C21.4453 17.2519 21.565 16.8764 21.565 16.4648C21.565 16.0526 21.445 15.6772 21.24 15.3967C21.0353 15.1162 20.7361 14.926 20.3963 14.926ZM12.2996 15.22C12.5205 15.22 12.7289 15.3423 12.8919 15.5652C13.0545 15.788 13.1613 16.1079 13.1613 16.4645C13.1613 16.8209 13.0545 17.1413 12.8916 17.3642C12.7289 17.5873 12.5205 17.7087 12.2993 17.7087C12.0783 17.7087 11.8699 17.5873 11.7069 17.3642C11.5443 17.1413 11.4375 16.8209 11.4375 16.4645C11.4375 16.1079 11.5446 15.7883 11.7072 15.5652C11.8699 15.3423 12.0786 15.22 12.2996 15.22ZM20.3963 15.22C20.6173 15.22 20.826 15.3423 20.9887 15.5652C21.1513 15.788 21.2581 16.1079 21.2581 16.4648C21.2581 16.8212 21.151 17.1416 20.9884 17.3645C20.8257 17.5876 20.617 17.709 20.396 17.709C20.1751 17.709 19.9667 17.5876 19.8037 17.3645C19.641 17.1416 19.5342 16.8212 19.5342 16.4648C19.5342 16.1082 19.641 15.7886 19.804 15.5655C19.9667 15.3426 20.1751 15.22 20.3963 15.22ZM16.3476 16.1602C15.3545 16.1602 14.4872 16.6553 14.0529 17.3942C13.9081 17.637 13.796 18.0336 13.61 18.2679C13.4075 18.5228 13.1546 18.7231 12.8781 18.8765L12.8735 18.8795C12.1885 19.2934 11.7465 19.987 11.7459 20.7602C11.7459 22.0233 12.9097 23.037 14.3257 23.037C14.6933 23.0367 15.0571 22.9666 15.3962 22.8309C15.6977 22.7106 16.0211 22.6489 16.3476 22.6495C16.6831 22.6495 17.0004 22.7133 17.2947 22.8297C17.6323 22.9649 17.996 23.0373 18.3695 23.0376C19.7856 23.0376 20.9494 22.0238 20.9494 20.7608C20.9485 19.9861 20.5047 19.2923 19.8197 18.8798L19.8148 18.8768C19.5321 18.7221 19.2842 18.5154 19.0852 18.2685C18.9932 18.153 18.9011 17.9701 18.8262 17.8019C18.7522 17.635 18.7034 17.4959 18.6445 17.3992C18.2133 16.6583 17.3439 16.1602 16.3476 16.1602ZM16.3476 16.4542C17.2371 16.4542 18.0025 16.8996 18.3766 17.5418L18.3784 17.545C18.3959 17.5735 18.4656 17.7405 18.5442 17.9166C18.6221 18.0927 18.7169 18.2903 18.8406 18.4458C19.0708 18.7357 19.3568 18.9603 19.6607 19.13C20.2628 19.4945 20.6416 20.0937 20.6428 20.7596C20.6428 21.8492 19.6337 22.7424 18.3695 22.7424C18.0412 22.7422 17.7162 22.6794 17.4135 22.5575C17.0761 22.4233 16.713 22.3543 16.3476 22.3546C15.9701 22.3546 15.6105 22.4272 15.2784 22.5592C14.9766 22.6801 14.6528 22.7423 14.3257 22.7424C13.0616 22.7424 12.0528 21.8492 12.0528 20.7596C12.0531 20.0952 12.43 19.4966 13.0321 19.1306L13.0371 19.1276C13.3536 18.954 13.6312 18.7222 13.854 18.4455C14.0989 18.1371 14.2217 17.7037 14.3199 17.5394C14.6965 16.897 15.4607 16.4542 16.3476 16.4542Z" fill="#44544A" stroke="#44544A" stroke-width="0.7"/>
</svg>
