<svg width="20" height="22" viewBox="0 0 20 22" fill="none" xmlns="http://www.w3.org/2000/svg">
<path d="M6 4.75C5.59 4.75 5.25 4.41 5.25 4V1C5.25 0.59 5.59 0.25 6 0.25C6.41 0.25 6.75 0.59 6.75 1V4C6.75 4.41 6.41 4.75 6 4.75Z" fill="#E4B819"/>
<path d="M14 4.75C13.59 4.75 13.25 4.41 13.25 4V1C13.25 0.59 13.59 0.25 14 0.25C14.41 0.25 14.75 0.59 14.75 1V4C14.75 4.41 14.41 4.75 14 4.75Z" fill="#E4B819"/>
<path d="M6.5 13.5003C6.37 13.5003 6.24 13.4703 6.12 13.4203C5.99 13.3703 5.89 13.3003 5.79 13.2103C5.61 13.0203 5.5 12.7703 5.5 12.5003C5.5 12.3703 5.53 12.2403 5.58 12.1203C5.63 12.0003 5.7 11.8903 5.79 11.7903C5.89 11.7003 5.99 11.6303 6.12 11.5803C6.48 11.4303 6.93 11.5103 7.21 11.7903C7.39 11.9803 7.5 12.2403 7.5 12.5003C7.5 12.5603 7.49 12.6303 7.48 12.7003C7.47 12.7603 7.45 12.8203 7.42 12.8803C7.4 12.9403 7.37 13.0003 7.33 13.0603C7.3 13.1103 7.25 13.1603 7.21 13.2103C7.02 13.3903 6.76 13.5003 6.5 13.5003Z" fill="#E4B819"/>
<path d="M10 13.5008C9.87 13.5008 9.74 13.4709 9.62 13.4209C9.49 13.3709 9.39 13.3008 9.29 13.2108C9.11 13.0208 9 12.7708 9 12.5008C9 12.3708 9.03 12.2408 9.08 12.1208C9.13 12.0008 9.2 11.8909 9.29 11.7909C9.39 11.7009 9.49 11.6308 9.62 11.5808C9.98 11.4208 10.43 11.5109 10.71 11.7909C10.89 11.9809 11 12.2408 11 12.5008C11 12.5608 10.99 12.6309 10.98 12.7009C10.97 12.7609 10.95 12.8209 10.92 12.8809C10.9 12.9409 10.87 13.0008 10.83 13.0608C10.8 13.1108 10.75 13.1608 10.71 13.2108C10.52 13.3908 10.26 13.5008 10 13.5008Z" fill="#E4B819"/>
<path d="M13.5 13.5008C13.37 13.5008 13.24 13.4709 13.12 13.4209C12.99 13.3709 12.89 13.3008 12.79 13.2108C12.75 13.1608 12.71 13.1108 12.67 13.0608C12.63 13.0008 12.6 12.9409 12.58 12.8809C12.55 12.8209 12.53 12.7609 12.52 12.7009C12.51 12.6309 12.5 12.5608 12.5 12.5008C12.5 12.2408 12.61 11.9809 12.79 11.7909C12.89 11.7009 12.99 11.6308 13.12 11.5808C13.49 11.4208 13.93 11.5109 14.21 11.7909C14.39 11.9809 14.5 12.2408 14.5 12.5008C14.5 12.5608 14.49 12.6309 14.48 12.7009C14.47 12.7609 14.45 12.8209 14.42 12.8809C14.4 12.9409 14.37 13.0008 14.33 13.0608C14.3 13.1108 14.25 13.1608 14.21 13.2108C14.02 13.3908 13.76 13.5008 13.5 13.5008Z" fill="#E4B819"/>
<path d="M6.5 16.9992C6.37 16.9992 6.24 16.9692 6.12 16.9192C6 16.8692 5.89 16.7992 5.79 16.7092C5.61 16.5192 5.5 16.2592 5.5 15.9992C5.5 15.8692 5.53 15.7392 5.58 15.6192C5.63 15.4892 5.7 15.3792 5.79 15.2892C6.16 14.9192 6.84 14.9192 7.21 15.2892C7.39 15.4792 7.5 15.7392 7.5 15.9992C7.5 16.2592 7.39 16.5192 7.21 16.7092C7.02 16.8892 6.76 16.9992 6.5 16.9992Z" fill="#E4B819"/>
<path d="M10 16.9992C9.74 16.9992 9.48 16.8892 9.29 16.7092C9.11 16.5192 9 16.2592 9 15.9992C9 15.8692 9.03 15.7392 9.08 15.6192C9.13 15.4892 9.2 15.3792 9.29 15.2892C9.66 14.9192 10.34 14.9192 10.71 15.2892C10.8 15.3792 10.87 15.4892 10.92 15.6192C10.97 15.7392 11 15.8692 11 15.9992C11 16.2592 10.89 16.5192 10.71 16.7092C10.52 16.8892 10.26 16.9992 10 16.9992Z" fill="#E4B819"/>
<path d="M13.5 17.0009C13.24 17.0009 12.98 16.8909 12.79 16.7109C12.7 16.6209 12.63 16.5109 12.58 16.3809C12.53 16.2609 12.5 16.1309 12.5 16.0009C12.5 15.8709 12.53 15.7409 12.58 15.6209C12.63 15.4909 12.7 15.3809 12.79 15.2909C13.02 15.0609 13.37 14.9509 13.69 15.0209C13.76 15.0309 13.82 15.0509 13.88 15.0809C13.94 15.1009 14 15.1309 14.06 15.1709C14.11 15.2009 14.16 15.2509 14.21 15.2909C14.39 15.4809 14.5 15.7409 14.5 16.0009C14.5 16.2609 14.39 16.5209 14.21 16.7109C14.02 16.8909 13.76 17.0009 13.5 17.0009Z" fill="#E4B819"/>
<path d="M18.5 8.83984H1.5C1.09 8.83984 0.75 8.49984 0.75 8.08984C0.75 7.67984 1.09 7.33984 1.5 7.33984H18.5C18.91 7.33984 19.25 7.67984 19.25 8.08984C19.25 8.49984 18.91 8.83984 18.5 8.83984Z" fill="#E4B819"/>
<path d="M1 18V6C1 4.34315 2.34315 3 4 3H16C17.6569 3 19 4.34315 19 6V18C19 19.6569 17.6569 21 16 21H4C2.34315 21 1 19.6569 1 18Z" stroke="#E4B819" stroke-width="1.5"/>
</svg>
