<svg width="24" height="24" viewBox="0 0 24 24" fill="none" xmlns="http://www.w3.org/2000/svg">
<mask id="mask0_6760_172053" style="mask-type:alpha" maskUnits="userSpaceOnUse" x="0" y="0" width="24" height="24">
<rect x="24" width="24" height="24" transform="rotate(90 24 0)" fill="#D9D9D9"/>
</mask>
<g mask="url(#mask0_6760_172053)">
<path d="M11.6195 15.9038C9.68903 15.9038 8.04911 15.2281 6.69978 13.8767C5.35045 12.5252 4.67578 10.8842 4.67578 8.9535C4.67578 7.023 5.35078 5.38142 6.70078 4.02875C8.05095 2.67625 9.69036 2 11.619 2C13.5477 2 15.1884 2.67575 16.541 4.02725C17.8935 5.37858 18.5698 7.01958 18.5698 8.95025C18.5698 10.8809 17.8941 12.5225 16.5428 13.875C15.1913 15.2275 13.5502 15.9038 11.6195 15.9038ZM11.6173 14.4038C13.1374 14.4038 14.4262 13.8751 15.4835 12.8177C16.541 11.7603 17.0698 10.4714 17.0698 8.95125C17.0698 7.43125 16.541 6.14267 15.4835 5.0855C14.4262 4.0285 13.1374 3.5 11.6173 3.5C10.0973 3.5 8.81028 4.02875 7.75628 5.08625C6.70245 6.14375 6.17553 7.4325 6.17553 8.9525C6.17553 10.4727 6.70245 11.7613 7.75628 12.8183C8.81028 13.8753 10.0973 14.4038 11.6173 14.4038ZM13.7718 12.2402L14.8353 11.1865L12.3775 8.70375V5.09625H10.8775V9.34625L13.7718 12.2402Z" fill="#44544A"/>
<path d="M7.59625 16.3457L4.5 19.4417L7.59625 22.538L8.65 21.484L7.35775 20.1917H19.5V18.6917H7.373L8.65 17.415L7.59625 16.3457Z" fill="#44544A"/>
</g>
</svg>
