<svg width="24" height="24" viewBox="0 0 24 24" fill="none" xmlns="http://www.w3.org/2000/svg">
<path d="M13.5785 16.7752C13.5791 16.641 13.5518 16.5082 13.4985 16.3852C13.4451 16.2621 13.3668 16.1514 13.2685 16.0602L7.3005 10.5542L1.3305 16.0602C1.23238 16.1515 1.15426 16.2622 1.10108 16.3853C1.04789 16.5084 1.0208 16.6411 1.0215 16.7752V22.1452C1.0215 22.4014 1.12327 22.6471 1.30443 22.8282C1.48559 23.0094 1.7313 23.1112 1.9875 23.1112H12.6135C12.8697 23.1112 13.1154 23.0094 13.2966 22.8282C13.4777 22.6471 13.5795 22.4014 13.5795 22.1452L13.5785 16.7752ZM16.9975 7.72617C17.4513 7.73393 17.9022 7.65125 18.3237 7.48294C18.7453 7.31463 19.1291 7.06406 19.4528 6.74585C19.7765 6.42765 20.0336 6.04817 20.2091 5.62956C20.3846 5.21095 20.475 4.76158 20.475 4.30767C20.475 3.85376 20.3846 3.4044 20.2091 2.98578C20.0336 2.56717 19.7765 2.1877 19.4528 1.86949C19.1291 1.55128 18.7453 1.30072 18.3237 1.13241C17.9022 0.964095 17.4513 0.881409 16.9975 0.889172C16.101 0.904506 15.2464 1.27141 14.6178 1.91084C13.9892 2.55026 13.637 3.41102 13.637 4.30767C13.637 5.20432 13.9892 6.06508 14.6178 6.70451C15.2464 7.34393 16.101 7.71084 16.9975 7.72617Z" stroke="#FA6140" stroke-width="1.5" stroke-linecap="round" stroke-linejoin="round"/>
<path d="M16.4229 23.1105H19.5609L20.4159 16.2725H22.9799V13.7095C22.9799 12.4135 22.559 11.1525 21.7807 10.1163C21.0023 9.08007 19.9086 8.32459 18.6639 7.96349C17.4192 7.6024 16.091 7.65521 14.8789 8.11399C13.6668 8.57277 12.6365 9.41272 11.9429 10.5075M9.71588 18.0495H4.87988" stroke="#FA6140" stroke-width="1.5" stroke-linecap="round" stroke-linejoin="round"/>
</svg>
