<svg width="26" height="24" viewBox="0 0 26 24" fill="none" xmlns="http://www.w3.org/2000/svg">
<path fill-rule="evenodd" clip-rule="evenodd" d="M11.4984 1.33313C12.2151 0.796432 13.199 0.792297 13.9203 1.32271L24.4698 9.08226C24.5549 9.14489 24.6462 9.22245 24.731 9.31403C25.2654 9.89063 25.56 10.5296 25.5826 11.1673C25.6052 11.8102 25.3467 12.3844 24.9064 12.7828C24.0195 13.5848 22.5936 13.5622 21.4368 12.6005L21.3751 12.5536V21.0423C21.3748 22.1641 20.4657 23.0734 19.3439 23.0736H6.70935C5.58741 23.0736 4.67755 22.1642 4.67723 21.0423V12.5536L4.6156 12.6014L4.60171 12.6118C3.91497 13.1112 3.18767 13.3034 2.50622 13.2064C1.83328 13.1105 1.27546 12.7419 0.908998 12.2541C0.544725 11.769 0.352537 11.1423 0.433304 10.505C0.516334 9.85151 0.879898 9.241 1.52271 8.80448L11.4984 1.33313ZM13.054 6.47028C12.8613 6.33061 12.5993 6.33593 12.4125 6.4833L6.17723 11.4008V21.0423C6.17755 21.3358 6.41584 21.5736 6.70935 21.5736H19.3439C19.6373 21.5734 19.8748 21.3357 19.8751 21.0423V11.4191L13.054 6.47028ZM13.0314 2.53104C12.8427 2.39243 12.5852 2.39337 12.3977 2.53365L2.37948 10.0363L2.3656 10.0458C2.05894 10.2541 1.94702 10.4905 1.92115 10.6934C1.89346 10.9122 1.95863 11.1533 2.10865 11.3531C2.25669 11.5501 2.47118 11.686 2.71803 11.7211C2.95498 11.7548 3.29305 11.7042 3.71021 11.4034L4.9715 10.4416L11.4837 5.30535C12.1976 4.74222 13.199 4.72194 13.935 5.25587L21.0661 10.4303L21.0731 10.4356L21.0809 10.4416L22.3474 11.4086L22.363 11.4208L22.3769 11.433C23.0895 12.0376 23.6766 11.8729 23.9003 11.6708C24.0185 11.5639 24.0902 11.4132 24.0835 11.2203C24.0764 11.0216 23.9812 10.7107 23.6312 10.3331C23.623 10.3243 23.606 10.3091 23.5809 10.2906L13.0314 2.53104Z" fill="#E4B819"/>
<path d="M13.3717 10.3435C13.9842 10.3438 14.481 10.8404 14.481 11.4529V13.709L16.6868 13.7116C17.3067 13.7124 17.809 14.2158 17.8083 14.8357C17.8075 15.4557 17.3041 15.9576 16.6842 15.9573L14.481 15.9547V18.2168C14.481 18.8294 13.9842 19.326 13.3717 19.3262C12.7589 19.3262 12.2623 18.8295 12.2623 18.2168V15.9529L10.054 15.9512C9.43395 15.9506 8.93191 15.4479 8.93244 14.8279C8.93313 14.2078 9.43642 13.705 10.0566 13.7055L12.2623 13.7073V11.4529C12.2624 10.8402 12.759 10.3436 13.3717 10.3435Z" fill="#E4B819"/>
</svg>
