<svg width="36" height="33" viewBox="0 0 36 33" fill="none" xmlns="http://www.w3.org/2000/svg">
<path d="M32.5981 15.8603V28.5457C32.5981 31.0066 30.5958 33.0089 28.1348 33.0089H7.86462C5.40368 33.0089 3.40137 31.0066 3.40137 28.5457V15.8603C3.40137 15.5848 3.51211 15.3216 3.7083 15.1288L15.6858 3.35664C16.3235 2.72979 17.1616 2.41602 17.9997 2.41602C18.8378 2.41602 19.6759 2.72979 20.3137 3.35664L32.2911 15.1288C32.3883 15.2242 32.4655 15.338 32.5182 15.4636C32.5709 15.5892 32.5981 15.724 32.5981 15.8603Z" fill="#EFEFEF"/>
<path d="M32.5984 15.8603V28.5457C32.5984 31.0066 30.5961 33.0089 28.1351 33.0089H18V2.41602C18.8381 2.41602 19.6762 2.72979 20.314 3.35664L32.2913 15.1288C32.3886 15.2242 32.4658 15.338 32.5185 15.4636C32.5712 15.5892 32.5984 15.724 32.5984 15.8603Z" fill="#E5E5E9"/>
<path d="M35.2062 17.9997C35.1108 18.0968 34.9969 18.1739 34.8713 18.2264C34.7458 18.279 34.611 18.3061 34.4748 18.306C34.215 18.306 33.956 18.2082 33.7563 18.012L18.8764 3.38789C18.6344 3.15 18.3172 3.03174 18 3.03174C17.6828 3.03174 17.3656 3.15 17.1236 3.38789L2.24363 18.012C1.84031 18.4092 1.1909 18.403 0.793729 17.9997C0.397244 17.5957 0.402713 16.9463 0.806717 16.5491L15.686 1.925C16.3238 1.29814 17.1619 0.984375 18 0.984375C18.8381 0.984375 19.6762 1.29814 20.314 1.925L35.1933 16.5491C35.5973 16.9463 35.6027 17.5957 35.2062 17.9997Z" fill="#6E6E6E"/>
<path d="M25.0548 18.0497V22.1424C25.0548 22.5197 24.7493 22.826 24.3712 22.826H20.7303V26.4675C20.7303 26.8448 20.4241 27.1511 20.0467 27.1511H15.9541C15.5767 27.1511 15.2705 26.8448 15.2705 26.4675V22.826H11.6289C11.2509 22.826 10.9453 22.5197 10.9453 22.1424V18.0497C10.9453 17.6724 11.2509 17.3661 11.6289 17.3661H15.2705V13.7246C15.2705 13.3473 15.5767 13.041 15.9541 13.041H20.0468C20.4242 13.041 20.7304 13.3473 20.7304 13.7246V17.3661H24.3713C24.7493 17.3661 25.0548 17.6724 25.0548 18.0497Z" fill="#FF6769"/>
<path d="M25.0548 18.0497V22.1424C25.0548 22.5197 24.7492 22.826 24.3712 22.826H20.7303V26.4675C20.7303 26.8448 20.424 27.1511 20.0467 27.1511H18V13.041H20.0467C20.424 13.041 20.7303 13.3473 20.7303 13.7246V17.3661H24.3712C24.7492 17.3661 25.0548 17.6724 25.0548 18.0497Z" fill="#FF0C6C"/>
<path d="M35.2063 17.9997C35.1108 18.0968 34.9969 18.1739 34.8714 18.2264C34.7458 18.279 34.611 18.3061 34.4748 18.306C34.215 18.306 33.956 18.2082 33.7564 18.012L18.8764 3.38789C18.6344 3.15 18.3172 3.03174 18 3.03174V0.984375C18.8381 0.984375 19.6762 1.29814 20.314 1.925L35.1933 16.5491C35.5973 16.9463 35.6027 17.5957 35.2063 17.9997Z" fill="#5A5A5A"/>
</svg>
