<svg width="24" height="24" viewBox="0 0 24 24" fill="none" xmlns="http://www.w3.org/2000/svg">
<g clip-path="url(#clip0_4321_23094)">
<path d="M6.00009 20.2506C11.5651 20.2506 20.2502 20.2506 20.2502 20.2506V11.2506C20.2502 11.1521 20.2309 11.0545 20.1933 10.9635C20.1556 10.8724 20.1004 10.7897 20.0308 10.72L12.5308 3.21996C12.4611 3.15023 12.3784 3.09491 12.2874 3.05717C12.1963 3.01943 12.0987 3 12.0002 3C11.9016 3 11.804 3.01943 11.713 3.05717C11.6219 3.09491 11.5392 3.15023 11.4695 3.21996L4.93945 9.75" stroke="#006D35" stroke-width="1.5" stroke-linecap="round" stroke-linejoin="round"/>
<path fill-rule="evenodd" clip-rule="evenodd" d="M10.2897 15.7614L11.6629 14.3727H2.36236C1.88628 14.3727 1.5 13.982 1.5 13.5006C1.5 13.018 1.88628 12.6285 2.36236 12.6285H11.6629L10.2897 11.2387C9.9528 10.8991 9.9528 10.3462 10.2897 10.0055C10.6265 9.66483 11.1722 9.66483 11.5091 10.0055L13.1687 11.6838C13.4269 11.9449 13.6785 12.1993 13.8581 12.4366C14.0602 12.7057 14.25 13.052 14.25 13.5006C14.25 13.948 14.0602 14.2954 13.8581 14.5634C13.6785 14.8007 13.4269 15.0551 13.1687 15.3162L11.5091 16.9945C11.1722 17.3352 10.6265 17.3352 10.2897 16.9945C9.9528 16.6538 9.9528 16.102 10.2897 15.7614Z" fill="#006D35"/>
</g>
<defs>
<clipPath id="clip0_4321_23094">
<rect width="24" height="24" fill="white"/>
</clipPath>
</defs>
</svg>
