<svg width="24" height="24" viewBox="0 0 24 24" fill="none" xmlns="http://www.w3.org/2000/svg">
<g clip-path="url(#clip0_4321_23137)">
<path d="M18 20.2506C12.435 20.2506 3.74988 20.2506 3.74988 20.2506V11.2506C3.74981 11.1521 3.76914 11.0545 3.80678 10.9635C3.84442 10.8724 3.89963 10.7897 3.96926 10.72L11.4693 3.21996C11.5389 3.15023 11.6216 3.09491 11.7127 3.05717C11.8037 3.01943 11.9013 3 11.9999 3C12.0984 3 12.196 3.01943 12.2871 3.05717C12.3781 3.09491 12.4609 3.15023 12.5305 3.21996L18.3105 9" stroke="#FA6140" stroke-width="1.5" stroke-linecap="round" stroke-linejoin="round"/>
<path fill-rule="evenodd" clip-rule="evenodd" d="M20.0397 16.5114L21.4129 15.1227H12.1124C11.6363 15.1227 11.25 14.732 11.25 14.2506C11.25 13.768 11.6363 13.3785 12.1124 13.3785H21.4129L20.0397 11.9887C19.7028 11.6491 19.7028 11.0962 20.0397 10.7555C20.3765 10.4148 20.9222 10.4148 21.2591 10.7555L22.9187 12.4338C23.1769 12.6949 23.4285 12.9493 23.6081 13.1866C23.8102 13.4557 24 13.802 24 14.2506C24 14.698 23.8102 15.0454 23.6081 15.3134C23.4285 15.5507 23.1769 15.8051 22.9187 16.0662L21.2591 17.7445C20.9222 18.0852 20.3765 18.0852 20.0397 17.7445C19.7028 17.4038 19.7028 16.852 20.0397 16.5114Z" fill="#FA6140"/>
</g>
<defs>
<clipPath id="clip0_4321_23137">
<rect width="24" height="24" fill="white" transform="matrix(-1 0 0 1 24 0)"/>
</clipPath>
</defs>
</svg>
